G04 #@! TF.GenerationSoftware,KiCad,Pcbnew,9.0.6*
G04 #@! TF.CreationDate,2026-03-16T09:52:43-07:00*
G04 #@! TF.ProjectId,mutebox_hat_audio_in,6d757465-626f-4785-9f68-61745f617564,rev?*
G04 #@! TF.SameCoordinates,Original*
G04 #@! TF.FileFunction,Legend,Top*
G04 #@! TF.FilePolarity,Positive*
%FSLAX46Y46*%
G04 Gerber Fmt 4.6, Leading zero omitted, Abs format (unit mm)*
G04 Created by KiCad (PCBNEW 9.0.6) date 2026-03-16 09:52:43*
%MOMM*%
%LPD*%
G01*
G04 APERTURE LIST*
G04 Aperture macros list*
%AMRoundRect*
0 Rectangle with rounded corners*
0 $1 Rounding radius*
0 $2 $3 $4 $5 $6 $7 $8 $9 X,Y pos of 4 corners*
0 Add a 4 corners polygon primitive as box body*
4,1,4,$2,$3,$4,$5,$6,$7,$8,$9,$2,$3,0*
0 Add four circle primitives for the rounded corners*
1,1,$1+$1,$2,$3*
1,1,$1+$1,$4,$5*
1,1,$1+$1,$6,$7*
1,1,$1+$1,$8,$9*
0 Add four rect primitives between the rounded corners*
20,1,$1+$1,$2,$3,$4,$5,0*
20,1,$1+$1,$4,$5,$6,$7,0*
20,1,$1+$1,$6,$7,$8,$9,0*
20,1,$1+$1,$8,$9,$2,$3,0*%
G04 Aperture macros list end*
%ADD10C,0.150000*%
%ADD11C,0.254000*%
%ADD12C,0.120000*%
%ADD13C,0.100000*%
%ADD14C,0.127000*%
%ADD15C,0.200000*%
%ADD16C,0.152400*%
%ADD17C,0.000000*%
%ADD18RoundRect,0.102000X-1.715000X2.350000X-1.715000X-2.350000X1.715000X-2.350000X1.715000X2.350000X0*%
%ADD19RoundRect,0.135000X-0.135000X-0.185000X0.135000X-0.185000X0.135000X0.185000X-0.135000X0.185000X0*%
%ADD20C,1.000000*%
%ADD21RoundRect,0.250000X-0.250000X-0.475000X0.250000X-0.475000X0.250000X0.475000X-0.250000X0.475000X0*%
%ADD22RoundRect,0.250000X0.275000X0.350000X-0.275000X0.350000X-0.275000X-0.350000X0.275000X-0.350000X0*%
%ADD23C,2.700000*%
%ADD24RoundRect,0.250000X0.475000X-0.250000X0.475000X0.250000X-0.475000X0.250000X-0.475000X-0.250000X0*%
%ADD25RoundRect,0.140000X0.140000X0.170000X-0.140000X0.170000X-0.140000X-0.170000X0.140000X-0.170000X0*%
%ADD26RoundRect,0.147500X-0.147500X-0.172500X0.147500X-0.172500X0.147500X0.172500X-0.147500X0.172500X0*%
%ADD27RoundRect,0.250000X0.262500X0.450000X-0.262500X0.450000X-0.262500X-0.450000X0.262500X-0.450000X0*%
%ADD28O,5.004000X2.604000*%
%ADD29O,1.904000X3.604000*%
%ADD30R,2.000000X1.100000*%
%ADD31RoundRect,0.140000X-0.140000X-0.170000X0.140000X-0.170000X0.140000X0.170000X-0.140000X0.170000X0*%
%ADD32RoundRect,0.250000X-0.450000X0.262500X-0.450000X-0.262500X0.450000X-0.262500X0.450000X0.262500X0*%
%ADD33R,0.900000X1.000000*%
%ADD34RoundRect,0.147500X0.147500X0.172500X-0.147500X0.172500X-0.147500X-0.172500X0.147500X-0.172500X0*%
%ADD35RoundRect,0.135000X-0.185000X0.135000X-0.185000X-0.135000X0.185000X-0.135000X0.185000X0.135000X0*%
%ADD36RoundRect,0.250000X0.450000X-0.262500X0.450000X0.262500X-0.450000X0.262500X-0.450000X-0.262500X0*%
%ADD37RoundRect,0.135000X0.135000X0.185000X-0.135000X0.185000X-0.135000X-0.185000X0.135000X-0.185000X0*%
%ADD38R,1.700000X1.700000*%
%ADD39C,1.700000*%
%ADD40R,1.300000X1.300000*%
%ADD41C,1.300000*%
%ADD42C,1.650000*%
%ADD43RoundRect,0.150000X-0.825000X-0.150000X0.825000X-0.150000X0.825000X0.150000X-0.825000X0.150000X0*%
%ADD44O,1.749999X0.299999*%
%ADD45RoundRect,0.135000X0.185000X-0.135000X0.185000X0.135000X-0.185000X0.135000X-0.185000X-0.135000X0*%
%ADD46R,1.778000X0.355600*%
G04 APERTURE END LIST*
D10*
X101614216Y-80710839D02*
X101614216Y-80234649D01*
X101899931Y-80806077D02*
X100899931Y-80472744D01*
X100899931Y-80472744D02*
X101899931Y-80139411D01*
X101233264Y-79377506D02*
X101899931Y-79377506D01*
X101233264Y-79806077D02*
X101757073Y-79806077D01*
X101757073Y-79806077D02*
X101852312Y-79758458D01*
X101852312Y-79758458D02*
X101899931Y-79663220D01*
X101899931Y-79663220D02*
X101899931Y-79520363D01*
X101899931Y-79520363D02*
X101852312Y-79425125D01*
X101852312Y-79425125D02*
X101804692Y-79377506D01*
X101899931Y-78472744D02*
X100899931Y-78472744D01*
X101852312Y-78472744D02*
X101899931Y-78567982D01*
X101899931Y-78567982D02*
X101899931Y-78758458D01*
X101899931Y-78758458D02*
X101852312Y-78853696D01*
X101852312Y-78853696D02*
X101804692Y-78901315D01*
X101804692Y-78901315D02*
X101709454Y-78948934D01*
X101709454Y-78948934D02*
X101423740Y-78948934D01*
X101423740Y-78948934D02*
X101328502Y-78901315D01*
X101328502Y-78901315D02*
X101280883Y-78853696D01*
X101280883Y-78853696D02*
X101233264Y-78758458D01*
X101233264Y-78758458D02*
X101233264Y-78567982D01*
X101233264Y-78567982D02*
X101280883Y-78472744D01*
X101899931Y-77996553D02*
X101233264Y-77996553D01*
X100899931Y-77996553D02*
X100947550Y-78044172D01*
X100947550Y-78044172D02*
X100995169Y-77996553D01*
X100995169Y-77996553D02*
X100947550Y-77948934D01*
X100947550Y-77948934D02*
X100899931Y-77996553D01*
X100899931Y-77996553D02*
X100995169Y-77996553D01*
X101899931Y-77377506D02*
X101852312Y-77472744D01*
X101852312Y-77472744D02*
X101804692Y-77520363D01*
X101804692Y-77520363D02*
X101709454Y-77567982D01*
X101709454Y-77567982D02*
X101423740Y-77567982D01*
X101423740Y-77567982D02*
X101328502Y-77520363D01*
X101328502Y-77520363D02*
X101280883Y-77472744D01*
X101280883Y-77472744D02*
X101233264Y-77377506D01*
X101233264Y-77377506D02*
X101233264Y-77234649D01*
X101233264Y-77234649D02*
X101280883Y-77139411D01*
X101280883Y-77139411D02*
X101328502Y-77091792D01*
X101328502Y-77091792D02*
X101423740Y-77044173D01*
X101423740Y-77044173D02*
X101709454Y-77044173D01*
X101709454Y-77044173D02*
X101804692Y-77091792D01*
X101804692Y-77091792D02*
X101852312Y-77139411D01*
X101852312Y-77139411D02*
X101899931Y-77234649D01*
X101899931Y-77234649D02*
X101899931Y-77377506D01*
X101899931Y-75853696D02*
X100899931Y-75853696D01*
X101233264Y-75377506D02*
X101899931Y-75377506D01*
X101328502Y-75377506D02*
X101280883Y-75329887D01*
X101280883Y-75329887D02*
X101233264Y-75234649D01*
X101233264Y-75234649D02*
X101233264Y-75091792D01*
X101233264Y-75091792D02*
X101280883Y-74996554D01*
X101280883Y-74996554D02*
X101376121Y-74948935D01*
X101376121Y-74948935D02*
X101899931Y-74948935D01*
X101233264Y-74472744D02*
X102233264Y-74472744D01*
X101280883Y-74472744D02*
X101233264Y-74377506D01*
X101233264Y-74377506D02*
X101233264Y-74187030D01*
X101233264Y-74187030D02*
X101280883Y-74091792D01*
X101280883Y-74091792D02*
X101328502Y-74044173D01*
X101328502Y-74044173D02*
X101423740Y-73996554D01*
X101423740Y-73996554D02*
X101709454Y-73996554D01*
X101709454Y-73996554D02*
X101804692Y-74044173D01*
X101804692Y-74044173D02*
X101852312Y-74091792D01*
X101852312Y-74091792D02*
X101899931Y-74187030D01*
X101899931Y-74187030D02*
X101899931Y-74377506D01*
X101899931Y-74377506D02*
X101852312Y-74472744D01*
X101233264Y-73139411D02*
X101899931Y-73139411D01*
X101233264Y-73567982D02*
X101757073Y-73567982D01*
X101757073Y-73567982D02*
X101852312Y-73520363D01*
X101852312Y-73520363D02*
X101899931Y-73425125D01*
X101899931Y-73425125D02*
X101899931Y-73282268D01*
X101899931Y-73282268D02*
X101852312Y-73187030D01*
X101852312Y-73187030D02*
X101804692Y-73139411D01*
X101233264Y-72806077D02*
X101233264Y-72425125D01*
X100899931Y-72663220D02*
X101757073Y-72663220D01*
X101757073Y-72663220D02*
X101852312Y-72615601D01*
X101852312Y-72615601D02*
X101899931Y-72520363D01*
X101899931Y-72520363D02*
X101899931Y-72425125D01*
X101899931Y-71329886D02*
X100899931Y-71329886D01*
X101376121Y-71329886D02*
X101376121Y-70758458D01*
X101899931Y-70758458D02*
X100899931Y-70758458D01*
X101614216Y-70329886D02*
X101614216Y-69853696D01*
X101899931Y-70425124D02*
X100899931Y-70091791D01*
X100899931Y-70091791D02*
X101899931Y-69758458D01*
X100899931Y-69567981D02*
X100899931Y-68996553D01*
X101899931Y-69282267D02*
X100899931Y-69282267D01*
X102747970Y-79853696D02*
X102700351Y-79948935D01*
X102700351Y-79948935D02*
X102700351Y-80139411D01*
X102700351Y-80139411D02*
X102747970Y-80234649D01*
X102747970Y-80234649D02*
X102843208Y-80329887D01*
X102843208Y-80329887D02*
X102938446Y-80377506D01*
X102938446Y-80377506D02*
X103128922Y-80377506D01*
X103128922Y-80377506D02*
X103224160Y-80329887D01*
X103224160Y-80329887D02*
X103319398Y-80234649D01*
X103319398Y-80234649D02*
X103367017Y-80139411D01*
X103367017Y-80139411D02*
X103367017Y-79948935D01*
X103367017Y-79948935D02*
X103319398Y-79853696D01*
X102367017Y-80044173D02*
X102414636Y-80282268D01*
X102414636Y-80282268D02*
X102557494Y-80520363D01*
X102557494Y-80520363D02*
X102795589Y-80663220D01*
X102795589Y-80663220D02*
X103033684Y-80710839D01*
X103033684Y-80710839D02*
X103271779Y-80663220D01*
X103271779Y-80663220D02*
X103509875Y-80520363D01*
X103509875Y-80520363D02*
X103652732Y-80282268D01*
X103652732Y-80282268D02*
X103700351Y-80044173D01*
X103700351Y-80044173D02*
X103652732Y-79806077D01*
X103652732Y-79806077D02*
X103509875Y-79567982D01*
X103509875Y-79567982D02*
X103271779Y-79425125D01*
X103271779Y-79425125D02*
X103033684Y-79377506D01*
X103033684Y-79377506D02*
X102795589Y-79425125D01*
X102795589Y-79425125D02*
X102557494Y-79567982D01*
X102557494Y-79567982D02*
X102414636Y-79806077D01*
X102414636Y-79806077D02*
X102367017Y-80044173D01*
X102605113Y-78234648D02*
X102557494Y-78187029D01*
X102557494Y-78187029D02*
X102509875Y-78091791D01*
X102509875Y-78091791D02*
X102509875Y-77853696D01*
X102509875Y-77853696D02*
X102557494Y-77758458D01*
X102557494Y-77758458D02*
X102605113Y-77710839D01*
X102605113Y-77710839D02*
X102700351Y-77663220D01*
X102700351Y-77663220D02*
X102795589Y-77663220D01*
X102795589Y-77663220D02*
X102938446Y-77710839D01*
X102938446Y-77710839D02*
X103509875Y-78282267D01*
X103509875Y-78282267D02*
X103509875Y-77663220D01*
X102509875Y-77044172D02*
X102509875Y-76948934D01*
X102509875Y-76948934D02*
X102557494Y-76853696D01*
X102557494Y-76853696D02*
X102605113Y-76806077D01*
X102605113Y-76806077D02*
X102700351Y-76758458D01*
X102700351Y-76758458D02*
X102890827Y-76710839D01*
X102890827Y-76710839D02*
X103128922Y-76710839D01*
X103128922Y-76710839D02*
X103319398Y-76758458D01*
X103319398Y-76758458D02*
X103414636Y-76806077D01*
X103414636Y-76806077D02*
X103462256Y-76853696D01*
X103462256Y-76853696D02*
X103509875Y-76948934D01*
X103509875Y-76948934D02*
X103509875Y-77044172D01*
X103509875Y-77044172D02*
X103462256Y-77139410D01*
X103462256Y-77139410D02*
X103414636Y-77187029D01*
X103414636Y-77187029D02*
X103319398Y-77234648D01*
X103319398Y-77234648D02*
X103128922Y-77282267D01*
X103128922Y-77282267D02*
X102890827Y-77282267D01*
X102890827Y-77282267D02*
X102700351Y-77234648D01*
X102700351Y-77234648D02*
X102605113Y-77187029D01*
X102605113Y-77187029D02*
X102557494Y-77139410D01*
X102557494Y-77139410D02*
X102509875Y-77044172D01*
X102605113Y-76329886D02*
X102557494Y-76282267D01*
X102557494Y-76282267D02*
X102509875Y-76187029D01*
X102509875Y-76187029D02*
X102509875Y-75948934D01*
X102509875Y-75948934D02*
X102557494Y-75853696D01*
X102557494Y-75853696D02*
X102605113Y-75806077D01*
X102605113Y-75806077D02*
X102700351Y-75758458D01*
X102700351Y-75758458D02*
X102795589Y-75758458D01*
X102795589Y-75758458D02*
X102938446Y-75806077D01*
X102938446Y-75806077D02*
X103509875Y-76377505D01*
X103509875Y-76377505D02*
X103509875Y-75758458D01*
X102509875Y-74901315D02*
X102509875Y-75091791D01*
X102509875Y-75091791D02*
X102557494Y-75187029D01*
X102557494Y-75187029D02*
X102605113Y-75234648D01*
X102605113Y-75234648D02*
X102747970Y-75329886D01*
X102747970Y-75329886D02*
X102938446Y-75377505D01*
X102938446Y-75377505D02*
X103319398Y-75377505D01*
X103319398Y-75377505D02*
X103414636Y-75329886D01*
X103414636Y-75329886D02*
X103462256Y-75282267D01*
X103462256Y-75282267D02*
X103509875Y-75187029D01*
X103509875Y-75187029D02*
X103509875Y-74996553D01*
X103509875Y-74996553D02*
X103462256Y-74901315D01*
X103462256Y-74901315D02*
X103414636Y-74853696D01*
X103414636Y-74853696D02*
X103319398Y-74806077D01*
X103319398Y-74806077D02*
X103081303Y-74806077D01*
X103081303Y-74806077D02*
X102986065Y-74853696D01*
X102986065Y-74853696D02*
X102938446Y-74901315D01*
X102938446Y-74901315D02*
X102890827Y-74996553D01*
X102890827Y-74996553D02*
X102890827Y-75187029D01*
X102890827Y-75187029D02*
X102938446Y-75282267D01*
X102938446Y-75282267D02*
X102986065Y-75329886D01*
X102986065Y-75329886D02*
X103081303Y-75377505D01*
X103509875Y-73615600D02*
X102509875Y-73615600D01*
X102509875Y-73615600D02*
X103224160Y-73282267D01*
X103224160Y-73282267D02*
X102509875Y-72948934D01*
X102509875Y-72948934D02*
X103509875Y-72948934D01*
X102843208Y-72044172D02*
X103509875Y-72044172D01*
X102843208Y-72472743D02*
X103367017Y-72472743D01*
X103367017Y-72472743D02*
X103462256Y-72425124D01*
X103462256Y-72425124D02*
X103509875Y-72329886D01*
X103509875Y-72329886D02*
X103509875Y-72187029D01*
X103509875Y-72187029D02*
X103462256Y-72091791D01*
X103462256Y-72091791D02*
X103414636Y-72044172D01*
X102843208Y-71710838D02*
X102843208Y-71329886D01*
X102509875Y-71567981D02*
X103367017Y-71567981D01*
X103367017Y-71567981D02*
X103462256Y-71520362D01*
X103462256Y-71520362D02*
X103509875Y-71425124D01*
X103509875Y-71425124D02*
X103509875Y-71329886D01*
X103462256Y-70615600D02*
X103509875Y-70710838D01*
X103509875Y-70710838D02*
X103509875Y-70901314D01*
X103509875Y-70901314D02*
X103462256Y-70996552D01*
X103462256Y-70996552D02*
X103367017Y-71044171D01*
X103367017Y-71044171D02*
X102986065Y-71044171D01*
X102986065Y-71044171D02*
X102890827Y-70996552D01*
X102890827Y-70996552D02*
X102843208Y-70901314D01*
X102843208Y-70901314D02*
X102843208Y-70710838D01*
X102843208Y-70710838D02*
X102890827Y-70615600D01*
X102890827Y-70615600D02*
X102986065Y-70567981D01*
X102986065Y-70567981D02*
X103081303Y-70567981D01*
X103081303Y-70567981D02*
X103176541Y-71044171D01*
X103509875Y-70139409D02*
X102509875Y-70139409D01*
X102890827Y-70139409D02*
X102843208Y-70044171D01*
X102843208Y-70044171D02*
X102843208Y-69853695D01*
X102843208Y-69853695D02*
X102890827Y-69758457D01*
X102890827Y-69758457D02*
X102938446Y-69710838D01*
X102938446Y-69710838D02*
X103033684Y-69663219D01*
X103033684Y-69663219D02*
X103319398Y-69663219D01*
X103319398Y-69663219D02*
X103414636Y-69710838D01*
X103414636Y-69710838D02*
X103462256Y-69758457D01*
X103462256Y-69758457D02*
X103509875Y-69853695D01*
X103509875Y-69853695D02*
X103509875Y-70044171D01*
X103509875Y-70044171D02*
X103462256Y-70139409D01*
X103509875Y-69091790D02*
X103462256Y-69187028D01*
X103462256Y-69187028D02*
X103414636Y-69234647D01*
X103414636Y-69234647D02*
X103319398Y-69282266D01*
X103319398Y-69282266D02*
X103033684Y-69282266D01*
X103033684Y-69282266D02*
X102938446Y-69234647D01*
X102938446Y-69234647D02*
X102890827Y-69187028D01*
X102890827Y-69187028D02*
X102843208Y-69091790D01*
X102843208Y-69091790D02*
X102843208Y-68948933D01*
X102843208Y-68948933D02*
X102890827Y-68853695D01*
X102890827Y-68853695D02*
X102938446Y-68806076D01*
X102938446Y-68806076D02*
X103033684Y-68758457D01*
X103033684Y-68758457D02*
X103319398Y-68758457D01*
X103319398Y-68758457D02*
X103414636Y-68806076D01*
X103414636Y-68806076D02*
X103462256Y-68853695D01*
X103462256Y-68853695D02*
X103509875Y-68948933D01*
X103509875Y-68948933D02*
X103509875Y-69091790D01*
X103509875Y-68425123D02*
X102843208Y-67901314D01*
X102843208Y-68425123D02*
X103509875Y-67901314D01*
X103509875Y-66282266D02*
X103509875Y-66758456D01*
X103509875Y-66758456D02*
X102509875Y-66758456D01*
X103509875Y-65520361D02*
X102986065Y-65520361D01*
X102986065Y-65520361D02*
X102890827Y-65567980D01*
X102890827Y-65567980D02*
X102843208Y-65663218D01*
X102843208Y-65663218D02*
X102843208Y-65853694D01*
X102843208Y-65853694D02*
X102890827Y-65948932D01*
X103462256Y-65520361D02*
X103509875Y-65615599D01*
X103509875Y-65615599D02*
X103509875Y-65853694D01*
X103509875Y-65853694D02*
X103462256Y-65948932D01*
X103462256Y-65948932D02*
X103367017Y-65996551D01*
X103367017Y-65996551D02*
X103271779Y-65996551D01*
X103271779Y-65996551D02*
X103176541Y-65948932D01*
X103176541Y-65948932D02*
X103128922Y-65853694D01*
X103128922Y-65853694D02*
X103128922Y-65615599D01*
X103128922Y-65615599D02*
X103081303Y-65520361D01*
X103509875Y-65044170D02*
X102509875Y-65044170D01*
X102890827Y-65044170D02*
X102843208Y-64948932D01*
X102843208Y-64948932D02*
X102843208Y-64758456D01*
X102843208Y-64758456D02*
X102890827Y-64663218D01*
X102890827Y-64663218D02*
X102938446Y-64615599D01*
X102938446Y-64615599D02*
X103033684Y-64567980D01*
X103033684Y-64567980D02*
X103319398Y-64567980D01*
X103319398Y-64567980D02*
X103414636Y-64615599D01*
X103414636Y-64615599D02*
X103462256Y-64663218D01*
X103462256Y-64663218D02*
X103509875Y-64758456D01*
X103509875Y-64758456D02*
X103509875Y-64948932D01*
X103509875Y-64948932D02*
X103462256Y-65044170D01*
X103462256Y-64187027D02*
X103509875Y-64091789D01*
X103509875Y-64091789D02*
X103509875Y-63901313D01*
X103509875Y-63901313D02*
X103462256Y-63806075D01*
X103462256Y-63806075D02*
X103367017Y-63758456D01*
X103367017Y-63758456D02*
X103319398Y-63758456D01*
X103319398Y-63758456D02*
X103224160Y-63806075D01*
X103224160Y-63806075D02*
X103176541Y-63901313D01*
X103176541Y-63901313D02*
X103176541Y-64044170D01*
X103176541Y-64044170D02*
X103128922Y-64139408D01*
X103128922Y-64139408D02*
X103033684Y-64187027D01*
X103033684Y-64187027D02*
X102986065Y-64187027D01*
X102986065Y-64187027D02*
X102890827Y-64139408D01*
X102890827Y-64139408D02*
X102843208Y-64044170D01*
X102843208Y-64044170D02*
X102843208Y-63901313D01*
X102843208Y-63901313D02*
X102890827Y-63806075D01*
X103509875Y-62091789D02*
X103509875Y-62567979D01*
X103509875Y-62567979D02*
X102509875Y-62567979D01*
X103509875Y-61282265D02*
X103509875Y-61758455D01*
X103509875Y-61758455D02*
X102509875Y-61758455D01*
X103414636Y-60377503D02*
X103462256Y-60425122D01*
X103462256Y-60425122D02*
X103509875Y-60567979D01*
X103509875Y-60567979D02*
X103509875Y-60663217D01*
X103509875Y-60663217D02*
X103462256Y-60806074D01*
X103462256Y-60806074D02*
X103367017Y-60901312D01*
X103367017Y-60901312D02*
X103271779Y-60948931D01*
X103271779Y-60948931D02*
X103081303Y-60996550D01*
X103081303Y-60996550D02*
X102938446Y-60996550D01*
X102938446Y-60996550D02*
X102747970Y-60948931D01*
X102747970Y-60948931D02*
X102652732Y-60901312D01*
X102652732Y-60901312D02*
X102557494Y-60806074D01*
X102557494Y-60806074D02*
X102509875Y-60663217D01*
X102509875Y-60663217D02*
X102509875Y-60567979D01*
X102509875Y-60567979D02*
X102557494Y-60425122D01*
X102557494Y-60425122D02*
X102605113Y-60377503D01*
X105119819Y-80091792D02*
X104643628Y-80425125D01*
X105119819Y-80663220D02*
X104119819Y-80663220D01*
X104119819Y-80663220D02*
X104119819Y-80282268D01*
X104119819Y-80282268D02*
X104167438Y-80187030D01*
X104167438Y-80187030D02*
X104215057Y-80139411D01*
X104215057Y-80139411D02*
X104310295Y-80091792D01*
X104310295Y-80091792D02*
X104453152Y-80091792D01*
X104453152Y-80091792D02*
X104548390Y-80139411D01*
X104548390Y-80139411D02*
X104596009Y-80187030D01*
X104596009Y-80187030D02*
X104643628Y-80282268D01*
X104643628Y-80282268D02*
X104643628Y-80663220D01*
X105072200Y-79282268D02*
X105119819Y-79377506D01*
X105119819Y-79377506D02*
X105119819Y-79567982D01*
X105119819Y-79567982D02*
X105072200Y-79663220D01*
X105072200Y-79663220D02*
X104976961Y-79710839D01*
X104976961Y-79710839D02*
X104596009Y-79710839D01*
X104596009Y-79710839D02*
X104500771Y-79663220D01*
X104500771Y-79663220D02*
X104453152Y-79567982D01*
X104453152Y-79567982D02*
X104453152Y-79377506D01*
X104453152Y-79377506D02*
X104500771Y-79282268D01*
X104500771Y-79282268D02*
X104596009Y-79234649D01*
X104596009Y-79234649D02*
X104691247Y-79234649D01*
X104691247Y-79234649D02*
X104786485Y-79710839D01*
X104453152Y-78901315D02*
X105119819Y-78663220D01*
X105119819Y-78663220D02*
X104453152Y-78425125D01*
X104453152Y-77377505D02*
X105119819Y-77139410D01*
X105119819Y-77139410D02*
X104453152Y-76901315D01*
X104119819Y-76329886D02*
X104119819Y-76234648D01*
X104119819Y-76234648D02*
X104167438Y-76139410D01*
X104167438Y-76139410D02*
X104215057Y-76091791D01*
X104215057Y-76091791D02*
X104310295Y-76044172D01*
X104310295Y-76044172D02*
X104500771Y-75996553D01*
X104500771Y-75996553D02*
X104738866Y-75996553D01*
X104738866Y-75996553D02*
X104929342Y-76044172D01*
X104929342Y-76044172D02*
X105024580Y-76091791D01*
X105024580Y-76091791D02*
X105072200Y-76139410D01*
X105072200Y-76139410D02*
X105119819Y-76234648D01*
X105119819Y-76234648D02*
X105119819Y-76329886D01*
X105119819Y-76329886D02*
X105072200Y-76425124D01*
X105072200Y-76425124D02*
X105024580Y-76472743D01*
X105024580Y-76472743D02*
X104929342Y-76520362D01*
X104929342Y-76520362D02*
X104738866Y-76567981D01*
X104738866Y-76567981D02*
X104500771Y-76567981D01*
X104500771Y-76567981D02*
X104310295Y-76520362D01*
X104310295Y-76520362D02*
X104215057Y-76472743D01*
X104215057Y-76472743D02*
X104167438Y-76425124D01*
X104167438Y-76425124D02*
X104119819Y-76329886D01*
X105024580Y-75567981D02*
X105072200Y-75520362D01*
X105072200Y-75520362D02*
X105119819Y-75567981D01*
X105119819Y-75567981D02*
X105072200Y-75615600D01*
X105072200Y-75615600D02*
X105024580Y-75567981D01*
X105024580Y-75567981D02*
X105119819Y-75567981D01*
X104215057Y-75139410D02*
X104167438Y-75091791D01*
X104167438Y-75091791D02*
X104119819Y-74996553D01*
X104119819Y-74996553D02*
X104119819Y-74758458D01*
X104119819Y-74758458D02*
X104167438Y-74663220D01*
X104167438Y-74663220D02*
X104215057Y-74615601D01*
X104215057Y-74615601D02*
X104310295Y-74567982D01*
X104310295Y-74567982D02*
X104405533Y-74567982D01*
X104405533Y-74567982D02*
X104548390Y-74615601D01*
X104548390Y-74615601D02*
X105119819Y-75187029D01*
X105119819Y-75187029D02*
X105119819Y-74567982D01*
X157054819Y-68336904D02*
X157054819Y-67765476D01*
X158054819Y-68051190D02*
X157054819Y-68051190D01*
X158054819Y-67432142D02*
X157054819Y-67432142D01*
X157054819Y-67432142D02*
X157054819Y-67051190D01*
X157054819Y-67051190D02*
X157102438Y-66955952D01*
X157102438Y-66955952D02*
X157150057Y-66908333D01*
X157150057Y-66908333D02*
X157245295Y-66860714D01*
X157245295Y-66860714D02*
X157388152Y-66860714D01*
X157388152Y-66860714D02*
X157483390Y-66908333D01*
X157483390Y-66908333D02*
X157531009Y-66955952D01*
X157531009Y-66955952D02*
X157578628Y-67051190D01*
X157578628Y-67051190D02*
X157578628Y-67432142D01*
X158054819Y-66384523D02*
X158054819Y-66194047D01*
X158054819Y-66194047D02*
X158007200Y-66098809D01*
X158007200Y-66098809D02*
X157959580Y-66051190D01*
X157959580Y-66051190D02*
X157816723Y-65955952D01*
X157816723Y-65955952D02*
X157626247Y-65908333D01*
X157626247Y-65908333D02*
X157245295Y-65908333D01*
X157245295Y-65908333D02*
X157150057Y-65955952D01*
X157150057Y-65955952D02*
X157102438Y-66003571D01*
X157102438Y-66003571D02*
X157054819Y-66098809D01*
X157054819Y-66098809D02*
X157054819Y-66289285D01*
X157054819Y-66289285D02*
X157102438Y-66384523D01*
X157102438Y-66384523D02*
X157150057Y-66432142D01*
X157150057Y-66432142D02*
X157245295Y-66479761D01*
X157245295Y-66479761D02*
X157483390Y-66479761D01*
X157483390Y-66479761D02*
X157578628Y-66432142D01*
X157578628Y-66432142D02*
X157626247Y-66384523D01*
X157626247Y-66384523D02*
X157673866Y-66289285D01*
X157673866Y-66289285D02*
X157673866Y-66098809D01*
X157673866Y-66098809D02*
X157626247Y-66003571D01*
X157626247Y-66003571D02*
X157578628Y-65955952D01*
X157578628Y-65955952D02*
X157483390Y-65908333D01*
X149012142Y-55454819D02*
X148678809Y-54978628D01*
X148440714Y-55454819D02*
X148440714Y-54454819D01*
X148440714Y-54454819D02*
X148821666Y-54454819D01*
X148821666Y-54454819D02*
X148916904Y-54502438D01*
X148916904Y-54502438D02*
X148964523Y-54550057D01*
X148964523Y-54550057D02*
X149012142Y-54645295D01*
X149012142Y-54645295D02*
X149012142Y-54788152D01*
X149012142Y-54788152D02*
X148964523Y-54883390D01*
X148964523Y-54883390D02*
X148916904Y-54931009D01*
X148916904Y-54931009D02*
X148821666Y-54978628D01*
X148821666Y-54978628D02*
X148440714Y-54978628D01*
X149964523Y-55454819D02*
X149393095Y-55454819D01*
X149678809Y-55454819D02*
X149678809Y-54454819D01*
X149678809Y-54454819D02*
X149583571Y-54597676D01*
X149583571Y-54597676D02*
X149488333Y-54692914D01*
X149488333Y-54692914D02*
X149393095Y-54740533D01*
X150535952Y-54883390D02*
X150440714Y-54835771D01*
X150440714Y-54835771D02*
X150393095Y-54788152D01*
X150393095Y-54788152D02*
X150345476Y-54692914D01*
X150345476Y-54692914D02*
X150345476Y-54645295D01*
X150345476Y-54645295D02*
X150393095Y-54550057D01*
X150393095Y-54550057D02*
X150440714Y-54502438D01*
X150440714Y-54502438D02*
X150535952Y-54454819D01*
X150535952Y-54454819D02*
X150726428Y-54454819D01*
X150726428Y-54454819D02*
X150821666Y-54502438D01*
X150821666Y-54502438D02*
X150869285Y-54550057D01*
X150869285Y-54550057D02*
X150916904Y-54645295D01*
X150916904Y-54645295D02*
X150916904Y-54692914D01*
X150916904Y-54692914D02*
X150869285Y-54788152D01*
X150869285Y-54788152D02*
X150821666Y-54835771D01*
X150821666Y-54835771D02*
X150726428Y-54883390D01*
X150726428Y-54883390D02*
X150535952Y-54883390D01*
X150535952Y-54883390D02*
X150440714Y-54931009D01*
X150440714Y-54931009D02*
X150393095Y-54978628D01*
X150393095Y-54978628D02*
X150345476Y-55073866D01*
X150345476Y-55073866D02*
X150345476Y-55264342D01*
X150345476Y-55264342D02*
X150393095Y-55359580D01*
X150393095Y-55359580D02*
X150440714Y-55407200D01*
X150440714Y-55407200D02*
X150535952Y-55454819D01*
X150535952Y-55454819D02*
X150726428Y-55454819D01*
X150726428Y-55454819D02*
X150821666Y-55407200D01*
X150821666Y-55407200D02*
X150869285Y-55359580D01*
X150869285Y-55359580D02*
X150916904Y-55264342D01*
X150916904Y-55264342D02*
X150916904Y-55073866D01*
X150916904Y-55073866D02*
X150869285Y-54978628D01*
X150869285Y-54978628D02*
X150821666Y-54931009D01*
X150821666Y-54931009D02*
X150726428Y-54883390D01*
X139988095Y-62756819D02*
X140559523Y-62756819D01*
X140273809Y-63756819D02*
X140273809Y-62756819D01*
X140892857Y-63756819D02*
X140892857Y-62756819D01*
X140892857Y-62756819D02*
X141273809Y-62756819D01*
X141273809Y-62756819D02*
X141369047Y-62804438D01*
X141369047Y-62804438D02*
X141416666Y-62852057D01*
X141416666Y-62852057D02*
X141464285Y-62947295D01*
X141464285Y-62947295D02*
X141464285Y-63090152D01*
X141464285Y-63090152D02*
X141416666Y-63185390D01*
X141416666Y-63185390D02*
X141369047Y-63233009D01*
X141369047Y-63233009D02*
X141273809Y-63280628D01*
X141273809Y-63280628D02*
X140892857Y-63280628D01*
X142369047Y-62756819D02*
X141892857Y-62756819D01*
X141892857Y-62756819D02*
X141845238Y-63233009D01*
X141845238Y-63233009D02*
X141892857Y-63185390D01*
X141892857Y-63185390D02*
X141988095Y-63137771D01*
X141988095Y-63137771D02*
X142226190Y-63137771D01*
X142226190Y-63137771D02*
X142321428Y-63185390D01*
X142321428Y-63185390D02*
X142369047Y-63233009D01*
X142369047Y-63233009D02*
X142416666Y-63328247D01*
X142416666Y-63328247D02*
X142416666Y-63566342D01*
X142416666Y-63566342D02*
X142369047Y-63661580D01*
X142369047Y-63661580D02*
X142321428Y-63709200D01*
X142321428Y-63709200D02*
X142226190Y-63756819D01*
X142226190Y-63756819D02*
X141988095Y-63756819D01*
X141988095Y-63756819D02*
X141892857Y-63709200D01*
X141892857Y-63709200D02*
X141845238Y-63661580D01*
X120733333Y-71059580D02*
X120685714Y-71107200D01*
X120685714Y-71107200D02*
X120542857Y-71154819D01*
X120542857Y-71154819D02*
X120447619Y-71154819D01*
X120447619Y-71154819D02*
X120304762Y-71107200D01*
X120304762Y-71107200D02*
X120209524Y-71011961D01*
X120209524Y-71011961D02*
X120161905Y-70916723D01*
X120161905Y-70916723D02*
X120114286Y-70726247D01*
X120114286Y-70726247D02*
X120114286Y-70583390D01*
X120114286Y-70583390D02*
X120161905Y-70392914D01*
X120161905Y-70392914D02*
X120209524Y-70297676D01*
X120209524Y-70297676D02*
X120304762Y-70202438D01*
X120304762Y-70202438D02*
X120447619Y-70154819D01*
X120447619Y-70154819D02*
X120542857Y-70154819D01*
X120542857Y-70154819D02*
X120685714Y-70202438D01*
X120685714Y-70202438D02*
X120733333Y-70250057D01*
X121590476Y-70488152D02*
X121590476Y-71154819D01*
X121352381Y-70107200D02*
X121114286Y-70821485D01*
X121114286Y-70821485D02*
X121733333Y-70821485D01*
X156257142Y-71354819D02*
X155923809Y-70878628D01*
X155685714Y-71354819D02*
X155685714Y-70354819D01*
X155685714Y-70354819D02*
X156066666Y-70354819D01*
X156066666Y-70354819D02*
X156161904Y-70402438D01*
X156161904Y-70402438D02*
X156209523Y-70450057D01*
X156209523Y-70450057D02*
X156257142Y-70545295D01*
X156257142Y-70545295D02*
X156257142Y-70688152D01*
X156257142Y-70688152D02*
X156209523Y-70783390D01*
X156209523Y-70783390D02*
X156161904Y-70831009D01*
X156161904Y-70831009D02*
X156066666Y-70878628D01*
X156066666Y-70878628D02*
X155685714Y-70878628D01*
X157209523Y-71354819D02*
X156638095Y-71354819D01*
X156923809Y-71354819D02*
X156923809Y-70354819D01*
X156923809Y-70354819D02*
X156828571Y-70497676D01*
X156828571Y-70497676D02*
X156733333Y-70592914D01*
X156733333Y-70592914D02*
X156638095Y-70640533D01*
X158161904Y-71354819D02*
X157590476Y-71354819D01*
X157876190Y-71354819D02*
X157876190Y-70354819D01*
X157876190Y-70354819D02*
X157780952Y-70497676D01*
X157780952Y-70497676D02*
X157685714Y-70592914D01*
X157685714Y-70592914D02*
X157590476Y-70640533D01*
X144666666Y-63131009D02*
X144333333Y-63131009D01*
X144333333Y-63654819D02*
X144333333Y-62654819D01*
X144333333Y-62654819D02*
X144809523Y-62654819D01*
X145523809Y-63131009D02*
X145666666Y-63178628D01*
X145666666Y-63178628D02*
X145714285Y-63226247D01*
X145714285Y-63226247D02*
X145761904Y-63321485D01*
X145761904Y-63321485D02*
X145761904Y-63464342D01*
X145761904Y-63464342D02*
X145714285Y-63559580D01*
X145714285Y-63559580D02*
X145666666Y-63607200D01*
X145666666Y-63607200D02*
X145571428Y-63654819D01*
X145571428Y-63654819D02*
X145190476Y-63654819D01*
X145190476Y-63654819D02*
X145190476Y-62654819D01*
X145190476Y-62654819D02*
X145523809Y-62654819D01*
X145523809Y-62654819D02*
X145619047Y-62702438D01*
X145619047Y-62702438D02*
X145666666Y-62750057D01*
X145666666Y-62750057D02*
X145714285Y-62845295D01*
X145714285Y-62845295D02*
X145714285Y-62940533D01*
X145714285Y-62940533D02*
X145666666Y-63035771D01*
X145666666Y-63035771D02*
X145619047Y-63083390D01*
X145619047Y-63083390D02*
X145523809Y-63131009D01*
X145523809Y-63131009D02*
X145190476Y-63131009D01*
X146714285Y-63654819D02*
X146142857Y-63654819D01*
X146428571Y-63654819D02*
X146428571Y-62654819D01*
X146428571Y-62654819D02*
X146333333Y-62797676D01*
X146333333Y-62797676D02*
X146238095Y-62892914D01*
X146238095Y-62892914D02*
X146142857Y-62940533D01*
X115179580Y-55205357D02*
X115227200Y-55252976D01*
X115227200Y-55252976D02*
X115274819Y-55395833D01*
X115274819Y-55395833D02*
X115274819Y-55491071D01*
X115274819Y-55491071D02*
X115227200Y-55633928D01*
X115227200Y-55633928D02*
X115131961Y-55729166D01*
X115131961Y-55729166D02*
X115036723Y-55776785D01*
X115036723Y-55776785D02*
X114846247Y-55824404D01*
X114846247Y-55824404D02*
X114703390Y-55824404D01*
X114703390Y-55824404D02*
X114512914Y-55776785D01*
X114512914Y-55776785D02*
X114417676Y-55729166D01*
X114417676Y-55729166D02*
X114322438Y-55633928D01*
X114322438Y-55633928D02*
X114274819Y-55491071D01*
X114274819Y-55491071D02*
X114274819Y-55395833D01*
X114274819Y-55395833D02*
X114322438Y-55252976D01*
X114322438Y-55252976D02*
X114370057Y-55205357D01*
X115274819Y-54252976D02*
X115274819Y-54824404D01*
X115274819Y-54538690D02*
X114274819Y-54538690D01*
X114274819Y-54538690D02*
X114417676Y-54633928D01*
X114417676Y-54633928D02*
X114512914Y-54729166D01*
X114512914Y-54729166D02*
X114560533Y-54824404D01*
X115274819Y-53300595D02*
X115274819Y-53872023D01*
X115274819Y-53586309D02*
X114274819Y-53586309D01*
X114274819Y-53586309D02*
X114417676Y-53681547D01*
X114417676Y-53681547D02*
X114512914Y-53776785D01*
X114512914Y-53776785D02*
X114560533Y-53872023D01*
X138033333Y-76299580D02*
X137985714Y-76347200D01*
X137985714Y-76347200D02*
X137842857Y-76394819D01*
X137842857Y-76394819D02*
X137747619Y-76394819D01*
X137747619Y-76394819D02*
X137604762Y-76347200D01*
X137604762Y-76347200D02*
X137509524Y-76251961D01*
X137509524Y-76251961D02*
X137461905Y-76156723D01*
X137461905Y-76156723D02*
X137414286Y-75966247D01*
X137414286Y-75966247D02*
X137414286Y-75823390D01*
X137414286Y-75823390D02*
X137461905Y-75632914D01*
X137461905Y-75632914D02*
X137509524Y-75537676D01*
X137509524Y-75537676D02*
X137604762Y-75442438D01*
X137604762Y-75442438D02*
X137747619Y-75394819D01*
X137747619Y-75394819D02*
X137842857Y-75394819D01*
X137842857Y-75394819D02*
X137985714Y-75442438D01*
X137985714Y-75442438D02*
X138033333Y-75490057D01*
X138985714Y-76394819D02*
X138414286Y-76394819D01*
X138700000Y-76394819D02*
X138700000Y-75394819D01*
X138700000Y-75394819D02*
X138604762Y-75537676D01*
X138604762Y-75537676D02*
X138509524Y-75632914D01*
X138509524Y-75632914D02*
X138414286Y-75680533D01*
X145594585Y-69259580D02*
X145546966Y-69307200D01*
X145546966Y-69307200D02*
X145404109Y-69354819D01*
X145404109Y-69354819D02*
X145308871Y-69354819D01*
X145308871Y-69354819D02*
X145166014Y-69307200D01*
X145166014Y-69307200D02*
X145070776Y-69211961D01*
X145070776Y-69211961D02*
X145023157Y-69116723D01*
X145023157Y-69116723D02*
X144975538Y-68926247D01*
X144975538Y-68926247D02*
X144975538Y-68783390D01*
X144975538Y-68783390D02*
X145023157Y-68592914D01*
X145023157Y-68592914D02*
X145070776Y-68497676D01*
X145070776Y-68497676D02*
X145166014Y-68402438D01*
X145166014Y-68402438D02*
X145308871Y-68354819D01*
X145308871Y-68354819D02*
X145404109Y-68354819D01*
X145404109Y-68354819D02*
X145546966Y-68402438D01*
X145546966Y-68402438D02*
X145594585Y-68450057D01*
X145927919Y-68354819D02*
X146546966Y-68354819D01*
X146546966Y-68354819D02*
X146213633Y-68735771D01*
X146213633Y-68735771D02*
X146356490Y-68735771D01*
X146356490Y-68735771D02*
X146451728Y-68783390D01*
X146451728Y-68783390D02*
X146499347Y-68831009D01*
X146499347Y-68831009D02*
X146546966Y-68926247D01*
X146546966Y-68926247D02*
X146546966Y-69164342D01*
X146546966Y-69164342D02*
X146499347Y-69259580D01*
X146499347Y-69259580D02*
X146451728Y-69307200D01*
X146451728Y-69307200D02*
X146356490Y-69354819D01*
X146356490Y-69354819D02*
X146070776Y-69354819D01*
X146070776Y-69354819D02*
X145975538Y-69307200D01*
X145975538Y-69307200D02*
X145927919Y-69259580D01*
X114857142Y-63984819D02*
X114523809Y-63508628D01*
X114285714Y-63984819D02*
X114285714Y-62984819D01*
X114285714Y-62984819D02*
X114666666Y-62984819D01*
X114666666Y-62984819D02*
X114761904Y-63032438D01*
X114761904Y-63032438D02*
X114809523Y-63080057D01*
X114809523Y-63080057D02*
X114857142Y-63175295D01*
X114857142Y-63175295D02*
X114857142Y-63318152D01*
X114857142Y-63318152D02*
X114809523Y-63413390D01*
X114809523Y-63413390D02*
X114761904Y-63461009D01*
X114761904Y-63461009D02*
X114666666Y-63508628D01*
X114666666Y-63508628D02*
X114285714Y-63508628D01*
X115809523Y-63984819D02*
X115238095Y-63984819D01*
X115523809Y-63984819D02*
X115523809Y-62984819D01*
X115523809Y-62984819D02*
X115428571Y-63127676D01*
X115428571Y-63127676D02*
X115333333Y-63222914D01*
X115333333Y-63222914D02*
X115238095Y-63270533D01*
X116666666Y-62984819D02*
X116476190Y-62984819D01*
X116476190Y-62984819D02*
X116380952Y-63032438D01*
X116380952Y-63032438D02*
X116333333Y-63080057D01*
X116333333Y-63080057D02*
X116238095Y-63222914D01*
X116238095Y-63222914D02*
X116190476Y-63413390D01*
X116190476Y-63413390D02*
X116190476Y-63794342D01*
X116190476Y-63794342D02*
X116238095Y-63889580D01*
X116238095Y-63889580D02*
X116285714Y-63937200D01*
X116285714Y-63937200D02*
X116380952Y-63984819D01*
X116380952Y-63984819D02*
X116571428Y-63984819D01*
X116571428Y-63984819D02*
X116666666Y-63937200D01*
X116666666Y-63937200D02*
X116714285Y-63889580D01*
X116714285Y-63889580D02*
X116761904Y-63794342D01*
X116761904Y-63794342D02*
X116761904Y-63556247D01*
X116761904Y-63556247D02*
X116714285Y-63461009D01*
X116714285Y-63461009D02*
X116666666Y-63413390D01*
X116666666Y-63413390D02*
X116571428Y-63365771D01*
X116571428Y-63365771D02*
X116380952Y-63365771D01*
X116380952Y-63365771D02*
X116285714Y-63413390D01*
X116285714Y-63413390D02*
X116238095Y-63461009D01*
X116238095Y-63461009D02*
X116190476Y-63556247D01*
X137838095Y-80654819D02*
X138409523Y-80654819D01*
X138123809Y-81654819D02*
X138123809Y-80654819D01*
X138742857Y-81654819D02*
X138742857Y-80654819D01*
X138742857Y-80654819D02*
X139123809Y-80654819D01*
X139123809Y-80654819D02*
X139219047Y-80702438D01*
X139219047Y-80702438D02*
X139266666Y-80750057D01*
X139266666Y-80750057D02*
X139314285Y-80845295D01*
X139314285Y-80845295D02*
X139314285Y-80988152D01*
X139314285Y-80988152D02*
X139266666Y-81083390D01*
X139266666Y-81083390D02*
X139219047Y-81131009D01*
X139219047Y-81131009D02*
X139123809Y-81178628D01*
X139123809Y-81178628D02*
X138742857Y-81178628D01*
X139885714Y-81083390D02*
X139790476Y-81035771D01*
X139790476Y-81035771D02*
X139742857Y-80988152D01*
X139742857Y-80988152D02*
X139695238Y-80892914D01*
X139695238Y-80892914D02*
X139695238Y-80845295D01*
X139695238Y-80845295D02*
X139742857Y-80750057D01*
X139742857Y-80750057D02*
X139790476Y-80702438D01*
X139790476Y-80702438D02*
X139885714Y-80654819D01*
X139885714Y-80654819D02*
X140076190Y-80654819D01*
X140076190Y-80654819D02*
X140171428Y-80702438D01*
X140171428Y-80702438D02*
X140219047Y-80750057D01*
X140219047Y-80750057D02*
X140266666Y-80845295D01*
X140266666Y-80845295D02*
X140266666Y-80892914D01*
X140266666Y-80892914D02*
X140219047Y-80988152D01*
X140219047Y-80988152D02*
X140171428Y-81035771D01*
X140171428Y-81035771D02*
X140076190Y-81083390D01*
X140076190Y-81083390D02*
X139885714Y-81083390D01*
X139885714Y-81083390D02*
X139790476Y-81131009D01*
X139790476Y-81131009D02*
X139742857Y-81178628D01*
X139742857Y-81178628D02*
X139695238Y-81273866D01*
X139695238Y-81273866D02*
X139695238Y-81464342D01*
X139695238Y-81464342D02*
X139742857Y-81559580D01*
X139742857Y-81559580D02*
X139790476Y-81607200D01*
X139790476Y-81607200D02*
X139885714Y-81654819D01*
X139885714Y-81654819D02*
X140076190Y-81654819D01*
X140076190Y-81654819D02*
X140171428Y-81607200D01*
X140171428Y-81607200D02*
X140219047Y-81559580D01*
X140219047Y-81559580D02*
X140266666Y-81464342D01*
X140266666Y-81464342D02*
X140266666Y-81273866D01*
X140266666Y-81273866D02*
X140219047Y-81178628D01*
X140219047Y-81178628D02*
X140171428Y-81131009D01*
X140171428Y-81131009D02*
X140076190Y-81083390D01*
X149057142Y-67859580D02*
X149009523Y-67907200D01*
X149009523Y-67907200D02*
X148866666Y-67954819D01*
X148866666Y-67954819D02*
X148771428Y-67954819D01*
X148771428Y-67954819D02*
X148628571Y-67907200D01*
X148628571Y-67907200D02*
X148533333Y-67811961D01*
X148533333Y-67811961D02*
X148485714Y-67716723D01*
X148485714Y-67716723D02*
X148438095Y-67526247D01*
X148438095Y-67526247D02*
X148438095Y-67383390D01*
X148438095Y-67383390D02*
X148485714Y-67192914D01*
X148485714Y-67192914D02*
X148533333Y-67097676D01*
X148533333Y-67097676D02*
X148628571Y-67002438D01*
X148628571Y-67002438D02*
X148771428Y-66954819D01*
X148771428Y-66954819D02*
X148866666Y-66954819D01*
X148866666Y-66954819D02*
X149009523Y-67002438D01*
X149009523Y-67002438D02*
X149057142Y-67050057D01*
X150009523Y-67954819D02*
X149438095Y-67954819D01*
X149723809Y-67954819D02*
X149723809Y-66954819D01*
X149723809Y-66954819D02*
X149628571Y-67097676D01*
X149628571Y-67097676D02*
X149533333Y-67192914D01*
X149533333Y-67192914D02*
X149438095Y-67240533D01*
X150390476Y-67050057D02*
X150438095Y-67002438D01*
X150438095Y-67002438D02*
X150533333Y-66954819D01*
X150533333Y-66954819D02*
X150771428Y-66954819D01*
X150771428Y-66954819D02*
X150866666Y-67002438D01*
X150866666Y-67002438D02*
X150914285Y-67050057D01*
X150914285Y-67050057D02*
X150961904Y-67145295D01*
X150961904Y-67145295D02*
X150961904Y-67240533D01*
X150961904Y-67240533D02*
X150914285Y-67383390D01*
X150914285Y-67383390D02*
X150342857Y-67954819D01*
X150342857Y-67954819D02*
X150961904Y-67954819D01*
X116961905Y-66454819D02*
X116961905Y-65454819D01*
X116961905Y-65454819D02*
X117200000Y-65454819D01*
X117200000Y-65454819D02*
X117342857Y-65502438D01*
X117342857Y-65502438D02*
X117438095Y-65597676D01*
X117438095Y-65597676D02*
X117485714Y-65692914D01*
X117485714Y-65692914D02*
X117533333Y-65883390D01*
X117533333Y-65883390D02*
X117533333Y-66026247D01*
X117533333Y-66026247D02*
X117485714Y-66216723D01*
X117485714Y-66216723D02*
X117438095Y-66311961D01*
X117438095Y-66311961D02*
X117342857Y-66407200D01*
X117342857Y-66407200D02*
X117200000Y-66454819D01*
X117200000Y-66454819D02*
X116961905Y-66454819D01*
X118390476Y-65788152D02*
X118390476Y-66454819D01*
X118152381Y-65407200D02*
X117914286Y-66121485D01*
X117914286Y-66121485D02*
X118533333Y-66121485D01*
X124833333Y-51154819D02*
X124500000Y-50678628D01*
X124261905Y-51154819D02*
X124261905Y-50154819D01*
X124261905Y-50154819D02*
X124642857Y-50154819D01*
X124642857Y-50154819D02*
X124738095Y-50202438D01*
X124738095Y-50202438D02*
X124785714Y-50250057D01*
X124785714Y-50250057D02*
X124833333Y-50345295D01*
X124833333Y-50345295D02*
X124833333Y-50488152D01*
X124833333Y-50488152D02*
X124785714Y-50583390D01*
X124785714Y-50583390D02*
X124738095Y-50631009D01*
X124738095Y-50631009D02*
X124642857Y-50678628D01*
X124642857Y-50678628D02*
X124261905Y-50678628D01*
X125214286Y-50250057D02*
X125261905Y-50202438D01*
X125261905Y-50202438D02*
X125357143Y-50154819D01*
X125357143Y-50154819D02*
X125595238Y-50154819D01*
X125595238Y-50154819D02*
X125690476Y-50202438D01*
X125690476Y-50202438D02*
X125738095Y-50250057D01*
X125738095Y-50250057D02*
X125785714Y-50345295D01*
X125785714Y-50345295D02*
X125785714Y-50440533D01*
X125785714Y-50440533D02*
X125738095Y-50583390D01*
X125738095Y-50583390D02*
X125166667Y-51154819D01*
X125166667Y-51154819D02*
X125785714Y-51154819D01*
X150626060Y-95150617D02*
X150626060Y-95870488D01*
X150626060Y-95870488D02*
X150578068Y-96014462D01*
X150578068Y-96014462D02*
X150482086Y-96110445D01*
X150482086Y-96110445D02*
X150338111Y-96158436D01*
X150338111Y-96158436D02*
X150242129Y-96158436D01*
X151009991Y-95150617D02*
X151633879Y-95150617D01*
X151633879Y-95150617D02*
X151297939Y-95534548D01*
X151297939Y-95534548D02*
X151441913Y-95534548D01*
X151441913Y-95534548D02*
X151537896Y-95582539D01*
X151537896Y-95582539D02*
X151585887Y-95630531D01*
X151585887Y-95630531D02*
X151633879Y-95726513D01*
X151633879Y-95726513D02*
X151633879Y-95966470D01*
X151633879Y-95966470D02*
X151585887Y-96062453D01*
X151585887Y-96062453D02*
X151537896Y-96110445D01*
X151537896Y-96110445D02*
X151441913Y-96158436D01*
X151441913Y-96158436D02*
X151153965Y-96158436D01*
X151153965Y-96158436D02*
X151057982Y-96110445D01*
X151057982Y-96110445D02*
X151009991Y-96062453D01*
X123661905Y-54254819D02*
X123661905Y-53254819D01*
X123661905Y-53254819D02*
X123900000Y-53254819D01*
X123900000Y-53254819D02*
X124042857Y-53302438D01*
X124042857Y-53302438D02*
X124138095Y-53397676D01*
X124138095Y-53397676D02*
X124185714Y-53492914D01*
X124185714Y-53492914D02*
X124233333Y-53683390D01*
X124233333Y-53683390D02*
X124233333Y-53826247D01*
X124233333Y-53826247D02*
X124185714Y-54016723D01*
X124185714Y-54016723D02*
X124138095Y-54111961D01*
X124138095Y-54111961D02*
X124042857Y-54207200D01*
X124042857Y-54207200D02*
X123900000Y-54254819D01*
X123900000Y-54254819D02*
X123661905Y-54254819D01*
X124614286Y-53350057D02*
X124661905Y-53302438D01*
X124661905Y-53302438D02*
X124757143Y-53254819D01*
X124757143Y-53254819D02*
X124995238Y-53254819D01*
X124995238Y-53254819D02*
X125090476Y-53302438D01*
X125090476Y-53302438D02*
X125138095Y-53350057D01*
X125138095Y-53350057D02*
X125185714Y-53445295D01*
X125185714Y-53445295D02*
X125185714Y-53540533D01*
X125185714Y-53540533D02*
X125138095Y-53683390D01*
X125138095Y-53683390D02*
X124566667Y-54254819D01*
X124566667Y-54254819D02*
X125185714Y-54254819D01*
X140977142Y-67699580D02*
X140929523Y-67747200D01*
X140929523Y-67747200D02*
X140786666Y-67794819D01*
X140786666Y-67794819D02*
X140691428Y-67794819D01*
X140691428Y-67794819D02*
X140548571Y-67747200D01*
X140548571Y-67747200D02*
X140453333Y-67651961D01*
X140453333Y-67651961D02*
X140405714Y-67556723D01*
X140405714Y-67556723D02*
X140358095Y-67366247D01*
X140358095Y-67366247D02*
X140358095Y-67223390D01*
X140358095Y-67223390D02*
X140405714Y-67032914D01*
X140405714Y-67032914D02*
X140453333Y-66937676D01*
X140453333Y-66937676D02*
X140548571Y-66842438D01*
X140548571Y-66842438D02*
X140691428Y-66794819D01*
X140691428Y-66794819D02*
X140786666Y-66794819D01*
X140786666Y-66794819D02*
X140929523Y-66842438D01*
X140929523Y-66842438D02*
X140977142Y-66890057D01*
X141929523Y-67794819D02*
X141358095Y-67794819D01*
X141643809Y-67794819D02*
X141643809Y-66794819D01*
X141643809Y-66794819D02*
X141548571Y-66937676D01*
X141548571Y-66937676D02*
X141453333Y-67032914D01*
X141453333Y-67032914D02*
X141358095Y-67080533D01*
X142786666Y-67128152D02*
X142786666Y-67794819D01*
X142548571Y-66747200D02*
X142310476Y-67461485D01*
X142310476Y-67461485D02*
X142929523Y-67461485D01*
X138226060Y-95150617D02*
X138226060Y-95870488D01*
X138226060Y-95870488D02*
X138178068Y-96014462D01*
X138178068Y-96014462D02*
X138082086Y-96110445D01*
X138082086Y-96110445D02*
X137938111Y-96158436D01*
X137938111Y-96158436D02*
X137842129Y-96158436D01*
X139137896Y-95486557D02*
X139137896Y-96158436D01*
X138897939Y-95102626D02*
X138657982Y-95822496D01*
X138657982Y-95822496D02*
X139281870Y-95822496D01*
X129527047Y-57079580D02*
X129479428Y-57127200D01*
X129479428Y-57127200D02*
X129336571Y-57174819D01*
X129336571Y-57174819D02*
X129241333Y-57174819D01*
X129241333Y-57174819D02*
X129098476Y-57127200D01*
X129098476Y-57127200D02*
X129003238Y-57031961D01*
X129003238Y-57031961D02*
X128955619Y-56936723D01*
X128955619Y-56936723D02*
X128908000Y-56746247D01*
X128908000Y-56746247D02*
X128908000Y-56603390D01*
X128908000Y-56603390D02*
X128955619Y-56412914D01*
X128955619Y-56412914D02*
X129003238Y-56317676D01*
X129003238Y-56317676D02*
X129098476Y-56222438D01*
X129098476Y-56222438D02*
X129241333Y-56174819D01*
X129241333Y-56174819D02*
X129336571Y-56174819D01*
X129336571Y-56174819D02*
X129479428Y-56222438D01*
X129479428Y-56222438D02*
X129527047Y-56270057D01*
X130479428Y-57174819D02*
X129908000Y-57174819D01*
X130193714Y-57174819D02*
X130193714Y-56174819D01*
X130193714Y-56174819D02*
X130098476Y-56317676D01*
X130098476Y-56317676D02*
X130003238Y-56412914D01*
X130003238Y-56412914D02*
X129908000Y-56460533D01*
X130812762Y-56174819D02*
X131431809Y-56174819D01*
X131431809Y-56174819D02*
X131098476Y-56555771D01*
X131098476Y-56555771D02*
X131241333Y-56555771D01*
X131241333Y-56555771D02*
X131336571Y-56603390D01*
X131336571Y-56603390D02*
X131384190Y-56651009D01*
X131384190Y-56651009D02*
X131431809Y-56746247D01*
X131431809Y-56746247D02*
X131431809Y-56984342D01*
X131431809Y-56984342D02*
X131384190Y-57079580D01*
X131384190Y-57079580D02*
X131336571Y-57127200D01*
X131336571Y-57127200D02*
X131241333Y-57174819D01*
X131241333Y-57174819D02*
X130955619Y-57174819D01*
X130955619Y-57174819D02*
X130860381Y-57127200D01*
X130860381Y-57127200D02*
X130812762Y-57079580D01*
X121761905Y-64756819D02*
X122333333Y-64756819D01*
X122047619Y-65756819D02*
X122047619Y-64756819D01*
X122666667Y-65756819D02*
X122666667Y-64756819D01*
X122666667Y-64756819D02*
X123047619Y-64756819D01*
X123047619Y-64756819D02*
X123142857Y-64804438D01*
X123142857Y-64804438D02*
X123190476Y-64852057D01*
X123190476Y-64852057D02*
X123238095Y-64947295D01*
X123238095Y-64947295D02*
X123238095Y-65090152D01*
X123238095Y-65090152D02*
X123190476Y-65185390D01*
X123190476Y-65185390D02*
X123142857Y-65233009D01*
X123142857Y-65233009D02*
X123047619Y-65280628D01*
X123047619Y-65280628D02*
X122666667Y-65280628D01*
X124190476Y-65756819D02*
X123619048Y-65756819D01*
X123904762Y-65756819D02*
X123904762Y-64756819D01*
X123904762Y-64756819D02*
X123809524Y-64899676D01*
X123809524Y-64899676D02*
X123714286Y-64994914D01*
X123714286Y-64994914D02*
X123619048Y-65042533D01*
X124523810Y-64756819D02*
X125142857Y-64756819D01*
X125142857Y-64756819D02*
X124809524Y-65137771D01*
X124809524Y-65137771D02*
X124952381Y-65137771D01*
X124952381Y-65137771D02*
X125047619Y-65185390D01*
X125047619Y-65185390D02*
X125095238Y-65233009D01*
X125095238Y-65233009D02*
X125142857Y-65328247D01*
X125142857Y-65328247D02*
X125142857Y-65566342D01*
X125142857Y-65566342D02*
X125095238Y-65661580D01*
X125095238Y-65661580D02*
X125047619Y-65709200D01*
X125047619Y-65709200D02*
X124952381Y-65756819D01*
X124952381Y-65756819D02*
X124666667Y-65756819D01*
X124666667Y-65756819D02*
X124571429Y-65709200D01*
X124571429Y-65709200D02*
X124523810Y-65661580D01*
X141095142Y-85754819D02*
X140761809Y-85278628D01*
X140523714Y-85754819D02*
X140523714Y-84754819D01*
X140523714Y-84754819D02*
X140904666Y-84754819D01*
X140904666Y-84754819D02*
X140999904Y-84802438D01*
X140999904Y-84802438D02*
X141047523Y-84850057D01*
X141047523Y-84850057D02*
X141095142Y-84945295D01*
X141095142Y-84945295D02*
X141095142Y-85088152D01*
X141095142Y-85088152D02*
X141047523Y-85183390D01*
X141047523Y-85183390D02*
X140999904Y-85231009D01*
X140999904Y-85231009D02*
X140904666Y-85278628D01*
X140904666Y-85278628D02*
X140523714Y-85278628D01*
X141476095Y-84850057D02*
X141523714Y-84802438D01*
X141523714Y-84802438D02*
X141618952Y-84754819D01*
X141618952Y-84754819D02*
X141857047Y-84754819D01*
X141857047Y-84754819D02*
X141952285Y-84802438D01*
X141952285Y-84802438D02*
X141999904Y-84850057D01*
X141999904Y-84850057D02*
X142047523Y-84945295D01*
X142047523Y-84945295D02*
X142047523Y-85040533D01*
X142047523Y-85040533D02*
X141999904Y-85183390D01*
X141999904Y-85183390D02*
X141428476Y-85754819D01*
X141428476Y-85754819D02*
X142047523Y-85754819D01*
X142999904Y-85754819D02*
X142428476Y-85754819D01*
X142714190Y-85754819D02*
X142714190Y-84754819D01*
X142714190Y-84754819D02*
X142618952Y-84897676D01*
X142618952Y-84897676D02*
X142523714Y-84992914D01*
X142523714Y-84992914D02*
X142428476Y-85040533D01*
X125138095Y-76654819D02*
X125709523Y-76654819D01*
X125423809Y-77654819D02*
X125423809Y-76654819D01*
X126042857Y-77654819D02*
X126042857Y-76654819D01*
X126042857Y-76654819D02*
X126423809Y-76654819D01*
X126423809Y-76654819D02*
X126519047Y-76702438D01*
X126519047Y-76702438D02*
X126566666Y-76750057D01*
X126566666Y-76750057D02*
X126614285Y-76845295D01*
X126614285Y-76845295D02*
X126614285Y-76988152D01*
X126614285Y-76988152D02*
X126566666Y-77083390D01*
X126566666Y-77083390D02*
X126519047Y-77131009D01*
X126519047Y-77131009D02*
X126423809Y-77178628D01*
X126423809Y-77178628D02*
X126042857Y-77178628D01*
X127471428Y-76654819D02*
X127280952Y-76654819D01*
X127280952Y-76654819D02*
X127185714Y-76702438D01*
X127185714Y-76702438D02*
X127138095Y-76750057D01*
X127138095Y-76750057D02*
X127042857Y-76892914D01*
X127042857Y-76892914D02*
X126995238Y-77083390D01*
X126995238Y-77083390D02*
X126995238Y-77464342D01*
X126995238Y-77464342D02*
X127042857Y-77559580D01*
X127042857Y-77559580D02*
X127090476Y-77607200D01*
X127090476Y-77607200D02*
X127185714Y-77654819D01*
X127185714Y-77654819D02*
X127376190Y-77654819D01*
X127376190Y-77654819D02*
X127471428Y-77607200D01*
X127471428Y-77607200D02*
X127519047Y-77559580D01*
X127519047Y-77559580D02*
X127566666Y-77464342D01*
X127566666Y-77464342D02*
X127566666Y-77226247D01*
X127566666Y-77226247D02*
X127519047Y-77131009D01*
X127519047Y-77131009D02*
X127471428Y-77083390D01*
X127471428Y-77083390D02*
X127376190Y-77035771D01*
X127376190Y-77035771D02*
X127185714Y-77035771D01*
X127185714Y-77035771D02*
X127090476Y-77083390D01*
X127090476Y-77083390D02*
X127042857Y-77131009D01*
X127042857Y-77131009D02*
X126995238Y-77226247D01*
X138633333Y-71054819D02*
X138300000Y-70578628D01*
X138061905Y-71054819D02*
X138061905Y-70054819D01*
X138061905Y-70054819D02*
X138442857Y-70054819D01*
X138442857Y-70054819D02*
X138538095Y-70102438D01*
X138538095Y-70102438D02*
X138585714Y-70150057D01*
X138585714Y-70150057D02*
X138633333Y-70245295D01*
X138633333Y-70245295D02*
X138633333Y-70388152D01*
X138633333Y-70388152D02*
X138585714Y-70483390D01*
X138585714Y-70483390D02*
X138538095Y-70531009D01*
X138538095Y-70531009D02*
X138442857Y-70578628D01*
X138442857Y-70578628D02*
X138061905Y-70578628D01*
X139204762Y-70483390D02*
X139109524Y-70435771D01*
X139109524Y-70435771D02*
X139061905Y-70388152D01*
X139061905Y-70388152D02*
X139014286Y-70292914D01*
X139014286Y-70292914D02*
X139014286Y-70245295D01*
X139014286Y-70245295D02*
X139061905Y-70150057D01*
X139061905Y-70150057D02*
X139109524Y-70102438D01*
X139109524Y-70102438D02*
X139204762Y-70054819D01*
X139204762Y-70054819D02*
X139395238Y-70054819D01*
X139395238Y-70054819D02*
X139490476Y-70102438D01*
X139490476Y-70102438D02*
X139538095Y-70150057D01*
X139538095Y-70150057D02*
X139585714Y-70245295D01*
X139585714Y-70245295D02*
X139585714Y-70292914D01*
X139585714Y-70292914D02*
X139538095Y-70388152D01*
X139538095Y-70388152D02*
X139490476Y-70435771D01*
X139490476Y-70435771D02*
X139395238Y-70483390D01*
X139395238Y-70483390D02*
X139204762Y-70483390D01*
X139204762Y-70483390D02*
X139109524Y-70531009D01*
X139109524Y-70531009D02*
X139061905Y-70578628D01*
X139061905Y-70578628D02*
X139014286Y-70673866D01*
X139014286Y-70673866D02*
X139014286Y-70864342D01*
X139014286Y-70864342D02*
X139061905Y-70959580D01*
X139061905Y-70959580D02*
X139109524Y-71007200D01*
X139109524Y-71007200D02*
X139204762Y-71054819D01*
X139204762Y-71054819D02*
X139395238Y-71054819D01*
X139395238Y-71054819D02*
X139490476Y-71007200D01*
X139490476Y-71007200D02*
X139538095Y-70959580D01*
X139538095Y-70959580D02*
X139585714Y-70864342D01*
X139585714Y-70864342D02*
X139585714Y-70673866D01*
X139585714Y-70673866D02*
X139538095Y-70578628D01*
X139538095Y-70578628D02*
X139490476Y-70531009D01*
X139490476Y-70531009D02*
X139395238Y-70483390D01*
X146333928Y-86559580D02*
X146286309Y-86607200D01*
X146286309Y-86607200D02*
X146143452Y-86654819D01*
X146143452Y-86654819D02*
X146048214Y-86654819D01*
X146048214Y-86654819D02*
X145905357Y-86607200D01*
X145905357Y-86607200D02*
X145810119Y-86511961D01*
X145810119Y-86511961D02*
X145762500Y-86416723D01*
X145762500Y-86416723D02*
X145714881Y-86226247D01*
X145714881Y-86226247D02*
X145714881Y-86083390D01*
X145714881Y-86083390D02*
X145762500Y-85892914D01*
X145762500Y-85892914D02*
X145810119Y-85797676D01*
X145810119Y-85797676D02*
X145905357Y-85702438D01*
X145905357Y-85702438D02*
X146048214Y-85654819D01*
X146048214Y-85654819D02*
X146143452Y-85654819D01*
X146143452Y-85654819D02*
X146286309Y-85702438D01*
X146286309Y-85702438D02*
X146333928Y-85750057D01*
X146810119Y-86654819D02*
X147000595Y-86654819D01*
X147000595Y-86654819D02*
X147095833Y-86607200D01*
X147095833Y-86607200D02*
X147143452Y-86559580D01*
X147143452Y-86559580D02*
X147238690Y-86416723D01*
X147238690Y-86416723D02*
X147286309Y-86226247D01*
X147286309Y-86226247D02*
X147286309Y-85845295D01*
X147286309Y-85845295D02*
X147238690Y-85750057D01*
X147238690Y-85750057D02*
X147191071Y-85702438D01*
X147191071Y-85702438D02*
X147095833Y-85654819D01*
X147095833Y-85654819D02*
X146905357Y-85654819D01*
X146905357Y-85654819D02*
X146810119Y-85702438D01*
X146810119Y-85702438D02*
X146762500Y-85750057D01*
X146762500Y-85750057D02*
X146714881Y-85845295D01*
X146714881Y-85845295D02*
X146714881Y-86083390D01*
X146714881Y-86083390D02*
X146762500Y-86178628D01*
X146762500Y-86178628D02*
X146810119Y-86226247D01*
X146810119Y-86226247D02*
X146905357Y-86273866D01*
X146905357Y-86273866D02*
X147095833Y-86273866D01*
X147095833Y-86273866D02*
X147191071Y-86226247D01*
X147191071Y-86226247D02*
X147238690Y-86178628D01*
X147238690Y-86178628D02*
X147286309Y-86083390D01*
X127538095Y-75954819D02*
X128109523Y-75954819D01*
X127823809Y-76954819D02*
X127823809Y-75954819D01*
X128442857Y-76954819D02*
X128442857Y-75954819D01*
X128442857Y-75954819D02*
X128823809Y-75954819D01*
X128823809Y-75954819D02*
X128919047Y-76002438D01*
X128919047Y-76002438D02*
X128966666Y-76050057D01*
X128966666Y-76050057D02*
X129014285Y-76145295D01*
X129014285Y-76145295D02*
X129014285Y-76288152D01*
X129014285Y-76288152D02*
X128966666Y-76383390D01*
X128966666Y-76383390D02*
X128919047Y-76431009D01*
X128919047Y-76431009D02*
X128823809Y-76478628D01*
X128823809Y-76478628D02*
X128442857Y-76478628D01*
X129347619Y-75954819D02*
X129966666Y-75954819D01*
X129966666Y-75954819D02*
X129633333Y-76335771D01*
X129633333Y-76335771D02*
X129776190Y-76335771D01*
X129776190Y-76335771D02*
X129871428Y-76383390D01*
X129871428Y-76383390D02*
X129919047Y-76431009D01*
X129919047Y-76431009D02*
X129966666Y-76526247D01*
X129966666Y-76526247D02*
X129966666Y-76764342D01*
X129966666Y-76764342D02*
X129919047Y-76859580D01*
X129919047Y-76859580D02*
X129871428Y-76907200D01*
X129871428Y-76907200D02*
X129776190Y-76954819D01*
X129776190Y-76954819D02*
X129490476Y-76954819D01*
X129490476Y-76954819D02*
X129395238Y-76907200D01*
X129395238Y-76907200D02*
X129347619Y-76859580D01*
X120261905Y-51254819D02*
X120261905Y-50254819D01*
X120261905Y-50254819D02*
X120500000Y-50254819D01*
X120500000Y-50254819D02*
X120642857Y-50302438D01*
X120642857Y-50302438D02*
X120738095Y-50397676D01*
X120738095Y-50397676D02*
X120785714Y-50492914D01*
X120785714Y-50492914D02*
X120833333Y-50683390D01*
X120833333Y-50683390D02*
X120833333Y-50826247D01*
X120833333Y-50826247D02*
X120785714Y-51016723D01*
X120785714Y-51016723D02*
X120738095Y-51111961D01*
X120738095Y-51111961D02*
X120642857Y-51207200D01*
X120642857Y-51207200D02*
X120500000Y-51254819D01*
X120500000Y-51254819D02*
X120261905Y-51254819D01*
X121166667Y-50254819D02*
X121785714Y-50254819D01*
X121785714Y-50254819D02*
X121452381Y-50635771D01*
X121452381Y-50635771D02*
X121595238Y-50635771D01*
X121595238Y-50635771D02*
X121690476Y-50683390D01*
X121690476Y-50683390D02*
X121738095Y-50731009D01*
X121738095Y-50731009D02*
X121785714Y-50826247D01*
X121785714Y-50826247D02*
X121785714Y-51064342D01*
X121785714Y-51064342D02*
X121738095Y-51159580D01*
X121738095Y-51159580D02*
X121690476Y-51207200D01*
X121690476Y-51207200D02*
X121595238Y-51254819D01*
X121595238Y-51254819D02*
X121309524Y-51254819D01*
X121309524Y-51254819D02*
X121214286Y-51207200D01*
X121214286Y-51207200D02*
X121166667Y-51159580D01*
X144457142Y-82859580D02*
X144409523Y-82907200D01*
X144409523Y-82907200D02*
X144266666Y-82954819D01*
X144266666Y-82954819D02*
X144171428Y-82954819D01*
X144171428Y-82954819D02*
X144028571Y-82907200D01*
X144028571Y-82907200D02*
X143933333Y-82811961D01*
X143933333Y-82811961D02*
X143885714Y-82716723D01*
X143885714Y-82716723D02*
X143838095Y-82526247D01*
X143838095Y-82526247D02*
X143838095Y-82383390D01*
X143838095Y-82383390D02*
X143885714Y-82192914D01*
X143885714Y-82192914D02*
X143933333Y-82097676D01*
X143933333Y-82097676D02*
X144028571Y-82002438D01*
X144028571Y-82002438D02*
X144171428Y-81954819D01*
X144171428Y-81954819D02*
X144266666Y-81954819D01*
X144266666Y-81954819D02*
X144409523Y-82002438D01*
X144409523Y-82002438D02*
X144457142Y-82050057D01*
X145409523Y-82954819D02*
X144838095Y-82954819D01*
X145123809Y-82954819D02*
X145123809Y-81954819D01*
X145123809Y-81954819D02*
X145028571Y-82097676D01*
X145028571Y-82097676D02*
X144933333Y-82192914D01*
X144933333Y-82192914D02*
X144838095Y-82240533D01*
X146266666Y-81954819D02*
X146076190Y-81954819D01*
X146076190Y-81954819D02*
X145980952Y-82002438D01*
X145980952Y-82002438D02*
X145933333Y-82050057D01*
X145933333Y-82050057D02*
X145838095Y-82192914D01*
X145838095Y-82192914D02*
X145790476Y-82383390D01*
X145790476Y-82383390D02*
X145790476Y-82764342D01*
X145790476Y-82764342D02*
X145838095Y-82859580D01*
X145838095Y-82859580D02*
X145885714Y-82907200D01*
X145885714Y-82907200D02*
X145980952Y-82954819D01*
X145980952Y-82954819D02*
X146171428Y-82954819D01*
X146171428Y-82954819D02*
X146266666Y-82907200D01*
X146266666Y-82907200D02*
X146314285Y-82859580D01*
X146314285Y-82859580D02*
X146361904Y-82764342D01*
X146361904Y-82764342D02*
X146361904Y-82526247D01*
X146361904Y-82526247D02*
X146314285Y-82431009D01*
X146314285Y-82431009D02*
X146266666Y-82383390D01*
X146266666Y-82383390D02*
X146171428Y-82335771D01*
X146171428Y-82335771D02*
X145980952Y-82335771D01*
X145980952Y-82335771D02*
X145885714Y-82383390D01*
X145885714Y-82383390D02*
X145838095Y-82431009D01*
X145838095Y-82431009D02*
X145790476Y-82526247D01*
X136133333Y-83954819D02*
X135800000Y-83478628D01*
X135561905Y-83954819D02*
X135561905Y-82954819D01*
X135561905Y-82954819D02*
X135942857Y-82954819D01*
X135942857Y-82954819D02*
X136038095Y-83002438D01*
X136038095Y-83002438D02*
X136085714Y-83050057D01*
X136085714Y-83050057D02*
X136133333Y-83145295D01*
X136133333Y-83145295D02*
X136133333Y-83288152D01*
X136133333Y-83288152D02*
X136085714Y-83383390D01*
X136085714Y-83383390D02*
X136038095Y-83431009D01*
X136038095Y-83431009D02*
X135942857Y-83478628D01*
X135942857Y-83478628D02*
X135561905Y-83478628D01*
X136990476Y-82954819D02*
X136800000Y-82954819D01*
X136800000Y-82954819D02*
X136704762Y-83002438D01*
X136704762Y-83002438D02*
X136657143Y-83050057D01*
X136657143Y-83050057D02*
X136561905Y-83192914D01*
X136561905Y-83192914D02*
X136514286Y-83383390D01*
X136514286Y-83383390D02*
X136514286Y-83764342D01*
X136514286Y-83764342D02*
X136561905Y-83859580D01*
X136561905Y-83859580D02*
X136609524Y-83907200D01*
X136609524Y-83907200D02*
X136704762Y-83954819D01*
X136704762Y-83954819D02*
X136895238Y-83954819D01*
X136895238Y-83954819D02*
X136990476Y-83907200D01*
X136990476Y-83907200D02*
X137038095Y-83859580D01*
X137038095Y-83859580D02*
X137085714Y-83764342D01*
X137085714Y-83764342D02*
X137085714Y-83526247D01*
X137085714Y-83526247D02*
X137038095Y-83431009D01*
X137038095Y-83431009D02*
X136990476Y-83383390D01*
X136990476Y-83383390D02*
X136895238Y-83335771D01*
X136895238Y-83335771D02*
X136704762Y-83335771D01*
X136704762Y-83335771D02*
X136609524Y-83383390D01*
X136609524Y-83383390D02*
X136561905Y-83431009D01*
X136561905Y-83431009D02*
X136514286Y-83526247D01*
X122988095Y-69654819D02*
X123559523Y-69654819D01*
X123273809Y-70654819D02*
X123273809Y-69654819D01*
X123892857Y-70654819D02*
X123892857Y-69654819D01*
X123892857Y-69654819D02*
X124273809Y-69654819D01*
X124273809Y-69654819D02*
X124369047Y-69702438D01*
X124369047Y-69702438D02*
X124416666Y-69750057D01*
X124416666Y-69750057D02*
X124464285Y-69845295D01*
X124464285Y-69845295D02*
X124464285Y-69988152D01*
X124464285Y-69988152D02*
X124416666Y-70083390D01*
X124416666Y-70083390D02*
X124369047Y-70131009D01*
X124369047Y-70131009D02*
X124273809Y-70178628D01*
X124273809Y-70178628D02*
X123892857Y-70178628D01*
X124797619Y-69654819D02*
X125464285Y-69654819D01*
X125464285Y-69654819D02*
X125035714Y-70654819D01*
X151761905Y-78906819D02*
X152333333Y-78906819D01*
X152047619Y-79906819D02*
X152047619Y-78906819D01*
X152666667Y-79906819D02*
X152666667Y-78906819D01*
X152666667Y-78906819D02*
X153047619Y-78906819D01*
X153047619Y-78906819D02*
X153142857Y-78954438D01*
X153142857Y-78954438D02*
X153190476Y-79002057D01*
X153190476Y-79002057D02*
X153238095Y-79097295D01*
X153238095Y-79097295D02*
X153238095Y-79240152D01*
X153238095Y-79240152D02*
X153190476Y-79335390D01*
X153190476Y-79335390D02*
X153142857Y-79383009D01*
X153142857Y-79383009D02*
X153047619Y-79430628D01*
X153047619Y-79430628D02*
X152666667Y-79430628D01*
X154190476Y-79906819D02*
X153619048Y-79906819D01*
X153904762Y-79906819D02*
X153904762Y-78906819D01*
X153904762Y-78906819D02*
X153809524Y-79049676D01*
X153809524Y-79049676D02*
X153714286Y-79144914D01*
X153714286Y-79144914D02*
X153619048Y-79192533D01*
X154571429Y-79002057D02*
X154619048Y-78954438D01*
X154619048Y-78954438D02*
X154714286Y-78906819D01*
X154714286Y-78906819D02*
X154952381Y-78906819D01*
X154952381Y-78906819D02*
X155047619Y-78954438D01*
X155047619Y-78954438D02*
X155095238Y-79002057D01*
X155095238Y-79002057D02*
X155142857Y-79097295D01*
X155142857Y-79097295D02*
X155142857Y-79192533D01*
X155142857Y-79192533D02*
X155095238Y-79335390D01*
X155095238Y-79335390D02*
X154523810Y-79906819D01*
X154523810Y-79906819D02*
X155142857Y-79906819D01*
X156333333Y-73954819D02*
X156000000Y-73478628D01*
X155761905Y-73954819D02*
X155761905Y-72954819D01*
X155761905Y-72954819D02*
X156142857Y-72954819D01*
X156142857Y-72954819D02*
X156238095Y-73002438D01*
X156238095Y-73002438D02*
X156285714Y-73050057D01*
X156285714Y-73050057D02*
X156333333Y-73145295D01*
X156333333Y-73145295D02*
X156333333Y-73288152D01*
X156333333Y-73288152D02*
X156285714Y-73383390D01*
X156285714Y-73383390D02*
X156238095Y-73431009D01*
X156238095Y-73431009D02*
X156142857Y-73478628D01*
X156142857Y-73478628D02*
X155761905Y-73478628D01*
X156666667Y-72954819D02*
X157285714Y-72954819D01*
X157285714Y-72954819D02*
X156952381Y-73335771D01*
X156952381Y-73335771D02*
X157095238Y-73335771D01*
X157095238Y-73335771D02*
X157190476Y-73383390D01*
X157190476Y-73383390D02*
X157238095Y-73431009D01*
X157238095Y-73431009D02*
X157285714Y-73526247D01*
X157285714Y-73526247D02*
X157285714Y-73764342D01*
X157285714Y-73764342D02*
X157238095Y-73859580D01*
X157238095Y-73859580D02*
X157190476Y-73907200D01*
X157190476Y-73907200D02*
X157095238Y-73954819D01*
X157095238Y-73954819D02*
X156809524Y-73954819D01*
X156809524Y-73954819D02*
X156714286Y-73907200D01*
X156714286Y-73907200D02*
X156666667Y-73859580D01*
X110133333Y-57754819D02*
X109800000Y-57278628D01*
X109561905Y-57754819D02*
X109561905Y-56754819D01*
X109561905Y-56754819D02*
X109942857Y-56754819D01*
X109942857Y-56754819D02*
X110038095Y-56802438D01*
X110038095Y-56802438D02*
X110085714Y-56850057D01*
X110085714Y-56850057D02*
X110133333Y-56945295D01*
X110133333Y-56945295D02*
X110133333Y-57088152D01*
X110133333Y-57088152D02*
X110085714Y-57183390D01*
X110085714Y-57183390D02*
X110038095Y-57231009D01*
X110038095Y-57231009D02*
X109942857Y-57278628D01*
X109942857Y-57278628D02*
X109561905Y-57278628D01*
X110609524Y-57754819D02*
X110800000Y-57754819D01*
X110800000Y-57754819D02*
X110895238Y-57707200D01*
X110895238Y-57707200D02*
X110942857Y-57659580D01*
X110942857Y-57659580D02*
X111038095Y-57516723D01*
X111038095Y-57516723D02*
X111085714Y-57326247D01*
X111085714Y-57326247D02*
X111085714Y-56945295D01*
X111085714Y-56945295D02*
X111038095Y-56850057D01*
X111038095Y-56850057D02*
X110990476Y-56802438D01*
X110990476Y-56802438D02*
X110895238Y-56754819D01*
X110895238Y-56754819D02*
X110704762Y-56754819D01*
X110704762Y-56754819D02*
X110609524Y-56802438D01*
X110609524Y-56802438D02*
X110561905Y-56850057D01*
X110561905Y-56850057D02*
X110514286Y-56945295D01*
X110514286Y-56945295D02*
X110514286Y-57183390D01*
X110514286Y-57183390D02*
X110561905Y-57278628D01*
X110561905Y-57278628D02*
X110609524Y-57326247D01*
X110609524Y-57326247D02*
X110704762Y-57373866D01*
X110704762Y-57373866D02*
X110895238Y-57373866D01*
X110895238Y-57373866D02*
X110990476Y-57326247D01*
X110990476Y-57326247D02*
X111038095Y-57278628D01*
X111038095Y-57278628D02*
X111085714Y-57183390D01*
X110738095Y-63204819D02*
X111309523Y-63204819D01*
X111023809Y-64204819D02*
X111023809Y-63204819D01*
X111642857Y-64204819D02*
X111642857Y-63204819D01*
X111642857Y-63204819D02*
X112023809Y-63204819D01*
X112023809Y-63204819D02*
X112119047Y-63252438D01*
X112119047Y-63252438D02*
X112166666Y-63300057D01*
X112166666Y-63300057D02*
X112214285Y-63395295D01*
X112214285Y-63395295D02*
X112214285Y-63538152D01*
X112214285Y-63538152D02*
X112166666Y-63633390D01*
X112166666Y-63633390D02*
X112119047Y-63681009D01*
X112119047Y-63681009D02*
X112023809Y-63728628D01*
X112023809Y-63728628D02*
X111642857Y-63728628D01*
X113071428Y-63538152D02*
X113071428Y-64204819D01*
X112833333Y-63157200D02*
X112595238Y-63871485D01*
X112595238Y-63871485D02*
X113214285Y-63871485D01*
X140164932Y-72059580D02*
X140117313Y-72107200D01*
X140117313Y-72107200D02*
X139974456Y-72154819D01*
X139974456Y-72154819D02*
X139879218Y-72154819D01*
X139879218Y-72154819D02*
X139736361Y-72107200D01*
X139736361Y-72107200D02*
X139641123Y-72011961D01*
X139641123Y-72011961D02*
X139593504Y-71916723D01*
X139593504Y-71916723D02*
X139545885Y-71726247D01*
X139545885Y-71726247D02*
X139545885Y-71583390D01*
X139545885Y-71583390D02*
X139593504Y-71392914D01*
X139593504Y-71392914D02*
X139641123Y-71297676D01*
X139641123Y-71297676D02*
X139736361Y-71202438D01*
X139736361Y-71202438D02*
X139879218Y-71154819D01*
X139879218Y-71154819D02*
X139974456Y-71154819D01*
X139974456Y-71154819D02*
X140117313Y-71202438D01*
X140117313Y-71202438D02*
X140164932Y-71250057D01*
X141022075Y-71154819D02*
X140831599Y-71154819D01*
X140831599Y-71154819D02*
X140736361Y-71202438D01*
X140736361Y-71202438D02*
X140688742Y-71250057D01*
X140688742Y-71250057D02*
X140593504Y-71392914D01*
X140593504Y-71392914D02*
X140545885Y-71583390D01*
X140545885Y-71583390D02*
X140545885Y-71964342D01*
X140545885Y-71964342D02*
X140593504Y-72059580D01*
X140593504Y-72059580D02*
X140641123Y-72107200D01*
X140641123Y-72107200D02*
X140736361Y-72154819D01*
X140736361Y-72154819D02*
X140926837Y-72154819D01*
X140926837Y-72154819D02*
X141022075Y-72107200D01*
X141022075Y-72107200D02*
X141069694Y-72059580D01*
X141069694Y-72059580D02*
X141117313Y-71964342D01*
X141117313Y-71964342D02*
X141117313Y-71726247D01*
X141117313Y-71726247D02*
X141069694Y-71631009D01*
X141069694Y-71631009D02*
X141022075Y-71583390D01*
X141022075Y-71583390D02*
X140926837Y-71535771D01*
X140926837Y-71535771D02*
X140736361Y-71535771D01*
X140736361Y-71535771D02*
X140641123Y-71583390D01*
X140641123Y-71583390D02*
X140593504Y-71631009D01*
X140593504Y-71631009D02*
X140545885Y-71726247D01*
X121654819Y-74992857D02*
X121178628Y-75326190D01*
X121654819Y-75564285D02*
X120654819Y-75564285D01*
X120654819Y-75564285D02*
X120654819Y-75183333D01*
X120654819Y-75183333D02*
X120702438Y-75088095D01*
X120702438Y-75088095D02*
X120750057Y-75040476D01*
X120750057Y-75040476D02*
X120845295Y-74992857D01*
X120845295Y-74992857D02*
X120988152Y-74992857D01*
X120988152Y-74992857D02*
X121083390Y-75040476D01*
X121083390Y-75040476D02*
X121131009Y-75088095D01*
X121131009Y-75088095D02*
X121178628Y-75183333D01*
X121178628Y-75183333D02*
X121178628Y-75564285D01*
X121654819Y-74040476D02*
X121654819Y-74611904D01*
X121654819Y-74326190D02*
X120654819Y-74326190D01*
X120654819Y-74326190D02*
X120797676Y-74421428D01*
X120797676Y-74421428D02*
X120892914Y-74516666D01*
X120892914Y-74516666D02*
X120940533Y-74611904D01*
X120750057Y-73659523D02*
X120702438Y-73611904D01*
X120702438Y-73611904D02*
X120654819Y-73516666D01*
X120654819Y-73516666D02*
X120654819Y-73278571D01*
X120654819Y-73278571D02*
X120702438Y-73183333D01*
X120702438Y-73183333D02*
X120750057Y-73135714D01*
X120750057Y-73135714D02*
X120845295Y-73088095D01*
X120845295Y-73088095D02*
X120940533Y-73088095D01*
X120940533Y-73088095D02*
X121083390Y-73135714D01*
X121083390Y-73135714D02*
X121654819Y-73707142D01*
X121654819Y-73707142D02*
X121654819Y-73088095D01*
X156257142Y-72554819D02*
X155923809Y-72078628D01*
X155685714Y-72554819D02*
X155685714Y-71554819D01*
X155685714Y-71554819D02*
X156066666Y-71554819D01*
X156066666Y-71554819D02*
X156161904Y-71602438D01*
X156161904Y-71602438D02*
X156209523Y-71650057D01*
X156209523Y-71650057D02*
X156257142Y-71745295D01*
X156257142Y-71745295D02*
X156257142Y-71888152D01*
X156257142Y-71888152D02*
X156209523Y-71983390D01*
X156209523Y-71983390D02*
X156161904Y-72031009D01*
X156161904Y-72031009D02*
X156066666Y-72078628D01*
X156066666Y-72078628D02*
X155685714Y-72078628D01*
X157209523Y-72554819D02*
X156638095Y-72554819D01*
X156923809Y-72554819D02*
X156923809Y-71554819D01*
X156923809Y-71554819D02*
X156828571Y-71697676D01*
X156828571Y-71697676D02*
X156733333Y-71792914D01*
X156733333Y-71792914D02*
X156638095Y-71840533D01*
X158114285Y-71554819D02*
X157638095Y-71554819D01*
X157638095Y-71554819D02*
X157590476Y-72031009D01*
X157590476Y-72031009D02*
X157638095Y-71983390D01*
X157638095Y-71983390D02*
X157733333Y-71935771D01*
X157733333Y-71935771D02*
X157971428Y-71935771D01*
X157971428Y-71935771D02*
X158066666Y-71983390D01*
X158066666Y-71983390D02*
X158114285Y-72031009D01*
X158114285Y-72031009D02*
X158161904Y-72126247D01*
X158161904Y-72126247D02*
X158161904Y-72364342D01*
X158161904Y-72364342D02*
X158114285Y-72459580D01*
X158114285Y-72459580D02*
X158066666Y-72507200D01*
X158066666Y-72507200D02*
X157971428Y-72554819D01*
X157971428Y-72554819D02*
X157733333Y-72554819D01*
X157733333Y-72554819D02*
X157638095Y-72507200D01*
X157638095Y-72507200D02*
X157590476Y-72459580D01*
X128733333Y-81524819D02*
X128400000Y-81048628D01*
X128161905Y-81524819D02*
X128161905Y-80524819D01*
X128161905Y-80524819D02*
X128542857Y-80524819D01*
X128542857Y-80524819D02*
X128638095Y-80572438D01*
X128638095Y-80572438D02*
X128685714Y-80620057D01*
X128685714Y-80620057D02*
X128733333Y-80715295D01*
X128733333Y-80715295D02*
X128733333Y-80858152D01*
X128733333Y-80858152D02*
X128685714Y-80953390D01*
X128685714Y-80953390D02*
X128638095Y-81001009D01*
X128638095Y-81001009D02*
X128542857Y-81048628D01*
X128542857Y-81048628D02*
X128161905Y-81048628D01*
X129638095Y-80524819D02*
X129161905Y-80524819D01*
X129161905Y-80524819D02*
X129114286Y-81001009D01*
X129114286Y-81001009D02*
X129161905Y-80953390D01*
X129161905Y-80953390D02*
X129257143Y-80905771D01*
X129257143Y-80905771D02*
X129495238Y-80905771D01*
X129495238Y-80905771D02*
X129590476Y-80953390D01*
X129590476Y-80953390D02*
X129638095Y-81001009D01*
X129638095Y-81001009D02*
X129685714Y-81096247D01*
X129685714Y-81096247D02*
X129685714Y-81334342D01*
X129685714Y-81334342D02*
X129638095Y-81429580D01*
X129638095Y-81429580D02*
X129590476Y-81477200D01*
X129590476Y-81477200D02*
X129495238Y-81524819D01*
X129495238Y-81524819D02*
X129257143Y-81524819D01*
X129257143Y-81524819D02*
X129161905Y-81477200D01*
X129161905Y-81477200D02*
X129114286Y-81429580D01*
X156857142Y-70054819D02*
X156523809Y-69578628D01*
X156285714Y-70054819D02*
X156285714Y-69054819D01*
X156285714Y-69054819D02*
X156666666Y-69054819D01*
X156666666Y-69054819D02*
X156761904Y-69102438D01*
X156761904Y-69102438D02*
X156809523Y-69150057D01*
X156809523Y-69150057D02*
X156857142Y-69245295D01*
X156857142Y-69245295D02*
X156857142Y-69388152D01*
X156857142Y-69388152D02*
X156809523Y-69483390D01*
X156809523Y-69483390D02*
X156761904Y-69531009D01*
X156761904Y-69531009D02*
X156666666Y-69578628D01*
X156666666Y-69578628D02*
X156285714Y-69578628D01*
X157809523Y-70054819D02*
X157238095Y-70054819D01*
X157523809Y-70054819D02*
X157523809Y-69054819D01*
X157523809Y-69054819D02*
X157428571Y-69197676D01*
X157428571Y-69197676D02*
X157333333Y-69292914D01*
X157333333Y-69292914D02*
X157238095Y-69340533D01*
X158142857Y-69054819D02*
X158761904Y-69054819D01*
X158761904Y-69054819D02*
X158428571Y-69435771D01*
X158428571Y-69435771D02*
X158571428Y-69435771D01*
X158571428Y-69435771D02*
X158666666Y-69483390D01*
X158666666Y-69483390D02*
X158714285Y-69531009D01*
X158714285Y-69531009D02*
X158761904Y-69626247D01*
X158761904Y-69626247D02*
X158761904Y-69864342D01*
X158761904Y-69864342D02*
X158714285Y-69959580D01*
X158714285Y-69959580D02*
X158666666Y-70007200D01*
X158666666Y-70007200D02*
X158571428Y-70054819D01*
X158571428Y-70054819D02*
X158285714Y-70054819D01*
X158285714Y-70054819D02*
X158190476Y-70007200D01*
X158190476Y-70007200D02*
X158142857Y-69959580D01*
X148957142Y-64659580D02*
X148909523Y-64707200D01*
X148909523Y-64707200D02*
X148766666Y-64754819D01*
X148766666Y-64754819D02*
X148671428Y-64754819D01*
X148671428Y-64754819D02*
X148528571Y-64707200D01*
X148528571Y-64707200D02*
X148433333Y-64611961D01*
X148433333Y-64611961D02*
X148385714Y-64516723D01*
X148385714Y-64516723D02*
X148338095Y-64326247D01*
X148338095Y-64326247D02*
X148338095Y-64183390D01*
X148338095Y-64183390D02*
X148385714Y-63992914D01*
X148385714Y-63992914D02*
X148433333Y-63897676D01*
X148433333Y-63897676D02*
X148528571Y-63802438D01*
X148528571Y-63802438D02*
X148671428Y-63754819D01*
X148671428Y-63754819D02*
X148766666Y-63754819D01*
X148766666Y-63754819D02*
X148909523Y-63802438D01*
X148909523Y-63802438D02*
X148957142Y-63850057D01*
X149909523Y-64754819D02*
X149338095Y-64754819D01*
X149623809Y-64754819D02*
X149623809Y-63754819D01*
X149623809Y-63754819D02*
X149528571Y-63897676D01*
X149528571Y-63897676D02*
X149433333Y-63992914D01*
X149433333Y-63992914D02*
X149338095Y-64040533D01*
X150528571Y-63754819D02*
X150623809Y-63754819D01*
X150623809Y-63754819D02*
X150719047Y-63802438D01*
X150719047Y-63802438D02*
X150766666Y-63850057D01*
X150766666Y-63850057D02*
X150814285Y-63945295D01*
X150814285Y-63945295D02*
X150861904Y-64135771D01*
X150861904Y-64135771D02*
X150861904Y-64373866D01*
X150861904Y-64373866D02*
X150814285Y-64564342D01*
X150814285Y-64564342D02*
X150766666Y-64659580D01*
X150766666Y-64659580D02*
X150719047Y-64707200D01*
X150719047Y-64707200D02*
X150623809Y-64754819D01*
X150623809Y-64754819D02*
X150528571Y-64754819D01*
X150528571Y-64754819D02*
X150433333Y-64707200D01*
X150433333Y-64707200D02*
X150385714Y-64659580D01*
X150385714Y-64659580D02*
X150338095Y-64564342D01*
X150338095Y-64564342D02*
X150290476Y-64373866D01*
X150290476Y-64373866D02*
X150290476Y-64135771D01*
X150290476Y-64135771D02*
X150338095Y-63945295D01*
X150338095Y-63945295D02*
X150385714Y-63850057D01*
X150385714Y-63850057D02*
X150433333Y-63802438D01*
X150433333Y-63802438D02*
X150528571Y-63754819D01*
X125138095Y-82354819D02*
X125709523Y-82354819D01*
X125423809Y-83354819D02*
X125423809Y-82354819D01*
X126042857Y-83354819D02*
X126042857Y-82354819D01*
X126042857Y-82354819D02*
X126423809Y-82354819D01*
X126423809Y-82354819D02*
X126519047Y-82402438D01*
X126519047Y-82402438D02*
X126566666Y-82450057D01*
X126566666Y-82450057D02*
X126614285Y-82545295D01*
X126614285Y-82545295D02*
X126614285Y-82688152D01*
X126614285Y-82688152D02*
X126566666Y-82783390D01*
X126566666Y-82783390D02*
X126519047Y-82831009D01*
X126519047Y-82831009D02*
X126423809Y-82878628D01*
X126423809Y-82878628D02*
X126042857Y-82878628D01*
X127566666Y-83354819D02*
X126995238Y-83354819D01*
X127280952Y-83354819D02*
X127280952Y-82354819D01*
X127280952Y-82354819D02*
X127185714Y-82497676D01*
X127185714Y-82497676D02*
X127090476Y-82592914D01*
X127090476Y-82592914D02*
X126995238Y-82640533D01*
X135487905Y-54054819D02*
X135487905Y-53054819D01*
X135487905Y-53054819D02*
X135726000Y-53054819D01*
X135726000Y-53054819D02*
X135868857Y-53102438D01*
X135868857Y-53102438D02*
X135964095Y-53197676D01*
X135964095Y-53197676D02*
X136011714Y-53292914D01*
X136011714Y-53292914D02*
X136059333Y-53483390D01*
X136059333Y-53483390D02*
X136059333Y-53626247D01*
X136059333Y-53626247D02*
X136011714Y-53816723D01*
X136011714Y-53816723D02*
X135964095Y-53911961D01*
X135964095Y-53911961D02*
X135868857Y-54007200D01*
X135868857Y-54007200D02*
X135726000Y-54054819D01*
X135726000Y-54054819D02*
X135487905Y-54054819D01*
X137011714Y-54054819D02*
X136440286Y-54054819D01*
X136726000Y-54054819D02*
X136726000Y-53054819D01*
X136726000Y-53054819D02*
X136630762Y-53197676D01*
X136630762Y-53197676D02*
X136535524Y-53292914D01*
X136535524Y-53292914D02*
X136440286Y-53340533D01*
X150957142Y-84484819D02*
X150623809Y-84008628D01*
X150385714Y-84484819D02*
X150385714Y-83484819D01*
X150385714Y-83484819D02*
X150766666Y-83484819D01*
X150766666Y-83484819D02*
X150861904Y-83532438D01*
X150861904Y-83532438D02*
X150909523Y-83580057D01*
X150909523Y-83580057D02*
X150957142Y-83675295D01*
X150957142Y-83675295D02*
X150957142Y-83818152D01*
X150957142Y-83818152D02*
X150909523Y-83913390D01*
X150909523Y-83913390D02*
X150861904Y-83961009D01*
X150861904Y-83961009D02*
X150766666Y-84008628D01*
X150766666Y-84008628D02*
X150385714Y-84008628D01*
X151338095Y-83580057D02*
X151385714Y-83532438D01*
X151385714Y-83532438D02*
X151480952Y-83484819D01*
X151480952Y-83484819D02*
X151719047Y-83484819D01*
X151719047Y-83484819D02*
X151814285Y-83532438D01*
X151814285Y-83532438D02*
X151861904Y-83580057D01*
X151861904Y-83580057D02*
X151909523Y-83675295D01*
X151909523Y-83675295D02*
X151909523Y-83770533D01*
X151909523Y-83770533D02*
X151861904Y-83913390D01*
X151861904Y-83913390D02*
X151290476Y-84484819D01*
X151290476Y-84484819D02*
X151909523Y-84484819D01*
X152528571Y-83484819D02*
X152623809Y-83484819D01*
X152623809Y-83484819D02*
X152719047Y-83532438D01*
X152719047Y-83532438D02*
X152766666Y-83580057D01*
X152766666Y-83580057D02*
X152814285Y-83675295D01*
X152814285Y-83675295D02*
X152861904Y-83865771D01*
X152861904Y-83865771D02*
X152861904Y-84103866D01*
X152861904Y-84103866D02*
X152814285Y-84294342D01*
X152814285Y-84294342D02*
X152766666Y-84389580D01*
X152766666Y-84389580D02*
X152719047Y-84437200D01*
X152719047Y-84437200D02*
X152623809Y-84484819D01*
X152623809Y-84484819D02*
X152528571Y-84484819D01*
X152528571Y-84484819D02*
X152433333Y-84437200D01*
X152433333Y-84437200D02*
X152385714Y-84389580D01*
X152385714Y-84389580D02*
X152338095Y-84294342D01*
X152338095Y-84294342D02*
X152290476Y-84103866D01*
X152290476Y-84103866D02*
X152290476Y-83865771D01*
X152290476Y-83865771D02*
X152338095Y-83675295D01*
X152338095Y-83675295D02*
X152385714Y-83580057D01*
X152385714Y-83580057D02*
X152433333Y-83532438D01*
X152433333Y-83532438D02*
X152528571Y-83484819D01*
X120615546Y-69554819D02*
X120615546Y-68554819D01*
X120615546Y-68554819D02*
X120853641Y-68554819D01*
X120853641Y-68554819D02*
X120996498Y-68602438D01*
X120996498Y-68602438D02*
X121091736Y-68697676D01*
X121091736Y-68697676D02*
X121139355Y-68792914D01*
X121139355Y-68792914D02*
X121186974Y-68983390D01*
X121186974Y-68983390D02*
X121186974Y-69126247D01*
X121186974Y-69126247D02*
X121139355Y-69316723D01*
X121139355Y-69316723D02*
X121091736Y-69411961D01*
X121091736Y-69411961D02*
X120996498Y-69507200D01*
X120996498Y-69507200D02*
X120853641Y-69554819D01*
X120853641Y-69554819D02*
X120615546Y-69554819D01*
X122091736Y-68554819D02*
X121615546Y-68554819D01*
X121615546Y-68554819D02*
X121567927Y-69031009D01*
X121567927Y-69031009D02*
X121615546Y-68983390D01*
X121615546Y-68983390D02*
X121710784Y-68935771D01*
X121710784Y-68935771D02*
X121948879Y-68935771D01*
X121948879Y-68935771D02*
X122044117Y-68983390D01*
X122044117Y-68983390D02*
X122091736Y-69031009D01*
X122091736Y-69031009D02*
X122139355Y-69126247D01*
X122139355Y-69126247D02*
X122139355Y-69364342D01*
X122139355Y-69364342D02*
X122091736Y-69459580D01*
X122091736Y-69459580D02*
X122044117Y-69507200D01*
X122044117Y-69507200D02*
X121948879Y-69554819D01*
X121948879Y-69554819D02*
X121710784Y-69554819D01*
X121710784Y-69554819D02*
X121615546Y-69507200D01*
X121615546Y-69507200D02*
X121567927Y-69459580D01*
X121877682Y-78696666D02*
X121401491Y-79029999D01*
X121877682Y-79268094D02*
X120877682Y-79268094D01*
X120877682Y-79268094D02*
X120877682Y-78887142D01*
X120877682Y-78887142D02*
X120925301Y-78791904D01*
X120925301Y-78791904D02*
X120972920Y-78744285D01*
X120972920Y-78744285D02*
X121068158Y-78696666D01*
X121068158Y-78696666D02*
X121211015Y-78696666D01*
X121211015Y-78696666D02*
X121306253Y-78744285D01*
X121306253Y-78744285D02*
X121353872Y-78791904D01*
X121353872Y-78791904D02*
X121401491Y-78887142D01*
X121401491Y-78887142D02*
X121401491Y-79268094D01*
X120877682Y-78363332D02*
X120877682Y-77696666D01*
X120877682Y-77696666D02*
X121877682Y-78125237D01*
X134361905Y-69454819D02*
X134933333Y-69454819D01*
X134647619Y-70454819D02*
X134647619Y-69454819D01*
X135266667Y-70454819D02*
X135266667Y-69454819D01*
X135266667Y-69454819D02*
X135647619Y-69454819D01*
X135647619Y-69454819D02*
X135742857Y-69502438D01*
X135742857Y-69502438D02*
X135790476Y-69550057D01*
X135790476Y-69550057D02*
X135838095Y-69645295D01*
X135838095Y-69645295D02*
X135838095Y-69788152D01*
X135838095Y-69788152D02*
X135790476Y-69883390D01*
X135790476Y-69883390D02*
X135742857Y-69931009D01*
X135742857Y-69931009D02*
X135647619Y-69978628D01*
X135647619Y-69978628D02*
X135266667Y-69978628D01*
X136790476Y-70454819D02*
X136219048Y-70454819D01*
X136504762Y-70454819D02*
X136504762Y-69454819D01*
X136504762Y-69454819D02*
X136409524Y-69597676D01*
X136409524Y-69597676D02*
X136314286Y-69692914D01*
X136314286Y-69692914D02*
X136219048Y-69740533D01*
X137647619Y-69454819D02*
X137457143Y-69454819D01*
X137457143Y-69454819D02*
X137361905Y-69502438D01*
X137361905Y-69502438D02*
X137314286Y-69550057D01*
X137314286Y-69550057D02*
X137219048Y-69692914D01*
X137219048Y-69692914D02*
X137171429Y-69883390D01*
X137171429Y-69883390D02*
X137171429Y-70264342D01*
X137171429Y-70264342D02*
X137219048Y-70359580D01*
X137219048Y-70359580D02*
X137266667Y-70407200D01*
X137266667Y-70407200D02*
X137361905Y-70454819D01*
X137361905Y-70454819D02*
X137552381Y-70454819D01*
X137552381Y-70454819D02*
X137647619Y-70407200D01*
X137647619Y-70407200D02*
X137695238Y-70359580D01*
X137695238Y-70359580D02*
X137742857Y-70264342D01*
X137742857Y-70264342D02*
X137742857Y-70026247D01*
X137742857Y-70026247D02*
X137695238Y-69931009D01*
X137695238Y-69931009D02*
X137647619Y-69883390D01*
X137647619Y-69883390D02*
X137552381Y-69835771D01*
X137552381Y-69835771D02*
X137361905Y-69835771D01*
X137361905Y-69835771D02*
X137266667Y-69883390D01*
X137266667Y-69883390D02*
X137219048Y-69931009D01*
X137219048Y-69931009D02*
X137171429Y-70026247D01*
X155866666Y-58054819D02*
X155866666Y-58769104D01*
X155866666Y-58769104D02*
X155819047Y-58911961D01*
X155819047Y-58911961D02*
X155723809Y-59007200D01*
X155723809Y-59007200D02*
X155580952Y-59054819D01*
X155580952Y-59054819D02*
X155485714Y-59054819D01*
X156819047Y-58054819D02*
X156342857Y-58054819D01*
X156342857Y-58054819D02*
X156295238Y-58531009D01*
X156295238Y-58531009D02*
X156342857Y-58483390D01*
X156342857Y-58483390D02*
X156438095Y-58435771D01*
X156438095Y-58435771D02*
X156676190Y-58435771D01*
X156676190Y-58435771D02*
X156771428Y-58483390D01*
X156771428Y-58483390D02*
X156819047Y-58531009D01*
X156819047Y-58531009D02*
X156866666Y-58626247D01*
X156866666Y-58626247D02*
X156866666Y-58864342D01*
X156866666Y-58864342D02*
X156819047Y-58959580D01*
X156819047Y-58959580D02*
X156771428Y-59007200D01*
X156771428Y-59007200D02*
X156676190Y-59054819D01*
X156676190Y-59054819D02*
X156438095Y-59054819D01*
X156438095Y-59054819D02*
X156342857Y-59007200D01*
X156342857Y-59007200D02*
X156295238Y-58959580D01*
X132957142Y-76759580D02*
X132909523Y-76807200D01*
X132909523Y-76807200D02*
X132766666Y-76854819D01*
X132766666Y-76854819D02*
X132671428Y-76854819D01*
X132671428Y-76854819D02*
X132528571Y-76807200D01*
X132528571Y-76807200D02*
X132433333Y-76711961D01*
X132433333Y-76711961D02*
X132385714Y-76616723D01*
X132385714Y-76616723D02*
X132338095Y-76426247D01*
X132338095Y-76426247D02*
X132338095Y-76283390D01*
X132338095Y-76283390D02*
X132385714Y-76092914D01*
X132385714Y-76092914D02*
X132433333Y-75997676D01*
X132433333Y-75997676D02*
X132528571Y-75902438D01*
X132528571Y-75902438D02*
X132671428Y-75854819D01*
X132671428Y-75854819D02*
X132766666Y-75854819D01*
X132766666Y-75854819D02*
X132909523Y-75902438D01*
X132909523Y-75902438D02*
X132957142Y-75950057D01*
X133909523Y-76854819D02*
X133338095Y-76854819D01*
X133623809Y-76854819D02*
X133623809Y-75854819D01*
X133623809Y-75854819D02*
X133528571Y-75997676D01*
X133528571Y-75997676D02*
X133433333Y-76092914D01*
X133433333Y-76092914D02*
X133338095Y-76140533D01*
X134242857Y-75854819D02*
X134909523Y-75854819D01*
X134909523Y-75854819D02*
X134480952Y-76854819D01*
X117957142Y-67854819D02*
X117623809Y-67378628D01*
X117385714Y-67854819D02*
X117385714Y-66854819D01*
X117385714Y-66854819D02*
X117766666Y-66854819D01*
X117766666Y-66854819D02*
X117861904Y-66902438D01*
X117861904Y-66902438D02*
X117909523Y-66950057D01*
X117909523Y-66950057D02*
X117957142Y-67045295D01*
X117957142Y-67045295D02*
X117957142Y-67188152D01*
X117957142Y-67188152D02*
X117909523Y-67283390D01*
X117909523Y-67283390D02*
X117861904Y-67331009D01*
X117861904Y-67331009D02*
X117766666Y-67378628D01*
X117766666Y-67378628D02*
X117385714Y-67378628D01*
X118909523Y-67854819D02*
X118338095Y-67854819D01*
X118623809Y-67854819D02*
X118623809Y-66854819D01*
X118623809Y-66854819D02*
X118528571Y-66997676D01*
X118528571Y-66997676D02*
X118433333Y-67092914D01*
X118433333Y-67092914D02*
X118338095Y-67140533D01*
X119242857Y-66854819D02*
X119909523Y-66854819D01*
X119909523Y-66854819D02*
X119480952Y-67854819D01*
X154633333Y-75954819D02*
X154300000Y-75478628D01*
X154061905Y-75954819D02*
X154061905Y-74954819D01*
X154061905Y-74954819D02*
X154442857Y-74954819D01*
X154442857Y-74954819D02*
X154538095Y-75002438D01*
X154538095Y-75002438D02*
X154585714Y-75050057D01*
X154585714Y-75050057D02*
X154633333Y-75145295D01*
X154633333Y-75145295D02*
X154633333Y-75288152D01*
X154633333Y-75288152D02*
X154585714Y-75383390D01*
X154585714Y-75383390D02*
X154538095Y-75431009D01*
X154538095Y-75431009D02*
X154442857Y-75478628D01*
X154442857Y-75478628D02*
X154061905Y-75478628D01*
X155490476Y-75288152D02*
X155490476Y-75954819D01*
X155252381Y-74907200D02*
X155014286Y-75621485D01*
X155014286Y-75621485D02*
X155633333Y-75621485D01*
X132857142Y-75459580D02*
X132809523Y-75507200D01*
X132809523Y-75507200D02*
X132666666Y-75554819D01*
X132666666Y-75554819D02*
X132571428Y-75554819D01*
X132571428Y-75554819D02*
X132428571Y-75507200D01*
X132428571Y-75507200D02*
X132333333Y-75411961D01*
X132333333Y-75411961D02*
X132285714Y-75316723D01*
X132285714Y-75316723D02*
X132238095Y-75126247D01*
X132238095Y-75126247D02*
X132238095Y-74983390D01*
X132238095Y-74983390D02*
X132285714Y-74792914D01*
X132285714Y-74792914D02*
X132333333Y-74697676D01*
X132333333Y-74697676D02*
X132428571Y-74602438D01*
X132428571Y-74602438D02*
X132571428Y-74554819D01*
X132571428Y-74554819D02*
X132666666Y-74554819D01*
X132666666Y-74554819D02*
X132809523Y-74602438D01*
X132809523Y-74602438D02*
X132857142Y-74650057D01*
X133809523Y-75554819D02*
X133238095Y-75554819D01*
X133523809Y-75554819D02*
X133523809Y-74554819D01*
X133523809Y-74554819D02*
X133428571Y-74697676D01*
X133428571Y-74697676D02*
X133333333Y-74792914D01*
X133333333Y-74792914D02*
X133238095Y-74840533D01*
X134714285Y-74554819D02*
X134238095Y-74554819D01*
X134238095Y-74554819D02*
X134190476Y-75031009D01*
X134190476Y-75031009D02*
X134238095Y-74983390D01*
X134238095Y-74983390D02*
X134333333Y-74935771D01*
X134333333Y-74935771D02*
X134571428Y-74935771D01*
X134571428Y-74935771D02*
X134666666Y-74983390D01*
X134666666Y-74983390D02*
X134714285Y-75031009D01*
X134714285Y-75031009D02*
X134761904Y-75126247D01*
X134761904Y-75126247D02*
X134761904Y-75364342D01*
X134761904Y-75364342D02*
X134714285Y-75459580D01*
X134714285Y-75459580D02*
X134666666Y-75507200D01*
X134666666Y-75507200D02*
X134571428Y-75554819D01*
X134571428Y-75554819D02*
X134333333Y-75554819D01*
X134333333Y-75554819D02*
X134238095Y-75507200D01*
X134238095Y-75507200D02*
X134190476Y-75459580D01*
X126433333Y-72984819D02*
X126100000Y-72508628D01*
X125861905Y-72984819D02*
X125861905Y-71984819D01*
X125861905Y-71984819D02*
X126242857Y-71984819D01*
X126242857Y-71984819D02*
X126338095Y-72032438D01*
X126338095Y-72032438D02*
X126385714Y-72080057D01*
X126385714Y-72080057D02*
X126433333Y-72175295D01*
X126433333Y-72175295D02*
X126433333Y-72318152D01*
X126433333Y-72318152D02*
X126385714Y-72413390D01*
X126385714Y-72413390D02*
X126338095Y-72461009D01*
X126338095Y-72461009D02*
X126242857Y-72508628D01*
X126242857Y-72508628D02*
X125861905Y-72508628D01*
X127385714Y-72984819D02*
X126814286Y-72984819D01*
X127100000Y-72984819D02*
X127100000Y-71984819D01*
X127100000Y-71984819D02*
X127004762Y-72127676D01*
X127004762Y-72127676D02*
X126909524Y-72222914D01*
X126909524Y-72222914D02*
X126814286Y-72270533D01*
X145533333Y-59679580D02*
X145485714Y-59727200D01*
X145485714Y-59727200D02*
X145342857Y-59774819D01*
X145342857Y-59774819D02*
X145247619Y-59774819D01*
X145247619Y-59774819D02*
X145104762Y-59727200D01*
X145104762Y-59727200D02*
X145009524Y-59631961D01*
X145009524Y-59631961D02*
X144961905Y-59536723D01*
X144961905Y-59536723D02*
X144914286Y-59346247D01*
X144914286Y-59346247D02*
X144914286Y-59203390D01*
X144914286Y-59203390D02*
X144961905Y-59012914D01*
X144961905Y-59012914D02*
X145009524Y-58917676D01*
X145009524Y-58917676D02*
X145104762Y-58822438D01*
X145104762Y-58822438D02*
X145247619Y-58774819D01*
X145247619Y-58774819D02*
X145342857Y-58774819D01*
X145342857Y-58774819D02*
X145485714Y-58822438D01*
X145485714Y-58822438D02*
X145533333Y-58870057D01*
X145914286Y-58870057D02*
X145961905Y-58822438D01*
X145961905Y-58822438D02*
X146057143Y-58774819D01*
X146057143Y-58774819D02*
X146295238Y-58774819D01*
X146295238Y-58774819D02*
X146390476Y-58822438D01*
X146390476Y-58822438D02*
X146438095Y-58870057D01*
X146438095Y-58870057D02*
X146485714Y-58965295D01*
X146485714Y-58965295D02*
X146485714Y-59060533D01*
X146485714Y-59060533D02*
X146438095Y-59203390D01*
X146438095Y-59203390D02*
X145866667Y-59774819D01*
X145866667Y-59774819D02*
X146485714Y-59774819D01*
X129686905Y-84029819D02*
X130258333Y-84029819D01*
X129972619Y-85029819D02*
X129972619Y-84029819D01*
X130591667Y-85029819D02*
X130591667Y-84029819D01*
X130591667Y-84029819D02*
X130972619Y-84029819D01*
X130972619Y-84029819D02*
X131067857Y-84077438D01*
X131067857Y-84077438D02*
X131115476Y-84125057D01*
X131115476Y-84125057D02*
X131163095Y-84220295D01*
X131163095Y-84220295D02*
X131163095Y-84363152D01*
X131163095Y-84363152D02*
X131115476Y-84458390D01*
X131115476Y-84458390D02*
X131067857Y-84506009D01*
X131067857Y-84506009D02*
X130972619Y-84553628D01*
X130972619Y-84553628D02*
X130591667Y-84553628D01*
X132115476Y-85029819D02*
X131544048Y-85029819D01*
X131829762Y-85029819D02*
X131829762Y-84029819D01*
X131829762Y-84029819D02*
X131734524Y-84172676D01*
X131734524Y-84172676D02*
X131639286Y-84267914D01*
X131639286Y-84267914D02*
X131544048Y-84315533D01*
X133067857Y-85029819D02*
X132496429Y-85029819D01*
X132782143Y-85029819D02*
X132782143Y-84029819D01*
X132782143Y-84029819D02*
X132686905Y-84172676D01*
X132686905Y-84172676D02*
X132591667Y-84267914D01*
X132591667Y-84267914D02*
X132496429Y-84315533D01*
X123295833Y-77929580D02*
X123248214Y-77977200D01*
X123248214Y-77977200D02*
X123105357Y-78024819D01*
X123105357Y-78024819D02*
X123010119Y-78024819D01*
X123010119Y-78024819D02*
X122867262Y-77977200D01*
X122867262Y-77977200D02*
X122772024Y-77881961D01*
X122772024Y-77881961D02*
X122724405Y-77786723D01*
X122724405Y-77786723D02*
X122676786Y-77596247D01*
X122676786Y-77596247D02*
X122676786Y-77453390D01*
X122676786Y-77453390D02*
X122724405Y-77262914D01*
X122724405Y-77262914D02*
X122772024Y-77167676D01*
X122772024Y-77167676D02*
X122867262Y-77072438D01*
X122867262Y-77072438D02*
X123010119Y-77024819D01*
X123010119Y-77024819D02*
X123105357Y-77024819D01*
X123105357Y-77024819D02*
X123248214Y-77072438D01*
X123248214Y-77072438D02*
X123295833Y-77120057D01*
X124200595Y-77024819D02*
X123724405Y-77024819D01*
X123724405Y-77024819D02*
X123676786Y-77501009D01*
X123676786Y-77501009D02*
X123724405Y-77453390D01*
X123724405Y-77453390D02*
X123819643Y-77405771D01*
X123819643Y-77405771D02*
X124057738Y-77405771D01*
X124057738Y-77405771D02*
X124152976Y-77453390D01*
X124152976Y-77453390D02*
X124200595Y-77501009D01*
X124200595Y-77501009D02*
X124248214Y-77596247D01*
X124248214Y-77596247D02*
X124248214Y-77834342D01*
X124248214Y-77834342D02*
X124200595Y-77929580D01*
X124200595Y-77929580D02*
X124152976Y-77977200D01*
X124152976Y-77977200D02*
X124057738Y-78024819D01*
X124057738Y-78024819D02*
X123819643Y-78024819D01*
X123819643Y-78024819D02*
X123724405Y-77977200D01*
X123724405Y-77977200D02*
X123676786Y-77929580D01*
X112257142Y-57854819D02*
X111923809Y-57378628D01*
X111685714Y-57854819D02*
X111685714Y-56854819D01*
X111685714Y-56854819D02*
X112066666Y-56854819D01*
X112066666Y-56854819D02*
X112161904Y-56902438D01*
X112161904Y-56902438D02*
X112209523Y-56950057D01*
X112209523Y-56950057D02*
X112257142Y-57045295D01*
X112257142Y-57045295D02*
X112257142Y-57188152D01*
X112257142Y-57188152D02*
X112209523Y-57283390D01*
X112209523Y-57283390D02*
X112161904Y-57331009D01*
X112161904Y-57331009D02*
X112066666Y-57378628D01*
X112066666Y-57378628D02*
X111685714Y-57378628D01*
X113209523Y-57854819D02*
X112638095Y-57854819D01*
X112923809Y-57854819D02*
X112923809Y-56854819D01*
X112923809Y-56854819D02*
X112828571Y-56997676D01*
X112828571Y-56997676D02*
X112733333Y-57092914D01*
X112733333Y-57092914D02*
X112638095Y-57140533D01*
X113828571Y-56854819D02*
X113923809Y-56854819D01*
X113923809Y-56854819D02*
X114019047Y-56902438D01*
X114019047Y-56902438D02*
X114066666Y-56950057D01*
X114066666Y-56950057D02*
X114114285Y-57045295D01*
X114114285Y-57045295D02*
X114161904Y-57235771D01*
X114161904Y-57235771D02*
X114161904Y-57473866D01*
X114161904Y-57473866D02*
X114114285Y-57664342D01*
X114114285Y-57664342D02*
X114066666Y-57759580D01*
X114066666Y-57759580D02*
X114019047Y-57807200D01*
X114019047Y-57807200D02*
X113923809Y-57854819D01*
X113923809Y-57854819D02*
X113828571Y-57854819D01*
X113828571Y-57854819D02*
X113733333Y-57807200D01*
X113733333Y-57807200D02*
X113685714Y-57759580D01*
X113685714Y-57759580D02*
X113638095Y-57664342D01*
X113638095Y-57664342D02*
X113590476Y-57473866D01*
X113590476Y-57473866D02*
X113590476Y-57235771D01*
X113590476Y-57235771D02*
X113638095Y-57045295D01*
X113638095Y-57045295D02*
X113685714Y-56950057D01*
X113685714Y-56950057D02*
X113733333Y-56902438D01*
X113733333Y-56902438D02*
X113828571Y-56854819D01*
X132957142Y-78359580D02*
X132909523Y-78407200D01*
X132909523Y-78407200D02*
X132766666Y-78454819D01*
X132766666Y-78454819D02*
X132671428Y-78454819D01*
X132671428Y-78454819D02*
X132528571Y-78407200D01*
X132528571Y-78407200D02*
X132433333Y-78311961D01*
X132433333Y-78311961D02*
X132385714Y-78216723D01*
X132385714Y-78216723D02*
X132338095Y-78026247D01*
X132338095Y-78026247D02*
X132338095Y-77883390D01*
X132338095Y-77883390D02*
X132385714Y-77692914D01*
X132385714Y-77692914D02*
X132433333Y-77597676D01*
X132433333Y-77597676D02*
X132528571Y-77502438D01*
X132528571Y-77502438D02*
X132671428Y-77454819D01*
X132671428Y-77454819D02*
X132766666Y-77454819D01*
X132766666Y-77454819D02*
X132909523Y-77502438D01*
X132909523Y-77502438D02*
X132957142Y-77550057D01*
X133909523Y-78454819D02*
X133338095Y-78454819D01*
X133623809Y-78454819D02*
X133623809Y-77454819D01*
X133623809Y-77454819D02*
X133528571Y-77597676D01*
X133528571Y-77597676D02*
X133433333Y-77692914D01*
X133433333Y-77692914D02*
X133338095Y-77740533D01*
X134480952Y-77883390D02*
X134385714Y-77835771D01*
X134385714Y-77835771D02*
X134338095Y-77788152D01*
X134338095Y-77788152D02*
X134290476Y-77692914D01*
X134290476Y-77692914D02*
X134290476Y-77645295D01*
X134290476Y-77645295D02*
X134338095Y-77550057D01*
X134338095Y-77550057D02*
X134385714Y-77502438D01*
X134385714Y-77502438D02*
X134480952Y-77454819D01*
X134480952Y-77454819D02*
X134671428Y-77454819D01*
X134671428Y-77454819D02*
X134766666Y-77502438D01*
X134766666Y-77502438D02*
X134814285Y-77550057D01*
X134814285Y-77550057D02*
X134861904Y-77645295D01*
X134861904Y-77645295D02*
X134861904Y-77692914D01*
X134861904Y-77692914D02*
X134814285Y-77788152D01*
X134814285Y-77788152D02*
X134766666Y-77835771D01*
X134766666Y-77835771D02*
X134671428Y-77883390D01*
X134671428Y-77883390D02*
X134480952Y-77883390D01*
X134480952Y-77883390D02*
X134385714Y-77931009D01*
X134385714Y-77931009D02*
X134338095Y-77978628D01*
X134338095Y-77978628D02*
X134290476Y-78073866D01*
X134290476Y-78073866D02*
X134290476Y-78264342D01*
X134290476Y-78264342D02*
X134338095Y-78359580D01*
X134338095Y-78359580D02*
X134385714Y-78407200D01*
X134385714Y-78407200D02*
X134480952Y-78454819D01*
X134480952Y-78454819D02*
X134671428Y-78454819D01*
X134671428Y-78454819D02*
X134766666Y-78407200D01*
X134766666Y-78407200D02*
X134814285Y-78359580D01*
X134814285Y-78359580D02*
X134861904Y-78264342D01*
X134861904Y-78264342D02*
X134861904Y-78073866D01*
X134861904Y-78073866D02*
X134814285Y-77978628D01*
X134814285Y-77978628D02*
X134766666Y-77931009D01*
X134766666Y-77931009D02*
X134671428Y-77883390D01*
D11*
X116176667Y-90704318D02*
X116176667Y-91611461D01*
X116176667Y-91611461D02*
X116116190Y-91792889D01*
X116116190Y-91792889D02*
X115995238Y-91913842D01*
X115995238Y-91913842D02*
X115813809Y-91974318D01*
X115813809Y-91974318D02*
X115692857Y-91974318D01*
X116720952Y-90825270D02*
X116781428Y-90764794D01*
X116781428Y-90764794D02*
X116902381Y-90704318D01*
X116902381Y-90704318D02*
X117204762Y-90704318D01*
X117204762Y-90704318D02*
X117325714Y-90764794D01*
X117325714Y-90764794D02*
X117386190Y-90825270D01*
X117386190Y-90825270D02*
X117446667Y-90946222D01*
X117446667Y-90946222D02*
X117446667Y-91067175D01*
X117446667Y-91067175D02*
X117386190Y-91248603D01*
X117386190Y-91248603D02*
X116660476Y-91974318D01*
X116660476Y-91974318D02*
X117446667Y-91974318D01*
D10*
X143333333Y-71959580D02*
X143285714Y-72007200D01*
X143285714Y-72007200D02*
X143142857Y-72054819D01*
X143142857Y-72054819D02*
X143047619Y-72054819D01*
X143047619Y-72054819D02*
X142904762Y-72007200D01*
X142904762Y-72007200D02*
X142809524Y-71911961D01*
X142809524Y-71911961D02*
X142761905Y-71816723D01*
X142761905Y-71816723D02*
X142714286Y-71626247D01*
X142714286Y-71626247D02*
X142714286Y-71483390D01*
X142714286Y-71483390D02*
X142761905Y-71292914D01*
X142761905Y-71292914D02*
X142809524Y-71197676D01*
X142809524Y-71197676D02*
X142904762Y-71102438D01*
X142904762Y-71102438D02*
X143047619Y-71054819D01*
X143047619Y-71054819D02*
X143142857Y-71054819D01*
X143142857Y-71054819D02*
X143285714Y-71102438D01*
X143285714Y-71102438D02*
X143333333Y-71150057D01*
X143666667Y-71054819D02*
X144333333Y-71054819D01*
X144333333Y-71054819D02*
X143904762Y-72054819D01*
X132338095Y-69354819D02*
X132338095Y-70164342D01*
X132338095Y-70164342D02*
X132385714Y-70259580D01*
X132385714Y-70259580D02*
X132433333Y-70307200D01*
X132433333Y-70307200D02*
X132528571Y-70354819D01*
X132528571Y-70354819D02*
X132719047Y-70354819D01*
X132719047Y-70354819D02*
X132814285Y-70307200D01*
X132814285Y-70307200D02*
X132861904Y-70259580D01*
X132861904Y-70259580D02*
X132909523Y-70164342D01*
X132909523Y-70164342D02*
X132909523Y-69354819D01*
X133338095Y-69450057D02*
X133385714Y-69402438D01*
X133385714Y-69402438D02*
X133480952Y-69354819D01*
X133480952Y-69354819D02*
X133719047Y-69354819D01*
X133719047Y-69354819D02*
X133814285Y-69402438D01*
X133814285Y-69402438D02*
X133861904Y-69450057D01*
X133861904Y-69450057D02*
X133909523Y-69545295D01*
X133909523Y-69545295D02*
X133909523Y-69640533D01*
X133909523Y-69640533D02*
X133861904Y-69783390D01*
X133861904Y-69783390D02*
X133290476Y-70354819D01*
X133290476Y-70354819D02*
X133909523Y-70354819D01*
X132838095Y-85754819D02*
X133409523Y-85754819D01*
X133123809Y-86754819D02*
X133123809Y-85754819D01*
X133742857Y-86754819D02*
X133742857Y-85754819D01*
X133742857Y-85754819D02*
X134123809Y-85754819D01*
X134123809Y-85754819D02*
X134219047Y-85802438D01*
X134219047Y-85802438D02*
X134266666Y-85850057D01*
X134266666Y-85850057D02*
X134314285Y-85945295D01*
X134314285Y-85945295D02*
X134314285Y-86088152D01*
X134314285Y-86088152D02*
X134266666Y-86183390D01*
X134266666Y-86183390D02*
X134219047Y-86231009D01*
X134219047Y-86231009D02*
X134123809Y-86278628D01*
X134123809Y-86278628D02*
X133742857Y-86278628D01*
X134695238Y-85850057D02*
X134742857Y-85802438D01*
X134742857Y-85802438D02*
X134838095Y-85754819D01*
X134838095Y-85754819D02*
X135076190Y-85754819D01*
X135076190Y-85754819D02*
X135171428Y-85802438D01*
X135171428Y-85802438D02*
X135219047Y-85850057D01*
X135219047Y-85850057D02*
X135266666Y-85945295D01*
X135266666Y-85945295D02*
X135266666Y-86040533D01*
X135266666Y-86040533D02*
X135219047Y-86183390D01*
X135219047Y-86183390D02*
X134647619Y-86754819D01*
X134647619Y-86754819D02*
X135266666Y-86754819D01*
X152238095Y-74954819D02*
X152238095Y-75764342D01*
X152238095Y-75764342D02*
X152285714Y-75859580D01*
X152285714Y-75859580D02*
X152333333Y-75907200D01*
X152333333Y-75907200D02*
X152428571Y-75954819D01*
X152428571Y-75954819D02*
X152619047Y-75954819D01*
X152619047Y-75954819D02*
X152714285Y-75907200D01*
X152714285Y-75907200D02*
X152761904Y-75859580D01*
X152761904Y-75859580D02*
X152809523Y-75764342D01*
X152809523Y-75764342D02*
X152809523Y-74954819D01*
X153190476Y-74954819D02*
X153809523Y-74954819D01*
X153809523Y-74954819D02*
X153476190Y-75335771D01*
X153476190Y-75335771D02*
X153619047Y-75335771D01*
X153619047Y-75335771D02*
X153714285Y-75383390D01*
X153714285Y-75383390D02*
X153761904Y-75431009D01*
X153761904Y-75431009D02*
X153809523Y-75526247D01*
X153809523Y-75526247D02*
X153809523Y-75764342D01*
X153809523Y-75764342D02*
X153761904Y-75859580D01*
X153761904Y-75859580D02*
X153714285Y-75907200D01*
X153714285Y-75907200D02*
X153619047Y-75954819D01*
X153619047Y-75954819D02*
X153333333Y-75954819D01*
X153333333Y-75954819D02*
X153238095Y-75907200D01*
X153238095Y-75907200D02*
X153190476Y-75859580D01*
X150380952Y-83154819D02*
X150380952Y-82154819D01*
X150380952Y-82154819D02*
X150761904Y-82154819D01*
X150761904Y-82154819D02*
X150857142Y-82202438D01*
X150857142Y-82202438D02*
X150904761Y-82250057D01*
X150904761Y-82250057D02*
X150952380Y-82345295D01*
X150952380Y-82345295D02*
X150952380Y-82488152D01*
X150952380Y-82488152D02*
X150904761Y-82583390D01*
X150904761Y-82583390D02*
X150857142Y-82631009D01*
X150857142Y-82631009D02*
X150761904Y-82678628D01*
X150761904Y-82678628D02*
X150380952Y-82678628D01*
X151952380Y-83059580D02*
X151904761Y-83107200D01*
X151904761Y-83107200D02*
X151761904Y-83154819D01*
X151761904Y-83154819D02*
X151666666Y-83154819D01*
X151666666Y-83154819D02*
X151523809Y-83107200D01*
X151523809Y-83107200D02*
X151428571Y-83011961D01*
X151428571Y-83011961D02*
X151380952Y-82916723D01*
X151380952Y-82916723D02*
X151333333Y-82726247D01*
X151333333Y-82726247D02*
X151333333Y-82583390D01*
X151333333Y-82583390D02*
X151380952Y-82392914D01*
X151380952Y-82392914D02*
X151428571Y-82297676D01*
X151428571Y-82297676D02*
X151523809Y-82202438D01*
X151523809Y-82202438D02*
X151666666Y-82154819D01*
X151666666Y-82154819D02*
X151761904Y-82154819D01*
X151761904Y-82154819D02*
X151904761Y-82202438D01*
X151904761Y-82202438D02*
X151952380Y-82250057D01*
X152380952Y-83154819D02*
X152380952Y-82154819D01*
X152380952Y-82154819D02*
X152714285Y-82869104D01*
X152714285Y-82869104D02*
X153047618Y-82154819D01*
X153047618Y-82154819D02*
X153047618Y-83154819D01*
X154047618Y-83154819D02*
X153476190Y-83154819D01*
X153761904Y-83154819D02*
X153761904Y-82154819D01*
X153761904Y-82154819D02*
X153666666Y-82297676D01*
X153666666Y-82297676D02*
X153571428Y-82392914D01*
X153571428Y-82392914D02*
X153476190Y-82440533D01*
X154619047Y-82583390D02*
X154523809Y-82535771D01*
X154523809Y-82535771D02*
X154476190Y-82488152D01*
X154476190Y-82488152D02*
X154428571Y-82392914D01*
X154428571Y-82392914D02*
X154428571Y-82345295D01*
X154428571Y-82345295D02*
X154476190Y-82250057D01*
X154476190Y-82250057D02*
X154523809Y-82202438D01*
X154523809Y-82202438D02*
X154619047Y-82154819D01*
X154619047Y-82154819D02*
X154809523Y-82154819D01*
X154809523Y-82154819D02*
X154904761Y-82202438D01*
X154904761Y-82202438D02*
X154952380Y-82250057D01*
X154952380Y-82250057D02*
X154999999Y-82345295D01*
X154999999Y-82345295D02*
X154999999Y-82392914D01*
X154999999Y-82392914D02*
X154952380Y-82488152D01*
X154952380Y-82488152D02*
X154904761Y-82535771D01*
X154904761Y-82535771D02*
X154809523Y-82583390D01*
X154809523Y-82583390D02*
X154619047Y-82583390D01*
X154619047Y-82583390D02*
X154523809Y-82631009D01*
X154523809Y-82631009D02*
X154476190Y-82678628D01*
X154476190Y-82678628D02*
X154428571Y-82773866D01*
X154428571Y-82773866D02*
X154428571Y-82964342D01*
X154428571Y-82964342D02*
X154476190Y-83059580D01*
X154476190Y-83059580D02*
X154523809Y-83107200D01*
X154523809Y-83107200D02*
X154619047Y-83154819D01*
X154619047Y-83154819D02*
X154809523Y-83154819D01*
X154809523Y-83154819D02*
X154904761Y-83107200D01*
X154904761Y-83107200D02*
X154952380Y-83059580D01*
X154952380Y-83059580D02*
X154999999Y-82964342D01*
X154999999Y-82964342D02*
X154999999Y-82773866D01*
X154999999Y-82773866D02*
X154952380Y-82678628D01*
X154952380Y-82678628D02*
X154904761Y-82631009D01*
X154904761Y-82631009D02*
X154809523Y-82583390D01*
X155857142Y-82154819D02*
X155666666Y-82154819D01*
X155666666Y-82154819D02*
X155571428Y-82202438D01*
X155571428Y-82202438D02*
X155523809Y-82250057D01*
X155523809Y-82250057D02*
X155428571Y-82392914D01*
X155428571Y-82392914D02*
X155380952Y-82583390D01*
X155380952Y-82583390D02*
X155380952Y-82964342D01*
X155380952Y-82964342D02*
X155428571Y-83059580D01*
X155428571Y-83059580D02*
X155476190Y-83107200D01*
X155476190Y-83107200D02*
X155571428Y-83154819D01*
X155571428Y-83154819D02*
X155761904Y-83154819D01*
X155761904Y-83154819D02*
X155857142Y-83107200D01*
X155857142Y-83107200D02*
X155904761Y-83059580D01*
X155904761Y-83059580D02*
X155952380Y-82964342D01*
X155952380Y-82964342D02*
X155952380Y-82726247D01*
X155952380Y-82726247D02*
X155904761Y-82631009D01*
X155904761Y-82631009D02*
X155857142Y-82583390D01*
X155857142Y-82583390D02*
X155761904Y-82535771D01*
X155761904Y-82535771D02*
X155571428Y-82535771D01*
X155571428Y-82535771D02*
X155476190Y-82583390D01*
X155476190Y-82583390D02*
X155428571Y-82631009D01*
X155428571Y-82631009D02*
X155380952Y-82726247D01*
X156333333Y-82250057D02*
X156380952Y-82202438D01*
X156380952Y-82202438D02*
X156476190Y-82154819D01*
X156476190Y-82154819D02*
X156714285Y-82154819D01*
X156714285Y-82154819D02*
X156809523Y-82202438D01*
X156809523Y-82202438D02*
X156857142Y-82250057D01*
X156857142Y-82250057D02*
X156904761Y-82345295D01*
X156904761Y-82345295D02*
X156904761Y-82440533D01*
X156904761Y-82440533D02*
X156857142Y-82583390D01*
X156857142Y-82583390D02*
X156285714Y-83154819D01*
X156285714Y-83154819D02*
X156904761Y-83154819D01*
X157333333Y-83154819D02*
X157333333Y-82154819D01*
X157333333Y-82154819D02*
X157571428Y-82154819D01*
X157571428Y-82154819D02*
X157714285Y-82202438D01*
X157714285Y-82202438D02*
X157809523Y-82297676D01*
X157809523Y-82297676D02*
X157857142Y-82392914D01*
X157857142Y-82392914D02*
X157904761Y-82583390D01*
X157904761Y-82583390D02*
X157904761Y-82726247D01*
X157904761Y-82726247D02*
X157857142Y-82916723D01*
X157857142Y-82916723D02*
X157809523Y-83011961D01*
X157809523Y-83011961D02*
X157714285Y-83107200D01*
X157714285Y-83107200D02*
X157571428Y-83154819D01*
X157571428Y-83154819D02*
X157333333Y-83154819D01*
X158666666Y-82631009D02*
X158809523Y-82678628D01*
X158809523Y-82678628D02*
X158857142Y-82726247D01*
X158857142Y-82726247D02*
X158904761Y-82821485D01*
X158904761Y-82821485D02*
X158904761Y-82964342D01*
X158904761Y-82964342D02*
X158857142Y-83059580D01*
X158857142Y-83059580D02*
X158809523Y-83107200D01*
X158809523Y-83107200D02*
X158714285Y-83154819D01*
X158714285Y-83154819D02*
X158333333Y-83154819D01*
X158333333Y-83154819D02*
X158333333Y-82154819D01*
X158333333Y-82154819D02*
X158666666Y-82154819D01*
X158666666Y-82154819D02*
X158761904Y-82202438D01*
X158761904Y-82202438D02*
X158809523Y-82250057D01*
X158809523Y-82250057D02*
X158857142Y-82345295D01*
X158857142Y-82345295D02*
X158857142Y-82440533D01*
X158857142Y-82440533D02*
X158809523Y-82535771D01*
X158809523Y-82535771D02*
X158761904Y-82583390D01*
X158761904Y-82583390D02*
X158666666Y-82631009D01*
X158666666Y-82631009D02*
X158333333Y-82631009D01*
X159190476Y-82154819D02*
X159761904Y-82154819D01*
X159476190Y-83154819D02*
X159476190Y-82154819D01*
X141057142Y-80054819D02*
X140723809Y-79578628D01*
X140485714Y-80054819D02*
X140485714Y-79054819D01*
X140485714Y-79054819D02*
X140866666Y-79054819D01*
X140866666Y-79054819D02*
X140961904Y-79102438D01*
X140961904Y-79102438D02*
X141009523Y-79150057D01*
X141009523Y-79150057D02*
X141057142Y-79245295D01*
X141057142Y-79245295D02*
X141057142Y-79388152D01*
X141057142Y-79388152D02*
X141009523Y-79483390D01*
X141009523Y-79483390D02*
X140961904Y-79531009D01*
X140961904Y-79531009D02*
X140866666Y-79578628D01*
X140866666Y-79578628D02*
X140485714Y-79578628D01*
X142009523Y-80054819D02*
X141438095Y-80054819D01*
X141723809Y-80054819D02*
X141723809Y-79054819D01*
X141723809Y-79054819D02*
X141628571Y-79197676D01*
X141628571Y-79197676D02*
X141533333Y-79292914D01*
X141533333Y-79292914D02*
X141438095Y-79340533D01*
X142866666Y-79388152D02*
X142866666Y-80054819D01*
X142628571Y-79007200D02*
X142390476Y-79721485D01*
X142390476Y-79721485D02*
X143009523Y-79721485D01*
X140761905Y-80354819D02*
X141333333Y-80354819D01*
X141047619Y-81354819D02*
X141047619Y-80354819D01*
X141666667Y-81354819D02*
X141666667Y-80354819D01*
X141666667Y-80354819D02*
X142047619Y-80354819D01*
X142047619Y-80354819D02*
X142142857Y-80402438D01*
X142142857Y-80402438D02*
X142190476Y-80450057D01*
X142190476Y-80450057D02*
X142238095Y-80545295D01*
X142238095Y-80545295D02*
X142238095Y-80688152D01*
X142238095Y-80688152D02*
X142190476Y-80783390D01*
X142190476Y-80783390D02*
X142142857Y-80831009D01*
X142142857Y-80831009D02*
X142047619Y-80878628D01*
X142047619Y-80878628D02*
X141666667Y-80878628D01*
X143190476Y-81354819D02*
X142619048Y-81354819D01*
X142904762Y-81354819D02*
X142904762Y-80354819D01*
X142904762Y-80354819D02*
X142809524Y-80497676D01*
X142809524Y-80497676D02*
X142714286Y-80592914D01*
X142714286Y-80592914D02*
X142619048Y-80640533D01*
X143809524Y-80354819D02*
X143904762Y-80354819D01*
X143904762Y-80354819D02*
X144000000Y-80402438D01*
X144000000Y-80402438D02*
X144047619Y-80450057D01*
X144047619Y-80450057D02*
X144095238Y-80545295D01*
X144095238Y-80545295D02*
X144142857Y-80735771D01*
X144142857Y-80735771D02*
X144142857Y-80973866D01*
X144142857Y-80973866D02*
X144095238Y-81164342D01*
X144095238Y-81164342D02*
X144047619Y-81259580D01*
X144047619Y-81259580D02*
X144000000Y-81307200D01*
X144000000Y-81307200D02*
X143904762Y-81354819D01*
X143904762Y-81354819D02*
X143809524Y-81354819D01*
X143809524Y-81354819D02*
X143714286Y-81307200D01*
X143714286Y-81307200D02*
X143666667Y-81259580D01*
X143666667Y-81259580D02*
X143619048Y-81164342D01*
X143619048Y-81164342D02*
X143571429Y-80973866D01*
X143571429Y-80973866D02*
X143571429Y-80735771D01*
X143571429Y-80735771D02*
X143619048Y-80545295D01*
X143619048Y-80545295D02*
X143666667Y-80450057D01*
X143666667Y-80450057D02*
X143714286Y-80402438D01*
X143714286Y-80402438D02*
X143809524Y-80354819D01*
X114761905Y-78756819D02*
X115333333Y-78756819D01*
X115047619Y-79756819D02*
X115047619Y-78756819D01*
X115666667Y-79756819D02*
X115666667Y-78756819D01*
X115666667Y-78756819D02*
X116047619Y-78756819D01*
X116047619Y-78756819D02*
X116142857Y-78804438D01*
X116142857Y-78804438D02*
X116190476Y-78852057D01*
X116190476Y-78852057D02*
X116238095Y-78947295D01*
X116238095Y-78947295D02*
X116238095Y-79090152D01*
X116238095Y-79090152D02*
X116190476Y-79185390D01*
X116190476Y-79185390D02*
X116142857Y-79233009D01*
X116142857Y-79233009D02*
X116047619Y-79280628D01*
X116047619Y-79280628D02*
X115666667Y-79280628D01*
X117190476Y-79756819D02*
X116619048Y-79756819D01*
X116904762Y-79756819D02*
X116904762Y-78756819D01*
X116904762Y-78756819D02*
X116809524Y-78899676D01*
X116809524Y-78899676D02*
X116714286Y-78994914D01*
X116714286Y-78994914D02*
X116619048Y-79042533D01*
X118095238Y-78756819D02*
X117619048Y-78756819D01*
X117619048Y-78756819D02*
X117571429Y-79233009D01*
X117571429Y-79233009D02*
X117619048Y-79185390D01*
X117619048Y-79185390D02*
X117714286Y-79137771D01*
X117714286Y-79137771D02*
X117952381Y-79137771D01*
X117952381Y-79137771D02*
X118047619Y-79185390D01*
X118047619Y-79185390D02*
X118095238Y-79233009D01*
X118095238Y-79233009D02*
X118142857Y-79328247D01*
X118142857Y-79328247D02*
X118142857Y-79566342D01*
X118142857Y-79566342D02*
X118095238Y-79661580D01*
X118095238Y-79661580D02*
X118047619Y-79709200D01*
X118047619Y-79709200D02*
X117952381Y-79756819D01*
X117952381Y-79756819D02*
X117714286Y-79756819D01*
X117714286Y-79756819D02*
X117619048Y-79709200D01*
X117619048Y-79709200D02*
X117571429Y-79661580D01*
X140733333Y-70659580D02*
X140685714Y-70707200D01*
X140685714Y-70707200D02*
X140542857Y-70754819D01*
X140542857Y-70754819D02*
X140447619Y-70754819D01*
X140447619Y-70754819D02*
X140304762Y-70707200D01*
X140304762Y-70707200D02*
X140209524Y-70611961D01*
X140209524Y-70611961D02*
X140161905Y-70516723D01*
X140161905Y-70516723D02*
X140114286Y-70326247D01*
X140114286Y-70326247D02*
X140114286Y-70183390D01*
X140114286Y-70183390D02*
X140161905Y-69992914D01*
X140161905Y-69992914D02*
X140209524Y-69897676D01*
X140209524Y-69897676D02*
X140304762Y-69802438D01*
X140304762Y-69802438D02*
X140447619Y-69754819D01*
X140447619Y-69754819D02*
X140542857Y-69754819D01*
X140542857Y-69754819D02*
X140685714Y-69802438D01*
X140685714Y-69802438D02*
X140733333Y-69850057D01*
X141304762Y-70183390D02*
X141209524Y-70135771D01*
X141209524Y-70135771D02*
X141161905Y-70088152D01*
X141161905Y-70088152D02*
X141114286Y-69992914D01*
X141114286Y-69992914D02*
X141114286Y-69945295D01*
X141114286Y-69945295D02*
X141161905Y-69850057D01*
X141161905Y-69850057D02*
X141209524Y-69802438D01*
X141209524Y-69802438D02*
X141304762Y-69754819D01*
X141304762Y-69754819D02*
X141495238Y-69754819D01*
X141495238Y-69754819D02*
X141590476Y-69802438D01*
X141590476Y-69802438D02*
X141638095Y-69850057D01*
X141638095Y-69850057D02*
X141685714Y-69945295D01*
X141685714Y-69945295D02*
X141685714Y-69992914D01*
X141685714Y-69992914D02*
X141638095Y-70088152D01*
X141638095Y-70088152D02*
X141590476Y-70135771D01*
X141590476Y-70135771D02*
X141495238Y-70183390D01*
X141495238Y-70183390D02*
X141304762Y-70183390D01*
X141304762Y-70183390D02*
X141209524Y-70231009D01*
X141209524Y-70231009D02*
X141161905Y-70278628D01*
X141161905Y-70278628D02*
X141114286Y-70373866D01*
X141114286Y-70373866D02*
X141114286Y-70564342D01*
X141114286Y-70564342D02*
X141161905Y-70659580D01*
X141161905Y-70659580D02*
X141209524Y-70707200D01*
X141209524Y-70707200D02*
X141304762Y-70754819D01*
X141304762Y-70754819D02*
X141495238Y-70754819D01*
X141495238Y-70754819D02*
X141590476Y-70707200D01*
X141590476Y-70707200D02*
X141638095Y-70659580D01*
X141638095Y-70659580D02*
X141685714Y-70564342D01*
X141685714Y-70564342D02*
X141685714Y-70373866D01*
X141685714Y-70373866D02*
X141638095Y-70278628D01*
X141638095Y-70278628D02*
X141590476Y-70231009D01*
X141590476Y-70231009D02*
X141495238Y-70183390D01*
X112500000Y-69204819D02*
X112500000Y-69442914D01*
X112261905Y-69347676D02*
X112500000Y-69442914D01*
X112500000Y-69442914D02*
X112738095Y-69347676D01*
X112357143Y-69633390D02*
X112500000Y-69442914D01*
X112500000Y-69442914D02*
X112642857Y-69633390D01*
X109000000Y-67204819D02*
X109000000Y-67442914D01*
X108761905Y-67347676D02*
X109000000Y-67442914D01*
X109000000Y-67442914D02*
X109238095Y-67347676D01*
X108857143Y-67633390D02*
X109000000Y-67442914D01*
X109000000Y-67442914D02*
X109142857Y-67633390D01*
X106066666Y-51454819D02*
X106066666Y-52169104D01*
X106066666Y-52169104D02*
X106019047Y-52311961D01*
X106019047Y-52311961D02*
X105923809Y-52407200D01*
X105923809Y-52407200D02*
X105780952Y-52454819D01*
X105780952Y-52454819D02*
X105685714Y-52454819D01*
X107066666Y-52454819D02*
X106495238Y-52454819D01*
X106780952Y-52454819D02*
X106780952Y-51454819D01*
X106780952Y-51454819D02*
X106685714Y-51597676D01*
X106685714Y-51597676D02*
X106590476Y-51692914D01*
X106590476Y-51692914D02*
X106495238Y-51740533D01*
X149012142Y-60354819D02*
X148678809Y-59878628D01*
X148440714Y-60354819D02*
X148440714Y-59354819D01*
X148440714Y-59354819D02*
X148821666Y-59354819D01*
X148821666Y-59354819D02*
X148916904Y-59402438D01*
X148916904Y-59402438D02*
X148964523Y-59450057D01*
X148964523Y-59450057D02*
X149012142Y-59545295D01*
X149012142Y-59545295D02*
X149012142Y-59688152D01*
X149012142Y-59688152D02*
X148964523Y-59783390D01*
X148964523Y-59783390D02*
X148916904Y-59831009D01*
X148916904Y-59831009D02*
X148821666Y-59878628D01*
X148821666Y-59878628D02*
X148440714Y-59878628D01*
X149964523Y-60354819D02*
X149393095Y-60354819D01*
X149678809Y-60354819D02*
X149678809Y-59354819D01*
X149678809Y-59354819D02*
X149583571Y-59497676D01*
X149583571Y-59497676D02*
X149488333Y-59592914D01*
X149488333Y-59592914D02*
X149393095Y-59640533D01*
X150440714Y-60354819D02*
X150631190Y-60354819D01*
X150631190Y-60354819D02*
X150726428Y-60307200D01*
X150726428Y-60307200D02*
X150774047Y-60259580D01*
X150774047Y-60259580D02*
X150869285Y-60116723D01*
X150869285Y-60116723D02*
X150916904Y-59926247D01*
X150916904Y-59926247D02*
X150916904Y-59545295D01*
X150916904Y-59545295D02*
X150869285Y-59450057D01*
X150869285Y-59450057D02*
X150821666Y-59402438D01*
X150821666Y-59402438D02*
X150726428Y-59354819D01*
X150726428Y-59354819D02*
X150535952Y-59354819D01*
X150535952Y-59354819D02*
X150440714Y-59402438D01*
X150440714Y-59402438D02*
X150393095Y-59450057D01*
X150393095Y-59450057D02*
X150345476Y-59545295D01*
X150345476Y-59545295D02*
X150345476Y-59783390D01*
X150345476Y-59783390D02*
X150393095Y-59878628D01*
X150393095Y-59878628D02*
X150440714Y-59926247D01*
X150440714Y-59926247D02*
X150535952Y-59973866D01*
X150535952Y-59973866D02*
X150726428Y-59973866D01*
X150726428Y-59973866D02*
X150821666Y-59926247D01*
X150821666Y-59926247D02*
X150869285Y-59878628D01*
X150869285Y-59878628D02*
X150916904Y-59783390D01*
D12*
X149501359Y-56130000D02*
X149808641Y-56130000D01*
X149501359Y-56890000D02*
X149808641Y-56890000D01*
X141950000Y-64750000D02*
G75*
G02*
X140550000Y-64750000I-700000J0D01*
G01*
X140550000Y-64750000D02*
G75*
G02*
X141950000Y-64750000I700000J0D01*
G01*
X123451248Y-74005000D02*
X123973752Y-74005000D01*
X123451248Y-75475000D02*
X123973752Y-75475000D01*
X154396360Y-70820000D02*
X154703642Y-70820000D01*
X154396360Y-71580000D02*
X154703642Y-71580000D01*
X145885242Y-64064624D02*
X145064758Y-64064624D01*
X145885242Y-65184624D02*
X145064758Y-65184624D01*
X115765000Y-54823752D02*
X115765000Y-54301248D01*
X117235000Y-54823752D02*
X117235000Y-54301248D01*
X143507836Y-74850000D02*
X143292164Y-74850000D01*
X143507836Y-75570000D02*
X143292164Y-75570000D01*
X145238748Y-66165000D02*
X145761252Y-66165000D01*
X145238748Y-67635000D02*
X145761252Y-67635000D01*
X115346359Y-64320000D02*
X115653641Y-64320000D01*
X115346359Y-65080000D02*
X115653641Y-65080000D01*
X139600000Y-79500000D02*
G75*
G02*
X138200000Y-79500000I-700000J0D01*
G01*
X138200000Y-79500000D02*
G75*
G02*
X139600000Y-79500000I700000J0D01*
G01*
X149927836Y-66040000D02*
X149712164Y-66040000D01*
X149927836Y-66760000D02*
X149712164Y-66760000D01*
D13*
X114475000Y-65800000D02*
G75*
G02*
X114375000Y-65800000I-50000J0D01*
G01*
X114375000Y-65800000D02*
G75*
G02*
X114475000Y-65800000I50000J0D01*
G01*
D12*
X125227064Y-51465000D02*
X124772936Y-51465000D01*
X125227064Y-52935000D02*
X124772936Y-52935000D01*
D14*
X145700000Y-87300000D02*
X145700000Y-95300000D01*
X145700000Y-87300000D02*
X148700000Y-87300000D01*
X146550000Y-106410000D02*
X146550000Y-97550000D01*
X147700000Y-97300000D02*
X153700000Y-97300000D01*
X148700000Y-87300000D02*
X148700000Y-87700000D01*
X148700000Y-87700000D02*
X149700000Y-87700000D01*
X151700000Y-87700000D02*
X152700000Y-87700000D01*
X152700000Y-87300000D02*
X155700000Y-87300000D01*
X152700000Y-87700000D02*
X152700000Y-87300000D01*
X154240000Y-106800000D02*
X146940000Y-106800000D01*
X154850000Y-97550000D02*
X154850000Y-106190000D01*
X155700000Y-87300000D02*
X155700000Y-95300000D01*
X146940000Y-106800000D02*
G75*
G02*
X146550000Y-106410000I0J390000D01*
G01*
X154850000Y-106190000D02*
G75*
G02*
X154240000Y-106800000I-610000J0D01*
G01*
D15*
X145287000Y-93310000D02*
G75*
G02*
X145087000Y-93310000I-100000J0D01*
G01*
X145087000Y-93310000D02*
G75*
G02*
X145287000Y-93310000I100000J0D01*
G01*
D12*
X121000000Y-54500000D02*
X126000000Y-54500000D01*
X126000000Y-59900000D02*
X121000000Y-59900000D01*
X120500000Y-54700000D02*
X120260000Y-54370000D01*
X120740000Y-54370000D01*
X120500000Y-54700000D01*
G36*
X120500000Y-54700000D02*
G01*
X120260000Y-54370000D01*
X120740000Y-54370000D01*
X120500000Y-54700000D01*
G37*
X141512164Y-68140000D02*
X141727836Y-68140000D01*
X141512164Y-68860000D02*
X141727836Y-68860000D01*
D14*
X133562000Y-87300000D02*
X133562000Y-95300000D01*
X133562000Y-87300000D02*
X136562000Y-87300000D01*
X134412000Y-106410000D02*
X134412000Y-97550000D01*
X135562000Y-97300000D02*
X141562000Y-97300000D01*
X136562000Y-87300000D02*
X136562000Y-87700000D01*
X136562000Y-87700000D02*
X137562000Y-87700000D01*
X139562000Y-87700000D02*
X140562000Y-87700000D01*
X140562000Y-87300000D02*
X143562000Y-87300000D01*
X140562000Y-87700000D02*
X140562000Y-87300000D01*
X142102000Y-106800000D02*
X134802000Y-106800000D01*
X142712000Y-97550000D02*
X142712000Y-106190000D01*
X143562000Y-87300000D02*
X143562000Y-95300000D01*
X134802000Y-106800000D02*
G75*
G02*
X134412000Y-106410000I0J390000D01*
G01*
X142712000Y-106190000D02*
G75*
G02*
X142102000Y-106800000I-610000J0D01*
G01*
D15*
X133149000Y-93310000D02*
G75*
G02*
X132949000Y-93310000I-100000J0D01*
G01*
X132949000Y-93310000D02*
G75*
G02*
X133149000Y-93310000I100000J0D01*
G01*
D12*
X129908653Y-57665000D02*
X130431157Y-57665000D01*
X129908653Y-59135000D02*
X130431157Y-59135000D01*
X124200000Y-66750000D02*
G75*
G02*
X122800000Y-66750000I-700000J0D01*
G01*
X122800000Y-66750000D02*
G75*
G02*
X124200000Y-66750000I700000J0D01*
G01*
X141587836Y-72640000D02*
X141372164Y-72640000D01*
X141587836Y-73360000D02*
X141372164Y-73360000D01*
X139246359Y-84870000D02*
X139553641Y-84870000D01*
X139246359Y-85630000D02*
X139553641Y-85630000D01*
X127950000Y-78750000D02*
G75*
G02*
X126550000Y-78750000I-700000J0D01*
G01*
X126550000Y-78750000D02*
G75*
G02*
X127950000Y-78750000I700000J0D01*
G01*
X137965000Y-72372936D02*
X137965000Y-72827064D01*
X139435000Y-72372936D02*
X139435000Y-72827064D01*
X145501248Y-83865000D02*
X146023752Y-83865000D01*
X145501248Y-85335000D02*
X146023752Y-85335000D01*
X128800000Y-75000000D02*
G75*
G02*
X127400000Y-75000000I-700000J0D01*
G01*
X127400000Y-75000000D02*
G75*
G02*
X128800000Y-75000000I700000J0D01*
G01*
X144625000Y-78065000D02*
X147225000Y-78065000D01*
X147410000Y-81535000D02*
X147410000Y-81735000D01*
X147410000Y-81735000D02*
X144625000Y-81735000D01*
D13*
X122140000Y-52000000D02*
G75*
G02*
X122040000Y-52000000I-50000J0D01*
G01*
X122040000Y-52000000D02*
G75*
G02*
X122140000Y-52000000I50000J0D01*
G01*
D12*
X142092164Y-76940000D02*
X142307836Y-76940000D01*
X142092164Y-77660000D02*
X142307836Y-77660000D01*
X136020000Y-81736359D02*
X136020000Y-82043641D01*
X136780000Y-81736359D02*
X136780000Y-82043641D01*
X124950000Y-71750000D02*
G75*
G02*
X123550000Y-71750000I-700000J0D01*
G01*
X123550000Y-71750000D02*
G75*
G02*
X124950000Y-71750000I700000J0D01*
G01*
X154200000Y-80900000D02*
G75*
G02*
X152800000Y-80900000I-700000J0D01*
G01*
X152800000Y-80900000D02*
G75*
G02*
X154200000Y-80900000I700000J0D01*
G01*
X154396360Y-72820000D02*
X154703642Y-72820000D01*
X154396360Y-73580000D02*
X154703642Y-73580000D01*
X109665000Y-55027064D02*
X109665000Y-54572936D01*
X111135000Y-55027064D02*
X111135000Y-54572936D01*
X114200000Y-66750000D02*
G75*
G02*
X112800000Y-66750000I-700000J0D01*
G01*
X112800000Y-66750000D02*
G75*
G02*
X114200000Y-66750000I700000J0D01*
G01*
X143527836Y-73650000D02*
X143312164Y-73650000D01*
X143527836Y-74370000D02*
X143312164Y-74370000D01*
X119558500Y-74196359D02*
X119558500Y-74503641D01*
X120318500Y-74196359D02*
X120318500Y-74503641D01*
X154396360Y-71820000D02*
X154703642Y-71820000D01*
X154396360Y-72580000D02*
X154703642Y-72580000D01*
X129053641Y-79520000D02*
X128746359Y-79520000D01*
X129053641Y-80280000D02*
X128746359Y-80280000D01*
X154396360Y-69820000D02*
X154703642Y-69820000D01*
X154396360Y-70580000D02*
X154703642Y-70580000D01*
X149927836Y-65040000D02*
X149712164Y-65040000D01*
X149927836Y-65760000D02*
X149712164Y-65760000D01*
X129600000Y-82900000D02*
G75*
G02*
X128200000Y-82900000I-700000J0D01*
G01*
X128200000Y-82900000D02*
G75*
G02*
X129600000Y-82900000I700000J0D01*
G01*
X133726000Y-54400000D02*
X138726000Y-54400000D01*
X138726000Y-59800000D02*
X133726000Y-59800000D01*
X133226000Y-54600000D02*
X132986000Y-54270000D01*
X133466000Y-54270000D01*
X133226000Y-54600000D01*
G36*
X133226000Y-54600000D02*
G01*
X132986000Y-54270000D01*
X133466000Y-54270000D01*
X133226000Y-54600000D01*
G37*
X151446359Y-84820000D02*
X151753641Y-84820000D01*
X151446359Y-85580000D02*
X151753641Y-85580000D01*
D13*
X120160000Y-67800000D02*
G75*
G02*
X120060000Y-67800000I-50000J0D01*
G01*
X120060000Y-67800000D02*
G75*
G02*
X120160000Y-67800000I50000J0D01*
G01*
D12*
X119037863Y-78302936D02*
X119037863Y-78757064D01*
X120507863Y-78302936D02*
X120507863Y-78757064D01*
X142100000Y-74700000D02*
G75*
G02*
X140700000Y-74700000I-700000J0D01*
G01*
X140700000Y-74700000D02*
G75*
G02*
X142100000Y-74700000I700000J0D01*
G01*
X152520000Y-60210000D02*
X152520000Y-52480000D01*
X155280000Y-52480000D02*
X152520000Y-52480000D01*
X155280000Y-60210000D02*
X152520000Y-60210000D01*
X155280000Y-60210000D02*
X155280000Y-52480000D01*
X155280000Y-61480000D02*
X155280000Y-62860000D01*
X155280000Y-62860000D02*
X153900000Y-62860000D01*
X141107836Y-75940000D02*
X140892164Y-75940000D01*
X141107836Y-76660000D02*
X140892164Y-76660000D01*
X121046359Y-66320000D02*
X121353641Y-66320000D01*
X121046359Y-67080000D02*
X121353641Y-67080000D01*
X154406360Y-73820000D02*
X154713642Y-73820000D01*
X154406360Y-74580000D02*
X154713642Y-74580000D01*
X142892164Y-75840000D02*
X143107836Y-75840000D01*
X142892164Y-76560000D02*
X143107836Y-76560000D01*
X126446359Y-73320000D02*
X126753641Y-73320000D01*
X126446359Y-74080000D02*
X126753641Y-74080000D01*
X145438748Y-60265000D02*
X145961252Y-60265000D01*
X145438748Y-61735000D02*
X145961252Y-61735000D01*
X132125000Y-83075000D02*
G75*
G02*
X130725000Y-83075000I-700000J0D01*
G01*
X130725000Y-83075000D02*
G75*
G02*
X132125000Y-83075000I700000J0D01*
G01*
X123201248Y-78515000D02*
X123723752Y-78515000D01*
X123201248Y-79985000D02*
X123723752Y-79985000D01*
X112065000Y-55027064D02*
X112065000Y-54572936D01*
X113535000Y-55027064D02*
X113535000Y-54572936D01*
X140387836Y-76940000D02*
X140172164Y-76940000D01*
X140387836Y-77660000D02*
X140172164Y-77660000D01*
D15*
X111750000Y-84650000D02*
X111750000Y-98150000D01*
X111750000Y-98150000D02*
X121450000Y-98150000D01*
D13*
X114060000Y-84090000D02*
X114060000Y-84090000D01*
X114060000Y-84190000D02*
X114060000Y-84190000D01*
D15*
X121450000Y-84650000D02*
X111750000Y-84650000D01*
X121450000Y-98150000D02*
X121450000Y-84650000D01*
D13*
X114060000Y-84090000D02*
G75*
G02*
X114060000Y-84190000I0J-50000D01*
G01*
X114060000Y-84190000D02*
G75*
G02*
X114060000Y-84090000I0J50000D01*
G01*
D12*
X143212164Y-72640000D02*
X143427836Y-72640000D01*
X143212164Y-73360000D02*
X143427836Y-73360000D01*
X131515000Y-70765000D02*
X135635000Y-70765000D01*
X131515000Y-70820000D02*
X131515000Y-70765000D01*
X131515000Y-80885000D02*
X131515000Y-80830000D01*
X135635000Y-70765000D02*
X135635000Y-70820000D01*
X135635000Y-80830000D02*
X135635000Y-80885000D01*
X135635000Y-80885000D02*
X131515000Y-80885000D01*
X130975000Y-70815000D02*
X130735000Y-70485000D01*
X131215000Y-70485000D01*
X130975000Y-70815000D01*
G36*
X130975000Y-70815000D02*
G01*
X130735000Y-70485000D01*
X131215000Y-70485000D01*
X130975000Y-70815000D01*
G37*
X134800000Y-84500000D02*
G75*
G02*
X133400000Y-84500000I-700000J0D01*
G01*
X133400000Y-84500000D02*
G75*
G02*
X134800000Y-84500000I700000J0D01*
G01*
D15*
X146750003Y-70724997D02*
X147675000Y-69800000D01*
X146750003Y-77700000D02*
X146750003Y-70724997D01*
X146750003Y-77700000D02*
X149750002Y-77700000D01*
X147675000Y-69800000D02*
X149750002Y-69800000D01*
X149750002Y-77700000D02*
X149750002Y-69800000D01*
D12*
X143420000Y-78053641D02*
X143420000Y-77746359D01*
X144180000Y-78053641D02*
X144180000Y-77746359D01*
X143200000Y-82600000D02*
G75*
G02*
X141800000Y-82600000I-700000J0D01*
G01*
X141800000Y-82600000D02*
G75*
G02*
X143200000Y-82600000I700000J0D01*
G01*
X117200000Y-80750000D02*
G75*
G02*
X115800000Y-80750000I-700000J0D01*
G01*
X115800000Y-80750000D02*
G75*
G02*
X117200000Y-80750000I700000J0D01*
G01*
X143007836Y-70040000D02*
X142792164Y-70040000D01*
X143007836Y-70760000D02*
X142792164Y-70760000D01*
D16*
X110403300Y-68495800D02*
X110403300Y-68789460D01*
X110403300Y-78260538D02*
X110403300Y-78554200D01*
X110403300Y-78554200D02*
X115153100Y-78554200D01*
X115153100Y-68495800D02*
X110403300Y-68495800D01*
X115153100Y-68789460D02*
X115153100Y-68495800D01*
X115153100Y-78554200D02*
X115153100Y-78260540D01*
D17*
G36*
X108663400Y-75340498D02*
G01*
X108409400Y-75340498D01*
X108409400Y-74959498D01*
X108663400Y-74959498D01*
X108663400Y-75340498D01*
G37*
G36*
X117147000Y-74690499D02*
G01*
X116893000Y-74690499D01*
X116893000Y-74309499D01*
X117147000Y-74309499D01*
X117147000Y-74690499D01*
G37*
D12*
X149501359Y-58120000D02*
X149808641Y-58120000D01*
X149501359Y-58880000D02*
X149808641Y-58880000D01*
%LPC*%
D18*
X154000000Y-66500000D03*
D19*
X149145000Y-56510000D03*
X150165000Y-56510000D03*
D20*
X141250000Y-64750000D03*
D21*
X122762500Y-74740000D03*
X124662500Y-74740000D03*
D19*
X154040001Y-71200000D03*
X155060001Y-71200000D03*
D22*
X146625000Y-64624624D03*
X144325000Y-64624624D03*
D23*
X161500000Y-47500000D03*
D24*
X116500000Y-55512500D03*
X116500000Y-53612500D03*
D25*
X143880000Y-75210000D03*
X142920000Y-75210000D03*
D21*
X144550000Y-66900000D03*
X146450000Y-66900000D03*
D19*
X114990000Y-64700000D03*
X116010000Y-64700000D03*
D20*
X138900000Y-79500000D03*
D25*
X150300000Y-66400000D03*
X149340000Y-66400000D03*
D26*
X115030000Y-65800000D03*
X116000000Y-65800000D03*
D27*
X125912500Y-52200000D03*
X124087500Y-52200000D03*
D28*
X150700000Y-93300000D03*
D29*
X150700000Y-88800000D03*
D30*
X121100000Y-55500000D03*
X121100000Y-57200000D03*
X121100000Y-58900000D03*
X125900000Y-58900000D03*
X125900000Y-57200000D03*
X125900000Y-55500000D03*
D31*
X141140000Y-68500000D03*
X142100000Y-68500000D03*
D28*
X138562000Y-93300000D03*
D29*
X138562000Y-88800000D03*
D21*
X129219905Y-58400000D03*
X131119905Y-58400000D03*
D20*
X123500000Y-66750000D03*
D25*
X141960000Y-73000000D03*
X141000000Y-73000000D03*
D19*
X138890000Y-85250000D03*
X139910000Y-85250000D03*
D20*
X127250000Y-78750000D03*
D32*
X138700000Y-71687500D03*
X138700000Y-73512500D03*
D21*
X144812500Y-84600000D03*
X146712500Y-84600000D03*
D20*
X128100000Y-75000000D03*
D33*
X146700000Y-80975000D03*
X146700000Y-78825000D03*
X145150000Y-78825000D03*
X145150000Y-80975000D03*
D34*
X121485000Y-52000000D03*
X120515000Y-52000000D03*
D31*
X141720000Y-77300000D03*
X142680000Y-77300000D03*
D35*
X136400000Y-81380000D03*
X136400000Y-82400000D03*
D20*
X124250000Y-71750000D03*
X153500000Y-80900000D03*
D19*
X154040001Y-73200000D03*
X155060001Y-73200000D03*
D23*
X103500000Y-96500000D03*
D36*
X110400000Y-55712500D03*
X110400000Y-53887500D03*
D20*
X113500000Y-66750000D03*
D25*
X143900000Y-74010000D03*
X142940000Y-74010000D03*
D35*
X119938500Y-73840000D03*
X119938500Y-74860000D03*
D19*
X154040001Y-72200000D03*
X155060001Y-72200000D03*
D23*
X103500000Y-47500000D03*
D37*
X129410000Y-79900000D03*
X128390000Y-79900000D03*
D19*
X154040001Y-70200000D03*
X155060001Y-70200000D03*
D25*
X150300000Y-65400000D03*
X149340000Y-65400000D03*
D20*
X128900000Y-82900000D03*
D30*
X133826000Y-55400000D03*
X133826000Y-57100000D03*
X133826000Y-58800000D03*
X138626000Y-58800000D03*
X138626000Y-57100000D03*
X138626000Y-55400000D03*
D19*
X151090000Y-85200000D03*
X152110000Y-85200000D03*
D26*
X120715000Y-67800000D03*
X121685000Y-67800000D03*
D32*
X119772863Y-77617500D03*
X119772863Y-79442500D03*
D20*
X141400000Y-74700000D03*
D38*
X153900000Y-61480000D03*
D39*
X153900000Y-58940000D03*
X153900000Y-56400000D03*
X153900000Y-53860000D03*
D25*
X141480000Y-76300000D03*
X140520000Y-76300000D03*
D19*
X120690000Y-66700000D03*
X121710000Y-66700000D03*
X154050001Y-74200000D03*
X155070001Y-74200000D03*
D31*
X142520000Y-76200000D03*
X143480000Y-76200000D03*
D19*
X126090000Y-73700000D03*
X127110000Y-73700000D03*
D21*
X144750000Y-61000000D03*
X146650000Y-61000000D03*
D20*
X131425000Y-83075000D03*
D23*
X161500000Y-96500000D03*
D21*
X122512500Y-79250000D03*
X124412500Y-79250000D03*
D36*
X112800000Y-55712500D03*
X112800000Y-53887500D03*
D25*
X140760000Y-77300000D03*
X139800000Y-77300000D03*
D40*
X114060000Y-87040000D03*
D41*
X116600000Y-87040000D03*
X119140000Y-87040000D03*
D42*
X114060000Y-89660000D03*
X119140000Y-89660000D03*
D31*
X142840000Y-73000000D03*
X143800000Y-73000000D03*
D43*
X131100000Y-71380000D03*
X131100000Y-72650000D03*
X131100000Y-73920000D03*
X131100000Y-75190000D03*
X131100000Y-76460000D03*
X131100000Y-77730000D03*
X131100000Y-79000000D03*
X131100000Y-80270000D03*
X136050000Y-80270000D03*
X136050000Y-79000000D03*
X136050000Y-77730000D03*
X136050000Y-76460000D03*
X136050000Y-75190000D03*
X136050000Y-73920000D03*
X136050000Y-72650000D03*
X136050000Y-71380000D03*
D20*
X134100000Y-84500000D03*
D44*
X145475002Y-70249999D03*
X145475002Y-70749998D03*
X145475002Y-71250000D03*
X145475002Y-71749999D03*
X145475002Y-72250000D03*
X145475002Y-72749999D03*
X145475002Y-73249998D03*
X145475002Y-73750000D03*
X145475002Y-74249999D03*
X145475002Y-74750001D03*
X145475002Y-75250000D03*
X145475002Y-75749999D03*
X145475002Y-76250000D03*
X145475002Y-76749999D03*
X145475002Y-77250001D03*
X151025001Y-77250001D03*
X151025001Y-76749999D03*
X151025001Y-76250000D03*
X151025001Y-75749999D03*
X151025001Y-75250000D03*
X151025001Y-74750001D03*
X151025001Y-74249999D03*
X151025001Y-73750000D03*
X151025001Y-73249998D03*
X151025001Y-72749999D03*
X151025001Y-72250000D03*
X151025001Y-71749999D03*
X151025001Y-71250000D03*
X151025001Y-70749998D03*
X151025001Y-70249999D03*
D45*
X143800000Y-78410000D03*
X143800000Y-77390000D03*
D20*
X142500000Y-82600000D03*
X116500000Y-80750000D03*
D25*
X143380000Y-70400000D03*
X142420000Y-70400000D03*
D46*
X109806400Y-69300000D03*
X109806400Y-69950001D03*
X109806400Y-70600000D03*
X109806400Y-71250001D03*
X109806400Y-71899999D03*
X109806400Y-72550001D03*
X109806400Y-73199999D03*
X109806400Y-73849998D03*
X109806400Y-74499999D03*
X109806400Y-75149998D03*
X109806400Y-75799999D03*
X109806400Y-76449998D03*
X109806400Y-77099999D03*
X109806400Y-77749998D03*
X115750000Y-77750000D03*
X115750000Y-77099999D03*
X115750000Y-76450000D03*
X115750000Y-75799999D03*
X115750000Y-75150001D03*
X115750000Y-74499999D03*
X115750000Y-73850001D03*
X115750000Y-73199999D03*
X115750000Y-72550001D03*
X115750000Y-71899999D03*
X115750000Y-71250001D03*
X115750000Y-70600000D03*
X115750000Y-69950001D03*
X115750000Y-69300000D03*
D38*
X108370000Y-48770000D03*
D39*
X108370000Y-46230000D03*
X110910000Y-48770000D03*
X110910000Y-46230000D03*
X113450000Y-48770000D03*
X113450000Y-46230000D03*
X115990000Y-48770000D03*
X115990000Y-46230000D03*
X118530000Y-48770000D03*
X118530000Y-46230000D03*
X121070000Y-48770000D03*
X121070000Y-46230000D03*
X123610000Y-48770000D03*
X123610000Y-46230000D03*
X126150000Y-48770000D03*
X126150000Y-46230000D03*
X128690000Y-48770000D03*
X128690000Y-46230000D03*
X131230000Y-48770000D03*
X131230000Y-46230000D03*
X133770000Y-48770000D03*
X133770000Y-46230000D03*
X136310000Y-48770000D03*
X136310000Y-46230000D03*
X138850000Y-48770000D03*
X138850000Y-46230000D03*
X141390000Y-48770000D03*
X141390000Y-46230000D03*
X143930000Y-48770000D03*
X143930000Y-46230000D03*
X146470000Y-48770000D03*
X146470000Y-46230000D03*
X149010000Y-48770000D03*
X149010000Y-46230000D03*
X151550000Y-48770000D03*
X151550000Y-46230000D03*
X154090000Y-48770000D03*
X154090000Y-46230000D03*
X156630000Y-48770000D03*
X156630000Y-46230000D03*
D19*
X149145000Y-58500000D03*
X150165000Y-58500000D03*
%LPD*%
M02*
