G04 #@! TF.GenerationSoftware,KiCad,Pcbnew,9.0.6*
G04 #@! TF.CreationDate,2026-02-12T12:28:41-08:00*
G04 #@! TF.ProjectId,mutebox_hat_audio_in,6d757465-626f-4785-9f68-61745f617564,rev?*
G04 #@! TF.SameCoordinates,Original*
G04 #@! TF.FileFunction,Soldermask,Top*
G04 #@! TF.FilePolarity,Negative*
%FSLAX46Y46*%
G04 Gerber Fmt 4.6, Leading zero omitted, Abs format (unit mm)*
G04 Created by KiCad (PCBNEW 9.0.6) date 2026-02-12 12:28:41*
%MOMM*%
%LPD*%
G01*
G04 APERTURE LIST*
G04 Aperture macros list*
%AMRoundRect*
0 Rectangle with rounded corners*
0 $1 Rounding radius*
0 $2 $3 $4 $5 $6 $7 $8 $9 X,Y pos of 4 corners*
0 Add a 4 corners polygon primitive as box body*
4,1,4,$2,$3,$4,$5,$6,$7,$8,$9,$2,$3,0*
0 Add four circle primitives for the rounded corners*
1,1,$1+$1,$2,$3*
1,1,$1+$1,$4,$5*
1,1,$1+$1,$6,$7*
1,1,$1+$1,$8,$9*
0 Add four rect primitives between the rounded corners*
20,1,$1+$1,$2,$3,$4,$5,0*
20,1,$1+$1,$4,$5,$6,$7,0*
20,1,$1+$1,$6,$7,$8,$9,0*
20,1,$1+$1,$8,$9,$2,$3,0*%
G04 Aperture macros list end*
%ADD10C,1.000000*%
%ADD11RoundRect,0.250000X-0.337500X-0.475000X0.337500X-0.475000X0.337500X0.475000X-0.337500X0.475000X0*%
%ADD12RoundRect,0.250000X0.275000X0.350000X-0.275000X0.350000X-0.275000X-0.350000X0.275000X-0.350000X0*%
%ADD13C,2.700000*%
%ADD14RoundRect,0.250000X-0.475000X0.337500X-0.475000X-0.337500X0.475000X-0.337500X0.475000X0.337500X0*%
%ADD15O,5.004000X2.604000*%
%ADD16O,1.904000X3.604000*%
%ADD17R,1.100000X2.000000*%
%ADD18RoundRect,0.250000X-0.350000X-0.450000X0.350000X-0.450000X0.350000X0.450000X-0.350000X0.450000X0*%
%ADD19RoundRect,0.250000X-0.450000X0.350000X-0.450000X-0.350000X0.450000X-0.350000X0.450000X0.350000X0*%
%ADD20R,0.900000X1.000000*%
%ADD21RoundRect,0.250000X0.450000X-0.350000X0.450000X0.350000X-0.450000X0.350000X-0.450000X-0.350000X0*%
%ADD22R,1.300000X1.300000*%
%ADD23C,1.300000*%
%ADD24C,1.650000*%
%ADD25RoundRect,0.150000X-0.825000X-0.150000X0.825000X-0.150000X0.825000X0.150000X-0.825000X0.150000X0*%
%ADD26O,1.749999X0.299999*%
%ADD27R,1.778000X0.355600*%
%ADD28R,1.700000X1.700000*%
%ADD29C,1.700000*%
G04 APERTURE END LIST*
D10*
X141250000Y-64750000D03*
D11*
X122675000Y-74740000D03*
X124750000Y-74740000D03*
D12*
X146625000Y-64624624D03*
X144325000Y-64624624D03*
D13*
X161500000Y-47500000D03*
D11*
X144762500Y-67600000D03*
X146837500Y-67600000D03*
D10*
X139500000Y-79250000D03*
D14*
X152400000Y-64562500D03*
X152400000Y-66637500D03*
D15*
X150800000Y-94450000D03*
D16*
X150800000Y-89950000D03*
D17*
X133400000Y-58000000D03*
X135100000Y-58000000D03*
X136800000Y-58000000D03*
X136800000Y-53200000D03*
X135100000Y-53200000D03*
X133400000Y-53200000D03*
D18*
X156400000Y-74200000D03*
X158400000Y-74200000D03*
D15*
X138662000Y-94450000D03*
D16*
X138662000Y-89950000D03*
D10*
X156750000Y-52250000D03*
X123500000Y-66750000D03*
X138750000Y-51250000D03*
D18*
X137262000Y-85250000D03*
X139262000Y-85250000D03*
D10*
X127250000Y-78750000D03*
D18*
X156400000Y-78200000D03*
X158400000Y-78200000D03*
D19*
X139100000Y-72000000D03*
X139100000Y-74000000D03*
D11*
X142824500Y-85450000D03*
X144899500Y-85450000D03*
D10*
X127000000Y-74750000D03*
D20*
X155750000Y-67150000D03*
X155750000Y-69300000D03*
X157300000Y-69300000D03*
X157300000Y-67150000D03*
D10*
X124250000Y-71750000D03*
D13*
X103500000Y-96500000D03*
D21*
X111000000Y-54000000D03*
X111000000Y-52000000D03*
D10*
X119500000Y-71250000D03*
D18*
X156400000Y-76200000D03*
X158400000Y-76200000D03*
D19*
X119938500Y-73350000D03*
X119938500Y-75350000D03*
D13*
X103500000Y-47500000D03*
D14*
X149400000Y-64562500D03*
X149400000Y-66637500D03*
D10*
X131250000Y-83000000D03*
D17*
X120200000Y-58200000D03*
X121900000Y-58200000D03*
X123600000Y-58200000D03*
X123600000Y-53400000D03*
X121900000Y-53400000D03*
X120200000Y-53400000D03*
D18*
X150600000Y-85200000D03*
X152600000Y-85200000D03*
D19*
X119772863Y-77530000D03*
X119772863Y-79530000D03*
D18*
X156400000Y-72200000D03*
X158400000Y-72200000D03*
D11*
X155592500Y-64820000D03*
X157667500Y-64820000D03*
D10*
X133750000Y-83000000D03*
X146250000Y-80750000D03*
D13*
X161500000Y-96500000D03*
D11*
X122425000Y-79250000D03*
X124500000Y-79250000D03*
D21*
X113400000Y-54000000D03*
X113400000Y-52000000D03*
D22*
X114060000Y-87040000D03*
D23*
X116600000Y-87040000D03*
X119140000Y-87040000D03*
D24*
X114060000Y-89660000D03*
X119140000Y-89660000D03*
D25*
X131100000Y-71380000D03*
X131100000Y-72650000D03*
X131100000Y-73920000D03*
X131100000Y-75190000D03*
X131100000Y-76460000D03*
X131100000Y-77730000D03*
X131100000Y-79000000D03*
X131100000Y-80270000D03*
X136050000Y-80270000D03*
X136050000Y-79000000D03*
X136050000Y-77730000D03*
X136050000Y-76460000D03*
X136050000Y-75190000D03*
X136050000Y-73920000D03*
X136050000Y-72650000D03*
X136050000Y-71380000D03*
D18*
X120250000Y-69250000D03*
X122250000Y-69250000D03*
D10*
X136250000Y-82500000D03*
D26*
X145475002Y-70249999D03*
X145475002Y-70749998D03*
X145475002Y-71250000D03*
X145475002Y-71749999D03*
X145475002Y-72250000D03*
X145475002Y-72749999D03*
X145475002Y-73249998D03*
X145475002Y-73750000D03*
X145475002Y-74249999D03*
X145475002Y-74750001D03*
X145475002Y-75250000D03*
X145475002Y-75749999D03*
X145475002Y-76250000D03*
X145475002Y-76749999D03*
X145475002Y-77250001D03*
X151025001Y-77250001D03*
X151025001Y-76749999D03*
X151025001Y-76250000D03*
X151025001Y-75749999D03*
X151025001Y-75250000D03*
X151025001Y-74750001D03*
X151025001Y-74249999D03*
X151025001Y-73750000D03*
X151025001Y-73249998D03*
X151025001Y-72749999D03*
X151025001Y-72250000D03*
X151025001Y-71749999D03*
X151025001Y-71250000D03*
X151025001Y-70749998D03*
X151025001Y-70249999D03*
D21*
X159250000Y-69250000D03*
X159250000Y-67250000D03*
D10*
X141000000Y-82250000D03*
D14*
X142600000Y-71762500D03*
X142600000Y-73837500D03*
D27*
X109806400Y-69300000D03*
X109806400Y-69950001D03*
X109806400Y-70600000D03*
X109806400Y-71250001D03*
X109806400Y-71899999D03*
X109806400Y-72550001D03*
X109806400Y-73199999D03*
X109806400Y-73849998D03*
X109806400Y-74499999D03*
X109806400Y-75149998D03*
X109806400Y-75799999D03*
X109806400Y-76449998D03*
X109806400Y-77099999D03*
X109806400Y-77749998D03*
X115750000Y-77750000D03*
X115750000Y-77099999D03*
X115750000Y-76450000D03*
X115750000Y-75799999D03*
X115750000Y-75150001D03*
X115750000Y-74499999D03*
X115750000Y-73850001D03*
X115750000Y-73199999D03*
X115750000Y-72550001D03*
X115750000Y-71899999D03*
X115750000Y-71250001D03*
X115750000Y-70600000D03*
X115750000Y-69950001D03*
X115750000Y-69300000D03*
D28*
X108370000Y-48770000D03*
D29*
X108370000Y-46230000D03*
X110910000Y-48770000D03*
X110910000Y-46230000D03*
X113450000Y-48770000D03*
X113450000Y-46230000D03*
X115990000Y-48770000D03*
X115990000Y-46230000D03*
X118530000Y-48770000D03*
X118530000Y-46230000D03*
X121070000Y-48770000D03*
X121070000Y-46230000D03*
X123610000Y-48770000D03*
X123610000Y-46230000D03*
X126150000Y-48770000D03*
X126150000Y-46230000D03*
X128690000Y-48770000D03*
X128690000Y-46230000D03*
X131230000Y-48770000D03*
X131230000Y-46230000D03*
X133770000Y-48770000D03*
X133770000Y-46230000D03*
X136310000Y-48770000D03*
X136310000Y-46230000D03*
X138850000Y-48770000D03*
X138850000Y-46230000D03*
X141390000Y-48770000D03*
X141390000Y-46230000D03*
X143930000Y-48770000D03*
X143930000Y-46230000D03*
X146470000Y-48770000D03*
X146470000Y-46230000D03*
X149010000Y-48770000D03*
X149010000Y-46230000D03*
X151550000Y-48770000D03*
X151550000Y-46230000D03*
X154090000Y-48770000D03*
X154090000Y-46230000D03*
X156630000Y-48770000D03*
X156630000Y-46230000D03*
M02*
