M48
; DRILL file {KiCad 9.0.6} date 2026-01-29T07:39:36-0800
; FORMAT={-:-/ absolute / metric / decimal}
; #@! TF.CreationDate,2026-01-29T07:39:36-08:00
; #@! TF.GenerationSoftware,Kicad,Pcbnew,9.0.6
; #@! TF.FileFunction,Plated,1,2,PTH
FMAT,2
METRIC
; #@! TA.AperFunction,Plated,PTH,ViaDrill
T1C0.600
; #@! TA.AperFunction,Plated,PTH,ComponentDrill
T2C0.800
; #@! TA.AperFunction,Plated,PTH,ComponentDrill
T3C1.000
; #@! TA.AperFunction,Plated,PTH,ComponentDrill
T4C1.100
; #@! TA.AperFunction,Plated,PTH,ComponentDrill
T5C1.300
%
G90
G05
T1
X103.0Y-69.8
X106.4Y-61.4
X106.4Y-64.0
X107.6Y-77.8
X113.0Y-84.2
X113.1Y-69.5
X117.0Y-74.6
X121.0Y-73.441
X122.4Y-51.2
X124.1Y-68.0
X125.77Y-58.17
X127.6Y-50.6
X129.0Y-71.4
X129.1Y-68.0
X129.4Y-75.2
X129.6Y-78.9
X129.6Y-80.0
X132.2Y-88.4
X132.2Y-98.4
X132.8Y-72.6
X132.8Y-76.4
X134.47Y-80.27
X137.6Y-68.0
X137.6Y-74.5
X139.4Y-57.8
X142.4Y-79.626
X142.6Y-75.6
X142.662Y-87.05
X143.0Y-69.4
X143.589Y-78.545
X144.0Y-77.2
X145.062Y-96.6
X146.1Y-58.1
X146.6Y-78.6
X147.0Y-72.0
X148.3Y-67.6
X148.662Y-86.25
X151.6Y-51.0
X154.401Y-78.599
X157.462Y-96.6
X159.0Y-64.4
X159.4Y-75.0
X162.4Y-72.0
T2
X114.06Y-87.04
X116.6Y-87.04
X119.14Y-87.04
T3
X108.37Y-46.23
X108.37Y-48.77
X110.91Y-46.23
X110.91Y-48.77
X113.45Y-46.23
X113.45Y-48.77
X115.99Y-46.23
X115.99Y-48.77
X118.53Y-46.23
X118.53Y-48.77
X121.07Y-46.23
X121.07Y-48.77
X123.61Y-46.23
X123.61Y-48.77
X126.15Y-46.23
X126.15Y-48.77
X128.69Y-46.23
X128.69Y-48.77
X131.23Y-46.23
X131.23Y-48.77
X133.77Y-46.23
X133.77Y-48.77
X136.31Y-46.23
X136.31Y-48.77
X138.85Y-46.23
X138.85Y-48.77
X141.39Y-46.23
X141.39Y-48.77
X143.93Y-46.23
X143.93Y-48.77
X146.47Y-46.23
X146.47Y-48.77
X149.01Y-46.23
X149.01Y-48.77
X151.55Y-46.23
X151.55Y-48.77
X154.09Y-46.23
X154.09Y-48.77
X156.63Y-46.23
X156.63Y-48.77
X161.8Y-58.26
X161.8Y-60.8
T4
X114.06Y-89.66
X119.14Y-89.66
T3
G00X138.662Y-89.65
M15
G01X138.662Y-90.95
M16
G05
G00X150.8Y-89.65
M15
G01X150.8Y-90.95
M16
G05
T5
G00X139.712Y-94.8
M15
G01X137.612Y-94.8
M16
G05
G00X151.85Y-94.8
M15
G01X149.75Y-94.8
M16
G05
M30
