G04 #@! TF.GenerationSoftware,KiCad,Pcbnew,9.0.6*
G04 #@! TF.CreationDate,2026-03-02T10:48:14-08:00*
G04 #@! TF.ProjectId,mutebox_hat_audio_in,6d757465-626f-4785-9f68-61745f617564,rev?*
G04 #@! TF.SameCoordinates,Original*
G04 #@! TF.FileFunction,Legend,Bot*
G04 #@! TF.FilePolarity,Positive*
%FSLAX46Y46*%
G04 Gerber Fmt 4.6, Leading zero omitted, Abs format (unit mm)*
G04 Created by KiCad (PCBNEW 9.0.6) date 2026-03-02 10:48:14*
%MOMM*%
%LPD*%
G01*
G04 APERTURE LIST*
%ADD10C,0.120000*%
%ADD11C,2.700000*%
%ADD12O,5.004000X2.604000*%
%ADD13O,1.904000X3.604000*%
%ADD14R,1.300000X1.300000*%
%ADD15C,1.300000*%
%ADD16C,1.650000*%
%ADD17R,1.700000X1.700000*%
%ADD18C,1.700000*%
G04 APERTURE END LIST*
D10*
X107040000Y-44900000D02*
X107040000Y-47500000D01*
X107040000Y-44900000D02*
X157960000Y-44900000D01*
X107040000Y-47500000D02*
X109640000Y-47500000D01*
X107040000Y-48770000D02*
X107040000Y-50100000D01*
X107040000Y-50100000D02*
X108370000Y-50100000D01*
X109640000Y-47500000D02*
X109640000Y-50100000D01*
X109640000Y-50100000D02*
X157960000Y-50100000D01*
X157960000Y-44900000D02*
X157960000Y-50100000D01*
%LPC*%
D11*
X161500000Y-47500000D03*
D12*
X150800000Y-94450000D03*
D13*
X150800000Y-89950000D03*
D12*
X138662000Y-94450000D03*
D13*
X138662000Y-89950000D03*
D11*
X103500000Y-96500000D03*
X103500000Y-47500000D03*
X161500000Y-96500000D03*
D14*
X114060000Y-87040000D03*
D15*
X116600000Y-87040000D03*
X119140000Y-87040000D03*
D16*
X114060000Y-89660000D03*
X119140000Y-89660000D03*
D17*
X108370000Y-48770000D03*
D18*
X108370000Y-46230000D03*
X110910000Y-48770000D03*
X110910000Y-46230000D03*
X113450000Y-48770000D03*
X113450000Y-46230000D03*
X115990000Y-48770000D03*
X115990000Y-46230000D03*
X118530000Y-48770000D03*
X118530000Y-46230000D03*
X121070000Y-48770000D03*
X121070000Y-46230000D03*
X123610000Y-48770000D03*
X123610000Y-46230000D03*
X126150000Y-48770000D03*
X126150000Y-46230000D03*
X128690000Y-48770000D03*
X128690000Y-46230000D03*
X131230000Y-48770000D03*
X131230000Y-46230000D03*
X133770000Y-48770000D03*
X133770000Y-46230000D03*
X136310000Y-48770000D03*
X136310000Y-46230000D03*
X138850000Y-48770000D03*
X138850000Y-46230000D03*
X141390000Y-48770000D03*
X141390000Y-46230000D03*
X143930000Y-48770000D03*
X143930000Y-46230000D03*
X146470000Y-48770000D03*
X146470000Y-46230000D03*
X149010000Y-48770000D03*
X149010000Y-46230000D03*
X151550000Y-48770000D03*
X151550000Y-46230000D03*
X154090000Y-48770000D03*
X154090000Y-46230000D03*
X156630000Y-48770000D03*
X156630000Y-46230000D03*
%LPD*%
M02*
