G04 #@! TF.GenerationSoftware,KiCad,Pcbnew,9.0.6*
G04 #@! TF.CreationDate,2026-02-12T12:28:41-08:00*
G04 #@! TF.ProjectId,mutebox_hat_audio_in,6d757465-626f-4785-9f68-61745f617564,rev?*
G04 #@! TF.SameCoordinates,Original*
G04 #@! TF.FileFunction,Legend,Top*
G04 #@! TF.FilePolarity,Positive*
%FSLAX46Y46*%
G04 Gerber Fmt 4.6, Leading zero omitted, Abs format (unit mm)*
G04 Created by KiCad (PCBNEW 9.0.6) date 2026-02-12 12:28:41*
%MOMM*%
%LPD*%
G01*
G04 APERTURE LIST*
G04 Aperture macros list*
%AMRoundRect*
0 Rectangle with rounded corners*
0 $1 Rounding radius*
0 $2 $3 $4 $5 $6 $7 $8 $9 X,Y pos of 4 corners*
0 Add a 4 corners polygon primitive as box body*
4,1,4,$2,$3,$4,$5,$6,$7,$8,$9,$2,$3,0*
0 Add four circle primitives for the rounded corners*
1,1,$1+$1,$2,$3*
1,1,$1+$1,$4,$5*
1,1,$1+$1,$6,$7*
1,1,$1+$1,$8,$9*
0 Add four rect primitives between the rounded corners*
20,1,$1+$1,$2,$3,$4,$5,0*
20,1,$1+$1,$4,$5,$6,$7,0*
20,1,$1+$1,$6,$7,$8,$9,0*
20,1,$1+$1,$8,$9,$2,$3,0*%
G04 Aperture macros list end*
%ADD10C,0.150000*%
%ADD11C,0.254000*%
%ADD12C,0.120000*%
%ADD13C,0.127000*%
%ADD14C,0.200000*%
%ADD15C,0.100000*%
%ADD16C,0.152400*%
%ADD17C,0.000000*%
%ADD18C,1.000000*%
%ADD19RoundRect,0.250000X-0.337500X-0.475000X0.337500X-0.475000X0.337500X0.475000X-0.337500X0.475000X0*%
%ADD20RoundRect,0.250000X0.275000X0.350000X-0.275000X0.350000X-0.275000X-0.350000X0.275000X-0.350000X0*%
%ADD21C,2.700000*%
%ADD22RoundRect,0.250000X-0.475000X0.337500X-0.475000X-0.337500X0.475000X-0.337500X0.475000X0.337500X0*%
%ADD23O,5.004000X2.604000*%
%ADD24O,1.904000X3.604000*%
%ADD25R,1.100000X2.000000*%
%ADD26RoundRect,0.250000X-0.350000X-0.450000X0.350000X-0.450000X0.350000X0.450000X-0.350000X0.450000X0*%
%ADD27RoundRect,0.250000X-0.450000X0.350000X-0.450000X-0.350000X0.450000X-0.350000X0.450000X0.350000X0*%
%ADD28R,0.900000X1.000000*%
%ADD29RoundRect,0.250000X0.450000X-0.350000X0.450000X0.350000X-0.450000X0.350000X-0.450000X-0.350000X0*%
%ADD30R,1.300000X1.300000*%
%ADD31C,1.300000*%
%ADD32C,1.650000*%
%ADD33RoundRect,0.150000X-0.825000X-0.150000X0.825000X-0.150000X0.825000X0.150000X-0.825000X0.150000X0*%
%ADD34O,1.749999X0.299999*%
%ADD35R,1.778000X0.355600*%
%ADD36R,1.700000X1.700000*%
%ADD37C,1.700000*%
G04 APERTURE END LIST*
D10*
X101614216Y-80710839D02*
X101614216Y-80234649D01*
X101899931Y-80806077D02*
X100899931Y-80472744D01*
X100899931Y-80472744D02*
X101899931Y-80139411D01*
X101233264Y-79377506D02*
X101899931Y-79377506D01*
X101233264Y-79806077D02*
X101757073Y-79806077D01*
X101757073Y-79806077D02*
X101852312Y-79758458D01*
X101852312Y-79758458D02*
X101899931Y-79663220D01*
X101899931Y-79663220D02*
X101899931Y-79520363D01*
X101899931Y-79520363D02*
X101852312Y-79425125D01*
X101852312Y-79425125D02*
X101804692Y-79377506D01*
X101899931Y-78472744D02*
X100899931Y-78472744D01*
X101852312Y-78472744D02*
X101899931Y-78567982D01*
X101899931Y-78567982D02*
X101899931Y-78758458D01*
X101899931Y-78758458D02*
X101852312Y-78853696D01*
X101852312Y-78853696D02*
X101804692Y-78901315D01*
X101804692Y-78901315D02*
X101709454Y-78948934D01*
X101709454Y-78948934D02*
X101423740Y-78948934D01*
X101423740Y-78948934D02*
X101328502Y-78901315D01*
X101328502Y-78901315D02*
X101280883Y-78853696D01*
X101280883Y-78853696D02*
X101233264Y-78758458D01*
X101233264Y-78758458D02*
X101233264Y-78567982D01*
X101233264Y-78567982D02*
X101280883Y-78472744D01*
X101899931Y-77996553D02*
X101233264Y-77996553D01*
X100899931Y-77996553D02*
X100947550Y-78044172D01*
X100947550Y-78044172D02*
X100995169Y-77996553D01*
X100995169Y-77996553D02*
X100947550Y-77948934D01*
X100947550Y-77948934D02*
X100899931Y-77996553D01*
X100899931Y-77996553D02*
X100995169Y-77996553D01*
X101899931Y-77377506D02*
X101852312Y-77472744D01*
X101852312Y-77472744D02*
X101804692Y-77520363D01*
X101804692Y-77520363D02*
X101709454Y-77567982D01*
X101709454Y-77567982D02*
X101423740Y-77567982D01*
X101423740Y-77567982D02*
X101328502Y-77520363D01*
X101328502Y-77520363D02*
X101280883Y-77472744D01*
X101280883Y-77472744D02*
X101233264Y-77377506D01*
X101233264Y-77377506D02*
X101233264Y-77234649D01*
X101233264Y-77234649D02*
X101280883Y-77139411D01*
X101280883Y-77139411D02*
X101328502Y-77091792D01*
X101328502Y-77091792D02*
X101423740Y-77044173D01*
X101423740Y-77044173D02*
X101709454Y-77044173D01*
X101709454Y-77044173D02*
X101804692Y-77091792D01*
X101804692Y-77091792D02*
X101852312Y-77139411D01*
X101852312Y-77139411D02*
X101899931Y-77234649D01*
X101899931Y-77234649D02*
X101899931Y-77377506D01*
X101899931Y-75853696D02*
X100899931Y-75853696D01*
X101233264Y-75377506D02*
X101899931Y-75377506D01*
X101328502Y-75377506D02*
X101280883Y-75329887D01*
X101280883Y-75329887D02*
X101233264Y-75234649D01*
X101233264Y-75234649D02*
X101233264Y-75091792D01*
X101233264Y-75091792D02*
X101280883Y-74996554D01*
X101280883Y-74996554D02*
X101376121Y-74948935D01*
X101376121Y-74948935D02*
X101899931Y-74948935D01*
X101233264Y-74472744D02*
X102233264Y-74472744D01*
X101280883Y-74472744D02*
X101233264Y-74377506D01*
X101233264Y-74377506D02*
X101233264Y-74187030D01*
X101233264Y-74187030D02*
X101280883Y-74091792D01*
X101280883Y-74091792D02*
X101328502Y-74044173D01*
X101328502Y-74044173D02*
X101423740Y-73996554D01*
X101423740Y-73996554D02*
X101709454Y-73996554D01*
X101709454Y-73996554D02*
X101804692Y-74044173D01*
X101804692Y-74044173D02*
X101852312Y-74091792D01*
X101852312Y-74091792D02*
X101899931Y-74187030D01*
X101899931Y-74187030D02*
X101899931Y-74377506D01*
X101899931Y-74377506D02*
X101852312Y-74472744D01*
X101233264Y-73139411D02*
X101899931Y-73139411D01*
X101233264Y-73567982D02*
X101757073Y-73567982D01*
X101757073Y-73567982D02*
X101852312Y-73520363D01*
X101852312Y-73520363D02*
X101899931Y-73425125D01*
X101899931Y-73425125D02*
X101899931Y-73282268D01*
X101899931Y-73282268D02*
X101852312Y-73187030D01*
X101852312Y-73187030D02*
X101804692Y-73139411D01*
X101233264Y-72806077D02*
X101233264Y-72425125D01*
X100899931Y-72663220D02*
X101757073Y-72663220D01*
X101757073Y-72663220D02*
X101852312Y-72615601D01*
X101852312Y-72615601D02*
X101899931Y-72520363D01*
X101899931Y-72520363D02*
X101899931Y-72425125D01*
X101899931Y-71329886D02*
X100899931Y-71329886D01*
X101376121Y-71329886D02*
X101376121Y-70758458D01*
X101899931Y-70758458D02*
X100899931Y-70758458D01*
X101614216Y-70329886D02*
X101614216Y-69853696D01*
X101899931Y-70425124D02*
X100899931Y-70091791D01*
X100899931Y-70091791D02*
X101899931Y-69758458D01*
X100899931Y-69567981D02*
X100899931Y-68996553D01*
X101899931Y-69282267D02*
X100899931Y-69282267D01*
X102747970Y-79853696D02*
X102700351Y-79948935D01*
X102700351Y-79948935D02*
X102700351Y-80139411D01*
X102700351Y-80139411D02*
X102747970Y-80234649D01*
X102747970Y-80234649D02*
X102843208Y-80329887D01*
X102843208Y-80329887D02*
X102938446Y-80377506D01*
X102938446Y-80377506D02*
X103128922Y-80377506D01*
X103128922Y-80377506D02*
X103224160Y-80329887D01*
X103224160Y-80329887D02*
X103319398Y-80234649D01*
X103319398Y-80234649D02*
X103367017Y-80139411D01*
X103367017Y-80139411D02*
X103367017Y-79948935D01*
X103367017Y-79948935D02*
X103319398Y-79853696D01*
X102367017Y-80044173D02*
X102414636Y-80282268D01*
X102414636Y-80282268D02*
X102557494Y-80520363D01*
X102557494Y-80520363D02*
X102795589Y-80663220D01*
X102795589Y-80663220D02*
X103033684Y-80710839D01*
X103033684Y-80710839D02*
X103271779Y-80663220D01*
X103271779Y-80663220D02*
X103509875Y-80520363D01*
X103509875Y-80520363D02*
X103652732Y-80282268D01*
X103652732Y-80282268D02*
X103700351Y-80044173D01*
X103700351Y-80044173D02*
X103652732Y-79806077D01*
X103652732Y-79806077D02*
X103509875Y-79567982D01*
X103509875Y-79567982D02*
X103271779Y-79425125D01*
X103271779Y-79425125D02*
X103033684Y-79377506D01*
X103033684Y-79377506D02*
X102795589Y-79425125D01*
X102795589Y-79425125D02*
X102557494Y-79567982D01*
X102557494Y-79567982D02*
X102414636Y-79806077D01*
X102414636Y-79806077D02*
X102367017Y-80044173D01*
X102605113Y-78234648D02*
X102557494Y-78187029D01*
X102557494Y-78187029D02*
X102509875Y-78091791D01*
X102509875Y-78091791D02*
X102509875Y-77853696D01*
X102509875Y-77853696D02*
X102557494Y-77758458D01*
X102557494Y-77758458D02*
X102605113Y-77710839D01*
X102605113Y-77710839D02*
X102700351Y-77663220D01*
X102700351Y-77663220D02*
X102795589Y-77663220D01*
X102795589Y-77663220D02*
X102938446Y-77710839D01*
X102938446Y-77710839D02*
X103509875Y-78282267D01*
X103509875Y-78282267D02*
X103509875Y-77663220D01*
X102509875Y-77044172D02*
X102509875Y-76948934D01*
X102509875Y-76948934D02*
X102557494Y-76853696D01*
X102557494Y-76853696D02*
X102605113Y-76806077D01*
X102605113Y-76806077D02*
X102700351Y-76758458D01*
X102700351Y-76758458D02*
X102890827Y-76710839D01*
X102890827Y-76710839D02*
X103128922Y-76710839D01*
X103128922Y-76710839D02*
X103319398Y-76758458D01*
X103319398Y-76758458D02*
X103414636Y-76806077D01*
X103414636Y-76806077D02*
X103462256Y-76853696D01*
X103462256Y-76853696D02*
X103509875Y-76948934D01*
X103509875Y-76948934D02*
X103509875Y-77044172D01*
X103509875Y-77044172D02*
X103462256Y-77139410D01*
X103462256Y-77139410D02*
X103414636Y-77187029D01*
X103414636Y-77187029D02*
X103319398Y-77234648D01*
X103319398Y-77234648D02*
X103128922Y-77282267D01*
X103128922Y-77282267D02*
X102890827Y-77282267D01*
X102890827Y-77282267D02*
X102700351Y-77234648D01*
X102700351Y-77234648D02*
X102605113Y-77187029D01*
X102605113Y-77187029D02*
X102557494Y-77139410D01*
X102557494Y-77139410D02*
X102509875Y-77044172D01*
X102605113Y-76329886D02*
X102557494Y-76282267D01*
X102557494Y-76282267D02*
X102509875Y-76187029D01*
X102509875Y-76187029D02*
X102509875Y-75948934D01*
X102509875Y-75948934D02*
X102557494Y-75853696D01*
X102557494Y-75853696D02*
X102605113Y-75806077D01*
X102605113Y-75806077D02*
X102700351Y-75758458D01*
X102700351Y-75758458D02*
X102795589Y-75758458D01*
X102795589Y-75758458D02*
X102938446Y-75806077D01*
X102938446Y-75806077D02*
X103509875Y-76377505D01*
X103509875Y-76377505D02*
X103509875Y-75758458D01*
X102509875Y-74901315D02*
X102509875Y-75091791D01*
X102509875Y-75091791D02*
X102557494Y-75187029D01*
X102557494Y-75187029D02*
X102605113Y-75234648D01*
X102605113Y-75234648D02*
X102747970Y-75329886D01*
X102747970Y-75329886D02*
X102938446Y-75377505D01*
X102938446Y-75377505D02*
X103319398Y-75377505D01*
X103319398Y-75377505D02*
X103414636Y-75329886D01*
X103414636Y-75329886D02*
X103462256Y-75282267D01*
X103462256Y-75282267D02*
X103509875Y-75187029D01*
X103509875Y-75187029D02*
X103509875Y-74996553D01*
X103509875Y-74996553D02*
X103462256Y-74901315D01*
X103462256Y-74901315D02*
X103414636Y-74853696D01*
X103414636Y-74853696D02*
X103319398Y-74806077D01*
X103319398Y-74806077D02*
X103081303Y-74806077D01*
X103081303Y-74806077D02*
X102986065Y-74853696D01*
X102986065Y-74853696D02*
X102938446Y-74901315D01*
X102938446Y-74901315D02*
X102890827Y-74996553D01*
X102890827Y-74996553D02*
X102890827Y-75187029D01*
X102890827Y-75187029D02*
X102938446Y-75282267D01*
X102938446Y-75282267D02*
X102986065Y-75329886D01*
X102986065Y-75329886D02*
X103081303Y-75377505D01*
X103509875Y-73615600D02*
X102509875Y-73615600D01*
X102509875Y-73615600D02*
X103224160Y-73282267D01*
X103224160Y-73282267D02*
X102509875Y-72948934D01*
X102509875Y-72948934D02*
X103509875Y-72948934D01*
X102843208Y-72044172D02*
X103509875Y-72044172D01*
X102843208Y-72472743D02*
X103367017Y-72472743D01*
X103367017Y-72472743D02*
X103462256Y-72425124D01*
X103462256Y-72425124D02*
X103509875Y-72329886D01*
X103509875Y-72329886D02*
X103509875Y-72187029D01*
X103509875Y-72187029D02*
X103462256Y-72091791D01*
X103462256Y-72091791D02*
X103414636Y-72044172D01*
X102843208Y-71710838D02*
X102843208Y-71329886D01*
X102509875Y-71567981D02*
X103367017Y-71567981D01*
X103367017Y-71567981D02*
X103462256Y-71520362D01*
X103462256Y-71520362D02*
X103509875Y-71425124D01*
X103509875Y-71425124D02*
X103509875Y-71329886D01*
X103462256Y-70615600D02*
X103509875Y-70710838D01*
X103509875Y-70710838D02*
X103509875Y-70901314D01*
X103509875Y-70901314D02*
X103462256Y-70996552D01*
X103462256Y-70996552D02*
X103367017Y-71044171D01*
X103367017Y-71044171D02*
X102986065Y-71044171D01*
X102986065Y-71044171D02*
X102890827Y-70996552D01*
X102890827Y-70996552D02*
X102843208Y-70901314D01*
X102843208Y-70901314D02*
X102843208Y-70710838D01*
X102843208Y-70710838D02*
X102890827Y-70615600D01*
X102890827Y-70615600D02*
X102986065Y-70567981D01*
X102986065Y-70567981D02*
X103081303Y-70567981D01*
X103081303Y-70567981D02*
X103176541Y-71044171D01*
X103509875Y-70139409D02*
X102509875Y-70139409D01*
X102890827Y-70139409D02*
X102843208Y-70044171D01*
X102843208Y-70044171D02*
X102843208Y-69853695D01*
X102843208Y-69853695D02*
X102890827Y-69758457D01*
X102890827Y-69758457D02*
X102938446Y-69710838D01*
X102938446Y-69710838D02*
X103033684Y-69663219D01*
X103033684Y-69663219D02*
X103319398Y-69663219D01*
X103319398Y-69663219D02*
X103414636Y-69710838D01*
X103414636Y-69710838D02*
X103462256Y-69758457D01*
X103462256Y-69758457D02*
X103509875Y-69853695D01*
X103509875Y-69853695D02*
X103509875Y-70044171D01*
X103509875Y-70044171D02*
X103462256Y-70139409D01*
X103509875Y-69091790D02*
X103462256Y-69187028D01*
X103462256Y-69187028D02*
X103414636Y-69234647D01*
X103414636Y-69234647D02*
X103319398Y-69282266D01*
X103319398Y-69282266D02*
X103033684Y-69282266D01*
X103033684Y-69282266D02*
X102938446Y-69234647D01*
X102938446Y-69234647D02*
X102890827Y-69187028D01*
X102890827Y-69187028D02*
X102843208Y-69091790D01*
X102843208Y-69091790D02*
X102843208Y-68948933D01*
X102843208Y-68948933D02*
X102890827Y-68853695D01*
X102890827Y-68853695D02*
X102938446Y-68806076D01*
X102938446Y-68806076D02*
X103033684Y-68758457D01*
X103033684Y-68758457D02*
X103319398Y-68758457D01*
X103319398Y-68758457D02*
X103414636Y-68806076D01*
X103414636Y-68806076D02*
X103462256Y-68853695D01*
X103462256Y-68853695D02*
X103509875Y-68948933D01*
X103509875Y-68948933D02*
X103509875Y-69091790D01*
X103509875Y-68425123D02*
X102843208Y-67901314D01*
X102843208Y-68425123D02*
X103509875Y-67901314D01*
X103509875Y-66282266D02*
X103509875Y-66758456D01*
X103509875Y-66758456D02*
X102509875Y-66758456D01*
X103509875Y-65520361D02*
X102986065Y-65520361D01*
X102986065Y-65520361D02*
X102890827Y-65567980D01*
X102890827Y-65567980D02*
X102843208Y-65663218D01*
X102843208Y-65663218D02*
X102843208Y-65853694D01*
X102843208Y-65853694D02*
X102890827Y-65948932D01*
X103462256Y-65520361D02*
X103509875Y-65615599D01*
X103509875Y-65615599D02*
X103509875Y-65853694D01*
X103509875Y-65853694D02*
X103462256Y-65948932D01*
X103462256Y-65948932D02*
X103367017Y-65996551D01*
X103367017Y-65996551D02*
X103271779Y-65996551D01*
X103271779Y-65996551D02*
X103176541Y-65948932D01*
X103176541Y-65948932D02*
X103128922Y-65853694D01*
X103128922Y-65853694D02*
X103128922Y-65615599D01*
X103128922Y-65615599D02*
X103081303Y-65520361D01*
X103509875Y-65044170D02*
X102509875Y-65044170D01*
X102890827Y-65044170D02*
X102843208Y-64948932D01*
X102843208Y-64948932D02*
X102843208Y-64758456D01*
X102843208Y-64758456D02*
X102890827Y-64663218D01*
X102890827Y-64663218D02*
X102938446Y-64615599D01*
X102938446Y-64615599D02*
X103033684Y-64567980D01*
X103033684Y-64567980D02*
X103319398Y-64567980D01*
X103319398Y-64567980D02*
X103414636Y-64615599D01*
X103414636Y-64615599D02*
X103462256Y-64663218D01*
X103462256Y-64663218D02*
X103509875Y-64758456D01*
X103509875Y-64758456D02*
X103509875Y-64948932D01*
X103509875Y-64948932D02*
X103462256Y-65044170D01*
X103462256Y-64187027D02*
X103509875Y-64091789D01*
X103509875Y-64091789D02*
X103509875Y-63901313D01*
X103509875Y-63901313D02*
X103462256Y-63806075D01*
X103462256Y-63806075D02*
X103367017Y-63758456D01*
X103367017Y-63758456D02*
X103319398Y-63758456D01*
X103319398Y-63758456D02*
X103224160Y-63806075D01*
X103224160Y-63806075D02*
X103176541Y-63901313D01*
X103176541Y-63901313D02*
X103176541Y-64044170D01*
X103176541Y-64044170D02*
X103128922Y-64139408D01*
X103128922Y-64139408D02*
X103033684Y-64187027D01*
X103033684Y-64187027D02*
X102986065Y-64187027D01*
X102986065Y-64187027D02*
X102890827Y-64139408D01*
X102890827Y-64139408D02*
X102843208Y-64044170D01*
X102843208Y-64044170D02*
X102843208Y-63901313D01*
X102843208Y-63901313D02*
X102890827Y-63806075D01*
X103509875Y-62091789D02*
X103509875Y-62567979D01*
X103509875Y-62567979D02*
X102509875Y-62567979D01*
X103509875Y-61282265D02*
X103509875Y-61758455D01*
X103509875Y-61758455D02*
X102509875Y-61758455D01*
X103414636Y-60377503D02*
X103462256Y-60425122D01*
X103462256Y-60425122D02*
X103509875Y-60567979D01*
X103509875Y-60567979D02*
X103509875Y-60663217D01*
X103509875Y-60663217D02*
X103462256Y-60806074D01*
X103462256Y-60806074D02*
X103367017Y-60901312D01*
X103367017Y-60901312D02*
X103271779Y-60948931D01*
X103271779Y-60948931D02*
X103081303Y-60996550D01*
X103081303Y-60996550D02*
X102938446Y-60996550D01*
X102938446Y-60996550D02*
X102747970Y-60948931D01*
X102747970Y-60948931D02*
X102652732Y-60901312D01*
X102652732Y-60901312D02*
X102557494Y-60806074D01*
X102557494Y-60806074D02*
X102509875Y-60663217D01*
X102509875Y-60663217D02*
X102509875Y-60567979D01*
X102509875Y-60567979D02*
X102557494Y-60425122D01*
X102557494Y-60425122D02*
X102605113Y-60377503D01*
X105119819Y-80091792D02*
X104643628Y-80425125D01*
X105119819Y-80663220D02*
X104119819Y-80663220D01*
X104119819Y-80663220D02*
X104119819Y-80282268D01*
X104119819Y-80282268D02*
X104167438Y-80187030D01*
X104167438Y-80187030D02*
X104215057Y-80139411D01*
X104215057Y-80139411D02*
X104310295Y-80091792D01*
X104310295Y-80091792D02*
X104453152Y-80091792D01*
X104453152Y-80091792D02*
X104548390Y-80139411D01*
X104548390Y-80139411D02*
X104596009Y-80187030D01*
X104596009Y-80187030D02*
X104643628Y-80282268D01*
X104643628Y-80282268D02*
X104643628Y-80663220D01*
X105072200Y-79282268D02*
X105119819Y-79377506D01*
X105119819Y-79377506D02*
X105119819Y-79567982D01*
X105119819Y-79567982D02*
X105072200Y-79663220D01*
X105072200Y-79663220D02*
X104976961Y-79710839D01*
X104976961Y-79710839D02*
X104596009Y-79710839D01*
X104596009Y-79710839D02*
X104500771Y-79663220D01*
X104500771Y-79663220D02*
X104453152Y-79567982D01*
X104453152Y-79567982D02*
X104453152Y-79377506D01*
X104453152Y-79377506D02*
X104500771Y-79282268D01*
X104500771Y-79282268D02*
X104596009Y-79234649D01*
X104596009Y-79234649D02*
X104691247Y-79234649D01*
X104691247Y-79234649D02*
X104786485Y-79710839D01*
X104453152Y-78901315D02*
X105119819Y-78663220D01*
X105119819Y-78663220D02*
X104453152Y-78425125D01*
X104119819Y-77091791D02*
X104119819Y-76996553D01*
X104119819Y-76996553D02*
X104167438Y-76901315D01*
X104167438Y-76901315D02*
X104215057Y-76853696D01*
X104215057Y-76853696D02*
X104310295Y-76806077D01*
X104310295Y-76806077D02*
X104500771Y-76758458D01*
X104500771Y-76758458D02*
X104738866Y-76758458D01*
X104738866Y-76758458D02*
X104929342Y-76806077D01*
X104929342Y-76806077D02*
X105024580Y-76853696D01*
X105024580Y-76853696D02*
X105072200Y-76901315D01*
X105072200Y-76901315D02*
X105119819Y-76996553D01*
X105119819Y-76996553D02*
X105119819Y-77091791D01*
X105119819Y-77091791D02*
X105072200Y-77187029D01*
X105072200Y-77187029D02*
X105024580Y-77234648D01*
X105024580Y-77234648D02*
X104929342Y-77282267D01*
X104929342Y-77282267D02*
X104738866Y-77329886D01*
X104738866Y-77329886D02*
X104500771Y-77329886D01*
X104500771Y-77329886D02*
X104310295Y-77282267D01*
X104310295Y-77282267D02*
X104215057Y-77234648D01*
X104215057Y-77234648D02*
X104167438Y-77187029D01*
X104167438Y-77187029D02*
X104119819Y-77091791D01*
X105024580Y-76329886D02*
X105072200Y-76282267D01*
X105072200Y-76282267D02*
X105119819Y-76329886D01*
X105119819Y-76329886D02*
X105072200Y-76377505D01*
X105072200Y-76377505D02*
X105024580Y-76329886D01*
X105024580Y-76329886D02*
X105119819Y-76329886D01*
X105119819Y-75329887D02*
X105119819Y-75901315D01*
X105119819Y-75615601D02*
X104119819Y-75615601D01*
X104119819Y-75615601D02*
X104262676Y-75710839D01*
X104262676Y-75710839D02*
X104357914Y-75806077D01*
X104357914Y-75806077D02*
X104405533Y-75901315D01*
X105119819Y-74472744D02*
X104596009Y-74472744D01*
X104596009Y-74472744D02*
X104500771Y-74520363D01*
X104500771Y-74520363D02*
X104453152Y-74615601D01*
X104453152Y-74615601D02*
X104453152Y-74806077D01*
X104453152Y-74806077D02*
X104500771Y-74901315D01*
X105072200Y-74472744D02*
X105119819Y-74567982D01*
X105119819Y-74567982D02*
X105119819Y-74806077D01*
X105119819Y-74806077D02*
X105072200Y-74901315D01*
X105072200Y-74901315D02*
X104976961Y-74948934D01*
X104976961Y-74948934D02*
X104881723Y-74948934D01*
X104881723Y-74948934D02*
X104786485Y-74901315D01*
X104786485Y-74901315D02*
X104738866Y-74806077D01*
X104738866Y-74806077D02*
X104738866Y-74567982D01*
X104738866Y-74567982D02*
X104691247Y-74472744D01*
X139988095Y-62756819D02*
X140559523Y-62756819D01*
X140273809Y-63756819D02*
X140273809Y-62756819D01*
X140892857Y-63756819D02*
X140892857Y-62756819D01*
X140892857Y-62756819D02*
X141273809Y-62756819D01*
X141273809Y-62756819D02*
X141369047Y-62804438D01*
X141369047Y-62804438D02*
X141416666Y-62852057D01*
X141416666Y-62852057D02*
X141464285Y-62947295D01*
X141464285Y-62947295D02*
X141464285Y-63090152D01*
X141464285Y-63090152D02*
X141416666Y-63185390D01*
X141416666Y-63185390D02*
X141369047Y-63233009D01*
X141369047Y-63233009D02*
X141273809Y-63280628D01*
X141273809Y-63280628D02*
X140892857Y-63280628D01*
X142369047Y-62756819D02*
X141892857Y-62756819D01*
X141892857Y-62756819D02*
X141845238Y-63233009D01*
X141845238Y-63233009D02*
X141892857Y-63185390D01*
X141892857Y-63185390D02*
X141988095Y-63137771D01*
X141988095Y-63137771D02*
X142226190Y-63137771D01*
X142226190Y-63137771D02*
X142321428Y-63185390D01*
X142321428Y-63185390D02*
X142369047Y-63233009D01*
X142369047Y-63233009D02*
X142416666Y-63328247D01*
X142416666Y-63328247D02*
X142416666Y-63566342D01*
X142416666Y-63566342D02*
X142369047Y-63661580D01*
X142369047Y-63661580D02*
X142321428Y-63709200D01*
X142321428Y-63709200D02*
X142226190Y-63756819D01*
X142226190Y-63756819D02*
X141988095Y-63756819D01*
X141988095Y-63756819D02*
X141892857Y-63709200D01*
X141892857Y-63709200D02*
X141845238Y-63661580D01*
X123583333Y-73609580D02*
X123535714Y-73657200D01*
X123535714Y-73657200D02*
X123392857Y-73704819D01*
X123392857Y-73704819D02*
X123297619Y-73704819D01*
X123297619Y-73704819D02*
X123154762Y-73657200D01*
X123154762Y-73657200D02*
X123059524Y-73561961D01*
X123059524Y-73561961D02*
X123011905Y-73466723D01*
X123011905Y-73466723D02*
X122964286Y-73276247D01*
X122964286Y-73276247D02*
X122964286Y-73133390D01*
X122964286Y-73133390D02*
X123011905Y-72942914D01*
X123011905Y-72942914D02*
X123059524Y-72847676D01*
X123059524Y-72847676D02*
X123154762Y-72752438D01*
X123154762Y-72752438D02*
X123297619Y-72704819D01*
X123297619Y-72704819D02*
X123392857Y-72704819D01*
X123392857Y-72704819D02*
X123535714Y-72752438D01*
X123535714Y-72752438D02*
X123583333Y-72800057D01*
X124440476Y-73038152D02*
X124440476Y-73704819D01*
X124202381Y-72657200D02*
X123964286Y-73371485D01*
X123964286Y-73371485D02*
X124583333Y-73371485D01*
X142766666Y-66105633D02*
X142433333Y-66105633D01*
X142433333Y-66629443D02*
X142433333Y-65629443D01*
X142433333Y-65629443D02*
X142909523Y-65629443D01*
X143623809Y-66105633D02*
X143766666Y-66153252D01*
X143766666Y-66153252D02*
X143814285Y-66200871D01*
X143814285Y-66200871D02*
X143861904Y-66296109D01*
X143861904Y-66296109D02*
X143861904Y-66438966D01*
X143861904Y-66438966D02*
X143814285Y-66534204D01*
X143814285Y-66534204D02*
X143766666Y-66581824D01*
X143766666Y-66581824D02*
X143671428Y-66629443D01*
X143671428Y-66629443D02*
X143290476Y-66629443D01*
X143290476Y-66629443D02*
X143290476Y-65629443D01*
X143290476Y-65629443D02*
X143623809Y-65629443D01*
X143623809Y-65629443D02*
X143719047Y-65677062D01*
X143719047Y-65677062D02*
X143766666Y-65724681D01*
X143766666Y-65724681D02*
X143814285Y-65819919D01*
X143814285Y-65819919D02*
X143814285Y-65915157D01*
X143814285Y-65915157D02*
X143766666Y-66010395D01*
X143766666Y-66010395D02*
X143719047Y-66058014D01*
X143719047Y-66058014D02*
X143623809Y-66105633D01*
X143623809Y-66105633D02*
X143290476Y-66105633D01*
X144814285Y-66629443D02*
X144242857Y-66629443D01*
X144528571Y-66629443D02*
X144528571Y-65629443D01*
X144528571Y-65629443D02*
X144433333Y-65772300D01*
X144433333Y-65772300D02*
X144338095Y-65867538D01*
X144338095Y-65867538D02*
X144242857Y-65915157D01*
X145633333Y-66279580D02*
X145585714Y-66327200D01*
X145585714Y-66327200D02*
X145442857Y-66374819D01*
X145442857Y-66374819D02*
X145347619Y-66374819D01*
X145347619Y-66374819D02*
X145204762Y-66327200D01*
X145204762Y-66327200D02*
X145109524Y-66231961D01*
X145109524Y-66231961D02*
X145061905Y-66136723D01*
X145061905Y-66136723D02*
X145014286Y-65946247D01*
X145014286Y-65946247D02*
X145014286Y-65803390D01*
X145014286Y-65803390D02*
X145061905Y-65612914D01*
X145061905Y-65612914D02*
X145109524Y-65517676D01*
X145109524Y-65517676D02*
X145204762Y-65422438D01*
X145204762Y-65422438D02*
X145347619Y-65374819D01*
X145347619Y-65374819D02*
X145442857Y-65374819D01*
X145442857Y-65374819D02*
X145585714Y-65422438D01*
X145585714Y-65422438D02*
X145633333Y-65470057D01*
X145966667Y-65374819D02*
X146585714Y-65374819D01*
X146585714Y-65374819D02*
X146252381Y-65755771D01*
X146252381Y-65755771D02*
X146395238Y-65755771D01*
X146395238Y-65755771D02*
X146490476Y-65803390D01*
X146490476Y-65803390D02*
X146538095Y-65851009D01*
X146538095Y-65851009D02*
X146585714Y-65946247D01*
X146585714Y-65946247D02*
X146585714Y-66184342D01*
X146585714Y-66184342D02*
X146538095Y-66279580D01*
X146538095Y-66279580D02*
X146490476Y-66327200D01*
X146490476Y-66327200D02*
X146395238Y-66374819D01*
X146395238Y-66374819D02*
X146109524Y-66374819D01*
X146109524Y-66374819D02*
X146014286Y-66327200D01*
X146014286Y-66327200D02*
X145966667Y-66279580D01*
X138238095Y-77256819D02*
X138809523Y-77256819D01*
X138523809Y-78256819D02*
X138523809Y-77256819D01*
X139142857Y-78256819D02*
X139142857Y-77256819D01*
X139142857Y-77256819D02*
X139523809Y-77256819D01*
X139523809Y-77256819D02*
X139619047Y-77304438D01*
X139619047Y-77304438D02*
X139666666Y-77352057D01*
X139666666Y-77352057D02*
X139714285Y-77447295D01*
X139714285Y-77447295D02*
X139714285Y-77590152D01*
X139714285Y-77590152D02*
X139666666Y-77685390D01*
X139666666Y-77685390D02*
X139619047Y-77733009D01*
X139619047Y-77733009D02*
X139523809Y-77780628D01*
X139523809Y-77780628D02*
X139142857Y-77780628D01*
X140285714Y-77685390D02*
X140190476Y-77637771D01*
X140190476Y-77637771D02*
X140142857Y-77590152D01*
X140142857Y-77590152D02*
X140095238Y-77494914D01*
X140095238Y-77494914D02*
X140095238Y-77447295D01*
X140095238Y-77447295D02*
X140142857Y-77352057D01*
X140142857Y-77352057D02*
X140190476Y-77304438D01*
X140190476Y-77304438D02*
X140285714Y-77256819D01*
X140285714Y-77256819D02*
X140476190Y-77256819D01*
X140476190Y-77256819D02*
X140571428Y-77304438D01*
X140571428Y-77304438D02*
X140619047Y-77352057D01*
X140619047Y-77352057D02*
X140666666Y-77447295D01*
X140666666Y-77447295D02*
X140666666Y-77494914D01*
X140666666Y-77494914D02*
X140619047Y-77590152D01*
X140619047Y-77590152D02*
X140571428Y-77637771D01*
X140571428Y-77637771D02*
X140476190Y-77685390D01*
X140476190Y-77685390D02*
X140285714Y-77685390D01*
X140285714Y-77685390D02*
X140190476Y-77733009D01*
X140190476Y-77733009D02*
X140142857Y-77780628D01*
X140142857Y-77780628D02*
X140095238Y-77875866D01*
X140095238Y-77875866D02*
X140095238Y-78066342D01*
X140095238Y-78066342D02*
X140142857Y-78161580D01*
X140142857Y-78161580D02*
X140190476Y-78209200D01*
X140190476Y-78209200D02*
X140285714Y-78256819D01*
X140285714Y-78256819D02*
X140476190Y-78256819D01*
X140476190Y-78256819D02*
X140571428Y-78209200D01*
X140571428Y-78209200D02*
X140619047Y-78161580D01*
X140619047Y-78161580D02*
X140666666Y-78066342D01*
X140666666Y-78066342D02*
X140666666Y-77875866D01*
X140666666Y-77875866D02*
X140619047Y-77780628D01*
X140619047Y-77780628D02*
X140571428Y-77733009D01*
X140571428Y-77733009D02*
X140476190Y-77685390D01*
X154439580Y-66242857D02*
X154487200Y-66290476D01*
X154487200Y-66290476D02*
X154534819Y-66433333D01*
X154534819Y-66433333D02*
X154534819Y-66528571D01*
X154534819Y-66528571D02*
X154487200Y-66671428D01*
X154487200Y-66671428D02*
X154391961Y-66766666D01*
X154391961Y-66766666D02*
X154296723Y-66814285D01*
X154296723Y-66814285D02*
X154106247Y-66861904D01*
X154106247Y-66861904D02*
X153963390Y-66861904D01*
X153963390Y-66861904D02*
X153772914Y-66814285D01*
X153772914Y-66814285D02*
X153677676Y-66766666D01*
X153677676Y-66766666D02*
X153582438Y-66671428D01*
X153582438Y-66671428D02*
X153534819Y-66528571D01*
X153534819Y-66528571D02*
X153534819Y-66433333D01*
X153534819Y-66433333D02*
X153582438Y-66290476D01*
X153582438Y-66290476D02*
X153630057Y-66242857D01*
X154534819Y-65290476D02*
X154534819Y-65861904D01*
X154534819Y-65576190D02*
X153534819Y-65576190D01*
X153534819Y-65576190D02*
X153677676Y-65671428D01*
X153677676Y-65671428D02*
X153772914Y-65766666D01*
X153772914Y-65766666D02*
X153820533Y-65861904D01*
X153630057Y-64909523D02*
X153582438Y-64861904D01*
X153582438Y-64861904D02*
X153534819Y-64766666D01*
X153534819Y-64766666D02*
X153534819Y-64528571D01*
X153534819Y-64528571D02*
X153582438Y-64433333D01*
X153582438Y-64433333D02*
X153630057Y-64385714D01*
X153630057Y-64385714D02*
X153725295Y-64338095D01*
X153725295Y-64338095D02*
X153820533Y-64338095D01*
X153820533Y-64338095D02*
X153963390Y-64385714D01*
X153963390Y-64385714D02*
X154534819Y-64957142D01*
X154534819Y-64957142D02*
X154534819Y-64338095D01*
X150726060Y-96300617D02*
X150726060Y-97020488D01*
X150726060Y-97020488D02*
X150678068Y-97164462D01*
X150678068Y-97164462D02*
X150582086Y-97260445D01*
X150582086Y-97260445D02*
X150438111Y-97308436D01*
X150438111Y-97308436D02*
X150342129Y-97308436D01*
X151109991Y-96300617D02*
X151733879Y-96300617D01*
X151733879Y-96300617D02*
X151397939Y-96684548D01*
X151397939Y-96684548D02*
X151541913Y-96684548D01*
X151541913Y-96684548D02*
X151637896Y-96732539D01*
X151637896Y-96732539D02*
X151685887Y-96780531D01*
X151685887Y-96780531D02*
X151733879Y-96876513D01*
X151733879Y-96876513D02*
X151733879Y-97116470D01*
X151733879Y-97116470D02*
X151685887Y-97212453D01*
X151685887Y-97212453D02*
X151637896Y-97260445D01*
X151637896Y-97260445D02*
X151541913Y-97308436D01*
X151541913Y-97308436D02*
X151253965Y-97308436D01*
X151253965Y-97308436D02*
X151157982Y-97260445D01*
X151157982Y-97260445D02*
X151109991Y-97212453D01*
X132054819Y-56338094D02*
X131054819Y-56338094D01*
X131054819Y-56338094D02*
X131054819Y-56099999D01*
X131054819Y-56099999D02*
X131102438Y-55957142D01*
X131102438Y-55957142D02*
X131197676Y-55861904D01*
X131197676Y-55861904D02*
X131292914Y-55814285D01*
X131292914Y-55814285D02*
X131483390Y-55766666D01*
X131483390Y-55766666D02*
X131626247Y-55766666D01*
X131626247Y-55766666D02*
X131816723Y-55814285D01*
X131816723Y-55814285D02*
X131911961Y-55861904D01*
X131911961Y-55861904D02*
X132007200Y-55957142D01*
X132007200Y-55957142D02*
X132054819Y-56099999D01*
X132054819Y-56099999D02*
X132054819Y-56338094D01*
X131150057Y-55385713D02*
X131102438Y-55338094D01*
X131102438Y-55338094D02*
X131054819Y-55242856D01*
X131054819Y-55242856D02*
X131054819Y-55004761D01*
X131054819Y-55004761D02*
X131102438Y-54909523D01*
X131102438Y-54909523D02*
X131150057Y-54861904D01*
X131150057Y-54861904D02*
X131245295Y-54814285D01*
X131245295Y-54814285D02*
X131340533Y-54814285D01*
X131340533Y-54814285D02*
X131483390Y-54861904D01*
X131483390Y-54861904D02*
X132054819Y-55433332D01*
X132054819Y-55433332D02*
X132054819Y-54814285D01*
X160833333Y-74854819D02*
X160500000Y-74378628D01*
X160261905Y-74854819D02*
X160261905Y-73854819D01*
X160261905Y-73854819D02*
X160642857Y-73854819D01*
X160642857Y-73854819D02*
X160738095Y-73902438D01*
X160738095Y-73902438D02*
X160785714Y-73950057D01*
X160785714Y-73950057D02*
X160833333Y-74045295D01*
X160833333Y-74045295D02*
X160833333Y-74188152D01*
X160833333Y-74188152D02*
X160785714Y-74283390D01*
X160785714Y-74283390D02*
X160738095Y-74331009D01*
X160738095Y-74331009D02*
X160642857Y-74378628D01*
X160642857Y-74378628D02*
X160261905Y-74378628D01*
X161166667Y-73854819D02*
X161785714Y-73854819D01*
X161785714Y-73854819D02*
X161452381Y-74235771D01*
X161452381Y-74235771D02*
X161595238Y-74235771D01*
X161595238Y-74235771D02*
X161690476Y-74283390D01*
X161690476Y-74283390D02*
X161738095Y-74331009D01*
X161738095Y-74331009D02*
X161785714Y-74426247D01*
X161785714Y-74426247D02*
X161785714Y-74664342D01*
X161785714Y-74664342D02*
X161738095Y-74759580D01*
X161738095Y-74759580D02*
X161690476Y-74807200D01*
X161690476Y-74807200D02*
X161595238Y-74854819D01*
X161595238Y-74854819D02*
X161309524Y-74854819D01*
X161309524Y-74854819D02*
X161214286Y-74807200D01*
X161214286Y-74807200D02*
X161166667Y-74759580D01*
X138326060Y-96300617D02*
X138326060Y-97020488D01*
X138326060Y-97020488D02*
X138278068Y-97164462D01*
X138278068Y-97164462D02*
X138182086Y-97260445D01*
X138182086Y-97260445D02*
X138038111Y-97308436D01*
X138038111Y-97308436D02*
X137942129Y-97308436D01*
X139237896Y-96636557D02*
X139237896Y-97308436D01*
X138997939Y-96252626D02*
X138757982Y-96972496D01*
X138757982Y-96972496D02*
X139381870Y-96972496D01*
X155488095Y-50256819D02*
X156059523Y-50256819D01*
X155773809Y-51256819D02*
X155773809Y-50256819D01*
X156392857Y-51256819D02*
X156392857Y-50256819D01*
X156392857Y-50256819D02*
X156773809Y-50256819D01*
X156773809Y-50256819D02*
X156869047Y-50304438D01*
X156869047Y-50304438D02*
X156916666Y-50352057D01*
X156916666Y-50352057D02*
X156964285Y-50447295D01*
X156964285Y-50447295D02*
X156964285Y-50590152D01*
X156964285Y-50590152D02*
X156916666Y-50685390D01*
X156916666Y-50685390D02*
X156869047Y-50733009D01*
X156869047Y-50733009D02*
X156773809Y-50780628D01*
X156773809Y-50780628D02*
X156392857Y-50780628D01*
X157440476Y-51256819D02*
X157630952Y-51256819D01*
X157630952Y-51256819D02*
X157726190Y-51209200D01*
X157726190Y-51209200D02*
X157773809Y-51161580D01*
X157773809Y-51161580D02*
X157869047Y-51018723D01*
X157869047Y-51018723D02*
X157916666Y-50828247D01*
X157916666Y-50828247D02*
X157916666Y-50447295D01*
X157916666Y-50447295D02*
X157869047Y-50352057D01*
X157869047Y-50352057D02*
X157821428Y-50304438D01*
X157821428Y-50304438D02*
X157726190Y-50256819D01*
X157726190Y-50256819D02*
X157535714Y-50256819D01*
X157535714Y-50256819D02*
X157440476Y-50304438D01*
X157440476Y-50304438D02*
X157392857Y-50352057D01*
X157392857Y-50352057D02*
X157345238Y-50447295D01*
X157345238Y-50447295D02*
X157345238Y-50685390D01*
X157345238Y-50685390D02*
X157392857Y-50780628D01*
X157392857Y-50780628D02*
X157440476Y-50828247D01*
X157440476Y-50828247D02*
X157535714Y-50875866D01*
X157535714Y-50875866D02*
X157726190Y-50875866D01*
X157726190Y-50875866D02*
X157821428Y-50828247D01*
X157821428Y-50828247D02*
X157869047Y-50780628D01*
X157869047Y-50780628D02*
X157916666Y-50685390D01*
X121761905Y-64756819D02*
X122333333Y-64756819D01*
X122047619Y-65756819D02*
X122047619Y-64756819D01*
X122666667Y-65756819D02*
X122666667Y-64756819D01*
X122666667Y-64756819D02*
X123047619Y-64756819D01*
X123047619Y-64756819D02*
X123142857Y-64804438D01*
X123142857Y-64804438D02*
X123190476Y-64852057D01*
X123190476Y-64852057D02*
X123238095Y-64947295D01*
X123238095Y-64947295D02*
X123238095Y-65090152D01*
X123238095Y-65090152D02*
X123190476Y-65185390D01*
X123190476Y-65185390D02*
X123142857Y-65233009D01*
X123142857Y-65233009D02*
X123047619Y-65280628D01*
X123047619Y-65280628D02*
X122666667Y-65280628D01*
X124190476Y-65756819D02*
X123619048Y-65756819D01*
X123904762Y-65756819D02*
X123904762Y-64756819D01*
X123904762Y-64756819D02*
X123809524Y-64899676D01*
X123809524Y-64899676D02*
X123714286Y-64994914D01*
X123714286Y-64994914D02*
X123619048Y-65042533D01*
X124523810Y-64756819D02*
X125142857Y-64756819D01*
X125142857Y-64756819D02*
X124809524Y-65137771D01*
X124809524Y-65137771D02*
X124952381Y-65137771D01*
X124952381Y-65137771D02*
X125047619Y-65185390D01*
X125047619Y-65185390D02*
X125095238Y-65233009D01*
X125095238Y-65233009D02*
X125142857Y-65328247D01*
X125142857Y-65328247D02*
X125142857Y-65566342D01*
X125142857Y-65566342D02*
X125095238Y-65661580D01*
X125095238Y-65661580D02*
X125047619Y-65709200D01*
X125047619Y-65709200D02*
X124952381Y-65756819D01*
X124952381Y-65756819D02*
X124666667Y-65756819D01*
X124666667Y-65756819D02*
X124571429Y-65709200D01*
X124571429Y-65709200D02*
X124523810Y-65661580D01*
X140261905Y-50454819D02*
X140833333Y-50454819D01*
X140547619Y-51454819D02*
X140547619Y-50454819D01*
X141166667Y-51454819D02*
X141166667Y-50454819D01*
X141166667Y-50454819D02*
X141547619Y-50454819D01*
X141547619Y-50454819D02*
X141642857Y-50502438D01*
X141642857Y-50502438D02*
X141690476Y-50550057D01*
X141690476Y-50550057D02*
X141738095Y-50645295D01*
X141738095Y-50645295D02*
X141738095Y-50788152D01*
X141738095Y-50788152D02*
X141690476Y-50883390D01*
X141690476Y-50883390D02*
X141642857Y-50931009D01*
X141642857Y-50931009D02*
X141547619Y-50978628D01*
X141547619Y-50978628D02*
X141166667Y-50978628D01*
X142690476Y-51454819D02*
X142119048Y-51454819D01*
X142404762Y-51454819D02*
X142404762Y-50454819D01*
X142404762Y-50454819D02*
X142309524Y-50597676D01*
X142309524Y-50597676D02*
X142214286Y-50692914D01*
X142214286Y-50692914D02*
X142119048Y-50740533D01*
X143547619Y-50788152D02*
X143547619Y-51454819D01*
X143309524Y-50407200D02*
X143071429Y-51121485D01*
X143071429Y-51121485D02*
X143690476Y-51121485D01*
X137619142Y-84054819D02*
X137285809Y-83578628D01*
X137047714Y-84054819D02*
X137047714Y-83054819D01*
X137047714Y-83054819D02*
X137428666Y-83054819D01*
X137428666Y-83054819D02*
X137523904Y-83102438D01*
X137523904Y-83102438D02*
X137571523Y-83150057D01*
X137571523Y-83150057D02*
X137619142Y-83245295D01*
X137619142Y-83245295D02*
X137619142Y-83388152D01*
X137619142Y-83388152D02*
X137571523Y-83483390D01*
X137571523Y-83483390D02*
X137523904Y-83531009D01*
X137523904Y-83531009D02*
X137428666Y-83578628D01*
X137428666Y-83578628D02*
X137047714Y-83578628D01*
X138000095Y-83150057D02*
X138047714Y-83102438D01*
X138047714Y-83102438D02*
X138142952Y-83054819D01*
X138142952Y-83054819D02*
X138381047Y-83054819D01*
X138381047Y-83054819D02*
X138476285Y-83102438D01*
X138476285Y-83102438D02*
X138523904Y-83150057D01*
X138523904Y-83150057D02*
X138571523Y-83245295D01*
X138571523Y-83245295D02*
X138571523Y-83340533D01*
X138571523Y-83340533D02*
X138523904Y-83483390D01*
X138523904Y-83483390D02*
X137952476Y-84054819D01*
X137952476Y-84054819D02*
X138571523Y-84054819D01*
X139523904Y-84054819D02*
X138952476Y-84054819D01*
X139238190Y-84054819D02*
X139238190Y-83054819D01*
X139238190Y-83054819D02*
X139142952Y-83197676D01*
X139142952Y-83197676D02*
X139047714Y-83292914D01*
X139047714Y-83292914D02*
X138952476Y-83340533D01*
X125988095Y-76756819D02*
X126559523Y-76756819D01*
X126273809Y-77756819D02*
X126273809Y-76756819D01*
X126892857Y-77756819D02*
X126892857Y-76756819D01*
X126892857Y-76756819D02*
X127273809Y-76756819D01*
X127273809Y-76756819D02*
X127369047Y-76804438D01*
X127369047Y-76804438D02*
X127416666Y-76852057D01*
X127416666Y-76852057D02*
X127464285Y-76947295D01*
X127464285Y-76947295D02*
X127464285Y-77090152D01*
X127464285Y-77090152D02*
X127416666Y-77185390D01*
X127416666Y-77185390D02*
X127369047Y-77233009D01*
X127369047Y-77233009D02*
X127273809Y-77280628D01*
X127273809Y-77280628D02*
X126892857Y-77280628D01*
X128321428Y-76756819D02*
X128130952Y-76756819D01*
X128130952Y-76756819D02*
X128035714Y-76804438D01*
X128035714Y-76804438D02*
X127988095Y-76852057D01*
X127988095Y-76852057D02*
X127892857Y-76994914D01*
X127892857Y-76994914D02*
X127845238Y-77185390D01*
X127845238Y-77185390D02*
X127845238Y-77566342D01*
X127845238Y-77566342D02*
X127892857Y-77661580D01*
X127892857Y-77661580D02*
X127940476Y-77709200D01*
X127940476Y-77709200D02*
X128035714Y-77756819D01*
X128035714Y-77756819D02*
X128226190Y-77756819D01*
X128226190Y-77756819D02*
X128321428Y-77709200D01*
X128321428Y-77709200D02*
X128369047Y-77661580D01*
X128369047Y-77661580D02*
X128416666Y-77566342D01*
X128416666Y-77566342D02*
X128416666Y-77328247D01*
X128416666Y-77328247D02*
X128369047Y-77233009D01*
X128369047Y-77233009D02*
X128321428Y-77185390D01*
X128321428Y-77185390D02*
X128226190Y-77137771D01*
X128226190Y-77137771D02*
X128035714Y-77137771D01*
X128035714Y-77137771D02*
X127940476Y-77185390D01*
X127940476Y-77185390D02*
X127892857Y-77233009D01*
X127892857Y-77233009D02*
X127845238Y-77328247D01*
X160633333Y-78654819D02*
X160300000Y-78178628D01*
X160061905Y-78654819D02*
X160061905Y-77654819D01*
X160061905Y-77654819D02*
X160442857Y-77654819D01*
X160442857Y-77654819D02*
X160538095Y-77702438D01*
X160538095Y-77702438D02*
X160585714Y-77750057D01*
X160585714Y-77750057D02*
X160633333Y-77845295D01*
X160633333Y-77845295D02*
X160633333Y-77988152D01*
X160633333Y-77988152D02*
X160585714Y-78083390D01*
X160585714Y-78083390D02*
X160538095Y-78131009D01*
X160538095Y-78131009D02*
X160442857Y-78178628D01*
X160442857Y-78178628D02*
X160061905Y-78178628D01*
X161490476Y-77654819D02*
X161300000Y-77654819D01*
X161300000Y-77654819D02*
X161204762Y-77702438D01*
X161204762Y-77702438D02*
X161157143Y-77750057D01*
X161157143Y-77750057D02*
X161061905Y-77892914D01*
X161061905Y-77892914D02*
X161014286Y-78083390D01*
X161014286Y-78083390D02*
X161014286Y-78464342D01*
X161014286Y-78464342D02*
X161061905Y-78559580D01*
X161061905Y-78559580D02*
X161109524Y-78607200D01*
X161109524Y-78607200D02*
X161204762Y-78654819D01*
X161204762Y-78654819D02*
X161395238Y-78654819D01*
X161395238Y-78654819D02*
X161490476Y-78607200D01*
X161490476Y-78607200D02*
X161538095Y-78559580D01*
X161538095Y-78559580D02*
X161585714Y-78464342D01*
X161585714Y-78464342D02*
X161585714Y-78226247D01*
X161585714Y-78226247D02*
X161538095Y-78131009D01*
X161538095Y-78131009D02*
X161490476Y-78083390D01*
X161490476Y-78083390D02*
X161395238Y-78035771D01*
X161395238Y-78035771D02*
X161204762Y-78035771D01*
X161204762Y-78035771D02*
X161109524Y-78083390D01*
X161109524Y-78083390D02*
X161061905Y-78131009D01*
X161061905Y-78131009D02*
X161014286Y-78226247D01*
X138933333Y-70854819D02*
X138600000Y-70378628D01*
X138361905Y-70854819D02*
X138361905Y-69854819D01*
X138361905Y-69854819D02*
X138742857Y-69854819D01*
X138742857Y-69854819D02*
X138838095Y-69902438D01*
X138838095Y-69902438D02*
X138885714Y-69950057D01*
X138885714Y-69950057D02*
X138933333Y-70045295D01*
X138933333Y-70045295D02*
X138933333Y-70188152D01*
X138933333Y-70188152D02*
X138885714Y-70283390D01*
X138885714Y-70283390D02*
X138838095Y-70331009D01*
X138838095Y-70331009D02*
X138742857Y-70378628D01*
X138742857Y-70378628D02*
X138361905Y-70378628D01*
X139504762Y-70283390D02*
X139409524Y-70235771D01*
X139409524Y-70235771D02*
X139361905Y-70188152D01*
X139361905Y-70188152D02*
X139314286Y-70092914D01*
X139314286Y-70092914D02*
X139314286Y-70045295D01*
X139314286Y-70045295D02*
X139361905Y-69950057D01*
X139361905Y-69950057D02*
X139409524Y-69902438D01*
X139409524Y-69902438D02*
X139504762Y-69854819D01*
X139504762Y-69854819D02*
X139695238Y-69854819D01*
X139695238Y-69854819D02*
X139790476Y-69902438D01*
X139790476Y-69902438D02*
X139838095Y-69950057D01*
X139838095Y-69950057D02*
X139885714Y-70045295D01*
X139885714Y-70045295D02*
X139885714Y-70092914D01*
X139885714Y-70092914D02*
X139838095Y-70188152D01*
X139838095Y-70188152D02*
X139790476Y-70235771D01*
X139790476Y-70235771D02*
X139695238Y-70283390D01*
X139695238Y-70283390D02*
X139504762Y-70283390D01*
X139504762Y-70283390D02*
X139409524Y-70331009D01*
X139409524Y-70331009D02*
X139361905Y-70378628D01*
X139361905Y-70378628D02*
X139314286Y-70473866D01*
X139314286Y-70473866D02*
X139314286Y-70664342D01*
X139314286Y-70664342D02*
X139361905Y-70759580D01*
X139361905Y-70759580D02*
X139409524Y-70807200D01*
X139409524Y-70807200D02*
X139504762Y-70854819D01*
X139504762Y-70854819D02*
X139695238Y-70854819D01*
X139695238Y-70854819D02*
X139790476Y-70807200D01*
X139790476Y-70807200D02*
X139838095Y-70759580D01*
X139838095Y-70759580D02*
X139885714Y-70664342D01*
X139885714Y-70664342D02*
X139885714Y-70473866D01*
X139885714Y-70473866D02*
X139838095Y-70378628D01*
X139838095Y-70378628D02*
X139790476Y-70331009D01*
X139790476Y-70331009D02*
X139695238Y-70283390D01*
X143695333Y-84129580D02*
X143647714Y-84177200D01*
X143647714Y-84177200D02*
X143504857Y-84224819D01*
X143504857Y-84224819D02*
X143409619Y-84224819D01*
X143409619Y-84224819D02*
X143266762Y-84177200D01*
X143266762Y-84177200D02*
X143171524Y-84081961D01*
X143171524Y-84081961D02*
X143123905Y-83986723D01*
X143123905Y-83986723D02*
X143076286Y-83796247D01*
X143076286Y-83796247D02*
X143076286Y-83653390D01*
X143076286Y-83653390D02*
X143123905Y-83462914D01*
X143123905Y-83462914D02*
X143171524Y-83367676D01*
X143171524Y-83367676D02*
X143266762Y-83272438D01*
X143266762Y-83272438D02*
X143409619Y-83224819D01*
X143409619Y-83224819D02*
X143504857Y-83224819D01*
X143504857Y-83224819D02*
X143647714Y-83272438D01*
X143647714Y-83272438D02*
X143695333Y-83320057D01*
X144171524Y-84224819D02*
X144362000Y-84224819D01*
X144362000Y-84224819D02*
X144457238Y-84177200D01*
X144457238Y-84177200D02*
X144504857Y-84129580D01*
X144504857Y-84129580D02*
X144600095Y-83986723D01*
X144600095Y-83986723D02*
X144647714Y-83796247D01*
X144647714Y-83796247D02*
X144647714Y-83415295D01*
X144647714Y-83415295D02*
X144600095Y-83320057D01*
X144600095Y-83320057D02*
X144552476Y-83272438D01*
X144552476Y-83272438D02*
X144457238Y-83224819D01*
X144457238Y-83224819D02*
X144266762Y-83224819D01*
X144266762Y-83224819D02*
X144171524Y-83272438D01*
X144171524Y-83272438D02*
X144123905Y-83320057D01*
X144123905Y-83320057D02*
X144076286Y-83415295D01*
X144076286Y-83415295D02*
X144076286Y-83653390D01*
X144076286Y-83653390D02*
X144123905Y-83748628D01*
X144123905Y-83748628D02*
X144171524Y-83796247D01*
X144171524Y-83796247D02*
X144266762Y-83843866D01*
X144266762Y-83843866D02*
X144457238Y-83843866D01*
X144457238Y-83843866D02*
X144552476Y-83796247D01*
X144552476Y-83796247D02*
X144600095Y-83748628D01*
X144600095Y-83748628D02*
X144647714Y-83653390D01*
X125738095Y-72756819D02*
X126309523Y-72756819D01*
X126023809Y-73756819D02*
X126023809Y-72756819D01*
X126642857Y-73756819D02*
X126642857Y-72756819D01*
X126642857Y-72756819D02*
X127023809Y-72756819D01*
X127023809Y-72756819D02*
X127119047Y-72804438D01*
X127119047Y-72804438D02*
X127166666Y-72852057D01*
X127166666Y-72852057D02*
X127214285Y-72947295D01*
X127214285Y-72947295D02*
X127214285Y-73090152D01*
X127214285Y-73090152D02*
X127166666Y-73185390D01*
X127166666Y-73185390D02*
X127119047Y-73233009D01*
X127119047Y-73233009D02*
X127023809Y-73280628D01*
X127023809Y-73280628D02*
X126642857Y-73280628D01*
X127547619Y-72756819D02*
X128166666Y-72756819D01*
X128166666Y-72756819D02*
X127833333Y-73137771D01*
X127833333Y-73137771D02*
X127976190Y-73137771D01*
X127976190Y-73137771D02*
X128071428Y-73185390D01*
X128071428Y-73185390D02*
X128119047Y-73233009D01*
X128119047Y-73233009D02*
X128166666Y-73328247D01*
X128166666Y-73328247D02*
X128166666Y-73566342D01*
X128166666Y-73566342D02*
X128119047Y-73661580D01*
X128119047Y-73661580D02*
X128071428Y-73709200D01*
X128071428Y-73709200D02*
X127976190Y-73756819D01*
X127976190Y-73756819D02*
X127690476Y-73756819D01*
X127690476Y-73756819D02*
X127595238Y-73709200D01*
X127595238Y-73709200D02*
X127547619Y-73661580D01*
X154478628Y-71226190D02*
X154954819Y-71226190D01*
X153954819Y-71559523D02*
X154478628Y-71226190D01*
X154478628Y-71226190D02*
X153954819Y-70892857D01*
X153954819Y-70654761D02*
X153954819Y-70035714D01*
X153954819Y-70035714D02*
X154335771Y-70369047D01*
X154335771Y-70369047D02*
X154335771Y-70226190D01*
X154335771Y-70226190D02*
X154383390Y-70130952D01*
X154383390Y-70130952D02*
X154431009Y-70083333D01*
X154431009Y-70083333D02*
X154526247Y-70035714D01*
X154526247Y-70035714D02*
X154764342Y-70035714D01*
X154764342Y-70035714D02*
X154859580Y-70083333D01*
X154859580Y-70083333D02*
X154907200Y-70130952D01*
X154907200Y-70130952D02*
X154954819Y-70226190D01*
X154954819Y-70226190D02*
X154954819Y-70511904D01*
X154954819Y-70511904D02*
X154907200Y-70607142D01*
X154907200Y-70607142D02*
X154859580Y-70654761D01*
X122988095Y-68454819D02*
X123559523Y-68454819D01*
X123273809Y-69454819D02*
X123273809Y-68454819D01*
X123892857Y-69454819D02*
X123892857Y-68454819D01*
X123892857Y-68454819D02*
X124273809Y-68454819D01*
X124273809Y-68454819D02*
X124369047Y-68502438D01*
X124369047Y-68502438D02*
X124416666Y-68550057D01*
X124416666Y-68550057D02*
X124464285Y-68645295D01*
X124464285Y-68645295D02*
X124464285Y-68788152D01*
X124464285Y-68788152D02*
X124416666Y-68883390D01*
X124416666Y-68883390D02*
X124369047Y-68931009D01*
X124369047Y-68931009D02*
X124273809Y-68978628D01*
X124273809Y-68978628D02*
X123892857Y-68978628D01*
X124797619Y-68454819D02*
X125464285Y-68454819D01*
X125464285Y-68454819D02*
X125035714Y-69454819D01*
X111033333Y-51254819D02*
X110700000Y-50778628D01*
X110461905Y-51254819D02*
X110461905Y-50254819D01*
X110461905Y-50254819D02*
X110842857Y-50254819D01*
X110842857Y-50254819D02*
X110938095Y-50302438D01*
X110938095Y-50302438D02*
X110985714Y-50350057D01*
X110985714Y-50350057D02*
X111033333Y-50445295D01*
X111033333Y-50445295D02*
X111033333Y-50588152D01*
X111033333Y-50588152D02*
X110985714Y-50683390D01*
X110985714Y-50683390D02*
X110938095Y-50731009D01*
X110938095Y-50731009D02*
X110842857Y-50778628D01*
X110842857Y-50778628D02*
X110461905Y-50778628D01*
X111509524Y-51254819D02*
X111700000Y-51254819D01*
X111700000Y-51254819D02*
X111795238Y-51207200D01*
X111795238Y-51207200D02*
X111842857Y-51159580D01*
X111842857Y-51159580D02*
X111938095Y-51016723D01*
X111938095Y-51016723D02*
X111985714Y-50826247D01*
X111985714Y-50826247D02*
X111985714Y-50445295D01*
X111985714Y-50445295D02*
X111938095Y-50350057D01*
X111938095Y-50350057D02*
X111890476Y-50302438D01*
X111890476Y-50302438D02*
X111795238Y-50254819D01*
X111795238Y-50254819D02*
X111604762Y-50254819D01*
X111604762Y-50254819D02*
X111509524Y-50302438D01*
X111509524Y-50302438D02*
X111461905Y-50350057D01*
X111461905Y-50350057D02*
X111414286Y-50445295D01*
X111414286Y-50445295D02*
X111414286Y-50683390D01*
X111414286Y-50683390D02*
X111461905Y-50778628D01*
X111461905Y-50778628D02*
X111509524Y-50826247D01*
X111509524Y-50826247D02*
X111604762Y-50873866D01*
X111604762Y-50873866D02*
X111795238Y-50873866D01*
X111795238Y-50873866D02*
X111890476Y-50826247D01*
X111890476Y-50826247D02*
X111938095Y-50778628D01*
X111938095Y-50778628D02*
X111985714Y-50683390D01*
X116738095Y-67704819D02*
X117309523Y-67704819D01*
X117023809Y-68704819D02*
X117023809Y-67704819D01*
X117642857Y-68704819D02*
X117642857Y-67704819D01*
X117642857Y-67704819D02*
X118023809Y-67704819D01*
X118023809Y-67704819D02*
X118119047Y-67752438D01*
X118119047Y-67752438D02*
X118166666Y-67800057D01*
X118166666Y-67800057D02*
X118214285Y-67895295D01*
X118214285Y-67895295D02*
X118214285Y-68038152D01*
X118214285Y-68038152D02*
X118166666Y-68133390D01*
X118166666Y-68133390D02*
X118119047Y-68181009D01*
X118119047Y-68181009D02*
X118023809Y-68228628D01*
X118023809Y-68228628D02*
X117642857Y-68228628D01*
X119071428Y-68038152D02*
X119071428Y-68704819D01*
X118833333Y-67657200D02*
X118595238Y-68371485D01*
X118595238Y-68371485D02*
X119214285Y-68371485D01*
X160833333Y-76654819D02*
X160500000Y-76178628D01*
X160261905Y-76654819D02*
X160261905Y-75654819D01*
X160261905Y-75654819D02*
X160642857Y-75654819D01*
X160642857Y-75654819D02*
X160738095Y-75702438D01*
X160738095Y-75702438D02*
X160785714Y-75750057D01*
X160785714Y-75750057D02*
X160833333Y-75845295D01*
X160833333Y-75845295D02*
X160833333Y-75988152D01*
X160833333Y-75988152D02*
X160785714Y-76083390D01*
X160785714Y-76083390D02*
X160738095Y-76131009D01*
X160738095Y-76131009D02*
X160642857Y-76178628D01*
X160642857Y-76178628D02*
X160261905Y-76178628D01*
X161738095Y-75654819D02*
X161261905Y-75654819D01*
X161261905Y-75654819D02*
X161214286Y-76131009D01*
X161214286Y-76131009D02*
X161261905Y-76083390D01*
X161261905Y-76083390D02*
X161357143Y-76035771D01*
X161357143Y-76035771D02*
X161595238Y-76035771D01*
X161595238Y-76035771D02*
X161690476Y-76083390D01*
X161690476Y-76083390D02*
X161738095Y-76131009D01*
X161738095Y-76131009D02*
X161785714Y-76226247D01*
X161785714Y-76226247D02*
X161785714Y-76464342D01*
X161785714Y-76464342D02*
X161738095Y-76559580D01*
X161738095Y-76559580D02*
X161690476Y-76607200D01*
X161690476Y-76607200D02*
X161595238Y-76654819D01*
X161595238Y-76654819D02*
X161357143Y-76654819D01*
X161357143Y-76654819D02*
X161261905Y-76607200D01*
X161261905Y-76607200D02*
X161214286Y-76559580D01*
X118704819Y-73642857D02*
X118228628Y-73976190D01*
X118704819Y-74214285D02*
X117704819Y-74214285D01*
X117704819Y-74214285D02*
X117704819Y-73833333D01*
X117704819Y-73833333D02*
X117752438Y-73738095D01*
X117752438Y-73738095D02*
X117800057Y-73690476D01*
X117800057Y-73690476D02*
X117895295Y-73642857D01*
X117895295Y-73642857D02*
X118038152Y-73642857D01*
X118038152Y-73642857D02*
X118133390Y-73690476D01*
X118133390Y-73690476D02*
X118181009Y-73738095D01*
X118181009Y-73738095D02*
X118228628Y-73833333D01*
X118228628Y-73833333D02*
X118228628Y-74214285D01*
X118704819Y-72690476D02*
X118704819Y-73261904D01*
X118704819Y-72976190D02*
X117704819Y-72976190D01*
X117704819Y-72976190D02*
X117847676Y-73071428D01*
X117847676Y-73071428D02*
X117942914Y-73166666D01*
X117942914Y-73166666D02*
X117990533Y-73261904D01*
X117800057Y-72309523D02*
X117752438Y-72261904D01*
X117752438Y-72261904D02*
X117704819Y-72166666D01*
X117704819Y-72166666D02*
X117704819Y-71928571D01*
X117704819Y-71928571D02*
X117752438Y-71833333D01*
X117752438Y-71833333D02*
X117800057Y-71785714D01*
X117800057Y-71785714D02*
X117895295Y-71738095D01*
X117895295Y-71738095D02*
X117990533Y-71738095D01*
X117990533Y-71738095D02*
X118133390Y-71785714D01*
X118133390Y-71785714D02*
X118704819Y-72357142D01*
X118704819Y-72357142D02*
X118704819Y-71738095D01*
X148359580Y-65842857D02*
X148407200Y-65890476D01*
X148407200Y-65890476D02*
X148454819Y-66033333D01*
X148454819Y-66033333D02*
X148454819Y-66128571D01*
X148454819Y-66128571D02*
X148407200Y-66271428D01*
X148407200Y-66271428D02*
X148311961Y-66366666D01*
X148311961Y-66366666D02*
X148216723Y-66414285D01*
X148216723Y-66414285D02*
X148026247Y-66461904D01*
X148026247Y-66461904D02*
X147883390Y-66461904D01*
X147883390Y-66461904D02*
X147692914Y-66414285D01*
X147692914Y-66414285D02*
X147597676Y-66366666D01*
X147597676Y-66366666D02*
X147502438Y-66271428D01*
X147502438Y-66271428D02*
X147454819Y-66128571D01*
X147454819Y-66128571D02*
X147454819Y-66033333D01*
X147454819Y-66033333D02*
X147502438Y-65890476D01*
X147502438Y-65890476D02*
X147550057Y-65842857D01*
X148454819Y-64890476D02*
X148454819Y-65461904D01*
X148454819Y-65176190D02*
X147454819Y-65176190D01*
X147454819Y-65176190D02*
X147597676Y-65271428D01*
X147597676Y-65271428D02*
X147692914Y-65366666D01*
X147692914Y-65366666D02*
X147740533Y-65461904D01*
X147454819Y-64271428D02*
X147454819Y-64176190D01*
X147454819Y-64176190D02*
X147502438Y-64080952D01*
X147502438Y-64080952D02*
X147550057Y-64033333D01*
X147550057Y-64033333D02*
X147645295Y-63985714D01*
X147645295Y-63985714D02*
X147835771Y-63938095D01*
X147835771Y-63938095D02*
X148073866Y-63938095D01*
X148073866Y-63938095D02*
X148264342Y-63985714D01*
X148264342Y-63985714D02*
X148359580Y-64033333D01*
X148359580Y-64033333D02*
X148407200Y-64080952D01*
X148407200Y-64080952D02*
X148454819Y-64176190D01*
X148454819Y-64176190D02*
X148454819Y-64271428D01*
X148454819Y-64271428D02*
X148407200Y-64366666D01*
X148407200Y-64366666D02*
X148359580Y-64414285D01*
X148359580Y-64414285D02*
X148264342Y-64461904D01*
X148264342Y-64461904D02*
X148073866Y-64509523D01*
X148073866Y-64509523D02*
X147835771Y-64509523D01*
X147835771Y-64509523D02*
X147645295Y-64461904D01*
X147645295Y-64461904D02*
X147550057Y-64414285D01*
X147550057Y-64414285D02*
X147502438Y-64366666D01*
X147502438Y-64366666D02*
X147454819Y-64271428D01*
X127488095Y-82454819D02*
X128059523Y-82454819D01*
X127773809Y-83454819D02*
X127773809Y-82454819D01*
X128392857Y-83454819D02*
X128392857Y-82454819D01*
X128392857Y-82454819D02*
X128773809Y-82454819D01*
X128773809Y-82454819D02*
X128869047Y-82502438D01*
X128869047Y-82502438D02*
X128916666Y-82550057D01*
X128916666Y-82550057D02*
X128964285Y-82645295D01*
X128964285Y-82645295D02*
X128964285Y-82788152D01*
X128964285Y-82788152D02*
X128916666Y-82883390D01*
X128916666Y-82883390D02*
X128869047Y-82931009D01*
X128869047Y-82931009D02*
X128773809Y-82978628D01*
X128773809Y-82978628D02*
X128392857Y-82978628D01*
X129916666Y-83454819D02*
X129345238Y-83454819D01*
X129630952Y-83454819D02*
X129630952Y-82454819D01*
X129630952Y-82454819D02*
X129535714Y-82597676D01*
X129535714Y-82597676D02*
X129440476Y-82692914D01*
X129440476Y-82692914D02*
X129345238Y-82740533D01*
X118854819Y-56538094D02*
X117854819Y-56538094D01*
X117854819Y-56538094D02*
X117854819Y-56299999D01*
X117854819Y-56299999D02*
X117902438Y-56157142D01*
X117902438Y-56157142D02*
X117997676Y-56061904D01*
X117997676Y-56061904D02*
X118092914Y-56014285D01*
X118092914Y-56014285D02*
X118283390Y-55966666D01*
X118283390Y-55966666D02*
X118426247Y-55966666D01*
X118426247Y-55966666D02*
X118616723Y-56014285D01*
X118616723Y-56014285D02*
X118711961Y-56061904D01*
X118711961Y-56061904D02*
X118807200Y-56157142D01*
X118807200Y-56157142D02*
X118854819Y-56299999D01*
X118854819Y-56299999D02*
X118854819Y-56538094D01*
X118854819Y-55014285D02*
X118854819Y-55585713D01*
X118854819Y-55299999D02*
X117854819Y-55299999D01*
X117854819Y-55299999D02*
X117997676Y-55395237D01*
X117997676Y-55395237D02*
X118092914Y-55490475D01*
X118092914Y-55490475D02*
X118140533Y-55585713D01*
X150957142Y-84004819D02*
X150623809Y-83528628D01*
X150385714Y-84004819D02*
X150385714Y-83004819D01*
X150385714Y-83004819D02*
X150766666Y-83004819D01*
X150766666Y-83004819D02*
X150861904Y-83052438D01*
X150861904Y-83052438D02*
X150909523Y-83100057D01*
X150909523Y-83100057D02*
X150957142Y-83195295D01*
X150957142Y-83195295D02*
X150957142Y-83338152D01*
X150957142Y-83338152D02*
X150909523Y-83433390D01*
X150909523Y-83433390D02*
X150861904Y-83481009D01*
X150861904Y-83481009D02*
X150766666Y-83528628D01*
X150766666Y-83528628D02*
X150385714Y-83528628D01*
X151338095Y-83100057D02*
X151385714Y-83052438D01*
X151385714Y-83052438D02*
X151480952Y-83004819D01*
X151480952Y-83004819D02*
X151719047Y-83004819D01*
X151719047Y-83004819D02*
X151814285Y-83052438D01*
X151814285Y-83052438D02*
X151861904Y-83100057D01*
X151861904Y-83100057D02*
X151909523Y-83195295D01*
X151909523Y-83195295D02*
X151909523Y-83290533D01*
X151909523Y-83290533D02*
X151861904Y-83433390D01*
X151861904Y-83433390D02*
X151290476Y-84004819D01*
X151290476Y-84004819D02*
X151909523Y-84004819D01*
X152528571Y-83004819D02*
X152623809Y-83004819D01*
X152623809Y-83004819D02*
X152719047Y-83052438D01*
X152719047Y-83052438D02*
X152766666Y-83100057D01*
X152766666Y-83100057D02*
X152814285Y-83195295D01*
X152814285Y-83195295D02*
X152861904Y-83385771D01*
X152861904Y-83385771D02*
X152861904Y-83623866D01*
X152861904Y-83623866D02*
X152814285Y-83814342D01*
X152814285Y-83814342D02*
X152766666Y-83909580D01*
X152766666Y-83909580D02*
X152719047Y-83957200D01*
X152719047Y-83957200D02*
X152623809Y-84004819D01*
X152623809Y-84004819D02*
X152528571Y-84004819D01*
X152528571Y-84004819D02*
X152433333Y-83957200D01*
X152433333Y-83957200D02*
X152385714Y-83909580D01*
X152385714Y-83909580D02*
X152338095Y-83814342D01*
X152338095Y-83814342D02*
X152290476Y-83623866D01*
X152290476Y-83623866D02*
X152290476Y-83385771D01*
X152290476Y-83385771D02*
X152338095Y-83195295D01*
X152338095Y-83195295D02*
X152385714Y-83100057D01*
X152385714Y-83100057D02*
X152433333Y-83052438D01*
X152433333Y-83052438D02*
X152528571Y-83004819D01*
X119583333Y-81704819D02*
X119250000Y-81228628D01*
X119011905Y-81704819D02*
X119011905Y-80704819D01*
X119011905Y-80704819D02*
X119392857Y-80704819D01*
X119392857Y-80704819D02*
X119488095Y-80752438D01*
X119488095Y-80752438D02*
X119535714Y-80800057D01*
X119535714Y-80800057D02*
X119583333Y-80895295D01*
X119583333Y-80895295D02*
X119583333Y-81038152D01*
X119583333Y-81038152D02*
X119535714Y-81133390D01*
X119535714Y-81133390D02*
X119488095Y-81181009D01*
X119488095Y-81181009D02*
X119392857Y-81228628D01*
X119392857Y-81228628D02*
X119011905Y-81228628D01*
X119916667Y-80704819D02*
X120583333Y-80704819D01*
X120583333Y-80704819D02*
X120154762Y-81704819D01*
X159833333Y-72454819D02*
X159500000Y-71978628D01*
X159261905Y-72454819D02*
X159261905Y-71454819D01*
X159261905Y-71454819D02*
X159642857Y-71454819D01*
X159642857Y-71454819D02*
X159738095Y-71502438D01*
X159738095Y-71502438D02*
X159785714Y-71550057D01*
X159785714Y-71550057D02*
X159833333Y-71645295D01*
X159833333Y-71645295D02*
X159833333Y-71788152D01*
X159833333Y-71788152D02*
X159785714Y-71883390D01*
X159785714Y-71883390D02*
X159738095Y-71931009D01*
X159738095Y-71931009D02*
X159642857Y-71978628D01*
X159642857Y-71978628D02*
X159261905Y-71978628D01*
X160690476Y-71788152D02*
X160690476Y-72454819D01*
X160452381Y-71407200D02*
X160214286Y-72121485D01*
X160214286Y-72121485D02*
X160833333Y-72121485D01*
X156633333Y-63759580D02*
X156585714Y-63807200D01*
X156585714Y-63807200D02*
X156442857Y-63854819D01*
X156442857Y-63854819D02*
X156347619Y-63854819D01*
X156347619Y-63854819D02*
X156204762Y-63807200D01*
X156204762Y-63807200D02*
X156109524Y-63711961D01*
X156109524Y-63711961D02*
X156061905Y-63616723D01*
X156061905Y-63616723D02*
X156014286Y-63426247D01*
X156014286Y-63426247D02*
X156014286Y-63283390D01*
X156014286Y-63283390D02*
X156061905Y-63092914D01*
X156061905Y-63092914D02*
X156109524Y-62997676D01*
X156109524Y-62997676D02*
X156204762Y-62902438D01*
X156204762Y-62902438D02*
X156347619Y-62854819D01*
X156347619Y-62854819D02*
X156442857Y-62854819D01*
X156442857Y-62854819D02*
X156585714Y-62902438D01*
X156585714Y-62902438D02*
X156633333Y-62950057D01*
X157014286Y-62950057D02*
X157061905Y-62902438D01*
X157061905Y-62902438D02*
X157157143Y-62854819D01*
X157157143Y-62854819D02*
X157395238Y-62854819D01*
X157395238Y-62854819D02*
X157490476Y-62902438D01*
X157490476Y-62902438D02*
X157538095Y-62950057D01*
X157538095Y-62950057D02*
X157585714Y-63045295D01*
X157585714Y-63045295D02*
X157585714Y-63140533D01*
X157585714Y-63140533D02*
X157538095Y-63283390D01*
X157538095Y-63283390D02*
X156966667Y-63854819D01*
X156966667Y-63854819D02*
X157585714Y-63854819D01*
X132011905Y-83954819D02*
X132583333Y-83954819D01*
X132297619Y-84954819D02*
X132297619Y-83954819D01*
X132916667Y-84954819D02*
X132916667Y-83954819D01*
X132916667Y-83954819D02*
X133297619Y-83954819D01*
X133297619Y-83954819D02*
X133392857Y-84002438D01*
X133392857Y-84002438D02*
X133440476Y-84050057D01*
X133440476Y-84050057D02*
X133488095Y-84145295D01*
X133488095Y-84145295D02*
X133488095Y-84288152D01*
X133488095Y-84288152D02*
X133440476Y-84383390D01*
X133440476Y-84383390D02*
X133392857Y-84431009D01*
X133392857Y-84431009D02*
X133297619Y-84478628D01*
X133297619Y-84478628D02*
X132916667Y-84478628D01*
X134440476Y-84954819D02*
X133869048Y-84954819D01*
X134154762Y-84954819D02*
X134154762Y-83954819D01*
X134154762Y-83954819D02*
X134059524Y-84097676D01*
X134059524Y-84097676D02*
X133964286Y-84192914D01*
X133964286Y-84192914D02*
X133869048Y-84240533D01*
X135392857Y-84954819D02*
X134821429Y-84954819D01*
X135107143Y-84954819D02*
X135107143Y-83954819D01*
X135107143Y-83954819D02*
X135011905Y-84097676D01*
X135011905Y-84097676D02*
X134916667Y-84192914D01*
X134916667Y-84192914D02*
X134821429Y-84240533D01*
X147261905Y-80204819D02*
X147833333Y-80204819D01*
X147547619Y-81204819D02*
X147547619Y-80204819D01*
X148166667Y-81204819D02*
X148166667Y-80204819D01*
X148166667Y-80204819D02*
X148547619Y-80204819D01*
X148547619Y-80204819D02*
X148642857Y-80252438D01*
X148642857Y-80252438D02*
X148690476Y-80300057D01*
X148690476Y-80300057D02*
X148738095Y-80395295D01*
X148738095Y-80395295D02*
X148738095Y-80538152D01*
X148738095Y-80538152D02*
X148690476Y-80633390D01*
X148690476Y-80633390D02*
X148642857Y-80681009D01*
X148642857Y-80681009D02*
X148547619Y-80728628D01*
X148547619Y-80728628D02*
X148166667Y-80728628D01*
X149690476Y-81204819D02*
X149119048Y-81204819D01*
X149404762Y-81204819D02*
X149404762Y-80204819D01*
X149404762Y-80204819D02*
X149309524Y-80347676D01*
X149309524Y-80347676D02*
X149214286Y-80442914D01*
X149214286Y-80442914D02*
X149119048Y-80490533D01*
X150071429Y-80300057D02*
X150119048Y-80252438D01*
X150119048Y-80252438D02*
X150214286Y-80204819D01*
X150214286Y-80204819D02*
X150452381Y-80204819D01*
X150452381Y-80204819D02*
X150547619Y-80252438D01*
X150547619Y-80252438D02*
X150595238Y-80300057D01*
X150595238Y-80300057D02*
X150642857Y-80395295D01*
X150642857Y-80395295D02*
X150642857Y-80490533D01*
X150642857Y-80490533D02*
X150595238Y-80633390D01*
X150595238Y-80633390D02*
X150023810Y-81204819D01*
X150023810Y-81204819D02*
X150642857Y-81204819D01*
X123295833Y-77929580D02*
X123248214Y-77977200D01*
X123248214Y-77977200D02*
X123105357Y-78024819D01*
X123105357Y-78024819D02*
X123010119Y-78024819D01*
X123010119Y-78024819D02*
X122867262Y-77977200D01*
X122867262Y-77977200D02*
X122772024Y-77881961D01*
X122772024Y-77881961D02*
X122724405Y-77786723D01*
X122724405Y-77786723D02*
X122676786Y-77596247D01*
X122676786Y-77596247D02*
X122676786Y-77453390D01*
X122676786Y-77453390D02*
X122724405Y-77262914D01*
X122724405Y-77262914D02*
X122772024Y-77167676D01*
X122772024Y-77167676D02*
X122867262Y-77072438D01*
X122867262Y-77072438D02*
X123010119Y-77024819D01*
X123010119Y-77024819D02*
X123105357Y-77024819D01*
X123105357Y-77024819D02*
X123248214Y-77072438D01*
X123248214Y-77072438D02*
X123295833Y-77120057D01*
X124200595Y-77024819D02*
X123724405Y-77024819D01*
X123724405Y-77024819D02*
X123676786Y-77501009D01*
X123676786Y-77501009D02*
X123724405Y-77453390D01*
X123724405Y-77453390D02*
X123819643Y-77405771D01*
X123819643Y-77405771D02*
X124057738Y-77405771D01*
X124057738Y-77405771D02*
X124152976Y-77453390D01*
X124152976Y-77453390D02*
X124200595Y-77501009D01*
X124200595Y-77501009D02*
X124248214Y-77596247D01*
X124248214Y-77596247D02*
X124248214Y-77834342D01*
X124248214Y-77834342D02*
X124200595Y-77929580D01*
X124200595Y-77929580D02*
X124152976Y-77977200D01*
X124152976Y-77977200D02*
X124057738Y-78024819D01*
X124057738Y-78024819D02*
X123819643Y-78024819D01*
X123819643Y-78024819D02*
X123724405Y-77977200D01*
X123724405Y-77977200D02*
X123676786Y-77929580D01*
X113157142Y-51254819D02*
X112823809Y-50778628D01*
X112585714Y-51254819D02*
X112585714Y-50254819D01*
X112585714Y-50254819D02*
X112966666Y-50254819D01*
X112966666Y-50254819D02*
X113061904Y-50302438D01*
X113061904Y-50302438D02*
X113109523Y-50350057D01*
X113109523Y-50350057D02*
X113157142Y-50445295D01*
X113157142Y-50445295D02*
X113157142Y-50588152D01*
X113157142Y-50588152D02*
X113109523Y-50683390D01*
X113109523Y-50683390D02*
X113061904Y-50731009D01*
X113061904Y-50731009D02*
X112966666Y-50778628D01*
X112966666Y-50778628D02*
X112585714Y-50778628D01*
X114109523Y-51254819D02*
X113538095Y-51254819D01*
X113823809Y-51254819D02*
X113823809Y-50254819D01*
X113823809Y-50254819D02*
X113728571Y-50397676D01*
X113728571Y-50397676D02*
X113633333Y-50492914D01*
X113633333Y-50492914D02*
X113538095Y-50540533D01*
X114728571Y-50254819D02*
X114823809Y-50254819D01*
X114823809Y-50254819D02*
X114919047Y-50302438D01*
X114919047Y-50302438D02*
X114966666Y-50350057D01*
X114966666Y-50350057D02*
X115014285Y-50445295D01*
X115014285Y-50445295D02*
X115061904Y-50635771D01*
X115061904Y-50635771D02*
X115061904Y-50873866D01*
X115061904Y-50873866D02*
X115014285Y-51064342D01*
X115014285Y-51064342D02*
X114966666Y-51159580D01*
X114966666Y-51159580D02*
X114919047Y-51207200D01*
X114919047Y-51207200D02*
X114823809Y-51254819D01*
X114823809Y-51254819D02*
X114728571Y-51254819D01*
X114728571Y-51254819D02*
X114633333Y-51207200D01*
X114633333Y-51207200D02*
X114585714Y-51159580D01*
X114585714Y-51159580D02*
X114538095Y-51064342D01*
X114538095Y-51064342D02*
X114490476Y-50873866D01*
X114490476Y-50873866D02*
X114490476Y-50635771D01*
X114490476Y-50635771D02*
X114538095Y-50445295D01*
X114538095Y-50445295D02*
X114585714Y-50350057D01*
X114585714Y-50350057D02*
X114633333Y-50302438D01*
X114633333Y-50302438D02*
X114728571Y-50254819D01*
D11*
X116176667Y-90704318D02*
X116176667Y-91611461D01*
X116176667Y-91611461D02*
X116116190Y-91792889D01*
X116116190Y-91792889D02*
X115995238Y-91913842D01*
X115995238Y-91913842D02*
X115813809Y-91974318D01*
X115813809Y-91974318D02*
X115692857Y-91974318D01*
X116720952Y-90825270D02*
X116781428Y-90764794D01*
X116781428Y-90764794D02*
X116902381Y-90704318D01*
X116902381Y-90704318D02*
X117204762Y-90704318D01*
X117204762Y-90704318D02*
X117325714Y-90764794D01*
X117325714Y-90764794D02*
X117386190Y-90825270D01*
X117386190Y-90825270D02*
X117446667Y-90946222D01*
X117446667Y-90946222D02*
X117446667Y-91067175D01*
X117446667Y-91067175D02*
X117386190Y-91248603D01*
X117386190Y-91248603D02*
X116660476Y-91974318D01*
X116660476Y-91974318D02*
X117446667Y-91974318D01*
D10*
X132988095Y-69204819D02*
X132988095Y-70014342D01*
X132988095Y-70014342D02*
X133035714Y-70109580D01*
X133035714Y-70109580D02*
X133083333Y-70157200D01*
X133083333Y-70157200D02*
X133178571Y-70204819D01*
X133178571Y-70204819D02*
X133369047Y-70204819D01*
X133369047Y-70204819D02*
X133464285Y-70157200D01*
X133464285Y-70157200D02*
X133511904Y-70109580D01*
X133511904Y-70109580D02*
X133559523Y-70014342D01*
X133559523Y-70014342D02*
X133559523Y-69204819D01*
X133988095Y-69300057D02*
X134035714Y-69252438D01*
X134035714Y-69252438D02*
X134130952Y-69204819D01*
X134130952Y-69204819D02*
X134369047Y-69204819D01*
X134369047Y-69204819D02*
X134464285Y-69252438D01*
X134464285Y-69252438D02*
X134511904Y-69300057D01*
X134511904Y-69300057D02*
X134559523Y-69395295D01*
X134559523Y-69395295D02*
X134559523Y-69490533D01*
X134559523Y-69490533D02*
X134511904Y-69633390D01*
X134511904Y-69633390D02*
X133940476Y-70204819D01*
X133940476Y-70204819D02*
X134559523Y-70204819D01*
X120607142Y-68054819D02*
X120273809Y-67578628D01*
X120035714Y-68054819D02*
X120035714Y-67054819D01*
X120035714Y-67054819D02*
X120416666Y-67054819D01*
X120416666Y-67054819D02*
X120511904Y-67102438D01*
X120511904Y-67102438D02*
X120559523Y-67150057D01*
X120559523Y-67150057D02*
X120607142Y-67245295D01*
X120607142Y-67245295D02*
X120607142Y-67388152D01*
X120607142Y-67388152D02*
X120559523Y-67483390D01*
X120559523Y-67483390D02*
X120511904Y-67531009D01*
X120511904Y-67531009D02*
X120416666Y-67578628D01*
X120416666Y-67578628D02*
X120035714Y-67578628D01*
X121559523Y-68054819D02*
X120988095Y-68054819D01*
X121273809Y-68054819D02*
X121273809Y-67054819D01*
X121273809Y-67054819D02*
X121178571Y-67197676D01*
X121178571Y-67197676D02*
X121083333Y-67292914D01*
X121083333Y-67292914D02*
X120988095Y-67340533D01*
X122511904Y-68054819D02*
X121940476Y-68054819D01*
X122226190Y-68054819D02*
X122226190Y-67054819D01*
X122226190Y-67054819D02*
X122130952Y-67197676D01*
X122130952Y-67197676D02*
X122035714Y-67292914D01*
X122035714Y-67292914D02*
X121940476Y-67340533D01*
X137238095Y-80204819D02*
X137809523Y-80204819D01*
X137523809Y-81204819D02*
X137523809Y-80204819D01*
X138142857Y-81204819D02*
X138142857Y-80204819D01*
X138142857Y-80204819D02*
X138523809Y-80204819D01*
X138523809Y-80204819D02*
X138619047Y-80252438D01*
X138619047Y-80252438D02*
X138666666Y-80300057D01*
X138666666Y-80300057D02*
X138714285Y-80395295D01*
X138714285Y-80395295D02*
X138714285Y-80538152D01*
X138714285Y-80538152D02*
X138666666Y-80633390D01*
X138666666Y-80633390D02*
X138619047Y-80681009D01*
X138619047Y-80681009D02*
X138523809Y-80728628D01*
X138523809Y-80728628D02*
X138142857Y-80728628D01*
X139095238Y-80300057D02*
X139142857Y-80252438D01*
X139142857Y-80252438D02*
X139238095Y-80204819D01*
X139238095Y-80204819D02*
X139476190Y-80204819D01*
X139476190Y-80204819D02*
X139571428Y-80252438D01*
X139571428Y-80252438D02*
X139619047Y-80300057D01*
X139619047Y-80300057D02*
X139666666Y-80395295D01*
X139666666Y-80395295D02*
X139666666Y-80490533D01*
X139666666Y-80490533D02*
X139619047Y-80633390D01*
X139619047Y-80633390D02*
X139047619Y-81204819D01*
X139047619Y-81204819D02*
X139666666Y-81204819D01*
X152988095Y-72954819D02*
X152988095Y-73764342D01*
X152988095Y-73764342D02*
X153035714Y-73859580D01*
X153035714Y-73859580D02*
X153083333Y-73907200D01*
X153083333Y-73907200D02*
X153178571Y-73954819D01*
X153178571Y-73954819D02*
X153369047Y-73954819D01*
X153369047Y-73954819D02*
X153464285Y-73907200D01*
X153464285Y-73907200D02*
X153511904Y-73859580D01*
X153511904Y-73859580D02*
X153559523Y-73764342D01*
X153559523Y-73764342D02*
X153559523Y-72954819D01*
X153940476Y-72954819D02*
X154559523Y-72954819D01*
X154559523Y-72954819D02*
X154226190Y-73335771D01*
X154226190Y-73335771D02*
X154369047Y-73335771D01*
X154369047Y-73335771D02*
X154464285Y-73383390D01*
X154464285Y-73383390D02*
X154511904Y-73431009D01*
X154511904Y-73431009D02*
X154559523Y-73526247D01*
X154559523Y-73526247D02*
X154559523Y-73764342D01*
X154559523Y-73764342D02*
X154511904Y-73859580D01*
X154511904Y-73859580D02*
X154464285Y-73907200D01*
X154464285Y-73907200D02*
X154369047Y-73954819D01*
X154369047Y-73954819D02*
X154083333Y-73954819D01*
X154083333Y-73954819D02*
X153988095Y-73907200D01*
X153988095Y-73907200D02*
X153940476Y-73859580D01*
X153630952Y-81454819D02*
X153630952Y-80454819D01*
X153630952Y-80454819D02*
X154011904Y-80454819D01*
X154011904Y-80454819D02*
X154107142Y-80502438D01*
X154107142Y-80502438D02*
X154154761Y-80550057D01*
X154154761Y-80550057D02*
X154202380Y-80645295D01*
X154202380Y-80645295D02*
X154202380Y-80788152D01*
X154202380Y-80788152D02*
X154154761Y-80883390D01*
X154154761Y-80883390D02*
X154107142Y-80931009D01*
X154107142Y-80931009D02*
X154011904Y-80978628D01*
X154011904Y-80978628D02*
X153630952Y-80978628D01*
X155202380Y-81359580D02*
X155154761Y-81407200D01*
X155154761Y-81407200D02*
X155011904Y-81454819D01*
X155011904Y-81454819D02*
X154916666Y-81454819D01*
X154916666Y-81454819D02*
X154773809Y-81407200D01*
X154773809Y-81407200D02*
X154678571Y-81311961D01*
X154678571Y-81311961D02*
X154630952Y-81216723D01*
X154630952Y-81216723D02*
X154583333Y-81026247D01*
X154583333Y-81026247D02*
X154583333Y-80883390D01*
X154583333Y-80883390D02*
X154630952Y-80692914D01*
X154630952Y-80692914D02*
X154678571Y-80597676D01*
X154678571Y-80597676D02*
X154773809Y-80502438D01*
X154773809Y-80502438D02*
X154916666Y-80454819D01*
X154916666Y-80454819D02*
X155011904Y-80454819D01*
X155011904Y-80454819D02*
X155154761Y-80502438D01*
X155154761Y-80502438D02*
X155202380Y-80550057D01*
X155630952Y-81454819D02*
X155630952Y-80454819D01*
X155630952Y-80454819D02*
X155964285Y-81169104D01*
X155964285Y-81169104D02*
X156297618Y-80454819D01*
X156297618Y-80454819D02*
X156297618Y-81454819D01*
X157297618Y-81454819D02*
X156726190Y-81454819D01*
X157011904Y-81454819D02*
X157011904Y-80454819D01*
X157011904Y-80454819D02*
X156916666Y-80597676D01*
X156916666Y-80597676D02*
X156821428Y-80692914D01*
X156821428Y-80692914D02*
X156726190Y-80740533D01*
X157869047Y-80883390D02*
X157773809Y-80835771D01*
X157773809Y-80835771D02*
X157726190Y-80788152D01*
X157726190Y-80788152D02*
X157678571Y-80692914D01*
X157678571Y-80692914D02*
X157678571Y-80645295D01*
X157678571Y-80645295D02*
X157726190Y-80550057D01*
X157726190Y-80550057D02*
X157773809Y-80502438D01*
X157773809Y-80502438D02*
X157869047Y-80454819D01*
X157869047Y-80454819D02*
X158059523Y-80454819D01*
X158059523Y-80454819D02*
X158154761Y-80502438D01*
X158154761Y-80502438D02*
X158202380Y-80550057D01*
X158202380Y-80550057D02*
X158249999Y-80645295D01*
X158249999Y-80645295D02*
X158249999Y-80692914D01*
X158249999Y-80692914D02*
X158202380Y-80788152D01*
X158202380Y-80788152D02*
X158154761Y-80835771D01*
X158154761Y-80835771D02*
X158059523Y-80883390D01*
X158059523Y-80883390D02*
X157869047Y-80883390D01*
X157869047Y-80883390D02*
X157773809Y-80931009D01*
X157773809Y-80931009D02*
X157726190Y-80978628D01*
X157726190Y-80978628D02*
X157678571Y-81073866D01*
X157678571Y-81073866D02*
X157678571Y-81264342D01*
X157678571Y-81264342D02*
X157726190Y-81359580D01*
X157726190Y-81359580D02*
X157773809Y-81407200D01*
X157773809Y-81407200D02*
X157869047Y-81454819D01*
X157869047Y-81454819D02*
X158059523Y-81454819D01*
X158059523Y-81454819D02*
X158154761Y-81407200D01*
X158154761Y-81407200D02*
X158202380Y-81359580D01*
X158202380Y-81359580D02*
X158249999Y-81264342D01*
X158249999Y-81264342D02*
X158249999Y-81073866D01*
X158249999Y-81073866D02*
X158202380Y-80978628D01*
X158202380Y-80978628D02*
X158154761Y-80931009D01*
X158154761Y-80931009D02*
X158059523Y-80883390D01*
X159107142Y-80454819D02*
X158916666Y-80454819D01*
X158916666Y-80454819D02*
X158821428Y-80502438D01*
X158821428Y-80502438D02*
X158773809Y-80550057D01*
X158773809Y-80550057D02*
X158678571Y-80692914D01*
X158678571Y-80692914D02*
X158630952Y-80883390D01*
X158630952Y-80883390D02*
X158630952Y-81264342D01*
X158630952Y-81264342D02*
X158678571Y-81359580D01*
X158678571Y-81359580D02*
X158726190Y-81407200D01*
X158726190Y-81407200D02*
X158821428Y-81454819D01*
X158821428Y-81454819D02*
X159011904Y-81454819D01*
X159011904Y-81454819D02*
X159107142Y-81407200D01*
X159107142Y-81407200D02*
X159154761Y-81359580D01*
X159154761Y-81359580D02*
X159202380Y-81264342D01*
X159202380Y-81264342D02*
X159202380Y-81026247D01*
X159202380Y-81026247D02*
X159154761Y-80931009D01*
X159154761Y-80931009D02*
X159107142Y-80883390D01*
X159107142Y-80883390D02*
X159011904Y-80835771D01*
X159011904Y-80835771D02*
X158821428Y-80835771D01*
X158821428Y-80835771D02*
X158726190Y-80883390D01*
X158726190Y-80883390D02*
X158678571Y-80931009D01*
X158678571Y-80931009D02*
X158630952Y-81026247D01*
X159583333Y-80550057D02*
X159630952Y-80502438D01*
X159630952Y-80502438D02*
X159726190Y-80454819D01*
X159726190Y-80454819D02*
X159964285Y-80454819D01*
X159964285Y-80454819D02*
X160059523Y-80502438D01*
X160059523Y-80502438D02*
X160107142Y-80550057D01*
X160107142Y-80550057D02*
X160154761Y-80645295D01*
X160154761Y-80645295D02*
X160154761Y-80740533D01*
X160154761Y-80740533D02*
X160107142Y-80883390D01*
X160107142Y-80883390D02*
X159535714Y-81454819D01*
X159535714Y-81454819D02*
X160154761Y-81454819D01*
X160583333Y-81454819D02*
X160583333Y-80454819D01*
X160583333Y-80454819D02*
X160821428Y-80454819D01*
X160821428Y-80454819D02*
X160964285Y-80502438D01*
X160964285Y-80502438D02*
X161059523Y-80597676D01*
X161059523Y-80597676D02*
X161107142Y-80692914D01*
X161107142Y-80692914D02*
X161154761Y-80883390D01*
X161154761Y-80883390D02*
X161154761Y-81026247D01*
X161154761Y-81026247D02*
X161107142Y-81216723D01*
X161107142Y-81216723D02*
X161059523Y-81311961D01*
X161059523Y-81311961D02*
X160964285Y-81407200D01*
X160964285Y-81407200D02*
X160821428Y-81454819D01*
X160821428Y-81454819D02*
X160583333Y-81454819D01*
X161916666Y-80931009D02*
X162059523Y-80978628D01*
X162059523Y-80978628D02*
X162107142Y-81026247D01*
X162107142Y-81026247D02*
X162154761Y-81121485D01*
X162154761Y-81121485D02*
X162154761Y-81264342D01*
X162154761Y-81264342D02*
X162107142Y-81359580D01*
X162107142Y-81359580D02*
X162059523Y-81407200D01*
X162059523Y-81407200D02*
X161964285Y-81454819D01*
X161964285Y-81454819D02*
X161583333Y-81454819D01*
X161583333Y-81454819D02*
X161583333Y-80454819D01*
X161583333Y-80454819D02*
X161916666Y-80454819D01*
X161916666Y-80454819D02*
X162011904Y-80502438D01*
X162011904Y-80502438D02*
X162059523Y-80550057D01*
X162059523Y-80550057D02*
X162107142Y-80645295D01*
X162107142Y-80645295D02*
X162107142Y-80740533D01*
X162107142Y-80740533D02*
X162059523Y-80835771D01*
X162059523Y-80835771D02*
X162011904Y-80883390D01*
X162011904Y-80883390D02*
X161916666Y-80931009D01*
X161916666Y-80931009D02*
X161583333Y-80931009D01*
X162440476Y-80454819D02*
X163011904Y-80454819D01*
X162726190Y-81454819D02*
X162726190Y-80454819D01*
X162704819Y-68665793D02*
X162228628Y-68999126D01*
X162704819Y-69237221D02*
X161704819Y-69237221D01*
X161704819Y-69237221D02*
X161704819Y-68856269D01*
X161704819Y-68856269D02*
X161752438Y-68761031D01*
X161752438Y-68761031D02*
X161800057Y-68713412D01*
X161800057Y-68713412D02*
X161895295Y-68665793D01*
X161895295Y-68665793D02*
X162038152Y-68665793D01*
X162038152Y-68665793D02*
X162133390Y-68713412D01*
X162133390Y-68713412D02*
X162181009Y-68761031D01*
X162181009Y-68761031D02*
X162228628Y-68856269D01*
X162228628Y-68856269D02*
X162228628Y-69237221D01*
X162704819Y-67713412D02*
X162704819Y-68284840D01*
X162704819Y-67999126D02*
X161704819Y-67999126D01*
X161704819Y-67999126D02*
X161847676Y-68094364D01*
X161847676Y-68094364D02*
X161942914Y-68189602D01*
X161942914Y-68189602D02*
X161990533Y-68284840D01*
X162038152Y-66856269D02*
X162704819Y-66856269D01*
X161657200Y-67094364D02*
X162371485Y-67332459D01*
X162371485Y-67332459D02*
X162371485Y-66713412D01*
X140011905Y-79954819D02*
X140583333Y-79954819D01*
X140297619Y-80954819D02*
X140297619Y-79954819D01*
X140916667Y-80954819D02*
X140916667Y-79954819D01*
X140916667Y-79954819D02*
X141297619Y-79954819D01*
X141297619Y-79954819D02*
X141392857Y-80002438D01*
X141392857Y-80002438D02*
X141440476Y-80050057D01*
X141440476Y-80050057D02*
X141488095Y-80145295D01*
X141488095Y-80145295D02*
X141488095Y-80288152D01*
X141488095Y-80288152D02*
X141440476Y-80383390D01*
X141440476Y-80383390D02*
X141392857Y-80431009D01*
X141392857Y-80431009D02*
X141297619Y-80478628D01*
X141297619Y-80478628D02*
X140916667Y-80478628D01*
X142440476Y-80954819D02*
X141869048Y-80954819D01*
X142154762Y-80954819D02*
X142154762Y-79954819D01*
X142154762Y-79954819D02*
X142059524Y-80097676D01*
X142059524Y-80097676D02*
X141964286Y-80192914D01*
X141964286Y-80192914D02*
X141869048Y-80240533D01*
X143059524Y-79954819D02*
X143154762Y-79954819D01*
X143154762Y-79954819D02*
X143250000Y-80002438D01*
X143250000Y-80002438D02*
X143297619Y-80050057D01*
X143297619Y-80050057D02*
X143345238Y-80145295D01*
X143345238Y-80145295D02*
X143392857Y-80335771D01*
X143392857Y-80335771D02*
X143392857Y-80573866D01*
X143392857Y-80573866D02*
X143345238Y-80764342D01*
X143345238Y-80764342D02*
X143297619Y-80859580D01*
X143297619Y-80859580D02*
X143250000Y-80907200D01*
X143250000Y-80907200D02*
X143154762Y-80954819D01*
X143154762Y-80954819D02*
X143059524Y-80954819D01*
X143059524Y-80954819D02*
X142964286Y-80907200D01*
X142964286Y-80907200D02*
X142916667Y-80859580D01*
X142916667Y-80859580D02*
X142869048Y-80764342D01*
X142869048Y-80764342D02*
X142821429Y-80573866D01*
X142821429Y-80573866D02*
X142821429Y-80335771D01*
X142821429Y-80335771D02*
X142869048Y-80145295D01*
X142869048Y-80145295D02*
X142916667Y-80050057D01*
X142916667Y-80050057D02*
X142964286Y-80002438D01*
X142964286Y-80002438D02*
X143059524Y-79954819D01*
X141359580Y-72566666D02*
X141407200Y-72614285D01*
X141407200Y-72614285D02*
X141454819Y-72757142D01*
X141454819Y-72757142D02*
X141454819Y-72852380D01*
X141454819Y-72852380D02*
X141407200Y-72995237D01*
X141407200Y-72995237D02*
X141311961Y-73090475D01*
X141311961Y-73090475D02*
X141216723Y-73138094D01*
X141216723Y-73138094D02*
X141026247Y-73185713D01*
X141026247Y-73185713D02*
X140883390Y-73185713D01*
X140883390Y-73185713D02*
X140692914Y-73138094D01*
X140692914Y-73138094D02*
X140597676Y-73090475D01*
X140597676Y-73090475D02*
X140502438Y-72995237D01*
X140502438Y-72995237D02*
X140454819Y-72852380D01*
X140454819Y-72852380D02*
X140454819Y-72757142D01*
X140454819Y-72757142D02*
X140502438Y-72614285D01*
X140502438Y-72614285D02*
X140550057Y-72566666D01*
X140883390Y-71995237D02*
X140835771Y-72090475D01*
X140835771Y-72090475D02*
X140788152Y-72138094D01*
X140788152Y-72138094D02*
X140692914Y-72185713D01*
X140692914Y-72185713D02*
X140645295Y-72185713D01*
X140645295Y-72185713D02*
X140550057Y-72138094D01*
X140550057Y-72138094D02*
X140502438Y-72090475D01*
X140502438Y-72090475D02*
X140454819Y-71995237D01*
X140454819Y-71995237D02*
X140454819Y-71804761D01*
X140454819Y-71804761D02*
X140502438Y-71709523D01*
X140502438Y-71709523D02*
X140550057Y-71661904D01*
X140550057Y-71661904D02*
X140645295Y-71614285D01*
X140645295Y-71614285D02*
X140692914Y-71614285D01*
X140692914Y-71614285D02*
X140788152Y-71661904D01*
X140788152Y-71661904D02*
X140835771Y-71709523D01*
X140835771Y-71709523D02*
X140883390Y-71804761D01*
X140883390Y-71804761D02*
X140883390Y-71995237D01*
X140883390Y-71995237D02*
X140931009Y-72090475D01*
X140931009Y-72090475D02*
X140978628Y-72138094D01*
X140978628Y-72138094D02*
X141073866Y-72185713D01*
X141073866Y-72185713D02*
X141264342Y-72185713D01*
X141264342Y-72185713D02*
X141359580Y-72138094D01*
X141359580Y-72138094D02*
X141407200Y-72090475D01*
X141407200Y-72090475D02*
X141454819Y-71995237D01*
X141454819Y-71995237D02*
X141454819Y-71804761D01*
X141454819Y-71804761D02*
X141407200Y-71709523D01*
X141407200Y-71709523D02*
X141359580Y-71661904D01*
X141359580Y-71661904D02*
X141264342Y-71614285D01*
X141264342Y-71614285D02*
X141073866Y-71614285D01*
X141073866Y-71614285D02*
X140978628Y-71661904D01*
X140978628Y-71661904D02*
X140931009Y-71709523D01*
X140931009Y-71709523D02*
X140883390Y-71804761D01*
X112500000Y-69204819D02*
X112500000Y-69442914D01*
X112261905Y-69347676D02*
X112500000Y-69442914D01*
X112500000Y-69442914D02*
X112738095Y-69347676D01*
X112357143Y-69633390D02*
X112500000Y-69442914D01*
X112500000Y-69442914D02*
X112642857Y-69633390D01*
X109000000Y-67204819D02*
X109000000Y-67442914D01*
X108761905Y-67347676D02*
X109000000Y-67442914D01*
X109000000Y-67442914D02*
X109238095Y-67347676D01*
X108857143Y-67633390D02*
X109000000Y-67442914D01*
X109000000Y-67442914D02*
X109142857Y-67633390D01*
X106066666Y-51454819D02*
X106066666Y-52169104D01*
X106066666Y-52169104D02*
X106019047Y-52311961D01*
X106019047Y-52311961D02*
X105923809Y-52407200D01*
X105923809Y-52407200D02*
X105780952Y-52454819D01*
X105780952Y-52454819D02*
X105685714Y-52454819D01*
X107066666Y-52454819D02*
X106495238Y-52454819D01*
X106780952Y-52454819D02*
X106780952Y-51454819D01*
X106780952Y-51454819D02*
X106685714Y-51597676D01*
X106685714Y-51597676D02*
X106590476Y-51692914D01*
X106590476Y-51692914D02*
X106495238Y-51740533D01*
D12*
X141950000Y-64750000D02*
G75*
G02*
X140550000Y-64750000I-700000J0D01*
G01*
X140550000Y-64750000D02*
G75*
G02*
X141950000Y-64750000I700000J0D01*
G01*
X123451248Y-74005000D02*
X123973752Y-74005000D01*
X123451248Y-75475000D02*
X123973752Y-75475000D01*
X145885242Y-64064624D02*
X145064758Y-64064624D01*
X145885242Y-65184624D02*
X145064758Y-65184624D01*
X145538748Y-66865000D02*
X146061252Y-66865000D01*
X145538748Y-68335000D02*
X146061252Y-68335000D01*
X140200000Y-79250000D02*
G75*
G02*
X138800000Y-79250000I-700000J0D01*
G01*
X138800000Y-79250000D02*
G75*
G02*
X140200000Y-79250000I700000J0D01*
G01*
X151665000Y-65338748D02*
X151665000Y-65861252D01*
X153135000Y-65338748D02*
X153135000Y-65861252D01*
D13*
X145800000Y-88450000D02*
X145800000Y-96450000D01*
X145800000Y-88450000D02*
X148800000Y-88450000D01*
X146650000Y-107560000D02*
X146650000Y-98700000D01*
X147800000Y-98450000D02*
X153800000Y-98450000D01*
X148800000Y-88450000D02*
X148800000Y-88850000D01*
X148800000Y-88850000D02*
X149800000Y-88850000D01*
X151800000Y-88850000D02*
X152800000Y-88850000D01*
X152800000Y-88450000D02*
X155800000Y-88450000D01*
X152800000Y-88850000D02*
X152800000Y-88450000D01*
X154340000Y-107950000D02*
X147040000Y-107950000D01*
X154950000Y-98700000D02*
X154950000Y-107340000D01*
X155800000Y-88450000D02*
X155800000Y-96450000D01*
X147040000Y-107950000D02*
G75*
G02*
X146650000Y-107560000I0J390000D01*
G01*
X154950000Y-107340000D02*
G75*
G02*
X154340000Y-107950000I-610000J0D01*
G01*
D14*
X145387000Y-94460000D02*
G75*
G02*
X145187000Y-94460000I-100000J0D01*
G01*
X145187000Y-94460000D02*
G75*
G02*
X145387000Y-94460000I100000J0D01*
G01*
D12*
X132400000Y-58100000D02*
X132400000Y-53100000D01*
X137800000Y-53100000D02*
X137800000Y-58100000D01*
X132600000Y-58600000D02*
X132270000Y-58840000D01*
X132270000Y-58360000D01*
X132600000Y-58600000D01*
G36*
X132600000Y-58600000D02*
G01*
X132270000Y-58840000D01*
X132270000Y-58360000D01*
X132600000Y-58600000D01*
G37*
X157172936Y-73465000D02*
X157627064Y-73465000D01*
X157172936Y-74935000D02*
X157627064Y-74935000D01*
D13*
X133662000Y-88450000D02*
X133662000Y-96450000D01*
X133662000Y-88450000D02*
X136662000Y-88450000D01*
X134512000Y-107560000D02*
X134512000Y-98700000D01*
X135662000Y-98450000D02*
X141662000Y-98450000D01*
X136662000Y-88450000D02*
X136662000Y-88850000D01*
X136662000Y-88850000D02*
X137662000Y-88850000D01*
X139662000Y-88850000D02*
X140662000Y-88850000D01*
X140662000Y-88450000D02*
X143662000Y-88450000D01*
X140662000Y-88850000D02*
X140662000Y-88450000D01*
X142202000Y-107950000D02*
X134902000Y-107950000D01*
X142812000Y-98700000D02*
X142812000Y-107340000D01*
X143662000Y-88450000D02*
X143662000Y-96450000D01*
X134902000Y-107950000D02*
G75*
G02*
X134512000Y-107560000I0J390000D01*
G01*
X142812000Y-107340000D02*
G75*
G02*
X142202000Y-107950000I-610000J0D01*
G01*
D14*
X133249000Y-94460000D02*
G75*
G02*
X133049000Y-94460000I-100000J0D01*
G01*
X133049000Y-94460000D02*
G75*
G02*
X133249000Y-94460000I100000J0D01*
G01*
D12*
X157450000Y-52250000D02*
G75*
G02*
X156050000Y-52250000I-700000J0D01*
G01*
X156050000Y-52250000D02*
G75*
G02*
X157450000Y-52250000I700000J0D01*
G01*
X124200000Y-66750000D02*
G75*
G02*
X122800000Y-66750000I-700000J0D01*
G01*
X122800000Y-66750000D02*
G75*
G02*
X124200000Y-66750000I700000J0D01*
G01*
X139450000Y-51250000D02*
G75*
G02*
X138050000Y-51250000I-700000J0D01*
G01*
X138050000Y-51250000D02*
G75*
G02*
X139450000Y-51250000I700000J0D01*
G01*
X138034936Y-84515000D02*
X138489064Y-84515000D01*
X138034936Y-85985000D02*
X138489064Y-85985000D01*
X127950000Y-78750000D02*
G75*
G02*
X126550000Y-78750000I-700000J0D01*
G01*
X126550000Y-78750000D02*
G75*
G02*
X127950000Y-78750000I700000J0D01*
G01*
X157172936Y-77465000D02*
X157627064Y-77465000D01*
X157172936Y-78935000D02*
X157627064Y-78935000D01*
X138365000Y-72772936D02*
X138365000Y-73227064D01*
X139835000Y-72772936D02*
X139835000Y-73227064D01*
X143600748Y-84715000D02*
X144123252Y-84715000D01*
X143600748Y-86185000D02*
X144123252Y-86185000D01*
X127700000Y-74750000D02*
G75*
G02*
X126300000Y-74750000I-700000J0D01*
G01*
X126300000Y-74750000D02*
G75*
G02*
X127700000Y-74750000I700000J0D01*
G01*
X155040000Y-66390000D02*
X157825000Y-66390000D01*
X155040000Y-66590000D02*
X155040000Y-66390000D01*
X157825000Y-70060000D02*
X155225000Y-70060000D01*
X124950000Y-71750000D02*
G75*
G02*
X123550000Y-71750000I-700000J0D01*
G01*
X123550000Y-71750000D02*
G75*
G02*
X124950000Y-71750000I700000J0D01*
G01*
X110265000Y-53227064D02*
X110265000Y-52772936D01*
X111735000Y-53227064D02*
X111735000Y-52772936D01*
X120200000Y-71250000D02*
G75*
G02*
X118800000Y-71250000I-700000J0D01*
G01*
X118800000Y-71250000D02*
G75*
G02*
X120200000Y-71250000I700000J0D01*
G01*
X157172936Y-75465000D02*
X157627064Y-75465000D01*
X157172936Y-76935000D02*
X157627064Y-76935000D01*
X119203500Y-74122936D02*
X119203500Y-74577064D01*
X120673500Y-74122936D02*
X120673500Y-74577064D01*
X148665000Y-65338748D02*
X148665000Y-65861252D01*
X150135000Y-65338748D02*
X150135000Y-65861252D01*
X131950000Y-83000000D02*
G75*
G02*
X130550000Y-83000000I-700000J0D01*
G01*
X130550000Y-83000000D02*
G75*
G02*
X131950000Y-83000000I700000J0D01*
G01*
X119200000Y-58300000D02*
X119200000Y-53300000D01*
X124600000Y-53300000D02*
X124600000Y-58300000D01*
X119400000Y-58800000D02*
X119070000Y-59040000D01*
X119070000Y-58560000D01*
X119400000Y-58800000D01*
G36*
X119400000Y-58800000D02*
G01*
X119070000Y-59040000D01*
X119070000Y-58560000D01*
X119400000Y-58800000D01*
G37*
X151372936Y-84465000D02*
X151827064Y-84465000D01*
X151372936Y-85935000D02*
X151827064Y-85935000D01*
X119037863Y-78302936D02*
X119037863Y-78757064D01*
X120507863Y-78302936D02*
X120507863Y-78757064D01*
X157172936Y-71465000D02*
X157627064Y-71465000D01*
X157172936Y-72935000D02*
X157627064Y-72935000D01*
X156368748Y-64085000D02*
X156891252Y-64085000D01*
X156368748Y-65555000D02*
X156891252Y-65555000D01*
X134450000Y-83000000D02*
G75*
G02*
X133050000Y-83000000I-700000J0D01*
G01*
X133050000Y-83000000D02*
G75*
G02*
X134450000Y-83000000I700000J0D01*
G01*
X146950000Y-80750000D02*
G75*
G02*
X145550000Y-80750000I-700000J0D01*
G01*
X145550000Y-80750000D02*
G75*
G02*
X146950000Y-80750000I700000J0D01*
G01*
X123201248Y-78515000D02*
X123723752Y-78515000D01*
X123201248Y-79985000D02*
X123723752Y-79985000D01*
X112665000Y-53227064D02*
X112665000Y-52772936D01*
X114135000Y-53227064D02*
X114135000Y-52772936D01*
D14*
X111750000Y-84650000D02*
X111750000Y-98150000D01*
X111750000Y-98150000D02*
X121450000Y-98150000D01*
D15*
X114060000Y-84090000D02*
X114060000Y-84090000D01*
X114060000Y-84190000D02*
X114060000Y-84190000D01*
D14*
X121450000Y-84650000D02*
X111750000Y-84650000D01*
X121450000Y-98150000D02*
X121450000Y-84650000D01*
D15*
X114060000Y-84090000D02*
G75*
G02*
X114060000Y-84190000I0J-50000D01*
G01*
X114060000Y-84190000D02*
G75*
G02*
X114060000Y-84090000I0J50000D01*
G01*
D12*
X131515000Y-70765000D02*
X135635000Y-70765000D01*
X131515000Y-70820000D02*
X131515000Y-70765000D01*
X131515000Y-80885000D02*
X131515000Y-80830000D01*
X135635000Y-70765000D02*
X135635000Y-70820000D01*
X135635000Y-80830000D02*
X135635000Y-80885000D01*
X135635000Y-80885000D02*
X131515000Y-80885000D01*
X130975000Y-70815000D02*
X130735000Y-70485000D01*
X131215000Y-70485000D01*
X130975000Y-70815000D01*
G36*
X130975000Y-70815000D02*
G01*
X130735000Y-70485000D01*
X131215000Y-70485000D01*
X130975000Y-70815000D01*
G37*
X121022936Y-68515000D02*
X121477064Y-68515000D01*
X121022936Y-69985000D02*
X121477064Y-69985000D01*
X136950000Y-82500000D02*
G75*
G02*
X135550000Y-82500000I-700000J0D01*
G01*
X135550000Y-82500000D02*
G75*
G02*
X136950000Y-82500000I700000J0D01*
G01*
D14*
X146750003Y-70724997D02*
X147675000Y-69800000D01*
X146750003Y-77700000D02*
X146750003Y-70724997D01*
X146750003Y-77700000D02*
X149750002Y-77700000D01*
X147675000Y-69800000D02*
X149750002Y-69800000D01*
X149750002Y-77700000D02*
X149750002Y-69800000D01*
D12*
X158515000Y-68477064D02*
X158515000Y-68022936D01*
X159985000Y-68477064D02*
X159985000Y-68022936D01*
X141700000Y-82250000D02*
G75*
G02*
X140300000Y-82250000I-700000J0D01*
G01*
X140300000Y-82250000D02*
G75*
G02*
X141700000Y-82250000I700000J0D01*
G01*
X141865000Y-72538748D02*
X141865000Y-73061252D01*
X143335000Y-72538748D02*
X143335000Y-73061252D01*
D16*
X110403300Y-68495800D02*
X110403300Y-68789460D01*
X110403300Y-78260538D02*
X110403300Y-78554200D01*
X110403300Y-78554200D02*
X115153100Y-78554200D01*
X115153100Y-68495800D02*
X110403300Y-68495800D01*
X115153100Y-68789460D02*
X115153100Y-68495800D01*
X115153100Y-78554200D02*
X115153100Y-78260540D01*
D17*
G36*
X108663400Y-75340498D02*
G01*
X108409400Y-75340498D01*
X108409400Y-74959498D01*
X108663400Y-74959498D01*
X108663400Y-75340498D01*
G37*
G36*
X117147000Y-74690499D02*
G01*
X116893000Y-74690499D01*
X116893000Y-74309499D01*
X117147000Y-74309499D01*
X117147000Y-74690499D01*
G37*
%LPC*%
D18*
X141250000Y-64750000D03*
D19*
X122675000Y-74740000D03*
X124750000Y-74740000D03*
D20*
X146625000Y-64624624D03*
X144325000Y-64624624D03*
D21*
X161500000Y-47500000D03*
D19*
X144762500Y-67600000D03*
X146837500Y-67600000D03*
D18*
X139500000Y-79250000D03*
D22*
X152400000Y-64562500D03*
X152400000Y-66637500D03*
D23*
X150800000Y-94450000D03*
D24*
X150800000Y-89950000D03*
D25*
X133400000Y-58000000D03*
X135100000Y-58000000D03*
X136800000Y-58000000D03*
X136800000Y-53200000D03*
X135100000Y-53200000D03*
X133400000Y-53200000D03*
D26*
X156400000Y-74200000D03*
X158400000Y-74200000D03*
D23*
X138662000Y-94450000D03*
D24*
X138662000Y-89950000D03*
D18*
X156750000Y-52250000D03*
X123500000Y-66750000D03*
X138750000Y-51250000D03*
D26*
X137262000Y-85250000D03*
X139262000Y-85250000D03*
D18*
X127250000Y-78750000D03*
D26*
X156400000Y-78200000D03*
X158400000Y-78200000D03*
D27*
X139100000Y-72000000D03*
X139100000Y-74000000D03*
D19*
X142824500Y-85450000D03*
X144899500Y-85450000D03*
D18*
X127000000Y-74750000D03*
D28*
X155750000Y-67150000D03*
X155750000Y-69300000D03*
X157300000Y-69300000D03*
X157300000Y-67150000D03*
D18*
X124250000Y-71750000D03*
D21*
X103500000Y-96500000D03*
D29*
X111000000Y-54000000D03*
X111000000Y-52000000D03*
D18*
X119500000Y-71250000D03*
D26*
X156400000Y-76200000D03*
X158400000Y-76200000D03*
D27*
X119938500Y-73350000D03*
X119938500Y-75350000D03*
D21*
X103500000Y-47500000D03*
D22*
X149400000Y-64562500D03*
X149400000Y-66637500D03*
D18*
X131250000Y-83000000D03*
D25*
X120200000Y-58200000D03*
X121900000Y-58200000D03*
X123600000Y-58200000D03*
X123600000Y-53400000D03*
X121900000Y-53400000D03*
X120200000Y-53400000D03*
D26*
X150600000Y-85200000D03*
X152600000Y-85200000D03*
D27*
X119772863Y-77530000D03*
X119772863Y-79530000D03*
D26*
X156400000Y-72200000D03*
X158400000Y-72200000D03*
D19*
X155592500Y-64820000D03*
X157667500Y-64820000D03*
D18*
X133750000Y-83000000D03*
X146250000Y-80750000D03*
D21*
X161500000Y-96500000D03*
D19*
X122425000Y-79250000D03*
X124500000Y-79250000D03*
D29*
X113400000Y-54000000D03*
X113400000Y-52000000D03*
D30*
X114060000Y-87040000D03*
D31*
X116600000Y-87040000D03*
X119140000Y-87040000D03*
D32*
X114060000Y-89660000D03*
X119140000Y-89660000D03*
D33*
X131100000Y-71380000D03*
X131100000Y-72650000D03*
X131100000Y-73920000D03*
X131100000Y-75190000D03*
X131100000Y-76460000D03*
X131100000Y-77730000D03*
X131100000Y-79000000D03*
X131100000Y-80270000D03*
X136050000Y-80270000D03*
X136050000Y-79000000D03*
X136050000Y-77730000D03*
X136050000Y-76460000D03*
X136050000Y-75190000D03*
X136050000Y-73920000D03*
X136050000Y-72650000D03*
X136050000Y-71380000D03*
D26*
X120250000Y-69250000D03*
X122250000Y-69250000D03*
D18*
X136250000Y-82500000D03*
D34*
X145475002Y-70249999D03*
X145475002Y-70749998D03*
X145475002Y-71250000D03*
X145475002Y-71749999D03*
X145475002Y-72250000D03*
X145475002Y-72749999D03*
X145475002Y-73249998D03*
X145475002Y-73750000D03*
X145475002Y-74249999D03*
X145475002Y-74750001D03*
X145475002Y-75250000D03*
X145475002Y-75749999D03*
X145475002Y-76250000D03*
X145475002Y-76749999D03*
X145475002Y-77250001D03*
X151025001Y-77250001D03*
X151025001Y-76749999D03*
X151025001Y-76250000D03*
X151025001Y-75749999D03*
X151025001Y-75250000D03*
X151025001Y-74750001D03*
X151025001Y-74249999D03*
X151025001Y-73750000D03*
X151025001Y-73249998D03*
X151025001Y-72749999D03*
X151025001Y-72250000D03*
X151025001Y-71749999D03*
X151025001Y-71250000D03*
X151025001Y-70749998D03*
X151025001Y-70249999D03*
D29*
X159250000Y-69250000D03*
X159250000Y-67250000D03*
D18*
X141000000Y-82250000D03*
D22*
X142600000Y-71762500D03*
X142600000Y-73837500D03*
D35*
X109806400Y-69300000D03*
X109806400Y-69950001D03*
X109806400Y-70600000D03*
X109806400Y-71250001D03*
X109806400Y-71899999D03*
X109806400Y-72550001D03*
X109806400Y-73199999D03*
X109806400Y-73849998D03*
X109806400Y-74499999D03*
X109806400Y-75149998D03*
X109806400Y-75799999D03*
X109806400Y-76449998D03*
X109806400Y-77099999D03*
X109806400Y-77749998D03*
X115750000Y-77750000D03*
X115750000Y-77099999D03*
X115750000Y-76450000D03*
X115750000Y-75799999D03*
X115750000Y-75150001D03*
X115750000Y-74499999D03*
X115750000Y-73850001D03*
X115750000Y-73199999D03*
X115750000Y-72550001D03*
X115750000Y-71899999D03*
X115750000Y-71250001D03*
X115750000Y-70600000D03*
X115750000Y-69950001D03*
X115750000Y-69300000D03*
D36*
X108370000Y-48770000D03*
D37*
X108370000Y-46230000D03*
X110910000Y-48770000D03*
X110910000Y-46230000D03*
X113450000Y-48770000D03*
X113450000Y-46230000D03*
X115990000Y-48770000D03*
X115990000Y-46230000D03*
X118530000Y-48770000D03*
X118530000Y-46230000D03*
X121070000Y-48770000D03*
X121070000Y-46230000D03*
X123610000Y-48770000D03*
X123610000Y-46230000D03*
X126150000Y-48770000D03*
X126150000Y-46230000D03*
X128690000Y-48770000D03*
X128690000Y-46230000D03*
X131230000Y-48770000D03*
X131230000Y-46230000D03*
X133770000Y-48770000D03*
X133770000Y-46230000D03*
X136310000Y-48770000D03*
X136310000Y-46230000D03*
X138850000Y-48770000D03*
X138850000Y-46230000D03*
X141390000Y-48770000D03*
X141390000Y-46230000D03*
X143930000Y-48770000D03*
X143930000Y-46230000D03*
X146470000Y-48770000D03*
X146470000Y-46230000D03*
X149010000Y-48770000D03*
X149010000Y-46230000D03*
X151550000Y-48770000D03*
X151550000Y-46230000D03*
X154090000Y-48770000D03*
X154090000Y-46230000D03*
X156630000Y-48770000D03*
X156630000Y-46230000D03*
%LPD*%
M02*
