G04 #@! TF.GenerationSoftware,KiCad,Pcbnew,9.0.6*
G04 #@! TF.CreationDate,2026-02-11T04:54:52-08:00*
G04 #@! TF.ProjectId,mutebox_hat_audio_in,6d757465-626f-4785-9f68-61745f617564,rev?*
G04 #@! TF.SameCoordinates,Original*
G04 #@! TF.FileFunction,Copper,L2,Bot*
G04 #@! TF.FilePolarity,Positive*
%FSLAX46Y46*%
G04 Gerber Fmt 4.6, Leading zero omitted, Abs format (unit mm)*
G04 Created by KiCad (PCBNEW 9.0.6) date 2026-02-11 04:54:52*
%MOMM*%
%LPD*%
G01*
G04 APERTURE LIST*
G04 Aperture macros list*
%AMRoundRect*
0 Rectangle with rounded corners*
0 $1 Rounding radius*
0 $2 $3 $4 $5 $6 $7 $8 $9 X,Y pos of 4 corners*
0 Add a 4 corners polygon primitive as box body*
4,1,4,$2,$3,$4,$5,$6,$7,$8,$9,$2,$3,0*
0 Add four circle primitives for the rounded corners*
1,1,$1+$1,$2,$3*
1,1,$1+$1,$4,$5*
1,1,$1+$1,$6,$7*
1,1,$1+$1,$8,$9*
0 Add four rect primitives between the rounded corners*
20,1,$1+$1,$2,$3,$4,$5,0*
20,1,$1+$1,$4,$5,$6,$7,0*
20,1,$1+$1,$6,$7,$8,$9,0*
20,1,$1+$1,$8,$9,$2,$3,0*%
G04 Aperture macros list end*
G04 #@! TA.AperFunction,ComponentPad*
%ADD10R,1.300000X1.300000*%
G04 #@! TD*
G04 #@! TA.AperFunction,ComponentPad*
%ADD11C,1.300000*%
G04 #@! TD*
G04 #@! TA.AperFunction,ComponentPad*
%ADD12C,1.650000*%
G04 #@! TD*
G04 #@! TA.AperFunction,ComponentPad*
%ADD13O,4.800000X2.400000*%
G04 #@! TD*
G04 #@! TA.AperFunction,ComponentPad*
%ADD14O,1.700000X3.400000*%
G04 #@! TD*
G04 #@! TA.AperFunction,ComponentPad*
%ADD15R,1.700000X1.700000*%
G04 #@! TD*
G04 #@! TA.AperFunction,ComponentPad*
%ADD16C,1.700000*%
G04 #@! TD*
G04 #@! TA.AperFunction,SMDPad,CuDef*
%ADD17RoundRect,0.250000X-0.475000X0.337500X-0.475000X-0.337500X0.475000X-0.337500X0.475000X0.337500X0*%
G04 #@! TD*
G04 #@! TA.AperFunction,ViaPad*
%ADD18C,0.900000*%
G04 #@! TD*
G04 #@! TA.AperFunction,Conductor*
%ADD19C,0.250000*%
G04 #@! TD*
G04 APERTURE END LIST*
D10*
X114060000Y-87040000D03*
D11*
X116600000Y-87040000D03*
X119140000Y-87040000D03*
D12*
X114060000Y-89660000D03*
X119140000Y-89660000D03*
D13*
X150800000Y-94800000D03*
D14*
X150800000Y-90300000D03*
D13*
X138662000Y-94800000D03*
D14*
X138662000Y-90300000D03*
D15*
X108370000Y-48770000D03*
D16*
X108370000Y-46230000D03*
X110910000Y-48770000D03*
X110910000Y-46230000D03*
X113450000Y-48770000D03*
X113450000Y-46230000D03*
X115990000Y-48770000D03*
X115990000Y-46230000D03*
X118530000Y-48770000D03*
X118530000Y-46230000D03*
X121070000Y-48770000D03*
X121070000Y-46230000D03*
X123610000Y-48770000D03*
X123610000Y-46230000D03*
X126150000Y-48770000D03*
X126150000Y-46230000D03*
X128690000Y-48770000D03*
X128690000Y-46230000D03*
X131230000Y-48770000D03*
X131230000Y-46230000D03*
X133770000Y-48770000D03*
X133770000Y-46230000D03*
X136310000Y-48770000D03*
X136310000Y-46230000D03*
X138850000Y-48770000D03*
X138850000Y-46230000D03*
X141390000Y-48770000D03*
X141390000Y-46230000D03*
X143930000Y-48770000D03*
X143930000Y-46230000D03*
X146470000Y-48770000D03*
X146470000Y-46230000D03*
X149010000Y-48770000D03*
X149010000Y-46230000D03*
X151550000Y-48770000D03*
X151550000Y-46230000D03*
X154090000Y-48770000D03*
X154090000Y-46230000D03*
X156630000Y-48770000D03*
X156630000Y-46230000D03*
D17*
X125818750Y-54525000D03*
X125818750Y-56600000D03*
X140750000Y-53125000D03*
X140750000Y-55200000D03*
D18*
X154500000Y-67599000D03*
X149000000Y-77250000D03*
X118000000Y-75000000D03*
X117938500Y-69350000D03*
X140000000Y-76500000D03*
X112750000Y-72674999D03*
X149250000Y-68750000D03*
X125769897Y-58169897D03*
X139400000Y-57800000D03*
X143000000Y-69400000D03*
X146600000Y-78600000D03*
X139000000Y-53250000D03*
X129575000Y-63425000D03*
X118250000Y-76975000D03*
X142662000Y-87050000D03*
X147000000Y-72000000D03*
X151600000Y-51000000D03*
X129250000Y-79250000D03*
X128137000Y-51250000D03*
X128051992Y-70898008D03*
X129000000Y-71400000D03*
X122400000Y-51201000D03*
X128250000Y-75000000D03*
X143589338Y-78545357D03*
X159000000Y-66000000D03*
X134470000Y-80270000D03*
X107500000Y-76097212D03*
X128750000Y-73399997D03*
X143000000Y-82250000D03*
X154400707Y-78599293D03*
X132800000Y-72600000D03*
X132800000Y-76400000D03*
X142400000Y-79626000D03*
X142600000Y-75600000D03*
X148662000Y-86250000D03*
X107500000Y-77250000D03*
X134400000Y-79000000D03*
X128500000Y-77750000D03*
X107750000Y-75000000D03*
X117750000Y-70750000D03*
X119750000Y-51201000D03*
D19*
X125818750Y-56600000D02*
X125818750Y-58121044D01*
X125818750Y-58121044D02*
X125769897Y-58169897D01*
X139400000Y-57800000D02*
X140750000Y-56450000D01*
X140750000Y-56450000D02*
X140750000Y-55200000D01*
X146600000Y-78600000D02*
X145878643Y-79321357D01*
X141349000Y-77402449D02*
X141349000Y-71051000D01*
X145878643Y-79321357D02*
X143267908Y-79321357D01*
X143000000Y-69400000D02*
X141349000Y-71051000D01*
X143267908Y-79321357D02*
X141349000Y-77402449D01*
X136174000Y-50424000D02*
X125800000Y-50424000D01*
X125818750Y-54525000D02*
X125818750Y-50442750D01*
X139000000Y-53250000D02*
X140625000Y-53250000D01*
X112086000Y-47406000D02*
X110910000Y-46230000D01*
X140625000Y-53250000D02*
X140750000Y-53125000D01*
X125800000Y-50424000D02*
X113252884Y-50424000D01*
X139000000Y-53250000D02*
X136174000Y-50424000D01*
X112086000Y-49257116D02*
X112086000Y-47406000D01*
X113252884Y-50424000D02*
X112086000Y-49257116D01*
X125818750Y-50442750D02*
X125800000Y-50424000D01*
X140725000Y-53125000D02*
X140750000Y-53125000D01*
X129776000Y-75224000D02*
X129776000Y-63626000D01*
X118250000Y-76975000D02*
X128025000Y-76975000D01*
X129776000Y-63626000D02*
X129575000Y-63425000D01*
X128025000Y-76975000D02*
X129776000Y-75224000D01*
X155176000Y-78278570D02*
X148897430Y-72000000D01*
X148261000Y-81451000D02*
X152786810Y-81451000D01*
X155176000Y-79061810D02*
X155176000Y-78278570D01*
X148897430Y-72000000D02*
X147000000Y-72000000D01*
X142662000Y-87050000D02*
X148261000Y-81451000D01*
X152786810Y-81451000D02*
X155176000Y-79061810D01*
X131122000Y-71478000D02*
X151600000Y-51000000D01*
X129250000Y-79249997D02*
X131122000Y-77377997D01*
X131122000Y-77377997D02*
X131122000Y-71478000D01*
X129250000Y-79250000D02*
X129250000Y-79249997D01*
X128137000Y-70537000D02*
X129000000Y-71400000D01*
X128137000Y-51250000D02*
X128137000Y-70537000D01*
X122400000Y-68150000D02*
X122400000Y-51201000D01*
X128250000Y-74000000D02*
X122400000Y-68150000D01*
X128250000Y-75000000D02*
X128250000Y-74000000D01*
X141800000Y-73002570D02*
X147978570Y-66824000D01*
X147978570Y-66824000D02*
X158176000Y-66824000D01*
X158176000Y-66824000D02*
X159000000Y-66000000D01*
X141800000Y-76756019D02*
X141800000Y-73002570D01*
X143589338Y-78545357D02*
X141800000Y-76756019D01*
X131573000Y-77373000D02*
X134470000Y-80270000D01*
X152914000Y-47406000D02*
X154090000Y-46230000D01*
X152914000Y-50783430D02*
X152914000Y-47406000D01*
X131573000Y-72027000D02*
X131573000Y-77373000D01*
X151824000Y-51776000D02*
X151921430Y-51776000D01*
X151921430Y-51776000D02*
X152914000Y-50783430D01*
X131573000Y-72027000D02*
X151824000Y-51776000D01*
X128750000Y-73399997D02*
X129026000Y-73675997D01*
X109623430Y-75776000D02*
X108071430Y-74224000D01*
X108071430Y-74224000D02*
X107428570Y-74224000D01*
X129026000Y-75321430D02*
X128571430Y-75776000D01*
X106974000Y-74678570D02*
X106974000Y-75571212D01*
X106974000Y-75571212D02*
X107500000Y-76097212D01*
X128571430Y-75776000D02*
X109623430Y-75776000D01*
X107428570Y-74224000D02*
X106974000Y-74678570D01*
X129026000Y-73675997D02*
X129026000Y-75321430D01*
X143000000Y-82250000D02*
X141750000Y-81000000D01*
X154400707Y-78642677D02*
X154400000Y-78643384D01*
X139600000Y-81000000D02*
X132800000Y-74200000D01*
X132800000Y-74200000D02*
X132800000Y-72600000D01*
X141750000Y-81000000D02*
X152600000Y-81000000D01*
X154400000Y-78643384D02*
X154400000Y-79200000D01*
X141750000Y-81000000D02*
X139600000Y-81000000D01*
X154400707Y-78599293D02*
X154400707Y-78642677D01*
X154400000Y-79200000D02*
X152600000Y-81000000D01*
X132024000Y-75624000D02*
X132800000Y-76400000D01*
X142400000Y-79626000D02*
X141626000Y-79626000D01*
X132478570Y-71824000D02*
X132024000Y-72278570D01*
X133824000Y-71824000D02*
X132478570Y-71824000D01*
X132024000Y-72278570D02*
X132024000Y-75624000D01*
X141626000Y-79626000D02*
X133824000Y-71824000D01*
X148750000Y-86250000D02*
X148662000Y-86250000D01*
X155627000Y-79373000D02*
X148750000Y-86250000D01*
X146678570Y-71224000D02*
X142600000Y-75302570D01*
X155627000Y-79373000D02*
X155627000Y-78091760D01*
X142600000Y-75302570D02*
X142600000Y-75600000D01*
X155627000Y-78091760D02*
X148759240Y-71224000D01*
X148759240Y-71224000D02*
X146678570Y-71224000D01*
X134791430Y-81046000D02*
X135246000Y-80591430D01*
X135246000Y-80591430D02*
X135246000Y-79846000D01*
X135246000Y-79846000D02*
X134400000Y-79000000D01*
X107500000Y-77250000D02*
X111296000Y-81046000D01*
X111296000Y-81046000D02*
X134791430Y-81046000D01*
X110500000Y-77750000D02*
X107750000Y-75000000D01*
X128500000Y-77750000D02*
X110500000Y-77750000D01*
X119750000Y-51201000D02*
X119750000Y-68750000D01*
X119750000Y-68750000D02*
X117750000Y-70750000D01*
G04 #@! TA.AperFunction,Conductor*
G36*
X146325791Y-72133848D02*
G01*
X146369056Y-72177113D01*
X146372379Y-72185358D01*
X146372638Y-72185251D01*
X146423534Y-72308125D01*
X146423538Y-72308133D01*
X146464542Y-72369498D01*
X146494724Y-72414669D01*
X146585331Y-72505276D01*
X146631208Y-72535930D01*
X146691866Y-72576461D01*
X146691870Y-72576463D01*
X146691873Y-72576465D01*
X146810256Y-72625501D01*
X146935931Y-72650500D01*
X146935932Y-72650500D01*
X147064068Y-72650500D01*
X147064069Y-72650500D01*
X147189744Y-72625501D01*
X147308127Y-72576465D01*
X147414669Y-72505276D01*
X147505276Y-72414669D01*
X147535458Y-72369497D01*
X147583508Y-72331619D01*
X147617773Y-72325500D01*
X148721595Y-72325500D01*
X148779786Y-72344407D01*
X148791599Y-72354496D01*
X154247568Y-77810465D01*
X154275345Y-77864982D01*
X154265774Y-77925414D01*
X154222509Y-77968679D01*
X154215450Y-77971933D01*
X154092581Y-78022827D01*
X154092573Y-78022831D01*
X153986038Y-78094017D01*
X153986034Y-78094020D01*
X153895434Y-78184620D01*
X153895431Y-78184624D01*
X153824245Y-78291159D01*
X153824241Y-78291167D01*
X153775207Y-78409545D01*
X153775206Y-78409548D01*
X153775206Y-78409549D01*
X153750207Y-78535224D01*
X153750207Y-78663362D01*
X153766391Y-78744724D01*
X153775206Y-78789035D01*
X153775207Y-78789040D01*
X153824241Y-78907418D01*
X153824245Y-78907426D01*
X153847263Y-78941874D01*
X153895431Y-79013962D01*
X153895434Y-79013965D01*
X153940566Y-79059097D01*
X153968343Y-79113614D01*
X153958772Y-79174046D01*
X153940566Y-79199105D01*
X152494169Y-80645504D01*
X152439652Y-80673281D01*
X152424165Y-80674500D01*
X139775835Y-80674500D01*
X139717644Y-80655593D01*
X139705831Y-80645504D01*
X133154496Y-74094169D01*
X133126719Y-74039652D01*
X133125500Y-74024165D01*
X133125500Y-73217773D01*
X133144407Y-73159582D01*
X133169499Y-73135457D01*
X133192312Y-73120214D01*
X133214669Y-73105276D01*
X133305276Y-73014669D01*
X133376465Y-72908127D01*
X133425501Y-72789744D01*
X133450500Y-72664069D01*
X133450500Y-72535931D01*
X133425501Y-72410256D01*
X133376465Y-72291873D01*
X133374604Y-72287380D01*
X133376677Y-72286521D01*
X133376644Y-72286336D01*
X133371382Y-72279093D01*
X133371382Y-72256825D01*
X133367474Y-72234912D01*
X133371382Y-72226859D01*
X133371382Y-72217907D01*
X133384469Y-72199893D01*
X133394189Y-72179867D01*
X133402083Y-72175649D01*
X133407346Y-72168407D01*
X133428520Y-72161526D01*
X133448156Y-72151038D01*
X133465537Y-72149500D01*
X133648165Y-72149500D01*
X133706356Y-72168407D01*
X133718169Y-72178496D01*
X141426138Y-79886465D01*
X141426140Y-79886466D01*
X141426141Y-79886467D01*
X141426142Y-79886468D01*
X141500357Y-79929316D01*
X141500355Y-79929316D01*
X141500359Y-79929317D01*
X141500361Y-79929318D01*
X141583147Y-79951500D01*
X141668853Y-79951500D01*
X141782227Y-79951500D01*
X141840418Y-79970407D01*
X141864540Y-79995496D01*
X141894724Y-80040669D01*
X141985331Y-80131276D01*
X142048848Y-80173717D01*
X142091866Y-80202461D01*
X142091870Y-80202463D01*
X142091873Y-80202465D01*
X142210256Y-80251501D01*
X142335931Y-80276500D01*
X142335932Y-80276500D01*
X142464068Y-80276500D01*
X142464069Y-80276500D01*
X142589744Y-80251501D01*
X142708127Y-80202465D01*
X142814669Y-80131276D01*
X142905276Y-80040669D01*
X142976465Y-79934127D01*
X143025501Y-79815744D01*
X143046872Y-79708306D01*
X143076768Y-79654925D01*
X143132333Y-79629309D01*
X143154354Y-79629169D01*
X143162082Y-79629984D01*
X143225055Y-79646858D01*
X143310761Y-79646858D01*
X143310765Y-79646857D01*
X145835790Y-79646857D01*
X145921496Y-79646857D01*
X146004282Y-79624675D01*
X146004284Y-79624673D01*
X146004286Y-79624673D01*
X146078500Y-79581825D01*
X146078500Y-79581824D01*
X146078505Y-79581822D01*
X146393332Y-79266993D01*
X146447847Y-79239217D01*
X146482643Y-79239899D01*
X146535931Y-79250500D01*
X146535936Y-79250500D01*
X146664068Y-79250500D01*
X146664069Y-79250500D01*
X146789744Y-79225501D01*
X146908127Y-79176465D01*
X147014669Y-79105276D01*
X147105276Y-79014669D01*
X147176465Y-78908127D01*
X147225501Y-78789744D01*
X147250500Y-78664069D01*
X147250500Y-78535931D01*
X147225501Y-78410256D01*
X147176465Y-78291873D01*
X147176463Y-78291870D01*
X147176461Y-78291866D01*
X147139949Y-78237223D01*
X147105276Y-78185331D01*
X147014669Y-78094724D01*
X146959895Y-78058125D01*
X146908133Y-78023538D01*
X146908125Y-78023534D01*
X146789747Y-77974500D01*
X146789745Y-77974499D01*
X146789744Y-77974499D01*
X146664069Y-77949500D01*
X146535931Y-77949500D01*
X146535930Y-77949500D01*
X146473093Y-77961999D01*
X146410256Y-77974499D01*
X146410255Y-77974499D01*
X146410252Y-77974500D01*
X146291874Y-78023534D01*
X146291866Y-78023538D01*
X146185331Y-78094724D01*
X146185327Y-78094727D01*
X146094727Y-78185327D01*
X146094724Y-78185331D01*
X146023538Y-78291866D01*
X146023534Y-78291874D01*
X145974500Y-78410252D01*
X145974499Y-78410257D01*
X145949500Y-78535930D01*
X145949500Y-78664071D01*
X145960098Y-78717350D01*
X145952906Y-78778111D01*
X145933004Y-78806667D01*
X145772813Y-78966860D01*
X145718297Y-78994638D01*
X145702809Y-78995857D01*
X144254875Y-78995857D01*
X144196684Y-78976950D01*
X144160720Y-78927450D01*
X144160720Y-78866264D01*
X144164201Y-78858084D01*
X144163942Y-78857977D01*
X144183708Y-78810257D01*
X144214839Y-78735101D01*
X144239838Y-78609426D01*
X144239838Y-78481288D01*
X144214839Y-78355613D01*
X144165803Y-78237230D01*
X144165801Y-78237227D01*
X144165799Y-78237223D01*
X144131125Y-78185331D01*
X144094614Y-78130688D01*
X144004007Y-78040081D01*
X143961564Y-78011722D01*
X143897471Y-77968895D01*
X143897463Y-77968891D01*
X143779085Y-77919857D01*
X143779083Y-77919856D01*
X143779082Y-77919856D01*
X143653407Y-77894857D01*
X143525269Y-77894857D01*
X143525265Y-77894857D01*
X143471987Y-77905455D01*
X143411225Y-77898263D01*
X143382669Y-77878361D01*
X142154496Y-76650188D01*
X142126719Y-76595671D01*
X142125500Y-76580184D01*
X142125500Y-76250514D01*
X142144407Y-76192323D01*
X142193907Y-76156359D01*
X142255093Y-76156359D01*
X142279504Y-76168200D01*
X142291869Y-76176463D01*
X142291871Y-76176464D01*
X142291873Y-76176465D01*
X142410256Y-76225501D01*
X142535931Y-76250500D01*
X142535932Y-76250500D01*
X142664068Y-76250500D01*
X142664069Y-76250500D01*
X142789744Y-76225501D01*
X142908127Y-76176465D01*
X143014669Y-76105276D01*
X143105276Y-76014669D01*
X143176465Y-75908127D01*
X143225501Y-75789744D01*
X143250500Y-75664069D01*
X143250500Y-75535931D01*
X143225501Y-75410256D01*
X143176465Y-75291873D01*
X143176458Y-75291863D01*
X143174351Y-75287920D01*
X143163591Y-75227688D01*
X143190288Y-75172635D01*
X143191604Y-75171291D01*
X146210843Y-72152053D01*
X146265359Y-72124277D01*
X146325791Y-72133848D01*
G37*
G04 #@! TD.AperFunction*
G04 #@! TA.AperFunction,Conductor*
G36*
X125452441Y-50768407D02*
G01*
X125488405Y-50817907D01*
X125493250Y-50848500D01*
X125493250Y-53638000D01*
X125474343Y-53696191D01*
X125424843Y-53732155D01*
X125394250Y-53737000D01*
X125289475Y-53737000D01*
X125259055Y-53739853D01*
X125259046Y-53739855D01*
X125130866Y-53784707D01*
X125021605Y-53865345D01*
X125021595Y-53865355D01*
X124940957Y-53974616D01*
X124896105Y-54102796D01*
X124896103Y-54102805D01*
X124893250Y-54133225D01*
X124893250Y-54916774D01*
X124896103Y-54947194D01*
X124896105Y-54947203D01*
X124940957Y-55075383D01*
X125021595Y-55184644D01*
X125021597Y-55184646D01*
X125021600Y-55184650D01*
X125021603Y-55184652D01*
X125021605Y-55184654D01*
X125130866Y-55265292D01*
X125130867Y-55265292D01*
X125130868Y-55265293D01*
X125259051Y-55310146D01*
X125289475Y-55312999D01*
X125289477Y-55313000D01*
X125289484Y-55313000D01*
X126348023Y-55313000D01*
X126348023Y-55312999D01*
X126378449Y-55310146D01*
X126506632Y-55265293D01*
X126615900Y-55184650D01*
X126696543Y-55075382D01*
X126741396Y-54947199D01*
X126744249Y-54916773D01*
X126744250Y-54916773D01*
X126744250Y-54133227D01*
X126744249Y-54133225D01*
X126741396Y-54102805D01*
X126741396Y-54102801D01*
X126696543Y-53974618D01*
X126651066Y-53912999D01*
X126615904Y-53865355D01*
X126615902Y-53865353D01*
X126615900Y-53865350D01*
X126615896Y-53865347D01*
X126615894Y-53865345D01*
X126506633Y-53784707D01*
X126378453Y-53739855D01*
X126378444Y-53739853D01*
X126348024Y-53737000D01*
X126348016Y-53737000D01*
X126243250Y-53737000D01*
X126185059Y-53718093D01*
X126149095Y-53668593D01*
X126144250Y-53638000D01*
X126144250Y-50848500D01*
X126163157Y-50790309D01*
X126212657Y-50754345D01*
X126243250Y-50749500D01*
X127503858Y-50749500D01*
X127562049Y-50768407D01*
X127598013Y-50817907D01*
X127598013Y-50879093D01*
X127586173Y-50903502D01*
X127560538Y-50941865D01*
X127560534Y-50941874D01*
X127511500Y-51060252D01*
X127511499Y-51060257D01*
X127486500Y-51185930D01*
X127486500Y-51314069D01*
X127511499Y-51439742D01*
X127511500Y-51439747D01*
X127560534Y-51558125D01*
X127560538Y-51558133D01*
X127598983Y-51615668D01*
X127631724Y-51664669D01*
X127631727Y-51664672D01*
X127631731Y-51664677D01*
X127703512Y-51736457D01*
X127722331Y-51755276D01*
X127766077Y-51784506D01*
X127767501Y-51785457D01*
X127805381Y-51833506D01*
X127811500Y-51867773D01*
X127811500Y-70227377D01*
X127792593Y-70285568D01*
X127750389Y-70318840D01*
X127743867Y-70321541D01*
X127637323Y-70392732D01*
X127637319Y-70392735D01*
X127546719Y-70483335D01*
X127546716Y-70483339D01*
X127475530Y-70589874D01*
X127475526Y-70589882D01*
X127426492Y-70708260D01*
X127426491Y-70708265D01*
X127403562Y-70823535D01*
X127401492Y-70833939D01*
X127401492Y-70962077D01*
X127420599Y-71058133D01*
X127426491Y-71087750D01*
X127426492Y-71087755D01*
X127475526Y-71206133D01*
X127475530Y-71206141D01*
X127508359Y-71255272D01*
X127546716Y-71312677D01*
X127637323Y-71403284D01*
X127700840Y-71445725D01*
X127743858Y-71474469D01*
X127743862Y-71474471D01*
X127743865Y-71474473D01*
X127862248Y-71523509D01*
X127987923Y-71548508D01*
X127987924Y-71548508D01*
X128116060Y-71548508D01*
X128116061Y-71548508D01*
X128241736Y-71523509D01*
X128241739Y-71523507D01*
X128246387Y-71522098D01*
X128246779Y-71523390D01*
X128301902Y-71519046D01*
X128354074Y-71551010D01*
X128373535Y-71586568D01*
X128374497Y-71589740D01*
X128423534Y-71708125D01*
X128423538Y-71708133D01*
X128466365Y-71772226D01*
X128494724Y-71814669D01*
X128585331Y-71905276D01*
X128648848Y-71947717D01*
X128691866Y-71976461D01*
X128691870Y-71976463D01*
X128691873Y-71976465D01*
X128810256Y-72025501D01*
X128935931Y-72050500D01*
X128935932Y-72050500D01*
X129064068Y-72050500D01*
X129064069Y-72050500D01*
X129189744Y-72025501D01*
X129308127Y-71976465D01*
X129308126Y-71976465D01*
X129312620Y-71974604D01*
X129313485Y-71976692D01*
X129365011Y-71967462D01*
X129420077Y-71994134D01*
X129448949Y-72048079D01*
X129450500Y-72065536D01*
X129450500Y-72951142D01*
X129431593Y-73009333D01*
X129382093Y-73045297D01*
X129320907Y-73045297D01*
X129271407Y-73009333D01*
X129269186Y-73006145D01*
X129255278Y-72985331D01*
X129255276Y-72985328D01*
X129164669Y-72894721D01*
X129122226Y-72866362D01*
X129058133Y-72823535D01*
X129058125Y-72823531D01*
X128939747Y-72774497D01*
X128939745Y-72774496D01*
X128939744Y-72774496D01*
X128814069Y-72749497D01*
X128685931Y-72749497D01*
X128685930Y-72749497D01*
X128623093Y-72761996D01*
X128560256Y-72774496D01*
X128560255Y-72774496D01*
X128560252Y-72774497D01*
X128441874Y-72823531D01*
X128441866Y-72823535D01*
X128335331Y-72894721D01*
X128335327Y-72894724D01*
X128244727Y-72985324D01*
X128244724Y-72985328D01*
X128173538Y-73091863D01*
X128173534Y-73091871D01*
X128122638Y-73214746D01*
X128121169Y-73214137D01*
X128089971Y-73258868D01*
X128032156Y-73278894D01*
X127973611Y-73261112D01*
X127960243Y-73249916D01*
X122754496Y-68044169D01*
X122726719Y-67989652D01*
X122725500Y-67974165D01*
X122725500Y-56850001D01*
X124893751Y-56850001D01*
X124893751Y-56991703D01*
X124896600Y-57022100D01*
X124896600Y-57022102D01*
X124941404Y-57150147D01*
X125021957Y-57259290D01*
X125021959Y-57259292D01*
X125131102Y-57339845D01*
X125259148Y-57384649D01*
X125289539Y-57387499D01*
X125568748Y-57387499D01*
X125568750Y-57387498D01*
X125568750Y-56850001D01*
X126068750Y-56850001D01*
X126068750Y-57387498D01*
X126068751Y-57387499D01*
X126347953Y-57387499D01*
X126378350Y-57384649D01*
X126378352Y-57384649D01*
X126506397Y-57339845D01*
X126615540Y-57259292D01*
X126615542Y-57259290D01*
X126696095Y-57150147D01*
X126740899Y-57022101D01*
X126743749Y-56991711D01*
X126743750Y-56991710D01*
X126743750Y-56850001D01*
X126743749Y-56850000D01*
X126068751Y-56850000D01*
X126068750Y-56850001D01*
X125568750Y-56850001D01*
X125568749Y-56850000D01*
X124893752Y-56850000D01*
X124893751Y-56850001D01*
X122725500Y-56850001D01*
X122725500Y-56208288D01*
X124893750Y-56208288D01*
X124893750Y-56349999D01*
X124893751Y-56350000D01*
X125568749Y-56350000D01*
X125568750Y-56349999D01*
X125568750Y-55812501D01*
X126068750Y-55812501D01*
X126068750Y-56349999D01*
X126068751Y-56350000D01*
X126743748Y-56350000D01*
X126743749Y-56349999D01*
X126743749Y-56208296D01*
X126740899Y-56177899D01*
X126740899Y-56177897D01*
X126696095Y-56049852D01*
X126615542Y-55940709D01*
X126615540Y-55940707D01*
X126506397Y-55860154D01*
X126378351Y-55815350D01*
X126347961Y-55812500D01*
X126068751Y-55812500D01*
X126068750Y-55812501D01*
X125568750Y-55812501D01*
X125568749Y-55812500D01*
X125289546Y-55812500D01*
X125259149Y-55815350D01*
X125259147Y-55815350D01*
X125131102Y-55860154D01*
X125021959Y-55940707D01*
X125021957Y-55940709D01*
X124941404Y-56049852D01*
X124896600Y-56177898D01*
X124893750Y-56208288D01*
X122725500Y-56208288D01*
X122725500Y-51818773D01*
X122744407Y-51760582D01*
X122769499Y-51736457D01*
X122814669Y-51706276D01*
X122905276Y-51615669D01*
X122976465Y-51509127D01*
X123025501Y-51390744D01*
X123050500Y-51265069D01*
X123050500Y-51136931D01*
X123025501Y-51011256D01*
X122976465Y-50892873D01*
X122974604Y-50888380D01*
X122976351Y-50887656D01*
X122966935Y-50834943D01*
X122993633Y-50779889D01*
X123047591Y-50751043D01*
X123065002Y-50749500D01*
X125394250Y-50749500D01*
X125452441Y-50768407D01*
G37*
G04 #@! TD.AperFunction*
G04 #@! TA.AperFunction,Conductor*
G36*
X161502421Y-44050619D02*
G01*
X161531275Y-44052036D01*
X161833272Y-44066872D01*
X161842914Y-44067822D01*
X162168160Y-44116068D01*
X162177666Y-44117958D01*
X162496630Y-44197855D01*
X162505901Y-44200667D01*
X162815490Y-44311440D01*
X162824459Y-44315155D01*
X163121701Y-44455740D01*
X163130244Y-44460307D01*
X163412264Y-44629343D01*
X163420342Y-44634740D01*
X163684437Y-44830606D01*
X163691947Y-44836770D01*
X163724286Y-44866080D01*
X163935566Y-45057573D01*
X163942431Y-45064438D01*
X164163229Y-45308052D01*
X164169393Y-45315562D01*
X164365259Y-45579657D01*
X164370656Y-45587735D01*
X164539685Y-45869742D01*
X164544262Y-45878305D01*
X164592424Y-45980135D01*
X164684842Y-46175537D01*
X164688560Y-46184513D01*
X164799328Y-46494085D01*
X164802148Y-46503382D01*
X164882038Y-46822322D01*
X164883933Y-46831851D01*
X164932175Y-47157071D01*
X164933128Y-47166739D01*
X164949381Y-47497577D01*
X164949500Y-47502435D01*
X164949500Y-96497564D01*
X164949381Y-96502422D01*
X164933128Y-96833260D01*
X164932175Y-96842928D01*
X164883933Y-97168148D01*
X164882038Y-97177677D01*
X164802148Y-97496617D01*
X164799328Y-97505914D01*
X164688560Y-97815486D01*
X164684842Y-97824462D01*
X164544265Y-98121689D01*
X164539685Y-98130257D01*
X164370656Y-98412264D01*
X164365259Y-98420342D01*
X164169393Y-98684437D01*
X164163229Y-98691947D01*
X163942431Y-98935561D01*
X163935561Y-98942431D01*
X163691947Y-99163229D01*
X163684437Y-99169393D01*
X163420342Y-99365259D01*
X163412264Y-99370656D01*
X163130257Y-99539685D01*
X163121689Y-99544265D01*
X162824462Y-99684842D01*
X162815486Y-99688560D01*
X162505914Y-99799328D01*
X162496617Y-99802148D01*
X162177677Y-99882038D01*
X162168148Y-99883933D01*
X161842928Y-99932175D01*
X161833260Y-99933128D01*
X161502422Y-99949381D01*
X161497564Y-99949500D01*
X103502436Y-99949500D01*
X103497578Y-99949381D01*
X103166739Y-99933128D01*
X103157071Y-99932175D01*
X102831851Y-99883933D01*
X102822322Y-99882038D01*
X102503382Y-99802148D01*
X102494085Y-99799328D01*
X102184513Y-99688560D01*
X102175537Y-99684842D01*
X101888402Y-99549038D01*
X101878305Y-99544262D01*
X101869748Y-99539688D01*
X101728738Y-99455170D01*
X101587735Y-99370656D01*
X101579657Y-99365259D01*
X101315562Y-99169393D01*
X101308052Y-99163229D01*
X101064438Y-98942431D01*
X101057573Y-98935566D01*
X100915744Y-98779082D01*
X100836770Y-98691947D01*
X100830606Y-98684437D01*
X100634740Y-98420342D01*
X100629343Y-98412264D01*
X100578551Y-98327523D01*
X100460307Y-98130244D01*
X100455740Y-98121701D01*
X100315155Y-97824459D01*
X100311439Y-97815486D01*
X100288565Y-97751557D01*
X100200667Y-97505901D01*
X100197855Y-97496630D01*
X100117958Y-97177666D01*
X100116068Y-97168160D01*
X100067822Y-96842914D01*
X100066872Y-96833272D01*
X100050619Y-96502421D01*
X100050500Y-96497564D01*
X100050500Y-96393709D01*
X102149500Y-96393709D01*
X102149500Y-96606290D01*
X102182752Y-96816238D01*
X102248443Y-97018412D01*
X102344948Y-97207815D01*
X102344950Y-97207819D01*
X102469891Y-97379786D01*
X102469893Y-97379788D01*
X102469896Y-97379792D01*
X102620208Y-97530104D01*
X102620211Y-97530106D01*
X102620213Y-97530108D01*
X102792180Y-97655049D01*
X102792184Y-97655051D01*
X102981588Y-97751557D01*
X103183757Y-97817246D01*
X103183758Y-97817246D01*
X103183761Y-97817247D01*
X103393710Y-97850500D01*
X103393713Y-97850500D01*
X103606290Y-97850500D01*
X103816238Y-97817247D01*
X103816239Y-97817246D01*
X103816243Y-97817246D01*
X104018412Y-97751557D01*
X104207816Y-97655051D01*
X104379792Y-97530104D01*
X104530104Y-97379792D01*
X104655051Y-97207816D01*
X104720644Y-97079082D01*
X133461500Y-97079082D01*
X133461500Y-98779082D01*
X133461500Y-98820918D01*
X133491082Y-98850500D01*
X133491083Y-98850500D01*
X135332917Y-98850500D01*
X135332918Y-98850500D01*
X135362500Y-98820918D01*
X135362500Y-97079082D01*
X141961500Y-97079082D01*
X141961500Y-98779082D01*
X141961500Y-98820918D01*
X141991082Y-98850500D01*
X141991083Y-98850500D01*
X143832917Y-98850500D01*
X143832918Y-98850500D01*
X143862500Y-98820918D01*
X143862500Y-97079082D01*
X145599500Y-97079082D01*
X145599500Y-98779082D01*
X145599500Y-98820918D01*
X145629082Y-98850500D01*
X145629083Y-98850500D01*
X147470917Y-98850500D01*
X147470918Y-98850500D01*
X147500500Y-98820918D01*
X147500500Y-97079082D01*
X154099500Y-97079082D01*
X154099500Y-98779082D01*
X154099500Y-98820918D01*
X154129082Y-98850500D01*
X154129083Y-98850500D01*
X155970917Y-98850500D01*
X155970918Y-98850500D01*
X156000500Y-98820918D01*
X156000500Y-97079082D01*
X155970918Y-97049500D01*
X154170918Y-97049500D01*
X154129082Y-97049500D01*
X154099500Y-97079082D01*
X147500500Y-97079082D01*
X147470918Y-97049500D01*
X145670918Y-97049500D01*
X145629082Y-97049500D01*
X145599500Y-97079082D01*
X143862500Y-97079082D01*
X143832918Y-97049500D01*
X142032918Y-97049500D01*
X141991082Y-97049500D01*
X141961500Y-97079082D01*
X135362500Y-97079082D01*
X135332918Y-97049500D01*
X133532918Y-97049500D01*
X133491082Y-97049500D01*
X133461500Y-97079082D01*
X104720644Y-97079082D01*
X104751557Y-97018412D01*
X104817246Y-96816243D01*
X104850500Y-96606287D01*
X104850500Y-96393713D01*
X104850500Y-96393709D01*
X160149500Y-96393709D01*
X160149500Y-96606290D01*
X160182752Y-96816238D01*
X160248443Y-97018412D01*
X160344948Y-97207815D01*
X160344950Y-97207819D01*
X160469891Y-97379786D01*
X160469893Y-97379788D01*
X160469896Y-97379792D01*
X160620208Y-97530104D01*
X160620211Y-97530106D01*
X160620213Y-97530108D01*
X160792180Y-97655049D01*
X160792184Y-97655051D01*
X160981588Y-97751557D01*
X161183757Y-97817246D01*
X161183758Y-97817246D01*
X161183761Y-97817247D01*
X161393710Y-97850500D01*
X161393713Y-97850500D01*
X161606290Y-97850500D01*
X161816238Y-97817247D01*
X161816239Y-97817246D01*
X161816243Y-97817246D01*
X162018412Y-97751557D01*
X162207816Y-97655051D01*
X162379792Y-97530104D01*
X162530104Y-97379792D01*
X162655051Y-97207816D01*
X162751557Y-97018412D01*
X162817246Y-96816243D01*
X162850500Y-96606287D01*
X162850500Y-96393713D01*
X162850500Y-96393709D01*
X162817247Y-96183761D01*
X162789348Y-96097897D01*
X162751557Y-95981588D01*
X162655051Y-95792184D01*
X162655049Y-95792180D01*
X162530108Y-95620213D01*
X162530106Y-95620211D01*
X162530104Y-95620208D01*
X162379792Y-95469896D01*
X162379788Y-95469893D01*
X162379786Y-95469891D01*
X162207819Y-95344950D01*
X162207815Y-95344948D01*
X162018412Y-95248443D01*
X161816238Y-95182752D01*
X161606290Y-95149500D01*
X161606287Y-95149500D01*
X161393713Y-95149500D01*
X161393710Y-95149500D01*
X161183761Y-95182752D01*
X160981587Y-95248443D01*
X160792184Y-95344948D01*
X160792180Y-95344950D01*
X160620213Y-95469891D01*
X160469891Y-95620213D01*
X160344950Y-95792180D01*
X160344948Y-95792184D01*
X160248443Y-95981587D01*
X160182752Y-96183761D01*
X160149500Y-96393709D01*
X104850500Y-96393709D01*
X104817247Y-96183761D01*
X104789348Y-96097897D01*
X104751557Y-95981588D01*
X104655051Y-95792184D01*
X104655049Y-95792180D01*
X104530108Y-95620213D01*
X104530106Y-95620211D01*
X104530104Y-95620208D01*
X104379792Y-95469896D01*
X104379788Y-95469893D01*
X104379786Y-95469891D01*
X104207819Y-95344950D01*
X104207815Y-95344948D01*
X104018412Y-95248443D01*
X103816238Y-95182752D01*
X103606290Y-95149500D01*
X103606287Y-95149500D01*
X103393713Y-95149500D01*
X103393710Y-95149500D01*
X103183761Y-95182752D01*
X102981587Y-95248443D01*
X102792184Y-95344948D01*
X102792180Y-95344950D01*
X102620213Y-95469891D01*
X102469891Y-95620213D01*
X102344950Y-95792180D01*
X102344948Y-95792184D01*
X102248443Y-95981587D01*
X102182752Y-96183761D01*
X102149500Y-96393709D01*
X100050500Y-96393709D01*
X100050500Y-94689774D01*
X136061500Y-94689774D01*
X136061500Y-94910225D01*
X136095984Y-95127948D01*
X136164102Y-95337599D01*
X136164104Y-95337602D01*
X136164105Y-95337606D01*
X136264185Y-95534022D01*
X136393758Y-95712365D01*
X136549635Y-95868242D01*
X136727978Y-95997815D01*
X136924394Y-96097895D01*
X137134049Y-96166015D01*
X137221140Y-96179809D01*
X137351775Y-96200500D01*
X137351778Y-96200500D01*
X139972225Y-96200500D01*
X140081086Y-96183257D01*
X140189951Y-96166015D01*
X140399606Y-96097895D01*
X140596022Y-95997815D01*
X140774365Y-95868242D01*
X140930242Y-95712365D01*
X141059815Y-95534022D01*
X141159895Y-95337606D01*
X141228015Y-95127951D01*
X141262500Y-94910222D01*
X141262500Y-94689778D01*
X141262500Y-94689774D01*
X148199500Y-94689774D01*
X148199500Y-94910225D01*
X148233984Y-95127948D01*
X148302102Y-95337599D01*
X148302104Y-95337602D01*
X148302105Y-95337606D01*
X148402185Y-95534022D01*
X148531758Y-95712365D01*
X148687635Y-95868242D01*
X148865978Y-95997815D01*
X149062394Y-96097895D01*
X149272049Y-96166015D01*
X149359140Y-96179809D01*
X149489775Y-96200500D01*
X149489778Y-96200500D01*
X152110225Y-96200500D01*
X152219086Y-96183257D01*
X152327951Y-96166015D01*
X152537606Y-96097895D01*
X152734022Y-95997815D01*
X152912365Y-95868242D01*
X153068242Y-95712365D01*
X153197815Y-95534022D01*
X153297895Y-95337606D01*
X153366015Y-95127951D01*
X153400500Y-94910222D01*
X153400500Y-94689778D01*
X153400500Y-94689774D01*
X153366015Y-94472051D01*
X153366015Y-94472049D01*
X153297895Y-94262394D01*
X153197815Y-94065978D01*
X153068242Y-93887635D01*
X152912365Y-93731758D01*
X152734022Y-93602185D01*
X152734021Y-93602184D01*
X152734019Y-93602183D01*
X152644825Y-93556736D01*
X152537606Y-93502105D01*
X152537602Y-93502104D01*
X152537599Y-93502102D01*
X152327948Y-93433984D01*
X152110225Y-93399500D01*
X152110222Y-93399500D01*
X149489778Y-93399500D01*
X149489775Y-93399500D01*
X149272051Y-93433984D01*
X149062400Y-93502102D01*
X148865980Y-93602183D01*
X148776806Y-93666971D01*
X148687635Y-93731758D01*
X148531758Y-93887635D01*
X148466971Y-93976806D01*
X148402183Y-94065980D01*
X148302102Y-94262400D01*
X148233984Y-94472051D01*
X148199500Y-94689774D01*
X141262500Y-94689774D01*
X141228015Y-94472051D01*
X141228015Y-94472049D01*
X141159895Y-94262394D01*
X141059815Y-94065978D01*
X140930242Y-93887635D01*
X140774365Y-93731758D01*
X140596022Y-93602185D01*
X140596021Y-93602184D01*
X140596019Y-93602183D01*
X140506825Y-93556736D01*
X140399606Y-93502105D01*
X140399602Y-93502104D01*
X140399599Y-93502102D01*
X140189948Y-93433984D01*
X139972225Y-93399500D01*
X139972222Y-93399500D01*
X137351778Y-93399500D01*
X137351775Y-93399500D01*
X137134051Y-93433984D01*
X136924400Y-93502102D01*
X136727980Y-93602183D01*
X136638806Y-93666971D01*
X136549635Y-93731758D01*
X136393758Y-93887635D01*
X136328971Y-93976806D01*
X136264183Y-94065980D01*
X136164102Y-94262400D01*
X136095984Y-94472051D01*
X136061500Y-94689774D01*
X100050500Y-94689774D01*
X100050500Y-89558994D01*
X113034500Y-89558994D01*
X113034500Y-89761005D01*
X113073908Y-89959124D01*
X113073910Y-89959130D01*
X113151213Y-90145755D01*
X113151214Y-90145756D01*
X113263442Y-90313718D01*
X113406282Y-90456558D01*
X113574244Y-90568786D01*
X113760873Y-90646091D01*
X113958997Y-90685500D01*
X113958998Y-90685500D01*
X114161002Y-90685500D01*
X114161003Y-90685500D01*
X114359127Y-90646091D01*
X114545756Y-90568786D01*
X114713718Y-90456558D01*
X114856558Y-90313718D01*
X114968786Y-90145756D01*
X115046091Y-89959127D01*
X115085500Y-89761003D01*
X115085500Y-89558997D01*
X115085499Y-89558994D01*
X118114500Y-89558994D01*
X118114500Y-89761005D01*
X118153908Y-89959124D01*
X118153910Y-89959130D01*
X118231213Y-90145755D01*
X118231214Y-90145756D01*
X118343442Y-90313718D01*
X118486282Y-90456558D01*
X118654244Y-90568786D01*
X118840873Y-90646091D01*
X119038997Y-90685500D01*
X119038998Y-90685500D01*
X119241002Y-90685500D01*
X119241003Y-90685500D01*
X119439127Y-90646091D01*
X119625756Y-90568786D01*
X119793718Y-90456558D01*
X119936558Y-90313718D01*
X120048786Y-90145756D01*
X120126091Y-89959127D01*
X120165500Y-89761003D01*
X120165500Y-89558997D01*
X120126091Y-89360873D01*
X120120171Y-89346581D01*
X137612000Y-89346581D01*
X137612000Y-90049999D01*
X137612001Y-90050000D01*
X138162000Y-90050000D01*
X138162000Y-90550000D01*
X137612001Y-90550000D01*
X137612000Y-90550001D01*
X137612000Y-91253418D01*
X137652349Y-91456272D01*
X137731501Y-91647360D01*
X137731508Y-91647374D01*
X137846405Y-91819329D01*
X137992670Y-91965594D01*
X138164625Y-92080491D01*
X138164639Y-92080498D01*
X138355723Y-92159648D01*
X138355730Y-92159650D01*
X138412000Y-92170842D01*
X138412000Y-91383012D01*
X138469007Y-91415925D01*
X138596174Y-91450000D01*
X138727826Y-91450000D01*
X138854993Y-91415925D01*
X138912000Y-91383012D01*
X138912000Y-92170841D01*
X138968269Y-92159650D01*
X138968276Y-92159648D01*
X139159360Y-92080498D01*
X139159374Y-92080491D01*
X139331329Y-91965594D01*
X139477594Y-91819329D01*
X139592491Y-91647374D01*
X139592498Y-91647360D01*
X139671650Y-91456272D01*
X139711999Y-91253418D01*
X139712000Y-91253413D01*
X139712000Y-90550001D01*
X139711999Y-90550000D01*
X139162000Y-90550000D01*
X139162000Y-90050000D01*
X139711999Y-90050000D01*
X139712000Y-90049999D01*
X139712000Y-89346586D01*
X139711999Y-89346581D01*
X149750000Y-89346581D01*
X149750000Y-90049999D01*
X149750001Y-90050000D01*
X150300000Y-90050000D01*
X150300000Y-90550000D01*
X149750001Y-90550000D01*
X149750000Y-90550001D01*
X149750000Y-91253418D01*
X149790349Y-91456272D01*
X149869501Y-91647360D01*
X149869508Y-91647374D01*
X149984405Y-91819329D01*
X150130670Y-91965594D01*
X150302625Y-92080491D01*
X150302639Y-92080498D01*
X150493723Y-92159648D01*
X150493730Y-92159650D01*
X150550000Y-92170842D01*
X150550000Y-91383012D01*
X150607007Y-91415925D01*
X150734174Y-91450000D01*
X150865826Y-91450000D01*
X150992993Y-91415925D01*
X151050000Y-91383012D01*
X151050000Y-92170841D01*
X151106269Y-92159650D01*
X151106276Y-92159648D01*
X151297360Y-92080498D01*
X151297374Y-92080491D01*
X151469329Y-91965594D01*
X151615594Y-91819329D01*
X151730491Y-91647374D01*
X151730498Y-91647360D01*
X151809650Y-91456272D01*
X151849999Y-91253418D01*
X151850000Y-91253413D01*
X151850000Y-90550001D01*
X151849999Y-90550000D01*
X151300000Y-90550000D01*
X151300000Y-90050000D01*
X151849999Y-90050000D01*
X151850000Y-90049999D01*
X151850000Y-89346586D01*
X151849999Y-89346581D01*
X151809650Y-89143727D01*
X151730498Y-88952639D01*
X151730491Y-88952625D01*
X151615594Y-88780670D01*
X151469329Y-88634405D01*
X151297374Y-88519508D01*
X151297360Y-88519501D01*
X151106274Y-88440350D01*
X151050000Y-88429156D01*
X151050000Y-89216988D01*
X150992993Y-89184075D01*
X150865826Y-89150000D01*
X150734174Y-89150000D01*
X150607007Y-89184075D01*
X150550000Y-89216988D01*
X150550000Y-88429156D01*
X150493725Y-88440350D01*
X150302639Y-88519501D01*
X150302625Y-88519508D01*
X150130670Y-88634405D01*
X149984405Y-88780670D01*
X149869508Y-88952625D01*
X149869501Y-88952639D01*
X149790349Y-89143727D01*
X149750000Y-89346581D01*
X139711999Y-89346581D01*
X139671650Y-89143727D01*
X139592498Y-88952639D01*
X139592491Y-88952625D01*
X139477594Y-88780670D01*
X139331329Y-88634405D01*
X139159374Y-88519508D01*
X139159360Y-88519501D01*
X138968274Y-88440350D01*
X138912000Y-88429156D01*
X138912000Y-89216988D01*
X138854993Y-89184075D01*
X138727826Y-89150000D01*
X138596174Y-89150000D01*
X138469007Y-89184075D01*
X138412000Y-89216988D01*
X138412000Y-88429156D01*
X138355725Y-88440350D01*
X138164639Y-88519501D01*
X138164625Y-88519508D01*
X137992670Y-88634405D01*
X137846405Y-88780670D01*
X137731508Y-88952625D01*
X137731501Y-88952639D01*
X137652349Y-89143727D01*
X137612000Y-89346581D01*
X120120171Y-89346581D01*
X120048786Y-89174244D01*
X119936558Y-89006282D01*
X119793718Y-88863442D01*
X119793714Y-88863439D01*
X119625755Y-88751213D01*
X119439130Y-88673910D01*
X119439124Y-88673908D01*
X119241005Y-88634500D01*
X119241003Y-88634500D01*
X119038997Y-88634500D01*
X119038994Y-88634500D01*
X118840875Y-88673908D01*
X118840869Y-88673910D01*
X118654244Y-88751213D01*
X118486285Y-88863439D01*
X118343439Y-89006285D01*
X118231213Y-89174244D01*
X118153910Y-89360869D01*
X118153908Y-89360875D01*
X118114500Y-89558994D01*
X115085499Y-89558994D01*
X115046091Y-89360873D01*
X114968786Y-89174244D01*
X114856558Y-89006282D01*
X114713718Y-88863442D01*
X114713714Y-88863439D01*
X114545755Y-88751213D01*
X114359130Y-88673910D01*
X114359124Y-88673908D01*
X114161005Y-88634500D01*
X114161003Y-88634500D01*
X113958997Y-88634500D01*
X113958994Y-88634500D01*
X113760875Y-88673908D01*
X113760869Y-88673910D01*
X113574244Y-88751213D01*
X113406285Y-88863439D01*
X113263439Y-89006285D01*
X113151213Y-89174244D01*
X113073910Y-89360869D01*
X113073908Y-89360875D01*
X113034500Y-89558994D01*
X100050500Y-89558994D01*
X100050500Y-86370253D01*
X113209500Y-86370253D01*
X113209500Y-87709746D01*
X113209501Y-87709758D01*
X113221132Y-87768227D01*
X113221134Y-87768233D01*
X113238428Y-87794115D01*
X113265448Y-87834552D01*
X113331769Y-87878867D01*
X113376231Y-87887711D01*
X113390241Y-87890498D01*
X113390246Y-87890498D01*
X113390252Y-87890500D01*
X113390253Y-87890500D01*
X114729747Y-87890500D01*
X114729748Y-87890500D01*
X114788231Y-87878867D01*
X114854552Y-87834552D01*
X114898867Y-87768231D01*
X114910500Y-87709748D01*
X114910500Y-86956279D01*
X115750000Y-86956279D01*
X115750000Y-87123720D01*
X115782665Y-87287935D01*
X115782665Y-87287937D01*
X115845883Y-87440560D01*
X115845884Y-87440560D01*
X116200000Y-87086444D01*
X116200000Y-87092661D01*
X116227259Y-87194394D01*
X116279920Y-87285606D01*
X116354394Y-87360080D01*
X116445606Y-87412741D01*
X116547339Y-87440000D01*
X116553553Y-87440000D01*
X116199438Y-87794114D01*
X116199438Y-87794115D01*
X116352065Y-87857335D01*
X116516279Y-87889999D01*
X116516283Y-87890000D01*
X116683717Y-87890000D01*
X116683720Y-87889999D01*
X116847933Y-87857335D01*
X116847939Y-87857333D01*
X117000559Y-87794114D01*
X116646445Y-87440000D01*
X116652661Y-87440000D01*
X116754394Y-87412741D01*
X116845606Y-87360080D01*
X116920080Y-87285606D01*
X116972741Y-87194394D01*
X117000000Y-87092661D01*
X117000000Y-87086445D01*
X117354114Y-87440559D01*
X117417333Y-87287939D01*
X117417335Y-87287933D01*
X117449999Y-87123720D01*
X117450000Y-87123716D01*
X117450000Y-86956281D01*
X117449999Y-86956280D01*
X117449989Y-86956230D01*
X118289500Y-86956230D01*
X118289500Y-87123769D01*
X118322183Y-87288079D01*
X118322185Y-87288085D01*
X118386296Y-87442862D01*
X118386297Y-87442863D01*
X118479374Y-87582162D01*
X118597838Y-87700626D01*
X118737137Y-87793703D01*
X118891918Y-87857816D01*
X119056233Y-87890500D01*
X119056234Y-87890500D01*
X119223766Y-87890500D01*
X119223767Y-87890500D01*
X119388082Y-87857816D01*
X119542863Y-87793703D01*
X119682162Y-87700626D01*
X119800626Y-87582162D01*
X119893703Y-87442863D01*
X119957816Y-87288082D01*
X119990500Y-87123767D01*
X119990500Y-86956233D01*
X119957816Y-86791918D01*
X119893703Y-86637137D01*
X119800626Y-86497838D01*
X119682162Y-86379374D01*
X119542863Y-86286297D01*
X119542864Y-86286297D01*
X119542862Y-86286296D01*
X119388085Y-86222185D01*
X119388079Y-86222183D01*
X119223769Y-86189500D01*
X119223767Y-86189500D01*
X119056233Y-86189500D01*
X119056230Y-86189500D01*
X118891920Y-86222183D01*
X118891914Y-86222185D01*
X118737137Y-86286296D01*
X118597838Y-86379374D01*
X118597834Y-86379377D01*
X118479377Y-86497834D01*
X118479374Y-86497838D01*
X118386296Y-86637137D01*
X118322185Y-86791914D01*
X118322183Y-86791920D01*
X118289500Y-86956230D01*
X117449989Y-86956230D01*
X117417335Y-86792065D01*
X117354115Y-86639438D01*
X117354114Y-86639438D01*
X117000000Y-86993552D01*
X117000000Y-86987339D01*
X116972741Y-86885606D01*
X116920080Y-86794394D01*
X116845606Y-86719920D01*
X116754394Y-86667259D01*
X116652661Y-86640000D01*
X116646445Y-86640000D01*
X117000560Y-86285884D01*
X117000560Y-86285883D01*
X116847936Y-86222665D01*
X116683720Y-86190000D01*
X116516279Y-86190000D01*
X116352064Y-86222665D01*
X116352062Y-86222665D01*
X116199438Y-86285883D01*
X116553555Y-86640000D01*
X116547339Y-86640000D01*
X116445606Y-86667259D01*
X116354394Y-86719920D01*
X116279920Y-86794394D01*
X116227259Y-86885606D01*
X116200000Y-86987339D01*
X116200000Y-86993555D01*
X115845883Y-86639438D01*
X115782665Y-86792062D01*
X115782665Y-86792064D01*
X115750000Y-86956279D01*
X114910500Y-86956279D01*
X114910500Y-86370252D01*
X114910499Y-86370250D01*
X114910499Y-86370244D01*
X114904042Y-86337786D01*
X114898867Y-86311769D01*
X114854552Y-86245448D01*
X114854548Y-86245445D01*
X114788233Y-86201134D01*
X114788231Y-86201133D01*
X114788228Y-86201132D01*
X114788227Y-86201132D01*
X114729758Y-86189501D01*
X114729748Y-86189500D01*
X113390252Y-86189500D01*
X113390251Y-86189500D01*
X113390241Y-86189501D01*
X113331772Y-86201132D01*
X113331766Y-86201134D01*
X113265451Y-86245445D01*
X113265445Y-86245451D01*
X113221134Y-86311766D01*
X113221132Y-86311772D01*
X113209501Y-86370241D01*
X113209500Y-86370253D01*
X100050500Y-86370253D01*
X100050500Y-74635717D01*
X106648500Y-74635717D01*
X106648500Y-75528359D01*
X106648500Y-75614065D01*
X106661898Y-75664067D01*
X106670683Y-75696855D01*
X106713531Y-75771069D01*
X106713535Y-75771074D01*
X106833004Y-75890544D01*
X106860781Y-75945060D01*
X106860098Y-75979861D01*
X106849500Y-76033139D01*
X106849500Y-76033143D01*
X106849500Y-76161281D01*
X106871226Y-76270504D01*
X106874499Y-76286954D01*
X106874500Y-76286959D01*
X106923534Y-76405337D01*
X106923538Y-76405345D01*
X106962776Y-76464067D01*
X106994724Y-76511881D01*
X106994727Y-76511884D01*
X107086445Y-76603602D01*
X107114222Y-76658119D01*
X107104651Y-76718551D01*
X107086445Y-76743610D01*
X106994727Y-76835327D01*
X106994724Y-76835331D01*
X106923538Y-76941866D01*
X106923534Y-76941874D01*
X106874500Y-77060252D01*
X106874499Y-77060255D01*
X106874499Y-77060256D01*
X106849500Y-77185931D01*
X106849500Y-77314069D01*
X106870422Y-77419250D01*
X106874499Y-77439742D01*
X106874500Y-77439747D01*
X106923534Y-77558125D01*
X106923538Y-77558133D01*
X106966365Y-77622226D01*
X106994724Y-77664669D01*
X107085331Y-77755276D01*
X107148848Y-77797717D01*
X107191866Y-77826461D01*
X107191870Y-77826463D01*
X107191873Y-77826465D01*
X107310256Y-77875501D01*
X107435931Y-77900500D01*
X107435932Y-77900500D01*
X107564064Y-77900500D01*
X107564069Y-77900500D01*
X107617349Y-77889901D01*
X107678108Y-77897091D01*
X107706667Y-77916994D01*
X109370391Y-79580717D01*
X111035533Y-81245859D01*
X111035535Y-81245862D01*
X111096138Y-81306465D01*
X111128867Y-81325361D01*
X111160995Y-81343911D01*
X111170357Y-81349316D01*
X111170361Y-81349318D01*
X111253144Y-81371500D01*
X111253146Y-81371501D01*
X111253147Y-81371501D01*
X111344916Y-81371501D01*
X111344932Y-81371500D01*
X134834281Y-81371500D01*
X134834283Y-81371500D01*
X134917069Y-81349318D01*
X134917071Y-81349316D01*
X134917073Y-81349316D01*
X134991287Y-81306468D01*
X134991287Y-81306467D01*
X134991292Y-81306465D01*
X135506465Y-80791292D01*
X135549318Y-80717069D01*
X135571500Y-80634283D01*
X135571500Y-80548577D01*
X135571500Y-79896840D01*
X135571501Y-79896827D01*
X135571501Y-79803146D01*
X135571500Y-79803144D01*
X135549318Y-79720361D01*
X135514530Y-79660107D01*
X135514529Y-79660106D01*
X135508983Y-79650500D01*
X135506465Y-79646138D01*
X135445862Y-79585535D01*
X135445859Y-79585533D01*
X135066994Y-79206667D01*
X135039217Y-79152151D01*
X135039900Y-79117351D01*
X135050500Y-79064069D01*
X135050500Y-78935931D01*
X135025501Y-78810256D01*
X134976465Y-78691873D01*
X134976463Y-78691870D01*
X134976461Y-78691866D01*
X134947717Y-78648848D01*
X134905276Y-78585331D01*
X134814669Y-78494724D01*
X134772226Y-78466365D01*
X134708133Y-78423538D01*
X134708125Y-78423534D01*
X134589747Y-78374500D01*
X134589745Y-78374499D01*
X134589744Y-78374499D01*
X134464069Y-78349500D01*
X134335931Y-78349500D01*
X134335930Y-78349500D01*
X134273093Y-78361999D01*
X134210256Y-78374499D01*
X134210255Y-78374499D01*
X134210252Y-78374500D01*
X134091874Y-78423534D01*
X134091866Y-78423538D01*
X133985331Y-78494724D01*
X133985327Y-78494727D01*
X133894727Y-78585327D01*
X133894724Y-78585331D01*
X133823538Y-78691866D01*
X133823534Y-78691874D01*
X133774500Y-78810252D01*
X133774496Y-78810265D01*
X133760208Y-78882093D01*
X133730311Y-78935476D01*
X133674746Y-78961091D01*
X133614736Y-78949153D01*
X133593107Y-78932781D01*
X132824998Y-78164672D01*
X131927496Y-77267169D01*
X131899719Y-77212652D01*
X131898500Y-77197165D01*
X131898500Y-76197833D01*
X131917407Y-76139642D01*
X131966907Y-76103678D01*
X132028093Y-76103678D01*
X132067502Y-76127829D01*
X132100952Y-76161279D01*
X132133004Y-76193331D01*
X132160781Y-76247848D01*
X132160098Y-76282647D01*
X132149500Y-76335925D01*
X132149500Y-76335930D01*
X132149500Y-76335931D01*
X132149500Y-76464069D01*
X132172597Y-76580184D01*
X132174499Y-76589742D01*
X132174500Y-76589747D01*
X132223534Y-76708125D01*
X132223538Y-76708133D01*
X132247244Y-76743610D01*
X132294724Y-76814669D01*
X132385331Y-76905276D01*
X132440104Y-76941874D01*
X132491866Y-76976461D01*
X132491870Y-76976463D01*
X132491873Y-76976465D01*
X132610256Y-77025501D01*
X132735931Y-77050500D01*
X132735932Y-77050500D01*
X132864068Y-77050500D01*
X132864069Y-77050500D01*
X132989744Y-77025501D01*
X133108127Y-76976465D01*
X133214669Y-76905276D01*
X133305276Y-76814669D01*
X133376465Y-76708127D01*
X133425501Y-76589744D01*
X133450500Y-76464069D01*
X133450500Y-76335931D01*
X133425501Y-76210256D01*
X133376465Y-76091873D01*
X133376463Y-76091870D01*
X133376461Y-76091866D01*
X133342903Y-76041644D01*
X133305276Y-75985331D01*
X133214669Y-75894724D01*
X133172226Y-75866365D01*
X133108133Y-75823538D01*
X133108125Y-75823534D01*
X132989747Y-75774500D01*
X132989745Y-75774499D01*
X132989744Y-75774499D01*
X132864069Y-75749500D01*
X132735931Y-75749500D01*
X132735927Y-75749500D01*
X132682649Y-75760098D01*
X132621887Y-75752906D01*
X132593331Y-75733004D01*
X132378496Y-75518169D01*
X132350719Y-75463652D01*
X132349500Y-75448165D01*
X132349500Y-74440185D01*
X132368407Y-74381994D01*
X132417907Y-74346030D01*
X132479093Y-74346030D01*
X132528593Y-74381994D01*
X132534233Y-74390679D01*
X132539535Y-74399862D01*
X139400138Y-81260465D01*
X139400140Y-81260466D01*
X139400142Y-81260468D01*
X139474357Y-81303316D01*
X139474355Y-81303316D01*
X139474359Y-81303317D01*
X139474361Y-81303318D01*
X139557147Y-81325500D01*
X141574165Y-81325500D01*
X141632356Y-81344407D01*
X141644169Y-81354496D01*
X142333004Y-82043331D01*
X142360781Y-82097848D01*
X142360098Y-82132649D01*
X142349500Y-82185927D01*
X142349500Y-82314069D01*
X142374499Y-82439742D01*
X142374500Y-82439747D01*
X142423534Y-82558125D01*
X142423538Y-82558133D01*
X142466365Y-82622226D01*
X142494724Y-82664669D01*
X142585331Y-82755276D01*
X142648848Y-82797717D01*
X142691866Y-82826461D01*
X142691870Y-82826463D01*
X142691873Y-82826465D01*
X142810256Y-82875501D01*
X142935931Y-82900500D01*
X142935932Y-82900500D01*
X143064068Y-82900500D01*
X143064069Y-82900500D01*
X143189744Y-82875501D01*
X143308127Y-82826465D01*
X143414669Y-82755276D01*
X143505276Y-82664669D01*
X143576465Y-82558127D01*
X143625501Y-82439744D01*
X143650500Y-82314069D01*
X143650500Y-82185931D01*
X143625501Y-82060256D01*
X143576465Y-81941873D01*
X143576463Y-81941870D01*
X143576461Y-81941866D01*
X143511674Y-81844907D01*
X143505276Y-81835331D01*
X143414669Y-81744724D01*
X143372226Y-81716365D01*
X143308133Y-81673538D01*
X143308125Y-81673534D01*
X143189747Y-81624500D01*
X143189745Y-81624499D01*
X143189744Y-81624499D01*
X143064069Y-81599500D01*
X142935931Y-81599500D01*
X142935927Y-81599500D01*
X142882649Y-81610098D01*
X142821887Y-81602906D01*
X142793331Y-81583004D01*
X142704831Y-81494504D01*
X142677054Y-81439987D01*
X142686625Y-81379555D01*
X142729890Y-81336290D01*
X142774835Y-81325500D01*
X147687166Y-81325500D01*
X147745357Y-81344407D01*
X147781321Y-81393907D01*
X147781321Y-81455093D01*
X147757170Y-81494504D01*
X142868667Y-86383004D01*
X142814150Y-86410781D01*
X142779349Y-86410098D01*
X142726071Y-86399500D01*
X142726069Y-86399500D01*
X142597931Y-86399500D01*
X142597930Y-86399500D01*
X142544653Y-86410098D01*
X142472256Y-86424499D01*
X142472255Y-86424499D01*
X142472252Y-86424500D01*
X142353874Y-86473534D01*
X142353866Y-86473538D01*
X142247331Y-86544724D01*
X142247327Y-86544727D01*
X142156727Y-86635327D01*
X142156724Y-86635331D01*
X142085538Y-86741866D01*
X142085534Y-86741874D01*
X142036500Y-86860252D01*
X142036499Y-86860255D01*
X142036499Y-86860256D01*
X142028494Y-86900499D01*
X142011500Y-86985930D01*
X142011500Y-87114069D01*
X142036499Y-87239742D01*
X142036500Y-87239747D01*
X142085534Y-87358125D01*
X142085538Y-87358133D01*
X142122027Y-87412741D01*
X142156724Y-87464669D01*
X142247331Y-87555276D01*
X142310848Y-87597717D01*
X142353866Y-87626461D01*
X142353870Y-87626463D01*
X142353873Y-87626465D01*
X142472256Y-87675501D01*
X142597931Y-87700500D01*
X142597932Y-87700500D01*
X142726068Y-87700500D01*
X142726069Y-87700500D01*
X142851744Y-87675501D01*
X142970127Y-87626465D01*
X143076669Y-87555276D01*
X143167276Y-87464669D01*
X143238465Y-87358127D01*
X143287501Y-87239744D01*
X143312500Y-87114069D01*
X143312500Y-86985931D01*
X143301901Y-86932649D01*
X143309091Y-86871889D01*
X143328991Y-86843334D01*
X148366830Y-81805496D01*
X148421347Y-81777719D01*
X148436834Y-81776500D01*
X152524166Y-81776500D01*
X152582357Y-81795407D01*
X152618321Y-81844907D01*
X152618321Y-81906093D01*
X152594170Y-81945504D01*
X148942066Y-85597605D01*
X148887549Y-85625382D01*
X148852747Y-85624699D01*
X148851746Y-85624499D01*
X148851744Y-85624499D01*
X148726069Y-85599500D01*
X148597931Y-85599500D01*
X148597930Y-85599500D01*
X148535093Y-85611999D01*
X148472256Y-85624499D01*
X148472255Y-85624499D01*
X148472252Y-85624500D01*
X148353874Y-85673534D01*
X148353866Y-85673538D01*
X148247331Y-85744724D01*
X148247327Y-85744727D01*
X148156727Y-85835327D01*
X148156724Y-85835331D01*
X148085538Y-85941866D01*
X148085534Y-85941874D01*
X148036500Y-86060252D01*
X148036499Y-86060255D01*
X148036499Y-86060256D01*
X148011500Y-86185931D01*
X148011500Y-86314069D01*
X148033466Y-86424499D01*
X148036499Y-86439742D01*
X148036500Y-86439747D01*
X148085534Y-86558125D01*
X148085538Y-86558133D01*
X148128365Y-86622226D01*
X148156724Y-86664669D01*
X148247331Y-86755276D01*
X148302164Y-86791914D01*
X148353866Y-86826461D01*
X148353870Y-86826463D01*
X148353873Y-86826465D01*
X148472256Y-86875501D01*
X148597931Y-86900500D01*
X148597932Y-86900500D01*
X148726068Y-86900500D01*
X148726069Y-86900500D01*
X148851744Y-86875501D01*
X148970127Y-86826465D01*
X149076669Y-86755276D01*
X149167276Y-86664669D01*
X149238465Y-86558127D01*
X149287501Y-86439744D01*
X149312500Y-86314069D01*
X149312500Y-86188833D01*
X149331407Y-86130642D01*
X149341496Y-86118829D01*
X152559826Y-82900499D01*
X155826859Y-79633466D01*
X155826862Y-79633465D01*
X155887465Y-79572862D01*
X155930318Y-79498638D01*
X155952501Y-79415853D01*
X155952501Y-79330147D01*
X155952501Y-79324085D01*
X155952500Y-79324067D01*
X155952500Y-78048908D01*
X155945702Y-78023538D01*
X155930318Y-77966122D01*
X155887465Y-77891898D01*
X155860549Y-77864982D01*
X155826862Y-77831294D01*
X155826862Y-77831295D01*
X148959102Y-70963535D01*
X148959099Y-70963533D01*
X148959098Y-70963532D01*
X148959097Y-70963531D01*
X148884882Y-70920683D01*
X148884884Y-70920683D01*
X148852761Y-70912076D01*
X148802093Y-70898500D01*
X146721423Y-70898500D01*
X146635717Y-70898500D01*
X146585048Y-70912076D01*
X146552926Y-70920683D01*
X146478712Y-70963531D01*
X146478711Y-70963532D01*
X142503252Y-74938989D01*
X142452564Y-74966082D01*
X142410261Y-74974497D01*
X142410257Y-74974498D01*
X142291874Y-75023534D01*
X142291867Y-75023537D01*
X142279501Y-75031801D01*
X142220613Y-75048409D01*
X142163209Y-75027231D01*
X142129217Y-74976357D01*
X142125500Y-74949485D01*
X142125500Y-73178405D01*
X142144407Y-73120214D01*
X142154496Y-73108401D01*
X148084401Y-67178496D01*
X148138918Y-67150719D01*
X148154405Y-67149500D01*
X158218851Y-67149500D01*
X158218853Y-67149500D01*
X158301639Y-67127318D01*
X158301641Y-67127316D01*
X158301643Y-67127316D01*
X158375857Y-67084468D01*
X158375857Y-67084467D01*
X158375862Y-67084465D01*
X158793332Y-66666993D01*
X158847847Y-66639217D01*
X158882643Y-66639899D01*
X158935931Y-66650500D01*
X158935936Y-66650500D01*
X159064068Y-66650500D01*
X159064069Y-66650500D01*
X159189744Y-66625501D01*
X159308127Y-66576465D01*
X159414669Y-66505276D01*
X159505276Y-66414669D01*
X159576465Y-66308127D01*
X159625501Y-66189744D01*
X159650500Y-66064069D01*
X159650500Y-65935931D01*
X159625501Y-65810256D01*
X159576465Y-65691873D01*
X159576463Y-65691870D01*
X159576461Y-65691866D01*
X159547717Y-65648848D01*
X159505276Y-65585331D01*
X159414669Y-65494724D01*
X159372226Y-65466365D01*
X159308133Y-65423538D01*
X159308125Y-65423534D01*
X159189747Y-65374500D01*
X159189745Y-65374499D01*
X159189744Y-65374499D01*
X159064069Y-65349500D01*
X158935931Y-65349500D01*
X158935930Y-65349500D01*
X158873093Y-65361999D01*
X158810256Y-65374499D01*
X158810255Y-65374499D01*
X158810252Y-65374500D01*
X158691874Y-65423534D01*
X158691866Y-65423538D01*
X158585331Y-65494724D01*
X158585327Y-65494727D01*
X158494727Y-65585327D01*
X158494724Y-65585331D01*
X158423538Y-65691866D01*
X158423534Y-65691874D01*
X158374500Y-65810252D01*
X158374499Y-65810257D01*
X158349500Y-65935930D01*
X158349500Y-66064071D01*
X158360098Y-66117350D01*
X158352906Y-66178111D01*
X158333004Y-66206667D01*
X158070170Y-66469503D01*
X158015653Y-66497281D01*
X158000166Y-66498500D01*
X147935717Y-66498500D01*
X147852932Y-66520682D01*
X147778708Y-66563535D01*
X141843504Y-72498739D01*
X141788987Y-72526516D01*
X141728555Y-72516945D01*
X141685290Y-72473680D01*
X141674500Y-72428735D01*
X141674500Y-71226833D01*
X141693407Y-71168642D01*
X141703490Y-71156835D01*
X142793331Y-70066993D01*
X142847846Y-70039218D01*
X142882647Y-70039901D01*
X142903142Y-70043977D01*
X142935931Y-70050500D01*
X142935932Y-70050500D01*
X143064068Y-70050500D01*
X143064069Y-70050500D01*
X143189744Y-70025501D01*
X143308127Y-69976465D01*
X143414669Y-69905276D01*
X143505276Y-69814669D01*
X143576465Y-69708127D01*
X143625501Y-69589744D01*
X143650500Y-69464069D01*
X143650500Y-69335931D01*
X143625501Y-69210256D01*
X143576465Y-69091873D01*
X143576463Y-69091870D01*
X143576461Y-69091866D01*
X143547717Y-69048848D01*
X143505276Y-68985331D01*
X143414669Y-68894724D01*
X143372226Y-68866365D01*
X143308133Y-68823538D01*
X143308125Y-68823534D01*
X143189747Y-68774500D01*
X143189745Y-68774499D01*
X143189744Y-68774499D01*
X143064069Y-68749500D01*
X142935931Y-68749500D01*
X142935930Y-68749500D01*
X142873093Y-68761999D01*
X142810256Y-68774499D01*
X142810255Y-68774499D01*
X142810252Y-68774500D01*
X142691874Y-68823534D01*
X142691866Y-68823538D01*
X142585331Y-68894724D01*
X142585327Y-68894727D01*
X142494727Y-68985327D01*
X142494724Y-68985331D01*
X142423538Y-69091866D01*
X142423534Y-69091874D01*
X142374500Y-69210252D01*
X142374499Y-69210257D01*
X142349500Y-69335930D01*
X142349500Y-69464071D01*
X142360098Y-69517350D01*
X142352906Y-69578111D01*
X142333004Y-69606668D01*
X141088532Y-70851141D01*
X141088531Y-70851142D01*
X141045683Y-70925357D01*
X141045682Y-70925358D01*
X141041828Y-70939743D01*
X141041828Y-70939744D01*
X141023500Y-71008147D01*
X141023500Y-77359596D01*
X141023500Y-77445302D01*
X141043062Y-77518312D01*
X141045683Y-77528092D01*
X141088531Y-77602306D01*
X141088533Y-77602308D01*
X141088535Y-77602311D01*
X141777384Y-78291159D01*
X142309886Y-78823661D01*
X142337663Y-78878178D01*
X142328092Y-78938610D01*
X142284827Y-78981875D01*
X142259198Y-78990762D01*
X142210265Y-79000496D01*
X142210252Y-79000500D01*
X142091874Y-79049534D01*
X142091866Y-79049538D01*
X141985331Y-79120724D01*
X141985327Y-79120727D01*
X141894727Y-79211327D01*
X141894725Y-79211330D01*
X141872394Y-79244749D01*
X141824343Y-79282627D01*
X141763204Y-79285027D01*
X141720076Y-79259749D01*
X137874996Y-75414669D01*
X134023862Y-71563535D01*
X134023859Y-71563533D01*
X134023858Y-71563532D01*
X134023857Y-71563531D01*
X133949642Y-71520683D01*
X133949644Y-71520683D01*
X133917521Y-71512076D01*
X133866853Y-71498500D01*
X133866851Y-71498500D01*
X132800835Y-71498500D01*
X132742644Y-71479593D01*
X132706680Y-71430093D01*
X132706680Y-71368907D01*
X132730831Y-71329496D01*
X141285827Y-62774500D01*
X151938075Y-52122251D01*
X151982452Y-52096631D01*
X152047069Y-52079318D01*
X152121292Y-52036465D01*
X153174465Y-50983292D01*
X153198378Y-50941874D01*
X153217316Y-50909073D01*
X153217316Y-50909071D01*
X153217318Y-50909069D01*
X153239500Y-50826283D01*
X153239500Y-50740577D01*
X153239500Y-49644139D01*
X153258407Y-49585948D01*
X153307907Y-49549984D01*
X153369093Y-49549984D01*
X153408501Y-49574133D01*
X153420345Y-49585977D01*
X153592402Y-49700941D01*
X153783580Y-49780130D01*
X153986535Y-49820500D01*
X153986536Y-49820500D01*
X154193464Y-49820500D01*
X154193465Y-49820500D01*
X154396420Y-49780130D01*
X154587598Y-49700941D01*
X154759655Y-49585977D01*
X154905977Y-49439655D01*
X155020941Y-49267598D01*
X155100130Y-49076420D01*
X155140500Y-48873465D01*
X155140500Y-48666581D01*
X155580000Y-48666581D01*
X155580000Y-48873418D01*
X155620349Y-49076272D01*
X155699501Y-49267360D01*
X155699505Y-49267369D01*
X155731377Y-49315067D01*
X156147036Y-48899407D01*
X156164075Y-48962993D01*
X156229901Y-49077007D01*
X156322993Y-49170099D01*
X156437007Y-49235925D01*
X156500590Y-49252962D01*
X156084931Y-49668621D01*
X156132639Y-49700498D01*
X156323727Y-49779650D01*
X156526581Y-49819999D01*
X156526586Y-49820000D01*
X156733414Y-49820000D01*
X156733418Y-49819999D01*
X156936272Y-49779650D01*
X157127359Y-49700499D01*
X157175068Y-49668621D01*
X156759409Y-49252962D01*
X156822993Y-49235925D01*
X156937007Y-49170099D01*
X157030099Y-49077007D01*
X157095925Y-48962993D01*
X157112962Y-48899409D01*
X157528621Y-49315068D01*
X157560499Y-49267359D01*
X157639650Y-49076272D01*
X157679999Y-48873418D01*
X157680000Y-48873413D01*
X157680000Y-48666586D01*
X157679999Y-48666581D01*
X157639650Y-48463727D01*
X157560498Y-48272639D01*
X157528621Y-48224931D01*
X157112962Y-48640590D01*
X157095925Y-48577007D01*
X157030099Y-48462993D01*
X156937007Y-48369901D01*
X156822993Y-48304075D01*
X156759407Y-48287036D01*
X157175067Y-47871377D01*
X157127369Y-47839505D01*
X157127360Y-47839501D01*
X156936272Y-47760349D01*
X156733418Y-47720000D01*
X156526581Y-47720000D01*
X156323727Y-47760349D01*
X156132638Y-47839501D01*
X156084931Y-47871377D01*
X156500591Y-48287037D01*
X156437007Y-48304075D01*
X156322993Y-48369901D01*
X156229901Y-48462993D01*
X156164075Y-48577007D01*
X156147037Y-48640591D01*
X155731377Y-48224931D01*
X155699501Y-48272638D01*
X155620349Y-48463727D01*
X155580000Y-48666581D01*
X155140500Y-48666581D01*
X155140500Y-48666535D01*
X155100130Y-48463580D01*
X155020941Y-48272402D01*
X154905977Y-48100345D01*
X154759655Y-47954023D01*
X154759651Y-47954020D01*
X154587597Y-47839058D01*
X154396418Y-47759869D01*
X154193467Y-47719500D01*
X154193465Y-47719500D01*
X153986535Y-47719500D01*
X153986532Y-47719500D01*
X153783581Y-47759869D01*
X153592402Y-47839058D01*
X153420344Y-47954023D01*
X153408501Y-47965866D01*
X153353984Y-47993642D01*
X153293552Y-47984068D01*
X153250289Y-47940802D01*
X153239500Y-47895860D01*
X153239500Y-47581833D01*
X153258407Y-47523642D01*
X153268490Y-47511836D01*
X153386617Y-47393709D01*
X160149500Y-47393709D01*
X160149500Y-47606290D01*
X160182752Y-47816238D01*
X160248443Y-48018412D01*
X160344948Y-48207815D01*
X160344950Y-48207819D01*
X160469891Y-48379786D01*
X160469893Y-48379788D01*
X160469896Y-48379792D01*
X160620208Y-48530104D01*
X160620211Y-48530106D01*
X160620213Y-48530108D01*
X160792180Y-48655049D01*
X160792184Y-48655051D01*
X160981588Y-48751557D01*
X161183757Y-48817246D01*
X161183758Y-48817246D01*
X161183761Y-48817247D01*
X161393710Y-48850500D01*
X161393713Y-48850500D01*
X161606290Y-48850500D01*
X161816238Y-48817247D01*
X161816239Y-48817246D01*
X161816243Y-48817246D01*
X162018412Y-48751557D01*
X162207816Y-48655051D01*
X162379792Y-48530104D01*
X162530104Y-48379792D01*
X162655051Y-48207816D01*
X162751557Y-48018412D01*
X162817246Y-47816243D01*
X162823707Y-47775451D01*
X162850500Y-47606290D01*
X162850500Y-47393709D01*
X162817247Y-47183761D01*
X162812400Y-47168844D01*
X162751557Y-46981588D01*
X162655051Y-46792184D01*
X162655049Y-46792180D01*
X162530108Y-46620213D01*
X162530106Y-46620211D01*
X162530104Y-46620208D01*
X162379792Y-46469896D01*
X162379788Y-46469893D01*
X162379786Y-46469891D01*
X162207819Y-46344950D01*
X162207815Y-46344948D01*
X162018412Y-46248443D01*
X161816238Y-46182752D01*
X161606290Y-46149500D01*
X161606287Y-46149500D01*
X161393713Y-46149500D01*
X161393710Y-46149500D01*
X161183761Y-46182752D01*
X160981587Y-46248443D01*
X160792184Y-46344948D01*
X160792180Y-46344950D01*
X160620213Y-46469891D01*
X160469891Y-46620213D01*
X160344950Y-46792180D01*
X160344948Y-46792184D01*
X160248443Y-46981587D01*
X160182752Y-47183761D01*
X160149500Y-47393709D01*
X153386617Y-47393709D01*
X153564710Y-47215615D01*
X153619223Y-47187841D01*
X153672594Y-47194157D01*
X153783580Y-47240130D01*
X153986535Y-47280500D01*
X153986536Y-47280500D01*
X154193464Y-47280500D01*
X154193465Y-47280500D01*
X154396420Y-47240130D01*
X154587598Y-47160941D01*
X154759655Y-47045977D01*
X154905977Y-46899655D01*
X155020941Y-46727598D01*
X155100130Y-46536420D01*
X155140500Y-46333465D01*
X155140500Y-46126535D01*
X155140499Y-46126532D01*
X155579500Y-46126532D01*
X155579500Y-46333467D01*
X155619869Y-46536418D01*
X155699058Y-46727597D01*
X155762351Y-46822322D01*
X155814023Y-46899655D01*
X155960345Y-47045977D01*
X156132402Y-47160941D01*
X156323580Y-47240130D01*
X156526535Y-47280500D01*
X156526536Y-47280500D01*
X156733464Y-47280500D01*
X156733465Y-47280500D01*
X156936420Y-47240130D01*
X157127598Y-47160941D01*
X157299655Y-47045977D01*
X157445977Y-46899655D01*
X157560941Y-46727598D01*
X157640130Y-46536420D01*
X157680500Y-46333465D01*
X157680500Y-46126535D01*
X157640130Y-45923580D01*
X157560941Y-45732402D01*
X157445977Y-45560345D01*
X157299655Y-45414023D01*
X157146457Y-45311660D01*
X157127597Y-45299058D01*
X156936418Y-45219869D01*
X156733467Y-45179500D01*
X156733465Y-45179500D01*
X156526535Y-45179500D01*
X156526532Y-45179500D01*
X156323581Y-45219869D01*
X156132402Y-45299058D01*
X155960348Y-45414020D01*
X155814020Y-45560348D01*
X155699058Y-45732402D01*
X155619869Y-45923581D01*
X155579500Y-46126532D01*
X155140499Y-46126532D01*
X155100130Y-45923580D01*
X155020941Y-45732402D01*
X154905977Y-45560345D01*
X154759655Y-45414023D01*
X154606457Y-45311660D01*
X154587597Y-45299058D01*
X154396418Y-45219869D01*
X154193467Y-45179500D01*
X154193465Y-45179500D01*
X153986535Y-45179500D01*
X153986532Y-45179500D01*
X153783581Y-45219869D01*
X153592402Y-45299058D01*
X153420348Y-45414020D01*
X153274020Y-45560348D01*
X153159058Y-45732402D01*
X153079869Y-45923581D01*
X153039500Y-46126532D01*
X153039500Y-46126535D01*
X153039500Y-46333465D01*
X153079869Y-46536417D01*
X153079870Y-46536419D01*
X153079870Y-46536421D01*
X153125840Y-46647402D01*
X153130641Y-46708398D01*
X153104380Y-46755290D01*
X152653535Y-47206137D01*
X152653531Y-47206142D01*
X152610682Y-47280360D01*
X152610681Y-47280360D01*
X152610682Y-47280361D01*
X152588500Y-47363147D01*
X152588500Y-48107015D01*
X152569593Y-48165206D01*
X152520093Y-48201170D01*
X152458907Y-48201170D01*
X152409407Y-48165206D01*
X152407184Y-48162016D01*
X152365979Y-48100348D01*
X152365977Y-48100345D01*
X152219655Y-47954023D01*
X152219651Y-47954020D01*
X152047597Y-47839058D01*
X151856418Y-47759869D01*
X151653467Y-47719500D01*
X151653465Y-47719500D01*
X151446535Y-47719500D01*
X151446532Y-47719500D01*
X151243581Y-47759869D01*
X151052402Y-47839058D01*
X150880348Y-47954020D01*
X150734020Y-48100348D01*
X150619058Y-48272402D01*
X150539869Y-48463581D01*
X150499500Y-48666532D01*
X150499500Y-48873467D01*
X150539869Y-49076418D01*
X150619058Y-49267597D01*
X150734020Y-49439651D01*
X150734023Y-49439655D01*
X150880345Y-49585977D01*
X151052402Y-49700941D01*
X151243580Y-49780130D01*
X151446535Y-49820500D01*
X151446536Y-49820500D01*
X151653464Y-49820500D01*
X151653465Y-49820500D01*
X151856420Y-49780130D01*
X152047598Y-49700941D01*
X152219655Y-49585977D01*
X152365977Y-49439655D01*
X152407185Y-49377981D01*
X152455233Y-49340103D01*
X152516372Y-49337701D01*
X152567246Y-49371693D01*
X152588424Y-49429096D01*
X152588500Y-49432984D01*
X152588500Y-50607595D01*
X152569593Y-50665786D01*
X152559503Y-50677599D01*
X152389156Y-50847945D01*
X152334640Y-50875722D01*
X152274208Y-50866151D01*
X152230943Y-50822886D01*
X152227622Y-50814641D01*
X152227362Y-50814749D01*
X152215591Y-50786331D01*
X152176465Y-50691873D01*
X152176463Y-50691870D01*
X152176461Y-50691866D01*
X152120152Y-50607595D01*
X152105276Y-50585331D01*
X152014669Y-50494724D01*
X151972226Y-50466365D01*
X151908133Y-50423538D01*
X151908125Y-50423534D01*
X151789747Y-50374500D01*
X151789745Y-50374499D01*
X151789744Y-50374499D01*
X151664069Y-50349500D01*
X151535931Y-50349500D01*
X151535930Y-50349500D01*
X151473093Y-50361999D01*
X151410256Y-50374499D01*
X151410255Y-50374499D01*
X151410252Y-50374500D01*
X151291874Y-50423534D01*
X151291866Y-50423538D01*
X151185331Y-50494724D01*
X151185327Y-50494727D01*
X151094727Y-50585327D01*
X151094724Y-50585331D01*
X151023538Y-50691866D01*
X151023534Y-50691874D01*
X150974500Y-50810252D01*
X150974499Y-50810255D01*
X150974499Y-50810256D01*
X150961999Y-50873093D01*
X150949500Y-50935930D01*
X150949500Y-51064071D01*
X150960098Y-51117349D01*
X150952906Y-51178110D01*
X150933004Y-51206667D01*
X130861532Y-71278141D01*
X130861531Y-71278142D01*
X130818683Y-71352356D01*
X130812482Y-71375499D01*
X130799611Y-71423535D01*
X130797854Y-71430093D01*
X130796500Y-71435147D01*
X130796500Y-77202162D01*
X130777593Y-77260353D01*
X130767504Y-77272166D01*
X129456665Y-78583004D01*
X129402148Y-78610781D01*
X129367347Y-78610098D01*
X129314069Y-78599500D01*
X129185931Y-78599500D01*
X129185930Y-78599500D01*
X129136041Y-78609424D01*
X129060256Y-78624499D01*
X129060255Y-78624499D01*
X129060252Y-78624500D01*
X128941874Y-78673534D01*
X128941866Y-78673538D01*
X128835331Y-78744724D01*
X128835327Y-78744727D01*
X128744727Y-78835327D01*
X128744724Y-78835331D01*
X128673538Y-78941866D01*
X128673534Y-78941874D01*
X128624500Y-79060252D01*
X128624499Y-79060255D01*
X128624499Y-79060256D01*
X128620423Y-79080746D01*
X128599500Y-79185930D01*
X128599500Y-79314069D01*
X128624499Y-79439742D01*
X128624500Y-79439747D01*
X128673534Y-79558125D01*
X128673538Y-79558133D01*
X128689367Y-79581822D01*
X128744724Y-79664669D01*
X128835331Y-79755276D01*
X128898848Y-79797717D01*
X128941866Y-79826461D01*
X128941870Y-79826463D01*
X128941873Y-79826465D01*
X129060256Y-79875501D01*
X129185931Y-79900500D01*
X129185932Y-79900500D01*
X129314068Y-79900500D01*
X129314069Y-79900500D01*
X129439744Y-79875501D01*
X129558127Y-79826465D01*
X129664669Y-79755276D01*
X129755276Y-79664669D01*
X129826465Y-79558127D01*
X129875501Y-79439744D01*
X129900500Y-79314069D01*
X129900500Y-79185931D01*
X129889900Y-79132645D01*
X129897090Y-79071887D01*
X129916990Y-79043331D01*
X131279995Y-77680326D01*
X131334510Y-77652551D01*
X131394942Y-77662122D01*
X131420001Y-77680328D01*
X133803004Y-80063330D01*
X133830781Y-80117847D01*
X133830098Y-80152647D01*
X133819500Y-80205925D01*
X133819500Y-80334069D01*
X133844499Y-80459742D01*
X133844500Y-80459747D01*
X133895396Y-80582620D01*
X133893322Y-80583478D01*
X133902526Y-80635088D01*
X133875811Y-80690133D01*
X133821844Y-80718962D01*
X133804463Y-80720500D01*
X111471834Y-80720500D01*
X111413643Y-80701593D01*
X111401830Y-80691504D01*
X108166994Y-77456667D01*
X108139217Y-77402150D01*
X108139900Y-77367351D01*
X108150500Y-77314069D01*
X108150500Y-77185931D01*
X108125501Y-77060256D01*
X108076465Y-76941873D01*
X108076463Y-76941870D01*
X108076461Y-76941866D01*
X108047717Y-76898848D01*
X108005276Y-76835331D01*
X108005271Y-76835326D01*
X108005268Y-76835322D01*
X107913555Y-76743610D01*
X107885777Y-76689094D01*
X107895348Y-76628661D01*
X107913555Y-76603602D01*
X108005268Y-76511889D01*
X108005276Y-76511881D01*
X108076465Y-76405339D01*
X108125501Y-76286956D01*
X108150500Y-76161281D01*
X108150500Y-76099835D01*
X108169407Y-76041644D01*
X108218907Y-76005680D01*
X108280093Y-76005680D01*
X108319504Y-76029831D01*
X110239535Y-77949862D01*
X110239534Y-77949862D01*
X110300135Y-78010462D01*
X110300138Y-78010465D01*
X110374362Y-78053318D01*
X110457147Y-78075500D01*
X127882227Y-78075500D01*
X127940418Y-78094407D01*
X127964540Y-78119496D01*
X127994724Y-78164669D01*
X128085331Y-78255276D01*
X128140104Y-78291874D01*
X128191866Y-78326461D01*
X128191870Y-78326463D01*
X128191873Y-78326465D01*
X128310256Y-78375501D01*
X128435931Y-78400500D01*
X128435932Y-78400500D01*
X128564068Y-78400500D01*
X128564069Y-78400500D01*
X128689744Y-78375501D01*
X128808127Y-78326465D01*
X128914669Y-78255276D01*
X129005276Y-78164669D01*
X129076465Y-78058127D01*
X129125501Y-77939744D01*
X129150500Y-77814069D01*
X129150500Y-77685931D01*
X129125501Y-77560256D01*
X129076465Y-77441873D01*
X129076463Y-77441870D01*
X129076461Y-77441866D01*
X129014149Y-77348611D01*
X129005276Y-77335331D01*
X128914669Y-77244724D01*
X128866670Y-77212652D01*
X128808133Y-77173538D01*
X128808125Y-77173534D01*
X128689747Y-77124500D01*
X128689745Y-77124499D01*
X128689744Y-77124499D01*
X128689742Y-77124498D01*
X128689733Y-77124496D01*
X128576203Y-77101912D01*
X128522819Y-77072015D01*
X128497204Y-77016450D01*
X128509142Y-76956440D01*
X128525510Y-76934815D01*
X130036465Y-75423862D01*
X130036468Y-75423857D01*
X130079316Y-75349643D01*
X130079316Y-75349641D01*
X130079318Y-75349639D01*
X130101500Y-75266853D01*
X130101500Y-75181147D01*
X130101500Y-63837935D01*
X130118185Y-63782933D01*
X130151465Y-63733127D01*
X130200501Y-63614744D01*
X130225500Y-63489069D01*
X130225500Y-63360931D01*
X130200501Y-63235256D01*
X130151465Y-63116873D01*
X130151463Y-63116870D01*
X130151461Y-63116866D01*
X130122717Y-63073848D01*
X130080276Y-63010331D01*
X129989669Y-62919724D01*
X129947226Y-62891365D01*
X129883133Y-62848538D01*
X129883125Y-62848534D01*
X129764747Y-62799500D01*
X129764745Y-62799499D01*
X129764744Y-62799499D01*
X129639069Y-62774500D01*
X129510931Y-62774500D01*
X129510930Y-62774500D01*
X129448093Y-62786999D01*
X129385256Y-62799499D01*
X129385255Y-62799499D01*
X129385252Y-62799500D01*
X129266874Y-62848534D01*
X129266866Y-62848538D01*
X129160331Y-62919724D01*
X129160327Y-62919727D01*
X129069727Y-63010327D01*
X129069724Y-63010331D01*
X128998538Y-63116866D01*
X128998534Y-63116874D01*
X128949500Y-63235252D01*
X128949499Y-63235257D01*
X128924500Y-63360930D01*
X128924500Y-63489069D01*
X128949499Y-63614742D01*
X128949500Y-63614747D01*
X128998534Y-63733125D01*
X128998538Y-63733133D01*
X129031814Y-63782933D01*
X129069724Y-63839669D01*
X129160331Y-63930276D01*
X129223848Y-63972717D01*
X129266866Y-64001461D01*
X129266877Y-64001467D01*
X129332934Y-64028828D01*
X129385256Y-64050501D01*
X129385257Y-64050501D01*
X129389385Y-64052211D01*
X129435911Y-64091947D01*
X129450500Y-64143675D01*
X129450500Y-70734463D01*
X129431593Y-70792654D01*
X129382093Y-70828618D01*
X129320907Y-70828618D01*
X129312727Y-70825136D01*
X129312620Y-70825396D01*
X129189747Y-70774500D01*
X129189745Y-70774499D01*
X129189744Y-70774499D01*
X129064069Y-70749500D01*
X128935931Y-70749500D01*
X128935927Y-70749500D01*
X128882649Y-70760098D01*
X128821887Y-70752906D01*
X128793331Y-70733004D01*
X128591550Y-70531223D01*
X128587245Y-70526635D01*
X128582896Y-70521695D01*
X128557268Y-70483339D01*
X128489272Y-70415343D01*
X128487191Y-70412979D01*
X128476246Y-70387636D01*
X128463719Y-70363049D01*
X128463293Y-70357642D01*
X128462933Y-70356808D01*
X128463151Y-70355835D01*
X128462500Y-70347563D01*
X128462500Y-55450001D01*
X139825001Y-55450001D01*
X139825001Y-55591703D01*
X139827850Y-55622100D01*
X139827850Y-55622102D01*
X139872654Y-55750147D01*
X139953207Y-55859290D01*
X139953209Y-55859292D01*
X140062352Y-55939845D01*
X140190398Y-55984649D01*
X140220789Y-55987499D01*
X140499998Y-55987499D01*
X140500000Y-55987498D01*
X140500000Y-55450001D01*
X141000000Y-55450001D01*
X141000000Y-55987498D01*
X141000001Y-55987499D01*
X141279203Y-55987499D01*
X141309600Y-55984649D01*
X141309602Y-55984649D01*
X141437647Y-55939845D01*
X141546790Y-55859292D01*
X141546792Y-55859290D01*
X141627345Y-55750147D01*
X141672149Y-55622101D01*
X141674999Y-55591711D01*
X141675000Y-55591710D01*
X141675000Y-55450001D01*
X141674999Y-55450000D01*
X141000001Y-55450000D01*
X141000000Y-55450001D01*
X140500000Y-55450001D01*
X140499999Y-55450000D01*
X139825002Y-55450000D01*
X139825001Y-55450001D01*
X128462500Y-55450001D01*
X128462500Y-54808288D01*
X139825000Y-54808288D01*
X139825000Y-54949999D01*
X139825001Y-54950000D01*
X140499999Y-54950000D01*
X140500000Y-54949999D01*
X140500000Y-54412501D01*
X141000000Y-54412501D01*
X141000000Y-54949999D01*
X141000001Y-54950000D01*
X141674998Y-54950000D01*
X141674999Y-54949999D01*
X141674999Y-54808296D01*
X141672149Y-54777899D01*
X141672149Y-54777897D01*
X141627345Y-54649852D01*
X141546792Y-54540709D01*
X141546790Y-54540707D01*
X141437647Y-54460154D01*
X141309601Y-54415350D01*
X141279211Y-54412500D01*
X141000001Y-54412500D01*
X141000000Y-54412501D01*
X140500000Y-54412501D01*
X140499999Y-54412500D01*
X140220796Y-54412500D01*
X140190399Y-54415350D01*
X140190397Y-54415350D01*
X140062352Y-54460154D01*
X139953209Y-54540707D01*
X139953207Y-54540709D01*
X139872654Y-54649852D01*
X139827850Y-54777898D01*
X139825000Y-54808288D01*
X128462500Y-54808288D01*
X128462500Y-51867773D01*
X128481407Y-51809582D01*
X128506499Y-51785457D01*
X128551669Y-51755276D01*
X128642276Y-51664669D01*
X128713465Y-51558127D01*
X128762501Y-51439744D01*
X128787500Y-51314069D01*
X128787500Y-51185931D01*
X128762501Y-51060256D01*
X128713465Y-50941873D01*
X128713463Y-50941871D01*
X128713461Y-50941865D01*
X128687827Y-50903502D01*
X128671218Y-50844614D01*
X128692395Y-50787210D01*
X128743269Y-50753217D01*
X128770142Y-50749500D01*
X135998165Y-50749500D01*
X136056356Y-50768407D01*
X136068169Y-50778496D01*
X138333004Y-53043330D01*
X138360781Y-53097847D01*
X138360098Y-53132647D01*
X138349500Y-53185925D01*
X138349500Y-53314069D01*
X138374499Y-53439742D01*
X138374500Y-53439747D01*
X138423534Y-53558125D01*
X138423538Y-53558133D01*
X138464542Y-53619498D01*
X138494724Y-53664669D01*
X138585331Y-53755276D01*
X138629378Y-53784707D01*
X138691866Y-53826461D01*
X138691870Y-53826463D01*
X138691873Y-53826465D01*
X138810256Y-53875501D01*
X138935931Y-53900500D01*
X138935932Y-53900500D01*
X139064068Y-53900500D01*
X139064069Y-53900500D01*
X139189744Y-53875501D01*
X139308127Y-53826465D01*
X139414669Y-53755276D01*
X139505276Y-53664669D01*
X139535458Y-53619497D01*
X139549253Y-53608622D01*
X139559582Y-53594407D01*
X139572687Y-53590148D01*
X139583508Y-53581619D01*
X139617773Y-53575500D01*
X139767013Y-53575500D01*
X139825204Y-53594407D01*
X139860456Y-53641801D01*
X139871453Y-53673229D01*
X139872208Y-53675385D01*
X139952845Y-53784644D01*
X139952847Y-53784646D01*
X139952850Y-53784650D01*
X139952853Y-53784652D01*
X139952855Y-53784654D01*
X140062116Y-53865292D01*
X140062117Y-53865292D01*
X140062118Y-53865293D01*
X140190301Y-53910146D01*
X140220725Y-53912999D01*
X140220727Y-53913000D01*
X140220734Y-53913000D01*
X141279273Y-53913000D01*
X141279273Y-53912999D01*
X141309699Y-53910146D01*
X141437882Y-53865293D01*
X141547150Y-53784650D01*
X141627793Y-53675382D01*
X141672646Y-53547199D01*
X141675499Y-53516773D01*
X141675500Y-53516773D01*
X141675500Y-52733227D01*
X141675499Y-52733225D01*
X141672646Y-52702805D01*
X141672646Y-52702801D01*
X141627793Y-52574618D01*
X141547150Y-52465350D01*
X141547146Y-52465347D01*
X141547144Y-52465345D01*
X141437883Y-52384707D01*
X141309703Y-52339855D01*
X141309694Y-52339853D01*
X141279274Y-52337000D01*
X141279266Y-52337000D01*
X140220734Y-52337000D01*
X140220725Y-52337000D01*
X140190305Y-52339853D01*
X140190296Y-52339855D01*
X140062116Y-52384707D01*
X139952855Y-52465345D01*
X139952845Y-52465355D01*
X139872207Y-52574616D01*
X139827355Y-52702796D01*
X139827353Y-52702805D01*
X139824500Y-52733225D01*
X139824500Y-52825500D01*
X139819655Y-52840411D01*
X139819655Y-52856093D01*
X139810438Y-52868778D01*
X139805593Y-52883691D01*
X139792907Y-52892907D01*
X139783691Y-52905593D01*
X139768778Y-52910438D01*
X139756093Y-52919655D01*
X139725500Y-52924500D01*
X139617773Y-52924500D01*
X139559582Y-52905593D01*
X139535458Y-52880502D01*
X139505276Y-52835331D01*
X139414669Y-52744724D01*
X139351927Y-52702801D01*
X139308133Y-52673538D01*
X139308125Y-52673534D01*
X139189747Y-52624500D01*
X139189745Y-52624499D01*
X139189744Y-52624499D01*
X139064069Y-52599500D01*
X138935931Y-52599500D01*
X138935925Y-52599500D01*
X138882647Y-52610098D01*
X138821886Y-52602906D01*
X138793330Y-52583004D01*
X137650068Y-51439742D01*
X136373862Y-50163535D01*
X136373859Y-50163533D01*
X136373857Y-50163531D01*
X136299642Y-50120683D01*
X136299644Y-50120683D01*
X136267521Y-50112076D01*
X136216853Y-50098500D01*
X136216851Y-50098500D01*
X113428719Y-50098500D01*
X113421121Y-50096031D01*
X113413232Y-50097281D01*
X113392576Y-50086756D01*
X113370528Y-50079593D01*
X113358715Y-50069504D01*
X113278715Y-49989504D01*
X113250938Y-49934987D01*
X113260509Y-49874555D01*
X113303774Y-49831290D01*
X113348719Y-49820500D01*
X113553464Y-49820500D01*
X113553465Y-49820500D01*
X113756420Y-49780130D01*
X113947598Y-49700941D01*
X114119655Y-49585977D01*
X114265977Y-49439655D01*
X114380941Y-49267598D01*
X114460130Y-49076420D01*
X114500500Y-48873465D01*
X114500500Y-48666535D01*
X114500499Y-48666532D01*
X114939500Y-48666532D01*
X114939500Y-48873467D01*
X114979869Y-49076418D01*
X115059058Y-49267597D01*
X115174020Y-49439651D01*
X115174023Y-49439655D01*
X115320345Y-49585977D01*
X115492402Y-49700941D01*
X115683580Y-49780130D01*
X115886535Y-49820500D01*
X115886536Y-49820500D01*
X116093464Y-49820500D01*
X116093465Y-49820500D01*
X116296420Y-49780130D01*
X116487598Y-49700941D01*
X116659655Y-49585977D01*
X116805977Y-49439655D01*
X116920941Y-49267598D01*
X117000130Y-49076420D01*
X117040500Y-48873465D01*
X117040500Y-48666581D01*
X117480000Y-48666581D01*
X117480000Y-48873418D01*
X117520349Y-49076272D01*
X117599501Y-49267360D01*
X117599505Y-49267369D01*
X117631377Y-49315067D01*
X118047036Y-48899407D01*
X118064075Y-48962993D01*
X118129901Y-49077007D01*
X118222993Y-49170099D01*
X118337007Y-49235925D01*
X118400590Y-49252962D01*
X117984931Y-49668621D01*
X118032639Y-49700498D01*
X118223727Y-49779650D01*
X118426581Y-49819999D01*
X118426586Y-49820000D01*
X118633414Y-49820000D01*
X118633418Y-49819999D01*
X118836272Y-49779650D01*
X119027359Y-49700499D01*
X119075068Y-49668621D01*
X118659409Y-49252962D01*
X118722993Y-49235925D01*
X118837007Y-49170099D01*
X118930099Y-49077007D01*
X118995925Y-48962993D01*
X119012962Y-48899409D01*
X119428621Y-49315068D01*
X119460499Y-49267359D01*
X119539650Y-49076272D01*
X119579999Y-48873418D01*
X119580000Y-48873413D01*
X119580000Y-48666585D01*
X119579999Y-48666582D01*
X119579989Y-48666532D01*
X120019500Y-48666532D01*
X120019500Y-48873467D01*
X120059869Y-49076418D01*
X120139058Y-49267597D01*
X120254020Y-49439651D01*
X120254023Y-49439655D01*
X120400345Y-49585977D01*
X120572402Y-49700941D01*
X120763580Y-49780130D01*
X120966535Y-49820500D01*
X120966536Y-49820500D01*
X121173464Y-49820500D01*
X121173465Y-49820500D01*
X121376420Y-49780130D01*
X121567598Y-49700941D01*
X121739655Y-49585977D01*
X121885977Y-49439655D01*
X122000941Y-49267598D01*
X122080130Y-49076420D01*
X122120500Y-48873465D01*
X122120500Y-48666535D01*
X122120499Y-48666532D01*
X122559500Y-48666532D01*
X122559500Y-48873467D01*
X122599869Y-49076418D01*
X122679058Y-49267597D01*
X122794020Y-49439651D01*
X122794023Y-49439655D01*
X122940345Y-49585977D01*
X123112402Y-49700941D01*
X123303580Y-49780130D01*
X123506535Y-49820500D01*
X123506536Y-49820500D01*
X123713464Y-49820500D01*
X123713465Y-49820500D01*
X123916420Y-49780130D01*
X124107598Y-49700941D01*
X124279655Y-49585977D01*
X124425977Y-49439655D01*
X124540941Y-49267598D01*
X124620130Y-49076420D01*
X124660500Y-48873465D01*
X124660500Y-48666535D01*
X124660499Y-48666532D01*
X125099500Y-48666532D01*
X125099500Y-48873467D01*
X125139869Y-49076418D01*
X125219058Y-49267597D01*
X125334020Y-49439651D01*
X125334023Y-49439655D01*
X125480345Y-49585977D01*
X125652402Y-49700941D01*
X125843580Y-49780130D01*
X126046535Y-49820500D01*
X126046536Y-49820500D01*
X126253464Y-49820500D01*
X126253465Y-49820500D01*
X126456420Y-49780130D01*
X126647598Y-49700941D01*
X126819655Y-49585977D01*
X126965977Y-49439655D01*
X127080941Y-49267598D01*
X127160130Y-49076420D01*
X127200500Y-48873465D01*
X127200500Y-48666535D01*
X127200499Y-48666532D01*
X127639500Y-48666532D01*
X127639500Y-48873467D01*
X127679869Y-49076418D01*
X127759058Y-49267597D01*
X127874020Y-49439651D01*
X127874023Y-49439655D01*
X128020345Y-49585977D01*
X128192402Y-49700941D01*
X128383580Y-49780130D01*
X128586535Y-49820500D01*
X128586536Y-49820500D01*
X128793464Y-49820500D01*
X128793465Y-49820500D01*
X128996420Y-49780130D01*
X129187598Y-49700941D01*
X129359655Y-49585977D01*
X129505977Y-49439655D01*
X129620941Y-49267598D01*
X129700130Y-49076420D01*
X129740500Y-48873465D01*
X129740500Y-48666535D01*
X129740499Y-48666532D01*
X130179500Y-48666532D01*
X130179500Y-48873467D01*
X130219869Y-49076418D01*
X130299058Y-49267597D01*
X130414020Y-49439651D01*
X130414023Y-49439655D01*
X130560345Y-49585977D01*
X130732402Y-49700941D01*
X130923580Y-49780130D01*
X131126535Y-49820500D01*
X131126536Y-49820500D01*
X131333464Y-49820500D01*
X131333465Y-49820500D01*
X131536420Y-49780130D01*
X131727598Y-49700941D01*
X131899655Y-49585977D01*
X132045977Y-49439655D01*
X132160941Y-49267598D01*
X132240130Y-49076420D01*
X132280500Y-48873465D01*
X132280500Y-48666535D01*
X132280499Y-48666532D01*
X132719500Y-48666532D01*
X132719500Y-48873467D01*
X132759869Y-49076418D01*
X132839058Y-49267597D01*
X132954020Y-49439651D01*
X132954023Y-49439655D01*
X133100345Y-49585977D01*
X133272402Y-49700941D01*
X133463580Y-49780130D01*
X133666535Y-49820500D01*
X133666536Y-49820500D01*
X133873464Y-49820500D01*
X133873465Y-49820500D01*
X134076420Y-49780130D01*
X134267598Y-49700941D01*
X134439655Y-49585977D01*
X134585977Y-49439655D01*
X134700941Y-49267598D01*
X134780130Y-49076420D01*
X134820500Y-48873465D01*
X134820500Y-48666535D01*
X134820499Y-48666532D01*
X135259500Y-48666532D01*
X135259500Y-48873467D01*
X135299869Y-49076418D01*
X135379058Y-49267597D01*
X135494020Y-49439651D01*
X135494023Y-49439655D01*
X135640345Y-49585977D01*
X135812402Y-49700941D01*
X136003580Y-49780130D01*
X136206535Y-49820500D01*
X136206536Y-49820500D01*
X136413464Y-49820500D01*
X136413465Y-49820500D01*
X136616420Y-49780130D01*
X136807598Y-49700941D01*
X136979655Y-49585977D01*
X137125977Y-49439655D01*
X137240941Y-49267598D01*
X137320130Y-49076420D01*
X137360500Y-48873465D01*
X137360500Y-48666581D01*
X137800000Y-48666581D01*
X137800000Y-48873418D01*
X137840349Y-49076272D01*
X137919501Y-49267360D01*
X137919505Y-49267369D01*
X137951377Y-49315067D01*
X138367036Y-48899407D01*
X138384075Y-48962993D01*
X138449901Y-49077007D01*
X138542993Y-49170099D01*
X138657007Y-49235925D01*
X138720590Y-49252962D01*
X138304931Y-49668621D01*
X138352639Y-49700498D01*
X138543727Y-49779650D01*
X138746581Y-49819999D01*
X138746586Y-49820000D01*
X138953414Y-49820000D01*
X138953418Y-49819999D01*
X139156272Y-49779650D01*
X139347359Y-49700499D01*
X139395068Y-49668621D01*
X138979409Y-49252962D01*
X139042993Y-49235925D01*
X139157007Y-49170099D01*
X139250099Y-49077007D01*
X139315925Y-48962993D01*
X139332962Y-48899409D01*
X139748621Y-49315068D01*
X139780499Y-49267359D01*
X139859650Y-49076272D01*
X139899999Y-48873418D01*
X139900000Y-48873413D01*
X139900000Y-48666585D01*
X139899999Y-48666582D01*
X139899989Y-48666532D01*
X140339500Y-48666532D01*
X140339500Y-48873467D01*
X140379869Y-49076418D01*
X140459058Y-49267597D01*
X140574020Y-49439651D01*
X140574023Y-49439655D01*
X140720345Y-49585977D01*
X140892402Y-49700941D01*
X141083580Y-49780130D01*
X141286535Y-49820500D01*
X141286536Y-49820500D01*
X141493464Y-49820500D01*
X141493465Y-49820500D01*
X141696420Y-49780130D01*
X141887598Y-49700941D01*
X142059655Y-49585977D01*
X142205977Y-49439655D01*
X142320941Y-49267598D01*
X142400130Y-49076420D01*
X142440500Y-48873465D01*
X142440500Y-48666535D01*
X142440499Y-48666532D01*
X142879500Y-48666532D01*
X142879500Y-48873467D01*
X142919869Y-49076418D01*
X142999058Y-49267597D01*
X143114020Y-49439651D01*
X143114023Y-49439655D01*
X143260345Y-49585977D01*
X143432402Y-49700941D01*
X143623580Y-49780130D01*
X143826535Y-49820500D01*
X143826536Y-49820500D01*
X144033464Y-49820500D01*
X144033465Y-49820500D01*
X144236420Y-49780130D01*
X144427598Y-49700941D01*
X144599655Y-49585977D01*
X144745977Y-49439655D01*
X144860941Y-49267598D01*
X144940130Y-49076420D01*
X144980500Y-48873465D01*
X144980500Y-48666535D01*
X144980499Y-48666532D01*
X145419500Y-48666532D01*
X145419500Y-48873467D01*
X145459869Y-49076418D01*
X145539058Y-49267597D01*
X145654020Y-49439651D01*
X145654023Y-49439655D01*
X145800345Y-49585977D01*
X145972402Y-49700941D01*
X146163580Y-49780130D01*
X146366535Y-49820500D01*
X146366536Y-49820500D01*
X146573464Y-49820500D01*
X146573465Y-49820500D01*
X146776420Y-49780130D01*
X146967598Y-49700941D01*
X147139655Y-49585977D01*
X147285977Y-49439655D01*
X147400941Y-49267598D01*
X147480130Y-49076420D01*
X147520500Y-48873465D01*
X147520500Y-48666535D01*
X147520499Y-48666532D01*
X147959500Y-48666532D01*
X147959500Y-48873467D01*
X147999869Y-49076418D01*
X148079058Y-49267597D01*
X148194020Y-49439651D01*
X148194023Y-49439655D01*
X148340345Y-49585977D01*
X148512402Y-49700941D01*
X148703580Y-49780130D01*
X148906535Y-49820500D01*
X148906536Y-49820500D01*
X149113464Y-49820500D01*
X149113465Y-49820500D01*
X149316420Y-49780130D01*
X149507598Y-49700941D01*
X149679655Y-49585977D01*
X149825977Y-49439655D01*
X149940941Y-49267598D01*
X150020130Y-49076420D01*
X150060500Y-48873465D01*
X150060500Y-48666535D01*
X150020130Y-48463580D01*
X149940941Y-48272402D01*
X149825977Y-48100345D01*
X149679655Y-47954023D01*
X149679651Y-47954020D01*
X149507597Y-47839058D01*
X149316418Y-47759869D01*
X149113467Y-47719500D01*
X149113465Y-47719500D01*
X148906535Y-47719500D01*
X148906532Y-47719500D01*
X148703581Y-47759869D01*
X148512402Y-47839058D01*
X148340348Y-47954020D01*
X148194020Y-48100348D01*
X148079058Y-48272402D01*
X147999869Y-48463581D01*
X147959500Y-48666532D01*
X147520499Y-48666532D01*
X147480130Y-48463580D01*
X147400941Y-48272402D01*
X147285977Y-48100345D01*
X147139655Y-47954023D01*
X147139651Y-47954020D01*
X146967597Y-47839058D01*
X146776418Y-47759869D01*
X146573467Y-47719500D01*
X146573465Y-47719500D01*
X146366535Y-47719500D01*
X146366532Y-47719500D01*
X146163581Y-47759869D01*
X145972402Y-47839058D01*
X145800348Y-47954020D01*
X145654020Y-48100348D01*
X145539058Y-48272402D01*
X145459869Y-48463581D01*
X145419500Y-48666532D01*
X144980499Y-48666532D01*
X144940130Y-48463580D01*
X144860941Y-48272402D01*
X144745977Y-48100345D01*
X144599655Y-47954023D01*
X144599651Y-47954020D01*
X144427597Y-47839058D01*
X144236418Y-47759869D01*
X144033467Y-47719500D01*
X144033465Y-47719500D01*
X143826535Y-47719500D01*
X143826532Y-47719500D01*
X143623581Y-47759869D01*
X143432402Y-47839058D01*
X143260348Y-47954020D01*
X143114020Y-48100348D01*
X142999058Y-48272402D01*
X142919869Y-48463581D01*
X142879500Y-48666532D01*
X142440499Y-48666532D01*
X142400130Y-48463580D01*
X142320941Y-48272402D01*
X142205977Y-48100345D01*
X142059655Y-47954023D01*
X142059651Y-47954020D01*
X141887597Y-47839058D01*
X141696418Y-47759869D01*
X141493467Y-47719500D01*
X141493465Y-47719500D01*
X141286535Y-47719500D01*
X141286532Y-47719500D01*
X141083581Y-47759869D01*
X140892402Y-47839058D01*
X140720348Y-47954020D01*
X140574020Y-48100348D01*
X140459058Y-48272402D01*
X140379869Y-48463581D01*
X140339500Y-48666532D01*
X139899989Y-48666532D01*
X139859650Y-48463727D01*
X139780498Y-48272639D01*
X139748621Y-48224931D01*
X139332962Y-48640590D01*
X139315925Y-48577007D01*
X139250099Y-48462993D01*
X139157007Y-48369901D01*
X139042993Y-48304075D01*
X138979407Y-48287036D01*
X139395067Y-47871377D01*
X139347369Y-47839505D01*
X139347360Y-47839501D01*
X139156272Y-47760349D01*
X138953418Y-47720000D01*
X138746581Y-47720000D01*
X138543727Y-47760349D01*
X138352638Y-47839501D01*
X138304931Y-47871377D01*
X138720591Y-48287037D01*
X138657007Y-48304075D01*
X138542993Y-48369901D01*
X138449901Y-48462993D01*
X138384075Y-48577007D01*
X138367037Y-48640591D01*
X137951377Y-48224931D01*
X137919501Y-48272638D01*
X137840349Y-48463727D01*
X137800000Y-48666581D01*
X137360500Y-48666581D01*
X137360500Y-48666535D01*
X137320130Y-48463580D01*
X137240941Y-48272402D01*
X137125977Y-48100345D01*
X136979655Y-47954023D01*
X136979651Y-47954020D01*
X136807597Y-47839058D01*
X136616418Y-47759869D01*
X136413467Y-47719500D01*
X136413465Y-47719500D01*
X136206535Y-47719500D01*
X136206532Y-47719500D01*
X136003581Y-47759869D01*
X135812402Y-47839058D01*
X135640348Y-47954020D01*
X135494020Y-48100348D01*
X135379058Y-48272402D01*
X135299869Y-48463581D01*
X135259500Y-48666532D01*
X134820499Y-48666532D01*
X134780130Y-48463580D01*
X134700941Y-48272402D01*
X134585977Y-48100345D01*
X134439655Y-47954023D01*
X134439651Y-47954020D01*
X134267597Y-47839058D01*
X134076418Y-47759869D01*
X133873467Y-47719500D01*
X133873465Y-47719500D01*
X133666535Y-47719500D01*
X133666532Y-47719500D01*
X133463581Y-47759869D01*
X133272402Y-47839058D01*
X133100348Y-47954020D01*
X132954020Y-48100348D01*
X132839058Y-48272402D01*
X132759869Y-48463581D01*
X132719500Y-48666532D01*
X132280499Y-48666532D01*
X132240130Y-48463580D01*
X132160941Y-48272402D01*
X132045977Y-48100345D01*
X131899655Y-47954023D01*
X131899651Y-47954020D01*
X131727597Y-47839058D01*
X131536418Y-47759869D01*
X131333467Y-47719500D01*
X131333465Y-47719500D01*
X131126535Y-47719500D01*
X131126532Y-47719500D01*
X130923581Y-47759869D01*
X130732402Y-47839058D01*
X130560348Y-47954020D01*
X130414020Y-48100348D01*
X130299058Y-48272402D01*
X130219869Y-48463581D01*
X130179500Y-48666532D01*
X129740499Y-48666532D01*
X129700130Y-48463580D01*
X129620941Y-48272402D01*
X129505977Y-48100345D01*
X129359655Y-47954023D01*
X129359651Y-47954020D01*
X129187597Y-47839058D01*
X128996418Y-47759869D01*
X128793467Y-47719500D01*
X128793465Y-47719500D01*
X128586535Y-47719500D01*
X128586532Y-47719500D01*
X128383581Y-47759869D01*
X128192402Y-47839058D01*
X128020348Y-47954020D01*
X127874020Y-48100348D01*
X127759058Y-48272402D01*
X127679869Y-48463581D01*
X127639500Y-48666532D01*
X127200499Y-48666532D01*
X127160130Y-48463580D01*
X127080941Y-48272402D01*
X126965977Y-48100345D01*
X126819655Y-47954023D01*
X126819651Y-47954020D01*
X126647597Y-47839058D01*
X126456418Y-47759869D01*
X126253467Y-47719500D01*
X126253465Y-47719500D01*
X126046535Y-47719500D01*
X126046532Y-47719500D01*
X125843581Y-47759869D01*
X125652402Y-47839058D01*
X125480348Y-47954020D01*
X125334020Y-48100348D01*
X125219058Y-48272402D01*
X125139869Y-48463581D01*
X125099500Y-48666532D01*
X124660499Y-48666532D01*
X124620130Y-48463580D01*
X124540941Y-48272402D01*
X124425977Y-48100345D01*
X124279655Y-47954023D01*
X124279651Y-47954020D01*
X124107597Y-47839058D01*
X123916418Y-47759869D01*
X123713467Y-47719500D01*
X123713465Y-47719500D01*
X123506535Y-47719500D01*
X123506532Y-47719500D01*
X123303581Y-47759869D01*
X123112402Y-47839058D01*
X122940348Y-47954020D01*
X122794020Y-48100348D01*
X122679058Y-48272402D01*
X122599869Y-48463581D01*
X122559500Y-48666532D01*
X122120499Y-48666532D01*
X122080130Y-48463580D01*
X122000941Y-48272402D01*
X121885977Y-48100345D01*
X121739655Y-47954023D01*
X121739651Y-47954020D01*
X121567597Y-47839058D01*
X121376418Y-47759869D01*
X121173467Y-47719500D01*
X121173465Y-47719500D01*
X120966535Y-47719500D01*
X120966532Y-47719500D01*
X120763581Y-47759869D01*
X120572402Y-47839058D01*
X120400348Y-47954020D01*
X120254020Y-48100348D01*
X120139058Y-48272402D01*
X120059869Y-48463581D01*
X120019500Y-48666532D01*
X119579989Y-48666532D01*
X119539650Y-48463727D01*
X119460498Y-48272639D01*
X119428621Y-48224931D01*
X119012962Y-48640590D01*
X118995925Y-48577007D01*
X118930099Y-48462993D01*
X118837007Y-48369901D01*
X118722993Y-48304075D01*
X118659407Y-48287036D01*
X119075067Y-47871377D01*
X119027369Y-47839505D01*
X119027360Y-47839501D01*
X118836272Y-47760349D01*
X118633418Y-47720000D01*
X118426581Y-47720000D01*
X118223727Y-47760349D01*
X118032638Y-47839501D01*
X117984931Y-47871377D01*
X118400591Y-48287037D01*
X118337007Y-48304075D01*
X118222993Y-48369901D01*
X118129901Y-48462993D01*
X118064075Y-48577007D01*
X118047037Y-48640591D01*
X117631377Y-48224931D01*
X117599501Y-48272638D01*
X117520349Y-48463727D01*
X117480000Y-48666581D01*
X117040500Y-48666581D01*
X117040500Y-48666535D01*
X117000130Y-48463580D01*
X116920941Y-48272402D01*
X116805977Y-48100345D01*
X116659655Y-47954023D01*
X116659651Y-47954020D01*
X116487597Y-47839058D01*
X116296418Y-47759869D01*
X116093467Y-47719500D01*
X116093465Y-47719500D01*
X115886535Y-47719500D01*
X115886532Y-47719500D01*
X115683581Y-47759869D01*
X115492402Y-47839058D01*
X115320348Y-47954020D01*
X115174020Y-48100348D01*
X115059058Y-48272402D01*
X114979869Y-48463581D01*
X114939500Y-48666532D01*
X114500499Y-48666532D01*
X114460130Y-48463580D01*
X114380941Y-48272402D01*
X114265977Y-48100345D01*
X114119655Y-47954023D01*
X114119651Y-47954020D01*
X113947597Y-47839058D01*
X113756418Y-47759869D01*
X113553467Y-47719500D01*
X113553465Y-47719500D01*
X113346535Y-47719500D01*
X113346532Y-47719500D01*
X113143581Y-47759869D01*
X112952402Y-47839058D01*
X112780348Y-47954020D01*
X112634020Y-48100348D01*
X112592816Y-48162016D01*
X112544766Y-48199896D01*
X112483628Y-48202298D01*
X112432754Y-48168306D01*
X112411576Y-48110902D01*
X112411500Y-48107015D01*
X112411500Y-47363148D01*
X112411500Y-47363147D01*
X112389318Y-47280362D01*
X112389318Y-47280361D01*
X112389318Y-47280360D01*
X112346468Y-47206142D01*
X112346466Y-47206140D01*
X112346465Y-47206138D01*
X111895616Y-46755289D01*
X111867841Y-46700775D01*
X111874157Y-46647405D01*
X111920130Y-46536420D01*
X111960500Y-46333465D01*
X111960500Y-46126581D01*
X112400000Y-46126581D01*
X112400000Y-46333418D01*
X112440349Y-46536272D01*
X112519501Y-46727360D01*
X112519505Y-46727369D01*
X112551377Y-46775067D01*
X112967036Y-46359407D01*
X112984075Y-46422993D01*
X113049901Y-46537007D01*
X113142993Y-46630099D01*
X113257007Y-46695925D01*
X113320590Y-46712962D01*
X112904931Y-47128621D01*
X112952639Y-47160498D01*
X113143727Y-47239650D01*
X113346581Y-47279999D01*
X113346586Y-47280000D01*
X113553414Y-47280000D01*
X113553418Y-47279999D01*
X113756272Y-47239650D01*
X113947359Y-47160499D01*
X113995068Y-47128621D01*
X113579409Y-46712962D01*
X113642993Y-46695925D01*
X113757007Y-46630099D01*
X113850099Y-46537007D01*
X113915925Y-46422993D01*
X113932962Y-46359409D01*
X114348621Y-46775068D01*
X114380499Y-46727359D01*
X114459650Y-46536272D01*
X114499999Y-46333418D01*
X114500000Y-46333413D01*
X114500000Y-46126585D01*
X114499999Y-46126582D01*
X114499989Y-46126532D01*
X114939500Y-46126532D01*
X114939500Y-46333467D01*
X114979869Y-46536418D01*
X115059058Y-46727597D01*
X115122351Y-46822322D01*
X115174023Y-46899655D01*
X115320345Y-47045977D01*
X115492402Y-47160941D01*
X115683580Y-47240130D01*
X115886535Y-47280500D01*
X115886536Y-47280500D01*
X116093464Y-47280500D01*
X116093465Y-47280500D01*
X116296420Y-47240130D01*
X116487598Y-47160941D01*
X116659655Y-47045977D01*
X116805977Y-46899655D01*
X116920941Y-46727598D01*
X117000130Y-46536420D01*
X117040500Y-46333465D01*
X117040500Y-46126535D01*
X117040499Y-46126532D01*
X117479500Y-46126532D01*
X117479500Y-46333467D01*
X117519869Y-46536418D01*
X117599058Y-46727597D01*
X117662351Y-46822322D01*
X117714023Y-46899655D01*
X117860345Y-47045977D01*
X118032402Y-47160941D01*
X118223580Y-47240130D01*
X118426535Y-47280500D01*
X118426536Y-47280500D01*
X118633464Y-47280500D01*
X118633465Y-47280500D01*
X118836420Y-47240130D01*
X119027598Y-47160941D01*
X119199655Y-47045977D01*
X119345977Y-46899655D01*
X119460941Y-46727598D01*
X119540130Y-46536420D01*
X119580500Y-46333465D01*
X119580500Y-46126535D01*
X119580499Y-46126532D01*
X120019500Y-46126532D01*
X120019500Y-46333467D01*
X120059869Y-46536418D01*
X120139058Y-46727597D01*
X120202351Y-46822322D01*
X120254023Y-46899655D01*
X120400345Y-47045977D01*
X120572402Y-47160941D01*
X120763580Y-47240130D01*
X120966535Y-47280500D01*
X120966536Y-47280500D01*
X121173464Y-47280500D01*
X121173465Y-47280500D01*
X121376420Y-47240130D01*
X121567598Y-47160941D01*
X121739655Y-47045977D01*
X121885977Y-46899655D01*
X122000941Y-46727598D01*
X122080130Y-46536420D01*
X122120500Y-46333465D01*
X122120500Y-46126581D01*
X122560000Y-46126581D01*
X122560000Y-46333418D01*
X122600349Y-46536272D01*
X122679501Y-46727360D01*
X122679505Y-46727369D01*
X122711377Y-46775067D01*
X123127036Y-46359407D01*
X123144075Y-46422993D01*
X123209901Y-46537007D01*
X123302993Y-46630099D01*
X123417007Y-46695925D01*
X123480590Y-46712962D01*
X123064931Y-47128621D01*
X123112639Y-47160498D01*
X123303727Y-47239650D01*
X123506581Y-47279999D01*
X123506586Y-47280000D01*
X123713414Y-47280000D01*
X123713418Y-47279999D01*
X123916272Y-47239650D01*
X124107359Y-47160499D01*
X124155068Y-47128621D01*
X123739409Y-46712962D01*
X123802993Y-46695925D01*
X123917007Y-46630099D01*
X124010099Y-46537007D01*
X124075925Y-46422993D01*
X124092962Y-46359409D01*
X124508621Y-46775068D01*
X124540499Y-46727359D01*
X124619650Y-46536272D01*
X124659999Y-46333418D01*
X124660000Y-46333413D01*
X124660000Y-46126585D01*
X124659999Y-46126582D01*
X124659989Y-46126532D01*
X125099500Y-46126532D01*
X125099500Y-46333467D01*
X125139869Y-46536418D01*
X125219058Y-46727597D01*
X125282351Y-46822322D01*
X125334023Y-46899655D01*
X125480345Y-47045977D01*
X125652402Y-47160941D01*
X125843580Y-47240130D01*
X126046535Y-47280500D01*
X126046536Y-47280500D01*
X126253464Y-47280500D01*
X126253465Y-47280500D01*
X126456420Y-47240130D01*
X126647598Y-47160941D01*
X126819655Y-47045977D01*
X126965977Y-46899655D01*
X127080941Y-46727598D01*
X127160130Y-46536420D01*
X127200500Y-46333465D01*
X127200500Y-46126535D01*
X127200499Y-46126532D01*
X127639500Y-46126532D01*
X127639500Y-46333467D01*
X127679869Y-46536418D01*
X127759058Y-46727597D01*
X127822351Y-46822322D01*
X127874023Y-46899655D01*
X128020345Y-47045977D01*
X128192402Y-47160941D01*
X128383580Y-47240130D01*
X128586535Y-47280500D01*
X128586536Y-47280500D01*
X128793464Y-47280500D01*
X128793465Y-47280500D01*
X128996420Y-47240130D01*
X129187598Y-47160941D01*
X129359655Y-47045977D01*
X129505977Y-46899655D01*
X129620941Y-46727598D01*
X129700130Y-46536420D01*
X129740500Y-46333465D01*
X129740500Y-46126581D01*
X130180000Y-46126581D01*
X130180000Y-46333418D01*
X130220349Y-46536272D01*
X130299501Y-46727360D01*
X130299505Y-46727369D01*
X130331377Y-46775067D01*
X130747036Y-46359407D01*
X130764075Y-46422993D01*
X130829901Y-46537007D01*
X130922993Y-46630099D01*
X131037007Y-46695925D01*
X131100590Y-46712962D01*
X130684931Y-47128621D01*
X130732639Y-47160498D01*
X130923727Y-47239650D01*
X131126581Y-47279999D01*
X131126586Y-47280000D01*
X131333414Y-47280000D01*
X131333418Y-47279999D01*
X131536272Y-47239650D01*
X131727359Y-47160499D01*
X131775068Y-47128621D01*
X131359409Y-46712962D01*
X131422993Y-46695925D01*
X131537007Y-46630099D01*
X131630099Y-46537007D01*
X131695925Y-46422993D01*
X131712962Y-46359409D01*
X132128621Y-46775068D01*
X132160499Y-46727359D01*
X132239650Y-46536272D01*
X132279999Y-46333418D01*
X132280000Y-46333413D01*
X132280000Y-46126585D01*
X132279999Y-46126582D01*
X132279989Y-46126532D01*
X132719500Y-46126532D01*
X132719500Y-46333467D01*
X132759869Y-46536418D01*
X132839058Y-46727597D01*
X132902351Y-46822322D01*
X132954023Y-46899655D01*
X133100345Y-47045977D01*
X133272402Y-47160941D01*
X133463580Y-47240130D01*
X133666535Y-47280500D01*
X133666536Y-47280500D01*
X133873464Y-47280500D01*
X133873465Y-47280500D01*
X134076420Y-47240130D01*
X134267598Y-47160941D01*
X134439655Y-47045977D01*
X134585977Y-46899655D01*
X134700941Y-46727598D01*
X134780130Y-46536420D01*
X134820500Y-46333465D01*
X134820500Y-46126535D01*
X134820499Y-46126532D01*
X135259500Y-46126532D01*
X135259500Y-46333467D01*
X135299869Y-46536418D01*
X135379058Y-46727597D01*
X135442351Y-46822322D01*
X135494023Y-46899655D01*
X135640345Y-47045977D01*
X135812402Y-47160941D01*
X136003580Y-47240130D01*
X136206535Y-47280500D01*
X136206536Y-47280500D01*
X136413464Y-47280500D01*
X136413465Y-47280500D01*
X136616420Y-47240130D01*
X136807598Y-47160941D01*
X136979655Y-47045977D01*
X137125977Y-46899655D01*
X137240941Y-46727598D01*
X137320130Y-46536420D01*
X137360500Y-46333465D01*
X137360500Y-46126535D01*
X137360499Y-46126532D01*
X137799500Y-46126532D01*
X137799500Y-46333467D01*
X137839869Y-46536418D01*
X137919058Y-46727597D01*
X137982351Y-46822322D01*
X138034023Y-46899655D01*
X138180345Y-47045977D01*
X138352402Y-47160941D01*
X138543580Y-47240130D01*
X138746535Y-47280500D01*
X138746536Y-47280500D01*
X138953464Y-47280500D01*
X138953465Y-47280500D01*
X139156420Y-47240130D01*
X139347598Y-47160941D01*
X139519655Y-47045977D01*
X139665977Y-46899655D01*
X139780941Y-46727598D01*
X139860130Y-46536420D01*
X139900500Y-46333465D01*
X139900500Y-46126535D01*
X139900499Y-46126532D01*
X140339500Y-46126532D01*
X140339500Y-46333467D01*
X140379869Y-46536418D01*
X140459058Y-46727597D01*
X140522351Y-46822322D01*
X140574023Y-46899655D01*
X140720345Y-47045977D01*
X140892402Y-47160941D01*
X141083580Y-47240130D01*
X141286535Y-47280500D01*
X141286536Y-47280500D01*
X141493464Y-47280500D01*
X141493465Y-47280500D01*
X141696420Y-47240130D01*
X141887598Y-47160941D01*
X142059655Y-47045977D01*
X142205977Y-46899655D01*
X142320941Y-46727598D01*
X142400130Y-46536420D01*
X142440500Y-46333465D01*
X142440500Y-46126581D01*
X142880000Y-46126581D01*
X142880000Y-46333418D01*
X142920349Y-46536272D01*
X142999501Y-46727360D01*
X142999505Y-46727369D01*
X143031377Y-46775067D01*
X143447036Y-46359407D01*
X143464075Y-46422993D01*
X143529901Y-46537007D01*
X143622993Y-46630099D01*
X143737007Y-46695925D01*
X143800590Y-46712962D01*
X143384931Y-47128621D01*
X143432639Y-47160498D01*
X143623727Y-47239650D01*
X143826581Y-47279999D01*
X143826586Y-47280000D01*
X144033414Y-47280000D01*
X144033418Y-47279999D01*
X144236272Y-47239650D01*
X144427359Y-47160499D01*
X144475068Y-47128621D01*
X144059409Y-46712962D01*
X144122993Y-46695925D01*
X144237007Y-46630099D01*
X144330099Y-46537007D01*
X144395925Y-46422993D01*
X144412962Y-46359409D01*
X144828621Y-46775068D01*
X144860499Y-46727359D01*
X144939650Y-46536272D01*
X144979999Y-46333418D01*
X144980000Y-46333413D01*
X144980000Y-46126585D01*
X144979999Y-46126582D01*
X144979989Y-46126532D01*
X145419500Y-46126532D01*
X145419500Y-46333467D01*
X145459869Y-46536418D01*
X145539058Y-46727597D01*
X145602351Y-46822322D01*
X145654023Y-46899655D01*
X145800345Y-47045977D01*
X145972402Y-47160941D01*
X146163580Y-47240130D01*
X146366535Y-47280500D01*
X146366536Y-47280500D01*
X146573464Y-47280500D01*
X146573465Y-47280500D01*
X146776420Y-47240130D01*
X146967598Y-47160941D01*
X147139655Y-47045977D01*
X147285977Y-46899655D01*
X147400941Y-46727598D01*
X147480130Y-46536420D01*
X147520500Y-46333465D01*
X147520500Y-46126581D01*
X147960000Y-46126581D01*
X147960000Y-46333418D01*
X148000349Y-46536272D01*
X148079501Y-46727360D01*
X148079505Y-46727369D01*
X148111377Y-46775067D01*
X148527036Y-46359407D01*
X148544075Y-46422993D01*
X148609901Y-46537007D01*
X148702993Y-46630099D01*
X148817007Y-46695925D01*
X148880590Y-46712962D01*
X148464931Y-47128621D01*
X148512639Y-47160498D01*
X148703727Y-47239650D01*
X148906581Y-47279999D01*
X148906586Y-47280000D01*
X149113414Y-47280000D01*
X149113418Y-47279999D01*
X149316272Y-47239650D01*
X149507359Y-47160499D01*
X149555068Y-47128621D01*
X149139409Y-46712962D01*
X149202993Y-46695925D01*
X149317007Y-46630099D01*
X149410099Y-46537007D01*
X149475925Y-46422993D01*
X149492962Y-46359409D01*
X149908621Y-46775068D01*
X149940499Y-46727359D01*
X150019650Y-46536272D01*
X150059999Y-46333418D01*
X150060000Y-46333413D01*
X150060000Y-46126585D01*
X150059999Y-46126582D01*
X150059989Y-46126532D01*
X150499500Y-46126532D01*
X150499500Y-46333467D01*
X150539869Y-46536418D01*
X150619058Y-46727597D01*
X150682351Y-46822322D01*
X150734023Y-46899655D01*
X150880345Y-47045977D01*
X151052402Y-47160941D01*
X151243580Y-47240130D01*
X151446535Y-47280500D01*
X151446536Y-47280500D01*
X151653464Y-47280500D01*
X151653465Y-47280500D01*
X151856420Y-47240130D01*
X152047598Y-47160941D01*
X152219655Y-47045977D01*
X152365977Y-46899655D01*
X152480941Y-46727598D01*
X152560130Y-46536420D01*
X152600500Y-46333465D01*
X152600500Y-46126535D01*
X152560130Y-45923580D01*
X152480941Y-45732402D01*
X152365977Y-45560345D01*
X152219655Y-45414023D01*
X152066457Y-45311660D01*
X152047597Y-45299058D01*
X151856418Y-45219869D01*
X151653467Y-45179500D01*
X151653465Y-45179500D01*
X151446535Y-45179500D01*
X151446532Y-45179500D01*
X151243581Y-45219869D01*
X151052402Y-45299058D01*
X150880348Y-45414020D01*
X150734020Y-45560348D01*
X150619058Y-45732402D01*
X150539869Y-45923581D01*
X150499500Y-46126532D01*
X150059989Y-46126532D01*
X150019650Y-45923727D01*
X149940498Y-45732639D01*
X149908621Y-45684931D01*
X149492962Y-46100590D01*
X149475925Y-46037007D01*
X149410099Y-45922993D01*
X149317007Y-45829901D01*
X149202993Y-45764075D01*
X149139407Y-45747036D01*
X149555067Y-45331377D01*
X149507369Y-45299505D01*
X149507360Y-45299501D01*
X149316272Y-45220349D01*
X149113418Y-45180000D01*
X148906581Y-45180000D01*
X148703727Y-45220349D01*
X148512638Y-45299501D01*
X148464931Y-45331377D01*
X148880591Y-45747037D01*
X148817007Y-45764075D01*
X148702993Y-45829901D01*
X148609901Y-45922993D01*
X148544075Y-46037007D01*
X148527037Y-46100591D01*
X148111377Y-45684931D01*
X148079501Y-45732638D01*
X148000349Y-45923727D01*
X147960000Y-46126581D01*
X147520500Y-46126581D01*
X147520500Y-46126535D01*
X147480130Y-45923580D01*
X147400941Y-45732402D01*
X147285977Y-45560345D01*
X147139655Y-45414023D01*
X146986457Y-45311660D01*
X146967597Y-45299058D01*
X146776418Y-45219869D01*
X146573467Y-45179500D01*
X146573465Y-45179500D01*
X146366535Y-45179500D01*
X146366532Y-45179500D01*
X146163581Y-45219869D01*
X145972402Y-45299058D01*
X145800348Y-45414020D01*
X145654020Y-45560348D01*
X145539058Y-45732402D01*
X145459869Y-45923581D01*
X145419500Y-46126532D01*
X144979989Y-46126532D01*
X144939650Y-45923727D01*
X144860498Y-45732639D01*
X144828621Y-45684931D01*
X144412962Y-46100590D01*
X144395925Y-46037007D01*
X144330099Y-45922993D01*
X144237007Y-45829901D01*
X144122993Y-45764075D01*
X144059407Y-45747036D01*
X144475067Y-45331377D01*
X144427369Y-45299505D01*
X144427360Y-45299501D01*
X144236272Y-45220349D01*
X144033418Y-45180000D01*
X143826581Y-45180000D01*
X143623727Y-45220349D01*
X143432638Y-45299501D01*
X143384931Y-45331377D01*
X143800591Y-45747037D01*
X143737007Y-45764075D01*
X143622993Y-45829901D01*
X143529901Y-45922993D01*
X143464075Y-46037007D01*
X143447037Y-46100591D01*
X143031377Y-45684931D01*
X142999501Y-45732638D01*
X142920349Y-45923727D01*
X142880000Y-46126581D01*
X142440500Y-46126581D01*
X142440500Y-46126535D01*
X142400130Y-45923580D01*
X142320941Y-45732402D01*
X142205977Y-45560345D01*
X142059655Y-45414023D01*
X141906457Y-45311660D01*
X141887597Y-45299058D01*
X141696418Y-45219869D01*
X141493467Y-45179500D01*
X141493465Y-45179500D01*
X141286535Y-45179500D01*
X141286532Y-45179500D01*
X141083581Y-45219869D01*
X140892402Y-45299058D01*
X140720348Y-45414020D01*
X140574020Y-45560348D01*
X140459058Y-45732402D01*
X140379869Y-45923581D01*
X140339500Y-46126532D01*
X139900499Y-46126532D01*
X139860130Y-45923580D01*
X139780941Y-45732402D01*
X139665977Y-45560345D01*
X139519655Y-45414023D01*
X139366457Y-45311660D01*
X139347597Y-45299058D01*
X139156418Y-45219869D01*
X138953467Y-45179500D01*
X138953465Y-45179500D01*
X138746535Y-45179500D01*
X138746532Y-45179500D01*
X138543581Y-45219869D01*
X138352402Y-45299058D01*
X138180348Y-45414020D01*
X138034020Y-45560348D01*
X137919058Y-45732402D01*
X137839869Y-45923581D01*
X137799500Y-46126532D01*
X137360499Y-46126532D01*
X137320130Y-45923580D01*
X137240941Y-45732402D01*
X137125977Y-45560345D01*
X136979655Y-45414023D01*
X136826457Y-45311660D01*
X136807597Y-45299058D01*
X136616418Y-45219869D01*
X136413467Y-45179500D01*
X136413465Y-45179500D01*
X136206535Y-45179500D01*
X136206532Y-45179500D01*
X136003581Y-45219869D01*
X135812402Y-45299058D01*
X135640348Y-45414020D01*
X135494020Y-45560348D01*
X135379058Y-45732402D01*
X135299869Y-45923581D01*
X135259500Y-46126532D01*
X134820499Y-46126532D01*
X134780130Y-45923580D01*
X134700941Y-45732402D01*
X134585977Y-45560345D01*
X134439655Y-45414023D01*
X134286457Y-45311660D01*
X134267597Y-45299058D01*
X134076418Y-45219869D01*
X133873467Y-45179500D01*
X133873465Y-45179500D01*
X133666535Y-45179500D01*
X133666532Y-45179500D01*
X133463581Y-45219869D01*
X133272402Y-45299058D01*
X133100348Y-45414020D01*
X132954020Y-45560348D01*
X132839058Y-45732402D01*
X132759869Y-45923581D01*
X132719500Y-46126532D01*
X132279989Y-46126532D01*
X132239650Y-45923727D01*
X132160498Y-45732639D01*
X132128621Y-45684931D01*
X131712962Y-46100590D01*
X131695925Y-46037007D01*
X131630099Y-45922993D01*
X131537007Y-45829901D01*
X131422993Y-45764075D01*
X131359407Y-45747036D01*
X131775067Y-45331377D01*
X131727369Y-45299505D01*
X131727360Y-45299501D01*
X131536272Y-45220349D01*
X131333418Y-45180000D01*
X131126581Y-45180000D01*
X130923727Y-45220349D01*
X130732638Y-45299501D01*
X130684931Y-45331377D01*
X131100591Y-45747037D01*
X131037007Y-45764075D01*
X130922993Y-45829901D01*
X130829901Y-45922993D01*
X130764075Y-46037007D01*
X130747037Y-46100591D01*
X130331377Y-45684931D01*
X130299501Y-45732638D01*
X130220349Y-45923727D01*
X130180000Y-46126581D01*
X129740500Y-46126581D01*
X129740500Y-46126535D01*
X129700130Y-45923580D01*
X129620941Y-45732402D01*
X129505977Y-45560345D01*
X129359655Y-45414023D01*
X129206457Y-45311660D01*
X129187597Y-45299058D01*
X128996418Y-45219869D01*
X128793467Y-45179500D01*
X128793465Y-45179500D01*
X128586535Y-45179500D01*
X128586532Y-45179500D01*
X128383581Y-45219869D01*
X128192402Y-45299058D01*
X128020348Y-45414020D01*
X127874020Y-45560348D01*
X127759058Y-45732402D01*
X127679869Y-45923581D01*
X127639500Y-46126532D01*
X127200499Y-46126532D01*
X127160130Y-45923580D01*
X127080941Y-45732402D01*
X126965977Y-45560345D01*
X126819655Y-45414023D01*
X126666457Y-45311660D01*
X126647597Y-45299058D01*
X126456418Y-45219869D01*
X126253467Y-45179500D01*
X126253465Y-45179500D01*
X126046535Y-45179500D01*
X126046532Y-45179500D01*
X125843581Y-45219869D01*
X125652402Y-45299058D01*
X125480348Y-45414020D01*
X125334020Y-45560348D01*
X125219058Y-45732402D01*
X125139869Y-45923581D01*
X125099500Y-46126532D01*
X124659989Y-46126532D01*
X124619650Y-45923727D01*
X124540498Y-45732639D01*
X124508621Y-45684931D01*
X124092962Y-46100590D01*
X124075925Y-46037007D01*
X124010099Y-45922993D01*
X123917007Y-45829901D01*
X123802993Y-45764075D01*
X123739407Y-45747036D01*
X124155067Y-45331377D01*
X124107369Y-45299505D01*
X124107360Y-45299501D01*
X123916272Y-45220349D01*
X123713418Y-45180000D01*
X123506581Y-45180000D01*
X123303727Y-45220349D01*
X123112638Y-45299501D01*
X123064931Y-45331377D01*
X123480591Y-45747037D01*
X123417007Y-45764075D01*
X123302993Y-45829901D01*
X123209901Y-45922993D01*
X123144075Y-46037007D01*
X123127037Y-46100591D01*
X122711377Y-45684931D01*
X122679501Y-45732638D01*
X122600349Y-45923727D01*
X122560000Y-46126581D01*
X122120500Y-46126581D01*
X122120500Y-46126535D01*
X122080130Y-45923580D01*
X122000941Y-45732402D01*
X121885977Y-45560345D01*
X121739655Y-45414023D01*
X121586457Y-45311660D01*
X121567597Y-45299058D01*
X121376418Y-45219869D01*
X121173467Y-45179500D01*
X121173465Y-45179500D01*
X120966535Y-45179500D01*
X120966532Y-45179500D01*
X120763581Y-45219869D01*
X120572402Y-45299058D01*
X120400348Y-45414020D01*
X120254020Y-45560348D01*
X120139058Y-45732402D01*
X120059869Y-45923581D01*
X120019500Y-46126532D01*
X119580499Y-46126532D01*
X119540130Y-45923580D01*
X119460941Y-45732402D01*
X119345977Y-45560345D01*
X119199655Y-45414023D01*
X119046457Y-45311660D01*
X119027597Y-45299058D01*
X118836418Y-45219869D01*
X118633467Y-45179500D01*
X118633465Y-45179500D01*
X118426535Y-45179500D01*
X118426532Y-45179500D01*
X118223581Y-45219869D01*
X118032402Y-45299058D01*
X117860348Y-45414020D01*
X117714020Y-45560348D01*
X117599058Y-45732402D01*
X117519869Y-45923581D01*
X117479500Y-46126532D01*
X117040499Y-46126532D01*
X117000130Y-45923580D01*
X116920941Y-45732402D01*
X116805977Y-45560345D01*
X116659655Y-45414023D01*
X116506457Y-45311660D01*
X116487597Y-45299058D01*
X116296418Y-45219869D01*
X116093467Y-45179500D01*
X116093465Y-45179500D01*
X115886535Y-45179500D01*
X115886532Y-45179500D01*
X115683581Y-45219869D01*
X115492402Y-45299058D01*
X115320348Y-45414020D01*
X115174020Y-45560348D01*
X115059058Y-45732402D01*
X114979869Y-45923581D01*
X114939500Y-46126532D01*
X114499989Y-46126532D01*
X114459650Y-45923727D01*
X114380498Y-45732639D01*
X114348621Y-45684931D01*
X113932962Y-46100590D01*
X113915925Y-46037007D01*
X113850099Y-45922993D01*
X113757007Y-45829901D01*
X113642993Y-45764075D01*
X113579407Y-45747036D01*
X113995067Y-45331377D01*
X113947369Y-45299505D01*
X113947360Y-45299501D01*
X113756272Y-45220349D01*
X113553418Y-45180000D01*
X113346581Y-45180000D01*
X113143727Y-45220349D01*
X112952638Y-45299501D01*
X112904931Y-45331377D01*
X113320591Y-45747037D01*
X113257007Y-45764075D01*
X113142993Y-45829901D01*
X113049901Y-45922993D01*
X112984075Y-46037007D01*
X112967037Y-46100591D01*
X112551377Y-45684931D01*
X112519501Y-45732638D01*
X112440349Y-45923727D01*
X112400000Y-46126581D01*
X111960500Y-46126581D01*
X111960500Y-46126535D01*
X111920130Y-45923580D01*
X111840941Y-45732402D01*
X111725977Y-45560345D01*
X111579655Y-45414023D01*
X111426457Y-45311660D01*
X111407597Y-45299058D01*
X111216418Y-45219869D01*
X111013467Y-45179500D01*
X111013465Y-45179500D01*
X110806535Y-45179500D01*
X110806532Y-45179500D01*
X110603581Y-45219869D01*
X110412402Y-45299058D01*
X110240348Y-45414020D01*
X110094020Y-45560348D01*
X109979058Y-45732402D01*
X109899869Y-45923581D01*
X109859500Y-46126532D01*
X109859500Y-46333467D01*
X109899869Y-46536418D01*
X109979058Y-46727597D01*
X110042351Y-46822322D01*
X110094023Y-46899655D01*
X110240345Y-47045977D01*
X110412402Y-47160941D01*
X110603580Y-47240130D01*
X110806535Y-47280500D01*
X110806536Y-47280500D01*
X111013464Y-47280500D01*
X111013465Y-47280500D01*
X111216420Y-47240130D01*
X111327402Y-47194158D01*
X111388399Y-47189358D01*
X111435292Y-47215619D01*
X111731504Y-47511831D01*
X111759281Y-47566348D01*
X111760500Y-47581835D01*
X111760500Y-47895860D01*
X111741593Y-47954051D01*
X111692093Y-47990015D01*
X111630907Y-47990015D01*
X111591499Y-47965866D01*
X111579655Y-47954023D01*
X111407597Y-47839058D01*
X111216418Y-47759869D01*
X111013467Y-47719500D01*
X111013465Y-47719500D01*
X110806535Y-47719500D01*
X110806532Y-47719500D01*
X110603581Y-47759869D01*
X110412402Y-47839058D01*
X110240348Y-47954020D01*
X110094020Y-48100348D01*
X109979058Y-48272402D01*
X109899869Y-48463581D01*
X109859500Y-48666532D01*
X109859500Y-48873467D01*
X109899869Y-49076418D01*
X109979058Y-49267597D01*
X110094020Y-49439651D01*
X110094023Y-49439655D01*
X110240345Y-49585977D01*
X110412402Y-49700941D01*
X110603580Y-49780130D01*
X110806535Y-49820500D01*
X110806536Y-49820500D01*
X111013464Y-49820500D01*
X111013465Y-49820500D01*
X111216420Y-49780130D01*
X111407598Y-49700941D01*
X111579655Y-49585977D01*
X111697092Y-49468539D01*
X111751607Y-49440763D01*
X111812039Y-49450334D01*
X111837094Y-49468537D01*
X113053022Y-50684465D01*
X113053024Y-50684466D01*
X113053026Y-50684468D01*
X113127241Y-50727316D01*
X113127239Y-50727316D01*
X113127243Y-50727317D01*
X113127245Y-50727318D01*
X113210031Y-50749500D01*
X113295737Y-50749500D01*
X119084998Y-50749500D01*
X119143189Y-50768407D01*
X119179153Y-50817907D01*
X119179153Y-50879093D01*
X119175228Y-50888310D01*
X119175396Y-50888380D01*
X119124500Y-51011252D01*
X119124499Y-51011257D01*
X119099500Y-51136930D01*
X119099500Y-51265069D01*
X119124499Y-51390742D01*
X119124500Y-51390747D01*
X119173534Y-51509125D01*
X119173538Y-51509133D01*
X119216365Y-51573226D01*
X119244724Y-51615669D01*
X119244727Y-51615672D01*
X119244731Y-51615677D01*
X119335331Y-51706276D01*
X119380501Y-51736457D01*
X119418381Y-51784506D01*
X119424500Y-51818773D01*
X119424500Y-68574164D01*
X119405593Y-68632355D01*
X119395504Y-68644168D01*
X117956667Y-70083004D01*
X117902150Y-70110781D01*
X117867349Y-70110098D01*
X117814071Y-70099500D01*
X117814069Y-70099500D01*
X117685931Y-70099500D01*
X117685930Y-70099500D01*
X117632653Y-70110098D01*
X117560256Y-70124499D01*
X117560255Y-70124499D01*
X117560252Y-70124500D01*
X117441874Y-70173534D01*
X117441866Y-70173538D01*
X117335331Y-70244724D01*
X117335327Y-70244727D01*
X117244727Y-70335327D01*
X117244724Y-70335331D01*
X117173538Y-70441866D01*
X117173534Y-70441874D01*
X117124500Y-70560252D01*
X117124499Y-70560255D01*
X117124499Y-70560256D01*
X117099500Y-70685931D01*
X117099500Y-70814069D01*
X117124499Y-70939744D01*
X117134354Y-70963535D01*
X117173534Y-71058125D01*
X117173538Y-71058133D01*
X117216365Y-71122226D01*
X117244724Y-71164669D01*
X117335331Y-71255276D01*
X117398848Y-71297717D01*
X117441866Y-71326461D01*
X117441870Y-71326463D01*
X117441873Y-71326465D01*
X117560256Y-71375501D01*
X117685931Y-71400500D01*
X117685932Y-71400500D01*
X117814068Y-71400500D01*
X117814069Y-71400500D01*
X117939744Y-71375501D01*
X118058127Y-71326465D01*
X118164669Y-71255276D01*
X118255276Y-71164669D01*
X118326465Y-71058127D01*
X118375501Y-70939744D01*
X118400500Y-70814069D01*
X118400500Y-70685931D01*
X118389901Y-70632649D01*
X118397091Y-70571889D01*
X118416991Y-70543334D01*
X120010465Y-68949862D01*
X120010468Y-68949857D01*
X120053316Y-68875643D01*
X120053316Y-68875641D01*
X120053318Y-68875639D01*
X120075500Y-68792853D01*
X120075500Y-68707147D01*
X120075500Y-51818773D01*
X120094407Y-51760582D01*
X120119499Y-51736457D01*
X120164669Y-51706276D01*
X120255276Y-51615669D01*
X120326465Y-51509127D01*
X120375501Y-51390744D01*
X120400500Y-51265069D01*
X120400500Y-51136931D01*
X120375501Y-51011256D01*
X120326465Y-50892873D01*
X120324604Y-50888380D01*
X120326351Y-50887656D01*
X120316935Y-50834943D01*
X120343633Y-50779889D01*
X120397591Y-50751043D01*
X120415002Y-50749500D01*
X121734998Y-50749500D01*
X121793189Y-50768407D01*
X121829153Y-50817907D01*
X121829153Y-50879093D01*
X121825228Y-50888310D01*
X121825396Y-50888380D01*
X121774500Y-51011252D01*
X121774499Y-51011257D01*
X121749500Y-51136930D01*
X121749500Y-51265069D01*
X121774499Y-51390742D01*
X121774500Y-51390747D01*
X121823534Y-51509125D01*
X121823538Y-51509133D01*
X121866365Y-51573226D01*
X121894724Y-51615669D01*
X121894727Y-51615672D01*
X121894731Y-51615677D01*
X121985331Y-51706276D01*
X122030501Y-51736457D01*
X122068381Y-51784506D01*
X122074500Y-51818773D01*
X122074500Y-68107147D01*
X122074500Y-68192853D01*
X122094062Y-68265863D01*
X122096683Y-68275643D01*
X122139531Y-68349857D01*
X122139533Y-68349859D01*
X122139535Y-68349862D01*
X127895505Y-74105832D01*
X127923281Y-74160347D01*
X127924500Y-74175834D01*
X127924500Y-74382226D01*
X127905593Y-74440417D01*
X127880503Y-74464541D01*
X127835327Y-74494727D01*
X127744727Y-74585327D01*
X127744724Y-74585331D01*
X127673538Y-74691866D01*
X127673534Y-74691874D01*
X127624500Y-74810252D01*
X127624499Y-74810255D01*
X127624499Y-74810256D01*
X127599500Y-74935931D01*
X127599500Y-75064069D01*
X127620818Y-75171241D01*
X127624499Y-75189742D01*
X127624500Y-75189747D01*
X127675396Y-75312620D01*
X127673322Y-75313478D01*
X127682526Y-75365088D01*
X127655811Y-75420133D01*
X127601844Y-75448962D01*
X127584463Y-75450500D01*
X109799265Y-75450500D01*
X109741074Y-75431593D01*
X109729261Y-75421504D01*
X109118009Y-74810252D01*
X108271292Y-73963535D01*
X108271289Y-73963533D01*
X108271288Y-73963532D01*
X108271287Y-73963531D01*
X108197072Y-73920683D01*
X108197074Y-73920683D01*
X108164951Y-73912076D01*
X108114283Y-73898500D01*
X107471423Y-73898500D01*
X107385717Y-73898500D01*
X107335048Y-73912076D01*
X107302926Y-73920683D01*
X107228712Y-73963531D01*
X106713531Y-74478712D01*
X106670682Y-74552930D01*
X106670681Y-74552930D01*
X106670682Y-74552931D01*
X106670682Y-74552932D01*
X106648500Y-74635717D01*
X100050500Y-74635717D01*
X100050500Y-47502435D01*
X100050619Y-47497578D01*
X100055722Y-47393709D01*
X102149500Y-47393709D01*
X102149500Y-47606290D01*
X102182752Y-47816238D01*
X102248443Y-48018412D01*
X102344948Y-48207815D01*
X102344950Y-48207819D01*
X102469891Y-48379786D01*
X102469893Y-48379788D01*
X102469896Y-48379792D01*
X102620208Y-48530104D01*
X102620211Y-48530106D01*
X102620213Y-48530108D01*
X102792180Y-48655049D01*
X102792184Y-48655051D01*
X102981588Y-48751557D01*
X103183757Y-48817246D01*
X103183758Y-48817246D01*
X103183761Y-48817247D01*
X103393710Y-48850500D01*
X103393713Y-48850500D01*
X103606290Y-48850500D01*
X103816238Y-48817247D01*
X103816239Y-48817246D01*
X103816243Y-48817246D01*
X104018412Y-48751557D01*
X104207816Y-48655051D01*
X104379792Y-48530104D01*
X104530104Y-48379792D01*
X104655051Y-48207816D01*
X104751557Y-48018412D01*
X104789949Y-47900253D01*
X107319500Y-47900253D01*
X107319500Y-49639746D01*
X107319501Y-49639758D01*
X107331132Y-49698227D01*
X107331134Y-49698233D01*
X107375445Y-49764548D01*
X107375448Y-49764552D01*
X107441769Y-49808867D01*
X107486231Y-49817711D01*
X107500241Y-49820498D01*
X107500246Y-49820498D01*
X107500252Y-49820500D01*
X107500253Y-49820500D01*
X109239747Y-49820500D01*
X109239748Y-49820500D01*
X109298231Y-49808867D01*
X109364552Y-49764552D01*
X109408867Y-49698231D01*
X109420500Y-49639748D01*
X109420500Y-47900252D01*
X109419626Y-47895860D01*
X109413447Y-47864795D01*
X109408867Y-47841769D01*
X109364552Y-47775448D01*
X109364548Y-47775445D01*
X109298233Y-47731134D01*
X109298231Y-47731133D01*
X109298228Y-47731132D01*
X109298227Y-47731132D01*
X109239758Y-47719501D01*
X109239748Y-47719500D01*
X107500252Y-47719500D01*
X107500251Y-47719500D01*
X107500241Y-47719501D01*
X107441772Y-47731132D01*
X107441766Y-47731134D01*
X107375451Y-47775445D01*
X107375445Y-47775451D01*
X107331134Y-47841766D01*
X107331132Y-47841772D01*
X107319501Y-47900241D01*
X107319500Y-47900253D01*
X104789949Y-47900253D01*
X104817246Y-47816243D01*
X104823707Y-47775451D01*
X104850500Y-47606290D01*
X104850500Y-47393709D01*
X104817247Y-47183761D01*
X104812400Y-47168844D01*
X104751557Y-46981588D01*
X104655051Y-46792184D01*
X104655049Y-46792180D01*
X104530108Y-46620213D01*
X104530106Y-46620211D01*
X104530104Y-46620208D01*
X104379792Y-46469896D01*
X104379788Y-46469893D01*
X104379786Y-46469891D01*
X104207819Y-46344950D01*
X104207815Y-46344948D01*
X104018412Y-46248443D01*
X103880675Y-46203689D01*
X103816238Y-46182752D01*
X103606290Y-46149500D01*
X103606287Y-46149500D01*
X103393713Y-46149500D01*
X103393710Y-46149500D01*
X103183761Y-46182752D01*
X102981587Y-46248443D01*
X102792184Y-46344948D01*
X102792180Y-46344950D01*
X102620213Y-46469891D01*
X102469891Y-46620213D01*
X102344950Y-46792180D01*
X102344948Y-46792184D01*
X102248443Y-46981587D01*
X102182752Y-47183761D01*
X102149500Y-47393709D01*
X100055722Y-47393709D01*
X100056151Y-47384966D01*
X100057223Y-47363147D01*
X100066872Y-47166725D01*
X100067822Y-47157087D01*
X100116068Y-46831835D01*
X100117957Y-46822337D01*
X100197856Y-46503363D01*
X100200665Y-46494104D01*
X100311443Y-46184502D01*
X100315152Y-46175547D01*
X100338334Y-46126532D01*
X107319500Y-46126532D01*
X107319500Y-46333467D01*
X107359869Y-46536418D01*
X107439058Y-46727597D01*
X107502351Y-46822322D01*
X107554023Y-46899655D01*
X107700345Y-47045977D01*
X107872402Y-47160941D01*
X108063580Y-47240130D01*
X108266535Y-47280500D01*
X108266536Y-47280500D01*
X108473464Y-47280500D01*
X108473465Y-47280500D01*
X108676420Y-47240130D01*
X108867598Y-47160941D01*
X109039655Y-47045977D01*
X109185977Y-46899655D01*
X109300941Y-46727598D01*
X109380130Y-46536420D01*
X109420500Y-46333465D01*
X109420500Y-46126535D01*
X109380130Y-45923580D01*
X109300941Y-45732402D01*
X109185977Y-45560345D01*
X109039655Y-45414023D01*
X108886457Y-45311660D01*
X108867597Y-45299058D01*
X108676418Y-45219869D01*
X108473467Y-45179500D01*
X108473465Y-45179500D01*
X108266535Y-45179500D01*
X108266532Y-45179500D01*
X108063581Y-45219869D01*
X107872402Y-45299058D01*
X107700348Y-45414020D01*
X107554020Y-45560348D01*
X107439058Y-45732402D01*
X107359869Y-45923581D01*
X107319500Y-46126532D01*
X100338334Y-46126532D01*
X100455745Y-45878289D01*
X100460302Y-45869763D01*
X100629348Y-45587726D01*
X100634734Y-45579665D01*
X100830606Y-45315560D01*
X100836770Y-45308052D01*
X100844922Y-45299058D01*
X101057583Y-45064422D01*
X101064422Y-45057583D01*
X101308053Y-44836768D01*
X101315562Y-44830606D01*
X101579665Y-44634734D01*
X101587726Y-44629348D01*
X101869763Y-44460302D01*
X101878289Y-44455745D01*
X102175547Y-44315152D01*
X102184502Y-44311443D01*
X102494104Y-44200665D01*
X102503363Y-44197856D01*
X102822337Y-44117957D01*
X102831835Y-44116068D01*
X103157087Y-44067822D01*
X103166725Y-44066872D01*
X103474555Y-44051750D01*
X103497579Y-44050619D01*
X103502436Y-44050500D01*
X103516408Y-44050500D01*
X161483592Y-44050500D01*
X161497564Y-44050500D01*
X161502421Y-44050619D01*
G37*
G04 #@! TD.AperFunction*
M02*
