G04 #@! TF.GenerationSoftware,KiCad,Pcbnew,9.0.6*
G04 #@! TF.CreationDate,2026-01-29T07:39:31-08:00*
G04 #@! TF.ProjectId,mutebox_hat_audio_in,6d757465-626f-4785-9f68-61745f617564,rev?*
G04 #@! TF.SameCoordinates,Original*
G04 #@! TF.FileFunction,Soldermask,Top*
G04 #@! TF.FilePolarity,Negative*
%FSLAX46Y46*%
G04 Gerber Fmt 4.6, Leading zero omitted, Abs format (unit mm)*
G04 Created by KiCad (PCBNEW 9.0.6) date 2026-01-29 07:39:31*
%MOMM*%
%LPD*%
G01*
G04 APERTURE LIST*
G04 Aperture macros list*
%AMRoundRect*
0 Rectangle with rounded corners*
0 $1 Rounding radius*
0 $2 $3 $4 $5 $6 $7 $8 $9 X,Y pos of 4 corners*
0 Add a 4 corners polygon primitive as box body*
4,1,4,$2,$3,$4,$5,$6,$7,$8,$9,$2,$3,0*
0 Add four circle primitives for the rounded corners*
1,1,$1+$1,$2,$3*
1,1,$1+$1,$4,$5*
1,1,$1+$1,$6,$7*
1,1,$1+$1,$8,$9*
0 Add four rect primitives between the rounded corners*
20,1,$1+$1,$2,$3,$4,$5,0*
20,1,$1+$1,$4,$5,$6,$7,0*
20,1,$1+$1,$6,$7,$8,$9,0*
20,1,$1+$1,$8,$9,$2,$3,0*%
G04 Aperture macros list end*
%ADD10R,1.100000X2.000000*%
%ADD11RoundRect,0.250000X0.350000X0.450000X-0.350000X0.450000X-0.350000X-0.450000X0.350000X-0.450000X0*%
%ADD12RoundRect,0.250000X0.275000X0.350000X-0.275000X0.350000X-0.275000X-0.350000X0.275000X-0.350000X0*%
%ADD13C,2.700000*%
%ADD14RoundRect,0.150000X-0.875000X-0.150000X0.875000X-0.150000X0.875000X0.150000X-0.875000X0.150000X0*%
%ADD15RoundRect,0.250000X-0.350000X-0.450000X0.350000X-0.450000X0.350000X0.450000X-0.350000X0.450000X0*%
%ADD16RoundRect,0.250000X-0.450000X0.350000X-0.450000X-0.350000X0.450000X-0.350000X0.450000X0.350000X0*%
%ADD17O,5.004000X2.604000*%
%ADD18O,1.904000X3.604000*%
%ADD19RoundRect,0.250000X0.450000X-0.350000X0.450000X0.350000X-0.450000X0.350000X-0.450000X-0.350000X0*%
%ADD20RoundRect,0.250000X-0.475000X0.337500X-0.475000X-0.337500X0.475000X-0.337500X0.475000X0.337500X0*%
%ADD21R,1.000000X0.900000*%
%ADD22RoundRect,0.150000X-0.825000X-0.150000X0.825000X-0.150000X0.825000X0.150000X-0.825000X0.150000X0*%
%ADD23R,1.700000X1.700000*%
%ADD24C,1.700000*%
%ADD25RoundRect,0.250000X0.350000X-0.450000X0.350000X0.450000X-0.350000X0.450000X-0.350000X-0.450000X0*%
%ADD26RoundRect,0.250000X-0.337500X-0.475000X0.337500X-0.475000X0.337500X0.475000X-0.337500X0.475000X0*%
%ADD27R,1.300000X1.300000*%
%ADD28C,1.300000*%
%ADD29C,1.650000*%
%ADD30RoundRect,0.100000X-0.637500X-0.100000X0.637500X-0.100000X0.637500X0.100000X-0.637500X0.100000X0*%
G04 APERTURE END LIST*
D10*
X133400000Y-53200000D03*
X135100000Y-53200000D03*
X136800000Y-53200000D03*
X136800000Y-58000000D03*
X135100000Y-58000000D03*
X133400000Y-58000000D03*
D11*
X157800000Y-60600000D03*
X155800000Y-60600000D03*
D12*
X146625000Y-64624624D03*
X144325000Y-64624624D03*
D13*
X161500000Y-47500000D03*
D14*
X109600000Y-64420000D03*
X109600000Y-65690000D03*
X109600000Y-66960000D03*
X109600000Y-68230000D03*
X109600000Y-69500000D03*
X109600000Y-70770000D03*
X109600000Y-72040000D03*
X109600000Y-73310000D03*
X109600000Y-74580000D03*
X109600000Y-75850000D03*
X109600000Y-77120000D03*
X109600000Y-78390000D03*
X109600000Y-79660000D03*
X109600000Y-80930000D03*
X118900000Y-80930000D03*
X118900000Y-79660000D03*
X118900000Y-78390000D03*
X118900000Y-77120000D03*
X118900000Y-75850000D03*
X118900000Y-74580000D03*
X118900000Y-73310000D03*
X118900000Y-72040000D03*
X118900000Y-70770000D03*
X118900000Y-69500000D03*
X118900000Y-68230000D03*
X118900000Y-66960000D03*
X118900000Y-65690000D03*
X118900000Y-64420000D03*
D15*
X144800000Y-67600000D03*
X146800000Y-67600000D03*
D16*
X152400000Y-64600000D03*
X152400000Y-66600000D03*
X133100000Y-64500000D03*
X133100000Y-66500000D03*
D17*
X150800000Y-94800000D03*
D18*
X150800000Y-90300000D03*
D15*
X156400000Y-74200000D03*
X158400000Y-74200000D03*
D17*
X138662000Y-94800000D03*
D18*
X138662000Y-90300000D03*
D15*
X104350000Y-74500000D03*
X106350000Y-74500000D03*
X142400000Y-58300000D03*
X144400000Y-58300000D03*
D19*
X127100000Y-76000000D03*
X127100000Y-74000000D03*
D20*
X141100000Y-64425000D03*
X141100000Y-66500000D03*
D16*
X106400000Y-58000000D03*
X106400000Y-60000000D03*
D15*
X137262000Y-85250000D03*
X139262000Y-85250000D03*
X156400000Y-78200000D03*
X158400000Y-78200000D03*
D16*
X139100000Y-72000000D03*
X139100000Y-74000000D03*
D15*
X142862000Y-85450000D03*
X144862000Y-85450000D03*
D16*
X127200000Y-78000000D03*
X127200000Y-80000000D03*
D21*
X162600000Y-64500000D03*
X160450000Y-64500000D03*
X160450000Y-66050000D03*
X162600000Y-66050000D03*
D22*
X148200000Y-56300000D03*
X148200000Y-57570000D03*
X148200000Y-58840000D03*
X148200000Y-60110000D03*
X153150000Y-60110000D03*
X153150000Y-58840000D03*
X153150000Y-57570000D03*
X153150000Y-56300000D03*
D23*
X161800000Y-58260000D03*
D24*
X161800000Y-60800000D03*
D11*
X106350000Y-72600000D03*
X104350000Y-72600000D03*
D13*
X103500000Y-96500000D03*
D11*
X106600000Y-65600000D03*
X104600000Y-65600000D03*
D19*
X111000000Y-54000000D03*
X111000000Y-52000000D03*
D15*
X105200000Y-82200000D03*
X107200000Y-82200000D03*
X156400000Y-76200000D03*
X158400000Y-76200000D03*
D13*
X103500000Y-47500000D03*
D16*
X149400000Y-64600000D03*
X149400000Y-66600000D03*
D10*
X120200000Y-58200000D03*
X121900000Y-58200000D03*
X123600000Y-58200000D03*
X123600000Y-53400000D03*
X121900000Y-53400000D03*
X120200000Y-53400000D03*
D15*
X150600000Y-85200000D03*
X152600000Y-85200000D03*
D25*
X106200000Y-70200000D03*
X106200000Y-68000000D03*
X104500000Y-68000000D03*
X104500000Y-70200000D03*
D11*
X151200000Y-54000000D03*
X149200000Y-54000000D03*
D15*
X105200000Y-79800000D03*
X107200000Y-79800000D03*
D11*
X106350000Y-76450000D03*
X104350000Y-76450000D03*
D15*
X156400000Y-72200000D03*
X158400000Y-72200000D03*
D11*
X157800000Y-58600000D03*
X155800000Y-58600000D03*
D26*
X155592500Y-64820000D03*
X157667500Y-64820000D03*
D13*
X161500000Y-96500000D03*
D19*
X113400000Y-54000000D03*
X113400000Y-52000000D03*
D20*
X129100000Y-64500000D03*
X129100000Y-66575000D03*
X124100000Y-64425000D03*
X124100000Y-66500000D03*
D27*
X114060000Y-87040000D03*
D28*
X116600000Y-87040000D03*
X119140000Y-87040000D03*
D29*
X114060000Y-89660000D03*
X119140000Y-89660000D03*
D11*
X109860000Y-84860000D03*
X107860000Y-84860000D03*
D22*
X131100000Y-71380000D03*
X131100000Y-72650000D03*
X131100000Y-73920000D03*
X131100000Y-75190000D03*
X131100000Y-76460000D03*
X131100000Y-77730000D03*
X131100000Y-79000000D03*
X131100000Y-80270000D03*
X136050000Y-80270000D03*
X136050000Y-79000000D03*
X136050000Y-77730000D03*
X136050000Y-76460000D03*
X136050000Y-75190000D03*
X136050000Y-73920000D03*
X136050000Y-72650000D03*
X136050000Y-71380000D03*
D30*
X145400000Y-70100000D03*
X145400000Y-70750000D03*
X145400000Y-71400000D03*
X145400000Y-72050000D03*
X145400000Y-72700000D03*
X145400000Y-73350000D03*
X145400000Y-74000000D03*
X145400000Y-74650000D03*
X145400000Y-75300000D03*
X145400000Y-75950000D03*
X145400000Y-76600000D03*
X145400000Y-77250000D03*
X145400000Y-77900000D03*
X145400000Y-78550000D03*
X145400000Y-79200000D03*
X152825000Y-79200000D03*
X152825000Y-78550000D03*
X152825000Y-77900000D03*
X152825000Y-77250000D03*
X152825000Y-76600000D03*
X152825000Y-75950000D03*
X152825000Y-75300000D03*
X152825000Y-74650000D03*
X152825000Y-74000000D03*
X152825000Y-73350000D03*
X152825000Y-72700000D03*
X152825000Y-72050000D03*
X152825000Y-71400000D03*
X152825000Y-70750000D03*
X152825000Y-70100000D03*
D16*
X162400000Y-68663785D03*
X162400000Y-70663785D03*
D15*
X122600000Y-78000000D03*
X124600000Y-78000000D03*
D16*
X137600000Y-64500000D03*
X137600000Y-66500000D03*
X142600000Y-71800000D03*
X142600000Y-73800000D03*
D23*
X108370000Y-48770000D03*
D24*
X108370000Y-46230000D03*
X110910000Y-48770000D03*
X110910000Y-46230000D03*
X113450000Y-48770000D03*
X113450000Y-46230000D03*
X115990000Y-48770000D03*
X115990000Y-46230000D03*
X118530000Y-48770000D03*
X118530000Y-46230000D03*
X121070000Y-48770000D03*
X121070000Y-46230000D03*
X123610000Y-48770000D03*
X123610000Y-46230000D03*
X126150000Y-48770000D03*
X126150000Y-46230000D03*
X128690000Y-48770000D03*
X128690000Y-46230000D03*
X131230000Y-48770000D03*
X131230000Y-46230000D03*
X133770000Y-48770000D03*
X133770000Y-46230000D03*
X136310000Y-48770000D03*
X136310000Y-46230000D03*
X138850000Y-48770000D03*
X138850000Y-46230000D03*
X141390000Y-48770000D03*
X141390000Y-46230000D03*
X143930000Y-48770000D03*
X143930000Y-46230000D03*
X146470000Y-48770000D03*
X146470000Y-46230000D03*
X149010000Y-48770000D03*
X149010000Y-46230000D03*
X151550000Y-48770000D03*
X151550000Y-46230000D03*
X154090000Y-48770000D03*
X154090000Y-46230000D03*
X156630000Y-48770000D03*
X156630000Y-46230000D03*
M02*
