G04 #@! TF.GenerationSoftware,KiCad,Pcbnew,9.0.6*
G04 #@! TF.CreationDate,2026-01-29T07:39:31-08:00*
G04 #@! TF.ProjectId,mutebox_hat_audio_in,6d757465-626f-4785-9f68-61745f617564,rev?*
G04 #@! TF.SameCoordinates,Original*
G04 #@! TF.FileFunction,Legend,Bot*
G04 #@! TF.FilePolarity,Positive*
%FSLAX46Y46*%
G04 Gerber Fmt 4.6, Leading zero omitted, Abs format (unit mm)*
G04 Created by KiCad (PCBNEW 9.0.6) date 2026-01-29 07:39:31*
%MOMM*%
%LPD*%
G01*
G04 APERTURE LIST*
%ADD10C,0.150000*%
%ADD11C,0.120000*%
G04 APERTURE END LIST*
D10*
X124359580Y-55395833D02*
X124407200Y-55348214D01*
X124407200Y-55348214D02*
X124454819Y-55205357D01*
X124454819Y-55205357D02*
X124454819Y-55110119D01*
X124454819Y-55110119D02*
X124407200Y-54967262D01*
X124407200Y-54967262D02*
X124311961Y-54872024D01*
X124311961Y-54872024D02*
X124216723Y-54824405D01*
X124216723Y-54824405D02*
X124026247Y-54776786D01*
X124026247Y-54776786D02*
X123883390Y-54776786D01*
X123883390Y-54776786D02*
X123692914Y-54824405D01*
X123692914Y-54824405D02*
X123597676Y-54872024D01*
X123597676Y-54872024D02*
X123502438Y-54967262D01*
X123502438Y-54967262D02*
X123454819Y-55110119D01*
X123454819Y-55110119D02*
X123454819Y-55205357D01*
X123454819Y-55205357D02*
X123502438Y-55348214D01*
X123502438Y-55348214D02*
X123550057Y-55395833D01*
X123454819Y-56300595D02*
X123454819Y-55824405D01*
X123454819Y-55824405D02*
X123931009Y-55776786D01*
X123931009Y-55776786D02*
X123883390Y-55824405D01*
X123883390Y-55824405D02*
X123835771Y-55919643D01*
X123835771Y-55919643D02*
X123835771Y-56157738D01*
X123835771Y-56157738D02*
X123883390Y-56252976D01*
X123883390Y-56252976D02*
X123931009Y-56300595D01*
X123931009Y-56300595D02*
X124026247Y-56348214D01*
X124026247Y-56348214D02*
X124264342Y-56348214D01*
X124264342Y-56348214D02*
X124359580Y-56300595D01*
X124359580Y-56300595D02*
X124407200Y-56252976D01*
X124407200Y-56252976D02*
X124454819Y-56157738D01*
X124454819Y-56157738D02*
X124454819Y-55919643D01*
X124454819Y-55919643D02*
X124407200Y-55824405D01*
X124407200Y-55824405D02*
X124359580Y-55776786D01*
X139566666Y-52159580D02*
X139614285Y-52207200D01*
X139614285Y-52207200D02*
X139757142Y-52254819D01*
X139757142Y-52254819D02*
X139852380Y-52254819D01*
X139852380Y-52254819D02*
X139995237Y-52207200D01*
X139995237Y-52207200D02*
X140090475Y-52111961D01*
X140090475Y-52111961D02*
X140138094Y-52016723D01*
X140138094Y-52016723D02*
X140185713Y-51826247D01*
X140185713Y-51826247D02*
X140185713Y-51683390D01*
X140185713Y-51683390D02*
X140138094Y-51492914D01*
X140138094Y-51492914D02*
X140090475Y-51397676D01*
X140090475Y-51397676D02*
X139995237Y-51302438D01*
X139995237Y-51302438D02*
X139852380Y-51254819D01*
X139852380Y-51254819D02*
X139757142Y-51254819D01*
X139757142Y-51254819D02*
X139614285Y-51302438D01*
X139614285Y-51302438D02*
X139566666Y-51350057D01*
X138709523Y-51254819D02*
X138899999Y-51254819D01*
X138899999Y-51254819D02*
X138995237Y-51302438D01*
X138995237Y-51302438D02*
X139042856Y-51350057D01*
X139042856Y-51350057D02*
X139138094Y-51492914D01*
X139138094Y-51492914D02*
X139185713Y-51683390D01*
X139185713Y-51683390D02*
X139185713Y-52064342D01*
X139185713Y-52064342D02*
X139138094Y-52159580D01*
X139138094Y-52159580D02*
X139090475Y-52207200D01*
X139090475Y-52207200D02*
X138995237Y-52254819D01*
X138995237Y-52254819D02*
X138804761Y-52254819D01*
X138804761Y-52254819D02*
X138709523Y-52207200D01*
X138709523Y-52207200D02*
X138661904Y-52159580D01*
X138661904Y-52159580D02*
X138614285Y-52064342D01*
X138614285Y-52064342D02*
X138614285Y-51826247D01*
X138614285Y-51826247D02*
X138661904Y-51731009D01*
X138661904Y-51731009D02*
X138709523Y-51683390D01*
X138709523Y-51683390D02*
X138804761Y-51635771D01*
X138804761Y-51635771D02*
X138995237Y-51635771D01*
X138995237Y-51635771D02*
X139090475Y-51683390D01*
X139090475Y-51683390D02*
X139138094Y-51731009D01*
X139138094Y-51731009D02*
X139185713Y-51826247D01*
D11*
X126553750Y-55301248D02*
X126553750Y-55823752D01*
X125083750Y-55301248D02*
X125083750Y-55823752D01*
X138665000Y-53901248D02*
X138665000Y-54423752D01*
X140135000Y-53901248D02*
X140135000Y-54423752D01*
X107040000Y-44900000D02*
X107040000Y-47500000D01*
X107040000Y-44900000D02*
X157960000Y-44900000D01*
X107040000Y-47500000D02*
X109640000Y-47500000D01*
X107040000Y-48770000D02*
X107040000Y-50100000D01*
X107040000Y-50100000D02*
X108370000Y-50100000D01*
X109640000Y-47500000D02*
X109640000Y-50100000D01*
X109640000Y-50100000D02*
X157960000Y-50100000D01*
X157960000Y-44900000D02*
X157960000Y-50100000D01*
M02*
