M48
; DRILL file {KiCad 9.0.6} date 2026-02-12T12:27:55-0800
; FORMAT={-:-/ absolute / metric / decimal}
; #@! TF.CreationDate,2026-02-12T12:27:55-08:00
; #@! TF.GenerationSoftware,Kicad,Pcbnew,9.0.6
; #@! TF.FileFunction,Plated,1,2,PTH
FMAT,2
METRIC
; #@! TA.AperFunction,Plated,PTH,ViaDrill
T1C0.600
; #@! TA.AperFunction,Plated,PTH,ComponentDrill
T2C0.800
; #@! TA.AperFunction,Plated,PTH,ComponentDrill
T3C1.000
; #@! TA.AperFunction,Plated,PTH,ComponentDrill
T4C1.100
; #@! TA.AperFunction,Plated,PTH,ComponentDrill
T5C1.300
%
G90
G05
T1
X107.5Y-76.097
X107.5Y-77.25
X107.75Y-75.0
X112.75Y-72.675
X117.75Y-70.75
X117.938Y-69.35
X118.0Y-75.0
X118.25Y-76.975
X119.75Y-51.201
X122.4Y-51.201
X125.77Y-58.17
X128.052Y-70.898
X128.137Y-51.25
X128.25Y-75.0
X128.5Y-77.75
X128.75Y-73.4
X129.0Y-71.4
X129.25Y-79.25
X129.575Y-63.425
X132.8Y-72.6
X132.8Y-76.4
X134.4Y-79.0
X134.47Y-80.27
X139.0Y-53.25
X139.4Y-57.8
X140.0Y-76.5
X142.6Y-75.6
X142.662Y-87.05
X143.0Y-69.4
X143.0Y-82.25
X143.589Y-78.545
X146.6Y-78.6
X148.0Y-72.0
X148.25Y-74.9
X148.662Y-86.25
X149.5Y-78.5
X149.925Y-68.075
X151.6Y-51.0
X152.5Y-80.0
X154.5Y-67.599
X159.0Y-66.0
T2
X114.06Y-87.04
X116.6Y-87.04
X119.14Y-87.04
T3
X108.37Y-46.23
X108.37Y-48.77
X110.91Y-46.23
X110.91Y-48.77
X113.45Y-46.23
X113.45Y-48.77
X115.99Y-46.23
X115.99Y-48.77
X118.53Y-46.23
X118.53Y-48.77
X121.07Y-46.23
X121.07Y-48.77
X123.61Y-46.23
X123.61Y-48.77
X126.15Y-46.23
X126.15Y-48.77
X128.69Y-46.23
X128.69Y-48.77
X131.23Y-46.23
X131.23Y-48.77
X133.77Y-46.23
X133.77Y-48.77
X136.31Y-46.23
X136.31Y-48.77
X138.85Y-46.23
X138.85Y-48.77
X141.39Y-46.23
X141.39Y-48.77
X143.93Y-46.23
X143.93Y-48.77
X146.47Y-46.23
X146.47Y-48.77
X149.01Y-46.23
X149.01Y-48.77
X151.55Y-46.23
X151.55Y-48.77
X154.09Y-46.23
X154.09Y-48.77
X156.63Y-46.23
X156.63Y-48.77
T4
X114.06Y-89.66
X119.14Y-89.66
T3
G00X138.662Y-89.3
M15
G01X138.662Y-90.6
M16
G05
G00X150.8Y-89.3
M15
G01X150.8Y-90.6
M16
G05
T5
G00X139.712Y-94.45
M15
G01X137.612Y-94.45
M16
G05
G00X151.85Y-94.45
M15
G01X149.75Y-94.45
M16
G05
M30
