G04 #@! TF.GenerationSoftware,KiCad,Pcbnew,9.0.6*
G04 #@! TF.CreationDate,2026-03-16T09:52:43-07:00*
G04 #@! TF.ProjectId,mutebox_hat_audio_in,6d757465-626f-4785-9f68-61745f617564,rev?*
G04 #@! TF.SameCoordinates,Original*
G04 #@! TF.FileFunction,Paste,Top*
G04 #@! TF.FilePolarity,Positive*
%FSLAX46Y46*%
G04 Gerber Fmt 4.6, Leading zero omitted, Abs format (unit mm)*
G04 Created by KiCad (PCBNEW 9.0.6) date 2026-03-16 09:52:43*
%MOMM*%
%LPD*%
G01*
G04 APERTURE LIST*
G04 Aperture macros list*
%AMRoundRect*
0 Rectangle with rounded corners*
0 $1 Rounding radius*
0 $2 $3 $4 $5 $6 $7 $8 $9 X,Y pos of 4 corners*
0 Add a 4 corners polygon primitive as box body*
4,1,4,$2,$3,$4,$5,$6,$7,$8,$9,$2,$3,0*
0 Add four circle primitives for the rounded corners*
1,1,$1+$1,$2,$3*
1,1,$1+$1,$4,$5*
1,1,$1+$1,$6,$7*
1,1,$1+$1,$8,$9*
0 Add four rect primitives between the rounded corners*
20,1,$1+$1,$2,$3,$4,$5,0*
20,1,$1+$1,$4,$5,$6,$7,0*
20,1,$1+$1,$6,$7,$8,$9,0*
20,1,$1+$1,$8,$9,$2,$3,0*%
G04 Aperture macros list end*
%ADD10R,3.430000X4.700000*%
%ADD11RoundRect,0.135000X-0.135000X-0.185000X0.135000X-0.185000X0.135000X0.185000X-0.135000X0.185000X0*%
%ADD12RoundRect,0.250000X-0.250000X-0.475000X0.250000X-0.475000X0.250000X0.475000X-0.250000X0.475000X0*%
%ADD13RoundRect,0.250000X0.275000X0.350000X-0.275000X0.350000X-0.275000X-0.350000X0.275000X-0.350000X0*%
%ADD14RoundRect,0.250000X0.475000X-0.250000X0.475000X0.250000X-0.475000X0.250000X-0.475000X-0.250000X0*%
%ADD15RoundRect,0.140000X0.140000X0.170000X-0.140000X0.170000X-0.140000X-0.170000X0.140000X-0.170000X0*%
%ADD16RoundRect,0.147500X-0.147500X-0.172500X0.147500X-0.172500X0.147500X0.172500X-0.147500X0.172500X0*%
%ADD17RoundRect,0.250000X0.262500X0.450000X-0.262500X0.450000X-0.262500X-0.450000X0.262500X-0.450000X0*%
%ADD18R,2.000000X1.100000*%
%ADD19RoundRect,0.140000X-0.140000X-0.170000X0.140000X-0.170000X0.140000X0.170000X-0.140000X0.170000X0*%
%ADD20RoundRect,0.250000X-0.450000X0.262500X-0.450000X-0.262500X0.450000X-0.262500X0.450000X0.262500X0*%
%ADD21R,0.900000X1.000000*%
%ADD22RoundRect,0.147500X0.147500X0.172500X-0.147500X0.172500X-0.147500X-0.172500X0.147500X-0.172500X0*%
%ADD23RoundRect,0.135000X-0.185000X0.135000X-0.185000X-0.135000X0.185000X-0.135000X0.185000X0.135000X0*%
%ADD24RoundRect,0.250000X0.450000X-0.262500X0.450000X0.262500X-0.450000X0.262500X-0.450000X-0.262500X0*%
%ADD25RoundRect,0.135000X0.135000X0.185000X-0.135000X0.185000X-0.135000X-0.185000X0.135000X-0.185000X0*%
%ADD26RoundRect,0.150000X-0.825000X-0.150000X0.825000X-0.150000X0.825000X0.150000X-0.825000X0.150000X0*%
%ADD27O,1.749999X0.299999*%
%ADD28RoundRect,0.135000X0.185000X-0.135000X0.185000X0.135000X-0.185000X0.135000X-0.185000X-0.135000X0*%
%ADD29R,1.778000X0.355600*%
G04 APERTURE END LIST*
D10*
X154000000Y-66500000D03*
D11*
X149145000Y-56510000D03*
X150165000Y-56510000D03*
D12*
X122762500Y-74740000D03*
X124662500Y-74740000D03*
D11*
X154040001Y-71200000D03*
X155060001Y-71200000D03*
D13*
X146625000Y-64624624D03*
X144325000Y-64624624D03*
D14*
X116500000Y-55512500D03*
X116500000Y-53612500D03*
D15*
X143880000Y-75210000D03*
X142920000Y-75210000D03*
D12*
X144550000Y-66900000D03*
X146450000Y-66900000D03*
D11*
X114990000Y-64700000D03*
X116010000Y-64700000D03*
D15*
X150300000Y-66400000D03*
X149340000Y-66400000D03*
D16*
X115030000Y-65800000D03*
X116000000Y-65800000D03*
D17*
X125912500Y-52200000D03*
X124087500Y-52200000D03*
D18*
X121100000Y-55500000D03*
X121100000Y-57200000D03*
X121100000Y-58900000D03*
X125900000Y-58900000D03*
X125900000Y-57200000D03*
X125900000Y-55500000D03*
D19*
X141140000Y-68500000D03*
X142100000Y-68500000D03*
D12*
X129219905Y-58400000D03*
X131119905Y-58400000D03*
D15*
X141960000Y-73000000D03*
X141000000Y-73000000D03*
D11*
X138890000Y-85250000D03*
X139910000Y-85250000D03*
D20*
X138700000Y-71687500D03*
X138700000Y-73512500D03*
D12*
X144812500Y-84600000D03*
X146712500Y-84600000D03*
D21*
X146700000Y-80975000D03*
X146700000Y-78825000D03*
X145150000Y-78825000D03*
X145150000Y-80975000D03*
D22*
X121485000Y-52000000D03*
X120515000Y-52000000D03*
D19*
X141720000Y-77300000D03*
X142680000Y-77300000D03*
D23*
X136400000Y-81380000D03*
X136400000Y-82400000D03*
D11*
X154040001Y-73200000D03*
X155060001Y-73200000D03*
D24*
X110400000Y-55712500D03*
X110400000Y-53887500D03*
D15*
X143900000Y-74010000D03*
X142940000Y-74010000D03*
D23*
X119938500Y-73840000D03*
X119938500Y-74860000D03*
D11*
X154040001Y-72200000D03*
X155060001Y-72200000D03*
D25*
X129410000Y-79900000D03*
X128390000Y-79900000D03*
D11*
X154040001Y-70200000D03*
X155060001Y-70200000D03*
D15*
X150300000Y-65400000D03*
X149340000Y-65400000D03*
D18*
X133826000Y-55400000D03*
X133826000Y-57100000D03*
X133826000Y-58800000D03*
X138626000Y-58800000D03*
X138626000Y-57100000D03*
X138626000Y-55400000D03*
D11*
X151090000Y-85200000D03*
X152110000Y-85200000D03*
D16*
X120715000Y-67800000D03*
X121685000Y-67800000D03*
D20*
X119772863Y-77617500D03*
X119772863Y-79442500D03*
D15*
X141480000Y-76300000D03*
X140520000Y-76300000D03*
D11*
X120690000Y-66700000D03*
X121710000Y-66700000D03*
X154050001Y-74200000D03*
X155070001Y-74200000D03*
D19*
X142520000Y-76200000D03*
X143480000Y-76200000D03*
D11*
X126090000Y-73700000D03*
X127110000Y-73700000D03*
D12*
X144750000Y-61000000D03*
X146650000Y-61000000D03*
X122512500Y-79250000D03*
X124412500Y-79250000D03*
D24*
X112800000Y-55712500D03*
X112800000Y-53887500D03*
D15*
X140760000Y-77300000D03*
X139800000Y-77300000D03*
D19*
X142840000Y-73000000D03*
X143800000Y-73000000D03*
D26*
X131100000Y-71380000D03*
X131100000Y-72650000D03*
X131100000Y-73920000D03*
X131100000Y-75190000D03*
X131100000Y-76460000D03*
X131100000Y-77730000D03*
X131100000Y-79000000D03*
X131100000Y-80270000D03*
X136050000Y-80270000D03*
X136050000Y-79000000D03*
X136050000Y-77730000D03*
X136050000Y-76460000D03*
X136050000Y-75190000D03*
X136050000Y-73920000D03*
X136050000Y-72650000D03*
X136050000Y-71380000D03*
D27*
X145475002Y-70249999D03*
X145475002Y-70749998D03*
X145475002Y-71250000D03*
X145475002Y-71749999D03*
X145475002Y-72250000D03*
X145475002Y-72749999D03*
X145475002Y-73249998D03*
X145475002Y-73750000D03*
X145475002Y-74249999D03*
X145475002Y-74750001D03*
X145475002Y-75250000D03*
X145475002Y-75749999D03*
X145475002Y-76250000D03*
X145475002Y-76749999D03*
X145475002Y-77250001D03*
X151025001Y-77250001D03*
X151025001Y-76749999D03*
X151025001Y-76250000D03*
X151025001Y-75749999D03*
X151025001Y-75250000D03*
X151025001Y-74750001D03*
X151025001Y-74249999D03*
X151025001Y-73750000D03*
X151025001Y-73249998D03*
X151025001Y-72749999D03*
X151025001Y-72250000D03*
X151025001Y-71749999D03*
X151025001Y-71250000D03*
X151025001Y-70749998D03*
X151025001Y-70249999D03*
D28*
X143800000Y-78410000D03*
X143800000Y-77390000D03*
D15*
X143380000Y-70400000D03*
X142420000Y-70400000D03*
D29*
X109806400Y-69300000D03*
X109806400Y-69950001D03*
X109806400Y-70600000D03*
X109806400Y-71250001D03*
X109806400Y-71899999D03*
X109806400Y-72550001D03*
X109806400Y-73199999D03*
X109806400Y-73849998D03*
X109806400Y-74499999D03*
X109806400Y-75149998D03*
X109806400Y-75799999D03*
X109806400Y-76449998D03*
X109806400Y-77099999D03*
X109806400Y-77749998D03*
X115750000Y-77750000D03*
X115750000Y-77099999D03*
X115750000Y-76450000D03*
X115750000Y-75799999D03*
X115750000Y-75150001D03*
X115750000Y-74499999D03*
X115750000Y-73850001D03*
X115750000Y-73199999D03*
X115750000Y-72550001D03*
X115750000Y-71899999D03*
X115750000Y-71250001D03*
X115750000Y-70600000D03*
X115750000Y-69950001D03*
X115750000Y-69300000D03*
D11*
X149145000Y-58500000D03*
X150165000Y-58500000D03*
M02*
