M48
; DRILL file {KiCad 9.0.6} date 2026-03-16T09:52:46-0700
; FORMAT={-:-/ absolute / metric / decimal}
; #@! TF.CreationDate,2026-03-16T09:52:46-07:00
; #@! TF.GenerationSoftware,Kicad,Pcbnew,9.0.6
; #@! TF.FileFunction,Plated,1,2,PTH
FMAT,2
METRIC
; #@! TA.AperFunction,Plated,PTH,ViaDrill
T1C0.300
; #@! TA.AperFunction,Plated,PTH,ViaDrill
T2C0.600
; #@! TA.AperFunction,Plated,PTH,ComponentDrill
T3C0.800
; #@! TA.AperFunction,Plated,PTH,ComponentDrill
T4C1.000
; #@! TA.AperFunction,Plated,PTH,ComponentDrill
T5C1.100
; #@! TA.AperFunction,Plated,PTH,ComponentDrill
T6C1.300
%
G90
G05
T1
X110.6Y-66.6
X112.75Y-72.675
X117.5Y-75.001
X117.938Y-69.35
X132.6Y-66.7
X137.742Y-74.858
X139.4Y-67.7
X142.191Y-73.804
X142.268Y-75.196
X145.9Y-68.9
X147.2Y-73.2
X147.23Y-71.808
X147.251Y-71.1
X147.4Y-75.8
X147.5Y-58.2
X147.5Y-76.9
X148.0Y-70.3
X148.1Y-78.622
X148.2Y-74.8
X148.22Y-66.52
X149.1Y-76.9
X149.2Y-70.3
X149.2Y-71.7
X149.2Y-74.1
X149.2Y-75.3
X149.3Y-73.0
X150.025Y-78.7
X150.8Y-68.6
X151.6Y-66.6
X152.8Y-78.7
X154.599Y-75.199
X156.6Y-66.0
T2
X107.5Y-76.097
X107.5Y-77.25
X107.6Y-73.3
X107.75Y-75.0
X109.7Y-52.2
X114.5Y-51.9
X118.7Y-72.0
X118.7Y-74.2
X119.1Y-66.8
X119.75Y-51.201
X119.75Y-64.5
X120.9Y-53.2
X121.4Y-63.4
X122.4Y-51.199
X125.9Y-79.8
X127.975Y-73.725
X128.137Y-51.25
X128.5Y-77.75
X129.0Y-71.4
X129.001Y-72.798
X129.439Y-78.505
X130.2Y-56.6
X132.8Y-72.6
X132.8Y-76.4
X132.9Y-80.1
X134.4Y-79.0
X137.346Y-81.713
X138.907Y-77.161
X139.328Y-75.096
X139.6Y-76.3
X140.5Y-53.5
X140.9Y-82.5
X141.748Y-71.148
X142.429Y-78.719
X143.0Y-69.4
X143.5Y-71.7
X144.562Y-86.2
X148.5Y-68.5
X148.662Y-86.25
X150.8Y-80.3
X151.6Y-51.0
X153.1Y-77.7
X153.27Y-76.33
X154.451Y-79.3
X154.5Y-76.5
T3
X114.06Y-87.04
X116.6Y-87.04
X119.14Y-87.04
T4
X108.37Y-46.23
X108.37Y-48.77
X110.91Y-46.23
X110.91Y-48.77
X113.45Y-46.23
X113.45Y-48.77
X115.99Y-46.23
X115.99Y-48.77
X118.53Y-46.23
X118.53Y-48.77
X121.07Y-46.23
X121.07Y-48.77
X123.61Y-46.23
X123.61Y-48.77
X126.15Y-46.23
X126.15Y-48.77
X128.69Y-46.23
X128.69Y-48.77
X131.23Y-46.23
X131.23Y-48.77
X133.77Y-46.23
X133.77Y-48.77
X136.31Y-46.23
X136.31Y-48.77
X138.85Y-46.23
X138.85Y-48.77
X141.39Y-46.23
X141.39Y-48.77
X143.93Y-46.23
X143.93Y-48.77
X146.47Y-46.23
X146.47Y-48.77
X149.01Y-46.23
X149.01Y-48.77
X151.55Y-46.23
X151.55Y-48.77
X153.9Y-53.86
X153.9Y-56.4
X153.9Y-58.94
X153.9Y-61.48
X154.09Y-46.23
X154.09Y-48.77
X156.63Y-46.23
X156.63Y-48.77
T5
X114.06Y-89.66
X119.14Y-89.66
T4
G00X138.562Y-88.15
M15
G01X138.562Y-89.45
M16
G05
G00X150.7Y-88.15
M15
G01X150.7Y-89.45
M16
G05
T6
G00X139.612Y-93.3
M15
G01X137.512Y-93.3
M16
G05
G00X151.75Y-93.3
M15
G01X149.65Y-93.3
M16
G05
M30
