G04 #@! TF.GenerationSoftware,KiCad,Pcbnew,9.0.6*
G04 #@! TF.CreationDate,2026-01-29T05:22:02-08:00*
G04 #@! TF.ProjectId,mutebox_hat_audio_in,6d757465-626f-4785-9f68-61745f617564,rev?*
G04 #@! TF.SameCoordinates,Original*
G04 #@! TF.FileFunction,Copper,L2,Bot*
G04 #@! TF.FilePolarity,Positive*
%FSLAX46Y46*%
G04 Gerber Fmt 4.6, Leading zero omitted, Abs format (unit mm)*
G04 Created by KiCad (PCBNEW 9.0.6) date 2026-01-29 05:22:02*
%MOMM*%
%LPD*%
G01*
G04 APERTURE LIST*
G04 #@! TA.AperFunction,ComponentPad*
%ADD10O,4.800000X2.400000*%
G04 #@! TD*
G04 #@! TA.AperFunction,ComponentPad*
%ADD11O,1.700000X3.400000*%
G04 #@! TD*
G04 #@! TA.AperFunction,ComponentPad*
%ADD12R,1.700000X1.700000*%
G04 #@! TD*
G04 #@! TA.AperFunction,ComponentPad*
%ADD13C,1.700000*%
G04 #@! TD*
G04 #@! TA.AperFunction,ComponentPad*
%ADD14R,1.300000X1.300000*%
G04 #@! TD*
G04 #@! TA.AperFunction,ComponentPad*
%ADD15C,1.300000*%
G04 #@! TD*
G04 #@! TA.AperFunction,ComponentPad*
%ADD16C,1.650000*%
G04 #@! TD*
G04 #@! TA.AperFunction,ViaPad*
%ADD17C,0.900000*%
G04 #@! TD*
G04 #@! TA.AperFunction,Conductor*
%ADD18C,0.250000*%
G04 #@! TD*
G04 APERTURE END LIST*
D10*
X150800000Y-94800000D03*
D11*
X150800000Y-90300000D03*
D10*
X138662000Y-94800000D03*
D11*
X138662000Y-90300000D03*
D12*
X161800000Y-58260000D03*
D13*
X161800000Y-60800000D03*
D14*
X114060000Y-87040000D03*
D15*
X116600000Y-87040000D03*
X119140000Y-87040000D03*
D16*
X114060000Y-89660000D03*
X119140000Y-89660000D03*
D12*
X108370000Y-48770000D03*
D13*
X108370000Y-46230000D03*
X110910000Y-48770000D03*
X110910000Y-46230000D03*
X113450000Y-48770000D03*
X113450000Y-46230000D03*
X115990000Y-48770000D03*
X115990000Y-46230000D03*
X118530000Y-48770000D03*
X118530000Y-46230000D03*
X121070000Y-48770000D03*
X121070000Y-46230000D03*
X123610000Y-48770000D03*
X123610000Y-46230000D03*
X126150000Y-48770000D03*
X126150000Y-46230000D03*
X128690000Y-48770000D03*
X128690000Y-46230000D03*
X131230000Y-48770000D03*
X131230000Y-46230000D03*
X133770000Y-48770000D03*
X133770000Y-46230000D03*
X136310000Y-48770000D03*
X136310000Y-46230000D03*
X138850000Y-48770000D03*
X138850000Y-46230000D03*
X141390000Y-48770000D03*
X141390000Y-46230000D03*
X143930000Y-48770000D03*
X143930000Y-46230000D03*
X146470000Y-48770000D03*
X146470000Y-46230000D03*
X149010000Y-48770000D03*
X149010000Y-46230000D03*
X151550000Y-48770000D03*
X151550000Y-46230000D03*
X154090000Y-48770000D03*
X154090000Y-46230000D03*
X156630000Y-48770000D03*
X156630000Y-46230000D03*
D17*
X159400000Y-75000000D03*
X129600000Y-80000000D03*
X124100000Y-68000000D03*
X132200000Y-88400000D03*
X129100000Y-68000000D03*
X144000000Y-77200000D03*
X159000000Y-64400000D03*
X113100000Y-69500000D03*
X137600000Y-68000000D03*
X113000000Y-84200000D03*
X103000000Y-69800000D03*
X148300000Y-67600000D03*
X157462000Y-96600000D03*
X117000000Y-74600000D03*
X145062000Y-96600000D03*
X146100000Y-58100000D03*
X121000000Y-73441000D03*
X137600000Y-74500000D03*
X132200000Y-98400000D03*
X143000000Y-69400000D03*
X146600000Y-78600000D03*
X142662000Y-87050000D03*
X147000000Y-72000000D03*
X151600000Y-51000000D03*
X129600000Y-78899997D03*
X107600000Y-77800000D03*
X127600000Y-50600000D03*
X129000000Y-71400000D03*
X122400000Y-51200000D03*
X129400000Y-75200000D03*
X106400000Y-64000000D03*
X106400000Y-61400000D03*
X143589338Y-78545357D03*
X162400000Y-72000000D03*
X134470000Y-80270000D03*
X154400707Y-78599293D03*
X132800000Y-72600000D03*
X132800000Y-76400000D03*
X142400000Y-79626000D03*
X142600000Y-75600000D03*
X148662000Y-86250000D03*
D18*
X159000000Y-64400000D02*
X163176000Y-68576000D01*
X160497430Y-75000000D02*
X159400000Y-75000000D01*
X163176000Y-68576000D02*
X163176000Y-72321430D01*
X121000000Y-73441000D02*
X121159000Y-73600000D01*
X163176000Y-72321430D02*
X160497430Y-75000000D01*
X146600000Y-78600000D02*
X145878643Y-79321357D01*
X141349000Y-77402449D02*
X141349000Y-71051000D01*
X145878643Y-79321357D02*
X143267908Y-79321357D01*
X143000000Y-69400000D02*
X141349000Y-71051000D01*
X143267908Y-79321357D02*
X141349000Y-77402449D01*
X155176000Y-78278570D02*
X148897430Y-72000000D01*
X148261000Y-81451000D02*
X152786810Y-81451000D01*
X155176000Y-79061810D02*
X155176000Y-78278570D01*
X148897430Y-72000000D02*
X147000000Y-72000000D01*
X142662000Y-87050000D02*
X148261000Y-81451000D01*
X152786810Y-81451000D02*
X155176000Y-79061810D01*
X142662000Y-87050000D02*
X142662000Y-86850000D01*
X131122000Y-77377997D02*
X129600000Y-78899997D01*
X131122000Y-71478000D02*
X131122000Y-77377997D01*
X151600000Y-51000000D02*
X131122000Y-71478000D01*
X130176000Y-72576000D02*
X130176000Y-75521430D01*
X127514000Y-50686000D02*
X127600000Y-50600000D01*
X127897430Y-77800000D02*
X107600000Y-77800000D01*
X129000000Y-71400000D02*
X127600000Y-70000000D01*
X129000000Y-71400000D02*
X130176000Y-72576000D01*
X130176000Y-75521430D02*
X127897430Y-77800000D01*
X127600000Y-70000000D02*
X127600000Y-50600000D01*
X128533208Y-75200000D02*
X122400000Y-69066792D01*
X122400000Y-69066792D02*
X122400000Y-51200000D01*
X129400000Y-75200000D02*
X128533208Y-75200000D01*
X106400000Y-64000000D02*
X106400000Y-61400000D01*
X141800000Y-76756019D02*
X141800000Y-73002570D01*
X157224000Y-66824000D02*
X162400000Y-72000000D01*
X143589338Y-78545357D02*
X141800000Y-76756019D01*
X141800000Y-73002570D02*
X147978570Y-66824000D01*
X147978570Y-66824000D02*
X157224000Y-66824000D01*
X131573000Y-77373000D02*
X134470000Y-80270000D01*
X134172570Y-80270000D02*
X134470000Y-80270000D01*
X131573000Y-72027000D02*
X131573000Y-77373000D01*
X154090000Y-46230000D02*
X152726000Y-47594000D01*
X131573000Y-72027000D02*
X134824000Y-68776000D01*
X152726000Y-47594000D02*
X152726000Y-58857810D01*
X142526570Y-68776000D02*
X152502570Y-58800000D01*
X134824000Y-68776000D02*
X142526570Y-68776000D01*
X154400707Y-78642677D02*
X154400000Y-78643384D01*
X139600000Y-81000000D02*
X132800000Y-74200000D01*
X132800000Y-74200000D02*
X132800000Y-72600000D01*
X154400000Y-78643384D02*
X154400000Y-79200000D01*
X152600000Y-81000000D02*
X139600000Y-81000000D01*
X154400707Y-78599293D02*
X154400707Y-78642677D01*
X154400000Y-79200000D02*
X152600000Y-81000000D01*
X132024000Y-75624000D02*
X132800000Y-76400000D01*
X142400000Y-79626000D02*
X141626000Y-79626000D01*
X132478570Y-71824000D02*
X132024000Y-72278570D01*
X133824000Y-71824000D02*
X132478570Y-71824000D01*
X132024000Y-72278570D02*
X132024000Y-75624000D01*
X141626000Y-79626000D02*
X133824000Y-71824000D01*
X148750000Y-86250000D02*
X148662000Y-86250000D01*
X155627000Y-79373000D02*
X148750000Y-86250000D01*
X146678570Y-71224000D02*
X142600000Y-75302570D01*
X155627000Y-79373000D02*
X155627000Y-78091760D01*
X142600000Y-75302570D02*
X142600000Y-75600000D01*
X155627000Y-78091760D02*
X148759240Y-71224000D01*
X148759240Y-71224000D02*
X146678570Y-71224000D01*
G04 #@! TA.AperFunction,Conductor*
G36*
X146315317Y-72150093D02*
G01*
X146371250Y-72191965D01*
X146386544Y-72218823D01*
X146423531Y-72308120D01*
X146423538Y-72308133D01*
X146494723Y-72414668D01*
X146494726Y-72414672D01*
X146585327Y-72505273D01*
X146585331Y-72505276D01*
X146691866Y-72576461D01*
X146691872Y-72576464D01*
X146691873Y-72576465D01*
X146810256Y-72625501D01*
X146810260Y-72625501D01*
X146810261Y-72625502D01*
X146935928Y-72650500D01*
X146935931Y-72650500D01*
X147064071Y-72650500D01*
X147148615Y-72633682D01*
X147189744Y-72625501D01*
X147308127Y-72576465D01*
X147414669Y-72505276D01*
X147505276Y-72414669D01*
X147528034Y-72380608D01*
X147581645Y-72335805D01*
X147631136Y-72325500D01*
X148711241Y-72325500D01*
X148778280Y-72345185D01*
X148798922Y-72361819D01*
X154221112Y-77784009D01*
X154254597Y-77845332D01*
X154249613Y-77915024D01*
X154207741Y-77970957D01*
X154180884Y-77986251D01*
X154092583Y-78022826D01*
X154092573Y-78022831D01*
X153986038Y-78094016D01*
X153986034Y-78094019D01*
X153895433Y-78184620D01*
X153895430Y-78184624D01*
X153824245Y-78291159D01*
X153824240Y-78291168D01*
X153775206Y-78409548D01*
X153775204Y-78409554D01*
X153750207Y-78535221D01*
X153750207Y-78535224D01*
X153750207Y-78663362D01*
X153750207Y-78663364D01*
X153750206Y-78663364D01*
X153775204Y-78789031D01*
X153775206Y-78789037D01*
X153824240Y-78907417D01*
X153824245Y-78907426D01*
X153895429Y-79013960D01*
X153895430Y-79013961D01*
X153895431Y-79013962D01*
X153922889Y-79041420D01*
X153956374Y-79102741D01*
X153951390Y-79172433D01*
X153922889Y-79216782D01*
X152501492Y-80638181D01*
X152440169Y-80671666D01*
X152413811Y-80674500D01*
X139786189Y-80674500D01*
X139719150Y-80654815D01*
X139698508Y-80638181D01*
X133161819Y-74101492D01*
X133128334Y-74040169D01*
X133125500Y-74013811D01*
X133125500Y-73231135D01*
X133145185Y-73164096D01*
X133180609Y-73128033D01*
X133214669Y-73105276D01*
X133305276Y-73014669D01*
X133376465Y-72908127D01*
X133425501Y-72789744D01*
X133441199Y-72710827D01*
X133450500Y-72664071D01*
X133450500Y-72535928D01*
X133425502Y-72410261D01*
X133425501Y-72410260D01*
X133425501Y-72410256D01*
X133388509Y-72320951D01*
X133385001Y-72288323D01*
X133380333Y-72255853D01*
X133381286Y-72253765D01*
X133381041Y-72251484D01*
X133395726Y-72222145D01*
X133409358Y-72192297D01*
X133411288Y-72191056D01*
X133412316Y-72189004D01*
X133440531Y-72172263D01*
X133468136Y-72154523D01*
X133471165Y-72154087D01*
X133472405Y-72153352D01*
X133503071Y-72149500D01*
X133637811Y-72149500D01*
X133704850Y-72169185D01*
X133725492Y-72185819D01*
X141426138Y-79886465D01*
X141500361Y-79929318D01*
X141583147Y-79951500D01*
X141668853Y-79951500D01*
X141768864Y-79951500D01*
X141835903Y-79971185D01*
X141871965Y-80006608D01*
X141886228Y-80027954D01*
X141894725Y-80040671D01*
X141985327Y-80131273D01*
X141985331Y-80131276D01*
X142091866Y-80202461D01*
X142091875Y-80202466D01*
X142100243Y-80205932D01*
X142210256Y-80251501D01*
X142210260Y-80251501D01*
X142210261Y-80251502D01*
X142335928Y-80276500D01*
X142335931Y-80276500D01*
X142464071Y-80276500D01*
X142548615Y-80259682D01*
X142589744Y-80251501D01*
X142708127Y-80202465D01*
X142814669Y-80131276D01*
X142905276Y-80040669D01*
X142976465Y-79934127D01*
X143025501Y-79815744D01*
X143041664Y-79734487D01*
X143074048Y-79672577D01*
X143134764Y-79638003D01*
X143172988Y-79635060D01*
X143184356Y-79635952D01*
X143225055Y-79646858D01*
X143310761Y-79646858D01*
X143310765Y-79646857D01*
X145835790Y-79646857D01*
X145921496Y-79646857D01*
X146004282Y-79624675D01*
X146078505Y-79581822D01*
X146383884Y-79276441D01*
X146445204Y-79242959D01*
X146495754Y-79242508D01*
X146497097Y-79242775D01*
X146535930Y-79250500D01*
X146535931Y-79250500D01*
X146664071Y-79250500D01*
X146769253Y-79229577D01*
X146789744Y-79225501D01*
X146908127Y-79176465D01*
X147014669Y-79105276D01*
X147105276Y-79014669D01*
X147176465Y-78908127D01*
X147225501Y-78789744D01*
X147234113Y-78746452D01*
X147250500Y-78664071D01*
X147250500Y-78535928D01*
X147225502Y-78410261D01*
X147225501Y-78410260D01*
X147225501Y-78410256D01*
X147182017Y-78305276D01*
X147176466Y-78291875D01*
X147176461Y-78291866D01*
X147105276Y-78185331D01*
X147105273Y-78185327D01*
X147014672Y-78094726D01*
X147014668Y-78094723D01*
X146908133Y-78023538D01*
X146908124Y-78023533D01*
X146789744Y-77974499D01*
X146789738Y-77974497D01*
X146664071Y-77949500D01*
X146664069Y-77949500D01*
X146535931Y-77949500D01*
X146535929Y-77949500D01*
X146410261Y-77974497D01*
X146410255Y-77974499D01*
X146291875Y-78023533D01*
X146291866Y-78023538D01*
X146185331Y-78094723D01*
X146185327Y-78094726D01*
X146094726Y-78185327D01*
X146094723Y-78185331D01*
X146023538Y-78291866D01*
X146023533Y-78291875D01*
X145974499Y-78410255D01*
X145974497Y-78410261D01*
X145949500Y-78535928D01*
X145949500Y-78535931D01*
X145949500Y-78664069D01*
X145949500Y-78664071D01*
X145949499Y-78664071D01*
X145957491Y-78704244D01*
X145956783Y-78712151D01*
X145959558Y-78719590D01*
X145953714Y-78746452D01*
X145951264Y-78773836D01*
X145946014Y-78781846D01*
X145944706Y-78787862D01*
X145923558Y-78816113D01*
X145780133Y-78959539D01*
X145718813Y-78993023D01*
X145692454Y-78995857D01*
X144292409Y-78995857D01*
X144225370Y-78976172D01*
X144179615Y-78923368D01*
X144169671Y-78854210D01*
X144177848Y-78824404D01*
X144189716Y-78795752D01*
X144214839Y-78735101D01*
X144239838Y-78609426D01*
X144239838Y-78481288D01*
X144239838Y-78481285D01*
X144214840Y-78355618D01*
X144214839Y-78355617D01*
X144214839Y-78355613D01*
X144165803Y-78237230D01*
X144165802Y-78237229D01*
X144165799Y-78237223D01*
X144094614Y-78130688D01*
X144094611Y-78130684D01*
X144004010Y-78040083D01*
X144004006Y-78040080D01*
X143897471Y-77968895D01*
X143897462Y-77968890D01*
X143779082Y-77919856D01*
X143779076Y-77919854D01*
X143653409Y-77894857D01*
X143653407Y-77894857D01*
X143525269Y-77894857D01*
X143525264Y-77894857D01*
X143485092Y-77902848D01*
X143415501Y-77896621D01*
X143373220Y-77868912D01*
X142161819Y-76657511D01*
X142128334Y-76596188D01*
X142125500Y-76569830D01*
X142125500Y-76293130D01*
X142145185Y-76226091D01*
X142197989Y-76180336D01*
X142267147Y-76170392D01*
X142296951Y-76178568D01*
X142410256Y-76225501D01*
X142410260Y-76225501D01*
X142410261Y-76225502D01*
X142535928Y-76250500D01*
X142535931Y-76250500D01*
X142664071Y-76250500D01*
X142763361Y-76230749D01*
X142789744Y-76225501D01*
X142908127Y-76176465D01*
X143014669Y-76105276D01*
X143105276Y-76014669D01*
X143176465Y-75908127D01*
X143225501Y-75789744D01*
X143250500Y-75664069D01*
X143250500Y-75535931D01*
X143250500Y-75535928D01*
X143225502Y-75410261D01*
X143225501Y-75410260D01*
X143225501Y-75410256D01*
X143177287Y-75293859D01*
X143169819Y-75224392D01*
X143201094Y-75161912D01*
X143204139Y-75158756D01*
X146184304Y-72178592D01*
X146245625Y-72145109D01*
X146315317Y-72150093D01*
G37*
G04 #@! TD.AperFunction*
G04 #@! TA.AperFunction,Conductor*
G36*
X142312076Y-69121185D02*
G01*
X142357831Y-69173989D01*
X142367775Y-69243147D01*
X142366654Y-69249692D01*
X142349500Y-69335928D01*
X142349500Y-69335931D01*
X142349500Y-69464069D01*
X142349500Y-69464071D01*
X142349499Y-69464071D01*
X142357491Y-69504244D01*
X142351264Y-69573836D01*
X142323555Y-69616117D01*
X141088537Y-70851135D01*
X141088533Y-70851141D01*
X141045681Y-70925362D01*
X141045680Y-70925362D01*
X141035454Y-70963533D01*
X141035454Y-70963534D01*
X141029614Y-70985331D01*
X141023500Y-71008147D01*
X141023500Y-77359596D01*
X141023500Y-77445302D01*
X141034591Y-77486695D01*
X141045682Y-77528089D01*
X141067108Y-77565199D01*
X141088535Y-77602311D01*
X141088536Y-77602312D01*
X141088537Y-77602313D01*
X142276814Y-78790590D01*
X142310299Y-78851913D01*
X142305315Y-78921605D01*
X142263443Y-78977538D01*
X142216068Y-78998665D01*
X142216088Y-78998730D01*
X142215573Y-78998885D01*
X142213327Y-78999888D01*
X142210259Y-79000498D01*
X142210255Y-79000499D01*
X142091875Y-79049533D01*
X142091866Y-79049538D01*
X141985331Y-79120723D01*
X141985327Y-79120726D01*
X141894724Y-79211329D01*
X141889318Y-79219421D01*
X141835704Y-79264225D01*
X141766379Y-79272931D01*
X141703352Y-79242775D01*
X141698536Y-79238209D01*
X134023864Y-71563537D01*
X134023862Y-71563535D01*
X133986750Y-71542108D01*
X133949640Y-71520682D01*
X133888279Y-71504241D01*
X133866853Y-71498500D01*
X133866852Y-71498500D01*
X132861189Y-71498500D01*
X132794150Y-71478815D01*
X132748395Y-71426011D01*
X132738451Y-71356853D01*
X132767476Y-71293297D01*
X132773508Y-71286819D01*
X134922508Y-69137819D01*
X134983831Y-69104334D01*
X135010189Y-69101500D01*
X142245037Y-69101500D01*
X142312076Y-69121185D01*
G37*
G04 #@! TD.AperFunction*
G04 #@! TA.AperFunction,Conductor*
G36*
X152359363Y-51289360D02*
G01*
X152396082Y-51348804D01*
X152400500Y-51381609D01*
X152400500Y-58411483D01*
X152380815Y-58478522D01*
X152338500Y-58518870D01*
X152302711Y-58539532D01*
X152302706Y-58539536D01*
X142428062Y-68414181D01*
X142366739Y-68447666D01*
X142340381Y-68450500D01*
X134909189Y-68450500D01*
X134842150Y-68430815D01*
X134796395Y-68378011D01*
X134786451Y-68308853D01*
X134815476Y-68245297D01*
X134821508Y-68238819D01*
X138870589Y-64189738D01*
X151383883Y-51676442D01*
X151445204Y-51642959D01*
X151495754Y-51642508D01*
X151498022Y-51642959D01*
X151535930Y-51650500D01*
X151535931Y-51650500D01*
X151664071Y-51650500D01*
X151769253Y-51629577D01*
X151789744Y-51625501D01*
X151908127Y-51576465D01*
X152014669Y-51505276D01*
X152105276Y-51414669D01*
X152149286Y-51348804D01*
X152173398Y-51312718D01*
X152227010Y-51267913D01*
X152296335Y-51259206D01*
X152359363Y-51289360D01*
G37*
G04 #@! TD.AperFunction*
G04 #@! TA.AperFunction,Conductor*
G36*
X163225902Y-44517642D02*
G01*
X163411210Y-44628711D01*
X163421328Y-44635471D01*
X163683451Y-44829874D01*
X163692857Y-44837594D01*
X163934658Y-45056750D01*
X163943249Y-45065341D01*
X164083306Y-45219870D01*
X164162405Y-45307142D01*
X164170125Y-45316548D01*
X164364528Y-45578671D01*
X164371288Y-45588789D01*
X164482358Y-45774098D01*
X164500000Y-45837847D01*
X164500000Y-98162151D01*
X164482358Y-98225900D01*
X164371286Y-98411213D01*
X164364526Y-98421331D01*
X164170125Y-98683451D01*
X164162405Y-98692857D01*
X163943256Y-98934651D01*
X163934651Y-98943256D01*
X163692857Y-99162405D01*
X163683451Y-99170125D01*
X163421328Y-99364528D01*
X163411210Y-99371288D01*
X163225902Y-99482358D01*
X163162153Y-99500000D01*
X101837847Y-99500000D01*
X101774098Y-99482358D01*
X101588789Y-99371288D01*
X101578671Y-99364528D01*
X101316548Y-99170125D01*
X101307142Y-99162405D01*
X101270638Y-99129320D01*
X101065341Y-98943249D01*
X101056750Y-98934658D01*
X100837594Y-98692857D01*
X100829874Y-98683451D01*
X100635473Y-98421331D01*
X100628712Y-98411212D01*
X100517641Y-98225899D01*
X100500000Y-98162151D01*
X100500000Y-96393713D01*
X102149500Y-96393713D01*
X102149500Y-96606287D01*
X102182754Y-96816243D01*
X102247692Y-97016102D01*
X102248444Y-97018414D01*
X102344951Y-97207820D01*
X102469890Y-97379786D01*
X102620213Y-97530109D01*
X102792179Y-97655048D01*
X102792181Y-97655049D01*
X102792184Y-97655051D01*
X102981588Y-97751557D01*
X103183757Y-97817246D01*
X103393713Y-97850500D01*
X103393714Y-97850500D01*
X103606286Y-97850500D01*
X103606287Y-97850500D01*
X103816243Y-97817246D01*
X104018412Y-97751557D01*
X104207816Y-97655051D01*
X104229789Y-97639086D01*
X104379786Y-97530109D01*
X104379788Y-97530106D01*
X104379792Y-97530104D01*
X104530104Y-97379792D01*
X104530106Y-97379788D01*
X104530109Y-97379786D01*
X104655048Y-97207820D01*
X104655047Y-97207820D01*
X104655051Y-97207816D01*
X104720645Y-97079081D01*
X133461500Y-97079081D01*
X133461500Y-97079082D01*
X133461500Y-98779082D01*
X133461500Y-98820918D01*
X133491082Y-98850500D01*
X135332918Y-98850500D01*
X135362500Y-98820918D01*
X135362500Y-97079082D01*
X135362499Y-97079081D01*
X141961500Y-97079081D01*
X141961500Y-97079082D01*
X141961500Y-98779082D01*
X141961500Y-98820918D01*
X141991082Y-98850500D01*
X143832918Y-98850500D01*
X143862500Y-98820918D01*
X143862500Y-97079082D01*
X143862499Y-97079081D01*
X145599500Y-97079081D01*
X145599500Y-97079082D01*
X145599500Y-98779082D01*
X145599500Y-98820918D01*
X145629082Y-98850500D01*
X147470918Y-98850500D01*
X147500500Y-98820918D01*
X147500500Y-97079082D01*
X147500499Y-97079081D01*
X154099500Y-97079081D01*
X154099500Y-97079082D01*
X154099500Y-98779082D01*
X154099500Y-98820918D01*
X154129082Y-98850500D01*
X155970918Y-98850500D01*
X156000500Y-98820918D01*
X156000500Y-97079082D01*
X155970918Y-97049500D01*
X154170918Y-97049500D01*
X154129082Y-97049500D01*
X154129081Y-97049500D01*
X154099500Y-97079081D01*
X147500499Y-97079081D01*
X147470918Y-97049500D01*
X145670918Y-97049500D01*
X145629082Y-97049500D01*
X145629081Y-97049500D01*
X145599500Y-97079081D01*
X143862499Y-97079081D01*
X143832918Y-97049500D01*
X142032918Y-97049500D01*
X141991082Y-97049500D01*
X141991081Y-97049500D01*
X141961500Y-97079081D01*
X135362499Y-97079081D01*
X135332918Y-97049500D01*
X133532918Y-97049500D01*
X133491082Y-97049500D01*
X133491081Y-97049500D01*
X133461500Y-97079081D01*
X104720645Y-97079081D01*
X104751557Y-97018412D01*
X104817246Y-96816243D01*
X104850500Y-96606287D01*
X104850500Y-96393713D01*
X160149500Y-96393713D01*
X160149500Y-96606287D01*
X160182754Y-96816243D01*
X160247692Y-97016102D01*
X160248444Y-97018414D01*
X160344951Y-97207820D01*
X160469890Y-97379786D01*
X160620213Y-97530109D01*
X160792179Y-97655048D01*
X160792181Y-97655049D01*
X160792184Y-97655051D01*
X160981588Y-97751557D01*
X161183757Y-97817246D01*
X161393713Y-97850500D01*
X161393714Y-97850500D01*
X161606286Y-97850500D01*
X161606287Y-97850500D01*
X161816243Y-97817246D01*
X162018412Y-97751557D01*
X162207816Y-97655051D01*
X162229789Y-97639086D01*
X162379786Y-97530109D01*
X162379788Y-97530106D01*
X162379792Y-97530104D01*
X162530104Y-97379792D01*
X162530106Y-97379788D01*
X162530109Y-97379786D01*
X162655048Y-97207820D01*
X162655047Y-97207820D01*
X162655051Y-97207816D01*
X162751557Y-97018412D01*
X162817246Y-96816243D01*
X162850500Y-96606287D01*
X162850500Y-96393713D01*
X162817246Y-96183757D01*
X162751557Y-95981588D01*
X162655051Y-95792184D01*
X162655049Y-95792181D01*
X162655048Y-95792179D01*
X162530109Y-95620213D01*
X162379786Y-95469890D01*
X162207820Y-95344951D01*
X162018414Y-95248444D01*
X162018413Y-95248443D01*
X162018412Y-95248443D01*
X161816243Y-95182754D01*
X161816241Y-95182753D01*
X161816240Y-95182753D01*
X161654957Y-95157208D01*
X161606287Y-95149500D01*
X161393713Y-95149500D01*
X161345042Y-95157208D01*
X161183760Y-95182753D01*
X160981585Y-95248444D01*
X160792179Y-95344951D01*
X160620213Y-95469890D01*
X160469890Y-95620213D01*
X160344951Y-95792179D01*
X160248444Y-95981585D01*
X160182753Y-96183760D01*
X160180102Y-96200500D01*
X160149500Y-96393713D01*
X104850500Y-96393713D01*
X104817246Y-96183757D01*
X104751557Y-95981588D01*
X104655051Y-95792184D01*
X104655049Y-95792181D01*
X104655048Y-95792179D01*
X104530109Y-95620213D01*
X104379786Y-95469890D01*
X104207820Y-95344951D01*
X104018414Y-95248444D01*
X104018413Y-95248443D01*
X104018412Y-95248443D01*
X103816243Y-95182754D01*
X103816241Y-95182753D01*
X103816240Y-95182753D01*
X103654957Y-95157208D01*
X103606287Y-95149500D01*
X103393713Y-95149500D01*
X103345042Y-95157208D01*
X103183760Y-95182753D01*
X102981585Y-95248444D01*
X102792179Y-95344951D01*
X102620213Y-95469890D01*
X102469890Y-95620213D01*
X102344951Y-95792179D01*
X102248444Y-95981585D01*
X102182753Y-96183760D01*
X102180102Y-96200500D01*
X102149500Y-96393713D01*
X100500000Y-96393713D01*
X100500000Y-94689778D01*
X136061500Y-94689778D01*
X136061500Y-94910221D01*
X136095985Y-95127952D01*
X136164103Y-95337603D01*
X136164104Y-95337606D01*
X136264187Y-95534025D01*
X136393752Y-95712358D01*
X136393756Y-95712363D01*
X136549636Y-95868243D01*
X136549641Y-95868247D01*
X136705192Y-95981260D01*
X136727978Y-95997815D01*
X136856375Y-96063237D01*
X136924393Y-96097895D01*
X136924396Y-96097896D01*
X137029221Y-96131955D01*
X137134049Y-96166015D01*
X137351778Y-96200500D01*
X137351779Y-96200500D01*
X139972221Y-96200500D01*
X139972222Y-96200500D01*
X140189951Y-96166015D01*
X140399606Y-96097895D01*
X140596022Y-95997815D01*
X140774365Y-95868242D01*
X140930242Y-95712365D01*
X141059815Y-95534022D01*
X141159895Y-95337606D01*
X141228015Y-95127951D01*
X141262500Y-94910222D01*
X141262500Y-94689778D01*
X148199500Y-94689778D01*
X148199500Y-94910221D01*
X148233985Y-95127952D01*
X148302103Y-95337603D01*
X148302104Y-95337606D01*
X148402187Y-95534025D01*
X148531752Y-95712358D01*
X148531756Y-95712363D01*
X148687636Y-95868243D01*
X148687641Y-95868247D01*
X148843192Y-95981260D01*
X148865978Y-95997815D01*
X148994375Y-96063237D01*
X149062393Y-96097895D01*
X149062396Y-96097896D01*
X149167221Y-96131955D01*
X149272049Y-96166015D01*
X149489778Y-96200500D01*
X149489779Y-96200500D01*
X152110221Y-96200500D01*
X152110222Y-96200500D01*
X152327951Y-96166015D01*
X152537606Y-96097895D01*
X152734022Y-95997815D01*
X152912365Y-95868242D01*
X153068242Y-95712365D01*
X153197815Y-95534022D01*
X153297895Y-95337606D01*
X153366015Y-95127951D01*
X153400500Y-94910222D01*
X153400500Y-94689778D01*
X153366015Y-94472049D01*
X153297895Y-94262394D01*
X153297895Y-94262393D01*
X153263237Y-94194375D01*
X153197815Y-94065978D01*
X153181260Y-94043192D01*
X153068247Y-93887641D01*
X153068243Y-93887636D01*
X152912363Y-93731756D01*
X152912358Y-93731752D01*
X152734025Y-93602187D01*
X152734024Y-93602186D01*
X152734022Y-93602185D01*
X152671096Y-93570122D01*
X152537606Y-93502104D01*
X152537603Y-93502103D01*
X152327952Y-93433985D01*
X152219086Y-93416742D01*
X152110222Y-93399500D01*
X149489778Y-93399500D01*
X149417201Y-93410995D01*
X149272047Y-93433985D01*
X149062396Y-93502103D01*
X149062393Y-93502104D01*
X148865974Y-93602187D01*
X148687641Y-93731752D01*
X148687636Y-93731756D01*
X148531756Y-93887636D01*
X148531752Y-93887641D01*
X148402187Y-94065974D01*
X148302104Y-94262393D01*
X148302103Y-94262396D01*
X148233985Y-94472047D01*
X148199500Y-94689778D01*
X141262500Y-94689778D01*
X141228015Y-94472049D01*
X141159895Y-94262394D01*
X141159895Y-94262393D01*
X141125237Y-94194375D01*
X141059815Y-94065978D01*
X141043260Y-94043192D01*
X140930247Y-93887641D01*
X140930243Y-93887636D01*
X140774363Y-93731756D01*
X140774358Y-93731752D01*
X140596025Y-93602187D01*
X140596024Y-93602186D01*
X140596022Y-93602185D01*
X140533096Y-93570122D01*
X140399606Y-93502104D01*
X140399603Y-93502103D01*
X140189952Y-93433985D01*
X140081086Y-93416742D01*
X139972222Y-93399500D01*
X137351778Y-93399500D01*
X137279201Y-93410995D01*
X137134047Y-93433985D01*
X136924396Y-93502103D01*
X136924393Y-93502104D01*
X136727974Y-93602187D01*
X136549641Y-93731752D01*
X136549636Y-93731756D01*
X136393756Y-93887636D01*
X136393752Y-93887641D01*
X136264187Y-94065974D01*
X136164104Y-94262393D01*
X136164103Y-94262396D01*
X136095985Y-94472047D01*
X136061500Y-94689778D01*
X100500000Y-94689778D01*
X100500000Y-89558992D01*
X113034500Y-89558992D01*
X113034500Y-89761007D01*
X113073907Y-89959119D01*
X113073909Y-89959127D01*
X113151212Y-90145752D01*
X113151217Y-90145762D01*
X113263441Y-90313718D01*
X113406281Y-90456558D01*
X113574237Y-90568782D01*
X113574241Y-90568784D01*
X113574244Y-90568786D01*
X113760873Y-90646091D01*
X113958992Y-90685499D01*
X113958996Y-90685500D01*
X113958997Y-90685500D01*
X114161004Y-90685500D01*
X114161005Y-90685499D01*
X114359127Y-90646091D01*
X114545756Y-90568786D01*
X114713718Y-90456558D01*
X114856558Y-90313718D01*
X114968786Y-90145756D01*
X115046091Y-89959127D01*
X115085500Y-89761003D01*
X115085500Y-89558997D01*
X115085499Y-89558992D01*
X118114500Y-89558992D01*
X118114500Y-89761007D01*
X118153907Y-89959119D01*
X118153909Y-89959127D01*
X118231212Y-90145752D01*
X118231217Y-90145762D01*
X118343441Y-90313718D01*
X118486281Y-90456558D01*
X118654237Y-90568782D01*
X118654241Y-90568784D01*
X118654244Y-90568786D01*
X118840873Y-90646091D01*
X119038992Y-90685499D01*
X119038996Y-90685500D01*
X119038997Y-90685500D01*
X119241004Y-90685500D01*
X119241005Y-90685499D01*
X119439127Y-90646091D01*
X119625756Y-90568786D01*
X119793718Y-90456558D01*
X119793721Y-90456555D01*
X119839320Y-90410957D01*
X119936555Y-90313721D01*
X119936558Y-90313718D01*
X120048782Y-90145762D01*
X120048782Y-90145761D01*
X120048786Y-90145756D01*
X120126091Y-89959127D01*
X120165500Y-89761003D01*
X120165500Y-89558997D01*
X120145213Y-89457007D01*
X120126529Y-89363072D01*
X120126092Y-89360879D01*
X120126091Y-89360873D01*
X120119000Y-89343753D01*
X137312000Y-89343753D01*
X137312000Y-90050000D01*
X138162000Y-90050000D01*
X138162000Y-90550000D01*
X137312000Y-90550000D01*
X137312000Y-91256246D01*
X137345242Y-91466127D01*
X137345242Y-91466130D01*
X137410904Y-91668217D01*
X137507379Y-91857557D01*
X137632272Y-92029459D01*
X137632276Y-92029464D01*
X137782535Y-92179723D01*
X137782540Y-92179727D01*
X137954442Y-92304620D01*
X138143782Y-92401095D01*
X138345871Y-92466757D01*
X138412000Y-92477231D01*
X138412000Y-91383012D01*
X138469007Y-91415925D01*
X138596174Y-91450000D01*
X138727826Y-91450000D01*
X138854993Y-91415925D01*
X138912000Y-91383012D01*
X138912000Y-92477230D01*
X138978126Y-92466757D01*
X138978129Y-92466757D01*
X139180217Y-92401095D01*
X139369557Y-92304620D01*
X139541459Y-92179727D01*
X139541464Y-92179723D01*
X139691723Y-92029464D01*
X139691727Y-92029459D01*
X139816620Y-91857557D01*
X139913095Y-91668217D01*
X139978757Y-91466130D01*
X139978757Y-91466127D01*
X140012000Y-91256246D01*
X140012000Y-90550000D01*
X139162000Y-90550000D01*
X139162000Y-90050000D01*
X140012000Y-90050000D01*
X140012000Y-89343753D01*
X149450000Y-89343753D01*
X149450000Y-90050000D01*
X150300000Y-90050000D01*
X150300000Y-90550000D01*
X149450000Y-90550000D01*
X149450000Y-91256246D01*
X149483242Y-91466127D01*
X149483242Y-91466130D01*
X149548904Y-91668217D01*
X149645379Y-91857557D01*
X149770272Y-92029459D01*
X149770276Y-92029464D01*
X149920535Y-92179723D01*
X149920540Y-92179727D01*
X150092442Y-92304620D01*
X150281782Y-92401095D01*
X150483871Y-92466757D01*
X150550000Y-92477231D01*
X150550000Y-91383012D01*
X150607007Y-91415925D01*
X150734174Y-91450000D01*
X150865826Y-91450000D01*
X150992993Y-91415925D01*
X151050000Y-91383012D01*
X151050000Y-92477230D01*
X151116126Y-92466757D01*
X151116129Y-92466757D01*
X151318217Y-92401095D01*
X151507557Y-92304620D01*
X151679459Y-92179727D01*
X151679464Y-92179723D01*
X151829723Y-92029464D01*
X151829727Y-92029459D01*
X151954620Y-91857557D01*
X152051095Y-91668217D01*
X152116757Y-91466130D01*
X152116757Y-91466127D01*
X152150000Y-91256246D01*
X152150000Y-90550000D01*
X151300000Y-90550000D01*
X151300000Y-90050000D01*
X152150000Y-90050000D01*
X152150000Y-89343753D01*
X152116757Y-89133872D01*
X152116757Y-89133869D01*
X152051095Y-88931782D01*
X151954620Y-88742442D01*
X151829727Y-88570540D01*
X151829723Y-88570535D01*
X151679464Y-88420276D01*
X151679459Y-88420272D01*
X151507557Y-88295379D01*
X151318215Y-88198903D01*
X151116124Y-88133241D01*
X151050000Y-88122768D01*
X151050000Y-89216988D01*
X150992993Y-89184075D01*
X150865826Y-89150000D01*
X150734174Y-89150000D01*
X150607007Y-89184075D01*
X150550000Y-89216988D01*
X150550000Y-88122768D01*
X150549999Y-88122768D01*
X150483875Y-88133241D01*
X150281784Y-88198903D01*
X150092442Y-88295379D01*
X149920540Y-88420272D01*
X149920535Y-88420276D01*
X149770276Y-88570535D01*
X149770272Y-88570540D01*
X149645379Y-88742442D01*
X149548904Y-88931782D01*
X149483242Y-89133869D01*
X149483242Y-89133872D01*
X149450000Y-89343753D01*
X140012000Y-89343753D01*
X139978757Y-89133872D01*
X139978757Y-89133869D01*
X139913095Y-88931782D01*
X139816620Y-88742442D01*
X139691727Y-88570540D01*
X139691723Y-88570535D01*
X139541464Y-88420276D01*
X139541459Y-88420272D01*
X139369557Y-88295379D01*
X139180215Y-88198903D01*
X138978124Y-88133241D01*
X138912000Y-88122768D01*
X138912000Y-89216988D01*
X138854993Y-89184075D01*
X138727826Y-89150000D01*
X138596174Y-89150000D01*
X138469007Y-89184075D01*
X138412000Y-89216988D01*
X138412000Y-88122768D01*
X138411999Y-88122768D01*
X138345875Y-88133241D01*
X138143784Y-88198903D01*
X137954442Y-88295379D01*
X137782540Y-88420272D01*
X137782535Y-88420276D01*
X137632276Y-88570535D01*
X137632272Y-88570540D01*
X137507379Y-88742442D01*
X137410904Y-88931782D01*
X137345242Y-89133869D01*
X137345242Y-89133872D01*
X137312000Y-89343753D01*
X120119000Y-89343753D01*
X120048786Y-89174244D01*
X120048784Y-89174241D01*
X120048782Y-89174237D01*
X119936558Y-89006281D01*
X119793718Y-88863441D01*
X119625762Y-88751217D01*
X119625752Y-88751212D01*
X119439127Y-88673909D01*
X119439119Y-88673907D01*
X119241007Y-88634500D01*
X119241003Y-88634500D01*
X119038997Y-88634500D01*
X119038992Y-88634500D01*
X118840880Y-88673907D01*
X118840872Y-88673909D01*
X118654247Y-88751212D01*
X118654237Y-88751217D01*
X118486281Y-88863441D01*
X118343441Y-89006281D01*
X118231217Y-89174237D01*
X118231212Y-89174247D01*
X118153909Y-89360872D01*
X118153907Y-89360880D01*
X118114500Y-89558992D01*
X115085499Y-89558992D01*
X115046091Y-89360873D01*
X114968786Y-89174244D01*
X114968784Y-89174241D01*
X114968782Y-89174237D01*
X114856558Y-89006281D01*
X114713718Y-88863441D01*
X114545762Y-88751217D01*
X114545752Y-88751212D01*
X114359127Y-88673909D01*
X114359119Y-88673907D01*
X114161007Y-88634500D01*
X114161003Y-88634500D01*
X113958997Y-88634500D01*
X113958992Y-88634500D01*
X113760880Y-88673907D01*
X113760872Y-88673909D01*
X113574247Y-88751212D01*
X113574237Y-88751217D01*
X113406281Y-88863441D01*
X113263441Y-89006281D01*
X113151217Y-89174237D01*
X113151212Y-89174247D01*
X113073909Y-89360872D01*
X113073907Y-89360880D01*
X113034500Y-89558992D01*
X100500000Y-89558992D01*
X100500000Y-86370247D01*
X113209500Y-86370247D01*
X113209500Y-87709752D01*
X113221131Y-87768229D01*
X113221132Y-87768230D01*
X113265447Y-87834552D01*
X113331769Y-87878867D01*
X113331770Y-87878868D01*
X113390247Y-87890499D01*
X113390250Y-87890500D01*
X113390252Y-87890500D01*
X114729750Y-87890500D01*
X114729751Y-87890499D01*
X114749418Y-87886587D01*
X114788228Y-87878868D01*
X114788228Y-87878867D01*
X114788231Y-87878867D01*
X114854552Y-87834552D01*
X114898867Y-87768231D01*
X114898867Y-87768229D01*
X114898868Y-87768229D01*
X114910499Y-87709752D01*
X114910500Y-87709750D01*
X114910500Y-86949493D01*
X115450000Y-86949493D01*
X115450000Y-87130506D01*
X115478317Y-87309293D01*
X115534251Y-87481444D01*
X115534252Y-87481447D01*
X115616431Y-87642730D01*
X115627913Y-87658532D01*
X115627913Y-87658533D01*
X116200000Y-87086446D01*
X116200000Y-87092661D01*
X116227259Y-87194394D01*
X116279920Y-87285606D01*
X116354394Y-87360080D01*
X116445606Y-87412741D01*
X116547339Y-87440000D01*
X116553553Y-87440000D01*
X115981466Y-88012085D01*
X115981466Y-88012086D01*
X115997267Y-88023566D01*
X115997275Y-88023571D01*
X116158552Y-88105747D01*
X116158555Y-88105748D01*
X116330706Y-88161682D01*
X116509494Y-88190000D01*
X116690506Y-88190000D01*
X116869293Y-88161682D01*
X117041444Y-88105748D01*
X117041452Y-88105745D01*
X117202730Y-88023568D01*
X117218532Y-88012085D01*
X117218533Y-88012085D01*
X116646448Y-87440000D01*
X116652661Y-87440000D01*
X116754394Y-87412741D01*
X116845606Y-87360080D01*
X116920080Y-87285606D01*
X116972741Y-87194394D01*
X117000000Y-87092661D01*
X117000000Y-87086448D01*
X117572085Y-87658533D01*
X117572085Y-87658532D01*
X117583568Y-87642730D01*
X117665745Y-87481452D01*
X117665748Y-87481444D01*
X117721682Y-87309293D01*
X117750000Y-87130506D01*
X117750000Y-86956228D01*
X118289500Y-86956228D01*
X118289500Y-87123771D01*
X118322182Y-87288074D01*
X118322184Y-87288082D01*
X118386295Y-87442860D01*
X118479373Y-87582162D01*
X118597837Y-87700626D01*
X118690494Y-87762537D01*
X118737137Y-87793703D01*
X118891918Y-87857816D01*
X119056228Y-87890499D01*
X119056232Y-87890500D01*
X119056233Y-87890500D01*
X119223768Y-87890500D01*
X119223769Y-87890499D01*
X119388082Y-87857816D01*
X119542863Y-87793703D01*
X119682162Y-87700626D01*
X119800626Y-87582162D01*
X119893703Y-87442863D01*
X119957816Y-87288082D01*
X119990500Y-87123767D01*
X119990500Y-86956233D01*
X119957816Y-86791918D01*
X119906180Y-86667259D01*
X119893704Y-86637139D01*
X119892493Y-86635327D01*
X119831956Y-86544726D01*
X119800626Y-86497837D01*
X119682162Y-86379373D01*
X119542860Y-86286295D01*
X119388082Y-86222184D01*
X119388074Y-86222182D01*
X119223771Y-86189500D01*
X119223767Y-86189500D01*
X119056233Y-86189500D01*
X119056228Y-86189500D01*
X118891925Y-86222182D01*
X118891917Y-86222184D01*
X118737139Y-86286295D01*
X118597837Y-86379373D01*
X118479373Y-86497837D01*
X118386295Y-86637139D01*
X118322184Y-86791917D01*
X118322182Y-86791925D01*
X118289500Y-86956228D01*
X117750000Y-86956228D01*
X117750000Y-86949493D01*
X117721682Y-86770706D01*
X117665748Y-86598555D01*
X117665747Y-86598552D01*
X117583571Y-86437275D01*
X117583566Y-86437267D01*
X117572085Y-86421466D01*
X117000000Y-86993551D01*
X117000000Y-86987339D01*
X116972741Y-86885606D01*
X116920080Y-86794394D01*
X116845606Y-86719920D01*
X116754394Y-86667259D01*
X116652661Y-86640000D01*
X116646447Y-86640000D01*
X117218533Y-86067913D01*
X117202730Y-86056431D01*
X117041447Y-85974252D01*
X117041444Y-85974251D01*
X116869293Y-85918317D01*
X116690506Y-85890000D01*
X116509494Y-85890000D01*
X116330706Y-85918317D01*
X116158555Y-85974251D01*
X116158547Y-85974254D01*
X115997269Y-86056432D01*
X115981466Y-86067912D01*
X115981466Y-86067913D01*
X116553554Y-86640000D01*
X116547339Y-86640000D01*
X116445606Y-86667259D01*
X116354394Y-86719920D01*
X116279920Y-86794394D01*
X116227259Y-86885606D01*
X116200000Y-86987339D01*
X116200000Y-86993553D01*
X115627913Y-86421466D01*
X115627912Y-86421466D01*
X115616432Y-86437269D01*
X115534254Y-86598547D01*
X115534251Y-86598555D01*
X115478317Y-86770706D01*
X115450000Y-86949493D01*
X114910500Y-86949493D01*
X114910500Y-86370249D01*
X114910499Y-86370247D01*
X114898868Y-86311770D01*
X114898867Y-86311769D01*
X114854552Y-86245447D01*
X114813932Y-86218306D01*
X114813922Y-86218299D01*
X114788231Y-86201133D01*
X114788229Y-86201132D01*
X114788227Y-86201131D01*
X114788229Y-86201131D01*
X114729752Y-86189500D01*
X114729748Y-86189500D01*
X113390252Y-86189500D01*
X113390247Y-86189500D01*
X113331770Y-86201131D01*
X113331769Y-86201132D01*
X113265447Y-86245447D01*
X113221132Y-86311769D01*
X113221131Y-86311770D01*
X113209500Y-86370247D01*
X100500000Y-86370247D01*
X100500000Y-78964068D01*
X128949499Y-78964068D01*
X128974497Y-79089735D01*
X128974499Y-79089741D01*
X129023533Y-79208121D01*
X129023538Y-79208130D01*
X129094723Y-79314665D01*
X129094726Y-79314669D01*
X129185327Y-79405270D01*
X129185331Y-79405273D01*
X129291866Y-79476458D01*
X129291872Y-79476461D01*
X129291873Y-79476462D01*
X129410256Y-79525498D01*
X129410260Y-79525498D01*
X129410261Y-79525499D01*
X129535928Y-79550497D01*
X129535931Y-79550497D01*
X129664071Y-79550497D01*
X129748615Y-79533679D01*
X129789744Y-79525498D01*
X129908127Y-79476462D01*
X130014669Y-79405273D01*
X130105276Y-79314666D01*
X130176465Y-79208124D01*
X130225501Y-79089741D01*
X130240434Y-79014669D01*
X130250500Y-78964068D01*
X130250500Y-78835927D01*
X130242508Y-78795752D01*
X130248734Y-78726161D01*
X130276442Y-78683880D01*
X131262319Y-77698003D01*
X131323640Y-77664520D01*
X131393332Y-77669504D01*
X131437676Y-77698003D01*
X132647091Y-78907417D01*
X133793555Y-80053881D01*
X133827040Y-80115204D01*
X133827492Y-80165752D01*
X133819500Y-80205931D01*
X133819500Y-80334069D01*
X133819500Y-80334071D01*
X133819499Y-80334071D01*
X133844497Y-80459738D01*
X133844499Y-80459744D01*
X133893533Y-80578124D01*
X133893538Y-80578133D01*
X133964723Y-80684668D01*
X133964726Y-80684672D01*
X134055327Y-80775273D01*
X134055331Y-80775276D01*
X134161866Y-80846461D01*
X134161872Y-80846464D01*
X134161873Y-80846465D01*
X134280256Y-80895501D01*
X134280260Y-80895501D01*
X134280261Y-80895502D01*
X134405928Y-80920500D01*
X134405931Y-80920500D01*
X134534071Y-80920500D01*
X134618615Y-80903682D01*
X134659744Y-80895501D01*
X134778127Y-80846465D01*
X134884669Y-80775276D01*
X134975276Y-80684669D01*
X135046465Y-80578127D01*
X135095501Y-80459744D01*
X135120500Y-80334069D01*
X135120500Y-80205931D01*
X135120500Y-80205928D01*
X135095502Y-80080261D01*
X135095501Y-80080260D01*
X135095501Y-80080256D01*
X135046465Y-79961873D01*
X135046464Y-79961872D01*
X135046461Y-79961866D01*
X134975276Y-79855331D01*
X134975273Y-79855327D01*
X134884672Y-79764726D01*
X134884668Y-79764723D01*
X134778133Y-79693538D01*
X134778124Y-79693533D01*
X134659744Y-79644499D01*
X134659738Y-79644497D01*
X134534071Y-79619500D01*
X134534069Y-79619500D01*
X134405931Y-79619500D01*
X134365752Y-79627492D01*
X134296161Y-79621263D01*
X134253881Y-79593555D01*
X131934819Y-77274492D01*
X131901334Y-77213169D01*
X131898500Y-77186811D01*
X131898500Y-76258188D01*
X131918185Y-76191149D01*
X131970989Y-76145394D01*
X132040147Y-76135450D01*
X132103703Y-76164475D01*
X132110159Y-76170485D01*
X132123559Y-76183886D01*
X132157041Y-76245209D01*
X132157491Y-76295754D01*
X132149500Y-76335926D01*
X132149500Y-76335931D01*
X132149500Y-76464069D01*
X132149500Y-76464071D01*
X132149499Y-76464071D01*
X132174497Y-76589738D01*
X132174499Y-76589744D01*
X132223533Y-76708124D01*
X132223538Y-76708133D01*
X132294723Y-76814668D01*
X132294726Y-76814672D01*
X132385327Y-76905273D01*
X132385331Y-76905276D01*
X132491866Y-76976461D01*
X132491872Y-76976464D01*
X132491873Y-76976465D01*
X132610256Y-77025501D01*
X132610260Y-77025501D01*
X132610261Y-77025502D01*
X132735928Y-77050500D01*
X132735931Y-77050500D01*
X132864071Y-77050500D01*
X132948615Y-77033682D01*
X132989744Y-77025501D01*
X133108127Y-76976465D01*
X133214669Y-76905276D01*
X133305276Y-76814669D01*
X133376465Y-76708127D01*
X133425501Y-76589744D01*
X133450500Y-76464069D01*
X133450500Y-76335931D01*
X133450500Y-76335928D01*
X133425502Y-76210261D01*
X133425501Y-76210260D01*
X133425501Y-76210256D01*
X133382017Y-76105276D01*
X133376466Y-76091875D01*
X133376461Y-76091866D01*
X133305276Y-75985331D01*
X133305273Y-75985327D01*
X133214672Y-75894726D01*
X133214668Y-75894723D01*
X133108133Y-75823538D01*
X133108124Y-75823533D01*
X132989744Y-75774499D01*
X132989738Y-75774497D01*
X132864071Y-75749500D01*
X132864069Y-75749500D01*
X132735931Y-75749500D01*
X132735926Y-75749500D01*
X132695754Y-75757491D01*
X132626163Y-75751264D01*
X132583882Y-75723555D01*
X132385819Y-75525492D01*
X132352334Y-75464169D01*
X132349500Y-75437811D01*
X132349500Y-74509189D01*
X132369185Y-74442150D01*
X132421989Y-74396395D01*
X132491147Y-74386451D01*
X132554703Y-74415476D01*
X132561181Y-74421508D01*
X139400138Y-81260465D01*
X139474361Y-81303318D01*
X139557147Y-81325500D01*
X147626812Y-81325500D01*
X147693851Y-81345185D01*
X147739606Y-81397989D01*
X147749550Y-81467147D01*
X147720525Y-81530703D01*
X147714493Y-81537181D01*
X142878116Y-86373555D01*
X142816793Y-86407040D01*
X142766243Y-86407491D01*
X142726071Y-86399500D01*
X142726069Y-86399500D01*
X142597931Y-86399500D01*
X142597929Y-86399500D01*
X142472261Y-86424497D01*
X142472255Y-86424499D01*
X142353875Y-86473533D01*
X142353866Y-86473538D01*
X142247331Y-86544723D01*
X142247327Y-86544726D01*
X142156726Y-86635327D01*
X142156723Y-86635331D01*
X142085538Y-86741866D01*
X142085533Y-86741875D01*
X142036499Y-86860255D01*
X142036497Y-86860261D01*
X142011500Y-86985928D01*
X142011500Y-86985930D01*
X142011500Y-86985931D01*
X142011500Y-87114069D01*
X142011500Y-87114071D01*
X142011499Y-87114071D01*
X142036497Y-87239738D01*
X142036499Y-87239744D01*
X142085533Y-87358124D01*
X142085538Y-87358133D01*
X142156723Y-87464668D01*
X142156726Y-87464672D01*
X142247327Y-87555273D01*
X142247331Y-87555276D01*
X142353866Y-87626461D01*
X142353872Y-87626464D01*
X142353873Y-87626465D01*
X142472256Y-87675501D01*
X142472260Y-87675501D01*
X142472261Y-87675502D01*
X142597928Y-87700500D01*
X142597931Y-87700500D01*
X142726071Y-87700500D01*
X142810615Y-87683682D01*
X142851744Y-87675501D01*
X142970127Y-87626465D01*
X143076669Y-87555276D01*
X143167276Y-87464669D01*
X143238465Y-87358127D01*
X143287501Y-87239744D01*
X143296522Y-87194394D01*
X143312500Y-87114071D01*
X143312500Y-86985930D01*
X143304508Y-86945755D01*
X143310734Y-86876164D01*
X143338442Y-86833883D01*
X148359507Y-81812819D01*
X148420830Y-81779334D01*
X148447188Y-81776500D01*
X152463812Y-81776500D01*
X152530851Y-81796185D01*
X152576606Y-81848989D01*
X152586550Y-81918147D01*
X152557525Y-81981703D01*
X152551493Y-81988181D01*
X148951516Y-85588155D01*
X148890193Y-85621640D01*
X148839644Y-85622091D01*
X148726072Y-85599500D01*
X148726069Y-85599500D01*
X148597931Y-85599500D01*
X148597929Y-85599500D01*
X148472261Y-85624497D01*
X148472255Y-85624499D01*
X148353875Y-85673533D01*
X148353866Y-85673538D01*
X148247331Y-85744723D01*
X148247327Y-85744726D01*
X148156726Y-85835327D01*
X148156723Y-85835331D01*
X148085538Y-85941866D01*
X148085533Y-85941875D01*
X148036499Y-86060255D01*
X148036497Y-86060261D01*
X148011500Y-86185928D01*
X148011500Y-86185931D01*
X148011500Y-86314069D01*
X148011500Y-86314071D01*
X148011499Y-86314071D01*
X148036497Y-86439738D01*
X148036499Y-86439744D01*
X148085533Y-86558124D01*
X148085538Y-86558133D01*
X148156723Y-86664668D01*
X148156726Y-86664672D01*
X148247327Y-86755273D01*
X148247331Y-86755276D01*
X148353866Y-86826461D01*
X148353872Y-86826464D01*
X148353873Y-86826465D01*
X148472256Y-86875501D01*
X148472260Y-86875501D01*
X148472261Y-86875502D01*
X148597928Y-86900500D01*
X148597931Y-86900500D01*
X148726071Y-86900500D01*
X148825361Y-86880749D01*
X148851744Y-86875501D01*
X148970127Y-86826465D01*
X149076669Y-86755276D01*
X149167276Y-86664669D01*
X149238465Y-86558127D01*
X149287501Y-86439744D01*
X149312500Y-86314069D01*
X149312500Y-86199187D01*
X149332185Y-86132148D01*
X149348819Y-86111506D01*
X149872170Y-85588155D01*
X155816652Y-79643673D01*
X155816657Y-79643669D01*
X155826860Y-79633465D01*
X155826862Y-79633465D01*
X155887465Y-79572862D01*
X155930318Y-79498638D01*
X155936260Y-79476462D01*
X155952501Y-79415853D01*
X155952501Y-79330147D01*
X155952500Y-79330143D01*
X155952500Y-78048907D01*
X155930318Y-77966122D01*
X155920313Y-77948793D01*
X155887469Y-77891904D01*
X155887463Y-77891896D01*
X148959104Y-70963537D01*
X148959102Y-70963535D01*
X148921990Y-70942108D01*
X148884880Y-70920682D01*
X148843486Y-70909591D01*
X148802093Y-70898500D01*
X146721423Y-70898500D01*
X146635717Y-70898500D01*
X146552929Y-70920682D01*
X146478708Y-70963535D01*
X146478705Y-70963537D01*
X142508615Y-74933626D01*
X142462457Y-74962786D01*
X142453962Y-74965804D01*
X142410256Y-74974499D01*
X142294032Y-75022640D01*
X142291023Y-75023710D01*
X142259188Y-75025490D01*
X142227483Y-75028899D01*
X142224543Y-75027427D01*
X142221262Y-75027611D01*
X142193513Y-75011894D01*
X142165004Y-74997623D01*
X142163327Y-74994797D01*
X142160467Y-74993177D01*
X142145619Y-74964951D01*
X142129352Y-74937534D01*
X142128773Y-74932926D01*
X142127939Y-74931341D01*
X142128199Y-74928356D01*
X142125500Y-74906869D01*
X142125500Y-73188759D01*
X142145185Y-73121720D01*
X142161819Y-73101078D01*
X148077078Y-67185819D01*
X148138401Y-67152334D01*
X148164759Y-67149500D01*
X157037811Y-67149500D01*
X157104850Y-67169185D01*
X157125492Y-67185819D01*
X161723555Y-71783882D01*
X161757040Y-71845205D01*
X161757491Y-71895754D01*
X161749500Y-71935926D01*
X161749500Y-71935931D01*
X161749500Y-72064069D01*
X161749500Y-72064071D01*
X161749499Y-72064071D01*
X161774497Y-72189738D01*
X161774499Y-72189744D01*
X161823533Y-72308124D01*
X161823538Y-72308133D01*
X161894723Y-72414668D01*
X161894726Y-72414672D01*
X161985327Y-72505273D01*
X161985331Y-72505276D01*
X162091866Y-72576461D01*
X162091872Y-72576464D01*
X162091873Y-72576465D01*
X162210256Y-72625501D01*
X162210260Y-72625501D01*
X162210261Y-72625502D01*
X162335928Y-72650500D01*
X162335931Y-72650500D01*
X162464071Y-72650500D01*
X162548615Y-72633682D01*
X162589744Y-72625501D01*
X162708127Y-72576465D01*
X162814669Y-72505276D01*
X162905276Y-72414669D01*
X162976465Y-72308127D01*
X163025501Y-72189744D01*
X163034380Y-72145109D01*
X163050500Y-72064071D01*
X163050500Y-71935928D01*
X163025502Y-71810261D01*
X163025501Y-71810260D01*
X163025501Y-71810256D01*
X162976465Y-71691873D01*
X162976464Y-71691872D01*
X162976461Y-71691866D01*
X162905276Y-71585331D01*
X162905273Y-71585327D01*
X162814672Y-71494726D01*
X162814668Y-71494723D01*
X162708133Y-71423538D01*
X162708124Y-71423533D01*
X162589744Y-71374499D01*
X162589738Y-71374497D01*
X162464071Y-71349500D01*
X162464069Y-71349500D01*
X162335931Y-71349500D01*
X162335926Y-71349500D01*
X162295754Y-71357491D01*
X162226163Y-71351264D01*
X162183882Y-71323555D01*
X157423864Y-66563537D01*
X157423862Y-66563535D01*
X157386750Y-66542108D01*
X157349640Y-66520682D01*
X157308246Y-66509591D01*
X157266853Y-66498500D01*
X147935717Y-66498500D01*
X147852932Y-66520682D01*
X147852925Y-66520685D01*
X147778714Y-66563530D01*
X147778706Y-66563536D01*
X141886181Y-72456062D01*
X141824858Y-72489547D01*
X141755166Y-72484563D01*
X141699233Y-72442691D01*
X141674816Y-72377227D01*
X141674500Y-72368381D01*
X141674500Y-71237187D01*
X141694185Y-71170148D01*
X141710814Y-71149510D01*
X142783882Y-70076442D01*
X142845203Y-70042959D01*
X142895754Y-70042508D01*
X142935930Y-70050500D01*
X142935931Y-70050500D01*
X143064071Y-70050500D01*
X143169253Y-70029577D01*
X143189744Y-70025501D01*
X143308127Y-69976465D01*
X143414669Y-69905276D01*
X143505276Y-69814669D01*
X143576465Y-69708127D01*
X143625501Y-69589744D01*
X143633682Y-69548615D01*
X143650500Y-69464071D01*
X143650500Y-69335928D01*
X143625502Y-69210261D01*
X143625501Y-69210260D01*
X143625501Y-69210256D01*
X143576465Y-69091873D01*
X143576464Y-69091872D01*
X143576461Y-69091866D01*
X143505276Y-68985331D01*
X143505273Y-68985327D01*
X143414672Y-68894726D01*
X143414668Y-68894723D01*
X143308133Y-68823538D01*
X143308120Y-68823531D01*
X143218823Y-68786544D01*
X143164419Y-68742703D01*
X143142354Y-68676409D01*
X143159633Y-68608710D01*
X143178590Y-68584306D01*
X152550850Y-59212045D01*
X152612171Y-59178562D01*
X152670621Y-59179953D01*
X152683147Y-59183310D01*
X152683149Y-59183310D01*
X152768851Y-59183310D01*
X152768853Y-59183310D01*
X152851638Y-59161128D01*
X152925862Y-59118275D01*
X152986465Y-59057672D01*
X153029318Y-58983448D01*
X153051500Y-58900663D01*
X153051500Y-57362155D01*
X160450000Y-57362155D01*
X160450000Y-58010000D01*
X161366988Y-58010000D01*
X161334075Y-58067007D01*
X161300000Y-58194174D01*
X161300000Y-58325826D01*
X161334075Y-58452993D01*
X161366988Y-58510000D01*
X160450000Y-58510000D01*
X160450000Y-59157844D01*
X160456401Y-59217372D01*
X160456403Y-59217379D01*
X160506645Y-59352086D01*
X160506649Y-59352093D01*
X160592809Y-59467187D01*
X160592812Y-59467190D01*
X160707906Y-59553350D01*
X160707913Y-59553354D01*
X160842620Y-59603596D01*
X160842627Y-59603598D01*
X160902155Y-59609999D01*
X160902172Y-59610000D01*
X161304435Y-59610000D01*
X161371474Y-59629685D01*
X161417229Y-59682489D01*
X161427173Y-59751647D01*
X161398148Y-59815203D01*
X161351888Y-59848561D01*
X161302403Y-59869058D01*
X161130342Y-59984024D01*
X160984024Y-60130342D01*
X160869058Y-60302403D01*
X160789870Y-60493579D01*
X160789868Y-60493587D01*
X160749500Y-60696530D01*
X160749500Y-60903469D01*
X160789868Y-61106412D01*
X160789870Y-61106420D01*
X160869058Y-61297596D01*
X160984024Y-61469657D01*
X161130342Y-61615975D01*
X161130345Y-61615977D01*
X161302402Y-61730941D01*
X161493580Y-61810130D01*
X161696530Y-61850499D01*
X161696534Y-61850500D01*
X161696535Y-61850500D01*
X161903466Y-61850500D01*
X161903467Y-61850499D01*
X162106420Y-61810130D01*
X162297598Y-61730941D01*
X162469655Y-61615977D01*
X162615977Y-61469655D01*
X162730941Y-61297598D01*
X162810130Y-61106420D01*
X162850500Y-60903465D01*
X162850500Y-60696535D01*
X162810130Y-60493580D01*
X162730941Y-60302402D01*
X162615977Y-60130345D01*
X162615975Y-60130342D01*
X162469657Y-59984024D01*
X162383626Y-59926541D01*
X162297598Y-59869059D01*
X162248112Y-59848561D01*
X162193709Y-59804720D01*
X162171644Y-59738426D01*
X162188923Y-59670726D01*
X162240061Y-59623116D01*
X162295565Y-59610000D01*
X162697828Y-59610000D01*
X162697844Y-59609999D01*
X162757372Y-59603598D01*
X162757379Y-59603596D01*
X162892086Y-59553354D01*
X162892093Y-59553350D01*
X163007187Y-59467190D01*
X163007190Y-59467187D01*
X163093350Y-59352093D01*
X163093354Y-59352086D01*
X163143596Y-59217379D01*
X163143598Y-59217372D01*
X163149999Y-59157844D01*
X163150000Y-59157827D01*
X163150000Y-58510000D01*
X162233012Y-58510000D01*
X162265925Y-58452993D01*
X162300000Y-58325826D01*
X162300000Y-58194174D01*
X162265925Y-58067007D01*
X162233012Y-58010000D01*
X163150000Y-58010000D01*
X163150000Y-57362172D01*
X163149999Y-57362155D01*
X163143598Y-57302627D01*
X163143596Y-57302620D01*
X163093354Y-57167913D01*
X163093350Y-57167906D01*
X163007190Y-57052812D01*
X163007187Y-57052809D01*
X162892093Y-56966649D01*
X162892086Y-56966645D01*
X162757379Y-56916403D01*
X162757372Y-56916401D01*
X162697844Y-56910000D01*
X162050000Y-56910000D01*
X162050000Y-57826988D01*
X161992993Y-57794075D01*
X161865826Y-57760000D01*
X161734174Y-57760000D01*
X161607007Y-57794075D01*
X161550000Y-57826988D01*
X161550000Y-56910000D01*
X160902155Y-56910000D01*
X160842627Y-56916401D01*
X160842620Y-56916403D01*
X160707913Y-56966645D01*
X160707906Y-56966649D01*
X160592812Y-57052809D01*
X160592809Y-57052812D01*
X160506649Y-57167906D01*
X160506645Y-57167913D01*
X160456403Y-57302620D01*
X160456401Y-57302627D01*
X160450000Y-57362155D01*
X153051500Y-57362155D01*
X153051500Y-49515067D01*
X153071185Y-49448028D01*
X153123989Y-49402273D01*
X153193147Y-49392329D01*
X153256703Y-49421354D01*
X153271355Y-49436404D01*
X153274027Y-49439660D01*
X153420342Y-49585975D01*
X153420345Y-49585977D01*
X153592402Y-49700941D01*
X153783580Y-49780130D01*
X153928052Y-49808867D01*
X153986530Y-49820499D01*
X153986534Y-49820500D01*
X153986535Y-49820500D01*
X154193466Y-49820500D01*
X154193467Y-49820499D01*
X154396420Y-49780130D01*
X154587598Y-49700941D01*
X154759655Y-49585977D01*
X154905977Y-49439655D01*
X155020941Y-49267598D01*
X155089165Y-49102889D01*
X155133004Y-49048488D01*
X155199298Y-49026423D01*
X155266998Y-49043702D01*
X155314609Y-49094839D01*
X155321656Y-49112026D01*
X155378904Y-49288216D01*
X155475375Y-49477550D01*
X155514728Y-49531716D01*
X156147036Y-48899407D01*
X156164075Y-48962993D01*
X156229901Y-49077007D01*
X156322993Y-49170099D01*
X156437007Y-49235925D01*
X156500590Y-49252962D01*
X155868282Y-49885269D01*
X155868282Y-49885270D01*
X155922449Y-49924624D01*
X156111782Y-50021095D01*
X156313870Y-50086757D01*
X156523754Y-50120000D01*
X156736246Y-50120000D01*
X156946127Y-50086757D01*
X156946130Y-50086757D01*
X157148217Y-50021095D01*
X157337554Y-49924622D01*
X157391716Y-49885270D01*
X157391717Y-49885270D01*
X156759408Y-49252962D01*
X156822993Y-49235925D01*
X156937007Y-49170099D01*
X157030099Y-49077007D01*
X157095925Y-48962993D01*
X157112962Y-48899408D01*
X157745270Y-49531717D01*
X157745270Y-49531716D01*
X157784622Y-49477554D01*
X157881095Y-49288217D01*
X157946757Y-49086130D01*
X157946757Y-49086127D01*
X157980000Y-48876246D01*
X157980000Y-48663753D01*
X157946757Y-48453872D01*
X157946757Y-48453869D01*
X157881095Y-48251782D01*
X157784624Y-48062449D01*
X157745270Y-48008282D01*
X157745269Y-48008282D01*
X157112962Y-48640590D01*
X157095925Y-48577007D01*
X157030099Y-48462993D01*
X156937007Y-48369901D01*
X156822993Y-48304075D01*
X156759409Y-48287037D01*
X157391716Y-47654728D01*
X157337550Y-47615375D01*
X157148218Y-47518905D01*
X157110877Y-47506772D01*
X157110877Y-47506771D01*
X156972026Y-47461656D01*
X156914350Y-47422218D01*
X156902304Y-47393713D01*
X160149500Y-47393713D01*
X160149500Y-47606287D01*
X160157172Y-47654727D01*
X160176292Y-47775448D01*
X160182754Y-47816243D01*
X160231286Y-47965609D01*
X160248444Y-48018414D01*
X160344951Y-48207820D01*
X160469890Y-48379786D01*
X160620213Y-48530109D01*
X160792179Y-48655048D01*
X160792181Y-48655049D01*
X160792184Y-48655051D01*
X160981588Y-48751557D01*
X161183757Y-48817246D01*
X161393713Y-48850500D01*
X161393714Y-48850500D01*
X161606286Y-48850500D01*
X161606287Y-48850500D01*
X161816243Y-48817246D01*
X162018412Y-48751557D01*
X162207816Y-48655051D01*
X162275046Y-48606206D01*
X162379786Y-48530109D01*
X162379788Y-48530106D01*
X162379792Y-48530104D01*
X162530104Y-48379792D01*
X162530106Y-48379788D01*
X162530109Y-48379786D01*
X162655048Y-48207820D01*
X162655047Y-48207820D01*
X162655051Y-48207816D01*
X162751557Y-48018412D01*
X162817246Y-47816243D01*
X162850500Y-47606287D01*
X162850500Y-47393713D01*
X162817246Y-47183757D01*
X162751557Y-46981588D01*
X162655051Y-46792184D01*
X162655049Y-46792181D01*
X162655048Y-46792179D01*
X162530109Y-46620213D01*
X162379786Y-46469890D01*
X162207820Y-46344951D01*
X162018414Y-46248444D01*
X162018413Y-46248443D01*
X162018412Y-46248443D01*
X161816243Y-46182754D01*
X161816241Y-46182753D01*
X161816240Y-46182753D01*
X161654957Y-46157208D01*
X161606287Y-46149500D01*
X161393713Y-46149500D01*
X161345042Y-46157208D01*
X161183760Y-46182753D01*
X160981585Y-46248444D01*
X160792179Y-46344951D01*
X160620213Y-46469890D01*
X160469890Y-46620213D01*
X160344951Y-46792179D01*
X160248444Y-46981585D01*
X160182753Y-47183760D01*
X160173825Y-47240129D01*
X160149500Y-47393713D01*
X156902304Y-47393713D01*
X156887152Y-47357860D01*
X156899067Y-47289013D01*
X156946311Y-47237538D01*
X156962882Y-47229168D01*
X157127598Y-47160941D01*
X157299655Y-47045977D01*
X157445977Y-46899655D01*
X157560941Y-46727598D01*
X157640130Y-46536420D01*
X157680500Y-46333465D01*
X157680500Y-46126535D01*
X157640130Y-45923580D01*
X157560941Y-45732402D01*
X157445977Y-45560345D01*
X157445975Y-45560342D01*
X157299657Y-45414024D01*
X157153772Y-45316548D01*
X157127598Y-45299059D01*
X156936420Y-45219870D01*
X156936412Y-45219868D01*
X156733469Y-45179500D01*
X156733465Y-45179500D01*
X156526535Y-45179500D01*
X156526530Y-45179500D01*
X156323587Y-45219868D01*
X156323579Y-45219870D01*
X156132403Y-45299058D01*
X155960342Y-45414024D01*
X155814024Y-45560342D01*
X155699058Y-45732403D01*
X155619870Y-45923579D01*
X155619868Y-45923587D01*
X155579500Y-46126530D01*
X155579500Y-46333469D01*
X155619868Y-46536412D01*
X155619870Y-46536420D01*
X155685939Y-46695925D01*
X155699059Y-46727598D01*
X155712836Y-46748217D01*
X155814024Y-46899657D01*
X155960342Y-47045975D01*
X156132405Y-47160943D01*
X156224115Y-47198930D01*
X156297108Y-47229164D01*
X156351511Y-47273005D01*
X156373576Y-47339299D01*
X156356297Y-47406998D01*
X156305160Y-47454609D01*
X156287974Y-47461656D01*
X156111781Y-47518905D01*
X155922439Y-47615380D01*
X155868282Y-47654727D01*
X155868282Y-47654728D01*
X156500591Y-48287037D01*
X156437007Y-48304075D01*
X156322993Y-48369901D01*
X156229901Y-48462993D01*
X156164075Y-48577007D01*
X156147037Y-48640591D01*
X155514728Y-48008282D01*
X155514727Y-48008282D01*
X155475380Y-48062439D01*
X155378905Y-48251781D01*
X155321656Y-48427974D01*
X155282218Y-48485649D01*
X155217859Y-48512847D01*
X155149013Y-48500932D01*
X155097537Y-48453688D01*
X155089164Y-48437107D01*
X155020943Y-48272405D01*
X154905975Y-48100342D01*
X154759657Y-47954024D01*
X154673626Y-47896541D01*
X154587598Y-47839059D01*
X154587593Y-47839057D01*
X154396420Y-47759870D01*
X154396412Y-47759868D01*
X154193469Y-47719500D01*
X154193465Y-47719500D01*
X153986535Y-47719500D01*
X153986530Y-47719500D01*
X153783587Y-47759868D01*
X153783579Y-47759870D01*
X153592403Y-47839058D01*
X153420342Y-47954024D01*
X153274024Y-48100342D01*
X153271350Y-48103601D01*
X153248184Y-48119378D01*
X153227011Y-48137726D01*
X153219704Y-48138776D01*
X153213602Y-48142933D01*
X153185589Y-48143681D01*
X153157853Y-48147670D01*
X153151136Y-48144602D01*
X153143758Y-48144800D01*
X153119789Y-48130286D01*
X153094297Y-48118645D01*
X153090305Y-48112434D01*
X153083991Y-48108611D01*
X153071673Y-48083441D01*
X153056523Y-48059867D01*
X153055019Y-48049412D01*
X153053278Y-48045853D01*
X153051500Y-48024932D01*
X153051500Y-47780188D01*
X153071185Y-47713149D01*
X153087815Y-47692511D01*
X153552895Y-47227430D01*
X153614218Y-47193946D01*
X153683910Y-47198930D01*
X153688023Y-47200548D01*
X153783580Y-47240130D01*
X153948855Y-47273005D01*
X153986530Y-47280499D01*
X153986534Y-47280500D01*
X153986535Y-47280500D01*
X154193466Y-47280500D01*
X154193467Y-47280499D01*
X154396420Y-47240130D01*
X154587598Y-47160941D01*
X154759655Y-47045977D01*
X154905977Y-46899655D01*
X155020941Y-46727598D01*
X155100130Y-46536420D01*
X155140500Y-46333465D01*
X155140500Y-46126535D01*
X155100130Y-45923580D01*
X155020941Y-45732402D01*
X154905977Y-45560345D01*
X154905975Y-45560342D01*
X154759657Y-45414024D01*
X154613772Y-45316548D01*
X154587598Y-45299059D01*
X154396420Y-45219870D01*
X154396412Y-45219868D01*
X154193469Y-45179500D01*
X154193465Y-45179500D01*
X153986535Y-45179500D01*
X153986530Y-45179500D01*
X153783587Y-45219868D01*
X153783579Y-45219870D01*
X153592403Y-45299058D01*
X153420342Y-45414024D01*
X153274024Y-45560342D01*
X153159058Y-45732403D01*
X153079870Y-45923579D01*
X153079868Y-45923587D01*
X153039500Y-46126530D01*
X153039500Y-46333469D01*
X153079868Y-46536412D01*
X153079870Y-46536420D01*
X153119448Y-46631969D01*
X153126917Y-46701438D01*
X153095642Y-46763918D01*
X153092568Y-46767103D01*
X152465537Y-47394135D01*
X152465533Y-47394141D01*
X152422681Y-47468361D01*
X152422682Y-47468362D01*
X152400500Y-47551147D01*
X152400500Y-47842871D01*
X152380815Y-47909910D01*
X152328011Y-47955665D01*
X152258853Y-47965609D01*
X152207610Y-47945974D01*
X152093148Y-47869494D01*
X152047598Y-47839059D01*
X152047593Y-47839057D01*
X151856420Y-47759870D01*
X151856412Y-47759868D01*
X151653469Y-47719500D01*
X151653465Y-47719500D01*
X151446535Y-47719500D01*
X151446530Y-47719500D01*
X151243587Y-47759868D01*
X151243579Y-47759870D01*
X151052403Y-47839058D01*
X150880342Y-47954024D01*
X150734024Y-48100342D01*
X150619058Y-48272403D01*
X150539870Y-48463579D01*
X150539868Y-48463587D01*
X150499500Y-48666530D01*
X150499500Y-48873469D01*
X150539868Y-49076412D01*
X150539870Y-49076420D01*
X150605939Y-49235925D01*
X150619059Y-49267598D01*
X150632836Y-49288217D01*
X150734024Y-49439657D01*
X150880342Y-49585975D01*
X150880345Y-49585977D01*
X151052402Y-49700941D01*
X151243580Y-49780130D01*
X151388052Y-49808867D01*
X151446530Y-49820499D01*
X151446534Y-49820500D01*
X151446535Y-49820500D01*
X151653466Y-49820500D01*
X151653467Y-49820499D01*
X151856420Y-49780130D01*
X152047598Y-49700941D01*
X152047599Y-49700940D01*
X152047600Y-49700940D01*
X152207610Y-49594026D01*
X152274287Y-49573148D01*
X152341667Y-49591633D01*
X152388357Y-49643612D01*
X152400500Y-49697128D01*
X152400500Y-50618390D01*
X152380815Y-50685429D01*
X152328011Y-50731184D01*
X152258853Y-50741128D01*
X152195297Y-50712103D01*
X152173398Y-50687281D01*
X152105276Y-50585331D01*
X152105273Y-50585327D01*
X152014672Y-50494726D01*
X152014668Y-50494723D01*
X151908133Y-50423538D01*
X151908124Y-50423533D01*
X151789744Y-50374499D01*
X151789738Y-50374497D01*
X151664071Y-50349500D01*
X151664069Y-50349500D01*
X151535931Y-50349500D01*
X151535929Y-50349500D01*
X151410261Y-50374497D01*
X151410255Y-50374499D01*
X151291875Y-50423533D01*
X151291866Y-50423538D01*
X151185331Y-50494723D01*
X151185327Y-50494726D01*
X151094726Y-50585327D01*
X151094723Y-50585331D01*
X151023538Y-50691866D01*
X151023533Y-50691875D01*
X150974499Y-50810255D01*
X150974497Y-50810261D01*
X150949500Y-50935928D01*
X150949500Y-50935931D01*
X150949500Y-51064069D01*
X150949500Y-51064071D01*
X150949499Y-51064071D01*
X150957491Y-51104243D01*
X150951264Y-51173834D01*
X150923555Y-51216116D01*
X130861537Y-71278135D01*
X130861533Y-71278141D01*
X130818681Y-71352361D01*
X130818682Y-71352362D01*
X130796500Y-71435147D01*
X130796500Y-77191807D01*
X130776815Y-77258846D01*
X130760181Y-77279488D01*
X129816116Y-78223552D01*
X129754793Y-78257037D01*
X129704243Y-78257488D01*
X129664071Y-78249497D01*
X129664069Y-78249497D01*
X129535931Y-78249497D01*
X129535929Y-78249497D01*
X129410261Y-78274494D01*
X129410255Y-78274496D01*
X129291875Y-78323530D01*
X129291866Y-78323535D01*
X129185331Y-78394720D01*
X129185327Y-78394723D01*
X129094726Y-78485324D01*
X129094723Y-78485328D01*
X129023538Y-78591863D01*
X129023533Y-78591872D01*
X128974499Y-78710252D01*
X128974497Y-78710258D01*
X128949500Y-78835925D01*
X128949500Y-78835927D01*
X128949500Y-78835928D01*
X128949500Y-78964066D01*
X128949500Y-78964068D01*
X128949499Y-78964068D01*
X100500000Y-78964068D01*
X100500000Y-77864071D01*
X106949499Y-77864071D01*
X106974497Y-77989738D01*
X106974499Y-77989744D01*
X107023533Y-78108124D01*
X107023538Y-78108133D01*
X107094723Y-78214668D01*
X107094726Y-78214672D01*
X107185327Y-78305273D01*
X107185331Y-78305276D01*
X107291866Y-78376461D01*
X107291872Y-78376464D01*
X107291873Y-78376465D01*
X107410256Y-78425501D01*
X107410260Y-78425501D01*
X107410261Y-78425502D01*
X107535928Y-78450500D01*
X107535931Y-78450500D01*
X107664071Y-78450500D01*
X107748615Y-78433682D01*
X107789744Y-78425501D01*
X107908127Y-78376465D01*
X108014669Y-78305276D01*
X108105276Y-78214669D01*
X108128034Y-78180608D01*
X108181645Y-78135805D01*
X108231136Y-78125500D01*
X127940281Y-78125500D01*
X127940283Y-78125500D01*
X128023069Y-78103318D01*
X128097292Y-78060465D01*
X130365652Y-75792102D01*
X130365657Y-75792099D01*
X130375860Y-75781895D01*
X130375862Y-75781895D01*
X130436465Y-75721292D01*
X130479318Y-75647068D01*
X130480447Y-75642853D01*
X130501501Y-75564283D01*
X130501501Y-75478577D01*
X130501500Y-75478573D01*
X130501500Y-72533147D01*
X130479318Y-72450362D01*
X130479318Y-72450361D01*
X130436465Y-72376138D01*
X129676444Y-71616117D01*
X129642959Y-71554794D01*
X129642508Y-71504245D01*
X129650500Y-71464069D01*
X129650500Y-71335931D01*
X129650500Y-71335928D01*
X129625502Y-71210261D01*
X129625501Y-71210260D01*
X129625501Y-71210256D01*
X129576465Y-71091873D01*
X129576464Y-71091872D01*
X129576461Y-71091866D01*
X129505276Y-70985331D01*
X129505273Y-70985327D01*
X129414672Y-70894726D01*
X129414668Y-70894723D01*
X129308133Y-70823538D01*
X129308124Y-70823533D01*
X129189744Y-70774499D01*
X129189738Y-70774497D01*
X129064071Y-70749500D01*
X129064069Y-70749500D01*
X128935931Y-70749500D01*
X128935926Y-70749500D01*
X128895754Y-70757491D01*
X128826163Y-70751264D01*
X128783882Y-70723555D01*
X127961819Y-69901492D01*
X127928334Y-69840169D01*
X127925500Y-69813811D01*
X127925500Y-51231135D01*
X127945185Y-51164096D01*
X127980609Y-51128033D01*
X128014669Y-51105276D01*
X128105276Y-51014669D01*
X128176465Y-50908127D01*
X128225501Y-50789744D01*
X128244402Y-50694724D01*
X128250500Y-50664071D01*
X128250500Y-50535928D01*
X128225502Y-50410261D01*
X128225501Y-50410260D01*
X128225501Y-50410256D01*
X128176465Y-50291873D01*
X128176464Y-50291872D01*
X128176461Y-50291866D01*
X128105276Y-50185331D01*
X128105273Y-50185327D01*
X128014672Y-50094726D01*
X128014668Y-50094723D01*
X127908133Y-50023538D01*
X127908124Y-50023533D01*
X127789744Y-49974499D01*
X127789738Y-49974497D01*
X127664071Y-49949500D01*
X127664069Y-49949500D01*
X127535931Y-49949500D01*
X127535929Y-49949500D01*
X127410261Y-49974497D01*
X127410255Y-49974499D01*
X127291875Y-50023533D01*
X127291866Y-50023538D01*
X127185331Y-50094723D01*
X127185327Y-50094726D01*
X127094726Y-50185327D01*
X127094723Y-50185331D01*
X127023538Y-50291866D01*
X127023533Y-50291875D01*
X126974499Y-50410255D01*
X126974497Y-50410261D01*
X126949500Y-50535928D01*
X126949500Y-50535931D01*
X126949500Y-50664069D01*
X126949500Y-50664071D01*
X126949499Y-50664071D01*
X126974497Y-50789738D01*
X126974499Y-50789744D01*
X127023533Y-50908124D01*
X127023538Y-50908133D01*
X127094723Y-51014668D01*
X127094726Y-51014672D01*
X127185325Y-51105271D01*
X127185330Y-51105275D01*
X127185331Y-51105276D01*
X127219389Y-51128033D01*
X127264195Y-51181643D01*
X127274500Y-51231135D01*
X127274500Y-69957147D01*
X127274500Y-70042853D01*
X127276549Y-70050500D01*
X127296682Y-70125640D01*
X127318108Y-70162750D01*
X127339535Y-70199862D01*
X127339537Y-70199864D01*
X128323555Y-71183882D01*
X128357040Y-71245205D01*
X128357491Y-71295754D01*
X128349500Y-71335926D01*
X128349500Y-71335931D01*
X128349500Y-71464069D01*
X128349500Y-71464071D01*
X128349499Y-71464071D01*
X128374497Y-71589738D01*
X128374499Y-71589744D01*
X128423533Y-71708124D01*
X128423538Y-71708133D01*
X128494723Y-71814668D01*
X128494726Y-71814672D01*
X128585327Y-71905273D01*
X128585331Y-71905276D01*
X128691866Y-71976461D01*
X128691872Y-71976464D01*
X128691873Y-71976465D01*
X128810256Y-72025501D01*
X128810260Y-72025501D01*
X128810261Y-72025502D01*
X128935928Y-72050500D01*
X128935931Y-72050500D01*
X129064069Y-72050500D01*
X129104243Y-72042508D01*
X129173833Y-72048734D01*
X129216117Y-72076444D01*
X129814181Y-72674508D01*
X129847666Y-72735831D01*
X129850500Y-72762189D01*
X129850500Y-74496928D01*
X129830815Y-74563967D01*
X129778011Y-74609722D01*
X129708853Y-74619666D01*
X129679048Y-74611489D01*
X129589748Y-74574500D01*
X129589738Y-74574497D01*
X129464071Y-74549500D01*
X129464069Y-74549500D01*
X129335931Y-74549500D01*
X129335929Y-74549500D01*
X129210261Y-74574497D01*
X129210255Y-74574499D01*
X129091875Y-74623533D01*
X129091866Y-74623538D01*
X128985331Y-74694723D01*
X128985327Y-74694726D01*
X128894725Y-74785328D01*
X128880155Y-74807133D01*
X128871965Y-74819391D01*
X128865875Y-74824481D01*
X128862577Y-74831703D01*
X128839448Y-74846566D01*
X128818355Y-74864195D01*
X128808980Y-74866146D01*
X128803799Y-74869477D01*
X128768864Y-74874500D01*
X128719397Y-74874500D01*
X128652358Y-74854815D01*
X128631716Y-74838181D01*
X122761819Y-68968284D01*
X122728334Y-68906961D01*
X122725500Y-68880603D01*
X122725500Y-51831135D01*
X122745185Y-51764096D01*
X122780609Y-51728033D01*
X122814669Y-51705276D01*
X122905276Y-51614669D01*
X122976465Y-51508127D01*
X123025501Y-51389744D01*
X123045469Y-51289360D01*
X123050500Y-51264071D01*
X123050500Y-51135928D01*
X123025502Y-51010261D01*
X123025501Y-51010260D01*
X123025501Y-51010256D01*
X122976465Y-50891873D01*
X122976464Y-50891872D01*
X122976461Y-50891866D01*
X122905276Y-50785331D01*
X122905273Y-50785327D01*
X122814672Y-50694726D01*
X122814668Y-50694723D01*
X122708133Y-50623538D01*
X122708124Y-50623533D01*
X122589744Y-50574499D01*
X122589738Y-50574497D01*
X122464071Y-50549500D01*
X122464069Y-50549500D01*
X122335931Y-50549500D01*
X122335929Y-50549500D01*
X122210261Y-50574497D01*
X122210255Y-50574499D01*
X122091875Y-50623533D01*
X122091866Y-50623538D01*
X121985331Y-50694723D01*
X121985327Y-50694726D01*
X121894726Y-50785327D01*
X121894723Y-50785331D01*
X121823538Y-50891866D01*
X121823533Y-50891875D01*
X121774499Y-51010255D01*
X121774497Y-51010261D01*
X121749500Y-51135928D01*
X121749500Y-51135931D01*
X121749500Y-51264069D01*
X121749500Y-51264071D01*
X121749499Y-51264071D01*
X121774497Y-51389738D01*
X121774499Y-51389744D01*
X121823533Y-51508124D01*
X121823538Y-51508133D01*
X121894723Y-51614668D01*
X121894726Y-51614672D01*
X121985325Y-51705271D01*
X121985330Y-51705275D01*
X121985331Y-51705276D01*
X122019389Y-51728033D01*
X122064195Y-51781643D01*
X122074500Y-51831135D01*
X122074500Y-69109644D01*
X122096682Y-69192432D01*
X122106973Y-69210256D01*
X122139535Y-69266654D01*
X128333346Y-75460465D01*
X128407569Y-75503318D01*
X128490355Y-75525500D01*
X128768864Y-75525500D01*
X128835903Y-75545185D01*
X128871965Y-75580608D01*
X128886228Y-75601954D01*
X128894725Y-75614671D01*
X128985327Y-75705273D01*
X128985331Y-75705276D01*
X129091866Y-75776461D01*
X129091875Y-75776466D01*
X129181177Y-75813456D01*
X129235580Y-75857297D01*
X129257645Y-75923591D01*
X129240366Y-75991290D01*
X129221405Y-76015698D01*
X127798922Y-77438181D01*
X127737599Y-77471666D01*
X127711241Y-77474500D01*
X108231136Y-77474500D01*
X108164097Y-77454815D01*
X108128034Y-77419391D01*
X108105276Y-77385331D01*
X108105274Y-77385328D01*
X108014672Y-77294726D01*
X108014668Y-77294723D01*
X107908133Y-77223538D01*
X107908124Y-77223533D01*
X107789744Y-77174499D01*
X107789738Y-77174497D01*
X107664071Y-77149500D01*
X107664069Y-77149500D01*
X107535931Y-77149500D01*
X107535929Y-77149500D01*
X107410261Y-77174497D01*
X107410255Y-77174499D01*
X107291875Y-77223533D01*
X107291866Y-77223538D01*
X107185331Y-77294723D01*
X107185327Y-77294726D01*
X107094726Y-77385327D01*
X107094723Y-77385331D01*
X107023538Y-77491866D01*
X107023533Y-77491875D01*
X106974499Y-77610255D01*
X106974497Y-77610261D01*
X106949500Y-77735928D01*
X106949500Y-77735931D01*
X106949500Y-77864069D01*
X106949500Y-77864071D01*
X106949499Y-77864071D01*
X100500000Y-77864071D01*
X100500000Y-61464071D01*
X105749499Y-61464071D01*
X105774497Y-61589738D01*
X105774499Y-61589744D01*
X105823533Y-61708124D01*
X105823538Y-61708133D01*
X105894723Y-61814668D01*
X105894726Y-61814672D01*
X105985325Y-61905271D01*
X105985330Y-61905275D01*
X105985331Y-61905276D01*
X106019389Y-61928033D01*
X106064195Y-61981643D01*
X106074500Y-62031135D01*
X106074500Y-63368863D01*
X106054815Y-63435902D01*
X106019392Y-63471965D01*
X105985327Y-63494726D01*
X105894726Y-63585327D01*
X105894723Y-63585331D01*
X105823538Y-63691866D01*
X105823533Y-63691875D01*
X105774499Y-63810255D01*
X105774497Y-63810261D01*
X105749500Y-63935928D01*
X105749500Y-63935931D01*
X105749500Y-64064069D01*
X105749500Y-64064071D01*
X105749499Y-64064071D01*
X105774497Y-64189738D01*
X105774499Y-64189744D01*
X105823533Y-64308124D01*
X105823538Y-64308133D01*
X105894723Y-64414668D01*
X105894726Y-64414672D01*
X105985327Y-64505273D01*
X105985331Y-64505276D01*
X106091866Y-64576461D01*
X106091872Y-64576464D01*
X106091873Y-64576465D01*
X106210256Y-64625501D01*
X106210260Y-64625501D01*
X106210261Y-64625502D01*
X106335928Y-64650500D01*
X106335931Y-64650500D01*
X106464071Y-64650500D01*
X106548615Y-64633682D01*
X106589744Y-64625501D01*
X106708127Y-64576465D01*
X106814669Y-64505276D01*
X106905276Y-64414669D01*
X106976465Y-64308127D01*
X107025501Y-64189744D01*
X107050500Y-64064069D01*
X107050500Y-63935931D01*
X107050500Y-63935928D01*
X107025502Y-63810261D01*
X107025501Y-63810260D01*
X107025501Y-63810256D01*
X106976465Y-63691873D01*
X106976464Y-63691872D01*
X106976461Y-63691866D01*
X106905276Y-63585331D01*
X106905273Y-63585327D01*
X106814672Y-63494726D01*
X106780608Y-63471965D01*
X106735804Y-63418352D01*
X106725500Y-63368863D01*
X106725500Y-62031135D01*
X106745185Y-61964096D01*
X106780609Y-61928033D01*
X106814669Y-61905276D01*
X106905276Y-61814669D01*
X106976465Y-61708127D01*
X107025501Y-61589744D01*
X107033682Y-61548615D01*
X107050500Y-61464071D01*
X107050500Y-61335928D01*
X107025502Y-61210261D01*
X107025501Y-61210260D01*
X107025501Y-61210256D01*
X106976465Y-61091873D01*
X106976464Y-61091872D01*
X106976461Y-61091866D01*
X106905276Y-60985331D01*
X106905273Y-60985327D01*
X106814672Y-60894726D01*
X106814668Y-60894723D01*
X106708133Y-60823538D01*
X106708124Y-60823533D01*
X106589744Y-60774499D01*
X106589738Y-60774497D01*
X106464071Y-60749500D01*
X106464069Y-60749500D01*
X106335931Y-60749500D01*
X106335929Y-60749500D01*
X106210261Y-60774497D01*
X106210255Y-60774499D01*
X106091875Y-60823533D01*
X106091866Y-60823538D01*
X105985331Y-60894723D01*
X105985327Y-60894726D01*
X105894726Y-60985327D01*
X105894723Y-60985331D01*
X105823538Y-61091866D01*
X105823533Y-61091875D01*
X105774499Y-61210255D01*
X105774497Y-61210261D01*
X105749500Y-61335928D01*
X105749500Y-61335931D01*
X105749500Y-61464069D01*
X105749500Y-61464071D01*
X105749499Y-61464071D01*
X100500000Y-61464071D01*
X100500000Y-47393713D01*
X102149500Y-47393713D01*
X102149500Y-47606287D01*
X102157172Y-47654727D01*
X102176292Y-47775448D01*
X102182754Y-47816243D01*
X102231286Y-47965609D01*
X102248444Y-48018414D01*
X102344951Y-48207820D01*
X102469890Y-48379786D01*
X102620213Y-48530109D01*
X102792179Y-48655048D01*
X102792181Y-48655049D01*
X102792184Y-48655051D01*
X102981588Y-48751557D01*
X103183757Y-48817246D01*
X103393713Y-48850500D01*
X103393714Y-48850500D01*
X103606286Y-48850500D01*
X103606287Y-48850500D01*
X103816243Y-48817246D01*
X104018412Y-48751557D01*
X104207816Y-48655051D01*
X104275046Y-48606206D01*
X104379786Y-48530109D01*
X104379788Y-48530106D01*
X104379792Y-48530104D01*
X104530104Y-48379792D01*
X104530106Y-48379788D01*
X104530109Y-48379786D01*
X104655048Y-48207820D01*
X104655047Y-48207820D01*
X104655051Y-48207816D01*
X104751557Y-48018412D01*
X104789951Y-47900247D01*
X107319500Y-47900247D01*
X107319500Y-49639752D01*
X107331131Y-49698229D01*
X107331132Y-49698230D01*
X107375447Y-49764552D01*
X107441769Y-49808867D01*
X107441770Y-49808868D01*
X107500247Y-49820499D01*
X107500250Y-49820500D01*
X107500252Y-49820500D01*
X109239750Y-49820500D01*
X109239751Y-49820499D01*
X109254568Y-49817552D01*
X109298229Y-49808868D01*
X109298229Y-49808867D01*
X109298231Y-49808867D01*
X109364552Y-49764552D01*
X109408867Y-49698231D01*
X109408867Y-49698229D01*
X109408868Y-49698229D01*
X109420499Y-49639752D01*
X109420500Y-49639750D01*
X109420500Y-48666530D01*
X109859500Y-48666530D01*
X109859500Y-48873469D01*
X109899868Y-49076412D01*
X109899870Y-49076420D01*
X109965939Y-49235925D01*
X109979059Y-49267598D01*
X109992836Y-49288217D01*
X110094024Y-49439657D01*
X110240342Y-49585975D01*
X110240345Y-49585977D01*
X110412402Y-49700941D01*
X110603580Y-49780130D01*
X110748052Y-49808867D01*
X110806530Y-49820499D01*
X110806534Y-49820500D01*
X110806535Y-49820500D01*
X111013466Y-49820500D01*
X111013467Y-49820499D01*
X111216420Y-49780130D01*
X111407598Y-49700941D01*
X111579655Y-49585977D01*
X111725977Y-49439655D01*
X111840941Y-49267598D01*
X111920130Y-49076420D01*
X111960500Y-48873465D01*
X111960500Y-48666535D01*
X111920130Y-48463580D01*
X111840941Y-48272402D01*
X111725977Y-48100345D01*
X111725975Y-48100342D01*
X111579657Y-47954024D01*
X111493626Y-47896541D01*
X111407598Y-47839059D01*
X111407593Y-47839057D01*
X111216420Y-47759870D01*
X111216412Y-47759868D01*
X111013469Y-47719500D01*
X111013465Y-47719500D01*
X110806535Y-47719500D01*
X110806530Y-47719500D01*
X110603587Y-47759868D01*
X110603579Y-47759870D01*
X110412403Y-47839058D01*
X110240342Y-47954024D01*
X110094024Y-48100342D01*
X109979058Y-48272403D01*
X109899870Y-48463579D01*
X109899868Y-48463587D01*
X109859500Y-48666530D01*
X109420500Y-48666530D01*
X109420500Y-47900249D01*
X109420499Y-47900247D01*
X109408868Y-47841770D01*
X109408867Y-47841769D01*
X109364552Y-47775447D01*
X109298230Y-47731132D01*
X109298229Y-47731131D01*
X109239752Y-47719500D01*
X109239748Y-47719500D01*
X107500252Y-47719500D01*
X107500247Y-47719500D01*
X107441770Y-47731131D01*
X107441769Y-47731132D01*
X107375447Y-47775447D01*
X107331132Y-47841769D01*
X107331131Y-47841770D01*
X107319500Y-47900247D01*
X104789951Y-47900247D01*
X104817246Y-47816243D01*
X104850500Y-47606287D01*
X104850500Y-47393713D01*
X104817246Y-47183757D01*
X104751557Y-46981588D01*
X104655051Y-46792184D01*
X104655049Y-46792181D01*
X104655048Y-46792179D01*
X104530109Y-46620213D01*
X104379786Y-46469890D01*
X104207820Y-46344951D01*
X104018414Y-46248444D01*
X104018413Y-46248443D01*
X104018412Y-46248443D01*
X103816243Y-46182754D01*
X103816241Y-46182753D01*
X103816240Y-46182753D01*
X103654957Y-46157208D01*
X103606287Y-46149500D01*
X103393713Y-46149500D01*
X103345042Y-46157208D01*
X103183760Y-46182753D01*
X102981585Y-46248444D01*
X102792179Y-46344951D01*
X102620213Y-46469890D01*
X102469890Y-46620213D01*
X102344951Y-46792179D01*
X102248444Y-46981585D01*
X102182753Y-47183760D01*
X102173825Y-47240129D01*
X102149500Y-47393713D01*
X100500000Y-47393713D01*
X100500000Y-46126530D01*
X107319500Y-46126530D01*
X107319500Y-46333469D01*
X107359868Y-46536412D01*
X107359870Y-46536420D01*
X107425939Y-46695925D01*
X107439059Y-46727598D01*
X107452836Y-46748217D01*
X107554024Y-46899657D01*
X107700342Y-47045975D01*
X107700345Y-47045977D01*
X107872402Y-47160941D01*
X108063580Y-47240130D01*
X108228855Y-47273005D01*
X108266530Y-47280499D01*
X108266534Y-47280500D01*
X108266535Y-47280500D01*
X108473466Y-47280500D01*
X108473467Y-47280499D01*
X108676420Y-47240130D01*
X108867598Y-47160941D01*
X109039655Y-47045977D01*
X109185977Y-46899655D01*
X109300941Y-46727598D01*
X109380130Y-46536420D01*
X109420500Y-46333465D01*
X109420500Y-46126535D01*
X109420499Y-46126530D01*
X109859500Y-46126530D01*
X109859500Y-46333469D01*
X109899868Y-46536412D01*
X109899870Y-46536420D01*
X109965939Y-46695925D01*
X109979059Y-46727598D01*
X109992836Y-46748217D01*
X110094024Y-46899657D01*
X110240342Y-47045975D01*
X110240345Y-47045977D01*
X110412402Y-47160941D01*
X110603580Y-47240130D01*
X110768855Y-47273005D01*
X110806530Y-47280499D01*
X110806534Y-47280500D01*
X110806535Y-47280500D01*
X111013466Y-47280500D01*
X111013467Y-47280499D01*
X111216420Y-47240130D01*
X111407598Y-47160941D01*
X111579655Y-47045977D01*
X111725977Y-46899655D01*
X111840941Y-46727598D01*
X111909165Y-46562889D01*
X111953004Y-46508488D01*
X112019298Y-46486423D01*
X112086998Y-46503702D01*
X112134609Y-46554839D01*
X112141656Y-46572026D01*
X112198904Y-46748216D01*
X112295375Y-46937550D01*
X112334728Y-46991716D01*
X112967037Y-46359408D01*
X112984075Y-46422993D01*
X113049901Y-46537007D01*
X113142993Y-46630099D01*
X113257007Y-46695925D01*
X113320590Y-46712962D01*
X112688282Y-47345269D01*
X112688282Y-47345270D01*
X112742449Y-47384624D01*
X112931782Y-47481095D01*
X113107973Y-47538343D01*
X113165648Y-47577780D01*
X113192847Y-47642139D01*
X113180932Y-47710985D01*
X113133688Y-47762461D01*
X113117108Y-47770835D01*
X112952403Y-47839057D01*
X112780342Y-47954024D01*
X112634024Y-48100342D01*
X112519058Y-48272403D01*
X112439870Y-48463579D01*
X112439868Y-48463587D01*
X112399500Y-48666530D01*
X112399500Y-48873469D01*
X112439868Y-49076412D01*
X112439870Y-49076420D01*
X112505939Y-49235925D01*
X112519059Y-49267598D01*
X112532836Y-49288217D01*
X112634024Y-49439657D01*
X112780342Y-49585975D01*
X112780345Y-49585977D01*
X112952402Y-49700941D01*
X113143580Y-49780130D01*
X113288052Y-49808867D01*
X113346530Y-49820499D01*
X113346534Y-49820500D01*
X113346535Y-49820500D01*
X113553466Y-49820500D01*
X113553467Y-49820499D01*
X113756420Y-49780130D01*
X113947598Y-49700941D01*
X114119655Y-49585977D01*
X114265977Y-49439655D01*
X114380941Y-49267598D01*
X114460130Y-49076420D01*
X114500500Y-48873465D01*
X114500500Y-48666535D01*
X114500499Y-48666530D01*
X114939500Y-48666530D01*
X114939500Y-48873469D01*
X114979868Y-49076412D01*
X114979870Y-49076420D01*
X115045939Y-49235925D01*
X115059059Y-49267598D01*
X115072836Y-49288217D01*
X115174024Y-49439657D01*
X115320342Y-49585975D01*
X115320345Y-49585977D01*
X115492402Y-49700941D01*
X115683580Y-49780130D01*
X115828052Y-49808867D01*
X115886530Y-49820499D01*
X115886534Y-49820500D01*
X115886535Y-49820500D01*
X116093466Y-49820500D01*
X116093467Y-49820499D01*
X116296420Y-49780130D01*
X116487598Y-49700941D01*
X116659655Y-49585977D01*
X116805977Y-49439655D01*
X116920941Y-49267598D01*
X116989165Y-49102889D01*
X117033004Y-49048488D01*
X117099298Y-49026423D01*
X117166998Y-49043702D01*
X117214609Y-49094839D01*
X117221656Y-49112026D01*
X117278904Y-49288216D01*
X117375375Y-49477550D01*
X117414728Y-49531716D01*
X118047037Y-48899408D01*
X118064075Y-48962993D01*
X118129901Y-49077007D01*
X118222993Y-49170099D01*
X118337007Y-49235925D01*
X118400590Y-49252962D01*
X117768282Y-49885269D01*
X117768282Y-49885270D01*
X117822449Y-49924624D01*
X118011782Y-50021095D01*
X118213870Y-50086757D01*
X118423754Y-50120000D01*
X118636246Y-50120000D01*
X118846127Y-50086757D01*
X118846130Y-50086757D01*
X119048217Y-50021095D01*
X119237554Y-49924622D01*
X119291716Y-49885270D01*
X119291717Y-49885270D01*
X118659408Y-49252962D01*
X118722993Y-49235925D01*
X118837007Y-49170099D01*
X118930099Y-49077007D01*
X118995925Y-48962993D01*
X119012962Y-48899408D01*
X119645270Y-49531717D01*
X119645270Y-49531716D01*
X119684622Y-49477554D01*
X119781095Y-49288217D01*
X119838343Y-49112026D01*
X119877780Y-49054351D01*
X119942139Y-49027152D01*
X120010985Y-49039066D01*
X120062461Y-49086310D01*
X120070835Y-49102891D01*
X120125939Y-49235925D01*
X120139059Y-49267598D01*
X120152836Y-49288217D01*
X120254024Y-49439657D01*
X120400342Y-49585975D01*
X120400345Y-49585977D01*
X120572402Y-49700941D01*
X120763580Y-49780130D01*
X120908052Y-49808867D01*
X120966530Y-49820499D01*
X120966534Y-49820500D01*
X120966535Y-49820500D01*
X121173466Y-49820500D01*
X121173467Y-49820499D01*
X121376420Y-49780130D01*
X121567598Y-49700941D01*
X121739655Y-49585977D01*
X121885977Y-49439655D01*
X122000941Y-49267598D01*
X122080130Y-49076420D01*
X122120500Y-48873465D01*
X122120500Y-48666535D01*
X122080130Y-48463580D01*
X122000941Y-48272402D01*
X121885977Y-48100345D01*
X121885975Y-48100342D01*
X121739657Y-47954024D01*
X121653626Y-47896541D01*
X121567598Y-47839059D01*
X121567593Y-47839057D01*
X121376420Y-47759870D01*
X121376412Y-47759868D01*
X121173469Y-47719500D01*
X121173465Y-47719500D01*
X120966535Y-47719500D01*
X120966530Y-47719500D01*
X120763587Y-47759868D01*
X120763579Y-47759870D01*
X120572403Y-47839058D01*
X120400342Y-47954024D01*
X120254024Y-48100342D01*
X120139057Y-48272403D01*
X120070835Y-48437108D01*
X120026994Y-48491511D01*
X119960700Y-48513576D01*
X119893000Y-48496297D01*
X119845390Y-48445159D01*
X119838343Y-48427973D01*
X119781095Y-48251782D01*
X119684624Y-48062449D01*
X119645270Y-48008282D01*
X119645269Y-48008282D01*
X119012962Y-48640590D01*
X118995925Y-48577007D01*
X118930099Y-48462993D01*
X118837007Y-48369901D01*
X118722993Y-48304075D01*
X118659409Y-48287037D01*
X119291716Y-47654728D01*
X119237550Y-47615375D01*
X119048216Y-47518904D01*
X118872026Y-47461656D01*
X118814350Y-47422218D01*
X118787152Y-47357860D01*
X118799067Y-47289013D01*
X118846311Y-47237538D01*
X118862882Y-47229168D01*
X119027598Y-47160941D01*
X119199655Y-47045977D01*
X119345977Y-46899655D01*
X119460941Y-46727598D01*
X119540130Y-46536420D01*
X119580500Y-46333465D01*
X119580500Y-46126535D01*
X119580499Y-46126530D01*
X120019500Y-46126530D01*
X120019500Y-46333469D01*
X120059868Y-46536412D01*
X120059870Y-46536420D01*
X120125939Y-46695925D01*
X120139059Y-46727598D01*
X120152836Y-46748217D01*
X120254024Y-46899657D01*
X120400342Y-47045975D01*
X120400345Y-47045977D01*
X120572402Y-47160941D01*
X120763580Y-47240130D01*
X120928855Y-47273005D01*
X120966530Y-47280499D01*
X120966534Y-47280500D01*
X120966535Y-47280500D01*
X121173466Y-47280500D01*
X121173467Y-47280499D01*
X121376420Y-47240130D01*
X121567598Y-47160941D01*
X121739655Y-47045977D01*
X121885977Y-46899655D01*
X122000941Y-46727598D01*
X122069165Y-46562889D01*
X122113004Y-46508488D01*
X122179298Y-46486423D01*
X122246998Y-46503702D01*
X122294609Y-46554839D01*
X122301656Y-46572026D01*
X122358904Y-46748216D01*
X122455375Y-46937550D01*
X122494728Y-46991716D01*
X123127037Y-46359408D01*
X123144075Y-46422993D01*
X123209901Y-46537007D01*
X123302993Y-46630099D01*
X123417007Y-46695925D01*
X123480590Y-46712962D01*
X122848282Y-47345269D01*
X122848282Y-47345270D01*
X122902449Y-47384624D01*
X123091782Y-47481095D01*
X123267973Y-47538343D01*
X123325648Y-47577780D01*
X123352847Y-47642139D01*
X123340932Y-47710985D01*
X123293688Y-47762461D01*
X123277108Y-47770835D01*
X123112403Y-47839057D01*
X122940342Y-47954024D01*
X122794024Y-48100342D01*
X122679058Y-48272403D01*
X122599870Y-48463579D01*
X122599868Y-48463587D01*
X122559500Y-48666530D01*
X122559500Y-48873469D01*
X122599868Y-49076412D01*
X122599870Y-49076420D01*
X122665939Y-49235925D01*
X122679059Y-49267598D01*
X122692836Y-49288217D01*
X122794024Y-49439657D01*
X122940342Y-49585975D01*
X122940345Y-49585977D01*
X123112402Y-49700941D01*
X123303580Y-49780130D01*
X123448052Y-49808867D01*
X123506530Y-49820499D01*
X123506534Y-49820500D01*
X123506535Y-49820500D01*
X123713466Y-49820500D01*
X123713467Y-49820499D01*
X123916420Y-49780130D01*
X124107598Y-49700941D01*
X124279655Y-49585977D01*
X124425977Y-49439655D01*
X124540941Y-49267598D01*
X124620130Y-49076420D01*
X124660500Y-48873465D01*
X124660500Y-48666535D01*
X124660499Y-48666530D01*
X125099500Y-48666530D01*
X125099500Y-48873469D01*
X125139868Y-49076412D01*
X125139870Y-49076420D01*
X125205939Y-49235925D01*
X125219059Y-49267598D01*
X125232836Y-49288217D01*
X125334024Y-49439657D01*
X125480342Y-49585975D01*
X125480345Y-49585977D01*
X125652402Y-49700941D01*
X125843580Y-49780130D01*
X125988052Y-49808867D01*
X126046530Y-49820499D01*
X126046534Y-49820500D01*
X126046535Y-49820500D01*
X126253466Y-49820500D01*
X126253467Y-49820499D01*
X126456420Y-49780130D01*
X126647598Y-49700941D01*
X126819655Y-49585977D01*
X126965977Y-49439655D01*
X127080941Y-49267598D01*
X127160130Y-49076420D01*
X127200500Y-48873465D01*
X127200500Y-48666535D01*
X127200499Y-48666530D01*
X127639500Y-48666530D01*
X127639500Y-48873469D01*
X127679868Y-49076412D01*
X127679870Y-49076420D01*
X127745939Y-49235925D01*
X127759059Y-49267598D01*
X127772836Y-49288217D01*
X127874024Y-49439657D01*
X128020342Y-49585975D01*
X128020345Y-49585977D01*
X128192402Y-49700941D01*
X128383580Y-49780130D01*
X128528052Y-49808867D01*
X128586530Y-49820499D01*
X128586534Y-49820500D01*
X128586535Y-49820500D01*
X128793466Y-49820500D01*
X128793467Y-49820499D01*
X128996420Y-49780130D01*
X129187598Y-49700941D01*
X129359655Y-49585977D01*
X129505977Y-49439655D01*
X129620941Y-49267598D01*
X129700130Y-49076420D01*
X129740500Y-48873465D01*
X129740500Y-48666535D01*
X129700130Y-48463580D01*
X129620941Y-48272402D01*
X129505977Y-48100345D01*
X129505975Y-48100342D01*
X129359657Y-47954024D01*
X129273626Y-47896541D01*
X129187598Y-47839059D01*
X129187593Y-47839057D01*
X128996420Y-47759870D01*
X128996412Y-47759868D01*
X128793469Y-47719500D01*
X128793465Y-47719500D01*
X128586535Y-47719500D01*
X128586530Y-47719500D01*
X128383587Y-47759868D01*
X128383579Y-47759870D01*
X128192403Y-47839058D01*
X128020342Y-47954024D01*
X127874024Y-48100342D01*
X127759058Y-48272403D01*
X127679870Y-48463579D01*
X127679868Y-48463587D01*
X127639500Y-48666530D01*
X127200499Y-48666530D01*
X127160130Y-48463580D01*
X127080941Y-48272402D01*
X126965977Y-48100345D01*
X126965975Y-48100342D01*
X126819657Y-47954024D01*
X126733626Y-47896541D01*
X126647598Y-47839059D01*
X126647593Y-47839057D01*
X126456420Y-47759870D01*
X126456412Y-47759868D01*
X126253469Y-47719500D01*
X126253465Y-47719500D01*
X126046535Y-47719500D01*
X126046530Y-47719500D01*
X125843587Y-47759868D01*
X125843579Y-47759870D01*
X125652403Y-47839058D01*
X125480342Y-47954024D01*
X125334024Y-48100342D01*
X125219058Y-48272403D01*
X125139870Y-48463579D01*
X125139868Y-48463587D01*
X125099500Y-48666530D01*
X124660499Y-48666530D01*
X124620130Y-48463580D01*
X124540941Y-48272402D01*
X124425977Y-48100345D01*
X124425975Y-48100342D01*
X124279657Y-47954024D01*
X124193626Y-47896541D01*
X124107598Y-47839059D01*
X124107593Y-47839057D01*
X124045891Y-47813499D01*
X123942890Y-47770834D01*
X123888488Y-47726994D01*
X123866423Y-47660700D01*
X123883702Y-47593001D01*
X123934839Y-47545390D01*
X123952026Y-47538343D01*
X124128217Y-47481095D01*
X124317554Y-47384622D01*
X124371716Y-47345270D01*
X124371717Y-47345270D01*
X123739408Y-46712962D01*
X123802993Y-46695925D01*
X123917007Y-46630099D01*
X124010099Y-46537007D01*
X124075925Y-46422993D01*
X124092962Y-46359409D01*
X124725270Y-46991717D01*
X124725270Y-46991716D01*
X124764622Y-46937554D01*
X124861095Y-46748217D01*
X124918343Y-46572026D01*
X124957780Y-46514351D01*
X125022139Y-46487152D01*
X125090985Y-46499066D01*
X125142461Y-46546310D01*
X125150833Y-46562887D01*
X125178673Y-46630099D01*
X125205939Y-46695925D01*
X125219059Y-46727598D01*
X125232836Y-46748217D01*
X125334024Y-46899657D01*
X125480342Y-47045975D01*
X125480345Y-47045977D01*
X125652402Y-47160941D01*
X125843580Y-47240130D01*
X126008855Y-47273005D01*
X126046530Y-47280499D01*
X126046534Y-47280500D01*
X126046535Y-47280500D01*
X126253466Y-47280500D01*
X126253467Y-47280499D01*
X126456420Y-47240130D01*
X126647598Y-47160941D01*
X126819655Y-47045977D01*
X126965977Y-46899655D01*
X127080941Y-46727598D01*
X127160130Y-46536420D01*
X127200500Y-46333465D01*
X127200500Y-46126535D01*
X127200499Y-46126530D01*
X127639500Y-46126530D01*
X127639500Y-46333469D01*
X127679868Y-46536412D01*
X127679870Y-46536420D01*
X127745939Y-46695925D01*
X127759059Y-46727598D01*
X127772836Y-46748217D01*
X127874024Y-46899657D01*
X128020342Y-47045975D01*
X128020345Y-47045977D01*
X128192402Y-47160941D01*
X128383580Y-47240130D01*
X128548855Y-47273005D01*
X128586530Y-47280499D01*
X128586534Y-47280500D01*
X128586535Y-47280500D01*
X128793466Y-47280500D01*
X128793467Y-47280499D01*
X128996420Y-47240130D01*
X129187598Y-47160941D01*
X129359655Y-47045977D01*
X129505977Y-46899655D01*
X129620941Y-46727598D01*
X129689165Y-46562889D01*
X129733004Y-46508488D01*
X129799298Y-46486423D01*
X129866998Y-46503702D01*
X129914609Y-46554839D01*
X129921656Y-46572026D01*
X129978904Y-46748216D01*
X130075375Y-46937550D01*
X130114728Y-46991716D01*
X130747037Y-46359408D01*
X130764075Y-46422993D01*
X130829901Y-46537007D01*
X130922993Y-46630099D01*
X131037007Y-46695925D01*
X131100590Y-46712962D01*
X130468282Y-47345269D01*
X130468282Y-47345270D01*
X130522449Y-47384624D01*
X130711782Y-47481095D01*
X130887973Y-47538343D01*
X130945648Y-47577780D01*
X130972847Y-47642139D01*
X130960932Y-47710985D01*
X130913688Y-47762461D01*
X130897108Y-47770835D01*
X130732403Y-47839057D01*
X130560342Y-47954024D01*
X130414024Y-48100342D01*
X130299058Y-48272403D01*
X130219870Y-48463579D01*
X130219868Y-48463587D01*
X130179500Y-48666530D01*
X130179500Y-48873469D01*
X130219868Y-49076412D01*
X130219870Y-49076420D01*
X130285939Y-49235925D01*
X130299059Y-49267598D01*
X130312836Y-49288217D01*
X130414024Y-49439657D01*
X130560342Y-49585975D01*
X130560345Y-49585977D01*
X130732402Y-49700941D01*
X130923580Y-49780130D01*
X131068052Y-49808867D01*
X131126530Y-49820499D01*
X131126534Y-49820500D01*
X131126535Y-49820500D01*
X131333466Y-49820500D01*
X131333467Y-49820499D01*
X131536420Y-49780130D01*
X131727598Y-49700941D01*
X131899655Y-49585977D01*
X132045977Y-49439655D01*
X132160941Y-49267598D01*
X132240130Y-49076420D01*
X132280500Y-48873465D01*
X132280500Y-48666535D01*
X132280499Y-48666530D01*
X132719500Y-48666530D01*
X132719500Y-48873469D01*
X132759868Y-49076412D01*
X132759870Y-49076420D01*
X132825939Y-49235925D01*
X132839059Y-49267598D01*
X132852836Y-49288217D01*
X132954024Y-49439657D01*
X133100342Y-49585975D01*
X133100345Y-49585977D01*
X133272402Y-49700941D01*
X133463580Y-49780130D01*
X133608052Y-49808867D01*
X133666530Y-49820499D01*
X133666534Y-49820500D01*
X133666535Y-49820500D01*
X133873466Y-49820500D01*
X133873467Y-49820499D01*
X134076420Y-49780130D01*
X134267598Y-49700941D01*
X134439655Y-49585977D01*
X134585977Y-49439655D01*
X134700941Y-49267598D01*
X134780130Y-49076420D01*
X134820500Y-48873465D01*
X134820500Y-48666535D01*
X134820499Y-48666530D01*
X135259500Y-48666530D01*
X135259500Y-48873469D01*
X135299868Y-49076412D01*
X135299870Y-49076420D01*
X135365939Y-49235925D01*
X135379059Y-49267598D01*
X135392836Y-49288217D01*
X135494024Y-49439657D01*
X135640342Y-49585975D01*
X135640345Y-49585977D01*
X135812402Y-49700941D01*
X136003580Y-49780130D01*
X136148052Y-49808867D01*
X136206530Y-49820499D01*
X136206534Y-49820500D01*
X136206535Y-49820500D01*
X136413466Y-49820500D01*
X136413467Y-49820499D01*
X136616420Y-49780130D01*
X136807598Y-49700941D01*
X136979655Y-49585977D01*
X137125977Y-49439655D01*
X137240941Y-49267598D01*
X137309165Y-49102889D01*
X137353004Y-49048488D01*
X137419298Y-49026423D01*
X137486998Y-49043702D01*
X137534609Y-49094839D01*
X137541656Y-49112026D01*
X137598904Y-49288216D01*
X137695375Y-49477550D01*
X137734728Y-49531716D01*
X138367037Y-48899408D01*
X138384075Y-48962993D01*
X138449901Y-49077007D01*
X138542993Y-49170099D01*
X138657007Y-49235925D01*
X138720590Y-49252962D01*
X138088282Y-49885269D01*
X138088282Y-49885270D01*
X138142449Y-49924624D01*
X138331782Y-50021095D01*
X138533870Y-50086757D01*
X138743754Y-50120000D01*
X138956246Y-50120000D01*
X139166127Y-50086757D01*
X139166130Y-50086757D01*
X139368217Y-50021095D01*
X139557554Y-49924622D01*
X139611716Y-49885270D01*
X139611717Y-49885270D01*
X138979408Y-49252962D01*
X139042993Y-49235925D01*
X139157007Y-49170099D01*
X139250099Y-49077007D01*
X139315925Y-48962993D01*
X139332962Y-48899408D01*
X139965270Y-49531717D01*
X139965270Y-49531716D01*
X140004622Y-49477554D01*
X140101095Y-49288217D01*
X140158343Y-49112026D01*
X140197780Y-49054351D01*
X140262139Y-49027152D01*
X140330985Y-49039066D01*
X140382461Y-49086310D01*
X140390835Y-49102891D01*
X140445939Y-49235925D01*
X140459059Y-49267598D01*
X140472836Y-49288217D01*
X140574024Y-49439657D01*
X140720342Y-49585975D01*
X140720345Y-49585977D01*
X140892402Y-49700941D01*
X141083580Y-49780130D01*
X141228052Y-49808867D01*
X141286530Y-49820499D01*
X141286534Y-49820500D01*
X141286535Y-49820500D01*
X141493466Y-49820500D01*
X141493467Y-49820499D01*
X141696420Y-49780130D01*
X141887598Y-49700941D01*
X142059655Y-49585977D01*
X142205977Y-49439655D01*
X142320941Y-49267598D01*
X142400130Y-49076420D01*
X142440500Y-48873465D01*
X142440500Y-48666535D01*
X142400130Y-48463580D01*
X142320941Y-48272402D01*
X142205977Y-48100345D01*
X142205975Y-48100342D01*
X142059657Y-47954024D01*
X141973626Y-47896541D01*
X141887598Y-47839059D01*
X141887593Y-47839057D01*
X141696420Y-47759870D01*
X141696412Y-47759868D01*
X141493469Y-47719500D01*
X141493465Y-47719500D01*
X141286535Y-47719500D01*
X141286530Y-47719500D01*
X141083587Y-47759868D01*
X141083579Y-47759870D01*
X140892403Y-47839058D01*
X140720342Y-47954024D01*
X140574024Y-48100342D01*
X140459057Y-48272403D01*
X140390835Y-48437108D01*
X140346994Y-48491511D01*
X140280700Y-48513576D01*
X140213000Y-48496297D01*
X140165390Y-48445159D01*
X140158343Y-48427973D01*
X140101095Y-48251782D01*
X140004624Y-48062449D01*
X139965270Y-48008282D01*
X139965269Y-48008282D01*
X139332962Y-48640590D01*
X139315925Y-48577007D01*
X139250099Y-48462993D01*
X139157007Y-48369901D01*
X139042993Y-48304075D01*
X138979409Y-48287037D01*
X139611716Y-47654728D01*
X139557550Y-47615375D01*
X139368216Y-47518904D01*
X139192026Y-47461656D01*
X139134350Y-47422218D01*
X139107152Y-47357860D01*
X139119067Y-47289013D01*
X139166311Y-47237538D01*
X139182882Y-47229168D01*
X139347598Y-47160941D01*
X139519655Y-47045977D01*
X139665977Y-46899655D01*
X139780941Y-46727598D01*
X139860130Y-46536420D01*
X139900500Y-46333465D01*
X139900500Y-46126535D01*
X139900499Y-46126530D01*
X140339500Y-46126530D01*
X140339500Y-46333469D01*
X140379868Y-46536412D01*
X140379870Y-46536420D01*
X140445939Y-46695925D01*
X140459059Y-46727598D01*
X140472836Y-46748217D01*
X140574024Y-46899657D01*
X140720342Y-47045975D01*
X140720345Y-47045977D01*
X140892402Y-47160941D01*
X141083580Y-47240130D01*
X141248855Y-47273005D01*
X141286530Y-47280499D01*
X141286534Y-47280500D01*
X141286535Y-47280500D01*
X141493466Y-47280500D01*
X141493467Y-47280499D01*
X141696420Y-47240130D01*
X141887598Y-47160941D01*
X142059655Y-47045977D01*
X142205977Y-46899655D01*
X142320941Y-46727598D01*
X142389165Y-46562889D01*
X142433004Y-46508488D01*
X142499298Y-46486423D01*
X142566998Y-46503702D01*
X142614609Y-46554839D01*
X142621656Y-46572026D01*
X142678904Y-46748216D01*
X142775375Y-46937550D01*
X142814728Y-46991716D01*
X143447036Y-46359407D01*
X143464075Y-46422993D01*
X143529901Y-46537007D01*
X143622993Y-46630099D01*
X143737007Y-46695925D01*
X143800590Y-46712962D01*
X143168282Y-47345269D01*
X143168282Y-47345270D01*
X143222449Y-47384624D01*
X143411782Y-47481095D01*
X143587973Y-47538343D01*
X143645648Y-47577780D01*
X143672847Y-47642139D01*
X143660932Y-47710985D01*
X143613688Y-47762461D01*
X143597108Y-47770835D01*
X143432403Y-47839057D01*
X143260342Y-47954024D01*
X143114024Y-48100342D01*
X142999058Y-48272403D01*
X142919870Y-48463579D01*
X142919868Y-48463587D01*
X142879500Y-48666530D01*
X142879500Y-48873469D01*
X142919868Y-49076412D01*
X142919870Y-49076420D01*
X142985939Y-49235925D01*
X142999059Y-49267598D01*
X143012836Y-49288217D01*
X143114024Y-49439657D01*
X143260342Y-49585975D01*
X143260345Y-49585977D01*
X143432402Y-49700941D01*
X143623580Y-49780130D01*
X143768052Y-49808867D01*
X143826530Y-49820499D01*
X143826534Y-49820500D01*
X143826535Y-49820500D01*
X144033466Y-49820500D01*
X144033467Y-49820499D01*
X144236420Y-49780130D01*
X144427598Y-49700941D01*
X144599655Y-49585977D01*
X144745977Y-49439655D01*
X144860941Y-49267598D01*
X144940130Y-49076420D01*
X144980500Y-48873465D01*
X144980500Y-48666535D01*
X144980499Y-48666530D01*
X145419500Y-48666530D01*
X145419500Y-48873469D01*
X145459868Y-49076412D01*
X145459870Y-49076420D01*
X145525939Y-49235925D01*
X145539059Y-49267598D01*
X145552836Y-49288217D01*
X145654024Y-49439657D01*
X145800342Y-49585975D01*
X145800345Y-49585977D01*
X145972402Y-49700941D01*
X146163580Y-49780130D01*
X146308052Y-49808867D01*
X146366530Y-49820499D01*
X146366534Y-49820500D01*
X146366535Y-49820500D01*
X146573466Y-49820500D01*
X146573467Y-49820499D01*
X146776420Y-49780130D01*
X146967598Y-49700941D01*
X147139655Y-49585977D01*
X147285977Y-49439655D01*
X147400941Y-49267598D01*
X147480130Y-49076420D01*
X147520500Y-48873465D01*
X147520500Y-48666535D01*
X147480130Y-48463580D01*
X147400941Y-48272402D01*
X147285977Y-48100345D01*
X147285975Y-48100342D01*
X147139657Y-47954024D01*
X147053626Y-47896541D01*
X146967598Y-47839059D01*
X146967593Y-47839057D01*
X146776420Y-47759870D01*
X146776412Y-47759868D01*
X146573469Y-47719500D01*
X146573465Y-47719500D01*
X146366535Y-47719500D01*
X146366530Y-47719500D01*
X146163587Y-47759868D01*
X146163579Y-47759870D01*
X145972403Y-47839058D01*
X145800342Y-47954024D01*
X145654024Y-48100342D01*
X145539058Y-48272403D01*
X145459870Y-48463579D01*
X145459868Y-48463587D01*
X145419500Y-48666530D01*
X144980499Y-48666530D01*
X144940130Y-48463580D01*
X144860941Y-48272402D01*
X144745977Y-48100345D01*
X144745975Y-48100342D01*
X144599657Y-47954024D01*
X144513626Y-47896541D01*
X144427598Y-47839059D01*
X144427593Y-47839057D01*
X144365891Y-47813499D01*
X144262890Y-47770834D01*
X144208488Y-47726994D01*
X144186423Y-47660700D01*
X144203702Y-47593001D01*
X144254839Y-47545390D01*
X144272026Y-47538343D01*
X144448217Y-47481095D01*
X144637554Y-47384622D01*
X144691716Y-47345270D01*
X144691717Y-47345270D01*
X144059408Y-46712962D01*
X144122993Y-46695925D01*
X144237007Y-46630099D01*
X144330099Y-46537007D01*
X144395925Y-46422993D01*
X144412962Y-46359408D01*
X145045270Y-46991717D01*
X145045270Y-46991716D01*
X145084622Y-46937554D01*
X145181095Y-46748217D01*
X145238343Y-46572026D01*
X145277780Y-46514351D01*
X145342139Y-46487152D01*
X145410985Y-46499066D01*
X145462461Y-46546310D01*
X145470833Y-46562887D01*
X145498673Y-46630099D01*
X145525939Y-46695925D01*
X145539059Y-46727598D01*
X145552836Y-46748217D01*
X145654024Y-46899657D01*
X145800342Y-47045975D01*
X145800345Y-47045977D01*
X145972402Y-47160941D01*
X146163580Y-47240130D01*
X146328855Y-47273005D01*
X146366530Y-47280499D01*
X146366534Y-47280500D01*
X146366535Y-47280500D01*
X146573466Y-47280500D01*
X146573467Y-47280499D01*
X146776420Y-47240130D01*
X146967598Y-47160941D01*
X147139655Y-47045977D01*
X147285977Y-46899655D01*
X147400941Y-46727598D01*
X147469165Y-46562889D01*
X147513004Y-46508488D01*
X147579298Y-46486423D01*
X147646998Y-46503702D01*
X147694609Y-46554839D01*
X147701656Y-46572026D01*
X147758904Y-46748216D01*
X147855375Y-46937550D01*
X147894728Y-46991716D01*
X148527036Y-46359407D01*
X148544075Y-46422993D01*
X148609901Y-46537007D01*
X148702993Y-46630099D01*
X148817007Y-46695925D01*
X148880590Y-46712962D01*
X148248282Y-47345269D01*
X148248282Y-47345270D01*
X148302449Y-47384624D01*
X148491782Y-47481095D01*
X148667973Y-47538343D01*
X148725648Y-47577780D01*
X148752847Y-47642139D01*
X148740932Y-47710985D01*
X148693688Y-47762461D01*
X148677108Y-47770835D01*
X148512403Y-47839057D01*
X148340342Y-47954024D01*
X148194024Y-48100342D01*
X148079058Y-48272403D01*
X147999870Y-48463579D01*
X147999868Y-48463587D01*
X147959500Y-48666530D01*
X147959500Y-48873469D01*
X147999868Y-49076412D01*
X147999870Y-49076420D01*
X148065939Y-49235925D01*
X148079059Y-49267598D01*
X148092836Y-49288217D01*
X148194024Y-49439657D01*
X148340342Y-49585975D01*
X148340345Y-49585977D01*
X148512402Y-49700941D01*
X148703580Y-49780130D01*
X148848052Y-49808867D01*
X148906530Y-49820499D01*
X148906534Y-49820500D01*
X148906535Y-49820500D01*
X149113466Y-49820500D01*
X149113467Y-49820499D01*
X149316420Y-49780130D01*
X149507598Y-49700941D01*
X149679655Y-49585977D01*
X149825977Y-49439655D01*
X149940941Y-49267598D01*
X150020130Y-49076420D01*
X150060500Y-48873465D01*
X150060500Y-48666535D01*
X150020130Y-48463580D01*
X149940941Y-48272402D01*
X149825977Y-48100345D01*
X149825975Y-48100342D01*
X149679657Y-47954024D01*
X149593626Y-47896541D01*
X149507598Y-47839059D01*
X149507593Y-47839057D01*
X149445891Y-47813499D01*
X149342890Y-47770834D01*
X149288488Y-47726994D01*
X149266423Y-47660700D01*
X149283702Y-47593001D01*
X149334839Y-47545390D01*
X149352026Y-47538343D01*
X149528217Y-47481095D01*
X149717554Y-47384622D01*
X149771716Y-47345270D01*
X149771717Y-47345270D01*
X149139408Y-46712962D01*
X149202993Y-46695925D01*
X149317007Y-46630099D01*
X149410099Y-46537007D01*
X149475925Y-46422993D01*
X149492962Y-46359408D01*
X150125270Y-46991717D01*
X150125270Y-46991716D01*
X150164622Y-46937554D01*
X150261095Y-46748217D01*
X150318343Y-46572026D01*
X150357780Y-46514351D01*
X150422139Y-46487152D01*
X150490985Y-46499066D01*
X150542461Y-46546310D01*
X150550833Y-46562887D01*
X150578673Y-46630099D01*
X150605939Y-46695925D01*
X150619059Y-46727598D01*
X150632836Y-46748217D01*
X150734024Y-46899657D01*
X150880342Y-47045975D01*
X150880345Y-47045977D01*
X151052402Y-47160941D01*
X151243580Y-47240130D01*
X151408855Y-47273005D01*
X151446530Y-47280499D01*
X151446534Y-47280500D01*
X151446535Y-47280500D01*
X151653466Y-47280500D01*
X151653467Y-47280499D01*
X151856420Y-47240130D01*
X152047598Y-47160941D01*
X152219655Y-47045977D01*
X152365977Y-46899655D01*
X152480941Y-46727598D01*
X152560130Y-46536420D01*
X152600500Y-46333465D01*
X152600500Y-46126535D01*
X152560130Y-45923580D01*
X152480941Y-45732402D01*
X152365977Y-45560345D01*
X152365975Y-45560342D01*
X152219657Y-45414024D01*
X152073772Y-45316548D01*
X152047598Y-45299059D01*
X151856420Y-45219870D01*
X151856412Y-45219868D01*
X151653469Y-45179500D01*
X151653465Y-45179500D01*
X151446535Y-45179500D01*
X151446530Y-45179500D01*
X151243587Y-45219868D01*
X151243579Y-45219870D01*
X151052403Y-45299058D01*
X150880342Y-45414024D01*
X150734024Y-45560342D01*
X150619057Y-45732403D01*
X150550835Y-45897108D01*
X150506994Y-45951511D01*
X150440700Y-45973576D01*
X150373000Y-45956297D01*
X150325390Y-45905159D01*
X150318343Y-45887973D01*
X150261095Y-45711782D01*
X150164624Y-45522449D01*
X150125270Y-45468282D01*
X150125269Y-45468282D01*
X149492962Y-46100590D01*
X149475925Y-46037007D01*
X149410099Y-45922993D01*
X149317007Y-45829901D01*
X149202993Y-45764075D01*
X149139409Y-45747037D01*
X149771716Y-45114728D01*
X149717550Y-45075375D01*
X149528217Y-44978904D01*
X149326129Y-44913242D01*
X149116246Y-44880000D01*
X148903754Y-44880000D01*
X148693872Y-44913242D01*
X148693869Y-44913242D01*
X148491782Y-44978904D01*
X148302439Y-45075380D01*
X148248282Y-45114727D01*
X148248282Y-45114728D01*
X148880591Y-45747037D01*
X148817007Y-45764075D01*
X148702993Y-45829901D01*
X148609901Y-45922993D01*
X148544075Y-46037007D01*
X148527037Y-46100591D01*
X147894728Y-45468282D01*
X147894727Y-45468282D01*
X147855380Y-45522439D01*
X147758905Y-45711781D01*
X147701656Y-45887974D01*
X147662218Y-45945649D01*
X147597859Y-45972847D01*
X147529013Y-45960932D01*
X147477537Y-45913688D01*
X147469164Y-45897107D01*
X147400943Y-45732405D01*
X147285975Y-45560342D01*
X147139657Y-45414024D01*
X146993772Y-45316548D01*
X146967598Y-45299059D01*
X146776420Y-45219870D01*
X146776412Y-45219868D01*
X146573469Y-45179500D01*
X146573465Y-45179500D01*
X146366535Y-45179500D01*
X146366530Y-45179500D01*
X146163587Y-45219868D01*
X146163579Y-45219870D01*
X145972403Y-45299058D01*
X145800342Y-45414024D01*
X145654024Y-45560342D01*
X145539057Y-45732403D01*
X145470835Y-45897108D01*
X145426994Y-45951511D01*
X145360700Y-45973576D01*
X145293000Y-45956297D01*
X145245390Y-45905159D01*
X145238343Y-45887973D01*
X145181095Y-45711782D01*
X145084624Y-45522449D01*
X145045270Y-45468282D01*
X144412962Y-46100590D01*
X144395925Y-46037007D01*
X144330099Y-45922993D01*
X144237007Y-45829901D01*
X144122993Y-45764075D01*
X144059409Y-45747037D01*
X144691716Y-45114728D01*
X144637550Y-45075375D01*
X144448217Y-44978904D01*
X144246129Y-44913242D01*
X144036246Y-44880000D01*
X143823754Y-44880000D01*
X143613872Y-44913242D01*
X143613869Y-44913242D01*
X143411782Y-44978904D01*
X143222439Y-45075380D01*
X143168282Y-45114727D01*
X143168282Y-45114728D01*
X143800591Y-45747037D01*
X143737007Y-45764075D01*
X143622993Y-45829901D01*
X143529901Y-45922993D01*
X143464075Y-46037007D01*
X143447037Y-46100591D01*
X142814728Y-45468282D01*
X142814727Y-45468282D01*
X142775380Y-45522439D01*
X142678905Y-45711781D01*
X142621656Y-45887974D01*
X142582218Y-45945649D01*
X142517859Y-45972847D01*
X142449013Y-45960932D01*
X142397537Y-45913688D01*
X142389164Y-45897107D01*
X142320943Y-45732405D01*
X142205975Y-45560342D01*
X142059657Y-45414024D01*
X141913772Y-45316548D01*
X141887598Y-45299059D01*
X141696420Y-45219870D01*
X141696412Y-45219868D01*
X141493469Y-45179500D01*
X141493465Y-45179500D01*
X141286535Y-45179500D01*
X141286530Y-45179500D01*
X141083587Y-45219868D01*
X141083579Y-45219870D01*
X140892403Y-45299058D01*
X140720342Y-45414024D01*
X140574024Y-45560342D01*
X140459058Y-45732403D01*
X140379870Y-45923579D01*
X140379868Y-45923587D01*
X140339500Y-46126530D01*
X139900499Y-46126530D01*
X139860130Y-45923580D01*
X139780941Y-45732402D01*
X139665977Y-45560345D01*
X139665975Y-45560342D01*
X139519657Y-45414024D01*
X139373772Y-45316548D01*
X139347598Y-45299059D01*
X139156420Y-45219870D01*
X139156412Y-45219868D01*
X138953469Y-45179500D01*
X138953465Y-45179500D01*
X138746535Y-45179500D01*
X138746530Y-45179500D01*
X138543587Y-45219868D01*
X138543579Y-45219870D01*
X138352403Y-45299058D01*
X138180342Y-45414024D01*
X138034024Y-45560342D01*
X137919058Y-45732403D01*
X137839870Y-45923579D01*
X137839868Y-45923587D01*
X137799500Y-46126530D01*
X137799500Y-46333469D01*
X137839868Y-46536412D01*
X137839870Y-46536420D01*
X137905939Y-46695925D01*
X137919059Y-46727598D01*
X137932836Y-46748217D01*
X138034024Y-46899657D01*
X138180342Y-47045975D01*
X138352405Y-47160943D01*
X138444115Y-47198930D01*
X138517108Y-47229164D01*
X138571511Y-47273005D01*
X138593576Y-47339299D01*
X138576297Y-47406998D01*
X138525160Y-47454609D01*
X138507974Y-47461656D01*
X138331781Y-47518905D01*
X138142439Y-47615380D01*
X138088282Y-47654727D01*
X138088282Y-47654728D01*
X138720591Y-48287037D01*
X138657007Y-48304075D01*
X138542993Y-48369901D01*
X138449901Y-48462993D01*
X138384075Y-48577007D01*
X138367037Y-48640591D01*
X137734728Y-48008282D01*
X137734727Y-48008282D01*
X137695380Y-48062439D01*
X137598905Y-48251781D01*
X137541656Y-48427974D01*
X137502218Y-48485649D01*
X137437859Y-48512847D01*
X137369013Y-48500932D01*
X137317537Y-48453688D01*
X137309164Y-48437107D01*
X137240943Y-48272405D01*
X137125975Y-48100342D01*
X136979657Y-47954024D01*
X136893626Y-47896541D01*
X136807598Y-47839059D01*
X136807593Y-47839057D01*
X136616420Y-47759870D01*
X136616412Y-47759868D01*
X136413469Y-47719500D01*
X136413465Y-47719500D01*
X136206535Y-47719500D01*
X136206530Y-47719500D01*
X136003587Y-47759868D01*
X136003579Y-47759870D01*
X135812403Y-47839058D01*
X135640342Y-47954024D01*
X135494024Y-48100342D01*
X135379058Y-48272403D01*
X135299870Y-48463579D01*
X135299868Y-48463587D01*
X135259500Y-48666530D01*
X134820499Y-48666530D01*
X134780130Y-48463580D01*
X134700941Y-48272402D01*
X134585977Y-48100345D01*
X134585975Y-48100342D01*
X134439657Y-47954024D01*
X134353626Y-47896541D01*
X134267598Y-47839059D01*
X134267593Y-47839057D01*
X134076420Y-47759870D01*
X134076412Y-47759868D01*
X133873469Y-47719500D01*
X133873465Y-47719500D01*
X133666535Y-47719500D01*
X133666530Y-47719500D01*
X133463587Y-47759868D01*
X133463579Y-47759870D01*
X133272403Y-47839058D01*
X133100342Y-47954024D01*
X132954024Y-48100342D01*
X132839058Y-48272403D01*
X132759870Y-48463579D01*
X132759868Y-48463587D01*
X132719500Y-48666530D01*
X132280499Y-48666530D01*
X132240130Y-48463580D01*
X132160941Y-48272402D01*
X132045977Y-48100345D01*
X132045975Y-48100342D01*
X131899657Y-47954024D01*
X131813626Y-47896541D01*
X131727598Y-47839059D01*
X131727593Y-47839057D01*
X131665891Y-47813499D01*
X131562890Y-47770834D01*
X131508488Y-47726994D01*
X131486423Y-47660700D01*
X131503702Y-47593001D01*
X131554839Y-47545390D01*
X131572026Y-47538343D01*
X131748217Y-47481095D01*
X131937554Y-47384622D01*
X131991716Y-47345270D01*
X131991717Y-47345270D01*
X131359408Y-46712962D01*
X131422993Y-46695925D01*
X131537007Y-46630099D01*
X131630099Y-46537007D01*
X131695925Y-46422993D01*
X131712962Y-46359409D01*
X132345270Y-46991717D01*
X132345270Y-46991716D01*
X132384622Y-46937554D01*
X132481095Y-46748217D01*
X132538343Y-46572026D01*
X132577780Y-46514351D01*
X132642139Y-46487152D01*
X132710985Y-46499066D01*
X132762461Y-46546310D01*
X132770833Y-46562887D01*
X132798673Y-46630099D01*
X132825939Y-46695925D01*
X132839059Y-46727598D01*
X132852836Y-46748217D01*
X132954024Y-46899657D01*
X133100342Y-47045975D01*
X133100345Y-47045977D01*
X133272402Y-47160941D01*
X133463580Y-47240130D01*
X133628855Y-47273005D01*
X133666530Y-47280499D01*
X133666534Y-47280500D01*
X133666535Y-47280500D01*
X133873466Y-47280500D01*
X133873467Y-47280499D01*
X134076420Y-47240130D01*
X134267598Y-47160941D01*
X134439655Y-47045977D01*
X134585977Y-46899655D01*
X134700941Y-46727598D01*
X134780130Y-46536420D01*
X134820500Y-46333465D01*
X134820500Y-46126535D01*
X134820499Y-46126530D01*
X135259500Y-46126530D01*
X135259500Y-46333469D01*
X135299868Y-46536412D01*
X135299870Y-46536420D01*
X135365939Y-46695925D01*
X135379059Y-46727598D01*
X135392836Y-46748217D01*
X135494024Y-46899657D01*
X135640342Y-47045975D01*
X135640345Y-47045977D01*
X135812402Y-47160941D01*
X136003580Y-47240130D01*
X136168855Y-47273005D01*
X136206530Y-47280499D01*
X136206534Y-47280500D01*
X136206535Y-47280500D01*
X136413466Y-47280500D01*
X136413467Y-47280499D01*
X136616420Y-47240130D01*
X136807598Y-47160941D01*
X136979655Y-47045977D01*
X137125977Y-46899655D01*
X137240941Y-46727598D01*
X137320130Y-46536420D01*
X137360500Y-46333465D01*
X137360500Y-46126535D01*
X137320130Y-45923580D01*
X137240941Y-45732402D01*
X137125977Y-45560345D01*
X137125975Y-45560342D01*
X136979657Y-45414024D01*
X136833772Y-45316548D01*
X136807598Y-45299059D01*
X136616420Y-45219870D01*
X136616412Y-45219868D01*
X136413469Y-45179500D01*
X136413465Y-45179500D01*
X136206535Y-45179500D01*
X136206530Y-45179500D01*
X136003587Y-45219868D01*
X136003579Y-45219870D01*
X135812403Y-45299058D01*
X135640342Y-45414024D01*
X135494024Y-45560342D01*
X135379058Y-45732403D01*
X135299870Y-45923579D01*
X135299868Y-45923587D01*
X135259500Y-46126530D01*
X134820499Y-46126530D01*
X134780130Y-45923580D01*
X134700941Y-45732402D01*
X134585977Y-45560345D01*
X134585975Y-45560342D01*
X134439657Y-45414024D01*
X134293772Y-45316548D01*
X134267598Y-45299059D01*
X134076420Y-45219870D01*
X134076412Y-45219868D01*
X133873469Y-45179500D01*
X133873465Y-45179500D01*
X133666535Y-45179500D01*
X133666530Y-45179500D01*
X133463587Y-45219868D01*
X133463579Y-45219870D01*
X133272403Y-45299058D01*
X133100342Y-45414024D01*
X132954024Y-45560342D01*
X132839057Y-45732403D01*
X132770835Y-45897108D01*
X132726994Y-45951511D01*
X132660700Y-45973576D01*
X132593000Y-45956297D01*
X132545390Y-45905159D01*
X132538343Y-45887973D01*
X132481095Y-45711782D01*
X132384624Y-45522449D01*
X132345270Y-45468282D01*
X132345269Y-45468282D01*
X131712962Y-46100590D01*
X131695925Y-46037007D01*
X131630099Y-45922993D01*
X131537007Y-45829901D01*
X131422993Y-45764075D01*
X131359409Y-45747037D01*
X131991716Y-45114728D01*
X131937550Y-45075375D01*
X131748217Y-44978904D01*
X131546129Y-44913242D01*
X131336246Y-44880000D01*
X131123754Y-44880000D01*
X130913872Y-44913242D01*
X130913869Y-44913242D01*
X130711782Y-44978904D01*
X130522439Y-45075380D01*
X130468282Y-45114727D01*
X130468282Y-45114728D01*
X131100591Y-45747037D01*
X131037007Y-45764075D01*
X130922993Y-45829901D01*
X130829901Y-45922993D01*
X130764075Y-46037007D01*
X130747037Y-46100591D01*
X130114728Y-45468282D01*
X130114727Y-45468282D01*
X130075380Y-45522439D01*
X129978905Y-45711781D01*
X129921656Y-45887974D01*
X129882218Y-45945649D01*
X129817859Y-45972847D01*
X129749013Y-45960932D01*
X129697537Y-45913688D01*
X129689164Y-45897107D01*
X129620943Y-45732405D01*
X129505975Y-45560342D01*
X129359657Y-45414024D01*
X129213772Y-45316548D01*
X129187598Y-45299059D01*
X128996420Y-45219870D01*
X128996412Y-45219868D01*
X128793469Y-45179500D01*
X128793465Y-45179500D01*
X128586535Y-45179500D01*
X128586530Y-45179500D01*
X128383587Y-45219868D01*
X128383579Y-45219870D01*
X128192403Y-45299058D01*
X128020342Y-45414024D01*
X127874024Y-45560342D01*
X127759058Y-45732403D01*
X127679870Y-45923579D01*
X127679868Y-45923587D01*
X127639500Y-46126530D01*
X127200499Y-46126530D01*
X127160130Y-45923580D01*
X127080941Y-45732402D01*
X126965977Y-45560345D01*
X126965975Y-45560342D01*
X126819657Y-45414024D01*
X126673772Y-45316548D01*
X126647598Y-45299059D01*
X126456420Y-45219870D01*
X126456412Y-45219868D01*
X126253469Y-45179500D01*
X126253465Y-45179500D01*
X126046535Y-45179500D01*
X126046530Y-45179500D01*
X125843587Y-45219868D01*
X125843579Y-45219870D01*
X125652403Y-45299058D01*
X125480342Y-45414024D01*
X125334024Y-45560342D01*
X125219057Y-45732403D01*
X125150835Y-45897108D01*
X125106994Y-45951511D01*
X125040700Y-45973576D01*
X124973000Y-45956297D01*
X124925390Y-45905159D01*
X124918343Y-45887973D01*
X124861095Y-45711782D01*
X124764624Y-45522449D01*
X124725270Y-45468282D01*
X124725269Y-45468282D01*
X124092962Y-46100590D01*
X124075925Y-46037007D01*
X124010099Y-45922993D01*
X123917007Y-45829901D01*
X123802993Y-45764075D01*
X123739409Y-45747037D01*
X124371716Y-45114728D01*
X124317550Y-45075375D01*
X124128217Y-44978904D01*
X123926129Y-44913242D01*
X123716246Y-44880000D01*
X123503754Y-44880000D01*
X123293872Y-44913242D01*
X123293869Y-44913242D01*
X123091782Y-44978904D01*
X122902439Y-45075380D01*
X122848282Y-45114727D01*
X122848282Y-45114728D01*
X123480591Y-45747037D01*
X123417007Y-45764075D01*
X123302993Y-45829901D01*
X123209901Y-45922993D01*
X123144075Y-46037007D01*
X123127037Y-46100591D01*
X122494728Y-45468282D01*
X122494727Y-45468282D01*
X122455380Y-45522439D01*
X122358905Y-45711781D01*
X122301656Y-45887974D01*
X122262218Y-45945649D01*
X122197859Y-45972847D01*
X122129013Y-45960932D01*
X122077537Y-45913688D01*
X122069164Y-45897107D01*
X122000943Y-45732405D01*
X121885975Y-45560342D01*
X121739657Y-45414024D01*
X121593772Y-45316548D01*
X121567598Y-45299059D01*
X121376420Y-45219870D01*
X121376412Y-45219868D01*
X121173469Y-45179500D01*
X121173465Y-45179500D01*
X120966535Y-45179500D01*
X120966530Y-45179500D01*
X120763587Y-45219868D01*
X120763579Y-45219870D01*
X120572403Y-45299058D01*
X120400342Y-45414024D01*
X120254024Y-45560342D01*
X120139058Y-45732403D01*
X120059870Y-45923579D01*
X120059868Y-45923587D01*
X120019500Y-46126530D01*
X119580499Y-46126530D01*
X119540130Y-45923580D01*
X119460941Y-45732402D01*
X119345977Y-45560345D01*
X119345975Y-45560342D01*
X119199657Y-45414024D01*
X119053772Y-45316548D01*
X119027598Y-45299059D01*
X118836420Y-45219870D01*
X118836412Y-45219868D01*
X118633469Y-45179500D01*
X118633465Y-45179500D01*
X118426535Y-45179500D01*
X118426530Y-45179500D01*
X118223587Y-45219868D01*
X118223579Y-45219870D01*
X118032403Y-45299058D01*
X117860342Y-45414024D01*
X117714024Y-45560342D01*
X117599058Y-45732403D01*
X117519870Y-45923579D01*
X117519868Y-45923587D01*
X117479500Y-46126530D01*
X117479500Y-46333469D01*
X117519868Y-46536412D01*
X117519870Y-46536420D01*
X117585939Y-46695925D01*
X117599059Y-46727598D01*
X117612836Y-46748217D01*
X117714024Y-46899657D01*
X117860342Y-47045975D01*
X118032405Y-47160943D01*
X118124115Y-47198930D01*
X118197108Y-47229164D01*
X118251511Y-47273005D01*
X118273576Y-47339299D01*
X118256297Y-47406998D01*
X118205160Y-47454609D01*
X118187974Y-47461656D01*
X118011781Y-47518905D01*
X117822439Y-47615380D01*
X117768282Y-47654727D01*
X117768282Y-47654728D01*
X118400591Y-48287037D01*
X118337007Y-48304075D01*
X118222993Y-48369901D01*
X118129901Y-48462993D01*
X118064075Y-48577007D01*
X118047037Y-48640591D01*
X117414728Y-48008282D01*
X117414727Y-48008282D01*
X117375380Y-48062439D01*
X117278905Y-48251781D01*
X117221656Y-48427974D01*
X117182218Y-48485649D01*
X117117859Y-48512847D01*
X117049013Y-48500932D01*
X116997537Y-48453688D01*
X116989164Y-48437107D01*
X116920943Y-48272405D01*
X116805975Y-48100342D01*
X116659657Y-47954024D01*
X116573626Y-47896541D01*
X116487598Y-47839059D01*
X116487593Y-47839057D01*
X116296420Y-47759870D01*
X116296412Y-47759868D01*
X116093469Y-47719500D01*
X116093465Y-47719500D01*
X115886535Y-47719500D01*
X115886530Y-47719500D01*
X115683587Y-47759868D01*
X115683579Y-47759870D01*
X115492403Y-47839058D01*
X115320342Y-47954024D01*
X115174024Y-48100342D01*
X115059058Y-48272403D01*
X114979870Y-48463579D01*
X114979868Y-48463587D01*
X114939500Y-48666530D01*
X114500499Y-48666530D01*
X114460130Y-48463580D01*
X114380941Y-48272402D01*
X114265977Y-48100345D01*
X114265975Y-48100342D01*
X114119657Y-47954024D01*
X114033626Y-47896541D01*
X113947598Y-47839059D01*
X113947593Y-47839057D01*
X113885891Y-47813499D01*
X113782890Y-47770834D01*
X113728488Y-47726994D01*
X113706423Y-47660700D01*
X113723702Y-47593001D01*
X113774839Y-47545390D01*
X113792026Y-47538343D01*
X113968217Y-47481095D01*
X114157554Y-47384622D01*
X114211716Y-47345270D01*
X114211717Y-47345270D01*
X113579408Y-46712962D01*
X113642993Y-46695925D01*
X113757007Y-46630099D01*
X113850099Y-46537007D01*
X113915925Y-46422993D01*
X113932962Y-46359408D01*
X114565270Y-46991717D01*
X114565270Y-46991716D01*
X114604622Y-46937554D01*
X114701095Y-46748217D01*
X114758343Y-46572026D01*
X114797780Y-46514351D01*
X114862139Y-46487152D01*
X114930985Y-46499066D01*
X114982461Y-46546310D01*
X114990833Y-46562887D01*
X115018673Y-46630099D01*
X115045939Y-46695925D01*
X115059059Y-46727598D01*
X115072836Y-46748217D01*
X115174024Y-46899657D01*
X115320342Y-47045975D01*
X115320345Y-47045977D01*
X115492402Y-47160941D01*
X115683580Y-47240130D01*
X115848855Y-47273005D01*
X115886530Y-47280499D01*
X115886534Y-47280500D01*
X115886535Y-47280500D01*
X116093466Y-47280500D01*
X116093467Y-47280499D01*
X116296420Y-47240130D01*
X116487598Y-47160941D01*
X116659655Y-47045977D01*
X116805977Y-46899655D01*
X116920941Y-46727598D01*
X117000130Y-46536420D01*
X117040500Y-46333465D01*
X117040500Y-46126535D01*
X117000130Y-45923580D01*
X116920941Y-45732402D01*
X116805977Y-45560345D01*
X116805975Y-45560342D01*
X116659657Y-45414024D01*
X116513772Y-45316548D01*
X116487598Y-45299059D01*
X116296420Y-45219870D01*
X116296412Y-45219868D01*
X116093469Y-45179500D01*
X116093465Y-45179500D01*
X115886535Y-45179500D01*
X115886530Y-45179500D01*
X115683587Y-45219868D01*
X115683579Y-45219870D01*
X115492403Y-45299058D01*
X115320342Y-45414024D01*
X115174024Y-45560342D01*
X115059057Y-45732403D01*
X114990835Y-45897108D01*
X114946994Y-45951511D01*
X114880700Y-45973576D01*
X114813000Y-45956297D01*
X114765390Y-45905159D01*
X114758343Y-45887973D01*
X114701095Y-45711782D01*
X114604624Y-45522449D01*
X114565270Y-45468282D01*
X113932962Y-46100590D01*
X113915925Y-46037007D01*
X113850099Y-45922993D01*
X113757007Y-45829901D01*
X113642993Y-45764075D01*
X113579409Y-45747037D01*
X114211716Y-45114728D01*
X114157550Y-45075375D01*
X113968217Y-44978904D01*
X113766129Y-44913242D01*
X113556246Y-44880000D01*
X113343754Y-44880000D01*
X113133872Y-44913242D01*
X113133869Y-44913242D01*
X112931782Y-44978904D01*
X112742439Y-45075380D01*
X112688282Y-45114727D01*
X112688282Y-45114728D01*
X113320591Y-45747037D01*
X113257007Y-45764075D01*
X113142993Y-45829901D01*
X113049901Y-45922993D01*
X112984075Y-46037007D01*
X112967037Y-46100591D01*
X112334728Y-45468282D01*
X112334727Y-45468282D01*
X112295380Y-45522439D01*
X112198905Y-45711781D01*
X112141656Y-45887974D01*
X112102218Y-45945649D01*
X112037859Y-45972847D01*
X111969013Y-45960932D01*
X111917537Y-45913688D01*
X111909164Y-45897107D01*
X111840943Y-45732405D01*
X111725975Y-45560342D01*
X111579657Y-45414024D01*
X111433772Y-45316548D01*
X111407598Y-45299059D01*
X111216420Y-45219870D01*
X111216412Y-45219868D01*
X111013469Y-45179500D01*
X111013465Y-45179500D01*
X110806535Y-45179500D01*
X110806530Y-45179500D01*
X110603587Y-45219868D01*
X110603579Y-45219870D01*
X110412403Y-45299058D01*
X110240342Y-45414024D01*
X110094024Y-45560342D01*
X109979058Y-45732403D01*
X109899870Y-45923579D01*
X109899868Y-45923587D01*
X109859500Y-46126530D01*
X109420499Y-46126530D01*
X109380130Y-45923580D01*
X109300941Y-45732402D01*
X109185977Y-45560345D01*
X109185975Y-45560342D01*
X109039657Y-45414024D01*
X108893772Y-45316548D01*
X108867598Y-45299059D01*
X108676420Y-45219870D01*
X108676412Y-45219868D01*
X108473469Y-45179500D01*
X108473465Y-45179500D01*
X108266535Y-45179500D01*
X108266530Y-45179500D01*
X108063587Y-45219868D01*
X108063579Y-45219870D01*
X107872403Y-45299058D01*
X107700342Y-45414024D01*
X107554024Y-45560342D01*
X107439058Y-45732403D01*
X107359870Y-45923579D01*
X107359868Y-45923587D01*
X107319500Y-46126530D01*
X100500000Y-46126530D01*
X100500000Y-45837847D01*
X100504461Y-45821725D01*
X100503990Y-45806646D01*
X100517639Y-45774101D01*
X100628722Y-45588771D01*
X100635462Y-45578683D01*
X100829882Y-45316537D01*
X100837585Y-45307152D01*
X101056760Y-45065330D01*
X101065330Y-45056760D01*
X101307152Y-44837585D01*
X101316537Y-44829882D01*
X101578683Y-44635462D01*
X101588771Y-44628722D01*
X101774100Y-44517640D01*
X101837847Y-44500000D01*
X163162153Y-44500000D01*
X163225902Y-44517642D01*
G37*
G04 #@! TD.AperFunction*
M02*
