G04 #@! TF.GenerationSoftware,KiCad,Pcbnew,9.0.6*
G04 #@! TF.CreationDate,2026-03-16T09:52:43-07:00*
G04 #@! TF.ProjectId,mutebox_hat_audio_in,6d757465-626f-4785-9f68-61745f617564,rev?*
G04 #@! TF.SameCoordinates,Original*
G04 #@! TF.FileFunction,Copper,L2,Bot*
G04 #@! TF.FilePolarity,Positive*
%FSLAX46Y46*%
G04 Gerber Fmt 4.6, Leading zero omitted, Abs format (unit mm)*
G04 Created by KiCad (PCBNEW 9.0.6) date 2026-03-16 09:52:43*
%MOMM*%
%LPD*%
G01*
G04 APERTURE LIST*
G04 #@! TA.AperFunction,ComponentPad*
%ADD10O,4.800000X2.400000*%
G04 #@! TD*
G04 #@! TA.AperFunction,ComponentPad*
%ADD11O,1.700000X3.400000*%
G04 #@! TD*
G04 #@! TA.AperFunction,ComponentPad*
%ADD12R,1.700000X1.700000*%
G04 #@! TD*
G04 #@! TA.AperFunction,ComponentPad*
%ADD13C,1.700000*%
G04 #@! TD*
G04 #@! TA.AperFunction,ComponentPad*
%ADD14R,1.300000X1.300000*%
G04 #@! TD*
G04 #@! TA.AperFunction,ComponentPad*
%ADD15C,1.300000*%
G04 #@! TD*
G04 #@! TA.AperFunction,ComponentPad*
%ADD16C,1.650000*%
G04 #@! TD*
G04 #@! TA.AperFunction,ViaPad*
%ADD17C,0.900000*%
G04 #@! TD*
G04 #@! TA.AperFunction,ViaPad*
%ADD18C,0.600000*%
G04 #@! TD*
G04 #@! TA.AperFunction,Conductor*
%ADD19C,0.200000*%
G04 #@! TD*
G04 #@! TA.AperFunction,Conductor*
%ADD20C,0.400000*%
G04 #@! TD*
G04 #@! TA.AperFunction,Conductor*
%ADD21C,0.250000*%
G04 #@! TD*
G04 APERTURE END LIST*
D10*
X150700000Y-93300000D03*
D11*
X150700000Y-88800000D03*
D10*
X138562000Y-93300000D03*
D11*
X138562000Y-88800000D03*
D12*
X153900000Y-61480000D03*
D13*
X153900000Y-58940000D03*
X153900000Y-56400000D03*
X153900000Y-53860000D03*
D14*
X114060000Y-87040000D03*
D15*
X116600000Y-87040000D03*
X119140000Y-87040000D03*
D16*
X114060000Y-89660000D03*
X119140000Y-89660000D03*
D12*
X108370000Y-48770000D03*
D13*
X108370000Y-46230000D03*
X110910000Y-48770000D03*
X110910000Y-46230000D03*
X113450000Y-48770000D03*
X113450000Y-46230000D03*
X115990000Y-48770000D03*
X115990000Y-46230000D03*
X118530000Y-48770000D03*
X118530000Y-46230000D03*
X121070000Y-48770000D03*
X121070000Y-46230000D03*
X123610000Y-48770000D03*
X123610000Y-46230000D03*
X126150000Y-48770000D03*
X126150000Y-46230000D03*
X128690000Y-48770000D03*
X128690000Y-46230000D03*
X131230000Y-48770000D03*
X131230000Y-46230000D03*
X133770000Y-48770000D03*
X133770000Y-46230000D03*
X136310000Y-48770000D03*
X136310000Y-46230000D03*
X138850000Y-48770000D03*
X138850000Y-46230000D03*
X141390000Y-48770000D03*
X141390000Y-46230000D03*
X143930000Y-48770000D03*
X143930000Y-46230000D03*
X146470000Y-48770000D03*
X146470000Y-46230000D03*
X149010000Y-48770000D03*
X149010000Y-46230000D03*
X151550000Y-48770000D03*
X151550000Y-46230000D03*
X154090000Y-48770000D03*
X154090000Y-46230000D03*
X156630000Y-48770000D03*
X156630000Y-46230000D03*
D17*
X132900000Y-80100000D03*
D18*
X147200000Y-73200000D03*
X147229519Y-71808119D03*
X148100000Y-78621956D03*
X152800000Y-78700000D03*
X150800000Y-68600000D03*
X142268246Y-75196140D03*
D17*
X138906580Y-77161000D03*
D18*
X151600000Y-66600000D03*
X110600000Y-66600000D03*
X149200000Y-75300000D03*
X149200000Y-71700000D03*
X156600000Y-66000000D03*
X117500000Y-75001000D03*
X149200000Y-70300000D03*
X149200000Y-74100000D03*
X148220000Y-66520000D03*
X117938500Y-69350000D03*
D17*
X125900000Y-79800000D03*
D18*
X139400000Y-67700000D03*
X132600000Y-66700000D03*
X148000000Y-70300000D03*
X149300000Y-73000000D03*
X150025000Y-78700000D03*
X142191041Y-73803995D03*
X112750000Y-72674999D03*
X137741942Y-74858058D03*
X148200000Y-74800000D03*
X147251002Y-71100000D03*
X145900000Y-68900000D03*
D17*
X139600000Y-76300000D03*
D18*
X149100000Y-76900000D03*
X147500000Y-76900000D03*
X147500000Y-58200000D03*
X154598959Y-75198959D03*
X147400000Y-75800000D03*
D17*
X109700000Y-52200000D03*
X153269669Y-76330331D03*
X114500000Y-51900000D03*
X154500000Y-76500000D03*
X143000000Y-69400000D03*
X139327733Y-75095508D03*
X130200000Y-56600000D03*
X140500000Y-53500000D03*
X118700000Y-74200000D03*
X118700000Y-72000000D03*
X144562500Y-86200000D03*
X154451000Y-79300000D03*
X129438706Y-78505000D03*
X151600000Y-51000000D03*
X128137000Y-51250000D03*
X107600000Y-73300000D03*
X129000000Y-71400000D03*
X119100000Y-66800000D03*
X122400000Y-51199000D03*
X127975000Y-73725000D03*
X153100000Y-77700000D03*
X142429000Y-78718951D03*
X137345632Y-81713353D03*
X107500000Y-76097212D03*
X129001000Y-72798467D03*
X140900000Y-82500000D03*
X132800000Y-72600000D03*
X132800000Y-76400000D03*
X150800000Y-80300000D03*
X143500000Y-71700000D03*
X148500000Y-68500000D03*
X148662000Y-86250000D03*
X141748008Y-71148008D03*
X107500000Y-77250000D03*
X134400000Y-79000000D03*
X128500000Y-77750000D03*
X107750000Y-75000000D03*
X119750000Y-64500000D03*
X119750000Y-51201000D03*
X121400000Y-63400000D03*
X120900000Y-53200000D03*
D19*
X142976000Y-73755490D02*
X143270510Y-73755490D01*
X115035504Y-85989000D02*
X106448000Y-77401496D01*
X155327000Y-78387662D02*
X153269669Y-76330331D01*
X106448000Y-55452000D02*
X109700000Y-52200000D01*
X148852306Y-87901000D02*
X142309504Y-87901000D01*
X155327000Y-81426306D02*
X155327000Y-78387662D01*
X106448000Y-77401496D02*
X106448000Y-55452000D01*
X142309504Y-87901000D02*
X140397504Y-85989000D01*
X155327000Y-81426306D02*
X148852306Y-87901000D01*
X140397504Y-85989000D02*
X115035504Y-85989000D01*
D20*
X155249942Y-75800000D02*
X157881000Y-73168942D01*
X155200000Y-75800000D02*
X155249942Y-75800000D01*
X109659000Y-49288182D02*
X112270818Y-51900000D01*
X157881000Y-45711818D02*
X156547182Y-44378000D01*
X112270818Y-51900000D02*
X114500000Y-51900000D01*
X157881000Y-73168942D02*
X157881000Y-45711818D01*
X154500000Y-76500000D02*
X155200000Y-75800000D01*
X109659000Y-45711818D02*
X109659000Y-49288182D01*
X110992818Y-44378000D02*
X109659000Y-45711818D01*
X156547182Y-44378000D02*
X110992818Y-44378000D01*
D21*
X139800000Y-74455947D02*
X139800000Y-70900000D01*
X139327733Y-75095508D02*
X139327733Y-74928214D01*
X139800000Y-70900000D02*
X141300000Y-69400000D01*
X141300000Y-69400000D02*
X143000000Y-69400000D01*
X139327733Y-74928214D02*
X139800000Y-74455947D01*
X133300000Y-53500000D02*
X130200000Y-56600000D01*
X140500000Y-53500000D02*
X133300000Y-53500000D01*
X118700000Y-74200000D02*
X118700000Y-72000000D01*
X149054715Y-86954715D02*
X148959430Y-87050000D01*
X154451000Y-79300000D02*
X154451000Y-81558430D01*
X149054715Y-86954715D02*
X148983430Y-87026000D01*
X145388500Y-87026000D02*
X144562500Y-86200000D01*
X148983430Y-87026000D02*
X145388500Y-87026000D01*
X154451000Y-81558430D02*
X149054715Y-86954715D01*
X131122000Y-77377997D02*
X131122000Y-71478000D01*
X129438706Y-78505000D02*
X129994997Y-78505000D01*
X129994997Y-78505000D02*
X131122000Y-77377997D01*
X131122000Y-71478000D02*
X151600000Y-51000000D01*
X128137000Y-70537000D02*
X129000000Y-71400000D01*
D19*
X107600000Y-73300000D02*
X114100000Y-66800000D01*
D21*
X128137000Y-51250000D02*
X128137000Y-70537000D01*
D19*
X114100000Y-66800000D02*
X119100000Y-66800000D01*
D21*
X122400000Y-51199000D02*
X122400000Y-68150000D01*
X122400000Y-68150000D02*
X127950000Y-73700000D01*
D19*
X142429000Y-78371000D02*
X143100000Y-77700000D01*
X142429000Y-78718951D02*
X142429000Y-78371000D01*
X143100000Y-77700000D02*
X153100000Y-77700000D01*
D21*
X134795000Y-80595000D02*
X131573000Y-77373000D01*
X131573000Y-77373000D02*
X131573000Y-72027000D01*
X134978240Y-80595000D02*
X134795000Y-80595000D01*
X152914000Y-47406000D02*
X154090000Y-46230000D01*
X136647039Y-81014760D02*
X135242430Y-81014760D01*
X151824000Y-51776000D02*
X151921430Y-51776000D01*
X151921430Y-51776000D02*
X152914000Y-50783430D01*
X135242430Y-81014760D02*
X135242430Y-80859190D01*
X131573000Y-72027000D02*
X151824000Y-51776000D01*
X137345632Y-81713353D02*
X136647039Y-81014760D01*
X152914000Y-50783430D02*
X152914000Y-47406000D01*
X135242430Y-80859190D02*
X134978240Y-80595000D01*
X106974000Y-75571212D02*
X107500000Y-76097212D01*
X109623430Y-75776000D02*
X108071430Y-74224000D01*
X109623430Y-75776000D02*
X127021430Y-75776000D01*
X129001000Y-73796430D02*
X129001000Y-72798467D01*
X106974000Y-74678570D02*
X106974000Y-75571212D01*
X107428570Y-74224000D02*
X106974000Y-74678570D01*
X108071430Y-74224000D02*
X107428570Y-74224000D01*
X127021430Y-75776000D02*
X129001000Y-73796430D01*
X132800000Y-75000000D02*
X140050000Y-82250000D01*
X132800000Y-72600000D02*
X132800000Y-75000000D01*
X140050000Y-82250000D02*
X140650000Y-82250000D01*
X140650000Y-82250000D02*
X140900000Y-82500000D01*
X133576000Y-72927850D02*
X133576000Y-72076000D01*
X140898150Y-80250000D02*
X133576000Y-72927850D01*
X150750000Y-80250000D02*
X140898150Y-80250000D01*
X150800000Y-80300000D02*
X150750000Y-80250000D01*
X132024000Y-75624000D02*
X132800000Y-76400000D01*
X132478570Y-71824000D02*
X132024000Y-72278570D01*
X133324000Y-71824000D02*
X132478570Y-71824000D01*
X133576000Y-72076000D02*
X133324000Y-71824000D01*
X132024000Y-72278570D02*
X132024000Y-75624000D01*
D19*
X143900000Y-69200000D02*
X145000000Y-68100000D01*
X143900000Y-71300000D02*
X143900000Y-69200000D01*
X145000000Y-68100000D02*
X148100000Y-68100000D01*
X148100000Y-68100000D02*
X148500000Y-68500000D01*
X143500000Y-71700000D02*
X143900000Y-71300000D01*
D21*
X141637810Y-79500000D02*
X151600000Y-79500000D01*
X153000000Y-80900000D02*
X153000000Y-81912000D01*
X141056015Y-72043985D02*
X140251000Y-72849000D01*
X140476000Y-75478570D02*
X140476000Y-76121430D01*
X141748008Y-71348008D02*
X141056015Y-72040001D01*
X153000000Y-81912000D02*
X148662000Y-86250000D01*
X140500000Y-76145430D02*
X140500000Y-78362190D01*
X140251000Y-75253570D02*
X140476000Y-75478570D01*
X151600000Y-79500000D02*
X153000000Y-80900000D01*
X140251000Y-72849000D02*
X140251000Y-75253570D01*
X141056015Y-72040001D02*
X141056015Y-72043985D01*
X140476000Y-76121430D02*
X140500000Y-76145430D01*
X140500000Y-78362190D02*
X141637810Y-79500000D01*
X138121632Y-82034783D02*
X137667062Y-82489353D01*
X134400000Y-79000000D02*
X135729709Y-79000000D01*
X137667062Y-82489353D02*
X112739353Y-82489353D01*
X135729709Y-79000000D02*
X138121632Y-81391923D01*
X138121632Y-81391923D02*
X138121632Y-82034783D01*
X112739353Y-82489353D02*
X107500000Y-77250000D01*
X110500000Y-77750000D02*
X107750000Y-75000000D01*
X128500000Y-77750000D02*
X110500000Y-77750000D01*
X119750000Y-51201000D02*
X119750000Y-64500000D01*
X121400000Y-53700000D02*
X121400000Y-63400000D01*
X120900000Y-53200000D02*
X121400000Y-53700000D01*
G04 #@! TA.AperFunction,Conductor*
G36*
X110573108Y-44069407D02*
G01*
X110609072Y-44118907D01*
X110609072Y-44180093D01*
X110584921Y-44219504D01*
X109338516Y-45465909D01*
X109312625Y-45510753D01*
X109267155Y-45551693D01*
X109206305Y-45558087D01*
X109156888Y-45531256D01*
X109039655Y-45414023D01*
X109039651Y-45414020D01*
X108867597Y-45299058D01*
X108676418Y-45219869D01*
X108473467Y-45179500D01*
X108473465Y-45179500D01*
X108266535Y-45179500D01*
X108266532Y-45179500D01*
X108063581Y-45219869D01*
X107872402Y-45299058D01*
X107700348Y-45414020D01*
X107554020Y-45560348D01*
X107439058Y-45732402D01*
X107359869Y-45923581D01*
X107319500Y-46126532D01*
X107319500Y-46333467D01*
X107359869Y-46536418D01*
X107439058Y-46727597D01*
X107554020Y-46899651D01*
X107554023Y-46899655D01*
X107700345Y-47045977D01*
X107872402Y-47160941D01*
X108063580Y-47240130D01*
X108266535Y-47280500D01*
X108266536Y-47280500D01*
X108473464Y-47280500D01*
X108473465Y-47280500D01*
X108676420Y-47240130D01*
X108867598Y-47160941D01*
X109039655Y-47045977D01*
X109089498Y-46996133D01*
X109144013Y-46968358D01*
X109204445Y-46977929D01*
X109247710Y-47021194D01*
X109258500Y-47066139D01*
X109258500Y-47620500D01*
X109239593Y-47678691D01*
X109190093Y-47714655D01*
X109159500Y-47719500D01*
X107500252Y-47719500D01*
X107500251Y-47719500D01*
X107500241Y-47719501D01*
X107441772Y-47731132D01*
X107441766Y-47731134D01*
X107375451Y-47775445D01*
X107375445Y-47775451D01*
X107331134Y-47841766D01*
X107331132Y-47841772D01*
X107319501Y-47900241D01*
X107319500Y-47900253D01*
X107319500Y-49639746D01*
X107319501Y-49639758D01*
X107331132Y-49698227D01*
X107331134Y-49698233D01*
X107350561Y-49727307D01*
X107375448Y-49764552D01*
X107441769Y-49808867D01*
X107486231Y-49817711D01*
X107500241Y-49820498D01*
X107500246Y-49820498D01*
X107500252Y-49820500D01*
X107500253Y-49820500D01*
X109239747Y-49820500D01*
X109239748Y-49820500D01*
X109298231Y-49808867D01*
X109364552Y-49764552D01*
X109379414Y-49742309D01*
X109427460Y-49704431D01*
X109488598Y-49702027D01*
X109531732Y-49727307D01*
X111950338Y-52145913D01*
X111950337Y-52145913D01*
X112012550Y-52208125D01*
X112024905Y-52220480D01*
X112116231Y-52273207D01*
X112218091Y-52300500D01*
X113939548Y-52300500D01*
X113997739Y-52319407D01*
X114009552Y-52329497D01*
X114085322Y-52405268D01*
X114085326Y-52405271D01*
X114085331Y-52405276D01*
X114131548Y-52436157D01*
X114191866Y-52476461D01*
X114191870Y-52476463D01*
X114191873Y-52476465D01*
X114310256Y-52525501D01*
X114435931Y-52550500D01*
X114435932Y-52550500D01*
X114564068Y-52550500D01*
X114564069Y-52550500D01*
X114689744Y-52525501D01*
X114808127Y-52476465D01*
X114914669Y-52405276D01*
X115005276Y-52314669D01*
X115076465Y-52208127D01*
X115125501Y-52089744D01*
X115150500Y-51964069D01*
X115150500Y-51835931D01*
X115125501Y-51710256D01*
X115076465Y-51591873D01*
X115076463Y-51591870D01*
X115076461Y-51591866D01*
X115047717Y-51548848D01*
X115005276Y-51485331D01*
X114914669Y-51394724D01*
X114872226Y-51366365D01*
X114808133Y-51323538D01*
X114808125Y-51323534D01*
X114689747Y-51274500D01*
X114689745Y-51274499D01*
X114689744Y-51274499D01*
X114564069Y-51249500D01*
X114435931Y-51249500D01*
X114435930Y-51249500D01*
X114373093Y-51261999D01*
X114310256Y-51274499D01*
X114310255Y-51274499D01*
X114310252Y-51274500D01*
X114191874Y-51323534D01*
X114191866Y-51323538D01*
X114085331Y-51394724D01*
X114085322Y-51394731D01*
X114009552Y-51470503D01*
X113955036Y-51498281D01*
X113939548Y-51499500D01*
X112477719Y-51499500D01*
X112419528Y-51480593D01*
X112407715Y-51470504D01*
X110926715Y-49989504D01*
X110898938Y-49934987D01*
X110908509Y-49874555D01*
X110951774Y-49831290D01*
X110996719Y-49820500D01*
X111013464Y-49820500D01*
X111013465Y-49820500D01*
X111216420Y-49780130D01*
X111407598Y-49700941D01*
X111579655Y-49585977D01*
X111725977Y-49439655D01*
X111840941Y-49267598D01*
X111920130Y-49076420D01*
X111960500Y-48873465D01*
X111960500Y-48666535D01*
X111960499Y-48666532D01*
X112399500Y-48666532D01*
X112399500Y-48873467D01*
X112439869Y-49076418D01*
X112519058Y-49267597D01*
X112634020Y-49439651D01*
X112634023Y-49439655D01*
X112780345Y-49585977D01*
X112952402Y-49700941D01*
X113143580Y-49780130D01*
X113346535Y-49820500D01*
X113346536Y-49820500D01*
X113553464Y-49820500D01*
X113553465Y-49820500D01*
X113756420Y-49780130D01*
X113947598Y-49700941D01*
X114119655Y-49585977D01*
X114265977Y-49439655D01*
X114380941Y-49267598D01*
X114460130Y-49076420D01*
X114500500Y-48873465D01*
X114500500Y-48666535D01*
X114500499Y-48666532D01*
X114939500Y-48666532D01*
X114939500Y-48873467D01*
X114979869Y-49076418D01*
X115059058Y-49267597D01*
X115174020Y-49439651D01*
X115174023Y-49439655D01*
X115320345Y-49585977D01*
X115492402Y-49700941D01*
X115683580Y-49780130D01*
X115886535Y-49820500D01*
X115886536Y-49820500D01*
X116093464Y-49820500D01*
X116093465Y-49820500D01*
X116296420Y-49780130D01*
X116487598Y-49700941D01*
X116659655Y-49585977D01*
X116805977Y-49439655D01*
X116920941Y-49267598D01*
X117000130Y-49076420D01*
X117040500Y-48873465D01*
X117040500Y-48666581D01*
X117480000Y-48666581D01*
X117480000Y-48873418D01*
X117520349Y-49076272D01*
X117599501Y-49267360D01*
X117599505Y-49267369D01*
X117631377Y-49315067D01*
X118047036Y-48899407D01*
X118064075Y-48962993D01*
X118129901Y-49077007D01*
X118222993Y-49170099D01*
X118337007Y-49235925D01*
X118400590Y-49252962D01*
X117984931Y-49668621D01*
X118032639Y-49700498D01*
X118223727Y-49779650D01*
X118426581Y-49819999D01*
X118426586Y-49820000D01*
X118633414Y-49820000D01*
X118633418Y-49819999D01*
X118836272Y-49779650D01*
X119027359Y-49700499D01*
X119075068Y-49668621D01*
X118659409Y-49252962D01*
X118722993Y-49235925D01*
X118837007Y-49170099D01*
X118930099Y-49077007D01*
X118995925Y-48962993D01*
X119012962Y-48899409D01*
X119428621Y-49315068D01*
X119460499Y-49267359D01*
X119539650Y-49076272D01*
X119579999Y-48873418D01*
X119580000Y-48873413D01*
X119580000Y-48666585D01*
X119579999Y-48666582D01*
X119579989Y-48666532D01*
X120019500Y-48666532D01*
X120019500Y-48873467D01*
X120059869Y-49076418D01*
X120139058Y-49267597D01*
X120254020Y-49439651D01*
X120254023Y-49439655D01*
X120400345Y-49585977D01*
X120572402Y-49700941D01*
X120763580Y-49780130D01*
X120966535Y-49820500D01*
X120966536Y-49820500D01*
X121173464Y-49820500D01*
X121173465Y-49820500D01*
X121376420Y-49780130D01*
X121567598Y-49700941D01*
X121739655Y-49585977D01*
X121885977Y-49439655D01*
X122000941Y-49267598D01*
X122080130Y-49076420D01*
X122120500Y-48873465D01*
X122120500Y-48666535D01*
X122120499Y-48666532D01*
X122559500Y-48666532D01*
X122559500Y-48873467D01*
X122599869Y-49076418D01*
X122679058Y-49267597D01*
X122794020Y-49439651D01*
X122794023Y-49439655D01*
X122940345Y-49585977D01*
X123112402Y-49700941D01*
X123303580Y-49780130D01*
X123506535Y-49820500D01*
X123506536Y-49820500D01*
X123713464Y-49820500D01*
X123713465Y-49820500D01*
X123916420Y-49780130D01*
X124107598Y-49700941D01*
X124279655Y-49585977D01*
X124425977Y-49439655D01*
X124540941Y-49267598D01*
X124620130Y-49076420D01*
X124660500Y-48873465D01*
X124660500Y-48666535D01*
X124660499Y-48666532D01*
X125099500Y-48666532D01*
X125099500Y-48873467D01*
X125139869Y-49076418D01*
X125219058Y-49267597D01*
X125334020Y-49439651D01*
X125334023Y-49439655D01*
X125480345Y-49585977D01*
X125652402Y-49700941D01*
X125843580Y-49780130D01*
X126046535Y-49820500D01*
X126046536Y-49820500D01*
X126253464Y-49820500D01*
X126253465Y-49820500D01*
X126456420Y-49780130D01*
X126647598Y-49700941D01*
X126819655Y-49585977D01*
X126965977Y-49439655D01*
X127080941Y-49267598D01*
X127160130Y-49076420D01*
X127200500Y-48873465D01*
X127200500Y-48666535D01*
X127200499Y-48666532D01*
X127639500Y-48666532D01*
X127639500Y-48873467D01*
X127679869Y-49076418D01*
X127759058Y-49267597D01*
X127874020Y-49439651D01*
X127874023Y-49439655D01*
X128020345Y-49585977D01*
X128192402Y-49700941D01*
X128383580Y-49780130D01*
X128586535Y-49820500D01*
X128586536Y-49820500D01*
X128793464Y-49820500D01*
X128793465Y-49820500D01*
X128996420Y-49780130D01*
X129187598Y-49700941D01*
X129359655Y-49585977D01*
X129505977Y-49439655D01*
X129620941Y-49267598D01*
X129700130Y-49076420D01*
X129740500Y-48873465D01*
X129740500Y-48666535D01*
X129740499Y-48666532D01*
X130179500Y-48666532D01*
X130179500Y-48873467D01*
X130219869Y-49076418D01*
X130299058Y-49267597D01*
X130414020Y-49439651D01*
X130414023Y-49439655D01*
X130560345Y-49585977D01*
X130732402Y-49700941D01*
X130923580Y-49780130D01*
X131126535Y-49820500D01*
X131126536Y-49820500D01*
X131333464Y-49820500D01*
X131333465Y-49820500D01*
X131536420Y-49780130D01*
X131727598Y-49700941D01*
X131899655Y-49585977D01*
X132045977Y-49439655D01*
X132160941Y-49267598D01*
X132240130Y-49076420D01*
X132280500Y-48873465D01*
X132280500Y-48666535D01*
X132280499Y-48666532D01*
X132719500Y-48666532D01*
X132719500Y-48873467D01*
X132759869Y-49076418D01*
X132839058Y-49267597D01*
X132954020Y-49439651D01*
X132954023Y-49439655D01*
X133100345Y-49585977D01*
X133272402Y-49700941D01*
X133463580Y-49780130D01*
X133666535Y-49820500D01*
X133666536Y-49820500D01*
X133873464Y-49820500D01*
X133873465Y-49820500D01*
X134076420Y-49780130D01*
X134267598Y-49700941D01*
X134439655Y-49585977D01*
X134585977Y-49439655D01*
X134700941Y-49267598D01*
X134780130Y-49076420D01*
X134820500Y-48873465D01*
X134820500Y-48666535D01*
X134820499Y-48666532D01*
X135259500Y-48666532D01*
X135259500Y-48873467D01*
X135299869Y-49076418D01*
X135379058Y-49267597D01*
X135494020Y-49439651D01*
X135494023Y-49439655D01*
X135640345Y-49585977D01*
X135812402Y-49700941D01*
X136003580Y-49780130D01*
X136206535Y-49820500D01*
X136206536Y-49820500D01*
X136413464Y-49820500D01*
X136413465Y-49820500D01*
X136616420Y-49780130D01*
X136807598Y-49700941D01*
X136979655Y-49585977D01*
X137125977Y-49439655D01*
X137240941Y-49267598D01*
X137320130Y-49076420D01*
X137360500Y-48873465D01*
X137360500Y-48666581D01*
X137800000Y-48666581D01*
X137800000Y-48873418D01*
X137840349Y-49076272D01*
X137919501Y-49267360D01*
X137919505Y-49267369D01*
X137951377Y-49315067D01*
X138367036Y-48899407D01*
X138384075Y-48962993D01*
X138449901Y-49077007D01*
X138542993Y-49170099D01*
X138657007Y-49235925D01*
X138720590Y-49252962D01*
X138304931Y-49668621D01*
X138352639Y-49700498D01*
X138543727Y-49779650D01*
X138746581Y-49819999D01*
X138746586Y-49820000D01*
X138953414Y-49820000D01*
X138953418Y-49819999D01*
X139156272Y-49779650D01*
X139347359Y-49700499D01*
X139395068Y-49668621D01*
X138979409Y-49252962D01*
X139042993Y-49235925D01*
X139157007Y-49170099D01*
X139250099Y-49077007D01*
X139315925Y-48962993D01*
X139332962Y-48899409D01*
X139748621Y-49315068D01*
X139780499Y-49267359D01*
X139859650Y-49076272D01*
X139899999Y-48873418D01*
X139900000Y-48873413D01*
X139900000Y-48666585D01*
X139899999Y-48666582D01*
X139899989Y-48666532D01*
X140339500Y-48666532D01*
X140339500Y-48873467D01*
X140379869Y-49076418D01*
X140459058Y-49267597D01*
X140574020Y-49439651D01*
X140574023Y-49439655D01*
X140720345Y-49585977D01*
X140892402Y-49700941D01*
X141083580Y-49780130D01*
X141286535Y-49820500D01*
X141286536Y-49820500D01*
X141493464Y-49820500D01*
X141493465Y-49820500D01*
X141696420Y-49780130D01*
X141887598Y-49700941D01*
X142059655Y-49585977D01*
X142205977Y-49439655D01*
X142320941Y-49267598D01*
X142400130Y-49076420D01*
X142440500Y-48873465D01*
X142440500Y-48666535D01*
X142440499Y-48666532D01*
X142879500Y-48666532D01*
X142879500Y-48873467D01*
X142919869Y-49076418D01*
X142999058Y-49267597D01*
X143114020Y-49439651D01*
X143114023Y-49439655D01*
X143260345Y-49585977D01*
X143432402Y-49700941D01*
X143623580Y-49780130D01*
X143826535Y-49820500D01*
X143826536Y-49820500D01*
X144033464Y-49820500D01*
X144033465Y-49820500D01*
X144236420Y-49780130D01*
X144427598Y-49700941D01*
X144599655Y-49585977D01*
X144745977Y-49439655D01*
X144860941Y-49267598D01*
X144940130Y-49076420D01*
X144980500Y-48873465D01*
X144980500Y-48666535D01*
X144980499Y-48666532D01*
X145419500Y-48666532D01*
X145419500Y-48873467D01*
X145459869Y-49076418D01*
X145539058Y-49267597D01*
X145654020Y-49439651D01*
X145654023Y-49439655D01*
X145800345Y-49585977D01*
X145972402Y-49700941D01*
X146163580Y-49780130D01*
X146366535Y-49820500D01*
X146366536Y-49820500D01*
X146573464Y-49820500D01*
X146573465Y-49820500D01*
X146776420Y-49780130D01*
X146967598Y-49700941D01*
X147139655Y-49585977D01*
X147285977Y-49439655D01*
X147400941Y-49267598D01*
X147480130Y-49076420D01*
X147520500Y-48873465D01*
X147520500Y-48666535D01*
X147520499Y-48666532D01*
X147959500Y-48666532D01*
X147959500Y-48873467D01*
X147999869Y-49076418D01*
X148079058Y-49267597D01*
X148194020Y-49439651D01*
X148194023Y-49439655D01*
X148340345Y-49585977D01*
X148512402Y-49700941D01*
X148703580Y-49780130D01*
X148906535Y-49820500D01*
X148906536Y-49820500D01*
X149113464Y-49820500D01*
X149113465Y-49820500D01*
X149316420Y-49780130D01*
X149507598Y-49700941D01*
X149679655Y-49585977D01*
X149825977Y-49439655D01*
X149940941Y-49267598D01*
X150020130Y-49076420D01*
X150060500Y-48873465D01*
X150060500Y-48666535D01*
X150020130Y-48463580D01*
X149940941Y-48272402D01*
X149825977Y-48100345D01*
X149679655Y-47954023D01*
X149679651Y-47954020D01*
X149507597Y-47839058D01*
X149316418Y-47759869D01*
X149113467Y-47719500D01*
X149113465Y-47719500D01*
X148906535Y-47719500D01*
X148906532Y-47719500D01*
X148703581Y-47759869D01*
X148512402Y-47839058D01*
X148340348Y-47954020D01*
X148194020Y-48100348D01*
X148079058Y-48272402D01*
X147999869Y-48463581D01*
X147959500Y-48666532D01*
X147520499Y-48666532D01*
X147480130Y-48463580D01*
X147400941Y-48272402D01*
X147285977Y-48100345D01*
X147139655Y-47954023D01*
X147139651Y-47954020D01*
X146967597Y-47839058D01*
X146776418Y-47759869D01*
X146573467Y-47719500D01*
X146573465Y-47719500D01*
X146366535Y-47719500D01*
X146366532Y-47719500D01*
X146163581Y-47759869D01*
X145972402Y-47839058D01*
X145800348Y-47954020D01*
X145654020Y-48100348D01*
X145539058Y-48272402D01*
X145459869Y-48463581D01*
X145419500Y-48666532D01*
X144980499Y-48666532D01*
X144940130Y-48463580D01*
X144860941Y-48272402D01*
X144745977Y-48100345D01*
X144599655Y-47954023D01*
X144599651Y-47954020D01*
X144427597Y-47839058D01*
X144236418Y-47759869D01*
X144033467Y-47719500D01*
X144033465Y-47719500D01*
X143826535Y-47719500D01*
X143826532Y-47719500D01*
X143623581Y-47759869D01*
X143432402Y-47839058D01*
X143260348Y-47954020D01*
X143114020Y-48100348D01*
X142999058Y-48272402D01*
X142919869Y-48463581D01*
X142879500Y-48666532D01*
X142440499Y-48666532D01*
X142400130Y-48463580D01*
X142320941Y-48272402D01*
X142205977Y-48100345D01*
X142059655Y-47954023D01*
X142059651Y-47954020D01*
X141887597Y-47839058D01*
X141696418Y-47759869D01*
X141493467Y-47719500D01*
X141493465Y-47719500D01*
X141286535Y-47719500D01*
X141286532Y-47719500D01*
X141083581Y-47759869D01*
X140892402Y-47839058D01*
X140720348Y-47954020D01*
X140574020Y-48100348D01*
X140459058Y-48272402D01*
X140379869Y-48463581D01*
X140339500Y-48666532D01*
X139899989Y-48666532D01*
X139859650Y-48463727D01*
X139780498Y-48272639D01*
X139748621Y-48224931D01*
X139332962Y-48640590D01*
X139315925Y-48577007D01*
X139250099Y-48462993D01*
X139157007Y-48369901D01*
X139042993Y-48304075D01*
X138979407Y-48287036D01*
X139395067Y-47871377D01*
X139347369Y-47839505D01*
X139347360Y-47839501D01*
X139156272Y-47760349D01*
X138953418Y-47720000D01*
X138746581Y-47720000D01*
X138543727Y-47760349D01*
X138352638Y-47839501D01*
X138304931Y-47871377D01*
X138720591Y-48287037D01*
X138657007Y-48304075D01*
X138542993Y-48369901D01*
X138449901Y-48462993D01*
X138384075Y-48577007D01*
X138367037Y-48640591D01*
X137951377Y-48224931D01*
X137919501Y-48272638D01*
X137840349Y-48463727D01*
X137800000Y-48666581D01*
X137360500Y-48666581D01*
X137360500Y-48666535D01*
X137320130Y-48463580D01*
X137240941Y-48272402D01*
X137125977Y-48100345D01*
X136979655Y-47954023D01*
X136979651Y-47954020D01*
X136807597Y-47839058D01*
X136616418Y-47759869D01*
X136413467Y-47719500D01*
X136413465Y-47719500D01*
X136206535Y-47719500D01*
X136206532Y-47719500D01*
X136003581Y-47759869D01*
X135812402Y-47839058D01*
X135640348Y-47954020D01*
X135494020Y-48100348D01*
X135379058Y-48272402D01*
X135299869Y-48463581D01*
X135259500Y-48666532D01*
X134820499Y-48666532D01*
X134780130Y-48463580D01*
X134700941Y-48272402D01*
X134585977Y-48100345D01*
X134439655Y-47954023D01*
X134439651Y-47954020D01*
X134267597Y-47839058D01*
X134076418Y-47759869D01*
X133873467Y-47719500D01*
X133873465Y-47719500D01*
X133666535Y-47719500D01*
X133666532Y-47719500D01*
X133463581Y-47759869D01*
X133272402Y-47839058D01*
X133100348Y-47954020D01*
X132954020Y-48100348D01*
X132839058Y-48272402D01*
X132759869Y-48463581D01*
X132719500Y-48666532D01*
X132280499Y-48666532D01*
X132240130Y-48463580D01*
X132160941Y-48272402D01*
X132045977Y-48100345D01*
X131899655Y-47954023D01*
X131899651Y-47954020D01*
X131727597Y-47839058D01*
X131536418Y-47759869D01*
X131333467Y-47719500D01*
X131333465Y-47719500D01*
X131126535Y-47719500D01*
X131126532Y-47719500D01*
X130923581Y-47759869D01*
X130732402Y-47839058D01*
X130560348Y-47954020D01*
X130414020Y-48100348D01*
X130299058Y-48272402D01*
X130219869Y-48463581D01*
X130179500Y-48666532D01*
X129740499Y-48666532D01*
X129700130Y-48463580D01*
X129620941Y-48272402D01*
X129505977Y-48100345D01*
X129359655Y-47954023D01*
X129359651Y-47954020D01*
X129187597Y-47839058D01*
X128996418Y-47759869D01*
X128793467Y-47719500D01*
X128793465Y-47719500D01*
X128586535Y-47719500D01*
X128586532Y-47719500D01*
X128383581Y-47759869D01*
X128192402Y-47839058D01*
X128020348Y-47954020D01*
X127874020Y-48100348D01*
X127759058Y-48272402D01*
X127679869Y-48463581D01*
X127639500Y-48666532D01*
X127200499Y-48666532D01*
X127160130Y-48463580D01*
X127080941Y-48272402D01*
X126965977Y-48100345D01*
X126819655Y-47954023D01*
X126819651Y-47954020D01*
X126647597Y-47839058D01*
X126456418Y-47759869D01*
X126253467Y-47719500D01*
X126253465Y-47719500D01*
X126046535Y-47719500D01*
X126046532Y-47719500D01*
X125843581Y-47759869D01*
X125652402Y-47839058D01*
X125480348Y-47954020D01*
X125334020Y-48100348D01*
X125219058Y-48272402D01*
X125139869Y-48463581D01*
X125099500Y-48666532D01*
X124660499Y-48666532D01*
X124620130Y-48463580D01*
X124540941Y-48272402D01*
X124425977Y-48100345D01*
X124279655Y-47954023D01*
X124279651Y-47954020D01*
X124107597Y-47839058D01*
X123916418Y-47759869D01*
X123713467Y-47719500D01*
X123713465Y-47719500D01*
X123506535Y-47719500D01*
X123506532Y-47719500D01*
X123303581Y-47759869D01*
X123112402Y-47839058D01*
X122940348Y-47954020D01*
X122794020Y-48100348D01*
X122679058Y-48272402D01*
X122599869Y-48463581D01*
X122559500Y-48666532D01*
X122120499Y-48666532D01*
X122080130Y-48463580D01*
X122000941Y-48272402D01*
X121885977Y-48100345D01*
X121739655Y-47954023D01*
X121739651Y-47954020D01*
X121567597Y-47839058D01*
X121376418Y-47759869D01*
X121173467Y-47719500D01*
X121173465Y-47719500D01*
X120966535Y-47719500D01*
X120966532Y-47719500D01*
X120763581Y-47759869D01*
X120572402Y-47839058D01*
X120400348Y-47954020D01*
X120254020Y-48100348D01*
X120139058Y-48272402D01*
X120059869Y-48463581D01*
X120019500Y-48666532D01*
X119579989Y-48666532D01*
X119539650Y-48463727D01*
X119460498Y-48272639D01*
X119428621Y-48224931D01*
X119012962Y-48640590D01*
X118995925Y-48577007D01*
X118930099Y-48462993D01*
X118837007Y-48369901D01*
X118722993Y-48304075D01*
X118659407Y-48287036D01*
X119075067Y-47871377D01*
X119027369Y-47839505D01*
X119027360Y-47839501D01*
X118836272Y-47760349D01*
X118633418Y-47720000D01*
X118426581Y-47720000D01*
X118223727Y-47760349D01*
X118032638Y-47839501D01*
X117984931Y-47871377D01*
X118400591Y-48287037D01*
X118337007Y-48304075D01*
X118222993Y-48369901D01*
X118129901Y-48462993D01*
X118064075Y-48577007D01*
X118047037Y-48640591D01*
X117631377Y-48224931D01*
X117599501Y-48272638D01*
X117520349Y-48463727D01*
X117480000Y-48666581D01*
X117040500Y-48666581D01*
X117040500Y-48666535D01*
X117000130Y-48463580D01*
X116920941Y-48272402D01*
X116805977Y-48100345D01*
X116659655Y-47954023D01*
X116659651Y-47954020D01*
X116487597Y-47839058D01*
X116296418Y-47759869D01*
X116093467Y-47719500D01*
X116093465Y-47719500D01*
X115886535Y-47719500D01*
X115886532Y-47719500D01*
X115683581Y-47759869D01*
X115492402Y-47839058D01*
X115320348Y-47954020D01*
X115174020Y-48100348D01*
X115059058Y-48272402D01*
X114979869Y-48463581D01*
X114939500Y-48666532D01*
X114500499Y-48666532D01*
X114460130Y-48463580D01*
X114380941Y-48272402D01*
X114265977Y-48100345D01*
X114119655Y-47954023D01*
X114119651Y-47954020D01*
X113947597Y-47839058D01*
X113756418Y-47759869D01*
X113553467Y-47719500D01*
X113553465Y-47719500D01*
X113346535Y-47719500D01*
X113346532Y-47719500D01*
X113143581Y-47759869D01*
X112952402Y-47839058D01*
X112780348Y-47954020D01*
X112634020Y-48100348D01*
X112519058Y-48272402D01*
X112439869Y-48463581D01*
X112399500Y-48666532D01*
X111960499Y-48666532D01*
X111920130Y-48463580D01*
X111840941Y-48272402D01*
X111725977Y-48100345D01*
X111579655Y-47954023D01*
X111579651Y-47954020D01*
X111407597Y-47839058D01*
X111216418Y-47759869D01*
X111013467Y-47719500D01*
X111013465Y-47719500D01*
X110806535Y-47719500D01*
X110806532Y-47719500D01*
X110603581Y-47759869D01*
X110412402Y-47839058D01*
X110240344Y-47954023D01*
X110228501Y-47965866D01*
X110173984Y-47993642D01*
X110113552Y-47984068D01*
X110070289Y-47940802D01*
X110059500Y-47895860D01*
X110059500Y-47104139D01*
X110078407Y-47045948D01*
X110127907Y-47009984D01*
X110189093Y-47009984D01*
X110228501Y-47034133D01*
X110240345Y-47045977D01*
X110412402Y-47160941D01*
X110603580Y-47240130D01*
X110806535Y-47280500D01*
X110806536Y-47280500D01*
X111013464Y-47280500D01*
X111013465Y-47280500D01*
X111216420Y-47240130D01*
X111407598Y-47160941D01*
X111579655Y-47045977D01*
X111725977Y-46899655D01*
X111840941Y-46727598D01*
X111920130Y-46536420D01*
X111960500Y-46333465D01*
X111960500Y-46126581D01*
X112400000Y-46126581D01*
X112400000Y-46333418D01*
X112440349Y-46536272D01*
X112519501Y-46727360D01*
X112519505Y-46727369D01*
X112551377Y-46775067D01*
X112967036Y-46359407D01*
X112984075Y-46422993D01*
X113049901Y-46537007D01*
X113142993Y-46630099D01*
X113257007Y-46695925D01*
X113320590Y-46712962D01*
X112904931Y-47128621D01*
X112952639Y-47160498D01*
X113143727Y-47239650D01*
X113346581Y-47279999D01*
X113346586Y-47280000D01*
X113553414Y-47280000D01*
X113553418Y-47279999D01*
X113756272Y-47239650D01*
X113947359Y-47160499D01*
X113995068Y-47128621D01*
X113579409Y-46712962D01*
X113642993Y-46695925D01*
X113757007Y-46630099D01*
X113850099Y-46537007D01*
X113915925Y-46422993D01*
X113932962Y-46359409D01*
X114348621Y-46775068D01*
X114380499Y-46727359D01*
X114459650Y-46536272D01*
X114499999Y-46333418D01*
X114500000Y-46333413D01*
X114500000Y-46126585D01*
X114499999Y-46126582D01*
X114499989Y-46126532D01*
X114939500Y-46126532D01*
X114939500Y-46333467D01*
X114979869Y-46536418D01*
X115059058Y-46727597D01*
X115174020Y-46899651D01*
X115174023Y-46899655D01*
X115320345Y-47045977D01*
X115492402Y-47160941D01*
X115683580Y-47240130D01*
X115886535Y-47280500D01*
X115886536Y-47280500D01*
X116093464Y-47280500D01*
X116093465Y-47280500D01*
X116296420Y-47240130D01*
X116487598Y-47160941D01*
X116659655Y-47045977D01*
X116805977Y-46899655D01*
X116920941Y-46727598D01*
X117000130Y-46536420D01*
X117040500Y-46333465D01*
X117040500Y-46126535D01*
X117040499Y-46126532D01*
X117479500Y-46126532D01*
X117479500Y-46333467D01*
X117519869Y-46536418D01*
X117599058Y-46727597D01*
X117714020Y-46899651D01*
X117714023Y-46899655D01*
X117860345Y-47045977D01*
X118032402Y-47160941D01*
X118223580Y-47240130D01*
X118426535Y-47280500D01*
X118426536Y-47280500D01*
X118633464Y-47280500D01*
X118633465Y-47280500D01*
X118836420Y-47240130D01*
X119027598Y-47160941D01*
X119199655Y-47045977D01*
X119345977Y-46899655D01*
X119460941Y-46727598D01*
X119540130Y-46536420D01*
X119580500Y-46333465D01*
X119580500Y-46126535D01*
X119580499Y-46126532D01*
X120019500Y-46126532D01*
X120019500Y-46333467D01*
X120059869Y-46536418D01*
X120139058Y-46727597D01*
X120254020Y-46899651D01*
X120254023Y-46899655D01*
X120400345Y-47045977D01*
X120572402Y-47160941D01*
X120763580Y-47240130D01*
X120966535Y-47280500D01*
X120966536Y-47280500D01*
X121173464Y-47280500D01*
X121173465Y-47280500D01*
X121376420Y-47240130D01*
X121567598Y-47160941D01*
X121739655Y-47045977D01*
X121885977Y-46899655D01*
X122000941Y-46727598D01*
X122080130Y-46536420D01*
X122120500Y-46333465D01*
X122120500Y-46126581D01*
X122560000Y-46126581D01*
X122560000Y-46333418D01*
X122600349Y-46536272D01*
X122679501Y-46727360D01*
X122679505Y-46727369D01*
X122711377Y-46775067D01*
X123127036Y-46359407D01*
X123144075Y-46422993D01*
X123209901Y-46537007D01*
X123302993Y-46630099D01*
X123417007Y-46695925D01*
X123480590Y-46712962D01*
X123064931Y-47128621D01*
X123112639Y-47160498D01*
X123303727Y-47239650D01*
X123506581Y-47279999D01*
X123506586Y-47280000D01*
X123713414Y-47280000D01*
X123713418Y-47279999D01*
X123916272Y-47239650D01*
X124107359Y-47160499D01*
X124155068Y-47128621D01*
X123739409Y-46712962D01*
X123802993Y-46695925D01*
X123917007Y-46630099D01*
X124010099Y-46537007D01*
X124075925Y-46422993D01*
X124092962Y-46359409D01*
X124508621Y-46775068D01*
X124540499Y-46727359D01*
X124619650Y-46536272D01*
X124659999Y-46333418D01*
X124660000Y-46333413D01*
X124660000Y-46126585D01*
X124659999Y-46126582D01*
X124659989Y-46126532D01*
X125099500Y-46126532D01*
X125099500Y-46333467D01*
X125139869Y-46536418D01*
X125219058Y-46727597D01*
X125334020Y-46899651D01*
X125334023Y-46899655D01*
X125480345Y-47045977D01*
X125652402Y-47160941D01*
X125843580Y-47240130D01*
X126046535Y-47280500D01*
X126046536Y-47280500D01*
X126253464Y-47280500D01*
X126253465Y-47280500D01*
X126456420Y-47240130D01*
X126647598Y-47160941D01*
X126819655Y-47045977D01*
X126965977Y-46899655D01*
X127080941Y-46727598D01*
X127160130Y-46536420D01*
X127200500Y-46333465D01*
X127200500Y-46126535D01*
X127200499Y-46126532D01*
X127639500Y-46126532D01*
X127639500Y-46333467D01*
X127679869Y-46536418D01*
X127759058Y-46727597D01*
X127874020Y-46899651D01*
X127874023Y-46899655D01*
X128020345Y-47045977D01*
X128192402Y-47160941D01*
X128383580Y-47240130D01*
X128586535Y-47280500D01*
X128586536Y-47280500D01*
X128793464Y-47280500D01*
X128793465Y-47280500D01*
X128996420Y-47240130D01*
X129187598Y-47160941D01*
X129359655Y-47045977D01*
X129505977Y-46899655D01*
X129620941Y-46727598D01*
X129700130Y-46536420D01*
X129740500Y-46333465D01*
X129740500Y-46126581D01*
X130180000Y-46126581D01*
X130180000Y-46333418D01*
X130220349Y-46536272D01*
X130299501Y-46727360D01*
X130299505Y-46727369D01*
X130331377Y-46775067D01*
X130747036Y-46359407D01*
X130764075Y-46422993D01*
X130829901Y-46537007D01*
X130922993Y-46630099D01*
X131037007Y-46695925D01*
X131100590Y-46712962D01*
X130684931Y-47128621D01*
X130732639Y-47160498D01*
X130923727Y-47239650D01*
X131126581Y-47279999D01*
X131126586Y-47280000D01*
X131333414Y-47280000D01*
X131333418Y-47279999D01*
X131536272Y-47239650D01*
X131727359Y-47160499D01*
X131775068Y-47128621D01*
X131359409Y-46712962D01*
X131422993Y-46695925D01*
X131537007Y-46630099D01*
X131630099Y-46537007D01*
X131695925Y-46422993D01*
X131712962Y-46359409D01*
X132128621Y-46775068D01*
X132160499Y-46727359D01*
X132239650Y-46536272D01*
X132279999Y-46333418D01*
X132280000Y-46333413D01*
X132280000Y-46126585D01*
X132279999Y-46126582D01*
X132279989Y-46126532D01*
X132719500Y-46126532D01*
X132719500Y-46333467D01*
X132759869Y-46536418D01*
X132839058Y-46727597D01*
X132954020Y-46899651D01*
X132954023Y-46899655D01*
X133100345Y-47045977D01*
X133272402Y-47160941D01*
X133463580Y-47240130D01*
X133666535Y-47280500D01*
X133666536Y-47280500D01*
X133873464Y-47280500D01*
X133873465Y-47280500D01*
X134076420Y-47240130D01*
X134267598Y-47160941D01*
X134439655Y-47045977D01*
X134585977Y-46899655D01*
X134700941Y-46727598D01*
X134780130Y-46536420D01*
X134820500Y-46333465D01*
X134820500Y-46126535D01*
X134820499Y-46126532D01*
X135259500Y-46126532D01*
X135259500Y-46333467D01*
X135299869Y-46536418D01*
X135379058Y-46727597D01*
X135494020Y-46899651D01*
X135494023Y-46899655D01*
X135640345Y-47045977D01*
X135812402Y-47160941D01*
X136003580Y-47240130D01*
X136206535Y-47280500D01*
X136206536Y-47280500D01*
X136413464Y-47280500D01*
X136413465Y-47280500D01*
X136616420Y-47240130D01*
X136807598Y-47160941D01*
X136979655Y-47045977D01*
X137125977Y-46899655D01*
X137240941Y-46727598D01*
X137320130Y-46536420D01*
X137360500Y-46333465D01*
X137360500Y-46126535D01*
X137360499Y-46126532D01*
X137799500Y-46126532D01*
X137799500Y-46333467D01*
X137839869Y-46536418D01*
X137919058Y-46727597D01*
X138034020Y-46899651D01*
X138034023Y-46899655D01*
X138180345Y-47045977D01*
X138352402Y-47160941D01*
X138543580Y-47240130D01*
X138746535Y-47280500D01*
X138746536Y-47280500D01*
X138953464Y-47280500D01*
X138953465Y-47280500D01*
X139156420Y-47240130D01*
X139347598Y-47160941D01*
X139519655Y-47045977D01*
X139665977Y-46899655D01*
X139780941Y-46727598D01*
X139860130Y-46536420D01*
X139900500Y-46333465D01*
X139900500Y-46126535D01*
X139900499Y-46126532D01*
X140339500Y-46126532D01*
X140339500Y-46333467D01*
X140379869Y-46536418D01*
X140459058Y-46727597D01*
X140574020Y-46899651D01*
X140574023Y-46899655D01*
X140720345Y-47045977D01*
X140892402Y-47160941D01*
X141083580Y-47240130D01*
X141286535Y-47280500D01*
X141286536Y-47280500D01*
X141493464Y-47280500D01*
X141493465Y-47280500D01*
X141696420Y-47240130D01*
X141887598Y-47160941D01*
X142059655Y-47045977D01*
X142205977Y-46899655D01*
X142320941Y-46727598D01*
X142400130Y-46536420D01*
X142440500Y-46333465D01*
X142440500Y-46126581D01*
X142880000Y-46126581D01*
X142880000Y-46333418D01*
X142920349Y-46536272D01*
X142999501Y-46727360D01*
X142999505Y-46727369D01*
X143031377Y-46775067D01*
X143447036Y-46359407D01*
X143464075Y-46422993D01*
X143529901Y-46537007D01*
X143622993Y-46630099D01*
X143737007Y-46695925D01*
X143800590Y-46712962D01*
X143384931Y-47128621D01*
X143432639Y-47160498D01*
X143623727Y-47239650D01*
X143826581Y-47279999D01*
X143826586Y-47280000D01*
X144033414Y-47280000D01*
X144033418Y-47279999D01*
X144236272Y-47239650D01*
X144427359Y-47160499D01*
X144475068Y-47128621D01*
X144059409Y-46712962D01*
X144122993Y-46695925D01*
X144237007Y-46630099D01*
X144330099Y-46537007D01*
X144395925Y-46422993D01*
X144412962Y-46359409D01*
X144828621Y-46775068D01*
X144860499Y-46727359D01*
X144939650Y-46536272D01*
X144979999Y-46333418D01*
X144980000Y-46333413D01*
X144980000Y-46126585D01*
X144979999Y-46126582D01*
X144979989Y-46126532D01*
X145419500Y-46126532D01*
X145419500Y-46333467D01*
X145459869Y-46536418D01*
X145539058Y-46727597D01*
X145654020Y-46899651D01*
X145654023Y-46899655D01*
X145800345Y-47045977D01*
X145972402Y-47160941D01*
X146163580Y-47240130D01*
X146366535Y-47280500D01*
X146366536Y-47280500D01*
X146573464Y-47280500D01*
X146573465Y-47280500D01*
X146776420Y-47240130D01*
X146967598Y-47160941D01*
X147139655Y-47045977D01*
X147285977Y-46899655D01*
X147400941Y-46727598D01*
X147480130Y-46536420D01*
X147520500Y-46333465D01*
X147520500Y-46126581D01*
X147960000Y-46126581D01*
X147960000Y-46333418D01*
X148000349Y-46536272D01*
X148079501Y-46727360D01*
X148079505Y-46727369D01*
X148111377Y-46775067D01*
X148527036Y-46359407D01*
X148544075Y-46422993D01*
X148609901Y-46537007D01*
X148702993Y-46630099D01*
X148817007Y-46695925D01*
X148880590Y-46712962D01*
X148464931Y-47128621D01*
X148512639Y-47160498D01*
X148703727Y-47239650D01*
X148906581Y-47279999D01*
X148906586Y-47280000D01*
X149113414Y-47280000D01*
X149113418Y-47279999D01*
X149316272Y-47239650D01*
X149507359Y-47160499D01*
X149555068Y-47128621D01*
X149139409Y-46712962D01*
X149202993Y-46695925D01*
X149317007Y-46630099D01*
X149410099Y-46537007D01*
X149475925Y-46422993D01*
X149492962Y-46359409D01*
X149908621Y-46775068D01*
X149940499Y-46727359D01*
X150019650Y-46536272D01*
X150059999Y-46333418D01*
X150060000Y-46333413D01*
X150060000Y-46126585D01*
X150059999Y-46126582D01*
X150059989Y-46126532D01*
X150499500Y-46126532D01*
X150499500Y-46333467D01*
X150539869Y-46536418D01*
X150619058Y-46727597D01*
X150734020Y-46899651D01*
X150734023Y-46899655D01*
X150880345Y-47045977D01*
X151052402Y-47160941D01*
X151243580Y-47240130D01*
X151446535Y-47280500D01*
X151446536Y-47280500D01*
X151653464Y-47280500D01*
X151653465Y-47280500D01*
X151856420Y-47240130D01*
X152047598Y-47160941D01*
X152219655Y-47045977D01*
X152365977Y-46899655D01*
X152480941Y-46727598D01*
X152560130Y-46536420D01*
X152600500Y-46333465D01*
X152600500Y-46126535D01*
X152560130Y-45923580D01*
X152480941Y-45732402D01*
X152365977Y-45560345D01*
X152219655Y-45414023D01*
X152219651Y-45414020D01*
X152047597Y-45299058D01*
X151856418Y-45219869D01*
X151653467Y-45179500D01*
X151653465Y-45179500D01*
X151446535Y-45179500D01*
X151446532Y-45179500D01*
X151243581Y-45219869D01*
X151052402Y-45299058D01*
X150880348Y-45414020D01*
X150734020Y-45560348D01*
X150619058Y-45732402D01*
X150539869Y-45923581D01*
X150499500Y-46126532D01*
X150059989Y-46126532D01*
X150019650Y-45923727D01*
X149940498Y-45732639D01*
X149908621Y-45684931D01*
X149492962Y-46100590D01*
X149475925Y-46037007D01*
X149410099Y-45922993D01*
X149317007Y-45829901D01*
X149202993Y-45764075D01*
X149139407Y-45747036D01*
X149555067Y-45331377D01*
X149507369Y-45299505D01*
X149507360Y-45299501D01*
X149316272Y-45220349D01*
X149113418Y-45180000D01*
X148906581Y-45180000D01*
X148703727Y-45220349D01*
X148512638Y-45299501D01*
X148464931Y-45331377D01*
X148880591Y-45747037D01*
X148817007Y-45764075D01*
X148702993Y-45829901D01*
X148609901Y-45922993D01*
X148544075Y-46037007D01*
X148527037Y-46100591D01*
X148111377Y-45684931D01*
X148079501Y-45732638D01*
X148000349Y-45923727D01*
X147960000Y-46126581D01*
X147520500Y-46126581D01*
X147520500Y-46126535D01*
X147480130Y-45923580D01*
X147400941Y-45732402D01*
X147285977Y-45560345D01*
X147139655Y-45414023D01*
X147139651Y-45414020D01*
X146967597Y-45299058D01*
X146776418Y-45219869D01*
X146573467Y-45179500D01*
X146573465Y-45179500D01*
X146366535Y-45179500D01*
X146366532Y-45179500D01*
X146163581Y-45219869D01*
X145972402Y-45299058D01*
X145800348Y-45414020D01*
X145654020Y-45560348D01*
X145539058Y-45732402D01*
X145459869Y-45923581D01*
X145419500Y-46126532D01*
X144979989Y-46126532D01*
X144939650Y-45923727D01*
X144860498Y-45732639D01*
X144828621Y-45684931D01*
X144412962Y-46100590D01*
X144395925Y-46037007D01*
X144330099Y-45922993D01*
X144237007Y-45829901D01*
X144122993Y-45764075D01*
X144059407Y-45747036D01*
X144475067Y-45331377D01*
X144427369Y-45299505D01*
X144427360Y-45299501D01*
X144236272Y-45220349D01*
X144033418Y-45180000D01*
X143826581Y-45180000D01*
X143623727Y-45220349D01*
X143432638Y-45299501D01*
X143384931Y-45331377D01*
X143800591Y-45747037D01*
X143737007Y-45764075D01*
X143622993Y-45829901D01*
X143529901Y-45922993D01*
X143464075Y-46037007D01*
X143447037Y-46100591D01*
X143031377Y-45684931D01*
X142999501Y-45732638D01*
X142920349Y-45923727D01*
X142880000Y-46126581D01*
X142440500Y-46126581D01*
X142440500Y-46126535D01*
X142400130Y-45923580D01*
X142320941Y-45732402D01*
X142205977Y-45560345D01*
X142059655Y-45414023D01*
X142059651Y-45414020D01*
X141887597Y-45299058D01*
X141696418Y-45219869D01*
X141493467Y-45179500D01*
X141493465Y-45179500D01*
X141286535Y-45179500D01*
X141286532Y-45179500D01*
X141083581Y-45219869D01*
X140892402Y-45299058D01*
X140720348Y-45414020D01*
X140574020Y-45560348D01*
X140459058Y-45732402D01*
X140379869Y-45923581D01*
X140339500Y-46126532D01*
X139900499Y-46126532D01*
X139860130Y-45923580D01*
X139780941Y-45732402D01*
X139665977Y-45560345D01*
X139519655Y-45414023D01*
X139519651Y-45414020D01*
X139347597Y-45299058D01*
X139156418Y-45219869D01*
X138953467Y-45179500D01*
X138953465Y-45179500D01*
X138746535Y-45179500D01*
X138746532Y-45179500D01*
X138543581Y-45219869D01*
X138352402Y-45299058D01*
X138180348Y-45414020D01*
X138034020Y-45560348D01*
X137919058Y-45732402D01*
X137839869Y-45923581D01*
X137799500Y-46126532D01*
X137360499Y-46126532D01*
X137320130Y-45923580D01*
X137240941Y-45732402D01*
X137125977Y-45560345D01*
X136979655Y-45414023D01*
X136979651Y-45414020D01*
X136807597Y-45299058D01*
X136616418Y-45219869D01*
X136413467Y-45179500D01*
X136413465Y-45179500D01*
X136206535Y-45179500D01*
X136206532Y-45179500D01*
X136003581Y-45219869D01*
X135812402Y-45299058D01*
X135640348Y-45414020D01*
X135494020Y-45560348D01*
X135379058Y-45732402D01*
X135299869Y-45923581D01*
X135259500Y-46126532D01*
X134820499Y-46126532D01*
X134780130Y-45923580D01*
X134700941Y-45732402D01*
X134585977Y-45560345D01*
X134439655Y-45414023D01*
X134439651Y-45414020D01*
X134267597Y-45299058D01*
X134076418Y-45219869D01*
X133873467Y-45179500D01*
X133873465Y-45179500D01*
X133666535Y-45179500D01*
X133666532Y-45179500D01*
X133463581Y-45219869D01*
X133272402Y-45299058D01*
X133100348Y-45414020D01*
X132954020Y-45560348D01*
X132839058Y-45732402D01*
X132759869Y-45923581D01*
X132719500Y-46126532D01*
X132279989Y-46126532D01*
X132239650Y-45923727D01*
X132160498Y-45732639D01*
X132128621Y-45684931D01*
X131712962Y-46100590D01*
X131695925Y-46037007D01*
X131630099Y-45922993D01*
X131537007Y-45829901D01*
X131422993Y-45764075D01*
X131359407Y-45747036D01*
X131775067Y-45331377D01*
X131727369Y-45299505D01*
X131727360Y-45299501D01*
X131536272Y-45220349D01*
X131333418Y-45180000D01*
X131126581Y-45180000D01*
X130923727Y-45220349D01*
X130732638Y-45299501D01*
X130684931Y-45331377D01*
X131100591Y-45747037D01*
X131037007Y-45764075D01*
X130922993Y-45829901D01*
X130829901Y-45922993D01*
X130764075Y-46037007D01*
X130747037Y-46100591D01*
X130331377Y-45684931D01*
X130299501Y-45732638D01*
X130220349Y-45923727D01*
X130180000Y-46126581D01*
X129740500Y-46126581D01*
X129740500Y-46126535D01*
X129700130Y-45923580D01*
X129620941Y-45732402D01*
X129505977Y-45560345D01*
X129359655Y-45414023D01*
X129359651Y-45414020D01*
X129187597Y-45299058D01*
X128996418Y-45219869D01*
X128793467Y-45179500D01*
X128793465Y-45179500D01*
X128586535Y-45179500D01*
X128586532Y-45179500D01*
X128383581Y-45219869D01*
X128192402Y-45299058D01*
X128020348Y-45414020D01*
X127874020Y-45560348D01*
X127759058Y-45732402D01*
X127679869Y-45923581D01*
X127639500Y-46126532D01*
X127200499Y-46126532D01*
X127160130Y-45923580D01*
X127080941Y-45732402D01*
X126965977Y-45560345D01*
X126819655Y-45414023D01*
X126819651Y-45414020D01*
X126647597Y-45299058D01*
X126456418Y-45219869D01*
X126253467Y-45179500D01*
X126253465Y-45179500D01*
X126046535Y-45179500D01*
X126046532Y-45179500D01*
X125843581Y-45219869D01*
X125652402Y-45299058D01*
X125480348Y-45414020D01*
X125334020Y-45560348D01*
X125219058Y-45732402D01*
X125139869Y-45923581D01*
X125099500Y-46126532D01*
X124659989Y-46126532D01*
X124619650Y-45923727D01*
X124540498Y-45732639D01*
X124508621Y-45684931D01*
X124092962Y-46100590D01*
X124075925Y-46037007D01*
X124010099Y-45922993D01*
X123917007Y-45829901D01*
X123802993Y-45764075D01*
X123739407Y-45747036D01*
X124155067Y-45331377D01*
X124107369Y-45299505D01*
X124107360Y-45299501D01*
X123916272Y-45220349D01*
X123713418Y-45180000D01*
X123506581Y-45180000D01*
X123303727Y-45220349D01*
X123112638Y-45299501D01*
X123064931Y-45331377D01*
X123480591Y-45747037D01*
X123417007Y-45764075D01*
X123302993Y-45829901D01*
X123209901Y-45922993D01*
X123144075Y-46037007D01*
X123127037Y-46100591D01*
X122711377Y-45684931D01*
X122679501Y-45732638D01*
X122600349Y-45923727D01*
X122560000Y-46126581D01*
X122120500Y-46126581D01*
X122120500Y-46126535D01*
X122080130Y-45923580D01*
X122000941Y-45732402D01*
X121885977Y-45560345D01*
X121739655Y-45414023D01*
X121739651Y-45414020D01*
X121567597Y-45299058D01*
X121376418Y-45219869D01*
X121173467Y-45179500D01*
X121173465Y-45179500D01*
X120966535Y-45179500D01*
X120966532Y-45179500D01*
X120763581Y-45219869D01*
X120572402Y-45299058D01*
X120400348Y-45414020D01*
X120254020Y-45560348D01*
X120139058Y-45732402D01*
X120059869Y-45923581D01*
X120019500Y-46126532D01*
X119580499Y-46126532D01*
X119540130Y-45923580D01*
X119460941Y-45732402D01*
X119345977Y-45560345D01*
X119199655Y-45414023D01*
X119199651Y-45414020D01*
X119027597Y-45299058D01*
X118836418Y-45219869D01*
X118633467Y-45179500D01*
X118633465Y-45179500D01*
X118426535Y-45179500D01*
X118426532Y-45179500D01*
X118223581Y-45219869D01*
X118032402Y-45299058D01*
X117860348Y-45414020D01*
X117714020Y-45560348D01*
X117599058Y-45732402D01*
X117519869Y-45923581D01*
X117479500Y-46126532D01*
X117040499Y-46126532D01*
X117000130Y-45923580D01*
X116920941Y-45732402D01*
X116805977Y-45560345D01*
X116659655Y-45414023D01*
X116659651Y-45414020D01*
X116487597Y-45299058D01*
X116296418Y-45219869D01*
X116093467Y-45179500D01*
X116093465Y-45179500D01*
X115886535Y-45179500D01*
X115886532Y-45179500D01*
X115683581Y-45219869D01*
X115492402Y-45299058D01*
X115320348Y-45414020D01*
X115174020Y-45560348D01*
X115059058Y-45732402D01*
X114979869Y-45923581D01*
X114939500Y-46126532D01*
X114499989Y-46126532D01*
X114459650Y-45923727D01*
X114380498Y-45732639D01*
X114348621Y-45684931D01*
X113932962Y-46100590D01*
X113915925Y-46037007D01*
X113850099Y-45922993D01*
X113757007Y-45829901D01*
X113642993Y-45764075D01*
X113579407Y-45747036D01*
X113995067Y-45331377D01*
X113947369Y-45299505D01*
X113947360Y-45299501D01*
X113756272Y-45220349D01*
X113553418Y-45180000D01*
X113346581Y-45180000D01*
X113143727Y-45220349D01*
X112952638Y-45299501D01*
X112904931Y-45331377D01*
X113320591Y-45747037D01*
X113257007Y-45764075D01*
X113142993Y-45829901D01*
X113049901Y-45922993D01*
X112984075Y-46037007D01*
X112967037Y-46100591D01*
X112551377Y-45684931D01*
X112519501Y-45732638D01*
X112440349Y-45923727D01*
X112400000Y-46126581D01*
X111960500Y-46126581D01*
X111960500Y-46126535D01*
X111920130Y-45923580D01*
X111840941Y-45732402D01*
X111725977Y-45560345D01*
X111579655Y-45414023D01*
X111579651Y-45414020D01*
X111407597Y-45299058D01*
X111216418Y-45219869D01*
X111013467Y-45179500D01*
X111013465Y-45179500D01*
X110996718Y-45179500D01*
X110938527Y-45160593D01*
X110902563Y-45111093D01*
X110902563Y-45049907D01*
X110926714Y-45010496D01*
X111129714Y-44807496D01*
X111184231Y-44779719D01*
X111199718Y-44778500D01*
X156340281Y-44778500D01*
X156398472Y-44797407D01*
X156410285Y-44807496D01*
X156613285Y-45010496D01*
X156641062Y-45065013D01*
X156631491Y-45125445D01*
X156588226Y-45168710D01*
X156543281Y-45179500D01*
X156526532Y-45179500D01*
X156323581Y-45219869D01*
X156132402Y-45299058D01*
X155960348Y-45414020D01*
X155814020Y-45560348D01*
X155699058Y-45732402D01*
X155619869Y-45923581D01*
X155579500Y-46126532D01*
X155579500Y-46333467D01*
X155619869Y-46536418D01*
X155699058Y-46727597D01*
X155814020Y-46899651D01*
X155814023Y-46899655D01*
X155960345Y-47045977D01*
X156132402Y-47160941D01*
X156323580Y-47240130D01*
X156526535Y-47280500D01*
X156526536Y-47280500D01*
X156733464Y-47280500D01*
X156733465Y-47280500D01*
X156936420Y-47240130D01*
X157127598Y-47160941D01*
X157299655Y-47045977D01*
X157311498Y-47034133D01*
X157366013Y-47006358D01*
X157426445Y-47015929D01*
X157469710Y-47059194D01*
X157480500Y-47104139D01*
X157480500Y-48232045D01*
X157461593Y-48290236D01*
X157451504Y-48302049D01*
X157112962Y-48640589D01*
X157095925Y-48577007D01*
X157030099Y-48462993D01*
X156937007Y-48369901D01*
X156822993Y-48304075D01*
X156759407Y-48287036D01*
X157175067Y-47871377D01*
X157127369Y-47839505D01*
X157127360Y-47839501D01*
X156936272Y-47760349D01*
X156733418Y-47720000D01*
X156526581Y-47720000D01*
X156323727Y-47760349D01*
X156132638Y-47839501D01*
X156084931Y-47871377D01*
X156500591Y-48287037D01*
X156437007Y-48304075D01*
X156322993Y-48369901D01*
X156229901Y-48462993D01*
X156164075Y-48577007D01*
X156147037Y-48640591D01*
X155731377Y-48224931D01*
X155699501Y-48272638D01*
X155620349Y-48463727D01*
X155580000Y-48666581D01*
X155580000Y-48873418D01*
X155620349Y-49076272D01*
X155699501Y-49267360D01*
X155699505Y-49267369D01*
X155731377Y-49315067D01*
X156147036Y-48899407D01*
X156164075Y-48962993D01*
X156229901Y-49077007D01*
X156322993Y-49170099D01*
X156437007Y-49235925D01*
X156500590Y-49252962D01*
X156084931Y-49668621D01*
X156132639Y-49700498D01*
X156323727Y-49779650D01*
X156526581Y-49819999D01*
X156526586Y-49820000D01*
X156733414Y-49820000D01*
X156733418Y-49819999D01*
X156936272Y-49779650D01*
X157127359Y-49700499D01*
X157175068Y-49668621D01*
X156759409Y-49252962D01*
X156822993Y-49235925D01*
X156937007Y-49170099D01*
X157030099Y-49077007D01*
X157095925Y-48962993D01*
X157112962Y-48899408D01*
X157451504Y-49237950D01*
X157479281Y-49292467D01*
X157480500Y-49307954D01*
X157480500Y-72962040D01*
X157461593Y-73020231D01*
X157451504Y-73032044D01*
X155078699Y-75404848D01*
X155057360Y-75421057D01*
X155048811Y-75425882D01*
X155045413Y-75426793D01*
X154967613Y-75471711D01*
X154967230Y-75471931D01*
X154967193Y-75471953D01*
X154954089Y-75479518D01*
X154954087Y-75479519D01*
X154613102Y-75820504D01*
X154558586Y-75848281D01*
X154543099Y-75849500D01*
X154435930Y-75849500D01*
X154373093Y-75861999D01*
X154310256Y-75874499D01*
X154310255Y-75874499D01*
X154310252Y-75874500D01*
X154191874Y-75923534D01*
X154191866Y-75923538D01*
X154085331Y-75994724D01*
X154085321Y-75994732D01*
X154012911Y-76067142D01*
X153958394Y-76094919D01*
X153897962Y-76085347D01*
X153854698Y-76042082D01*
X153851443Y-76035022D01*
X153846134Y-76022205D01*
X153846134Y-76022204D01*
X153846132Y-76022201D01*
X153846130Y-76022197D01*
X153803786Y-75958826D01*
X153774945Y-75915662D01*
X153684338Y-75825055D01*
X153608676Y-75774499D01*
X153577802Y-75753869D01*
X153577794Y-75753865D01*
X153459416Y-75704831D01*
X153459414Y-75704830D01*
X153459413Y-75704830D01*
X153333738Y-75679831D01*
X153205600Y-75679831D01*
X153205599Y-75679831D01*
X153142762Y-75692330D01*
X153079925Y-75704830D01*
X153079924Y-75704830D01*
X153079921Y-75704831D01*
X152961543Y-75753865D01*
X152961535Y-75753869D01*
X152855000Y-75825055D01*
X152854996Y-75825058D01*
X152764396Y-75915658D01*
X152764393Y-75915662D01*
X152693207Y-76022197D01*
X152693203Y-76022205D01*
X152644169Y-76140583D01*
X152644168Y-76140586D01*
X152644168Y-76140587D01*
X152637304Y-76175094D01*
X152622361Y-76250217D01*
X152619169Y-76266262D01*
X152619169Y-76394400D01*
X152634155Y-76469740D01*
X152644168Y-76520073D01*
X152644169Y-76520078D01*
X152693203Y-76638456D01*
X152693207Y-76638464D01*
X152716689Y-76673606D01*
X152764393Y-76745000D01*
X152855000Y-76835607D01*
X152917654Y-76877471D01*
X152944458Y-76895381D01*
X152982337Y-76943431D01*
X152984739Y-77004569D01*
X152950746Y-77055443D01*
X152914613Y-77072104D01*
X152914912Y-77073087D01*
X152910252Y-77074500D01*
X152791874Y-77123534D01*
X152791866Y-77123538D01*
X152685331Y-77194724D01*
X152685327Y-77194727D01*
X152594727Y-77285327D01*
X152594724Y-77285331D01*
X152547837Y-77355502D01*
X152499787Y-77393381D01*
X152465522Y-77399500D01*
X143060435Y-77399500D01*
X142984012Y-77419978D01*
X142937761Y-77446680D01*
X142937760Y-77446682D01*
X142920466Y-77456667D01*
X142915486Y-77459542D01*
X142313321Y-78061705D01*
X142262636Y-78088798D01*
X142239259Y-78093448D01*
X142239257Y-78093449D01*
X142120874Y-78142485D01*
X142120866Y-78142489D01*
X142014331Y-78213675D01*
X142014327Y-78213678D01*
X141923727Y-78304278D01*
X141923724Y-78304282D01*
X141852538Y-78410817D01*
X141852534Y-78410825D01*
X141803500Y-78529203D01*
X141803499Y-78529208D01*
X141779571Y-78649500D01*
X141778500Y-78654882D01*
X141778500Y-78783020D01*
X141798851Y-78885331D01*
X141803499Y-78908693D01*
X141803501Y-78908702D01*
X141822809Y-78955315D01*
X141827610Y-79016312D01*
X141795640Y-79068480D01*
X141739112Y-79091895D01*
X141679617Y-79077611D01*
X141661341Y-79063204D01*
X140854496Y-78256359D01*
X140826719Y-78201842D01*
X140825500Y-78186355D01*
X140825500Y-76102578D01*
X140825499Y-76102574D01*
X140822632Y-76091873D01*
X140804872Y-76025591D01*
X140801500Y-75999974D01*
X140801500Y-75435718D01*
X140801500Y-75435717D01*
X140779318Y-75352932D01*
X140779318Y-75352931D01*
X140779318Y-75352930D01*
X140736468Y-75278712D01*
X140736464Y-75278707D01*
X140605496Y-75147738D01*
X140577719Y-75093222D01*
X140576500Y-75077735D01*
X140576500Y-73024834D01*
X140595407Y-72966643D01*
X140605490Y-72954836D01*
X141316480Y-72243847D01*
X141316483Y-72243842D01*
X141320429Y-72238700D01*
X141320652Y-72238871D01*
X141331135Y-72225206D01*
X141728839Y-71827504D01*
X141783355Y-71799727D01*
X141798842Y-71798508D01*
X141812076Y-71798508D01*
X141812077Y-71798508D01*
X141937752Y-71773509D01*
X142056135Y-71724473D01*
X142162677Y-71653284D01*
X142253284Y-71562677D01*
X142324473Y-71456135D01*
X142373509Y-71337752D01*
X142398508Y-71212077D01*
X142398508Y-71083939D01*
X142373509Y-70958264D01*
X142324473Y-70839881D01*
X142324471Y-70839878D01*
X142324469Y-70839874D01*
X142280694Y-70774361D01*
X142253284Y-70733339D01*
X142162677Y-70642732D01*
X142120234Y-70614373D01*
X142056141Y-70571546D01*
X142056133Y-70571542D01*
X141937755Y-70522508D01*
X141937753Y-70522507D01*
X141937752Y-70522507D01*
X141812077Y-70497508D01*
X141683939Y-70497508D01*
X141683938Y-70497508D01*
X141621101Y-70510007D01*
X141558264Y-70522507D01*
X141558263Y-70522507D01*
X141558260Y-70522508D01*
X141439882Y-70571542D01*
X141439874Y-70571546D01*
X141333339Y-70642732D01*
X141333335Y-70642735D01*
X141242735Y-70733335D01*
X141242732Y-70733339D01*
X141171546Y-70839874D01*
X141171542Y-70839882D01*
X141122508Y-70958260D01*
X141122507Y-70958265D01*
X141099386Y-71074500D01*
X141097508Y-71083939D01*
X141097508Y-71212077D01*
X141110649Y-71278141D01*
X141122507Y-71337750D01*
X141122509Y-71337759D01*
X141148574Y-71400685D01*
X141153375Y-71461682D01*
X141127114Y-71508573D01*
X140795553Y-71840135D01*
X140791601Y-71845286D01*
X140791378Y-71845115D01*
X140780894Y-71858776D01*
X140294504Y-72345167D01*
X140239987Y-72372945D01*
X140179555Y-72363374D01*
X140136290Y-72320109D01*
X140125500Y-72275164D01*
X140125500Y-71075835D01*
X140144407Y-71017644D01*
X140154496Y-71005831D01*
X141405831Y-69754496D01*
X141460348Y-69726719D01*
X141475835Y-69725500D01*
X142382227Y-69725500D01*
X142440418Y-69744407D01*
X142464540Y-69769496D01*
X142494724Y-69814669D01*
X142585331Y-69905276D01*
X142648848Y-69947717D01*
X142691866Y-69976461D01*
X142691870Y-69976463D01*
X142691873Y-69976465D01*
X142810256Y-70025501D01*
X142935931Y-70050500D01*
X142935932Y-70050500D01*
X143064068Y-70050500D01*
X143064069Y-70050500D01*
X143189744Y-70025501D01*
X143308127Y-69976465D01*
X143414669Y-69905276D01*
X143430496Y-69889449D01*
X143485013Y-69861672D01*
X143545445Y-69871243D01*
X143588710Y-69914508D01*
X143599500Y-69959453D01*
X143599500Y-70950500D01*
X143580593Y-71008691D01*
X143531093Y-71044655D01*
X143500500Y-71049500D01*
X143435930Y-71049500D01*
X143400504Y-71056547D01*
X143310256Y-71074499D01*
X143310255Y-71074499D01*
X143310252Y-71074500D01*
X143191874Y-71123534D01*
X143191866Y-71123538D01*
X143085331Y-71194724D01*
X143085327Y-71194727D01*
X142994727Y-71285327D01*
X142994724Y-71285331D01*
X142923538Y-71391866D01*
X142923534Y-71391874D01*
X142874500Y-71510252D01*
X142874499Y-71510255D01*
X142874499Y-71510256D01*
X142849500Y-71635931D01*
X142849500Y-71764069D01*
X142865621Y-71845115D01*
X142874499Y-71889742D01*
X142874500Y-71889747D01*
X142923534Y-72008125D01*
X142923538Y-72008133D01*
X142960913Y-72064067D01*
X142994724Y-72114669D01*
X143085331Y-72205276D01*
X143135354Y-72238700D01*
X143191866Y-72276461D01*
X143191870Y-72276463D01*
X143191873Y-72276465D01*
X143310256Y-72325501D01*
X143435931Y-72350500D01*
X143435932Y-72350500D01*
X143564068Y-72350500D01*
X143564069Y-72350500D01*
X143689744Y-72325501D01*
X143808127Y-72276465D01*
X143914669Y-72205276D01*
X144005276Y-72114669D01*
X144076465Y-72008127D01*
X144125501Y-71889744D01*
X144150500Y-71764069D01*
X144150500Y-71635931D01*
X144135928Y-71562677D01*
X144132795Y-71546924D01*
X144133346Y-71542261D01*
X144131436Y-71537972D01*
X144136892Y-71512300D01*
X144139985Y-71486163D01*
X144144148Y-71478122D01*
X144146732Y-71473647D01*
X144180021Y-71415989D01*
X144200500Y-71339562D01*
X144200500Y-69365479D01*
X144219407Y-69307288D01*
X144229496Y-69295475D01*
X145095475Y-68429496D01*
X145149992Y-68401719D01*
X145165479Y-68400500D01*
X147750500Y-68400500D01*
X147808691Y-68419407D01*
X147844655Y-68468907D01*
X147849500Y-68499500D01*
X147849500Y-68564069D01*
X147874499Y-68689742D01*
X147874500Y-68689747D01*
X147923534Y-68808125D01*
X147923538Y-68808133D01*
X147933830Y-68823535D01*
X147994724Y-68914669D01*
X148085331Y-69005276D01*
X148134848Y-69038362D01*
X148191866Y-69076461D01*
X148191870Y-69076463D01*
X148191873Y-69076465D01*
X148310256Y-69125501D01*
X148435931Y-69150500D01*
X148435932Y-69150500D01*
X148564068Y-69150500D01*
X148564069Y-69150500D01*
X148689744Y-69125501D01*
X148808127Y-69076465D01*
X148914669Y-69005276D01*
X149005276Y-68914669D01*
X149076465Y-68808127D01*
X149125501Y-68689744D01*
X149150500Y-68564069D01*
X149150500Y-68435931D01*
X149125501Y-68310256D01*
X149076465Y-68191873D01*
X149076463Y-68191870D01*
X149076461Y-68191866D01*
X149047717Y-68148848D01*
X149005276Y-68085331D01*
X148914669Y-67994724D01*
X148872226Y-67966365D01*
X148808133Y-67923538D01*
X148808125Y-67923534D01*
X148689747Y-67874500D01*
X148689745Y-67874499D01*
X148689744Y-67874499D01*
X148564069Y-67849500D01*
X148435931Y-67849500D01*
X148435928Y-67849500D01*
X148346922Y-67867205D01*
X148286161Y-67860013D01*
X148278106Y-67855842D01*
X148262240Y-67846681D01*
X148262240Y-67846682D01*
X148215989Y-67819979D01*
X148215988Y-67819978D01*
X148215987Y-67819978D01*
X148139564Y-67799500D01*
X148139562Y-67799500D01*
X144960438Y-67799500D01*
X144960435Y-67799500D01*
X144884012Y-67819978D01*
X144837761Y-67846680D01*
X144837762Y-67846681D01*
X144815489Y-67859540D01*
X143664444Y-69010585D01*
X143609927Y-69038362D01*
X143549495Y-69028791D01*
X143512125Y-68995582D01*
X143505276Y-68985331D01*
X143414669Y-68894724D01*
X143372226Y-68866365D01*
X143308133Y-68823538D01*
X143308125Y-68823534D01*
X143189747Y-68774500D01*
X143189745Y-68774499D01*
X143189744Y-68774499D01*
X143064069Y-68749500D01*
X142935931Y-68749500D01*
X142935930Y-68749500D01*
X142873093Y-68761999D01*
X142810256Y-68774499D01*
X142810255Y-68774499D01*
X142810252Y-68774500D01*
X142691874Y-68823534D01*
X142691866Y-68823538D01*
X142585331Y-68894724D01*
X142585327Y-68894727D01*
X142494727Y-68985327D01*
X142494724Y-68985331D01*
X142464542Y-69030502D01*
X142416492Y-69068381D01*
X142382227Y-69074500D01*
X141257147Y-69074500D01*
X141221651Y-69084011D01*
X141174360Y-69096682D01*
X141124446Y-69125499D01*
X141124447Y-69125500D01*
X141100139Y-69139534D01*
X139539531Y-70700142D01*
X139496683Y-70774356D01*
X139474500Y-70857148D01*
X139474500Y-74280112D01*
X139472031Y-74287709D01*
X139473281Y-74295599D01*
X139462756Y-74316254D01*
X139455593Y-74338303D01*
X139445504Y-74350116D01*
X139379608Y-74416012D01*
X139325091Y-74443789D01*
X139309604Y-74445008D01*
X139263663Y-74445008D01*
X139200826Y-74457507D01*
X139137989Y-74470007D01*
X139137988Y-74470007D01*
X139137985Y-74470008D01*
X139019607Y-74519042D01*
X139019599Y-74519046D01*
X138913064Y-74590232D01*
X138913060Y-74590235D01*
X138822460Y-74680835D01*
X138822457Y-74680839D01*
X138751271Y-74787374D01*
X138751267Y-74787382D01*
X138702233Y-74905760D01*
X138702232Y-74905763D01*
X138702232Y-74905764D01*
X138677233Y-75031439D01*
X138677233Y-75159577D01*
X138700930Y-75278708D01*
X138702232Y-75285250D01*
X138702233Y-75285255D01*
X138751267Y-75403633D01*
X138751271Y-75403641D01*
X138782582Y-75450500D01*
X138822457Y-75510177D01*
X138913064Y-75600784D01*
X138970134Y-75638917D01*
X139019599Y-75671969D01*
X139019603Y-75671971D01*
X139019606Y-75671973D01*
X139137989Y-75721009D01*
X139263664Y-75746008D01*
X139263665Y-75746008D01*
X139391801Y-75746008D01*
X139391802Y-75746008D01*
X139517477Y-75721009D01*
X139635860Y-75671973D01*
X139742402Y-75600784D01*
X139833009Y-75510177D01*
X139851816Y-75482029D01*
X139871477Y-75466529D01*
X139889184Y-75448823D01*
X139895132Y-75447880D01*
X139899861Y-75444153D01*
X139924882Y-75443169D01*
X139949616Y-75439252D01*
X139954981Y-75441985D01*
X139961000Y-75441749D01*
X140004130Y-75467027D01*
X140121505Y-75584402D01*
X140149281Y-75638917D01*
X140150500Y-75654404D01*
X140150500Y-76078577D01*
X140150500Y-76164283D01*
X140159490Y-76197833D01*
X140171127Y-76241266D01*
X140174500Y-76266888D01*
X140174500Y-78319337D01*
X140174500Y-78405043D01*
X140184116Y-78440931D01*
X140196683Y-78487833D01*
X140239531Y-78562047D01*
X140239532Y-78562048D01*
X140239533Y-78562049D01*
X140239535Y-78562052D01*
X140811103Y-79133620D01*
X141377344Y-79699861D01*
X141377345Y-79699862D01*
X141377344Y-79699862D01*
X141432979Y-79755496D01*
X141460757Y-79810012D01*
X141451186Y-79870444D01*
X141407922Y-79913709D01*
X141362976Y-79924500D01*
X141073984Y-79924500D01*
X141015793Y-79905593D01*
X141003980Y-79895504D01*
X133930496Y-72822019D01*
X133902719Y-72767502D01*
X133901500Y-72752015D01*
X133901500Y-72033148D01*
X133900495Y-72029398D01*
X133899012Y-72023862D01*
X133879318Y-71950361D01*
X133850530Y-71900500D01*
X133836465Y-71876138D01*
X133809892Y-71849565D01*
X133775862Y-71815534D01*
X133775862Y-71815535D01*
X133775860Y-71815533D01*
X133775860Y-71815532D01*
X133523862Y-71563535D01*
X133523857Y-71563531D01*
X133449642Y-71520683D01*
X133449644Y-71520683D01*
X133417521Y-71512076D01*
X133366853Y-71498500D01*
X133366851Y-71498500D01*
X132800835Y-71498500D01*
X132742644Y-71479593D01*
X132706680Y-71430093D01*
X132706680Y-71368907D01*
X132730831Y-71329496D01*
X137568461Y-66491866D01*
X143450027Y-60610299D01*
X152850000Y-60610299D01*
X152850000Y-61229999D01*
X152850001Y-61230000D01*
X153466988Y-61230000D01*
X153434075Y-61287007D01*
X153400000Y-61414174D01*
X153400000Y-61545826D01*
X153434075Y-61672993D01*
X153466988Y-61730000D01*
X152850001Y-61730000D01*
X152850000Y-61730001D01*
X152850000Y-62349700D01*
X152861603Y-62408036D01*
X152905806Y-62474189D01*
X152905810Y-62474193D01*
X152971963Y-62518396D01*
X153030299Y-62529999D01*
X153030303Y-62530000D01*
X153649999Y-62530000D01*
X153650000Y-62529999D01*
X153650000Y-61913012D01*
X153707007Y-61945925D01*
X153834174Y-61980000D01*
X153965826Y-61980000D01*
X154092993Y-61945925D01*
X154150000Y-61913012D01*
X154150000Y-62529999D01*
X154150001Y-62530000D01*
X154769697Y-62530000D01*
X154769700Y-62529999D01*
X154828036Y-62518396D01*
X154894189Y-62474193D01*
X154894193Y-62474189D01*
X154938396Y-62408036D01*
X154949999Y-62349700D01*
X154950000Y-62349697D01*
X154950000Y-61730001D01*
X154949999Y-61730000D01*
X154333012Y-61730000D01*
X154365925Y-61672993D01*
X154400000Y-61545826D01*
X154400000Y-61414174D01*
X154365925Y-61287007D01*
X154333012Y-61230000D01*
X154949999Y-61230000D01*
X154950000Y-61229999D01*
X154950000Y-60610302D01*
X154949999Y-60610299D01*
X154938396Y-60551963D01*
X154894193Y-60485810D01*
X154894189Y-60485806D01*
X154828036Y-60441603D01*
X154769700Y-60430000D01*
X154150001Y-60430000D01*
X154150000Y-60430001D01*
X154150000Y-61046988D01*
X154092993Y-61014075D01*
X153965826Y-60980000D01*
X153834174Y-60980000D01*
X153707007Y-61014075D01*
X153650000Y-61046988D01*
X153650000Y-60430001D01*
X153649999Y-60430000D01*
X153030299Y-60430000D01*
X152971963Y-60441603D01*
X152905810Y-60485806D01*
X152905806Y-60485810D01*
X152861603Y-60551963D01*
X152850000Y-60610299D01*
X143450027Y-60610299D01*
X145223745Y-58836581D01*
X152850000Y-58836581D01*
X152850000Y-59043418D01*
X152890349Y-59246272D01*
X152969501Y-59437360D01*
X152969505Y-59437369D01*
X153001377Y-59485067D01*
X153417036Y-59069407D01*
X153434075Y-59132993D01*
X153499901Y-59247007D01*
X153592993Y-59340099D01*
X153707007Y-59405925D01*
X153770590Y-59422962D01*
X153354931Y-59838621D01*
X153402639Y-59870498D01*
X153593727Y-59949650D01*
X153796581Y-59989999D01*
X153796586Y-59990000D01*
X154003414Y-59990000D01*
X154003418Y-59989999D01*
X154206272Y-59949650D01*
X154397359Y-59870499D01*
X154445068Y-59838621D01*
X154029409Y-59422962D01*
X154092993Y-59405925D01*
X154207007Y-59340099D01*
X154300099Y-59247007D01*
X154365925Y-59132993D01*
X154382962Y-59069409D01*
X154798621Y-59485068D01*
X154830499Y-59437359D01*
X154909650Y-59246272D01*
X154949999Y-59043418D01*
X154950000Y-59043413D01*
X154950000Y-58836586D01*
X154949999Y-58836581D01*
X154909650Y-58633727D01*
X154830498Y-58442639D01*
X154798621Y-58394931D01*
X154382962Y-58810590D01*
X154365925Y-58747007D01*
X154300099Y-58632993D01*
X154207007Y-58539901D01*
X154092993Y-58474075D01*
X154029407Y-58457036D01*
X154445067Y-58041377D01*
X154397369Y-58009505D01*
X154397360Y-58009501D01*
X154206272Y-57930349D01*
X154003418Y-57890000D01*
X153796581Y-57890000D01*
X153593727Y-57930349D01*
X153402638Y-58009501D01*
X153354931Y-58041377D01*
X153770591Y-58457037D01*
X153707007Y-58474075D01*
X153592993Y-58539901D01*
X153499901Y-58632993D01*
X153434075Y-58747007D01*
X153417037Y-58810591D01*
X153001377Y-58394931D01*
X152969501Y-58442638D01*
X152890349Y-58633727D01*
X152850000Y-58836581D01*
X145223745Y-58836581D01*
X147763794Y-56296532D01*
X152849500Y-56296532D01*
X152849500Y-56503467D01*
X152889869Y-56706418D01*
X152969058Y-56897597D01*
X153084020Y-57069651D01*
X153084023Y-57069655D01*
X153230345Y-57215977D01*
X153402402Y-57330941D01*
X153593580Y-57410130D01*
X153796535Y-57450500D01*
X153796536Y-57450500D01*
X154003464Y-57450500D01*
X154003465Y-57450500D01*
X154206420Y-57410130D01*
X154397598Y-57330941D01*
X154569655Y-57215977D01*
X154715977Y-57069655D01*
X154830941Y-56897598D01*
X154910130Y-56706420D01*
X154950500Y-56503465D01*
X154950500Y-56296535D01*
X154910130Y-56093580D01*
X154830941Y-55902402D01*
X154715977Y-55730345D01*
X154569655Y-55584023D01*
X154532635Y-55559287D01*
X154397597Y-55469058D01*
X154206418Y-55389869D01*
X154003467Y-55349500D01*
X154003465Y-55349500D01*
X153796535Y-55349500D01*
X153796532Y-55349500D01*
X153593581Y-55389869D01*
X153402402Y-55469058D01*
X153230348Y-55584020D01*
X153084020Y-55730348D01*
X152969058Y-55902402D01*
X152889869Y-56093581D01*
X152849500Y-56296532D01*
X147763794Y-56296532D01*
X150303794Y-53756532D01*
X152849500Y-53756532D01*
X152849500Y-53963467D01*
X152889869Y-54166418D01*
X152969058Y-54357597D01*
X152969059Y-54357598D01*
X153084023Y-54529655D01*
X153230345Y-54675977D01*
X153402402Y-54790941D01*
X153593580Y-54870130D01*
X153796535Y-54910500D01*
X153796536Y-54910500D01*
X154003464Y-54910500D01*
X154003465Y-54910500D01*
X154206420Y-54870130D01*
X154397598Y-54790941D01*
X154569655Y-54675977D01*
X154715977Y-54529655D01*
X154830941Y-54357598D01*
X154910130Y-54166420D01*
X154950500Y-53963465D01*
X154950500Y-53756535D01*
X154910130Y-53553580D01*
X154830941Y-53362402D01*
X154715977Y-53190345D01*
X154569655Y-53044023D01*
X154540947Y-53024841D01*
X154397597Y-52929058D01*
X154206418Y-52849869D01*
X154003467Y-52809500D01*
X154003465Y-52809500D01*
X153796535Y-52809500D01*
X153796532Y-52809500D01*
X153593581Y-52849869D01*
X153402402Y-52929058D01*
X153230348Y-53044020D01*
X153084020Y-53190348D01*
X152969058Y-53362402D01*
X152889869Y-53553581D01*
X152849500Y-53756532D01*
X150303794Y-53756532D01*
X151938075Y-52122251D01*
X151982452Y-52096631D01*
X152047069Y-52079318D01*
X152121292Y-52036465D01*
X153174465Y-50983292D01*
X153198378Y-50941874D01*
X153217316Y-50909073D01*
X153217316Y-50909071D01*
X153217318Y-50909069D01*
X153239500Y-50826283D01*
X153239500Y-50740577D01*
X153239500Y-49644139D01*
X153258407Y-49585948D01*
X153307907Y-49549984D01*
X153369093Y-49549984D01*
X153408501Y-49574133D01*
X153420345Y-49585977D01*
X153592402Y-49700941D01*
X153783580Y-49780130D01*
X153986535Y-49820500D01*
X153986536Y-49820500D01*
X154193464Y-49820500D01*
X154193465Y-49820500D01*
X154396420Y-49780130D01*
X154587598Y-49700941D01*
X154759655Y-49585977D01*
X154905977Y-49439655D01*
X155020941Y-49267598D01*
X155100130Y-49076420D01*
X155140500Y-48873465D01*
X155140500Y-48666535D01*
X155100130Y-48463580D01*
X155020941Y-48272402D01*
X154905977Y-48100345D01*
X154759655Y-47954023D01*
X154759651Y-47954020D01*
X154587597Y-47839058D01*
X154396418Y-47759869D01*
X154193467Y-47719500D01*
X154193465Y-47719500D01*
X153986535Y-47719500D01*
X153986532Y-47719500D01*
X153783581Y-47759869D01*
X153592402Y-47839058D01*
X153420344Y-47954023D01*
X153408501Y-47965866D01*
X153353984Y-47993642D01*
X153293552Y-47984068D01*
X153250289Y-47940802D01*
X153239500Y-47895860D01*
X153239500Y-47581833D01*
X153258407Y-47523642D01*
X153268490Y-47511836D01*
X153564708Y-47215617D01*
X153619223Y-47187841D01*
X153672594Y-47194157D01*
X153783580Y-47240130D01*
X153986535Y-47280500D01*
X153986536Y-47280500D01*
X154193464Y-47280500D01*
X154193465Y-47280500D01*
X154396420Y-47240130D01*
X154587598Y-47160941D01*
X154759655Y-47045977D01*
X154905977Y-46899655D01*
X155020941Y-46727598D01*
X155100130Y-46536420D01*
X155140500Y-46333465D01*
X155140500Y-46126535D01*
X155100130Y-45923580D01*
X155020941Y-45732402D01*
X154905977Y-45560345D01*
X154759655Y-45414023D01*
X154759651Y-45414020D01*
X154587597Y-45299058D01*
X154396418Y-45219869D01*
X154193467Y-45179500D01*
X154193465Y-45179500D01*
X153986535Y-45179500D01*
X153986532Y-45179500D01*
X153783581Y-45219869D01*
X153592402Y-45299058D01*
X153420348Y-45414020D01*
X153274020Y-45560348D01*
X153159058Y-45732402D01*
X153079869Y-45923581D01*
X153039500Y-46126532D01*
X153039500Y-46333467D01*
X153079870Y-46536419D01*
X153079870Y-46536421D01*
X153125840Y-46647402D01*
X153130641Y-46708398D01*
X153104380Y-46755290D01*
X152653535Y-47206137D01*
X152653531Y-47206142D01*
X152610682Y-47280360D01*
X152610681Y-47280360D01*
X152610682Y-47280361D01*
X152588500Y-47363147D01*
X152588500Y-48107015D01*
X152569593Y-48165206D01*
X152520093Y-48201170D01*
X152458907Y-48201170D01*
X152409407Y-48165206D01*
X152407184Y-48162016D01*
X152365979Y-48100348D01*
X152365977Y-48100345D01*
X152219655Y-47954023D01*
X152219651Y-47954020D01*
X152047597Y-47839058D01*
X151856418Y-47759869D01*
X151653467Y-47719500D01*
X151653465Y-47719500D01*
X151446535Y-47719500D01*
X151446532Y-47719500D01*
X151243581Y-47759869D01*
X151052402Y-47839058D01*
X150880348Y-47954020D01*
X150734020Y-48100348D01*
X150619058Y-48272402D01*
X150539869Y-48463581D01*
X150499500Y-48666532D01*
X150499500Y-48873467D01*
X150539869Y-49076418D01*
X150619058Y-49267597D01*
X150734020Y-49439651D01*
X150734023Y-49439655D01*
X150880345Y-49585977D01*
X151052402Y-49700941D01*
X151243580Y-49780130D01*
X151446535Y-49820500D01*
X151446536Y-49820500D01*
X151653464Y-49820500D01*
X151653465Y-49820500D01*
X151856420Y-49780130D01*
X152047598Y-49700941D01*
X152219655Y-49585977D01*
X152365977Y-49439655D01*
X152407185Y-49377981D01*
X152455233Y-49340103D01*
X152516372Y-49337701D01*
X152567246Y-49371693D01*
X152588424Y-49429096D01*
X152588500Y-49432984D01*
X152588500Y-50607595D01*
X152569593Y-50665786D01*
X152559503Y-50677599D01*
X152389156Y-50847945D01*
X152334640Y-50875722D01*
X152274208Y-50866151D01*
X152230943Y-50822886D01*
X152227622Y-50814641D01*
X152227362Y-50814749D01*
X152198358Y-50744727D01*
X152176465Y-50691873D01*
X152176463Y-50691870D01*
X152176461Y-50691866D01*
X152131471Y-50624535D01*
X152105276Y-50585331D01*
X152014669Y-50494724D01*
X151972226Y-50466365D01*
X151908133Y-50423538D01*
X151908125Y-50423534D01*
X151789747Y-50374500D01*
X151789745Y-50374499D01*
X151789744Y-50374499D01*
X151664069Y-50349500D01*
X151535931Y-50349500D01*
X151535930Y-50349500D01*
X151473093Y-50361999D01*
X151410256Y-50374499D01*
X151410255Y-50374499D01*
X151410252Y-50374500D01*
X151291874Y-50423534D01*
X151291866Y-50423538D01*
X151185331Y-50494724D01*
X151185327Y-50494727D01*
X151094727Y-50585327D01*
X151094724Y-50585331D01*
X151023538Y-50691866D01*
X151023534Y-50691874D01*
X150974500Y-50810252D01*
X150974499Y-50810255D01*
X150974499Y-50810256D01*
X150961999Y-50873093D01*
X150949500Y-50935930D01*
X150949500Y-51064071D01*
X150960098Y-51117349D01*
X150952906Y-51178110D01*
X150933004Y-51206667D01*
X130861532Y-71278141D01*
X130861531Y-71278142D01*
X130818682Y-71352360D01*
X130818681Y-71352360D01*
X130818682Y-71352361D01*
X130796500Y-71435147D01*
X130796500Y-77202161D01*
X130777593Y-77260352D01*
X130767504Y-77272165D01*
X130016664Y-78023005D01*
X129962147Y-78050782D01*
X129901715Y-78041211D01*
X129876656Y-78023005D01*
X129853378Y-77999727D01*
X129853375Y-77999724D01*
X129802517Y-77965742D01*
X129746839Y-77928538D01*
X129746831Y-77928534D01*
X129628453Y-77879500D01*
X129628451Y-77879499D01*
X129628450Y-77879499D01*
X129502775Y-77854500D01*
X129374637Y-77854500D01*
X129374636Y-77854500D01*
X129307783Y-77867798D01*
X129268814Y-77875549D01*
X129208053Y-77868358D01*
X129163123Y-77826826D01*
X129150500Y-77778452D01*
X129150500Y-77685932D01*
X129150500Y-77685931D01*
X129125501Y-77560256D01*
X129076465Y-77441873D01*
X129076463Y-77441870D01*
X129076461Y-77441866D01*
X129045482Y-77395504D01*
X129005276Y-77335331D01*
X128914669Y-77244724D01*
X128850969Y-77202161D01*
X128808133Y-77173538D01*
X128808125Y-77173534D01*
X128689747Y-77124500D01*
X128689745Y-77124499D01*
X128689744Y-77124499D01*
X128564069Y-77099500D01*
X128435931Y-77099500D01*
X128435930Y-77099500D01*
X128373093Y-77111999D01*
X128310256Y-77124499D01*
X128310255Y-77124499D01*
X128310252Y-77124500D01*
X128191874Y-77173534D01*
X128191866Y-77173538D01*
X128085331Y-77244724D01*
X128085327Y-77244727D01*
X127994727Y-77335327D01*
X127994724Y-77335331D01*
X127983884Y-77351555D01*
X127964542Y-77380502D01*
X127916492Y-77418381D01*
X127882227Y-77424500D01*
X110675835Y-77424500D01*
X110617644Y-77405593D01*
X110605831Y-77395504D01*
X109474715Y-76264388D01*
X109446938Y-76209871D01*
X109456509Y-76149439D01*
X109499774Y-76106174D01*
X109560206Y-76096603D01*
X109570331Y-76098754D01*
X109580577Y-76101500D01*
X109580579Y-76101500D01*
X127064281Y-76101500D01*
X127064283Y-76101500D01*
X127147069Y-76079318D01*
X127147071Y-76079316D01*
X127147073Y-76079316D01*
X127221287Y-76036468D01*
X127221287Y-76036467D01*
X127221292Y-76036465D01*
X129200859Y-74056896D01*
X129200862Y-74056895D01*
X129261465Y-73996292D01*
X129302336Y-73925501D01*
X129304318Y-73922069D01*
X129326501Y-73839283D01*
X129326501Y-73753577D01*
X129326501Y-73747515D01*
X129326500Y-73747497D01*
X129326500Y-73416240D01*
X129345407Y-73358049D01*
X129370499Y-73333924D01*
X129386055Y-73323530D01*
X129415669Y-73303743D01*
X129506276Y-73213136D01*
X129577465Y-73106594D01*
X129626501Y-72988211D01*
X129651500Y-72862536D01*
X129651500Y-72734398D01*
X129626501Y-72608723D01*
X129577465Y-72490340D01*
X129577463Y-72490337D01*
X129577461Y-72490333D01*
X129548717Y-72447315D01*
X129506276Y-72383798D01*
X129415669Y-72293191D01*
X129373226Y-72264832D01*
X129309133Y-72222005D01*
X129309125Y-72222001D01*
X129233051Y-72190490D01*
X129186525Y-72150753D01*
X129172242Y-72091258D01*
X129195657Y-72034730D01*
X129233052Y-72007562D01*
X129308122Y-71976467D01*
X129308121Y-71976467D01*
X129308127Y-71976465D01*
X129414669Y-71905276D01*
X129505276Y-71814669D01*
X129576465Y-71708127D01*
X129625501Y-71589744D01*
X129650500Y-71464069D01*
X129650500Y-71335931D01*
X129625501Y-71210256D01*
X129576465Y-71091873D01*
X129576463Y-71091870D01*
X129576461Y-71091866D01*
X129538348Y-71034827D01*
X129505276Y-70985331D01*
X129414669Y-70894724D01*
X129372226Y-70866365D01*
X129308133Y-70823538D01*
X129308125Y-70823534D01*
X129189747Y-70774500D01*
X129189745Y-70774499D01*
X129189744Y-70774499D01*
X129064069Y-70749500D01*
X128935931Y-70749500D01*
X128935927Y-70749500D01*
X128882649Y-70760098D01*
X128821887Y-70752906D01*
X128793331Y-70733004D01*
X128491496Y-70431169D01*
X128463719Y-70376652D01*
X128462500Y-70361165D01*
X128462500Y-56535931D01*
X129549500Y-56535931D01*
X129549500Y-56664069D01*
X129557924Y-56706420D01*
X129574499Y-56789742D01*
X129574500Y-56789747D01*
X129623534Y-56908125D01*
X129623538Y-56908133D01*
X129666365Y-56972226D01*
X129694724Y-57014669D01*
X129785331Y-57105276D01*
X129848848Y-57147717D01*
X129891866Y-57176461D01*
X129891870Y-57176463D01*
X129891873Y-57176465D01*
X130010256Y-57225501D01*
X130135931Y-57250500D01*
X130135932Y-57250500D01*
X130264068Y-57250500D01*
X130264069Y-57250500D01*
X130389744Y-57225501D01*
X130508127Y-57176465D01*
X130614669Y-57105276D01*
X130705276Y-57014669D01*
X130776465Y-56908127D01*
X130825501Y-56789744D01*
X130850500Y-56664069D01*
X130850500Y-56535931D01*
X130839901Y-56482649D01*
X130847091Y-56421889D01*
X130866991Y-56393334D01*
X133405831Y-53854496D01*
X133460348Y-53826719D01*
X133475835Y-53825500D01*
X139882227Y-53825500D01*
X139940418Y-53844407D01*
X139964540Y-53869496D01*
X139994724Y-53914669D01*
X140085331Y-54005276D01*
X140148848Y-54047717D01*
X140191866Y-54076461D01*
X140191870Y-54076463D01*
X140191873Y-54076465D01*
X140310256Y-54125501D01*
X140435931Y-54150500D01*
X140435932Y-54150500D01*
X140564068Y-54150500D01*
X140564069Y-54150500D01*
X140689744Y-54125501D01*
X140808127Y-54076465D01*
X140914669Y-54005276D01*
X141005276Y-53914669D01*
X141076465Y-53808127D01*
X141125501Y-53689744D01*
X141150500Y-53564069D01*
X141150500Y-53435931D01*
X141125501Y-53310256D01*
X141076465Y-53191873D01*
X141076463Y-53191870D01*
X141076461Y-53191866D01*
X141017643Y-53103840D01*
X141005276Y-53085331D01*
X140914669Y-52994724D01*
X140872226Y-52966365D01*
X140808133Y-52923538D01*
X140808125Y-52923534D01*
X140689747Y-52874500D01*
X140689745Y-52874499D01*
X140689744Y-52874499D01*
X140564069Y-52849500D01*
X140435931Y-52849500D01*
X140435930Y-52849500D01*
X140377475Y-52861128D01*
X140310256Y-52874499D01*
X140310255Y-52874499D01*
X140310252Y-52874500D01*
X140191874Y-52923534D01*
X140191866Y-52923538D01*
X140085331Y-52994724D01*
X140085327Y-52994727D01*
X139994727Y-53085327D01*
X139994724Y-53085331D01*
X139964542Y-53130502D01*
X139916492Y-53168381D01*
X139882227Y-53174500D01*
X133342853Y-53174500D01*
X133257147Y-53174500D01*
X133206478Y-53188076D01*
X133174356Y-53196683D01*
X133100142Y-53239531D01*
X133100141Y-53239532D01*
X130406667Y-55933004D01*
X130352150Y-55960781D01*
X130317349Y-55960098D01*
X130264071Y-55949500D01*
X130264069Y-55949500D01*
X130135931Y-55949500D01*
X130135930Y-55949500D01*
X130082653Y-55960098D01*
X130010256Y-55974499D01*
X130010255Y-55974499D01*
X130010252Y-55974500D01*
X129891874Y-56023534D01*
X129891866Y-56023538D01*
X129785331Y-56094724D01*
X129785327Y-56094727D01*
X129694727Y-56185327D01*
X129694724Y-56185331D01*
X129623538Y-56291866D01*
X129623534Y-56291874D01*
X129574500Y-56410252D01*
X129574499Y-56410255D01*
X129574499Y-56410256D01*
X129549500Y-56535931D01*
X128462500Y-56535931D01*
X128462500Y-51867773D01*
X128481407Y-51809582D01*
X128506499Y-51785457D01*
X128506694Y-51785327D01*
X128551669Y-51755276D01*
X128642276Y-51664669D01*
X128713465Y-51558127D01*
X128762501Y-51439744D01*
X128787500Y-51314069D01*
X128787500Y-51185931D01*
X128762501Y-51060256D01*
X128713465Y-50941873D01*
X128713463Y-50941870D01*
X128713461Y-50941866D01*
X128680720Y-50892866D01*
X128642276Y-50835331D01*
X128551669Y-50744724D01*
X128478340Y-50695727D01*
X128445133Y-50673538D01*
X128445125Y-50673534D01*
X128326747Y-50624500D01*
X128326745Y-50624499D01*
X128326744Y-50624499D01*
X128201069Y-50599500D01*
X128072931Y-50599500D01*
X128072930Y-50599500D01*
X128010093Y-50611999D01*
X127947256Y-50624499D01*
X127947255Y-50624499D01*
X127947252Y-50624500D01*
X127828874Y-50673534D01*
X127828866Y-50673538D01*
X127722331Y-50744724D01*
X127722327Y-50744727D01*
X127631727Y-50835327D01*
X127631724Y-50835331D01*
X127560538Y-50941866D01*
X127560534Y-50941874D01*
X127511500Y-51060252D01*
X127511499Y-51060255D01*
X127511499Y-51060256D01*
X127486500Y-51185931D01*
X127486500Y-51314069D01*
X127502544Y-51394727D01*
X127511499Y-51439742D01*
X127511500Y-51439747D01*
X127560534Y-51558125D01*
X127560538Y-51558133D01*
X127583083Y-51591873D01*
X127631724Y-51664669D01*
X127631727Y-51664672D01*
X127631731Y-51664677D01*
X127677307Y-51710252D01*
X127722331Y-51755276D01*
X127766077Y-51784506D01*
X127767501Y-51785457D01*
X127805381Y-51833506D01*
X127811500Y-51867773D01*
X127811500Y-70494147D01*
X127811500Y-70579853D01*
X127828348Y-70642732D01*
X127833683Y-70662643D01*
X127876531Y-70736857D01*
X127876535Y-70736862D01*
X128333004Y-71193332D01*
X128360781Y-71247848D01*
X128360098Y-71282649D01*
X128349500Y-71335927D01*
X128349500Y-71335930D01*
X128349500Y-71335931D01*
X128349500Y-71464069D01*
X128373621Y-71585331D01*
X128374499Y-71589742D01*
X128374500Y-71589747D01*
X128423534Y-71708125D01*
X128423538Y-71708133D01*
X128460913Y-71764067D01*
X128494724Y-71814669D01*
X128585331Y-71905276D01*
X128631208Y-71935930D01*
X128691866Y-71976461D01*
X128691877Y-71976467D01*
X128767947Y-72007976D01*
X128814473Y-72047712D01*
X128828757Y-72107207D01*
X128805342Y-72163735D01*
X128767948Y-72190904D01*
X128692874Y-72222001D01*
X128692866Y-72222005D01*
X128586331Y-72293191D01*
X128586327Y-72293194D01*
X128495727Y-72383794D01*
X128495724Y-72383798D01*
X128424538Y-72490333D01*
X128424534Y-72490341D01*
X128375500Y-72608719D01*
X128375499Y-72608724D01*
X128350500Y-72734397D01*
X128350500Y-72862536D01*
X128375499Y-72988209D01*
X128375501Y-72988218D01*
X128383327Y-73007111D01*
X128388127Y-73068108D01*
X128356158Y-73120277D01*
X128299629Y-73143691D01*
X128253978Y-73136460D01*
X128164751Y-73099501D01*
X128164746Y-73099499D01*
X128164744Y-73099499D01*
X128039069Y-73074500D01*
X127910931Y-73074500D01*
X127910927Y-73074500D01*
X127857649Y-73085098D01*
X127796887Y-73077906D01*
X127768331Y-73058004D01*
X122754496Y-68044169D01*
X122726719Y-67989652D01*
X122725500Y-67974165D01*
X122725500Y-51816773D01*
X122744407Y-51758582D01*
X122769499Y-51734457D01*
X122814669Y-51704276D01*
X122905276Y-51613669D01*
X122976465Y-51507127D01*
X123025501Y-51388744D01*
X123050500Y-51263069D01*
X123050500Y-51134931D01*
X123025501Y-51009256D01*
X122976465Y-50890873D01*
X122976463Y-50890870D01*
X122976461Y-50890866D01*
X122933306Y-50826281D01*
X122905276Y-50784331D01*
X122814669Y-50693724D01*
X122747141Y-50648603D01*
X122708133Y-50622538D01*
X122708125Y-50622534D01*
X122589747Y-50573500D01*
X122589745Y-50573499D01*
X122589744Y-50573499D01*
X122464069Y-50548500D01*
X122335931Y-50548500D01*
X122335930Y-50548500D01*
X122273093Y-50560999D01*
X122210256Y-50573499D01*
X122210255Y-50573499D01*
X122210252Y-50573500D01*
X122091874Y-50622534D01*
X122091866Y-50622538D01*
X121985331Y-50693724D01*
X121985327Y-50693727D01*
X121894727Y-50784327D01*
X121894724Y-50784331D01*
X121823538Y-50890866D01*
X121823534Y-50890874D01*
X121774500Y-51009252D01*
X121774499Y-51009255D01*
X121774499Y-51009256D01*
X121749500Y-51134931D01*
X121749500Y-51263069D01*
X121761528Y-51323538D01*
X121774499Y-51388742D01*
X121774500Y-51388747D01*
X121823534Y-51507125D01*
X121823538Y-51507133D01*
X121857611Y-51558125D01*
X121894724Y-51613669D01*
X121894727Y-51613672D01*
X121894731Y-51613677D01*
X121985331Y-51704276D01*
X122030501Y-51734457D01*
X122068381Y-51782506D01*
X122074500Y-51816773D01*
X122074500Y-62915547D01*
X122055593Y-62973738D01*
X122006093Y-63009702D01*
X121944907Y-63009702D01*
X121905496Y-62985551D01*
X121814672Y-62894727D01*
X121814669Y-62894724D01*
X121769496Y-62864540D01*
X121731618Y-62816490D01*
X121725500Y-62782226D01*
X121725500Y-53657148D01*
X121725500Y-53657147D01*
X121703318Y-53574362D01*
X121703318Y-53574361D01*
X121664608Y-53507314D01*
X121660465Y-53500138D01*
X121599862Y-53439535D01*
X121599859Y-53439533D01*
X121565852Y-53405526D01*
X121564705Y-53404300D01*
X121552401Y-53378027D01*
X121539217Y-53352151D01*
X121539259Y-53349966D01*
X121538756Y-53348890D01*
X121539340Y-53345855D01*
X121539900Y-53317351D01*
X121550500Y-53264069D01*
X121550500Y-53135931D01*
X121525501Y-53010256D01*
X121476465Y-52891873D01*
X121476463Y-52891870D01*
X121476461Y-52891866D01*
X121437362Y-52833351D01*
X121405276Y-52785331D01*
X121314669Y-52694724D01*
X121272226Y-52666365D01*
X121208133Y-52623538D01*
X121208125Y-52623534D01*
X121089747Y-52574500D01*
X121089745Y-52574499D01*
X121089744Y-52574499D01*
X120964069Y-52549500D01*
X120835931Y-52549500D01*
X120835930Y-52549500D01*
X120773093Y-52561999D01*
X120710256Y-52574499D01*
X120710255Y-52574499D01*
X120710252Y-52574500D01*
X120591874Y-52623534D01*
X120591866Y-52623538D01*
X120485331Y-52694724D01*
X120485327Y-52694727D01*
X120394727Y-52785327D01*
X120394724Y-52785331D01*
X120323538Y-52891866D01*
X120323534Y-52891874D01*
X120274500Y-53010252D01*
X120274499Y-53010257D01*
X120271598Y-53024841D01*
X120241700Y-53078225D01*
X120186135Y-53103840D01*
X120126125Y-53091903D01*
X120084593Y-53046972D01*
X120075500Y-53005526D01*
X120075500Y-51818773D01*
X120094407Y-51760582D01*
X120119499Y-51736457D01*
X120164669Y-51706276D01*
X120255276Y-51615669D01*
X120326465Y-51509127D01*
X120375501Y-51390744D01*
X120400500Y-51265069D01*
X120400500Y-51136931D01*
X120375501Y-51011256D01*
X120326465Y-50892873D01*
X120326463Y-50892870D01*
X120326461Y-50892866D01*
X120296445Y-50847945D01*
X120255276Y-50786331D01*
X120164669Y-50695724D01*
X120119864Y-50665786D01*
X120058133Y-50624538D01*
X120058125Y-50624534D01*
X119939747Y-50575500D01*
X119939745Y-50575499D01*
X119939744Y-50575499D01*
X119814069Y-50550500D01*
X119685931Y-50550500D01*
X119685930Y-50550500D01*
X119623093Y-50562999D01*
X119560256Y-50575499D01*
X119560255Y-50575499D01*
X119560252Y-50575500D01*
X119441874Y-50624534D01*
X119441866Y-50624538D01*
X119335331Y-50695724D01*
X119335327Y-50695727D01*
X119244727Y-50786327D01*
X119244724Y-50786331D01*
X119173538Y-50892866D01*
X119173534Y-50892874D01*
X119124500Y-51011252D01*
X119124499Y-51011257D01*
X119099898Y-51134932D01*
X119099500Y-51136931D01*
X119099500Y-51265069D01*
X119124101Y-51388744D01*
X119124499Y-51390742D01*
X119124500Y-51390747D01*
X119173534Y-51509125D01*
X119173538Y-51509133D01*
X119216365Y-51573226D01*
X119244724Y-51615669D01*
X119244727Y-51615672D01*
X119244731Y-51615677D01*
X119293723Y-51664668D01*
X119335331Y-51706276D01*
X119377507Y-51734457D01*
X119380501Y-51736457D01*
X119418381Y-51784506D01*
X119424500Y-51818773D01*
X119424500Y-63882226D01*
X119405593Y-63940417D01*
X119380503Y-63964540D01*
X119362658Y-63976465D01*
X119335327Y-63994727D01*
X119244727Y-64085327D01*
X119244724Y-64085331D01*
X119173538Y-64191866D01*
X119173534Y-64191874D01*
X119124500Y-64310252D01*
X119124499Y-64310257D01*
X119099500Y-64435930D01*
X119099500Y-64564069D01*
X119124499Y-64689742D01*
X119124500Y-64689747D01*
X119173534Y-64808125D01*
X119173538Y-64808133D01*
X119216365Y-64872226D01*
X119244724Y-64914669D01*
X119335331Y-65005276D01*
X119398848Y-65047717D01*
X119441866Y-65076461D01*
X119441870Y-65076463D01*
X119441873Y-65076465D01*
X119560256Y-65125501D01*
X119685931Y-65150500D01*
X119685932Y-65150500D01*
X119814068Y-65150500D01*
X119814069Y-65150500D01*
X119939744Y-65125501D01*
X120058127Y-65076465D01*
X120164669Y-65005276D01*
X120255276Y-64914669D01*
X120326465Y-64808127D01*
X120375501Y-64689744D01*
X120400500Y-64564069D01*
X120400500Y-64435931D01*
X120375501Y-64310256D01*
X120326465Y-64191873D01*
X120326463Y-64191870D01*
X120326461Y-64191866D01*
X120297717Y-64148848D01*
X120255276Y-64085331D01*
X120164669Y-63994724D01*
X120119496Y-63964540D01*
X120081618Y-63916490D01*
X120075500Y-63882226D01*
X120075500Y-53394473D01*
X120094407Y-53336282D01*
X120143907Y-53300318D01*
X120205093Y-53300318D01*
X120254593Y-53336282D01*
X120271598Y-53375159D01*
X120274498Y-53389741D01*
X120274500Y-53389747D01*
X120323534Y-53508125D01*
X120323538Y-53508133D01*
X120353906Y-53553581D01*
X120394724Y-53614669D01*
X120485331Y-53705276D01*
X120548848Y-53747717D01*
X120591866Y-53776461D01*
X120591870Y-53776463D01*
X120591873Y-53776465D01*
X120710256Y-53825501D01*
X120835931Y-53850500D01*
X120835932Y-53850500D01*
X120964055Y-53850500D01*
X120964069Y-53850500D01*
X120964082Y-53850497D01*
X120965778Y-53850330D01*
X120966553Y-53850500D01*
X120968933Y-53850500D01*
X120968933Y-53851021D01*
X121025545Y-53863432D01*
X121066195Y-53909161D01*
X121074500Y-53948852D01*
X121074500Y-62782226D01*
X121055593Y-62840417D01*
X121030503Y-62864541D01*
X120985327Y-62894727D01*
X120894727Y-62985327D01*
X120894724Y-62985331D01*
X120823538Y-63091866D01*
X120823534Y-63091874D01*
X120774500Y-63210252D01*
X120774499Y-63210257D01*
X120749500Y-63335930D01*
X120749500Y-63464069D01*
X120774499Y-63589742D01*
X120774500Y-63589747D01*
X120823534Y-63708125D01*
X120823538Y-63708133D01*
X120866365Y-63772226D01*
X120894724Y-63814669D01*
X120985331Y-63905276D01*
X121048848Y-63947717D01*
X121091866Y-63976461D01*
X121091870Y-63976463D01*
X121091873Y-63976465D01*
X121210256Y-64025501D01*
X121335931Y-64050500D01*
X121335932Y-64050500D01*
X121464068Y-64050500D01*
X121464069Y-64050500D01*
X121589744Y-64025501D01*
X121708127Y-63976465D01*
X121814669Y-63905276D01*
X121905276Y-63814669D01*
X121905276Y-63814668D01*
X121905496Y-63814449D01*
X121960013Y-63786672D01*
X122020445Y-63796243D01*
X122063710Y-63839508D01*
X122074500Y-63884453D01*
X122074500Y-68107147D01*
X122074500Y-68192853D01*
X122094062Y-68265863D01*
X122096683Y-68275643D01*
X122139531Y-68349857D01*
X122139532Y-68349858D01*
X122139533Y-68349859D01*
X122139535Y-68349862D01*
X124740173Y-70950500D01*
X127308004Y-73518331D01*
X127335781Y-73572848D01*
X127335098Y-73607649D01*
X127324500Y-73660927D01*
X127324500Y-73660931D01*
X127324500Y-73789069D01*
X127347583Y-73905113D01*
X127349499Y-73914742D01*
X127349500Y-73914747D01*
X127398534Y-74033125D01*
X127398538Y-74033133D01*
X127441365Y-74097226D01*
X127469724Y-74139669D01*
X127560331Y-74230276D01*
X127610903Y-74264067D01*
X127666866Y-74301461D01*
X127666870Y-74301463D01*
X127666873Y-74301465D01*
X127755808Y-74338303D01*
X127789749Y-74352362D01*
X127788886Y-74354445D01*
X127831861Y-74384380D01*
X127851922Y-74442183D01*
X127834177Y-74500739D01*
X127822946Y-74514157D01*
X126915599Y-75421504D01*
X126861082Y-75449281D01*
X126845595Y-75450500D01*
X109799265Y-75450500D01*
X109741074Y-75431593D01*
X109729261Y-75421504D01*
X109013029Y-74705272D01*
X108271292Y-73963535D01*
X108271289Y-73963533D01*
X108271288Y-73963532D01*
X108271287Y-73963531D01*
X108197072Y-73920683D01*
X108197073Y-73920683D01*
X108127827Y-73902129D01*
X108076512Y-73868805D01*
X108054586Y-73811683D01*
X108070422Y-73752583D01*
X108083448Y-73736497D01*
X108105268Y-73714677D01*
X108105276Y-73714669D01*
X108176465Y-73608127D01*
X108225501Y-73489744D01*
X108250500Y-73364069D01*
X108250500Y-73235931D01*
X108250499Y-73235929D01*
X108250499Y-73235923D01*
X108240072Y-73183508D01*
X108234035Y-73153159D01*
X108241225Y-73092399D01*
X108261125Y-73063844D01*
X109389038Y-71935931D01*
X118049500Y-71935931D01*
X118049500Y-72064069D01*
X118069325Y-72163735D01*
X118074499Y-72189742D01*
X118074500Y-72189747D01*
X118123534Y-72308125D01*
X118123538Y-72308133D01*
X118160450Y-72363374D01*
X118194724Y-72414669D01*
X118194727Y-72414672D01*
X118194731Y-72414677D01*
X118270388Y-72490333D01*
X118285331Y-72505276D01*
X118298646Y-72514173D01*
X118330501Y-72535457D01*
X118368381Y-72583506D01*
X118374500Y-72617773D01*
X118374500Y-73582226D01*
X118355593Y-73640417D01*
X118330503Y-73664541D01*
X118285327Y-73694727D01*
X118194727Y-73785327D01*
X118194724Y-73785331D01*
X118123538Y-73891866D01*
X118123534Y-73891874D01*
X118074500Y-74010252D01*
X118074499Y-74010255D01*
X118074499Y-74010256D01*
X118049500Y-74135931D01*
X118049500Y-74264069D01*
X118067477Y-74354445D01*
X118074499Y-74389742D01*
X118074500Y-74389747D01*
X118123534Y-74508125D01*
X118123538Y-74508133D01*
X118166365Y-74572226D01*
X118194724Y-74614669D01*
X118285331Y-74705276D01*
X118348848Y-74747717D01*
X118391866Y-74776461D01*
X118391870Y-74776463D01*
X118391873Y-74776465D01*
X118510256Y-74825501D01*
X118635931Y-74850500D01*
X118635932Y-74850500D01*
X118764068Y-74850500D01*
X118764069Y-74850500D01*
X118889744Y-74825501D01*
X119008127Y-74776465D01*
X119114669Y-74705276D01*
X119205276Y-74614669D01*
X119276465Y-74508127D01*
X119325501Y-74389744D01*
X119350500Y-74264069D01*
X119350500Y-74135931D01*
X119325501Y-74010256D01*
X119276465Y-73891873D01*
X119276463Y-73891870D01*
X119276461Y-73891866D01*
X119241327Y-73839285D01*
X119205276Y-73785331D01*
X119114669Y-73694724D01*
X119069496Y-73664540D01*
X119031618Y-73616490D01*
X119025500Y-73582226D01*
X119025500Y-72617773D01*
X119044407Y-72559582D01*
X119069499Y-72535457D01*
X119114669Y-72505276D01*
X119205276Y-72414669D01*
X119276465Y-72308127D01*
X119325501Y-72189744D01*
X119350500Y-72064069D01*
X119350500Y-71935931D01*
X119325501Y-71810256D01*
X119276465Y-71691873D01*
X119276463Y-71691870D01*
X119276461Y-71691866D01*
X119223648Y-71612827D01*
X119205276Y-71585331D01*
X119114669Y-71494724D01*
X119072226Y-71466365D01*
X119008133Y-71423538D01*
X119008125Y-71423534D01*
X118889747Y-71374500D01*
X118889745Y-71374499D01*
X118889744Y-71374499D01*
X118764069Y-71349500D01*
X118635931Y-71349500D01*
X118635930Y-71349500D01*
X118573093Y-71361999D01*
X118510256Y-71374499D01*
X118510255Y-71374499D01*
X118510252Y-71374500D01*
X118391874Y-71423534D01*
X118391866Y-71423538D01*
X118285331Y-71494724D01*
X118285327Y-71494727D01*
X118194727Y-71585327D01*
X118194724Y-71585331D01*
X118123538Y-71691866D01*
X118123534Y-71691874D01*
X118074500Y-71810252D01*
X118074499Y-71810255D01*
X118074499Y-71810256D01*
X118049500Y-71935931D01*
X109389038Y-71935931D01*
X114195475Y-67129496D01*
X114249992Y-67101719D01*
X114265479Y-67100500D01*
X118465522Y-67100500D01*
X118523713Y-67119407D01*
X118547837Y-67144498D01*
X118594724Y-67214669D01*
X118685331Y-67305276D01*
X118748848Y-67347717D01*
X118791866Y-67376461D01*
X118791870Y-67376463D01*
X118791873Y-67376465D01*
X118910256Y-67425501D01*
X119035931Y-67450500D01*
X119035932Y-67450500D01*
X119164068Y-67450500D01*
X119164069Y-67450500D01*
X119289744Y-67425501D01*
X119408127Y-67376465D01*
X119514669Y-67305276D01*
X119605276Y-67214669D01*
X119676465Y-67108127D01*
X119725501Y-66989744D01*
X119750500Y-66864069D01*
X119750500Y-66735931D01*
X119725501Y-66610256D01*
X119676465Y-66491873D01*
X119676463Y-66491870D01*
X119676461Y-66491866D01*
X119647717Y-66448848D01*
X119605276Y-66385331D01*
X119514669Y-66294724D01*
X119472226Y-66266365D01*
X119408133Y-66223538D01*
X119408125Y-66223534D01*
X119289747Y-66174500D01*
X119289745Y-66174499D01*
X119289744Y-66174499D01*
X119164069Y-66149500D01*
X119035931Y-66149500D01*
X119035930Y-66149500D01*
X118973093Y-66161999D01*
X118910256Y-66174499D01*
X118910255Y-66174499D01*
X118910252Y-66174500D01*
X118791874Y-66223534D01*
X118791866Y-66223538D01*
X118685331Y-66294724D01*
X118685327Y-66294727D01*
X118594727Y-66385327D01*
X118594724Y-66385331D01*
X118547837Y-66455502D01*
X118499787Y-66493381D01*
X118465522Y-66499500D01*
X114060435Y-66499500D01*
X113984011Y-66519978D01*
X113984007Y-66519980D01*
X113915491Y-66559538D01*
X107836157Y-72638870D01*
X107781640Y-72666647D01*
X107746839Y-72665964D01*
X107664071Y-72649500D01*
X107664069Y-72649500D01*
X107535931Y-72649500D01*
X107535930Y-72649500D01*
X107473093Y-72661999D01*
X107410256Y-72674499D01*
X107410255Y-72674499D01*
X107410252Y-72674500D01*
X107291874Y-72723534D01*
X107291866Y-72723538D01*
X107185331Y-72794724D01*
X107185327Y-72794727D01*
X107094727Y-72885327D01*
X107094724Y-72885331D01*
X107023538Y-72991866D01*
X107023534Y-72991874D01*
X106974500Y-73110252D01*
X106974499Y-73110257D01*
X106949500Y-73235930D01*
X106949500Y-73364069D01*
X106974499Y-73489742D01*
X106974500Y-73489747D01*
X107023534Y-73608125D01*
X107023538Y-73608133D01*
X107066365Y-73672226D01*
X107094724Y-73714669D01*
X107185331Y-73805276D01*
X107205901Y-73819020D01*
X107243780Y-73867068D01*
X107246183Y-73928206D01*
X107220904Y-73971339D01*
X106917504Y-74274739D01*
X106862987Y-74302516D01*
X106802555Y-74292945D01*
X106759290Y-74249680D01*
X106748500Y-74204735D01*
X106748500Y-55617478D01*
X106767407Y-55559287D01*
X106777490Y-55547480D01*
X109463843Y-52861126D01*
X109518358Y-52833351D01*
X109553157Y-52834034D01*
X109593784Y-52842116D01*
X109635923Y-52850499D01*
X109635929Y-52850499D01*
X109635931Y-52850500D01*
X109635932Y-52850500D01*
X109764068Y-52850500D01*
X109764069Y-52850500D01*
X109889744Y-52825501D01*
X110008127Y-52776465D01*
X110114669Y-52705276D01*
X110205276Y-52614669D01*
X110276465Y-52508127D01*
X110325501Y-52389744D01*
X110350500Y-52264069D01*
X110350500Y-52135931D01*
X110325501Y-52010256D01*
X110276465Y-51891873D01*
X110276463Y-51891870D01*
X110276461Y-51891866D01*
X110227621Y-51818773D01*
X110205276Y-51785331D01*
X110114669Y-51694724D01*
X110069700Y-51664677D01*
X110008133Y-51623538D01*
X110008125Y-51623534D01*
X109889747Y-51574500D01*
X109889745Y-51574499D01*
X109889744Y-51574499D01*
X109764069Y-51549500D01*
X109635931Y-51549500D01*
X109635930Y-51549500D01*
X109592571Y-51558125D01*
X109510256Y-51574499D01*
X109510255Y-51574499D01*
X109510252Y-51574500D01*
X109391874Y-51623534D01*
X109391866Y-51623538D01*
X109285331Y-51694724D01*
X109285327Y-51694727D01*
X109194727Y-51785327D01*
X109194724Y-51785331D01*
X109123538Y-51891866D01*
X109123534Y-51891874D01*
X109074500Y-52010252D01*
X109074499Y-52010257D01*
X109049500Y-52135930D01*
X109049500Y-52264071D01*
X109065964Y-52346839D01*
X109058772Y-52407600D01*
X109038870Y-52436157D01*
X106263489Y-55211540D01*
X106263488Y-55211539D01*
X106207539Y-55267489D01*
X106167980Y-55336007D01*
X106167978Y-55336011D01*
X106147500Y-55412435D01*
X106147500Y-77441060D01*
X106167977Y-77517481D01*
X106167979Y-77517486D01*
X106190973Y-77557313D01*
X106192673Y-77560257D01*
X106207540Y-77586007D01*
X114642031Y-86020498D01*
X114669807Y-86075013D01*
X114660236Y-86135445D01*
X114616971Y-86178710D01*
X114572026Y-86189500D01*
X113390252Y-86189500D01*
X113390251Y-86189500D01*
X113390241Y-86189501D01*
X113331772Y-86201132D01*
X113331766Y-86201134D01*
X113265451Y-86245445D01*
X113265445Y-86245451D01*
X113221134Y-86311766D01*
X113221132Y-86311772D01*
X113209501Y-86370241D01*
X113209500Y-86370253D01*
X113209500Y-87709746D01*
X113209501Y-87709758D01*
X113221132Y-87768227D01*
X113221134Y-87768233D01*
X113238428Y-87794115D01*
X113265448Y-87834552D01*
X113331769Y-87878867D01*
X113376231Y-87887711D01*
X113390241Y-87890498D01*
X113390246Y-87890498D01*
X113390252Y-87890500D01*
X113390253Y-87890500D01*
X114729747Y-87890500D01*
X114729748Y-87890500D01*
X114788231Y-87878867D01*
X114854552Y-87834552D01*
X114898867Y-87768231D01*
X114910500Y-87709748D01*
X114910500Y-86388500D01*
X114929407Y-86330309D01*
X114978907Y-86294345D01*
X115009500Y-86289500D01*
X116162046Y-86289500D01*
X116220237Y-86308407D01*
X116232049Y-86318496D01*
X116553554Y-86640000D01*
X116547339Y-86640000D01*
X116445606Y-86667259D01*
X116354394Y-86719920D01*
X116279920Y-86794394D01*
X116227259Y-86885606D01*
X116200000Y-86987339D01*
X116200000Y-86993555D01*
X115845883Y-86639438D01*
X115782665Y-86792062D01*
X115782665Y-86792064D01*
X115750000Y-86956279D01*
X115750000Y-87123720D01*
X115782665Y-87287935D01*
X115782665Y-87287937D01*
X115845883Y-87440560D01*
X115845884Y-87440560D01*
X116200000Y-87086444D01*
X116200000Y-87092661D01*
X116227259Y-87194394D01*
X116279920Y-87285606D01*
X116354394Y-87360080D01*
X116445606Y-87412741D01*
X116547339Y-87440000D01*
X116553553Y-87440000D01*
X116199438Y-87794114D01*
X116199438Y-87794115D01*
X116352065Y-87857335D01*
X116516279Y-87889999D01*
X116516283Y-87890000D01*
X116683717Y-87890000D01*
X116683720Y-87889999D01*
X116847933Y-87857335D01*
X116847939Y-87857333D01*
X117000559Y-87794114D01*
X116646445Y-87440000D01*
X116652661Y-87440000D01*
X116754394Y-87412741D01*
X116845606Y-87360080D01*
X116920080Y-87285606D01*
X116972741Y-87194394D01*
X117000000Y-87092661D01*
X117000000Y-87086445D01*
X117354114Y-87440559D01*
X117417333Y-87287939D01*
X117417335Y-87287933D01*
X117449999Y-87123720D01*
X117450000Y-87123716D01*
X117450000Y-86956283D01*
X117449999Y-86956279D01*
X117417335Y-86792065D01*
X117354115Y-86639438D01*
X117354114Y-86639438D01*
X117000000Y-86993552D01*
X117000000Y-86987339D01*
X116972741Y-86885606D01*
X116920080Y-86794394D01*
X116845606Y-86719920D01*
X116754394Y-86667259D01*
X116652661Y-86640000D01*
X116646446Y-86640000D01*
X116967951Y-86318496D01*
X117022467Y-86290719D01*
X117037954Y-86289500D01*
X118448704Y-86289500D01*
X118506895Y-86308407D01*
X118542859Y-86357907D01*
X118542859Y-86419093D01*
X118518708Y-86458504D01*
X118479377Y-86497834D01*
X118479374Y-86497838D01*
X118386296Y-86637137D01*
X118322185Y-86791914D01*
X118322183Y-86791920D01*
X118289500Y-86956230D01*
X118289500Y-87123769D01*
X118322183Y-87288079D01*
X118322185Y-87288085D01*
X118386296Y-87442862D01*
X118386297Y-87442863D01*
X118479374Y-87582162D01*
X118597838Y-87700626D01*
X118737137Y-87793703D01*
X118891918Y-87857816D01*
X119056233Y-87890500D01*
X119056234Y-87890500D01*
X119223766Y-87890500D01*
X119223767Y-87890500D01*
X119388082Y-87857816D01*
X119415205Y-87846581D01*
X137512000Y-87846581D01*
X137512000Y-88549999D01*
X137512001Y-88550000D01*
X138062000Y-88550000D01*
X138062000Y-89050000D01*
X137512001Y-89050000D01*
X137512000Y-89050001D01*
X137512000Y-89753418D01*
X137552349Y-89956272D01*
X137631501Y-90147360D01*
X137631508Y-90147374D01*
X137746405Y-90319329D01*
X137892670Y-90465594D01*
X138064625Y-90580491D01*
X138064639Y-90580498D01*
X138255723Y-90659648D01*
X138255730Y-90659650D01*
X138312000Y-90670842D01*
X138312000Y-89883012D01*
X138369007Y-89915925D01*
X138496174Y-89950000D01*
X138627826Y-89950000D01*
X138754993Y-89915925D01*
X138812000Y-89883012D01*
X138812000Y-90670841D01*
X138868269Y-90659650D01*
X138868276Y-90659648D01*
X139059360Y-90580498D01*
X139059374Y-90580491D01*
X139231329Y-90465594D01*
X139377594Y-90319329D01*
X139492491Y-90147374D01*
X139492498Y-90147360D01*
X139571650Y-89956272D01*
X139611999Y-89753418D01*
X139612000Y-89753413D01*
X139612000Y-89050001D01*
X139611999Y-89050000D01*
X139062000Y-89050000D01*
X139062000Y-88550000D01*
X139611999Y-88550000D01*
X139612000Y-88549999D01*
X139612000Y-87846586D01*
X139611999Y-87846581D01*
X139571650Y-87643727D01*
X139492498Y-87452639D01*
X139492491Y-87452625D01*
X139377594Y-87280670D01*
X139231329Y-87134405D01*
X139059374Y-87019508D01*
X139059360Y-87019501D01*
X138868274Y-86940350D01*
X138812000Y-86929156D01*
X138812000Y-87716988D01*
X138754993Y-87684075D01*
X138627826Y-87650000D01*
X138496174Y-87650000D01*
X138369007Y-87684075D01*
X138312000Y-87716988D01*
X138312000Y-86929156D01*
X138255725Y-86940350D01*
X138064639Y-87019501D01*
X138064625Y-87019508D01*
X137892670Y-87134405D01*
X137746405Y-87280670D01*
X137631508Y-87452625D01*
X137631501Y-87452639D01*
X137552349Y-87643727D01*
X137512000Y-87846581D01*
X119415205Y-87846581D01*
X119542863Y-87793703D01*
X119682162Y-87700626D01*
X119800626Y-87582162D01*
X119893703Y-87442863D01*
X119957816Y-87288082D01*
X119990500Y-87123767D01*
X119990500Y-86956233D01*
X119957816Y-86791918D01*
X119893703Y-86637137D01*
X119800626Y-86497838D01*
X119761292Y-86458504D01*
X119733515Y-86403987D01*
X119743086Y-86343555D01*
X119786351Y-86300290D01*
X119831296Y-86289500D01*
X140232025Y-86289500D01*
X140290216Y-86308407D01*
X140302029Y-86318496D01*
X142069044Y-88085511D01*
X142069043Y-88085511D01*
X142124993Y-88141460D01*
X142193511Y-88181019D01*
X142193515Y-88181021D01*
X142269939Y-88201499D01*
X142269941Y-88201500D01*
X142269942Y-88201500D01*
X148891869Y-88201500D01*
X148891869Y-88201499D01*
X148968295Y-88181021D01*
X149036817Y-88141460D01*
X149064791Y-88113485D01*
X149092767Y-88085511D01*
X149384574Y-87793703D01*
X149498266Y-87680010D01*
X149552781Y-87652234D01*
X149613213Y-87661805D01*
X149656478Y-87705070D01*
X149666049Y-87765502D01*
X149665366Y-87769328D01*
X149650000Y-87846579D01*
X149650000Y-88549999D01*
X149650001Y-88550000D01*
X150200000Y-88550000D01*
X150200000Y-89050000D01*
X149650001Y-89050000D01*
X149650000Y-89050001D01*
X149650000Y-89753418D01*
X149690349Y-89956272D01*
X149769501Y-90147360D01*
X149769508Y-90147374D01*
X149884405Y-90319329D01*
X150030670Y-90465594D01*
X150202625Y-90580491D01*
X150202639Y-90580498D01*
X150393723Y-90659648D01*
X150393730Y-90659650D01*
X150450000Y-90670842D01*
X150450000Y-89883012D01*
X150507007Y-89915925D01*
X150634174Y-89950000D01*
X150765826Y-89950000D01*
X150892993Y-89915925D01*
X150950000Y-89883012D01*
X150950000Y-90670841D01*
X151006269Y-90659650D01*
X151006276Y-90659648D01*
X151197360Y-90580498D01*
X151197374Y-90580491D01*
X151369329Y-90465594D01*
X151515594Y-90319329D01*
X151630491Y-90147374D01*
X151630498Y-90147360D01*
X151709650Y-89956272D01*
X151749999Y-89753418D01*
X151750000Y-89753413D01*
X151750000Y-89050001D01*
X151749999Y-89050000D01*
X151200000Y-89050000D01*
X151200000Y-88550000D01*
X151749999Y-88550000D01*
X151750000Y-88549999D01*
X151750000Y-87846586D01*
X151749999Y-87846581D01*
X151709650Y-87643727D01*
X151630498Y-87452639D01*
X151630491Y-87452625D01*
X151515594Y-87280670D01*
X151369329Y-87134405D01*
X151197374Y-87019508D01*
X151197360Y-87019501D01*
X151006274Y-86940350D01*
X150950000Y-86929156D01*
X150950000Y-87716988D01*
X150892993Y-87684075D01*
X150765826Y-87650000D01*
X150634174Y-87650000D01*
X150507007Y-87684075D01*
X150450000Y-87716988D01*
X150450000Y-86929155D01*
X150424103Y-86907903D01*
X150391116Y-86856372D01*
X150394718Y-86795293D01*
X150416900Y-86761376D01*
X155567460Y-81610817D01*
X155581499Y-81586500D01*
X155607021Y-81542295D01*
X155627500Y-81465868D01*
X155627500Y-78348100D01*
X155607021Y-78271673D01*
X155593006Y-78247399D01*
X155567460Y-78203151D01*
X155511511Y-78147201D01*
X155511511Y-78147202D01*
X154653137Y-77288828D01*
X154625360Y-77234311D01*
X154634931Y-77173879D01*
X154678196Y-77130614D01*
X154685256Y-77127360D01*
X154808122Y-77076467D01*
X154808121Y-77076467D01*
X154808127Y-77076465D01*
X154914669Y-77005276D01*
X155005276Y-76914669D01*
X155076465Y-76808127D01*
X155125501Y-76689744D01*
X155150500Y-76564069D01*
X155150500Y-76456900D01*
X155169407Y-76398709D01*
X155179496Y-76386897D01*
X155371239Y-76195153D01*
X155398998Y-76176606D01*
X155398910Y-76176452D01*
X155401261Y-76175094D01*
X155403365Y-76173689D01*
X155404520Y-76173209D01*
X155404530Y-76173207D01*
X155495855Y-76120480D01*
X158201480Y-73414855D01*
X158230803Y-73364067D01*
X158254205Y-73323534D01*
X158254205Y-73323532D01*
X158254207Y-73323530D01*
X158281500Y-73221669D01*
X158281500Y-73116215D01*
X158281500Y-47393709D01*
X160149500Y-47393709D01*
X160149500Y-47606290D01*
X160182752Y-47816238D01*
X160248443Y-48018412D01*
X160344948Y-48207815D01*
X160344950Y-48207819D01*
X160469891Y-48379786D01*
X160469893Y-48379788D01*
X160469896Y-48379792D01*
X160620208Y-48530104D01*
X160620211Y-48530106D01*
X160620213Y-48530108D01*
X160792180Y-48655049D01*
X160792184Y-48655051D01*
X160981588Y-48751557D01*
X161183757Y-48817246D01*
X161183758Y-48817246D01*
X161183761Y-48817247D01*
X161393710Y-48850500D01*
X161393713Y-48850500D01*
X161606290Y-48850500D01*
X161816238Y-48817247D01*
X161816239Y-48817246D01*
X161816243Y-48817246D01*
X162018412Y-48751557D01*
X162207816Y-48655051D01*
X162379792Y-48530104D01*
X162530104Y-48379792D01*
X162655051Y-48207816D01*
X162751557Y-48018412D01*
X162817246Y-47816243D01*
X162823707Y-47775451D01*
X162850500Y-47606290D01*
X162850500Y-47393709D01*
X162817247Y-47183761D01*
X162812400Y-47168844D01*
X162751557Y-46981588D01*
X162655051Y-46792184D01*
X162655049Y-46792180D01*
X162530108Y-46620213D01*
X162530106Y-46620211D01*
X162530104Y-46620208D01*
X162379792Y-46469896D01*
X162379788Y-46469893D01*
X162379786Y-46469891D01*
X162207819Y-46344950D01*
X162207815Y-46344948D01*
X162018412Y-46248443D01*
X161816238Y-46182752D01*
X161606290Y-46149500D01*
X161606287Y-46149500D01*
X161393713Y-46149500D01*
X161393710Y-46149500D01*
X161183761Y-46182752D01*
X160981587Y-46248443D01*
X160792184Y-46344948D01*
X160792180Y-46344950D01*
X160620213Y-46469891D01*
X160469891Y-46620213D01*
X160344950Y-46792180D01*
X160344948Y-46792184D01*
X160248443Y-46981587D01*
X160182752Y-47183761D01*
X160149500Y-47393709D01*
X158281500Y-47393709D01*
X158281500Y-45772532D01*
X158281501Y-45772519D01*
X158281501Y-45659092D01*
X158254207Y-45557231D01*
X158254206Y-45557230D01*
X158253734Y-45556411D01*
X158253734Y-45556410D01*
X158201483Y-45465909D01*
X158201481Y-45465907D01*
X158201480Y-45465905D01*
X158126913Y-45391338D01*
X158126910Y-45391336D01*
X156955077Y-44219502D01*
X156927301Y-44164987D01*
X156936872Y-44104555D01*
X156980137Y-44061290D01*
X157025082Y-44050500D01*
X161483592Y-44050500D01*
X161497564Y-44050500D01*
X161502421Y-44050619D01*
X161531275Y-44052036D01*
X161833272Y-44066872D01*
X161842914Y-44067822D01*
X162168160Y-44116068D01*
X162177666Y-44117958D01*
X162496630Y-44197855D01*
X162505901Y-44200667D01*
X162815490Y-44311440D01*
X162824459Y-44315155D01*
X163121701Y-44455740D01*
X163130244Y-44460307D01*
X163412264Y-44629343D01*
X163420342Y-44634740D01*
X163684437Y-44830606D01*
X163691947Y-44836770D01*
X163724286Y-44866080D01*
X163935566Y-45057573D01*
X163942431Y-45064438D01*
X164163229Y-45308052D01*
X164169393Y-45315562D01*
X164365259Y-45579657D01*
X164370656Y-45587735D01*
X164481411Y-45772519D01*
X164539685Y-45869742D01*
X164544262Y-45878305D01*
X164592424Y-45980135D01*
X164684842Y-46175537D01*
X164688560Y-46184513D01*
X164799328Y-46494085D01*
X164802148Y-46503382D01*
X164882038Y-46822322D01*
X164883933Y-46831851D01*
X164932175Y-47157071D01*
X164933128Y-47166739D01*
X164949381Y-47497577D01*
X164949500Y-47502435D01*
X164949500Y-96497564D01*
X164949381Y-96502422D01*
X164933128Y-96833260D01*
X164932175Y-96842928D01*
X164883933Y-97168148D01*
X164882038Y-97177677D01*
X164802148Y-97496617D01*
X164799328Y-97505914D01*
X164688560Y-97815486D01*
X164684842Y-97824462D01*
X164544265Y-98121689D01*
X164539685Y-98130257D01*
X164370656Y-98412264D01*
X164365259Y-98420342D01*
X164169393Y-98684437D01*
X164163229Y-98691947D01*
X163942431Y-98935561D01*
X163935561Y-98942431D01*
X163691947Y-99163229D01*
X163684437Y-99169393D01*
X163420342Y-99365259D01*
X163412264Y-99370656D01*
X163130257Y-99539685D01*
X163121689Y-99544265D01*
X162824462Y-99684842D01*
X162815486Y-99688560D01*
X162505914Y-99799328D01*
X162496617Y-99802148D01*
X162177677Y-99882038D01*
X162168148Y-99883933D01*
X161842928Y-99932175D01*
X161833260Y-99933128D01*
X161502422Y-99949381D01*
X161497564Y-99949500D01*
X103502436Y-99949500D01*
X103497578Y-99949381D01*
X103166739Y-99933128D01*
X103157071Y-99932175D01*
X102831851Y-99883933D01*
X102822322Y-99882038D01*
X102503382Y-99802148D01*
X102494085Y-99799328D01*
X102184513Y-99688560D01*
X102175537Y-99684842D01*
X101888402Y-99549038D01*
X101878305Y-99544262D01*
X101869748Y-99539688D01*
X101728738Y-99455170D01*
X101587735Y-99370656D01*
X101579657Y-99365259D01*
X101315562Y-99169393D01*
X101308052Y-99163229D01*
X101064438Y-98942431D01*
X101057573Y-98935566D01*
X100970719Y-98839738D01*
X100836770Y-98691947D01*
X100830606Y-98684437D01*
X100634740Y-98420342D01*
X100629343Y-98412264D01*
X100578551Y-98327523D01*
X100460307Y-98130244D01*
X100455740Y-98121701D01*
X100315155Y-97824459D01*
X100311439Y-97815486D01*
X100288565Y-97751557D01*
X100200667Y-97505901D01*
X100197855Y-97496630D01*
X100117958Y-97177666D01*
X100116068Y-97168160D01*
X100067822Y-96842914D01*
X100066872Y-96833272D01*
X100050619Y-96502421D01*
X100050500Y-96497564D01*
X100050500Y-96393709D01*
X102149500Y-96393709D01*
X102149500Y-96606290D01*
X102182752Y-96816238D01*
X102248443Y-97018412D01*
X102344948Y-97207815D01*
X102344950Y-97207819D01*
X102469891Y-97379786D01*
X102469893Y-97379788D01*
X102469896Y-97379792D01*
X102620208Y-97530104D01*
X102620211Y-97530106D01*
X102620213Y-97530108D01*
X102792180Y-97655049D01*
X102792184Y-97655051D01*
X102981588Y-97751557D01*
X103183757Y-97817246D01*
X103183758Y-97817246D01*
X103183761Y-97817247D01*
X103393710Y-97850500D01*
X103393713Y-97850500D01*
X103606290Y-97850500D01*
X103816238Y-97817247D01*
X103816239Y-97817246D01*
X103816243Y-97817246D01*
X104018412Y-97751557D01*
X104207816Y-97655051D01*
X104379792Y-97530104D01*
X104530104Y-97379792D01*
X104655051Y-97207816D01*
X104751557Y-97018412D01*
X104817246Y-96816243D01*
X104850500Y-96606287D01*
X104850500Y-96393713D01*
X104850500Y-96393709D01*
X104817247Y-96183761D01*
X104817246Y-96183757D01*
X104751557Y-95981588D01*
X104655051Y-95792184D01*
X104655049Y-95792180D01*
X104530107Y-95620212D01*
X104530106Y-95620211D01*
X104530104Y-95620208D01*
X104488978Y-95579082D01*
X133361500Y-95579082D01*
X133361500Y-97279082D01*
X133361500Y-97320918D01*
X133391082Y-97350500D01*
X133391083Y-97350500D01*
X135232917Y-97350500D01*
X135232918Y-97350500D01*
X135262500Y-97320918D01*
X135262500Y-95579082D01*
X141861500Y-95579082D01*
X141861500Y-97279082D01*
X141861500Y-97320918D01*
X141891082Y-97350500D01*
X141891083Y-97350500D01*
X143732917Y-97350500D01*
X143732918Y-97350500D01*
X143762500Y-97320918D01*
X143762500Y-95579082D01*
X145499500Y-95579082D01*
X145499500Y-97279082D01*
X145499500Y-97320918D01*
X145529082Y-97350500D01*
X145529083Y-97350500D01*
X147370917Y-97350500D01*
X147370918Y-97350500D01*
X147400500Y-97320918D01*
X147400500Y-95579082D01*
X153999500Y-95579082D01*
X153999500Y-97279082D01*
X153999500Y-97320918D01*
X154029082Y-97350500D01*
X154029083Y-97350500D01*
X155870917Y-97350500D01*
X155870918Y-97350500D01*
X155900500Y-97320918D01*
X155900500Y-96393709D01*
X160149500Y-96393709D01*
X160149500Y-96606290D01*
X160182752Y-96816238D01*
X160248443Y-97018412D01*
X160344948Y-97207815D01*
X160344950Y-97207819D01*
X160469891Y-97379786D01*
X160469893Y-97379788D01*
X160469896Y-97379792D01*
X160620208Y-97530104D01*
X160620211Y-97530106D01*
X160620213Y-97530108D01*
X160792180Y-97655049D01*
X160792184Y-97655051D01*
X160981588Y-97751557D01*
X161183757Y-97817246D01*
X161183758Y-97817246D01*
X161183761Y-97817247D01*
X161393710Y-97850500D01*
X161393713Y-97850500D01*
X161606290Y-97850500D01*
X161816238Y-97817247D01*
X161816239Y-97817246D01*
X161816243Y-97817246D01*
X162018412Y-97751557D01*
X162207816Y-97655051D01*
X162379792Y-97530104D01*
X162530104Y-97379792D01*
X162655051Y-97207816D01*
X162751557Y-97018412D01*
X162817246Y-96816243D01*
X162850500Y-96606287D01*
X162850500Y-96393713D01*
X162850500Y-96393709D01*
X162817247Y-96183761D01*
X162817246Y-96183757D01*
X162751557Y-95981588D01*
X162655051Y-95792184D01*
X162655049Y-95792180D01*
X162530108Y-95620213D01*
X162530106Y-95620211D01*
X162530104Y-95620208D01*
X162379792Y-95469896D01*
X162379788Y-95469893D01*
X162379786Y-95469891D01*
X162207819Y-95344950D01*
X162207815Y-95344948D01*
X162018412Y-95248443D01*
X161816238Y-95182752D01*
X161606290Y-95149500D01*
X161606287Y-95149500D01*
X161393713Y-95149500D01*
X161393710Y-95149500D01*
X161183761Y-95182752D01*
X160981587Y-95248443D01*
X160792184Y-95344948D01*
X160792180Y-95344950D01*
X160620213Y-95469891D01*
X160469891Y-95620213D01*
X160344950Y-95792180D01*
X160344948Y-95792184D01*
X160248443Y-95981587D01*
X160182752Y-96183761D01*
X160149500Y-96393709D01*
X155900500Y-96393709D01*
X155900500Y-95579082D01*
X155870918Y-95549500D01*
X154070918Y-95549500D01*
X154029082Y-95549500D01*
X153999500Y-95579082D01*
X147400500Y-95579082D01*
X147370918Y-95549500D01*
X145570918Y-95549500D01*
X145529082Y-95549500D01*
X145499500Y-95579082D01*
X143762500Y-95579082D01*
X143732918Y-95549500D01*
X141932918Y-95549500D01*
X141891082Y-95549500D01*
X141861500Y-95579082D01*
X135262500Y-95579082D01*
X135232918Y-95549500D01*
X133432918Y-95549500D01*
X133391082Y-95549500D01*
X133361500Y-95579082D01*
X104488978Y-95579082D01*
X104379792Y-95469896D01*
X104379788Y-95469893D01*
X104379786Y-95469891D01*
X104207819Y-95344950D01*
X104207815Y-95344948D01*
X104018412Y-95248443D01*
X103816238Y-95182752D01*
X103606290Y-95149500D01*
X103606287Y-95149500D01*
X103393713Y-95149500D01*
X103393710Y-95149500D01*
X103183761Y-95182752D01*
X102981587Y-95248443D01*
X102792184Y-95344948D01*
X102792180Y-95344950D01*
X102620213Y-95469891D01*
X102469891Y-95620213D01*
X102344950Y-95792180D01*
X102344948Y-95792184D01*
X102248443Y-95981587D01*
X102182752Y-96183761D01*
X102149500Y-96393709D01*
X100050500Y-96393709D01*
X100050500Y-93189774D01*
X135961500Y-93189774D01*
X135961500Y-93410225D01*
X135995984Y-93627948D01*
X136064102Y-93837599D01*
X136064104Y-93837602D01*
X136064105Y-93837606D01*
X136164185Y-94034022D01*
X136293758Y-94212365D01*
X136449635Y-94368242D01*
X136627978Y-94497815D01*
X136824394Y-94597895D01*
X137034049Y-94666015D01*
X137121140Y-94679809D01*
X137251775Y-94700500D01*
X137251778Y-94700500D01*
X139872225Y-94700500D01*
X139981086Y-94683257D01*
X140089951Y-94666015D01*
X140299606Y-94597895D01*
X140496022Y-94497815D01*
X140674365Y-94368242D01*
X140830242Y-94212365D01*
X140959815Y-94034022D01*
X141059895Y-93837606D01*
X141128015Y-93627951D01*
X141162500Y-93410222D01*
X141162500Y-93189778D01*
X141162500Y-93189774D01*
X148099500Y-93189774D01*
X148099500Y-93410225D01*
X148133984Y-93627948D01*
X148202102Y-93837599D01*
X148202104Y-93837602D01*
X148202105Y-93837606D01*
X148302185Y-94034022D01*
X148431758Y-94212365D01*
X148587635Y-94368242D01*
X148765978Y-94497815D01*
X148962394Y-94597895D01*
X149172049Y-94666015D01*
X149259140Y-94679809D01*
X149389775Y-94700500D01*
X149389778Y-94700500D01*
X152010225Y-94700500D01*
X152119086Y-94683257D01*
X152227951Y-94666015D01*
X152437606Y-94597895D01*
X152634022Y-94497815D01*
X152812365Y-94368242D01*
X152968242Y-94212365D01*
X153097815Y-94034022D01*
X153197895Y-93837606D01*
X153266015Y-93627951D01*
X153300500Y-93410222D01*
X153300500Y-93189778D01*
X153300500Y-93189774D01*
X153266015Y-92972051D01*
X153266015Y-92972049D01*
X153197895Y-92762394D01*
X153097815Y-92565978D01*
X152968242Y-92387635D01*
X152812365Y-92231758D01*
X152634022Y-92102185D01*
X152634021Y-92102184D01*
X152634019Y-92102183D01*
X152544825Y-92056736D01*
X152437606Y-92002105D01*
X152437602Y-92002104D01*
X152437599Y-92002102D01*
X152227948Y-91933984D01*
X152010225Y-91899500D01*
X152010222Y-91899500D01*
X149389778Y-91899500D01*
X149389775Y-91899500D01*
X149172051Y-91933984D01*
X148962400Y-92002102D01*
X148765980Y-92102183D01*
X148676806Y-92166971D01*
X148587635Y-92231758D01*
X148431758Y-92387635D01*
X148366971Y-92476806D01*
X148302183Y-92565980D01*
X148202102Y-92762400D01*
X148133984Y-92972051D01*
X148099500Y-93189774D01*
X141162500Y-93189774D01*
X141128015Y-92972051D01*
X141128015Y-92972049D01*
X141059895Y-92762394D01*
X140959815Y-92565978D01*
X140830242Y-92387635D01*
X140674365Y-92231758D01*
X140496022Y-92102185D01*
X140496021Y-92102184D01*
X140496019Y-92102183D01*
X140406825Y-92056736D01*
X140299606Y-92002105D01*
X140299602Y-92002104D01*
X140299599Y-92002102D01*
X140089948Y-91933984D01*
X139872225Y-91899500D01*
X139872222Y-91899500D01*
X137251778Y-91899500D01*
X137251775Y-91899500D01*
X137034051Y-91933984D01*
X136824400Y-92002102D01*
X136627980Y-92102183D01*
X136538806Y-92166971D01*
X136449635Y-92231758D01*
X136293758Y-92387635D01*
X136228971Y-92476806D01*
X136164183Y-92565980D01*
X136064102Y-92762400D01*
X135995984Y-92972051D01*
X135961500Y-93189774D01*
X100050500Y-93189774D01*
X100050500Y-89558994D01*
X113034500Y-89558994D01*
X113034500Y-89761005D01*
X113073908Y-89959124D01*
X113073910Y-89959130D01*
X113151213Y-90145755D01*
X113152295Y-90147374D01*
X113263442Y-90313718D01*
X113406282Y-90456558D01*
X113574244Y-90568786D01*
X113760873Y-90646091D01*
X113958997Y-90685500D01*
X113958998Y-90685500D01*
X114161002Y-90685500D01*
X114161003Y-90685500D01*
X114359127Y-90646091D01*
X114545756Y-90568786D01*
X114713718Y-90456558D01*
X114856558Y-90313718D01*
X114968786Y-90145756D01*
X115046091Y-89959127D01*
X115085500Y-89761003D01*
X115085500Y-89558997D01*
X115085499Y-89558994D01*
X118114500Y-89558994D01*
X118114500Y-89761005D01*
X118153908Y-89959124D01*
X118153910Y-89959130D01*
X118231213Y-90145755D01*
X118232295Y-90147374D01*
X118343442Y-90313718D01*
X118486282Y-90456558D01*
X118654244Y-90568786D01*
X118840873Y-90646091D01*
X119038997Y-90685500D01*
X119038998Y-90685500D01*
X119241002Y-90685500D01*
X119241003Y-90685500D01*
X119439127Y-90646091D01*
X119625756Y-90568786D01*
X119793718Y-90456558D01*
X119936558Y-90313718D01*
X120048786Y-90145756D01*
X120126091Y-89959127D01*
X120165500Y-89761003D01*
X120165500Y-89558997D01*
X120126091Y-89360873D01*
X120048786Y-89174244D01*
X119936558Y-89006282D01*
X119793718Y-88863442D01*
X119625756Y-88751214D01*
X119625757Y-88751214D01*
X119625755Y-88751213D01*
X119439130Y-88673910D01*
X119439124Y-88673908D01*
X119241005Y-88634500D01*
X119241003Y-88634500D01*
X119038997Y-88634500D01*
X119038994Y-88634500D01*
X118840875Y-88673908D01*
X118840869Y-88673910D01*
X118654244Y-88751213D01*
X118486285Y-88863439D01*
X118343439Y-89006285D01*
X118231213Y-89174244D01*
X118153910Y-89360869D01*
X118153908Y-89360875D01*
X118114500Y-89558994D01*
X115085499Y-89558994D01*
X115046091Y-89360873D01*
X114968786Y-89174244D01*
X114856558Y-89006282D01*
X114713718Y-88863442D01*
X114545756Y-88751214D01*
X114545757Y-88751214D01*
X114545755Y-88751213D01*
X114359130Y-88673910D01*
X114359124Y-88673908D01*
X114161005Y-88634500D01*
X114161003Y-88634500D01*
X113958997Y-88634500D01*
X113958994Y-88634500D01*
X113760875Y-88673908D01*
X113760869Y-88673910D01*
X113574244Y-88751213D01*
X113406285Y-88863439D01*
X113263439Y-89006285D01*
X113151213Y-89174244D01*
X113073910Y-89360869D01*
X113073908Y-89360875D01*
X113034500Y-89558994D01*
X100050500Y-89558994D01*
X100050500Y-47502435D01*
X100050619Y-47497578D01*
X100055722Y-47393709D01*
X102149500Y-47393709D01*
X102149500Y-47606290D01*
X102182752Y-47816238D01*
X102248443Y-48018412D01*
X102344948Y-48207815D01*
X102344950Y-48207819D01*
X102469891Y-48379786D01*
X102469893Y-48379788D01*
X102469896Y-48379792D01*
X102620208Y-48530104D01*
X102620211Y-48530106D01*
X102620213Y-48530108D01*
X102792180Y-48655049D01*
X102792184Y-48655051D01*
X102981588Y-48751557D01*
X103183757Y-48817246D01*
X103183758Y-48817246D01*
X103183761Y-48817247D01*
X103393710Y-48850500D01*
X103393713Y-48850500D01*
X103606290Y-48850500D01*
X103816238Y-48817247D01*
X103816239Y-48817246D01*
X103816243Y-48817246D01*
X104018412Y-48751557D01*
X104207816Y-48655051D01*
X104379792Y-48530104D01*
X104530104Y-48379792D01*
X104655051Y-48207816D01*
X104751557Y-48018412D01*
X104817246Y-47816243D01*
X104823707Y-47775451D01*
X104850500Y-47606290D01*
X104850500Y-47393709D01*
X104817247Y-47183761D01*
X104812400Y-47168844D01*
X104751557Y-46981588D01*
X104655051Y-46792184D01*
X104655049Y-46792180D01*
X104530108Y-46620213D01*
X104530106Y-46620211D01*
X104530104Y-46620208D01*
X104379792Y-46469896D01*
X104379788Y-46469893D01*
X104379786Y-46469891D01*
X104207819Y-46344950D01*
X104207815Y-46344948D01*
X104018412Y-46248443D01*
X103816238Y-46182752D01*
X103606290Y-46149500D01*
X103606287Y-46149500D01*
X103393713Y-46149500D01*
X103393710Y-46149500D01*
X103183761Y-46182752D01*
X102981587Y-46248443D01*
X102792184Y-46344948D01*
X102792180Y-46344950D01*
X102620213Y-46469891D01*
X102469891Y-46620213D01*
X102344950Y-46792180D01*
X102344948Y-46792184D01*
X102248443Y-46981587D01*
X102182752Y-47183761D01*
X102149500Y-47393709D01*
X100055722Y-47393709D01*
X100056151Y-47384966D01*
X100057223Y-47363147D01*
X100066872Y-47166725D01*
X100067822Y-47157087D01*
X100116068Y-46831835D01*
X100117957Y-46822337D01*
X100197856Y-46503363D01*
X100200665Y-46494104D01*
X100311443Y-46184502D01*
X100315152Y-46175547D01*
X100455745Y-45878289D01*
X100460302Y-45869763D01*
X100629348Y-45587726D01*
X100634734Y-45579665D01*
X100830606Y-45315560D01*
X100836770Y-45308052D01*
X100844922Y-45299058D01*
X101057583Y-45064422D01*
X101064422Y-45057583D01*
X101308053Y-44836768D01*
X101315562Y-44830606D01*
X101360326Y-44797407D01*
X101579665Y-44634734D01*
X101587726Y-44629348D01*
X101869763Y-44460302D01*
X101878289Y-44455745D01*
X102175547Y-44315152D01*
X102184502Y-44311443D01*
X102494104Y-44200665D01*
X102503363Y-44197856D01*
X102822337Y-44117957D01*
X102831835Y-44116068D01*
X103157087Y-44067822D01*
X103166725Y-44066872D01*
X103474555Y-44051750D01*
X103497579Y-44050619D01*
X103502436Y-44050500D01*
X103516408Y-44050500D01*
X110514917Y-44050500D01*
X110573108Y-44069407D01*
G37*
G04 #@! TD.AperFunction*
G04 #@! TA.AperFunction,Conductor*
G36*
X108319504Y-76029831D02*
G01*
X110239535Y-77949862D01*
X110239534Y-77949862D01*
X110271371Y-77981698D01*
X110300138Y-78010465D01*
X110374362Y-78053318D01*
X110457147Y-78075500D01*
X127882227Y-78075500D01*
X127940418Y-78094407D01*
X127964540Y-78119496D01*
X127994724Y-78164669D01*
X128085331Y-78255276D01*
X128117037Y-78276461D01*
X128191866Y-78326461D01*
X128191870Y-78326463D01*
X128191873Y-78326465D01*
X128310256Y-78375501D01*
X128435931Y-78400500D01*
X128435932Y-78400500D01*
X128564068Y-78400500D01*
X128564069Y-78400500D01*
X128669891Y-78379450D01*
X128730652Y-78386640D01*
X128775582Y-78428172D01*
X128788206Y-78476547D01*
X128788206Y-78569069D01*
X128813205Y-78694742D01*
X128813206Y-78694747D01*
X128862240Y-78813125D01*
X128862244Y-78813133D01*
X128902028Y-78872672D01*
X128933430Y-78919669D01*
X129024037Y-79010276D01*
X129075866Y-79044907D01*
X129130572Y-79081461D01*
X129130576Y-79081463D01*
X129130579Y-79081465D01*
X129248962Y-79130501D01*
X129374637Y-79155500D01*
X129374638Y-79155500D01*
X129502774Y-79155500D01*
X129502775Y-79155500D01*
X129628450Y-79130501D01*
X129746833Y-79081465D01*
X129853375Y-79010276D01*
X129943982Y-78919669D01*
X129975386Y-78872669D01*
X130023433Y-78834792D01*
X130032077Y-78832046D01*
X130037847Y-78830500D01*
X130037850Y-78830500D01*
X130120636Y-78808318D01*
X130194859Y-78765465D01*
X131279996Y-77680326D01*
X131334511Y-77652551D01*
X131394943Y-77662122D01*
X131419998Y-77680325D01*
X134595138Y-80855465D01*
X134595140Y-80855466D01*
X134595142Y-80855468D01*
X134669357Y-80898316D01*
X134669355Y-80898316D01*
X134669359Y-80898317D01*
X134669361Y-80898318D01*
X134752147Y-80920500D01*
X134802405Y-80920500D01*
X134810002Y-80922968D01*
X134817892Y-80921719D01*
X134838547Y-80932243D01*
X134860596Y-80939407D01*
X134872409Y-80949496D01*
X134887934Y-80965021D01*
X134915711Y-81019538D01*
X134916930Y-81035025D01*
X134916930Y-81057613D01*
X134939112Y-81140398D01*
X134981965Y-81214622D01*
X135042568Y-81275225D01*
X135116792Y-81318078D01*
X135199577Y-81340260D01*
X135285283Y-81340260D01*
X136471204Y-81340260D01*
X136478801Y-81342728D01*
X136486691Y-81341479D01*
X136507346Y-81352003D01*
X136529395Y-81359167D01*
X136541208Y-81369256D01*
X136678636Y-81506684D01*
X136706413Y-81561201D01*
X136705730Y-81596002D01*
X136695132Y-81649280D01*
X136695132Y-81649284D01*
X136695132Y-81777422D01*
X136714442Y-81874499D01*
X136720131Y-81903095D01*
X136720132Y-81903100D01*
X136771028Y-82025973D01*
X136768954Y-82026831D01*
X136778158Y-82078441D01*
X136751443Y-82133486D01*
X136697476Y-82162315D01*
X136680095Y-82163853D01*
X112915188Y-82163853D01*
X112856997Y-82144946D01*
X112845184Y-82134857D01*
X108166994Y-77456667D01*
X108139217Y-77402150D01*
X108139900Y-77367351D01*
X108150500Y-77314069D01*
X108150500Y-77185931D01*
X108125501Y-77060256D01*
X108076465Y-76941873D01*
X108076463Y-76941870D01*
X108076461Y-76941866D01*
X108045400Y-76895381D01*
X108005276Y-76835331D01*
X108005271Y-76835326D01*
X108005268Y-76835322D01*
X107913555Y-76743610D01*
X107885777Y-76689094D01*
X107895348Y-76628661D01*
X107913555Y-76603602D01*
X108005268Y-76511889D01*
X108005276Y-76511881D01*
X108076465Y-76405339D01*
X108125501Y-76286956D01*
X108150500Y-76161281D01*
X108150500Y-76099835D01*
X108169407Y-76041644D01*
X108218907Y-76005680D01*
X108280093Y-76005680D01*
X108319504Y-76029831D01*
G37*
G04 #@! TD.AperFunction*
G04 #@! TA.AperFunction,Conductor*
G36*
X153847645Y-77337147D02*
G01*
X153865922Y-77351555D01*
X154997504Y-78483137D01*
X155001130Y-78490254D01*
X155007593Y-78494950D01*
X155014756Y-78516998D01*
X155025281Y-78537654D01*
X155026500Y-78553141D01*
X155026500Y-78717396D01*
X155007593Y-78775587D01*
X154958093Y-78811551D01*
X154896907Y-78811551D01*
X154870079Y-78796875D01*
X154869712Y-78797426D01*
X154865670Y-78794725D01*
X154865669Y-78794724D01*
X154821880Y-78765465D01*
X154759133Y-78723538D01*
X154759125Y-78723534D01*
X154640747Y-78674500D01*
X154640745Y-78674499D01*
X154640744Y-78674499D01*
X154515069Y-78649500D01*
X154386931Y-78649500D01*
X154386930Y-78649500D01*
X154356300Y-78655593D01*
X154261256Y-78674499D01*
X154261255Y-78674499D01*
X154261252Y-78674500D01*
X154142874Y-78723534D01*
X154142866Y-78723538D01*
X154036331Y-78794724D01*
X154036327Y-78794727D01*
X153945727Y-78885327D01*
X153945724Y-78885331D01*
X153874538Y-78991866D01*
X153874534Y-78991874D01*
X153825500Y-79110252D01*
X153825499Y-79110255D01*
X153825499Y-79110256D01*
X153816499Y-79155499D01*
X153800500Y-79235930D01*
X153800500Y-79364069D01*
X153825499Y-79489742D01*
X153825500Y-79489747D01*
X153874534Y-79608125D01*
X153874538Y-79608133D01*
X153917365Y-79672226D01*
X153945724Y-79714669D01*
X153945727Y-79714672D01*
X153945731Y-79714677D01*
X154036331Y-79805276D01*
X154081501Y-79835457D01*
X154119381Y-79883506D01*
X154125500Y-79917773D01*
X154125500Y-81382595D01*
X154106593Y-81440786D01*
X154096504Y-81452599D01*
X153488388Y-82060714D01*
X153433871Y-82088491D01*
X153373439Y-82078920D01*
X153330174Y-82035655D01*
X153320603Y-81975223D01*
X153322758Y-81965085D01*
X153325500Y-81954853D01*
X153325500Y-80857147D01*
X153303318Y-80774362D01*
X153303318Y-80774361D01*
X153303318Y-80774360D01*
X153260468Y-80700142D01*
X153260466Y-80700140D01*
X153260465Y-80700138D01*
X151799862Y-79239535D01*
X151799859Y-79239533D01*
X151799857Y-79239531D01*
X151725642Y-79196683D01*
X151725644Y-79196683D01*
X151693521Y-79188076D01*
X151642853Y-79174500D01*
X151642851Y-79174500D01*
X143091838Y-79174500D01*
X143033647Y-79155593D01*
X142997683Y-79106093D01*
X142997683Y-79044907D01*
X143004527Y-79028832D01*
X143005456Y-79027090D01*
X143005465Y-79027078D01*
X143054501Y-78908695D01*
X143079500Y-78783020D01*
X143079500Y-78654882D01*
X143054501Y-78529207D01*
X143005465Y-78410824D01*
X143005463Y-78410821D01*
X143005461Y-78410817D01*
X142973972Y-78363691D01*
X142957363Y-78304803D01*
X142978540Y-78247399D01*
X142986274Y-78238695D01*
X143195475Y-78029496D01*
X143249991Y-78001719D01*
X143265478Y-78000500D01*
X152465522Y-78000500D01*
X152523713Y-78019407D01*
X152547837Y-78044498D01*
X152559335Y-78061705D01*
X152594724Y-78114669D01*
X152685331Y-78205276D01*
X152718387Y-78227363D01*
X152791866Y-78276461D01*
X152791870Y-78276463D01*
X152791873Y-78276465D01*
X152910256Y-78325501D01*
X153035931Y-78350500D01*
X153035932Y-78350500D01*
X153164068Y-78350500D01*
X153164069Y-78350500D01*
X153289744Y-78325501D01*
X153408127Y-78276465D01*
X153514669Y-78205276D01*
X153605276Y-78114669D01*
X153676465Y-78008127D01*
X153725501Y-77889744D01*
X153750500Y-77764069D01*
X153750500Y-77635931D01*
X153725501Y-77510256D01*
X153704453Y-77459444D01*
X153699653Y-77398448D01*
X153731622Y-77346279D01*
X153788150Y-77322864D01*
X153847645Y-77337147D01*
G37*
G04 #@! TD.AperFunction*
M02*
